%TF.GenerationSoftware,Altium Limited,Altium Designer,25.4.2 (15)*%
G04 Layer_Color=128*
%FSLAX45Y45*%
%MOMM*%
%TF.SameCoordinates,E6CAE831-27AB-4F04-BD5C-EB1891CE41FD*%
%TF.FilePolarity,Positive*%
%TF.FileFunction,Paste,Bot*%
%TF.Part,Single*%
G01*
G75*
%TA.AperFunction,SMDPad,CuDef*%
%ADD18R,0.76200X1.01600*%
%ADD21R,1.01600X0.76200*%
%ADD57R,0.70000X1.90000*%
%ADD58R,1.20000X1.60000*%
%ADD59R,1.20000X2.20000*%
%ADD60R,1.40000X1.60000*%
G04:AMPARAMS|DCode=61|XSize=1.57mm|YSize=0.41mm|CornerRadius=0.05125mm|HoleSize=0mm|Usage=FLASHONLY|Rotation=180.000|XOffset=0mm|YOffset=0mm|HoleType=Round|Shape=RoundedRectangle|*
%AMROUNDEDRECTD61*
21,1,1.57000,0.30750,0,0,180.0*
21,1,1.46750,0.41000,0,0,180.0*
1,1,0.10250,-0.73375,0.15375*
1,1,0.10250,0.73375,0.15375*
1,1,0.10250,0.73375,-0.15375*
1,1,0.10250,-0.73375,-0.15375*
%
%ADD61ROUNDEDRECTD61*%
G04:AMPARAMS|DCode=62|XSize=2.06mm|YSize=0.6mm|CornerRadius=0.075mm|HoleSize=0mm|Usage=FLASHONLY|Rotation=180.000|XOffset=0mm|YOffset=0mm|HoleType=Round|Shape=RoundedRectangle|*
%AMROUNDEDRECTD62*
21,1,2.06000,0.45000,0,0,180.0*
21,1,1.91000,0.60000,0,0,180.0*
1,1,0.15000,-0.95500,0.22500*
1,1,0.15000,0.95500,0.22500*
1,1,0.15000,0.95500,-0.22500*
1,1,0.15000,-0.95500,-0.22500*
%
%ADD62ROUNDEDRECTD62*%
G04:AMPARAMS|DCode=63|XSize=0.9mm|YSize=0.61mm|CornerRadius=0.1525mm|HoleSize=0mm|Usage=FLASHONLY|Rotation=90.000|XOffset=0mm|YOffset=0mm|HoleType=Round|Shape=RoundedRectangle|*
%AMROUNDEDRECTD63*
21,1,0.90000,0.30500,0,0,90.0*
21,1,0.59500,0.61000,0,0,90.0*
1,1,0.30500,0.15250,0.29750*
1,1,0.30500,0.15250,-0.29750*
1,1,0.30500,-0.15250,-0.29750*
1,1,0.30500,-0.15250,0.29750*
%
%ADD63ROUNDEDRECTD63*%
G04:AMPARAMS|DCode=64|XSize=0.9mm|YSize=0.53mm|CornerRadius=0.1325mm|HoleSize=0mm|Usage=FLASHONLY|Rotation=90.000|XOffset=0mm|YOffset=0mm|HoleType=Round|Shape=RoundedRectangle|*
%AMROUNDEDRECTD64*
21,1,0.90000,0.26500,0,0,90.0*
21,1,0.63500,0.53000,0,0,90.0*
1,1,0.26500,0.13250,0.31750*
1,1,0.26500,0.13250,-0.31750*
1,1,0.26500,-0.13250,-0.31750*
1,1,0.26500,-0.13250,0.31750*
%
%ADD64ROUNDEDRECTD64*%
D18*
X965192Y1193800D02*
D03*
X1117592D02*
D03*
X4470408Y1676400D02*
D03*
X4622808D02*
D03*
X4419592Y1397000D02*
D03*
X4267192D02*
D03*
X5410208Y3327400D02*
D03*
X5562608D02*
D03*
X2344470Y5333999D02*
D03*
X2496870D02*
D03*
X5994392Y5969000D02*
D03*
X5841992D02*
D03*
X1259936Y5326380D02*
D03*
X1412336D02*
D03*
X1993900Y4521200D02*
D03*
X1841500D02*
D03*
X1993900Y4673600D02*
D03*
X1841500D02*
D03*
X4825992Y2413000D02*
D03*
X4673592D02*
D03*
X1727208Y4521200D02*
D03*
X1574808D02*
D03*
X1259936Y5478780D02*
D03*
X1412336D02*
D03*
X2344498Y5473699D02*
D03*
X2496898D02*
D03*
X4673592Y4597400D02*
D03*
X4825992D02*
D03*
X6400792Y5435600D02*
D03*
X6553192D02*
D03*
X6400792Y5588000D02*
D03*
X6553192D02*
D03*
X6400792Y5816600D02*
D03*
X6553192D02*
D03*
X6400792Y5969000D02*
D03*
X6553192D02*
D03*
D21*
X1295400Y3352808D02*
D03*
Y3200408D02*
D03*
X4914900Y1536708D02*
D03*
Y1384308D02*
D03*
X4762500Y1536708D02*
D03*
Y1384308D02*
D03*
X5067300Y1384292D02*
D03*
Y1536692D02*
D03*
X5219700Y1384292D02*
D03*
Y1536692D02*
D03*
X4610100Y1536708D02*
D03*
Y1384308D02*
D03*
X4622800Y3606808D02*
D03*
Y3759208D02*
D03*
X5537200Y4826008D02*
D03*
Y4978408D02*
D03*
X2120892Y4673584D02*
D03*
Y4521184D02*
D03*
X5207000Y3759208D02*
D03*
Y3606808D02*
D03*
X4470400D02*
D03*
Y3759208D02*
D03*
D57*
X7692606Y5126291D02*
D03*
X7582599D02*
D03*
X7472617D02*
D03*
X7362609D02*
D03*
X7252602D02*
D03*
X7142594D02*
D03*
X7032612D02*
D03*
X6922605D02*
D03*
X6812597D02*
D03*
D58*
X6692608Y5201298D02*
D03*
D59*
Y6151308D02*
D03*
X8242592D02*
D03*
D60*
X8152600Y5191290D02*
D03*
D61*
X5100300Y1208400D02*
D03*
Y1143400D02*
D03*
Y1078400D02*
D03*
Y1013400D02*
D03*
Y948400D02*
D03*
Y883400D02*
D03*
Y818400D02*
D03*
Y753400D02*
D03*
Y688400D02*
D03*
Y623400D02*
D03*
Y558400D02*
D03*
Y493400D02*
D03*
X4526300D02*
D03*
Y558400D02*
D03*
Y623400D02*
D03*
Y688400D02*
D03*
Y753400D02*
D03*
Y818400D02*
D03*
Y883400D02*
D03*
Y948400D02*
D03*
Y1013400D02*
D03*
Y1078400D02*
D03*
Y1143400D02*
D03*
Y1208400D02*
D03*
D62*
X5213801Y3454401D02*
D03*
Y3327401D02*
D03*
Y3200401D02*
D03*
Y3073401D02*
D03*
Y2946401D02*
D03*
Y2819401D02*
D03*
Y2692401D02*
D03*
Y2565401D02*
D03*
X4285801D02*
D03*
Y2692401D02*
D03*
Y2819401D02*
D03*
Y2946401D02*
D03*
Y3073401D02*
D03*
Y3200401D02*
D03*
Y3327401D02*
D03*
Y3454401D02*
D03*
X5257800Y4800600D02*
D03*
Y4927600D02*
D03*
Y5054600D02*
D03*
Y5181600D02*
D03*
Y5308600D02*
D03*
Y5435600D02*
D03*
Y5562600D02*
D03*
Y5689600D02*
D03*
X4329800D02*
D03*
Y5562600D02*
D03*
Y5435600D02*
D03*
Y5308600D02*
D03*
Y5181600D02*
D03*
Y5054600D02*
D03*
Y4927600D02*
D03*
Y4800600D02*
D03*
D63*
X5559600Y5829700D02*
D03*
X5311600D02*
D03*
Y6006700D02*
D03*
X5559600D02*
D03*
X4067000D02*
D03*
X4315000D02*
D03*
Y5829700D02*
D03*
X4067000D02*
D03*
D64*
X5475600D02*
D03*
X5395600D02*
D03*
Y6006700D02*
D03*
X5475600D02*
D03*
X4151000D02*
D03*
X4231000D02*
D03*
Y5829700D02*
D03*
X4151000D02*
D03*
%TF.MD5,b1e86522966c2107a2282842cdb27e7f*%
M02*
