%TF.GenerationSoftware,Altium Limited,Altium Designer,25.4.2 (15)*%
G04 Layer_Physical_Order=1*
G04 Layer_Color=255*
%FSLAX45Y45*%
%MOMM*%
%TF.SameCoordinates,7A7D98F3-C43F-4678-AB1F-6D30F1D0AD40*%
%TF.FilePolarity,Positive*%
%TF.FileFunction,Copper,L1,Top,Signal*%
%TF.Part,Single*%
G01*
G75*
%TA.AperFunction,SMDPad,CuDef*%
%ADD10C,1.27000*%
%ADD11R,0.76200X1.01600*%
%ADD12R,1.01600X0.76200*%
%ADD13R,1.39700X1.27000*%
%ADD14R,4.50000X2.30000*%
%ADD15R,1.52400X1.01600*%
%ADD16R,3.30000X1.50000*%
G04:AMPARAMS|DCode=17|XSize=2.5mm|YSize=4.3mm|CornerRadius=0.625mm|HoleSize=0mm|Usage=FLASHONLY|Rotation=270.000|XOffset=0mm|YOffset=0mm|HoleType=Round|Shape=RoundedRectangle|*
%AMROUNDEDRECTD17*
21,1,2.50000,3.05000,0,0,270.0*
21,1,1.25000,4.30000,0,0,270.0*
1,1,1.25000,-1.52500,-0.62500*
1,1,1.25000,-1.52500,0.62500*
1,1,1.25000,1.52500,0.62500*
1,1,1.25000,1.52500,-0.62500*
%
%ADD17ROUNDEDRECTD17*%
%TA.AperFunction,ConnectorPad*%
%ADD18R,1.15000X0.90000*%
%ADD19R,1.15000X0.80000*%
%ADD20R,1.15000X0.70000*%
%TA.AperFunction,SMDPad,CuDef*%
%ADD21R,3.30000X2.40000*%
%ADD22R,1.00000X2.40000*%
%TA.AperFunction,Conductor*%
%ADD23C,1.27000*%
%ADD24C,0.38100*%
%ADD25C,0.76200*%
%ADD26C,0.50800*%
%ADD27C,1.14300*%
%ADD28C,0.30480*%
%ADD29C,1.01600*%
%TA.AperFunction,ComponentPad*%
%ADD30C,1.77800*%
%ADD31R,1.77800X1.77800*%
%ADD32R,1.77800X1.77800*%
%ADD33C,1.05000*%
%ADD34C,1.30000*%
%ADD35O,1.90500X2.28600*%
%ADD36R,1.90500X2.28600*%
%ADD37O,2.00000X1.00000*%
%ADD38O,1.65100X2.15900*%
%ADD39R,1.65100X2.15900*%
%ADD40R,1.50000X1.50000*%
%ADD41C,1.50000*%
%ADD42C,2.00000*%
%ADD43R,2.00000X2.00000*%
%ADD44R,2.00000X2.00000*%
%ADD45C,1.65100*%
%ADD46C,0.60000*%
%ADD47C,6.00000*%
%TA.AperFunction,ViaPad*%
%ADD48C,0.60960*%
%ADD49C,1.01600*%
G36*
X5415790Y6277849D02*
X5377178Y6236005D01*
X5347005Y6266178D01*
X5347999Y6266559D01*
X5349703Y6267713D01*
X5352115Y6269640D01*
X5363605Y6280063D01*
X5388849Y6304790D01*
X5415790Y6277849D01*
D02*
G37*
G36*
X4290638Y6192378D02*
X4293259Y6191341D01*
X4296831Y6190427D01*
X4301354Y6189635D01*
X4313253Y6188415D01*
X4328955Y6187684D01*
X4348460Y6187440D01*
Y6156960D01*
X4338232Y6156899D01*
X4296831Y6153973D01*
X4293259Y6153059D01*
X4290638Y6152022D01*
X4288967Y6150864D01*
Y6193536D01*
X4290638Y6192378D01*
D02*
G37*
G36*
X5988116Y6139500D02*
X5989688Y6117920D01*
X5990409Y6114430D01*
X5991261Y6111702D01*
X5992244Y6109736D01*
X5993358Y6108532D01*
X5994603Y6108090D01*
X5943397D01*
X5944642Y6108532D01*
X5945756Y6109736D01*
X5946739Y6111702D01*
X5947591Y6114430D01*
X5948312Y6117920D01*
X5948901Y6122172D01*
X5949688Y6132962D01*
X5949950Y6146800D01*
X5988050D01*
X5988116Y6139500D01*
D02*
G37*
G36*
X5658040Y6154684D02*
X5659564Y6136371D01*
X5660898Y6128920D01*
X5662613Y6122607D01*
X5664708Y6117429D01*
X5667184Y6113389D01*
X5670042Y6110486D01*
X5673280Y6108720D01*
X5676900Y6108090D01*
X5600700D01*
X5604319Y6108720D01*
X5607558Y6110486D01*
X5610415Y6113389D01*
X5612892Y6117429D01*
X5614988Y6122607D01*
X5616702Y6128920D01*
X5618035Y6136371D01*
X5618988Y6144959D01*
X5619750Y6165545D01*
X5657850D01*
X5658040Y6154684D01*
D02*
G37*
G36*
X4571858Y6143308D02*
X4594488Y6123864D01*
X4601169Y6119095D01*
X4607420Y6115182D01*
X4613239Y6112125D01*
X4618627Y6109924D01*
X4623584Y6108579D01*
X4628110Y6108090D01*
X4578960Y6071640D01*
X4578578Y6076058D01*
X4577557Y6080692D01*
X4575895Y6085541D01*
X4573592Y6090606D01*
X4570649Y6095887D01*
X4567065Y6101383D01*
X4562841Y6107094D01*
X4552471Y6119164D01*
X4546326Y6125521D01*
X4563452Y6151501D01*
X4571858Y6143308D01*
D02*
G37*
G36*
X3835674Y6125521D02*
X3829529Y6119164D01*
X3819159Y6107094D01*
X3814935Y6101383D01*
X3811351Y6095887D01*
X3808408Y6090606D01*
X3806105Y6085541D01*
X3804443Y6080692D01*
X3803422Y6076058D01*
X3803040Y6071640D01*
X3753890Y6108090D01*
X3758416Y6108579D01*
X3763373Y6109924D01*
X3768761Y6112125D01*
X3774580Y6115182D01*
X3780831Y6119095D01*
X3787512Y6123864D01*
X3802168Y6135970D01*
X3810142Y6143308D01*
X3818548Y6151501D01*
X3835674Y6125521D01*
D02*
G37*
G36*
X5413282Y6070787D02*
X5406603Y6070743D01*
X5383657Y6069212D01*
X5381158Y6068644D01*
X5379356Y6067987D01*
X5378250Y6067244D01*
X5377840Y6066413D01*
X5378145Y6108395D01*
X5413282Y6108887D01*
Y6070787D01*
D02*
G37*
G36*
X5088356Y6128216D02*
X5080675Y6120268D01*
X5067719Y6105181D01*
X5062445Y6098042D01*
X5057972Y6091172D01*
X5054301Y6084572D01*
X5051433Y6078241D01*
X5049367Y6072179D01*
X5048102Y6066386D01*
X5047640Y6060864D01*
X4987714Y6108090D01*
X4993371Y6108687D01*
X4999568Y6110355D01*
X5006303Y6113095D01*
X5013577Y6116906D01*
X5021389Y6121789D01*
X5029741Y6127744D01*
X5048061Y6142867D01*
X5058029Y6152036D01*
X5068536Y6162277D01*
X5088356Y6128216D01*
D02*
G37*
G36*
X4413156Y6047384D02*
X4414579Y6044794D01*
X4416911Y6042508D01*
X4420151Y6040526D01*
X4424299Y6038850D01*
X4429356Y6037478D01*
X4430390Y6037293D01*
X4440769Y6038027D01*
X4444341Y6038941D01*
X4446962Y6039978D01*
X4448633Y6041136D01*
Y6035411D01*
X4458665Y6035040D01*
Y6004560D01*
X4449975Y6004408D01*
X4448633Y6004296D01*
Y5998464D01*
X4446962Y5999622D01*
X4444341Y6000659D01*
X4440769Y6001573D01*
X4436246Y6002365D01*
X4432732Y6002725D01*
X4429356Y6002122D01*
X4424299Y6000750D01*
X4420151Y5999074D01*
X4416911Y5997092D01*
X4414579Y5994806D01*
X4413156Y5992216D01*
X4412640Y5989320D01*
Y6004130D01*
X4408645Y6004316D01*
X4389140Y6004560D01*
Y6035040D01*
X4399368Y6035101D01*
X4412640Y6036039D01*
Y6050280D01*
X4413156Y6047384D01*
D02*
G37*
G36*
X5492750Y6009614D02*
X5495026Y5952727D01*
X5452354Y5952777D01*
X5452790Y5953750D01*
X5453181Y5955771D01*
X5453525Y5958840D01*
X5454076Y5968123D01*
X5454650Y6009670D01*
X5492750Y6009614D01*
D02*
G37*
G36*
X5057279Y5770762D02*
X5024499Y5745191D01*
X5024236Y5746350D01*
X5023189Y5748200D01*
X5021358Y5750739D01*
X5018742Y5753968D01*
X5006189Y5767796D01*
X4986575Y5787834D01*
X5018760Y5809531D01*
X5057279Y5770762D01*
D02*
G37*
G36*
X4062958Y5753268D02*
X4061844Y5752064D01*
X4060861Y5750098D01*
X4060009Y5747370D01*
X4059288Y5743880D01*
X4058699Y5739628D01*
X4057912Y5728838D01*
X4057650Y5715000D01*
X4019550D01*
X4019484Y5722300D01*
X4017912Y5743880D01*
X4017191Y5747370D01*
X4016339Y5750098D01*
X4015356Y5752064D01*
X4014242Y5753268D01*
X4012997Y5753710D01*
X4064203D01*
X4062958Y5753268D01*
D02*
G37*
G36*
X3758158D02*
X3757044Y5752064D01*
X3756061Y5750098D01*
X3755209Y5747370D01*
X3754488Y5743880D01*
X3753899Y5739628D01*
X3753112Y5728838D01*
X3752850Y5715000D01*
X3714750D01*
X3714684Y5722300D01*
X3713112Y5743880D01*
X3712391Y5747370D01*
X3711539Y5750098D01*
X3710556Y5752064D01*
X3709442Y5753268D01*
X3708197Y5753710D01*
X3759403D01*
X3758158Y5753268D01*
D02*
G37*
G36*
X5934286Y5753405D02*
X5928764Y5753001D01*
X5922971Y5751788D01*
X5916909Y5749768D01*
X5910578Y5746939D01*
X5903978Y5743302D01*
X5897108Y5738857D01*
X5889969Y5733603D01*
X5874882Y5720672D01*
X5866934Y5712994D01*
X5859044Y5758984D01*
X5866722Y5766932D01*
X5879653Y5782019D01*
X5884907Y5789158D01*
X5889352Y5796028D01*
X5892989Y5802628D01*
X5895818Y5808959D01*
X5897838Y5815021D01*
X5899051Y5820814D01*
X5899455Y5826336D01*
X5934286Y5753405D01*
D02*
G37*
G36*
X5673280Y5753080D02*
X5670042Y5751314D01*
X5667184Y5748411D01*
X5664708Y5744371D01*
X5662613Y5739193D01*
X5660898Y5732880D01*
X5659564Y5725429D01*
X5658612Y5716841D01*
X5657850Y5696255D01*
X5619750D01*
X5619559Y5707116D01*
X5618035Y5725429D01*
X5616702Y5732880D01*
X5614988Y5739193D01*
X5612892Y5744371D01*
X5610415Y5748411D01*
X5607558Y5751314D01*
X5604319Y5753080D01*
X5600700Y5753710D01*
X5676900D01*
X5673280Y5753080D01*
D02*
G37*
G36*
X5378302Y5789064D02*
X5379567Y5783271D01*
X5381633Y5777209D01*
X5384501Y5770878D01*
X5388172Y5764278D01*
X5392645Y5757408D01*
X5397919Y5750269D01*
X5405501Y5741440D01*
X5429650Y5719964D01*
X5430809Y5719701D01*
X5405238Y5686921D01*
X5392467Y5699609D01*
X5392386Y5699523D01*
X5381879Y5709764D01*
X5353591Y5734056D01*
X5345239Y5740011D01*
X5337427Y5744894D01*
X5330153Y5748705D01*
X5323418Y5751445D01*
X5317221Y5753113D01*
X5311564Y5753710D01*
X5377840Y5794586D01*
X5378302Y5789064D01*
D02*
G37*
G36*
X5834890Y5680949D02*
X5796278Y5639105D01*
X5766105Y5669278D01*
X5767099Y5669659D01*
X5768803Y5670813D01*
X5771215Y5672740D01*
X5782705Y5683163D01*
X5807949Y5707890D01*
X5834890Y5680949D01*
D02*
G37*
G36*
X4615690D02*
X4577078Y5639105D01*
X4546905Y5669278D01*
X4547899Y5669659D01*
X4549603Y5670813D01*
X4552015Y5672740D01*
X4563505Y5683163D01*
X4588749Y5707890D01*
X4615690Y5680949D01*
D02*
G37*
G36*
X4234690Y5655549D02*
X4196078Y5613705D01*
X4165905Y5643878D01*
X4166899Y5644259D01*
X4168603Y5645413D01*
X4171015Y5647340D01*
X4182505Y5657763D01*
X4207749Y5682490D01*
X4234690Y5655549D01*
D02*
G37*
G36*
X4006090D02*
X3967478Y5613705D01*
X3937305Y5643878D01*
X3938299Y5644259D01*
X3940003Y5645413D01*
X3942415Y5647340D01*
X3953905Y5657763D01*
X3979149Y5682490D01*
X4006090Y5655549D01*
D02*
G37*
G36*
X3701290D02*
X3662678Y5613705D01*
X3632505Y5643878D01*
X3633499Y5644259D01*
X3635203Y5645413D01*
X3637615Y5647340D01*
X3649105Y5657763D01*
X3674349Y5682490D01*
X3701290Y5655549D01*
D02*
G37*
G36*
X5606290Y5528549D02*
X5567678Y5486705D01*
X5537505Y5516878D01*
X5538499Y5517259D01*
X5540203Y5518413D01*
X5542615Y5520340D01*
X5554105Y5530763D01*
X5579349Y5555490D01*
X5606290Y5528549D01*
D02*
G37*
G36*
X685800Y5394344D02*
X637120D01*
Y5394920D01*
X616964D01*
X616495Y5395013D01*
X616027Y5394920D01*
X481480D01*
Y5264280D01*
X482055D01*
X491640Y5256760D01*
X491640Y5251580D01*
Y5232000D01*
X559300D01*
Y5181200D01*
X491640D01*
Y5159920D01*
X481480D01*
Y5049280D01*
Y4949280D01*
X491640D01*
Y4928000D01*
X559300D01*
Y4877200D01*
X491640D01*
Y4857620D01*
X491640Y4852440D01*
X482055Y4844920D01*
X481480D01*
Y4714280D01*
X539335D01*
X541424Y4712884D01*
X566200Y4707956D01*
X598693D01*
X618823Y4703952D01*
X685800D01*
Y4191000D01*
X589705D01*
X583355Y4201999D01*
X587356Y4208930D01*
X589358Y4216400D01*
X426642D01*
X428644Y4208930D01*
X432645Y4201999D01*
X426295Y4191000D01*
X349320D01*
Y4337120D01*
X158680D01*
Y4191000D01*
X51388D01*
X51387Y5575300D01*
X685800D01*
Y5394344D01*
D02*
G37*
G36*
X617219Y5373042D02*
X619392Y5371921D01*
X623014Y5370932D01*
X628084Y5370074D01*
X634602Y5369349D01*
X662849Y5367964D01*
X688922Y5367700D01*
Y5291500D01*
X675161Y5291434D01*
X623014Y5288268D01*
X619392Y5287279D01*
X617219Y5286158D01*
X616495Y5284905D01*
Y5374295D01*
X617219Y5373042D01*
D02*
G37*
G36*
X5378450Y5302250D02*
X5356733Y5299964D01*
X5337302Y5293106D01*
X5320157Y5281676D01*
X5305298Y5265674D01*
X5292725Y5245100D01*
X5282438Y5219954D01*
X5274437Y5190236D01*
X5268722Y5155946D01*
X5265293Y5117084D01*
X5264150Y5073650D01*
X5149850D01*
X5148707Y5117084D01*
X5145278Y5155946D01*
X5139563Y5190236D01*
X5131562Y5219954D01*
X5121275Y5245100D01*
X5108702Y5265674D01*
X5093843Y5281676D01*
X5076698Y5293106D01*
X5057267Y5299964D01*
X5035550Y5302250D01*
X5207000Y5416550D01*
X5378450Y5302250D01*
D02*
G37*
G36*
X6045199Y5384799D02*
X6055304Y5384800D01*
X6073975Y5377065D01*
X6088265Y5362775D01*
X6095324Y5345733D01*
X6095998Y5334036D01*
Y5333999D01*
X6095997Y5333998D01*
X6096000Y5333997D01*
X6095999Y5029199D01*
X6096000Y5019095D01*
X6088266Y5000423D01*
X6073975Y4986133D01*
X6056960Y4979086D01*
X6045200Y4978400D01*
X6045199Y4978401D01*
Y4978400D01*
X5679495D01*
X5660824Y4986134D01*
X5646534Y5000424D01*
X5638800Y5019095D01*
Y5029199D01*
X5638800Y5029200D01*
X5638800Y5276138D01*
X5689600D01*
X5700375Y5277556D01*
X5711150Y5278975D01*
X5731231Y5287293D01*
X5748475Y5300525D01*
X5832750Y5384800D01*
X6045199Y5384799D01*
D02*
G37*
G36*
X8083801Y5047120D02*
X8089824Y4951108D01*
X8092584Y4935677D01*
X8095847Y4923676D01*
X8099611Y4915103D01*
X8103877Y4909960D01*
X8108645Y4908245D01*
X7944155D01*
X7948923Y4909960D01*
X7953189Y4915103D01*
X7956953Y4923676D01*
X7960216Y4935677D01*
X7962976Y4951108D01*
X7965235Y4969967D01*
X7968246Y5017973D01*
X7969250Y5079695D01*
X8083550D01*
X8083801Y5047120D01*
D02*
G37*
G36*
X4871543Y4906264D02*
X4870571Y4906698D01*
X4868550Y4907087D01*
X4865482Y4907430D01*
X4849987Y4908184D01*
X4814653Y4908550D01*
Y4946650D01*
X4871543Y4948936D01*
Y4906264D01*
D02*
G37*
G36*
X6231816Y4838517D02*
X6311899Y4836599D01*
Y4760423D01*
X6350000Y4798523D01*
X6350527Y4795872D01*
X6352106Y4792392D01*
X6354736Y4788084D01*
X6358417Y4782949D01*
X6368933Y4770196D01*
X6383482Y4754617D01*
X6410461Y4781596D01*
X6409925Y4771736D01*
X6411522Y4760837D01*
X6415252Y4748900D01*
X6421114Y4735925D01*
X6429108Y4721911D01*
X6439235Y4706860D01*
X6451495Y4690770D01*
X6482412Y4655475D01*
X6501070Y4636270D01*
X6474129Y4609330D01*
X6454924Y4627987D01*
X6403540Y4671164D01*
X6388488Y4681291D01*
X6374475Y4689286D01*
X6361499Y4695148D01*
X6349562Y4698877D01*
X6338664Y4700474D01*
X6328803Y4699938D01*
X6355481Y4726616D01*
X6322315Y4755664D01*
X6318008Y4758294D01*
X6314528Y4759872D01*
X6311879Y4760399D01*
X6281788Y4760181D01*
X6231817Y4756658D01*
Y4738610D01*
X6227145Y4742750D01*
X6219646Y4746454D01*
X6209321Y4749723D01*
X6196169Y4752555D01*
X6188961Y4753636D01*
X6173631Y4752555D01*
X6160479Y4749723D01*
X6150154Y4746454D01*
X6142655Y4742750D01*
X6137983Y4738611D01*
X6137983Y4758480D01*
X6057900Y4760399D01*
Y4836599D01*
X6088011Y4836817D01*
X6137984Y4840340D01*
X6137984Y4858388D01*
X6142656Y4854248D01*
X6150155Y4850544D01*
X6160480Y4847276D01*
X6173632Y4844443D01*
X6180838Y4843362D01*
X6196168Y4844443D01*
X6209320Y4847276D01*
X6219646Y4850544D01*
X6227144Y4854248D01*
X6231816Y4858388D01*
Y4838517D01*
D02*
G37*
G36*
X3192486Y4815530D02*
X3210061Y4816669D01*
X3217873Y4817958D01*
X3224471Y4819481D01*
X3229854Y4821239D01*
X3234022Y4823231D01*
X3236976Y4825457D01*
Y4771542D01*
X3234022Y4773768D01*
X3229854Y4775760D01*
X3224471Y4777518D01*
X3217873Y4779041D01*
X3210061Y4780330D01*
X3192486Y4782040D01*
Y4728499D01*
X3180750Y4738904D01*
X3167013Y4748213D01*
X3151274Y4756427D01*
X3133535Y4763546D01*
X3113793Y4769569D01*
X3092051Y4774498D01*
X3068307Y4778331D01*
X3042562Y4781069D01*
X2985068Y4783259D01*
Y4813739D01*
X3014816Y4814287D01*
X3068307Y4818668D01*
X3092051Y4822501D01*
X3113793Y4827430D01*
X3133535Y4833453D01*
X3151274Y4840572D01*
X3167013Y4848786D01*
X3180750Y4858095D01*
X3192486Y4868500D01*
Y4815530D01*
D02*
G37*
G36*
X3348655Y4854249D02*
X3356154Y4850545D01*
X3366479Y4847276D01*
X3379631Y4844444D01*
X3386838Y4843363D01*
X3402169Y4844444D01*
X3415321Y4847276D01*
X3425646Y4850545D01*
X3433145Y4854249D01*
X3437817Y4858389D01*
Y4838518D01*
X3517900Y4836600D01*
Y4760400D01*
X3487789Y4760182D01*
X3437817Y4756659D01*
Y4738611D01*
X3433145Y4742751D01*
X3425646Y4746455D01*
X3415321Y4749724D01*
X3402169Y4752556D01*
X3394962Y4753637D01*
X3379632Y4752556D01*
X3366480Y4749723D01*
X3356154Y4746455D01*
X3348656Y4742751D01*
X3343984Y4738611D01*
Y4758481D01*
X3263901Y4760400D01*
Y4836600D01*
X3294012Y4836818D01*
X3343983Y4840341D01*
Y4858389D01*
X3348655Y4854249D01*
D02*
G37*
G36*
X772260Y4930240D02*
X774061Y4904332D01*
X777063Y4881472D01*
X781266Y4861660D01*
X786671Y4844896D01*
X793275Y4831180D01*
X801081Y4820512D01*
X810088Y4812892D01*
X820295Y4808320D01*
X831704Y4806796D01*
X733559Y4730596D01*
X619259Y4806796D01*
X633737Y4808320D01*
X646691Y4812892D01*
X658121Y4820512D01*
X668027Y4831180D01*
X676409Y4844896D01*
X683267Y4861660D01*
X688601Y4881472D01*
X692411Y4904332D01*
X694697Y4930240D01*
X695459Y4959196D01*
X771659D01*
X772260Y4930240D01*
D02*
G37*
G36*
X2857991Y4770460D02*
X2860462Y4730159D01*
X2861235Y4726910D01*
X2862110Y4724651D01*
X2863089Y4723383D01*
X2823332Y4720637D01*
X2824117Y4721957D01*
X2824818Y4724279D01*
X2825437Y4727603D01*
X2825974Y4731930D01*
X2826799Y4743588D01*
X2827459Y4778930D01*
X2857939Y4780644D01*
X2857991Y4770460D01*
D02*
G37*
G36*
X7476347Y4704750D02*
X7472852Y4706357D01*
X7468892Y4706963D01*
X7464469Y4706569D01*
X7459583Y4705174D01*
X7454233Y4702778D01*
X7448419Y4699382D01*
X7442142Y4694984D01*
X7435401Y4689586D01*
X7420529Y4675788D01*
X7399881Y4709022D01*
X7407078Y4716485D01*
X7419112Y4730652D01*
X7423951Y4737357D01*
X7428003Y4743808D01*
X7431270Y4750007D01*
X7433750Y4755953D01*
X7435445Y4761646D01*
X7436353Y4767086D01*
X7436476Y4772273D01*
X7476347Y4704750D01*
D02*
G37*
G36*
X3437816Y4584518D02*
X3517899Y4582599D01*
Y4506399D01*
X3487788Y4506181D01*
X3437817Y4502658D01*
Y4484611D01*
X3433145Y4488750D01*
X3425646Y4492455D01*
X3415321Y4495723D01*
X3402169Y4498555D01*
X3394962Y4499636D01*
X3379631Y4498555D01*
X3366479Y4495723D01*
X3356154Y4492455D01*
X3348655Y4488750D01*
X3343983Y4484611D01*
Y4504481D01*
X3263900Y4506399D01*
Y4582599D01*
X3294011Y4582817D01*
X3343983Y4586341D01*
Y4604388D01*
X3348655Y4600248D01*
X3356154Y4596544D01*
X3366479Y4593276D01*
X3379631Y4590443D01*
X3386838Y4589362D01*
X3402168Y4590443D01*
X3415320Y4593276D01*
X3425646Y4596544D01*
X3433144Y4600249D01*
X3437816Y4604388D01*
Y4584518D01*
D02*
G37*
G36*
X6231816Y4584517D02*
X6311899Y4582599D01*
Y4506399D01*
X6281788Y4506181D01*
X6231817Y4502658D01*
Y4484610D01*
X6227145Y4488750D01*
X6219646Y4492454D01*
X6209321Y4495723D01*
X6196169Y4498555D01*
X6188961Y4499636D01*
X6173631Y4498555D01*
X6160479Y4495723D01*
X6150154Y4492454D01*
X6142655Y4488750D01*
X6137983Y4484611D01*
X6137983Y4504480D01*
X6057900Y4506399D01*
Y4582599D01*
X6088011Y4582817D01*
X6137984Y4586340D01*
X6137984Y4604388D01*
X6142656Y4600248D01*
X6150155Y4596544D01*
X6160480Y4593276D01*
X6173632Y4590443D01*
X6180838Y4589362D01*
X6196168Y4590443D01*
X6209320Y4593276D01*
X6219646Y4596544D01*
X6227144Y4600248D01*
X6231816Y4604388D01*
Y4584517D01*
D02*
G37*
G36*
X3192486Y4565189D02*
X3226246Y4567424D01*
X3231152Y4568610D01*
X3234728Y4569955D01*
X3236976Y4571457D01*
Y4517542D01*
X3234728Y4519044D01*
X3231152Y4520389D01*
X3226246Y4521575D01*
X3220012Y4522603D01*
X3203558Y4524184D01*
X3192486Y4524563D01*
Y4474499D01*
X3181429Y4484180D01*
X3168234Y4492841D01*
X3152903Y4500484D01*
X3135433Y4507107D01*
X3115827Y4512712D01*
X3094082Y4517297D01*
X3070201Y4520864D01*
X3016025Y4524940D01*
X2985731Y4525449D01*
Y4563549D01*
X3016025Y4564059D01*
X3070201Y4568135D01*
X3094082Y4571702D01*
X3115827Y4576287D01*
X3135433Y4581892D01*
X3152903Y4588515D01*
X3168234Y4596157D01*
X3181429Y4604819D01*
X3192486Y4614500D01*
Y4565189D01*
D02*
G37*
G36*
X3437816Y4330518D02*
X3517899Y4328599D01*
Y4252399D01*
X3487788Y4252181D01*
X3437817Y4248658D01*
Y4230611D01*
X3433145Y4234750D01*
X3425646Y4238455D01*
X3415321Y4241723D01*
X3402169Y4244555D01*
X3394962Y4245636D01*
X3379631Y4244555D01*
X3366479Y4241723D01*
X3356154Y4238455D01*
X3348655Y4234750D01*
X3343983Y4230611D01*
Y4250481D01*
X3263900Y4252399D01*
Y4328599D01*
X3294011Y4328817D01*
X3343983Y4332341D01*
Y4350388D01*
X3348655Y4346248D01*
X3356154Y4342544D01*
X3366479Y4339276D01*
X3379631Y4336443D01*
X3386838Y4335362D01*
X3402168Y4336443D01*
X3415320Y4339276D01*
X3425646Y4342544D01*
X3433144Y4346249D01*
X3437816Y4350388D01*
Y4330518D01*
D02*
G37*
G36*
X6231816Y4330517D02*
X6311899Y4328599D01*
Y4252399D01*
X6281788Y4252181D01*
X6231817Y4248658D01*
Y4230610D01*
X6227145Y4234750D01*
X6219646Y4238454D01*
X6209321Y4241723D01*
X6196169Y4244555D01*
X6188961Y4245636D01*
X6173631Y4244555D01*
X6160479Y4241723D01*
X6150154Y4238454D01*
X6142655Y4234750D01*
X6137983Y4230611D01*
X6137983Y4250480D01*
X6057900Y4252399D01*
Y4328599D01*
X6088011Y4328817D01*
X6137984Y4332340D01*
X6137984Y4350388D01*
X6142656Y4346248D01*
X6150155Y4342544D01*
X6160480Y4339276D01*
X6173632Y4336443D01*
X6180838Y4335362D01*
X6196168Y4336443D01*
X6209320Y4339276D01*
X6219646Y4342544D01*
X6227144Y4346248D01*
X6231816Y4350388D01*
Y4330517D01*
D02*
G37*
G36*
X6394371Y4350819D02*
X6407566Y4342157D01*
X6422897Y4334515D01*
X6440367Y4327892D01*
X6459973Y4322287D01*
X6481718Y4317702D01*
X6505599Y4314135D01*
X6559775Y4310059D01*
X6590069Y4309549D01*
Y4271449D01*
X6559775Y4270940D01*
X6505599Y4266864D01*
X6481718Y4263297D01*
X6459973Y4258712D01*
X6440367Y4253107D01*
X6422897Y4246484D01*
X6407566Y4238841D01*
X6394371Y4230180D01*
X6383314Y4220499D01*
Y4269810D01*
X6349554Y4267575D01*
X6344648Y4266389D01*
X6341072Y4265044D01*
X6338824Y4263542D01*
Y4317457D01*
X6341072Y4315955D01*
X6344648Y4314610D01*
X6349554Y4313424D01*
X6355788Y4312396D01*
X6372242Y4310815D01*
X6383314Y4310436D01*
Y4360500D01*
X6394371Y4350819D01*
D02*
G37*
G36*
X3192486Y4311189D02*
X3226246Y4313424D01*
X3231152Y4314610D01*
X3234728Y4315955D01*
X3236976Y4317457D01*
Y4263542D01*
X3234728Y4265044D01*
X3231152Y4266389D01*
X3226246Y4267575D01*
X3220012Y4268603D01*
X3203558Y4270184D01*
X3192486Y4270563D01*
Y4220499D01*
X3181429Y4230180D01*
X3168234Y4238841D01*
X3152903Y4246484D01*
X3135433Y4253107D01*
X3115827Y4258712D01*
X3094082Y4263297D01*
X3070201Y4266864D01*
X3016025Y4270940D01*
X2985731Y4271449D01*
Y4309549D01*
X3016025Y4310059D01*
X3070201Y4314135D01*
X3094082Y4317702D01*
X3115827Y4322287D01*
X3135433Y4327892D01*
X3152903Y4334515D01*
X3168234Y4342157D01*
X3181429Y4350819D01*
X3192486Y4360500D01*
Y4311189D01*
D02*
G37*
G36*
X4972239Y4299117D02*
X4973752Y4281160D01*
X4975076Y4273503D01*
X4976779Y4266726D01*
X4978859Y4260829D01*
X4981318Y4255814D01*
X4984156Y4251679D01*
X4987371Y4248424D01*
X4990965Y4246050D01*
X4915035D01*
X4918629Y4248424D01*
X4921844Y4251679D01*
X4924682Y4255814D01*
X4927141Y4260829D01*
X4929221Y4266726D01*
X4930924Y4273503D01*
X4932248Y4281160D01*
X4933193Y4289698D01*
X4933950Y4309416D01*
X4972050D01*
X4972239Y4299117D01*
D02*
G37*
G36*
X4718239D02*
X4719752Y4281160D01*
X4721076Y4273503D01*
X4722779Y4266726D01*
X4724859Y4260829D01*
X4727318Y4255814D01*
X4730156Y4251679D01*
X4733371Y4248424D01*
X4736965Y4246050D01*
X4661035D01*
X4664629Y4248424D01*
X4667844Y4251679D01*
X4670682Y4255814D01*
X4673141Y4260829D01*
X4675221Y4266726D01*
X4676924Y4273503D01*
X4678248Y4281160D01*
X4679193Y4289698D01*
X4679950Y4309416D01*
X4718050D01*
X4718239Y4299117D01*
D02*
G37*
G36*
X8320122Y4685585D02*
X8327455Y4672885D01*
X8322933Y4665053D01*
X8318455Y4648341D01*
X8469425D01*
X8464947Y4665053D01*
X8460426Y4672885D01*
X8467758Y4685585D01*
X8686800Y4685585D01*
X8696806Y4685585D01*
X8716435Y4681681D01*
X8734925Y4674022D01*
X8751566Y4662903D01*
X8765718Y4648751D01*
X8776836Y4632111D01*
X8784495Y4613620D01*
X8787904Y4596480D01*
X8788399Y4583992D01*
Y4583985D01*
X8788399Y4583985D01*
X8788400Y4583984D01*
X8788399Y4355385D01*
X8788400Y4342876D01*
X8783520Y4318340D01*
X8773947Y4295227D01*
X8760048Y4274426D01*
X8742358Y4256736D01*
X8721557Y4242837D01*
X8698444Y4233264D01*
X8673908Y4228384D01*
X8661399Y4228385D01*
X8260444D01*
X8252821Y4241085D01*
X8254212Y4244445D01*
X8207117D01*
Y4263495D01*
X8188067D01*
Y4310589D01*
X8178342Y4306561D01*
X8164051Y4292271D01*
X8158480Y4278820D01*
X8145780Y4281347D01*
Y4282739D01*
X8137273Y4303277D01*
X8121553Y4318996D01*
X8102600Y4326847D01*
Y4271624D01*
X8077200D01*
Y4326847D01*
X8058247Y4318996D01*
X8042527Y4303277D01*
X8035953Y4287407D01*
X8022351Y4285012D01*
X8022268Y4285028D01*
X8015454Y4295226D01*
X8005881Y4318339D01*
X8001000Y4342874D01*
X8001000Y4355383D01*
X8000999Y4672330D01*
X8129270D01*
Y4685585D01*
X8320122Y4685585D01*
D02*
G37*
G36*
X5264458Y4377831D02*
X5271839Y4279606D01*
X5275222Y4259365D01*
X5283834Y4224061D01*
X5289062Y4208998D01*
X5294906Y4195662D01*
X5119094D01*
X5124938Y4208998D01*
X5130166Y4224061D01*
X5134779Y4240850D01*
X5138778Y4259365D01*
X5144929Y4301573D01*
X5147082Y4325267D01*
X5149850Y4406703D01*
X5264150D01*
X5264458Y4377831D01*
D02*
G37*
G36*
X7791605Y4173959D02*
X7795331Y4122351D01*
X7797038Y4113589D01*
X7799056Y4106483D01*
X7801384Y4101033D01*
X7804024Y4097239D01*
X7806973Y4095100D01*
X7737827D01*
X7740776Y4097239D01*
X7743415Y4101033D01*
X7745743Y4106483D01*
X7747761Y4113589D01*
X7749469Y4122351D01*
X7750866Y4132769D01*
X7752729Y4158573D01*
X7753350Y4191000D01*
X7791450D01*
X7791605Y4173959D01*
D02*
G37*
G36*
X3437816Y4076518D02*
X3517899Y4074599D01*
Y3998399D01*
X3487788Y3998181D01*
X3437817Y3994658D01*
Y3976611D01*
X3433145Y3980750D01*
X3425646Y3984455D01*
X3415321Y3987723D01*
X3402169Y3990555D01*
X3394962Y3991636D01*
X3379631Y3990555D01*
X3366479Y3987723D01*
X3356154Y3984455D01*
X3348655Y3980750D01*
X3343983Y3976611D01*
Y3996481D01*
X3263900Y3998399D01*
Y4074599D01*
X3294011Y4074817D01*
X3343983Y4078341D01*
Y4096388D01*
X3348655Y4092248D01*
X3356154Y4088544D01*
X3366479Y4085276D01*
X3379631Y4082443D01*
X3386838Y4081362D01*
X3402168Y4082443D01*
X3415320Y4085276D01*
X3425646Y4088544D01*
X3433144Y4092249D01*
X3437816Y4096388D01*
Y4076518D01*
D02*
G37*
G36*
X6231816Y4076517D02*
X6311899Y4074599D01*
Y3998399D01*
X6281788Y3998181D01*
X6231817Y3994658D01*
Y3976610D01*
X6227145Y3980750D01*
X6219646Y3984454D01*
X6209321Y3987723D01*
X6196169Y3990555D01*
X6188961Y3991636D01*
X6173631Y3990555D01*
X6160479Y3987723D01*
X6150154Y3984454D01*
X6142655Y3980750D01*
X6137983Y3976611D01*
X6137983Y3996480D01*
X6057900Y3998399D01*
Y4074599D01*
X6088011Y4074817D01*
X6137984Y4078340D01*
X6137984Y4096388D01*
X6142656Y4092248D01*
X6150155Y4088544D01*
X6160480Y4085276D01*
X6173632Y4082443D01*
X6180838Y4081362D01*
X6196168Y4082443D01*
X6209320Y4085276D01*
X6219646Y4088544D01*
X6227144Y4092248D01*
X6231816Y4096388D01*
Y4076517D01*
D02*
G37*
G36*
X6397349Y4091968D02*
X6408226Y4084324D01*
X6421361Y4077580D01*
X6436753Y4071735D01*
X6454401Y4066790D01*
X6474307Y4062743D01*
X6496469Y4059596D01*
X6547566Y4055999D01*
X6576499Y4055549D01*
Y4017449D01*
X6547566Y4017000D01*
X6496469Y4013403D01*
X6474307Y4010256D01*
X6454401Y4006209D01*
X6436753Y4001264D01*
X6421361Y3995418D01*
X6408226Y3988675D01*
X6397349Y3981031D01*
X6388728Y3972489D01*
Y4016168D01*
X6349554Y4013575D01*
X6344648Y4012389D01*
X6341072Y4011044D01*
X6338824Y4009542D01*
Y4063457D01*
X6341072Y4061955D01*
X6344648Y4060610D01*
X6349554Y4059424D01*
X6355788Y4058396D01*
X6372242Y4056815D01*
X6388728Y4056250D01*
Y4100510D01*
X6397349Y4091968D01*
D02*
G37*
G36*
X5735550Y4324948D02*
X5701422Y4289925D01*
X5620554Y4195632D01*
X5600770Y4167793D01*
X5584572Y4141750D01*
X5571960Y4117504D01*
X5562934Y4095053D01*
X5557494Y4074399D01*
X5555640Y4055540D01*
X5395390Y4253890D01*
X5413800Y4255295D01*
X5433107Y4259388D01*
X5453313Y4266169D01*
X5474416Y4275638D01*
X5496418Y4287795D01*
X5519318Y4302640D01*
X5543115Y4320173D01*
X5593405Y4363302D01*
X5619897Y4388899D01*
X5735550Y4324948D01*
D02*
G37*
G36*
X553421Y4180117D02*
X547086Y4170357D01*
X541497Y4158961D01*
X536653Y4145929D01*
X532555Y4131260D01*
X529202Y4114954D01*
X526593Y4097012D01*
X523613Y4056217D01*
X523240Y4033365D01*
X492760D01*
X492387Y4056217D01*
X489407Y4097012D01*
X486798Y4114954D01*
X483445Y4131260D01*
X479347Y4145929D01*
X474503Y4158961D01*
X468914Y4170357D01*
X462579Y4180117D01*
X455500Y4188239D01*
X560500D01*
X553421Y4180117D01*
D02*
G37*
G36*
X2220023Y4174282D02*
X2201080Y4154729D01*
X2169214Y4117978D01*
X2156291Y4100780D01*
X2145375Y4084368D01*
X2136466Y4068741D01*
X2129563Y4053900D01*
X2124667Y4039844D01*
X2121778Y4026574D01*
X2120895Y4014089D01*
X2032889Y4102095D01*
X2045374Y4102978D01*
X2058644Y4105867D01*
X2072700Y4110763D01*
X2087541Y4117666D01*
X2103168Y4126575D01*
X2119580Y4137491D01*
X2136778Y4150414D01*
X2173529Y4182280D01*
X2193082Y4201223D01*
X2220023Y4174282D01*
D02*
G37*
G36*
X2474023Y4174281D02*
X2455080Y4154727D01*
X2423214Y4117976D01*
X2410291Y4100778D01*
X2399375Y4084366D01*
X2390465Y4068740D01*
X2383563Y4053898D01*
X2378667Y4039843D01*
X2375778Y4026572D01*
X2374895Y4014087D01*
X2286889Y4102094D01*
X2299374Y4102976D01*
X2312644Y4105865D01*
X2326700Y4110761D01*
X2341541Y4117664D01*
X2357168Y4126573D01*
X2373580Y4137490D01*
X2390777Y4150412D01*
X2427528Y4182278D01*
X2447082Y4201221D01*
X2474023Y4174281D01*
D02*
G37*
G36*
X317500Y3976605D02*
X190500D01*
X179305Y4167105D01*
X328695D01*
X317500Y3976605D01*
D02*
G37*
G36*
X4733371Y4031976D02*
X4730156Y4028721D01*
X4727318Y4024586D01*
X4724859Y4019571D01*
X4722779Y4013674D01*
X4721076Y4006897D01*
X4719752Y3999240D01*
X4718807Y3990702D01*
X4718050Y3970984D01*
X4679950D01*
X4679761Y3981283D01*
X4678248Y3999240D01*
X4676924Y4006897D01*
X4675221Y4013674D01*
X4673141Y4019571D01*
X4670682Y4024586D01*
X4667844Y4028721D01*
X4664629Y4031976D01*
X4661035Y4034350D01*
X4736965D01*
X4733371Y4031976D01*
D02*
G37*
G36*
X2628917Y3963293D02*
X2629887Y3958659D01*
X2631503Y3953810D01*
X2633766Y3948745D01*
X2636676Y3943464D01*
X2640232Y3937969D01*
X2644435Y3932257D01*
X2654780Y3920187D01*
X2660923Y3913830D01*
X2639370Y3892277D01*
X2633012Y3898419D01*
X2620942Y3908765D01*
X2615231Y3912967D01*
X2609735Y3916524D01*
X2604455Y3919433D01*
X2599390Y3921696D01*
X2594541Y3923313D01*
X2589907Y3924282D01*
X2585488Y3924606D01*
X2628594Y3967711D01*
X2628917Y3963293D01*
D02*
G37*
G36*
X5289062Y4071527D02*
X5283834Y4056839D01*
X5279221Y4040675D01*
X5275222Y4023035D01*
X5269071Y3983328D01*
X5266918Y3961260D01*
X5264150Y3886200D01*
X5149850D01*
X5149542Y3912696D01*
X5144929Y3983328D01*
X5142161Y4003920D01*
X5134779Y4040675D01*
X5130166Y4056839D01*
X5124938Y4071527D01*
X5119094Y4084738D01*
X5294906D01*
X5289062Y4071527D01*
D02*
G37*
G36*
X6584059Y3910301D02*
X6585213Y3908597D01*
X6587140Y3906185D01*
X6597563Y3894695D01*
X6622290Y3869451D01*
X6595349Y3842510D01*
X6553505Y3881122D01*
X6583678Y3911295D01*
X6584059Y3910301D01*
D02*
G37*
G36*
X3437816Y3822518D02*
X3517899Y3820599D01*
Y3744399D01*
X3487788Y3744181D01*
X3437817Y3740658D01*
Y3722611D01*
X3433145Y3726750D01*
X3425646Y3730455D01*
X3415321Y3733723D01*
X3402169Y3736555D01*
X3394962Y3737636D01*
X3379631Y3736555D01*
X3366479Y3733723D01*
X3356154Y3730455D01*
X3348655Y3726750D01*
X3343983Y3722611D01*
Y3742481D01*
X3263900Y3744399D01*
Y3820599D01*
X3294011Y3820817D01*
X3343983Y3824341D01*
Y3842388D01*
X3348655Y3838248D01*
X3356154Y3834544D01*
X3366479Y3831276D01*
X3379631Y3828443D01*
X3386838Y3827362D01*
X3402168Y3828443D01*
X3415320Y3831276D01*
X3425646Y3834544D01*
X3433144Y3838249D01*
X3437816Y3842388D01*
Y3822518D01*
D02*
G37*
G36*
X6231816Y3822517D02*
X6311899Y3820599D01*
Y3744399D01*
X6281788Y3744181D01*
X6231817Y3740658D01*
Y3722610D01*
X6227145Y3726750D01*
X6219646Y3730454D01*
X6209321Y3733723D01*
X6196169Y3736555D01*
X6188961Y3737636D01*
X6173631Y3736555D01*
X6160479Y3733723D01*
X6150154Y3730454D01*
X6142655Y3726750D01*
X6137983Y3722611D01*
X6137983Y3742480D01*
X6057900Y3744399D01*
Y3820599D01*
X6088011Y3820817D01*
X6137984Y3824340D01*
X6137984Y3842388D01*
X6142656Y3838248D01*
X6150155Y3834544D01*
X6160480Y3831276D01*
X6173632Y3828443D01*
X6180838Y3827362D01*
X6196168Y3828443D01*
X6209320Y3831276D01*
X6219646Y3834544D01*
X6227144Y3838248D01*
X6231816Y3842388D01*
Y3822517D01*
D02*
G37*
G36*
X6410205Y3806227D02*
X6414545Y3802135D01*
X6420831Y3798524D01*
X6429063Y3795394D01*
X6439241Y3792746D01*
X6451365Y3790579D01*
X6465435Y3788894D01*
X6499414Y3786969D01*
X6519322Y3786728D01*
Y3748628D01*
X6498295Y3748415D01*
X6433353Y3743302D01*
X6421909Y3740958D01*
X6412382Y3738189D01*
X6404772Y3734993D01*
X6399078Y3731372D01*
X6395301Y3727324D01*
X6407811Y3810801D01*
X6410205Y3806227D01*
D02*
G37*
G36*
X9004555Y3680914D02*
X9006587Y3656506D01*
X9008365Y3646578D01*
X9010651Y3638169D01*
X9013445Y3631277D01*
X9016747Y3625904D01*
X9020557Y3622048D01*
X9024875Y3619710D01*
X9029701Y3618890D01*
X8928101D01*
X8932927Y3619710D01*
X8937245Y3622048D01*
X8941055Y3625904D01*
X8944357Y3631277D01*
X8947151Y3638169D01*
X8949437Y3646578D01*
X8951215Y3656506D01*
X8952485Y3667951D01*
X8953501Y3695395D01*
X9004301D01*
X9004555Y3680914D01*
D02*
G37*
G36*
X3437816Y3568518D02*
X3517899Y3566599D01*
Y3490399D01*
X3487788Y3490181D01*
X3437817Y3486658D01*
Y3468611D01*
X3433145Y3472750D01*
X3425646Y3476455D01*
X3415321Y3479723D01*
X3402169Y3482555D01*
X3394962Y3483636D01*
X3379631Y3482555D01*
X3366479Y3479723D01*
X3356154Y3476455D01*
X3348655Y3472750D01*
X3343983Y3468611D01*
Y3488481D01*
X3263900Y3490399D01*
Y3566599D01*
X3294011Y3566817D01*
X3343983Y3570341D01*
Y3588388D01*
X3348655Y3584248D01*
X3356154Y3580544D01*
X3366479Y3577276D01*
X3379631Y3574443D01*
X3386838Y3573362D01*
X3402168Y3574443D01*
X3415320Y3577276D01*
X3425646Y3580544D01*
X3433144Y3584249D01*
X3437816Y3588388D01*
Y3568518D01*
D02*
G37*
G36*
X6231816Y3568517D02*
X6311899Y3566599D01*
Y3490399D01*
X6281788Y3490181D01*
X6231817Y3486658D01*
Y3468610D01*
X6227145Y3472750D01*
X6219646Y3476454D01*
X6209321Y3479723D01*
X6196169Y3482555D01*
X6188961Y3483636D01*
X6173631Y3482555D01*
X6160479Y3479723D01*
X6150154Y3476454D01*
X6142655Y3472750D01*
X6137983Y3468611D01*
X6137983Y3488480D01*
X6057900Y3490399D01*
Y3566599D01*
X6088011Y3566817D01*
X6137984Y3570340D01*
X6137984Y3588388D01*
X6142656Y3584248D01*
X6150155Y3580544D01*
X6160480Y3577276D01*
X6173632Y3574443D01*
X6180838Y3573362D01*
X6196168Y3574443D01*
X6209320Y3577276D01*
X6219646Y3580544D01*
X6227144Y3584248D01*
X6231816Y3588388D01*
Y3568517D01*
D02*
G37*
G36*
X527768Y3641749D02*
X556252Y3616745D01*
X561503Y3613090D01*
X566005Y3610472D01*
X569760Y3608893D01*
X572767Y3608352D01*
X575025Y3608849D01*
X538970Y3572794D01*
X539467Y3575052D01*
X538926Y3578059D01*
X537346Y3581813D01*
X534729Y3586316D01*
X531074Y3591567D01*
X526380Y3597566D01*
X513878Y3611808D01*
X497224Y3629043D01*
X518776Y3650595D01*
X527768Y3641749D01*
D02*
G37*
G36*
X2629777Y3745826D02*
X2632666Y3732555D01*
X2637562Y3718499D01*
X2644464Y3703658D01*
X2653374Y3688031D01*
X2664290Y3671620D01*
X2677213Y3654422D01*
X2709079Y3617671D01*
X2728022Y3598117D01*
X2701081Y3571176D01*
X2681527Y3590119D01*
X2644776Y3621985D01*
X2627578Y3634908D01*
X2611166Y3645824D01*
X2595540Y3654734D01*
X2580699Y3661636D01*
X2566643Y3666532D01*
X2553372Y3669421D01*
X2540887Y3670304D01*
X2628894Y3758310D01*
X2629777Y3745826D01*
D02*
G37*
G36*
X7325664Y3693169D02*
X7324800Y3687533D01*
X7324038Y3678804D01*
X7322006Y3612952D01*
X7321549Y3531083D01*
X7207249D01*
X7202169Y3695712D01*
X7326629D01*
X7325664Y3693169D01*
D02*
G37*
G36*
X3179819Y3544709D02*
X3210061Y3546669D01*
X3217873Y3547958D01*
X3224471Y3549481D01*
X3229854Y3551239D01*
X3234022Y3553231D01*
X3236976Y3555457D01*
Y3501542D01*
X3234022Y3503768D01*
X3229854Y3505760D01*
X3224471Y3507518D01*
X3217873Y3509041D01*
X3210061Y3510330D01*
X3190793Y3512205D01*
X3179819Y3512631D01*
Y3474366D01*
X3173761Y3481756D01*
X3165601Y3488368D01*
X3155341Y3494202D01*
X3142981Y3499258D01*
X3128519Y3503536D01*
X3111957Y3507036D01*
X3093294Y3509759D01*
X3049665Y3512871D01*
X3024700Y3513259D01*
Y3543739D01*
X3049665Y3544128D01*
X3093294Y3547240D01*
X3111957Y3549962D01*
X3128519Y3553463D01*
X3142981Y3557741D01*
X3155341Y3562797D01*
X3165601Y3568631D01*
X3173761Y3575243D01*
X3179819Y3582633D01*
Y3544709D01*
D02*
G37*
G36*
X960140Y3565080D02*
X961906Y3561842D01*
X964810Y3558985D01*
X968850Y3556508D01*
X974027Y3554413D01*
X980341Y3552698D01*
X987792Y3551365D01*
X996379Y3550412D01*
X1016965Y3549650D01*
Y3511550D01*
X1006104Y3511360D01*
X987792Y3509835D01*
X980341Y3508502D01*
X974027Y3506788D01*
X968850Y3504692D01*
X964810Y3502215D01*
X961906Y3499358D01*
X960140Y3496120D01*
X959511Y3492500D01*
Y3568700D01*
X960140Y3565080D01*
D02*
G37*
G36*
X3907537Y3476168D02*
X3864865D01*
X3865300Y3477141D01*
X3865688Y3479161D01*
X3866031Y3482230D01*
X3866786Y3497725D01*
X3867151Y3533059D01*
X3905251D01*
X3907537Y3476168D01*
D02*
G37*
G36*
X3907103Y3431662D02*
X3906714Y3429642D01*
X3906371Y3426573D01*
X3905617Y3411078D01*
X3905251Y3375744D01*
X3867151D01*
X3864865Y3432634D01*
X3907537D01*
X3907103Y3431662D01*
D02*
G37*
G36*
X3437816Y3314518D02*
X3517899Y3312599D01*
Y3236399D01*
X3487788Y3236181D01*
X3437817Y3232658D01*
Y3214611D01*
X3433145Y3218750D01*
X3425646Y3222455D01*
X3415321Y3225723D01*
X3402169Y3228555D01*
X3394962Y3229636D01*
X3379631Y3228555D01*
X3366479Y3225723D01*
X3356154Y3222455D01*
X3348655Y3218750D01*
X3343983Y3214611D01*
Y3234481D01*
X3263900Y3236399D01*
Y3312599D01*
X3294011Y3312817D01*
X3343983Y3316341D01*
Y3334388D01*
X3348655Y3330248D01*
X3356154Y3326544D01*
X3366479Y3323276D01*
X3379631Y3320443D01*
X3386838Y3319362D01*
X3402168Y3320443D01*
X3415320Y3323276D01*
X3425646Y3326544D01*
X3433144Y3330249D01*
X3437816Y3334388D01*
Y3314518D01*
D02*
G37*
G36*
X6231816Y3314517D02*
X6311899Y3312599D01*
Y3236399D01*
X6281788Y3236181D01*
X6231817Y3232658D01*
Y3214610D01*
X6227145Y3218750D01*
X6219646Y3222454D01*
X6209321Y3225723D01*
X6196169Y3228555D01*
X6188961Y3229636D01*
X6173631Y3228555D01*
X6160479Y3225723D01*
X6150154Y3222454D01*
X6142655Y3218750D01*
X6137983Y3214611D01*
X6137983Y3234480D01*
X6057900Y3236399D01*
Y3312599D01*
X6088011Y3312817D01*
X6137984Y3316340D01*
X6137984Y3334388D01*
X6142656Y3330248D01*
X6150155Y3326544D01*
X6160480Y3323276D01*
X6173632Y3320443D01*
X6180838Y3319362D01*
X6196168Y3320443D01*
X6209320Y3323276D01*
X6219646Y3326544D01*
X6227144Y3330248D01*
X6231816Y3334388D01*
Y3314517D01*
D02*
G37*
G36*
X7156608Y3317683D02*
X7157493Y3305638D01*
X7158742Y3305639D01*
X7158308Y3304666D01*
X7157920Y3302646D01*
X7157795Y3301529D01*
X7157809Y3301332D01*
X7158860Y3294690D01*
X7160212Y3289069D01*
X7161863Y3284471D01*
X7163815Y3280894D01*
X7166067Y3278339D01*
X7168620Y3276806D01*
X7171473Y3276295D01*
X7156743D01*
X7156458Y3248749D01*
X7118358Y3248736D01*
X7117250Y3276295D01*
X7103344D01*
X7106196Y3276806D01*
X7108749Y3278339D01*
X7111001Y3280894D01*
X7112953Y3284471D01*
X7114605Y3289069D01*
X7115956Y3294690D01*
X7116398Y3297481D01*
X7116070Y3305627D01*
X7117427Y3305627D01*
X7117758Y3308997D01*
X7118358Y3327392D01*
X7156458D01*
X7156608Y3317683D01*
D02*
G37*
G36*
X3179819Y3294351D02*
X3226246Y3297424D01*
X3231152Y3298610D01*
X3234728Y3299955D01*
X3236976Y3301457D01*
Y3247542D01*
X3234728Y3249044D01*
X3231152Y3250389D01*
X3226246Y3251575D01*
X3220012Y3252603D01*
X3203558Y3254184D01*
X3179819Y3254997D01*
Y3220366D01*
X3174202Y3227031D01*
X3166386Y3232996D01*
X3156372Y3238258D01*
X3144158Y3242819D01*
X3129745Y3246679D01*
X3113134Y3249836D01*
X3094323Y3252292D01*
X3050106Y3255099D01*
X3024699Y3255449D01*
Y3293549D01*
X3050106Y3293900D01*
X3113134Y3299163D01*
X3129745Y3302320D01*
X3144158Y3306180D01*
X3156372Y3310740D01*
X3166386Y3316003D01*
X3174202Y3321967D01*
X3179819Y3328633D01*
Y3294351D01*
D02*
G37*
G36*
X944157Y3330627D02*
X955583Y3323286D01*
X968984Y3316809D01*
X984359Y3311196D01*
X1001709Y3306446D01*
X1021033Y3302560D01*
X1042331Y3299537D01*
X1090851Y3296083D01*
X1118072Y3295651D01*
Y3257551D01*
X1090851Y3257119D01*
X1042331Y3253665D01*
X1021033Y3250642D01*
X1001709Y3246756D01*
X984359Y3242006D01*
X968984Y3236393D01*
X955583Y3229916D01*
X944157Y3222575D01*
X934705Y3214371D01*
Y3338831D01*
X944157Y3330627D01*
D02*
G37*
G36*
X2996895Y3180078D02*
X2966722Y3149905D01*
X2966341Y3150899D01*
X2965187Y3152603D01*
X2963260Y3155015D01*
X2952837Y3166505D01*
X2928110Y3191749D01*
X2955051Y3218690D01*
X2996895Y3180078D01*
D02*
G37*
G36*
X2869895Y3154678D02*
X2839722Y3124505D01*
X2839341Y3125499D01*
X2838187Y3127203D01*
X2836260Y3129615D01*
X2825837Y3141105D01*
X2801110Y3166349D01*
X2828051Y3193290D01*
X2869895Y3154678D01*
D02*
G37*
G36*
X2645233Y3102864D02*
X2643562Y3104022D01*
X2640941Y3105059D01*
X2637369Y3105973D01*
X2632846Y3106765D01*
X2620947Y3107985D01*
X2605245Y3108716D01*
X2585740Y3108960D01*
Y3139440D01*
X2595968Y3139501D01*
X2637369Y3142427D01*
X2640941Y3143341D01*
X2643562Y3144378D01*
X2645233Y3145536D01*
Y3102864D01*
D02*
G37*
G36*
X3437816Y3060518D02*
X3517899Y3058599D01*
Y2982399D01*
X3487788Y2982181D01*
X3437817Y2978658D01*
Y2960611D01*
X3433145Y2964750D01*
X3425646Y2968455D01*
X3415321Y2971723D01*
X3402169Y2974555D01*
X3394962Y2975636D01*
X3379631Y2974555D01*
X3366479Y2971723D01*
X3356154Y2968455D01*
X3348655Y2964750D01*
X3343983Y2960611D01*
Y2980481D01*
X3263900Y2982399D01*
Y3058599D01*
X3294011Y3058817D01*
X3343983Y3062341D01*
Y3080388D01*
X3348655Y3076248D01*
X3356154Y3072544D01*
X3366479Y3069276D01*
X3379631Y3066443D01*
X3386838Y3065362D01*
X3402168Y3066443D01*
X3415320Y3069276D01*
X3425646Y3072544D01*
X3433144Y3076249D01*
X3437816Y3080388D01*
Y3060518D01*
D02*
G37*
G36*
X6231816Y3060517D02*
X6311899Y3058599D01*
Y2982399D01*
X6281788Y2982181D01*
X6231817Y2978658D01*
Y2960610D01*
X6227145Y2964750D01*
X6219646Y2968454D01*
X6209321Y2971723D01*
X6196169Y2974555D01*
X6188961Y2975636D01*
X6173631Y2974555D01*
X6160479Y2971723D01*
X6150154Y2968454D01*
X6142655Y2964750D01*
X6137983Y2960611D01*
X6137983Y2980480D01*
X6057900Y2982399D01*
Y3058599D01*
X6088011Y3058817D01*
X6137984Y3062340D01*
X6137984Y3080388D01*
X6142656Y3076248D01*
X6150155Y3072544D01*
X6160480Y3069276D01*
X6173632Y3066443D01*
X6180838Y3065362D01*
X6196168Y3066443D01*
X6209320Y3069276D01*
X6219646Y3072544D01*
X6227144Y3076248D01*
X6231816Y3080388D01*
Y3060517D01*
D02*
G37*
G36*
X8595494Y3194867D02*
X8646540Y3149600D01*
X8839200D01*
Y3067095D01*
X8826678Y3064759D01*
X8812299Y3089664D01*
X8791964Y3109999D01*
X8767058Y3124378D01*
X8743951Y3130570D01*
Y3022602D01*
Y2996716D01*
X8782051Y2996715D01*
X8783211Y2959114D01*
X8787131D01*
X8786166Y2956572D01*
X8785302Y2950936D01*
X8784540Y2942206D01*
X8784186Y2930713D01*
X8791964Y2935204D01*
X8812299Y2955539D01*
X8826678Y2980444D01*
X8839200Y2978108D01*
Y2813087D01*
X8826676Y2810758D01*
X8812297Y2835663D01*
X8791962Y2855998D01*
X8786292Y2859272D01*
X8787131Y2832087D01*
X8782261D01*
X8782051Y2794485D01*
X8743949D01*
Y2768601D01*
X8724899D01*
Y2749551D01*
X8616931D01*
X8623122Y2726443D01*
X8637502Y2701538D01*
X8657837Y2681203D01*
X8661190Y2679267D01*
X8657902Y2667000D01*
X8559800D01*
Y3077098D01*
X8492382Y3136196D01*
X8573988Y3216234D01*
X8595494Y3194867D01*
D02*
G37*
G36*
X3192486Y3041189D02*
X3226246Y3043424D01*
X3231152Y3044610D01*
X3234728Y3045955D01*
X3236976Y3047457D01*
Y2993542D01*
X3234728Y2995044D01*
X3231152Y2996389D01*
X3226246Y2997575D01*
X3220012Y2998603D01*
X3203558Y3000184D01*
X3192486Y3000563D01*
Y2950499D01*
X3181429Y2960180D01*
X3168234Y2968841D01*
X3152903Y2976484D01*
X3135433Y2983107D01*
X3115827Y2988712D01*
X3094082Y2993297D01*
X3070201Y2996864D01*
X3016025Y3000940D01*
X2985731Y3001449D01*
Y3039549D01*
X3016025Y3040059D01*
X3070201Y3044135D01*
X3094082Y3047702D01*
X3115827Y3052287D01*
X3135433Y3057892D01*
X3152903Y3064515D01*
X3168234Y3072157D01*
X3181429Y3080819D01*
X3192486Y3090500D01*
Y3041189D01*
D02*
G37*
G36*
X3437816Y2806518D02*
X3517899Y2804599D01*
Y2728399D01*
X3487788Y2728181D01*
X3437817Y2724658D01*
Y2706611D01*
X3433145Y2710750D01*
X3425646Y2714455D01*
X3415321Y2717723D01*
X3402169Y2720555D01*
X3394962Y2721636D01*
X3379631Y2720555D01*
X3366479Y2717723D01*
X3356154Y2714455D01*
X3348655Y2710750D01*
X3343983Y2706611D01*
Y2726481D01*
X3263900Y2728399D01*
Y2804599D01*
X3294011Y2804817D01*
X3343983Y2808341D01*
Y2826388D01*
X3348655Y2822248D01*
X3356154Y2818544D01*
X3366479Y2815276D01*
X3379631Y2812443D01*
X3386838Y2811362D01*
X3402168Y2812443D01*
X3415320Y2815276D01*
X3425646Y2818544D01*
X3433144Y2822249D01*
X3437816Y2826388D01*
Y2806518D01*
D02*
G37*
G36*
X6231816Y2806517D02*
X6311899Y2804599D01*
Y2728423D01*
X6350000Y2766523D01*
X6350527Y2763872D01*
X6352106Y2760392D01*
X6354736Y2756084D01*
X6358417Y2750949D01*
X6368933Y2738196D01*
X6376494Y2730099D01*
X6411895Y2765499D01*
X6412868Y2750836D01*
X6416074Y2735381D01*
X6421511Y2719136D01*
X6429180Y2702100D01*
X6439081Y2684273D01*
X6451214Y2665655D01*
X6465579Y2646246D01*
X6501005Y2605056D01*
X6522065Y2583275D01*
X6495125Y2556334D01*
X6473343Y2577395D01*
X6432153Y2612821D01*
X6412745Y2627185D01*
X6394127Y2639319D01*
X6376300Y2649219D01*
X6359263Y2656889D01*
X6343018Y2662326D01*
X6327564Y2665531D01*
X6312900Y2666504D01*
X6347768Y2701372D01*
X6322315Y2723664D01*
X6318008Y2726294D01*
X6314528Y2727872D01*
X6311879Y2728399D01*
X6281788Y2728181D01*
X6231817Y2724658D01*
Y2706610D01*
X6227145Y2710750D01*
X6219646Y2714454D01*
X6209321Y2717723D01*
X6196169Y2720555D01*
X6188961Y2721636D01*
X6173631Y2720555D01*
X6160479Y2717723D01*
X6150154Y2714454D01*
X6142655Y2710750D01*
X6137983Y2706611D01*
X6137983Y2726480D01*
X6057900Y2728399D01*
Y2804599D01*
X6088011Y2804817D01*
X6137984Y2808340D01*
X6137984Y2826388D01*
X6142656Y2822248D01*
X6150155Y2818544D01*
X6160480Y2815276D01*
X6173632Y2812443D01*
X6180838Y2811362D01*
X6196168Y2812443D01*
X6209320Y2815276D01*
X6219646Y2818544D01*
X6227144Y2822248D01*
X6231816Y2826388D01*
Y2806517D01*
D02*
G37*
G36*
X1057076Y2932907D02*
X1038535Y2913701D01*
X1007349Y2877198D01*
X994704Y2859902D01*
X984025Y2843242D01*
X975311Y2827219D01*
X968563Y2811832D01*
X963781Y2797081D01*
X960964Y2782967D01*
X960113Y2769490D01*
X872106Y2857496D01*
X885584Y2858348D01*
X899698Y2861164D01*
X914448Y2865947D01*
X929835Y2872695D01*
X945859Y2881408D01*
X962519Y2892087D01*
X979815Y2904732D01*
X997748Y2919342D01*
X1035524Y2954459D01*
X1057076Y2932907D01*
D02*
G37*
G36*
X3192486Y2787189D02*
X3226246Y2789424D01*
X3231152Y2790610D01*
X3234728Y2791955D01*
X3236976Y2793457D01*
Y2739542D01*
X3234728Y2741044D01*
X3231152Y2742389D01*
X3226246Y2743575D01*
X3220012Y2744603D01*
X3203558Y2746184D01*
X3192486Y2746563D01*
Y2696499D01*
X3181429Y2706180D01*
X3168234Y2714841D01*
X3152903Y2722484D01*
X3135433Y2729107D01*
X3115827Y2734712D01*
X3094082Y2739297D01*
X3070201Y2742864D01*
X3016025Y2746940D01*
X2985731Y2747449D01*
Y2785549D01*
X3016025Y2786059D01*
X3070201Y2790135D01*
X3094082Y2793702D01*
X3115827Y2798287D01*
X3135433Y2803892D01*
X3152903Y2810515D01*
X3168234Y2818157D01*
X3181429Y2826819D01*
X3192486Y2836500D01*
Y2787189D01*
D02*
G37*
G36*
X2628731Y2691360D02*
X2629935Y2690246D01*
X2631901Y2689263D01*
X2634629Y2688411D01*
X2638119Y2687690D01*
X2642372Y2687100D01*
X2653162Y2686313D01*
X2667001Y2686051D01*
Y2647951D01*
X2659701Y2647885D01*
X2638119Y2646312D01*
X2634629Y2645591D01*
X2631901Y2644739D01*
X2629935Y2643756D01*
X2628731Y2642642D01*
X2628289Y2641396D01*
Y2692606D01*
X2628731Y2691360D01*
D02*
G37*
G36*
X2358939Y2721024D02*
X2370366Y2713683D01*
X2383767Y2707206D01*
X2399142Y2701593D01*
X2416491Y2696843D01*
X2435815Y2692957D01*
X2440761Y2692255D01*
X2442369Y2692906D01*
X2446409Y2695383D01*
X2449312Y2698240D01*
X2451079Y2701479D01*
X2451708Y2705098D01*
Y2690702D01*
X2457114Y2689934D01*
X2505633Y2686480D01*
X2532855Y2686048D01*
Y2647948D01*
X2505633Y2647516D01*
X2457114Y2644062D01*
X2451708Y2643295D01*
Y2628898D01*
X2451079Y2632518D01*
X2449312Y2635756D01*
X2446409Y2638614D01*
X2442369Y2641090D01*
X2440761Y2641741D01*
X2435815Y2641039D01*
X2416491Y2637153D01*
X2399142Y2632403D01*
X2383767Y2626790D01*
X2370366Y2620313D01*
X2358939Y2612972D01*
X2349487Y2604768D01*
Y2729228D01*
X2358939Y2721024D01*
D02*
G37*
G36*
X1460512Y2604769D02*
X1454486Y2609354D01*
X1445869Y2613456D01*
X1434661Y2617075D01*
X1420862Y2620212D01*
X1404472Y2622866D01*
X1363919Y2626727D01*
X1313002Y2628658D01*
X1283657Y2628899D01*
Y2705099D01*
X1313002Y2705340D01*
X1404472Y2711131D01*
X1420862Y2713786D01*
X1434661Y2716923D01*
X1445869Y2720542D01*
X1454486Y2724644D01*
X1460512Y2729229D01*
Y2604769D01*
D02*
G37*
G36*
X3728065Y2695725D02*
X3707005Y2673943D01*
X3671579Y2632753D01*
X3657214Y2613345D01*
X3645081Y2594727D01*
X3635180Y2576900D01*
X3627511Y2559863D01*
X3622074Y2543618D01*
X3618868Y2528164D01*
X3617895Y2513500D01*
X3583027Y2548368D01*
X3560736Y2522915D01*
X3558106Y2518608D01*
X3556527Y2515128D01*
X3556000Y2512476D01*
X3517899Y2550577D01*
Y2474399D01*
X3487788Y2474181D01*
X3437817Y2470658D01*
Y2452611D01*
X3433145Y2456750D01*
X3425646Y2460455D01*
X3415321Y2463723D01*
X3402169Y2466555D01*
X3394962Y2467636D01*
X3379631Y2466555D01*
X3366479Y2463723D01*
X3356154Y2460455D01*
X3348655Y2456750D01*
X3343983Y2452611D01*
Y2472481D01*
X3263900Y2474399D01*
Y2550599D01*
X3294011Y2550817D01*
X3343983Y2554341D01*
Y2572388D01*
X3348655Y2568248D01*
X3356154Y2564544D01*
X3366479Y2561276D01*
X3379631Y2558443D01*
X3386838Y2557362D01*
X3402168Y2558443D01*
X3415320Y2561276D01*
X3425646Y2564544D01*
X3433144Y2568249D01*
X3437816Y2572388D01*
Y2552518D01*
X3517876Y2550600D01*
X3520528Y2551127D01*
X3524008Y2552706D01*
X3528315Y2555336D01*
X3533450Y2559017D01*
X3546203Y2569533D01*
X3554300Y2577094D01*
X3518900Y2612495D01*
X3533564Y2613468D01*
X3549018Y2616673D01*
X3565263Y2622111D01*
X3582300Y2629780D01*
X3600127Y2639681D01*
X3618745Y2651814D01*
X3638153Y2666179D01*
X3679343Y2701605D01*
X3701125Y2722665D01*
X3728065Y2695725D01*
D02*
G37*
G36*
X1059241Y2675683D02*
X1040298Y2656129D01*
X1008432Y2619378D01*
X995510Y2602180D01*
X984593Y2585769D01*
X975684Y2570142D01*
X968781Y2555301D01*
X963885Y2541245D01*
X960996Y2527974D01*
X960114Y2515490D01*
X872107Y2603496D01*
X884592Y2604379D01*
X897863Y2607268D01*
X911918Y2612164D01*
X926760Y2619066D01*
X942386Y2627976D01*
X958798Y2638892D01*
X975996Y2651815D01*
X1012747Y2683681D01*
X1032301Y2702624D01*
X1059241Y2675683D01*
D02*
G37*
G36*
X3192486Y2533189D02*
X3226246Y2535424D01*
X3231152Y2536610D01*
X3234728Y2537955D01*
X3236976Y2539457D01*
Y2485542D01*
X3234728Y2487044D01*
X3231152Y2488389D01*
X3226246Y2489575D01*
X3220012Y2490603D01*
X3203558Y2492184D01*
X3192486Y2492563D01*
Y2442499D01*
X3181429Y2452180D01*
X3168234Y2460841D01*
X3152903Y2468484D01*
X3135433Y2475107D01*
X3115827Y2480712D01*
X3094082Y2485297D01*
X3070201Y2488864D01*
X3016025Y2492940D01*
X2985731Y2493449D01*
Y2531549D01*
X3016025Y2532059D01*
X3070201Y2536135D01*
X3094082Y2539702D01*
X3115827Y2544287D01*
X3135433Y2549892D01*
X3152903Y2556515D01*
X3168234Y2564157D01*
X3181429Y2572819D01*
X3192486Y2582500D01*
Y2533189D01*
D02*
G37*
G36*
X6147547Y2560532D02*
X6155925Y2555197D01*
X6167205Y2550489D01*
X6181385Y2546409D01*
X6198466Y2542956D01*
X6198976Y2542884D01*
X6203924Y2543962D01*
X6212086Y2546672D01*
X6217627Y2549742D01*
X6220546Y2553175D01*
X6222642Y2539807D01*
X6267117Y2536366D01*
X6327389Y2535110D01*
X6322328Y2458910D01*
X6289320Y2458674D01*
X6235929Y2455062D01*
X6237378Y2445817D01*
X6233630Y2448305D01*
X6227070Y2450531D01*
X6217699Y2452494D01*
X6211266Y2453393D01*
X6167365Y2450423D01*
X6151591Y2447358D01*
X6138690Y2443822D01*
X6128661Y2439814D01*
X6121504Y2435335D01*
X6125030Y2457821D01*
X6073389Y2458910D01*
Y2535110D01*
X6099901Y2535291D01*
X6137577Y2537846D01*
X6142070Y2566496D01*
X6147547Y2560532D01*
D02*
G37*
G36*
X2619303Y2454844D02*
X2622810Y2453077D01*
X2627871Y2451517D01*
X2634484Y2450165D01*
X2642650Y2449021D01*
X2663640Y2447358D01*
X2706772Y2446422D01*
Y2408322D01*
X2692093Y2408200D01*
X2648333Y2405279D01*
X2641132Y2403940D01*
X2635428Y2402358D01*
X2631219Y2400532D01*
X2628505Y2398463D01*
X2627287Y2396151D01*
X2617348Y2456820D01*
X2619303Y2454844D01*
D02*
G37*
G36*
X2358939Y2467027D02*
X2370366Y2459686D01*
X2383767Y2453209D01*
X2399142Y2447596D01*
X2412999Y2443802D01*
X2426857Y2447596D01*
X2442232Y2453209D01*
X2455633Y2459686D01*
X2467060Y2467027D01*
X2476512Y2475231D01*
X2476511Y2434556D01*
X2505634Y2432483D01*
X2532855Y2432051D01*
Y2393951D01*
X2505634Y2393519D01*
X2476511Y2391446D01*
X2476510Y2350771D01*
X2467058Y2358975D01*
X2455632Y2366316D01*
X2442231Y2372793D01*
X2426856Y2378406D01*
X2412999Y2382200D01*
X2399142Y2378406D01*
X2383767Y2372793D01*
X2370366Y2366316D01*
X2358939Y2358975D01*
X2349487Y2350771D01*
Y2391446D01*
X2320365Y2393519D01*
X2293143Y2393951D01*
X2293144Y2432051D01*
X2320365Y2432483D01*
X2349487Y2434556D01*
Y2475231D01*
X2358939Y2467027D01*
D02*
G37*
G36*
X3437816Y2298518D02*
X3517899Y2296599D01*
Y2220399D01*
X3487788Y2220181D01*
X3437817Y2216658D01*
Y2198611D01*
X3433145Y2202750D01*
X3425646Y2206455D01*
X3415321Y2209723D01*
X3402169Y2212555D01*
X3394962Y2213636D01*
X3379631Y2212555D01*
X3366479Y2209723D01*
X3356154Y2206455D01*
X3348655Y2202750D01*
X3343983Y2198611D01*
Y2218481D01*
X3263900Y2220399D01*
Y2296599D01*
X3294011Y2296817D01*
X3343983Y2300341D01*
Y2318388D01*
X3348655Y2314248D01*
X3356154Y2310544D01*
X3366479Y2307276D01*
X3379631Y2304443D01*
X3386838Y2303362D01*
X3402168Y2304443D01*
X3415320Y2307276D01*
X3425646Y2310544D01*
X3433144Y2314249D01*
X3437816Y2318388D01*
Y2298518D01*
D02*
G37*
G36*
X6231816Y2298517D02*
X6311899Y2296599D01*
Y2220399D01*
X6281788Y2220181D01*
X6231817Y2216658D01*
Y2198610D01*
X6227145Y2202750D01*
X6219646Y2206454D01*
X6209321Y2209723D01*
X6196169Y2212555D01*
X6188961Y2213636D01*
X6173631Y2212555D01*
X6160479Y2209723D01*
X6150154Y2206454D01*
X6142655Y2202750D01*
X6137983Y2198611D01*
X6137983Y2218480D01*
X6057914Y2220399D01*
X6054261Y2219886D01*
X6049905Y2218347D01*
X6044856Y2215783D01*
X6039113Y2212195D01*
X6032678Y2207582D01*
X6019041Y2196364D01*
X6056900Y2158505D01*
X6041244Y2157563D01*
X6024948Y2154433D01*
X6008011Y2149112D01*
X5990434Y2141602D01*
X5972215Y2131902D01*
X5953356Y2120013D01*
X5933856Y2105934D01*
X5913716Y2089665D01*
X5871512Y2050560D01*
X5849960Y2072112D01*
X5870607Y2093534D01*
X5905334Y2134456D01*
X5919413Y2153956D01*
X5931302Y2172815D01*
X5941002Y2191033D01*
X5948512Y2208611D01*
X5953833Y2225548D01*
X5956963Y2241844D01*
X5957905Y2257500D01*
X5995360Y2220045D01*
X6006982Y2233278D01*
X6011595Y2239713D01*
X6015183Y2245456D01*
X6017747Y2250505D01*
X6019286Y2254861D01*
X6019800Y2258524D01*
X6057900Y2220424D01*
Y2296599D01*
X6088011Y2296817D01*
X6137984Y2300340D01*
X6137984Y2318388D01*
X6142656Y2314248D01*
X6150155Y2310544D01*
X6160480Y2307276D01*
X6173632Y2304443D01*
X6180838Y2303362D01*
X6196168Y2304443D01*
X6209320Y2307276D01*
X6219646Y2310544D01*
X6227144Y2314248D01*
X6231816Y2318388D01*
Y2298517D01*
D02*
G37*
G36*
X925244Y2441661D02*
X917903Y2430235D01*
X911426Y2416834D01*
X905813Y2401458D01*
X901063Y2384109D01*
X897177Y2364785D01*
X894154Y2343487D01*
X890700Y2294967D01*
X890268Y2267746D01*
X852168D01*
X851736Y2294967D01*
X848282Y2343487D01*
X845259Y2364785D01*
X841373Y2384109D01*
X836623Y2401458D01*
X831010Y2416834D01*
X824533Y2430235D01*
X817192Y2441661D01*
X808988Y2451113D01*
X933448D01*
X925244Y2441661D01*
D02*
G37*
G36*
X8778201Y2440983D02*
X8770213Y2429011D01*
X8763164Y2415199D01*
X8757056Y2399547D01*
X8751887Y2382056D01*
X8747658Y2362724D01*
X8744368Y2341552D01*
X8742019Y2318541D01*
X8740139Y2266998D01*
X8709659D01*
X8709189Y2293689D01*
X8705430Y2341552D01*
X8702141Y2362724D01*
X8697912Y2382056D01*
X8692743Y2399547D01*
X8686634Y2415199D01*
X8679586Y2429011D01*
X8671597Y2440983D01*
X8662669Y2451114D01*
X8787129D01*
X8778201Y2440983D01*
D02*
G37*
G36*
X3192486Y2279189D02*
X3226246Y2281424D01*
X3231152Y2282610D01*
X3234728Y2283955D01*
X3236976Y2285457D01*
Y2231542D01*
X3234728Y2233044D01*
X3231152Y2234389D01*
X3226246Y2235575D01*
X3220012Y2236603D01*
X3203558Y2238184D01*
X3192486Y2238563D01*
Y2188499D01*
X3181429Y2198180D01*
X3168234Y2206841D01*
X3152903Y2214484D01*
X3135433Y2221107D01*
X3115827Y2226712D01*
X3094082Y2231297D01*
X3070201Y2234864D01*
X3016025Y2238940D01*
X2985731Y2239449D01*
Y2277549D01*
X3016025Y2278059D01*
X3070201Y2282135D01*
X3094082Y2285702D01*
X3115827Y2290287D01*
X3135433Y2295892D01*
X3152903Y2302515D01*
X3168234Y2310157D01*
X3181429Y2318819D01*
X3192486Y2328500D01*
Y2279189D01*
D02*
G37*
G36*
X8489950Y2476502D02*
X8375650Y2224229D01*
X8374034Y2244330D01*
X8369184Y2258911D01*
X8361102Y2267974D01*
X8349787Y2271518D01*
X8335239Y2269543D01*
X8317458Y2262049D01*
X8296444Y2249036D01*
X8244718Y2206454D01*
X8214005Y2176885D01*
Y2338529D01*
X8272197Y2401293D01*
X8296444Y2431255D01*
X8317458Y2460270D01*
X8335239Y2488338D01*
X8349787Y2515459D01*
X8361102Y2541633D01*
X8369184Y2566860D01*
X8374034Y2591140D01*
X8375650Y2614474D01*
X8489950Y2476502D01*
D02*
G37*
G36*
X1568834Y2334777D02*
X1564755Y2328273D01*
X1561156Y2319570D01*
X1558037Y2308669D01*
X1555398Y2295569D01*
X1553239Y2280271D01*
X1551646Y2259687D01*
X1551659Y2259525D01*
X1553415Y2249619D01*
X1555674Y2241237D01*
X1558435Y2234379D01*
X1561697Y2229045D01*
X1565461Y2225235D01*
X1569727Y2222949D01*
X1574495Y2222187D01*
X1549924D01*
X1549400Y2197092D01*
X1498600D01*
X1498360Y2221184D01*
X1498282Y2222187D01*
X1473505D01*
X1478273Y2222949D01*
X1482539Y2225235D01*
X1486304Y2229045D01*
X1489566Y2234379D01*
X1492326Y2241237D01*
X1494585Y2249619D01*
X1495681Y2255798D01*
X1492602Y2295569D01*
X1489963Y2308669D01*
X1486844Y2319570D01*
X1483246Y2328273D01*
X1479167Y2334777D01*
X1474609Y2339082D01*
X1573392D01*
X1568834Y2334777D01*
D02*
G37*
G36*
X5740400Y2522920D02*
X5549450D01*
Y2387600D01*
Y2252280D01*
X5702786D01*
X5707647Y2240547D01*
X5524500Y2057400D01*
X4851400D01*
Y3149600D01*
X5740400D01*
Y2522920D01*
D02*
G37*
G36*
X4546600Y2057400D02*
X3657600D01*
Y2252280D01*
X3871350D01*
Y2387600D01*
Y2522920D01*
X3682514D01*
X3677653Y2534653D01*
X4292600Y3149600D01*
X4546600D01*
Y2057400D01*
D02*
G37*
G36*
X3437816Y2044518D02*
X3517899Y2042599D01*
Y1966399D01*
X3487788Y1966181D01*
X3437817Y1962658D01*
Y1944611D01*
X3433145Y1948750D01*
X3425646Y1952455D01*
X3415321Y1955723D01*
X3402169Y1958555D01*
X3394962Y1959636D01*
X3379631Y1958555D01*
X3366479Y1955723D01*
X3356154Y1952455D01*
X3348655Y1948750D01*
X3343983Y1944611D01*
Y1964481D01*
X3263900Y1966399D01*
Y2042599D01*
X3294011Y2042817D01*
X3343983Y2046341D01*
Y2064388D01*
X3348655Y2060248D01*
X3356154Y2056544D01*
X3366479Y2053276D01*
X3379631Y2050443D01*
X3386838Y2049362D01*
X3402168Y2050443D01*
X3415320Y2053276D01*
X3425646Y2056544D01*
X3433144Y2060249D01*
X3437816Y2064388D01*
Y2044518D01*
D02*
G37*
G36*
X6231816Y2044517D02*
X6311899Y2042599D01*
Y1966399D01*
X6281788Y1966181D01*
X6231817Y1962658D01*
Y1944610D01*
X6227145Y1948750D01*
X6219646Y1952454D01*
X6209321Y1955723D01*
X6196169Y1958555D01*
X6188961Y1959636D01*
X6173631Y1958555D01*
X6160479Y1955723D01*
X6150154Y1952454D01*
X6142655Y1948750D01*
X6137983Y1944611D01*
X6137983Y1964480D01*
X6057900Y1966399D01*
Y2042599D01*
X6088011Y2042817D01*
X6137984Y2046340D01*
X6137984Y2064388D01*
X6142656Y2060248D01*
X6150155Y2056544D01*
X6160480Y2053276D01*
X6173632Y2050443D01*
X6180838Y2049362D01*
X6196168Y2050443D01*
X6209320Y2053276D01*
X6219646Y2056544D01*
X6227144Y2060248D01*
X6231816Y2064388D01*
Y2044517D01*
D02*
G37*
G36*
X1575067Y2066225D02*
X1576781Y2063039D01*
X1579639Y2060227D01*
X1583639Y2057790D01*
X1588783Y2055728D01*
X1595069Y2054041D01*
X1602499Y2052729D01*
X1609083Y2052009D01*
X1641927Y2053330D01*
X1641939Y2010658D01*
X1640966Y2011092D01*
X1638946Y2011480D01*
X1635878Y2011823D01*
X1620383Y2012576D01*
X1618813Y2012593D01*
X1602499Y2011255D01*
X1595069Y2009943D01*
X1588783Y2008256D01*
X1583639Y2006194D01*
X1579639Y2003757D01*
X1576781Y2000945D01*
X1575067Y1997758D01*
X1574495Y1994197D01*
Y2069787D01*
X1575067Y2066225D01*
D02*
G37*
G36*
X3192486Y2025189D02*
X3226246Y2027424D01*
X3231152Y2028610D01*
X3234728Y2029955D01*
X3236976Y2031457D01*
Y1977542D01*
X3234728Y1979044D01*
X3231152Y1980389D01*
X3226246Y1981575D01*
X3220012Y1982603D01*
X3203558Y1984184D01*
X3192486Y1984563D01*
Y1934499D01*
X3181429Y1944180D01*
X3168234Y1952841D01*
X3152903Y1960484D01*
X3135433Y1967107D01*
X3115827Y1972712D01*
X3094082Y1977297D01*
X3070201Y1980864D01*
X3016025Y1984940D01*
X2985731Y1985449D01*
Y2023549D01*
X3016025Y2024059D01*
X3070201Y2028135D01*
X3094082Y2031702D01*
X3115827Y2036287D01*
X3135433Y2041892D01*
X3152903Y2048515D01*
X3168234Y2056157D01*
X3181429Y2064819D01*
X3192486Y2074500D01*
Y2025189D01*
D02*
G37*
G36*
X6033965Y1907406D02*
X6020031Y1909447D01*
X6005208Y1908918D01*
X5989498Y1905820D01*
X5972899Y1900152D01*
X5955413Y1891914D01*
X5937038Y1881107D01*
X5917776Y1867730D01*
X5897625Y1851783D01*
X5854661Y1812182D01*
X5838260Y1838886D01*
X5859723Y1860921D01*
X5911542Y1921317D01*
X5924625Y1939546D01*
X5935612Y1956823D01*
X5944505Y1973149D01*
X5951303Y1988523D01*
X5956005Y2002946D01*
X5958613Y2016418D01*
X6033965Y1907406D01*
D02*
G37*
G36*
X3437816Y1790518D02*
X3517899Y1788599D01*
Y1712399D01*
X3487788Y1712181D01*
X3437817Y1708658D01*
Y1690611D01*
X3433145Y1694750D01*
X3425646Y1698455D01*
X3415321Y1701723D01*
X3402169Y1704555D01*
X3394962Y1705636D01*
X3379631Y1704555D01*
X3366479Y1701723D01*
X3356154Y1698455D01*
X3348655Y1694750D01*
X3343983Y1690611D01*
Y1710481D01*
X3263900Y1712399D01*
Y1788599D01*
X3294011Y1788817D01*
X3343983Y1792341D01*
Y1810388D01*
X3348655Y1806248D01*
X3356154Y1802544D01*
X3366479Y1799276D01*
X3379631Y1796443D01*
X3386838Y1795362D01*
X3402168Y1796443D01*
X3415320Y1799276D01*
X3425646Y1802544D01*
X3433144Y1806249D01*
X3437816Y1810388D01*
Y1790518D01*
D02*
G37*
G36*
X8039701Y1739900D02*
X8039072Y1743519D01*
X8037306Y1746758D01*
X8034403Y1749615D01*
X8030362Y1752092D01*
X8025185Y1754188D01*
X8018871Y1755902D01*
X8011421Y1757235D01*
X8002833Y1758188D01*
X7982247Y1758950D01*
Y1797050D01*
X7993108Y1797240D01*
X8011421Y1798764D01*
X8018871Y1800098D01*
X8025185Y1801813D01*
X8030362Y1803908D01*
X8034403Y1806384D01*
X8037306Y1809242D01*
X8039072Y1812480D01*
X8039701Y1816100D01*
Y1739900D01*
D02*
G37*
G36*
X4201776Y1767224D02*
X4169881Y1734133D01*
X4147133Y1756881D01*
X4147638Y1757159D01*
X4148767Y1758084D01*
X4152893Y1761876D01*
X4180224Y1788776D01*
X4201776Y1767224D01*
D02*
G37*
G36*
X3192486Y1771189D02*
X3226246Y1773424D01*
X3231152Y1774610D01*
X3234728Y1775955D01*
X3236976Y1777457D01*
Y1723542D01*
X3234728Y1725044D01*
X3231152Y1726389D01*
X3226246Y1727575D01*
X3220012Y1728603D01*
X3203558Y1730184D01*
X3192486Y1730563D01*
Y1680499D01*
X3181429Y1690180D01*
X3168234Y1698841D01*
X3152903Y1706484D01*
X3135433Y1713107D01*
X3115827Y1718712D01*
X3094082Y1723297D01*
X3070201Y1726864D01*
X3016025Y1730940D01*
X2985731Y1731449D01*
Y1769549D01*
X3016025Y1770059D01*
X3070201Y1774135D01*
X3094082Y1777702D01*
X3115827Y1782287D01*
X3135433Y1787892D01*
X3152903Y1794515D01*
X3168234Y1802157D01*
X3181429Y1810819D01*
X3192486Y1820500D01*
Y1771189D01*
D02*
G37*
G36*
X635000Y1638300D02*
X292108D01*
Y1656080D01*
X311158D01*
Y1727200D01*
X330208D01*
Y1746250D01*
X388628D01*
Y1798319D01*
X388629D01*
Y1808481D01*
X388628D01*
Y1860550D01*
X330208D01*
Y1898650D01*
X388628D01*
Y1943100D01*
X635000D01*
Y1638300D01*
D02*
G37*
G36*
X4239838Y1671178D02*
X4242459Y1670141D01*
X4246031Y1669227D01*
X4250554Y1668435D01*
X4262453Y1667215D01*
X4278155Y1666484D01*
X4297660Y1666240D01*
Y1635760D01*
X4287432Y1635699D01*
X4246031Y1632773D01*
X4242459Y1631859D01*
X4239838Y1630822D01*
X4238167Y1629664D01*
Y1672336D01*
X4239838Y1671178D01*
D02*
G37*
G36*
X7925816Y1619427D02*
X7883144D01*
X7883578Y1620399D01*
X7883967Y1622420D01*
X7884310Y1625488D01*
X7885064Y1640983D01*
X7885430Y1676317D01*
X7923530D01*
X7925816Y1619427D01*
D02*
G37*
G36*
X1400633Y1528064D02*
X1399661Y1528498D01*
X1397640Y1528887D01*
X1394572Y1529230D01*
X1379077Y1529984D01*
X1343743Y1530350D01*
Y1568450D01*
X1400633Y1570736D01*
Y1528064D01*
D02*
G37*
G36*
X911739Y1570302D02*
X913760Y1569913D01*
X916828Y1569570D01*
X932323Y1568816D01*
X967657Y1568450D01*
Y1530350D01*
X910767Y1528064D01*
Y1570736D01*
X911739Y1570302D01*
D02*
G37*
G36*
X5938004Y1513924D02*
X5937580Y1512340D01*
Y1480659D01*
X5943600Y1458192D01*
Y1367900D01*
X5932500D01*
Y1117100D01*
X5943600D01*
Y762000D01*
X5334000D01*
X5131297Y964703D01*
X5131298Y1325880D01*
X5149859D01*
Y1397000D01*
Y1468120D01*
X5130800D01*
Y1524000D01*
X5475807D01*
X5482863Y1513440D01*
X5481976Y1511300D01*
X5592424D01*
X5591537Y1513440D01*
X5598593Y1524000D01*
X5640907D01*
X5647963Y1513440D01*
X5647076Y1511300D01*
X5757524D01*
X5756637Y1513440D01*
X5763693Y1524000D01*
X5793307D01*
X5800363Y1513440D01*
X5799476Y1511300D01*
X5909924D01*
X5909037Y1513440D01*
X5916093Y1524000D01*
X5930273D01*
X5938004Y1513924D01*
D02*
G37*
G36*
X2559239Y1506485D02*
X2560763Y1488172D01*
X2562096Y1480721D01*
X2563811Y1474408D01*
X2565906Y1469230D01*
X2568383Y1465190D01*
X2571240Y1462287D01*
X2574479Y1460521D01*
X2578098Y1459891D01*
X2501898D01*
X2505518Y1460521D01*
X2508756Y1462287D01*
X2511614Y1465190D01*
X2514090Y1469230D01*
X2516186Y1474408D01*
X2517900Y1480721D01*
X2519234Y1488172D01*
X2520186Y1496760D01*
X2520948Y1517346D01*
X2559048D01*
X2559239Y1506485D01*
D02*
G37*
G36*
X7791704Y1553460D02*
X7795514Y1501064D01*
X7797800Y1487474D01*
X7800594Y1475821D01*
X7803896Y1466106D01*
X7807706Y1458329D01*
X7812025Y1452489D01*
X7816851Y1448587D01*
X7727949D01*
X7732775Y1452489D01*
X7737093Y1458329D01*
X7740903Y1466106D01*
X7744205Y1475821D01*
X7746999Y1487474D01*
X7749285Y1501064D01*
X7751064Y1516591D01*
X7753096Y1553460D01*
X7753350Y1574801D01*
X7791450D01*
X7791704Y1553460D01*
D02*
G37*
G36*
X7537762Y1565958D02*
X7542435Y1507269D01*
X7545239Y1491785D01*
X7548666Y1478341D01*
X7552716Y1466938D01*
X7557390Y1457574D01*
X7562686Y1450250D01*
X7568606Y1444966D01*
X7468194D01*
X7474114Y1450250D01*
X7479410Y1457574D01*
X7484084Y1466938D01*
X7488134Y1478341D01*
X7491561Y1491785D01*
X7494365Y1507269D01*
X7496546Y1524792D01*
X7499038Y1565958D01*
X7499350Y1589601D01*
X7537450D01*
X7537762Y1565958D01*
D02*
G37*
G36*
X2051482Y1591234D02*
X2054936Y1542714D01*
X2057959Y1521416D01*
X2061845Y1502092D01*
X2066595Y1484742D01*
X2072208Y1469367D01*
X2078685Y1455966D01*
X2086026Y1444539D01*
X2094230Y1435087D01*
X1969770D01*
X1977974Y1444539D01*
X1985315Y1455966D01*
X1991792Y1469367D01*
X1997405Y1484742D01*
X2002155Y1502092D01*
X2006041Y1521416D01*
X2009064Y1542714D01*
X2012518Y1591234D01*
X2012950Y1618455D01*
X2051050D01*
X2051482Y1591234D01*
D02*
G37*
G36*
X2305482Y1591232D02*
X2308936Y1542712D01*
X2311959Y1521414D01*
X2315845Y1502090D01*
X2320595Y1484740D01*
X2326208Y1469365D01*
X2332685Y1455964D01*
X2340026Y1444538D01*
X2348230Y1435086D01*
X2223770D01*
X2231974Y1444538D01*
X2239315Y1455964D01*
X2245792Y1469365D01*
X2251405Y1484740D01*
X2256155Y1502090D01*
X2260041Y1521414D01*
X2263064Y1542712D01*
X2266518Y1591232D01*
X2266950Y1618453D01*
X2305050D01*
X2305482Y1591232D01*
D02*
G37*
G36*
X6394492Y1555587D02*
X6403147Y1551182D01*
X6414695Y1547296D01*
X6429134Y1543927D01*
X6446465Y1541077D01*
X6489803Y1536931D01*
X6544709Y1534858D01*
X6576499Y1534599D01*
Y1458399D01*
X6544709Y1458140D01*
X6446465Y1451922D01*
X6429134Y1449072D01*
X6414695Y1445703D01*
X6403147Y1441817D01*
X6394492Y1437412D01*
X6388728Y1432489D01*
Y1560510D01*
X6394492Y1555587D01*
D02*
G37*
G36*
X8222757Y1496117D02*
X8202279Y1474924D01*
X8167770Y1434692D01*
X8153740Y1415654D01*
X8141858Y1397335D01*
X8132126Y1379733D01*
X8124543Y1362850D01*
X8119109Y1346686D01*
X8115825Y1331240D01*
X8114689Y1316512D01*
X7971310Y1459891D01*
X7986037Y1461027D01*
X8001483Y1464312D01*
X8017648Y1469746D01*
X8034531Y1477329D01*
X8052132Y1487061D01*
X8070452Y1498942D01*
X8089490Y1512973D01*
X8129721Y1547481D01*
X8150915Y1567959D01*
X8222757Y1496117D01*
D02*
G37*
G36*
X1460512Y1309369D02*
X1454486Y1313954D01*
X1445869Y1318056D01*
X1434661Y1321675D01*
X1420862Y1324812D01*
X1404472Y1327466D01*
X1363919Y1331327D01*
X1313002Y1333258D01*
X1283657Y1333499D01*
Y1409699D01*
X1313002Y1409940D01*
X1404472Y1415731D01*
X1420862Y1418386D01*
X1434661Y1421523D01*
X1445869Y1425142D01*
X1454486Y1429244D01*
X1460512Y1433829D01*
Y1309369D01*
D02*
G37*
G36*
X6629400Y1371598D02*
Y1092200D01*
X5969000D01*
Y1122180D01*
X6038851D01*
Y1242500D01*
X6057901D01*
Y1261550D01*
X6097905D01*
Y1282699D01*
X6119625Y1283080D01*
X6156225Y1286128D01*
X6157290Y1286319D01*
Y1303736D01*
X6158235Y1299739D01*
X6160948Y1296163D01*
X6165429Y1293007D01*
X6171678Y1290273D01*
X6174034Y1289593D01*
X6178220Y1290731D01*
Y1347547D01*
X6178411Y1347994D01*
X6190920Y1356056D01*
X6191580Y1355757D01*
Y1295422D01*
X6194026Y1296415D01*
X6202067Y1301368D01*
X6207828Y1307083D01*
X6211309Y1313560D01*
X6212510Y1320799D01*
Y1283913D01*
X6229442Y1282910D01*
X6246299Y1282699D01*
Y1261549D01*
X6311900D01*
X6411290D01*
Y1318699D01*
X6412491Y1311460D01*
X6415972Y1304983D01*
X6421733Y1299268D01*
X6429774Y1294315D01*
X6432220Y1293322D01*
Y1358899D01*
X6441284Y1371599D01*
X6629400Y1371598D01*
D02*
G37*
G36*
X6969555Y1292637D02*
X6967275Y1292586D01*
X6963529Y1290834D01*
X6958315Y1287380D01*
X6951635Y1282224D01*
X6933874Y1266808D01*
X6880747Y1215559D01*
X6826866Y1269440D01*
X6921558Y1368359D01*
X6969555Y1292637D01*
D02*
G37*
G36*
X3364491Y1311460D02*
X3367972Y1304983D01*
X3373733Y1299268D01*
X3381774Y1294315D01*
X3392094Y1290124D01*
X3399073Y1288225D01*
X3402168Y1288443D01*
X3415320Y1291276D01*
X3425646Y1294544D01*
X3433144Y1298249D01*
X3437816Y1302388D01*
X3437817Y1282083D01*
X3477895Y1280599D01*
Y1204399D01*
X3456175Y1204018D01*
X3437817Y1202490D01*
Y1182611D01*
X3433145Y1186750D01*
X3425646Y1190455D01*
X3415321Y1193723D01*
X3402169Y1196555D01*
X3399656Y1196932D01*
X3392094Y1194874D01*
X3381774Y1190683D01*
X3373733Y1185730D01*
X3367972Y1180015D01*
X3364491Y1173538D01*
X3363290Y1166299D01*
Y1200926D01*
X3345754Y1202439D01*
X3263900Y1204399D01*
Y1280599D01*
X3294011Y1280817D01*
X3363290Y1285702D01*
Y1318699D01*
X3364491Y1311460D01*
D02*
G37*
G36*
X2626364Y1141222D02*
X2628602Y1140262D01*
X2632115Y1139416D01*
X2636903Y1138682D01*
X2650303Y1137553D01*
X2679963Y1136706D01*
X2692399Y1136649D01*
Y1098549D01*
X2679963Y1098493D01*
X2628602Y1094937D01*
X2626364Y1093977D01*
X2625400Y1092905D01*
Y1142294D01*
X2626364Y1141222D01*
D02*
G37*
G36*
X3309595Y1051288D02*
X3311525Y1044194D01*
X3315716Y1033873D01*
X3320669Y1025833D01*
X3326384Y1020072D01*
X3332861Y1016591D01*
X3340100Y1015390D01*
X3200705Y1015695D01*
X3205473Y1016838D01*
X3209739Y1020267D01*
X3213503Y1025982D01*
X3216766Y1033983D01*
X3219526Y1044270D01*
X3219883Y1046256D01*
X3187700Y1142804D01*
X3340100D01*
X3309595Y1051288D01*
D02*
G37*
G36*
X5995010Y985512D02*
X5994494Y988407D01*
X5993071Y990998D01*
X5990739Y993284D01*
X5987499Y995265D01*
X5983351Y996942D01*
X5978294Y998313D01*
X5972329Y999380D01*
X5965456Y1000142D01*
X5948985Y1000752D01*
Y1031232D01*
X5957675Y1031384D01*
X5972329Y1032603D01*
X5978294Y1033670D01*
X5983351Y1035042D01*
X5987499Y1036718D01*
X5990739Y1038699D01*
X5993071Y1040985D01*
X5994494Y1043576D01*
X5995010Y1046472D01*
Y985512D01*
D02*
G37*
G36*
X476802Y1114140D02*
X499689Y1098874D01*
X525859Y1085403D01*
X555314Y1073729D01*
X588052Y1063851D01*
X624074Y1055769D01*
X663380Y1049482D01*
X751845Y1042298D01*
X801002Y1041400D01*
X928002Y914400D01*
X880641Y913502D01*
X840155Y910808D01*
X806545Y906318D01*
X779811Y900031D01*
X759953Y891949D01*
X746972Y882071D01*
X740866Y870397D01*
X741636Y856926D01*
X749283Y841660D01*
X763805Y824598D01*
X475799Y932999D01*
X457200Y1131202D01*
X476802Y1114140D01*
D02*
G37*
G36*
X6756095Y833122D02*
X6754095Y832759D01*
X6751509Y831638D01*
X6748336Y829759D01*
X6744578Y827121D01*
X6735302Y819570D01*
X6723681Y808984D01*
X6709717Y795364D01*
X6688164Y816917D01*
X6695353Y824192D01*
X6722559Y855536D01*
X6724438Y858709D01*
X6725559Y861295D01*
X6725922Y863295D01*
X6756095Y833122D01*
D02*
G37*
G36*
X3353638Y886340D02*
X3357067Y884233D01*
X3362782Y882374D01*
X3370783Y880762D01*
X3381070Y879399D01*
X3408502Y877416D01*
X3466795Y876300D01*
Y800100D01*
X3445078Y799976D01*
X3370783Y795638D01*
X3362782Y794026D01*
X3357067Y792167D01*
X3353638Y790060D01*
X3352495Y787705D01*
Y888695D01*
X3353638Y886340D01*
D02*
G37*
G36*
X3858176Y1523999D02*
X3859024Y1517557D01*
X3867982Y1495930D01*
X3882232Y1477360D01*
X3900802Y1463110D01*
X3922429Y1454152D01*
X3945636Y1451097D01*
X4495025D01*
Y1397000D01*
X4498080Y1373793D01*
X4507038Y1352166D01*
X4521288Y1333596D01*
X4526272Y1329771D01*
Y1325880D01*
X4531343D01*
X4539858Y1319346D01*
X4561484Y1310388D01*
X4584692Y1307333D01*
X4607899Y1310388D01*
X4629525Y1319346D01*
X4638041Y1325880D01*
X4643112D01*
Y1329771D01*
X4648096Y1333596D01*
X4662346Y1352166D01*
X4665972Y1360921D01*
X4678672Y1358394D01*
Y1325880D01*
X4718042D01*
Y1397000D01*
X4737092D01*
Y1416050D01*
X4795512D01*
Y1451097D01*
X4876800D01*
Y939800D01*
X4648200Y711200D01*
X3733800Y711200D01*
X3726295D01*
X3711573Y714128D01*
X3697706Y719873D01*
X3685225Y728212D01*
X3674612Y738825D01*
X3666273Y751306D01*
X3660528Y765173D01*
X3657600Y779895D01*
Y787400D01*
X3657600D01*
Y798779D01*
X3652798Y799092D01*
X3594505Y800100D01*
Y876300D01*
X3616225Y876681D01*
X3652825Y879729D01*
X3657600Y880585D01*
Y1320800D01*
X3657600Y1340813D01*
X3665409Y1380071D01*
X3680726Y1417051D01*
X3702964Y1450332D01*
X3731267Y1478635D01*
X3764548Y1500873D01*
X3801529Y1516190D01*
X3840786Y1523999D01*
X3858176Y1523999D01*
D02*
G37*
G36*
X1010739Y348160D02*
X1021506Y338402D01*
X1045641Y322275D01*
X1072458Y311168D01*
X1100927Y305505D01*
X1115440Y304792D01*
X1198880D01*
Y285742D01*
X1270000D01*
Y266692D01*
X1289050D01*
Y208272D01*
X1390650D01*
Y266692D01*
X1428750D01*
Y208272D01*
X1429161D01*
X1433053Y203200D01*
X1498600D01*
Y265985D01*
X1493520Y264624D01*
X1480820Y274369D01*
Y304800D01*
X1739900D01*
X1739899Y152400D01*
X1739900Y139769D01*
X1730233Y116429D01*
X1712369Y98566D01*
X1689030Y88899D01*
X1676399Y88900D01*
X1676398Y88900D01*
Y88900D01*
X901700D01*
X889069Y88899D01*
X865730Y98566D01*
X847867Y116429D01*
X838200Y139768D01*
X838200Y152399D01*
X838200Y444500D01*
X838199Y449552D01*
X842066Y458887D01*
X849211Y466032D01*
X858547Y469899D01*
X863599Y469899D01*
X863600Y469900D01*
X889000D01*
X1010739Y348160D01*
D02*
G37*
G36*
X3708807Y335323D02*
X3540320Y345224D01*
X3534519Y344772D01*
X3518167Y339533D01*
X3507848Y330802D01*
X3503561Y318579D01*
X3505307Y302864D01*
X3513085Y283656D01*
X3526895Y260956D01*
X3572612Y205078D01*
X3604519Y171901D01*
X3429902Y166913D01*
X3360165Y231571D01*
X3326874Y258512D01*
X3294635Y281860D01*
X3263449Y301617D01*
X3233314Y317781D01*
X3204232Y330353D01*
X3176202Y339334D01*
X3149224Y344722D01*
X3123298Y346518D01*
X3276600Y473518D01*
X3518307Y364005D01*
Y473518D01*
X3708807Y484713D01*
Y335323D01*
D02*
G37*
G36*
X6593992Y403850D02*
X6595212Y389321D01*
X6596278Y383106D01*
X6597650Y377590D01*
X6599326Y372774D01*
X6601308Y368658D01*
X6603594Y365241D01*
X6606184Y362524D01*
X6609080Y360507D01*
X6548120D01*
X6551016Y362524D01*
X6553606Y365241D01*
X6555892Y368658D01*
X6557874Y372774D01*
X6559550Y377590D01*
X6560922Y383106D01*
X6561988Y389321D01*
X6562750Y396236D01*
X6563360Y412164D01*
X6593840D01*
X6593992Y403850D01*
D02*
G37*
G36*
X7289800Y266700D02*
X7286559Y270319D01*
X7282551Y273558D01*
X7277776Y276416D01*
X7272234Y278892D01*
X7265925Y280987D01*
X7258849Y282702D01*
X7251006Y284035D01*
X7242396Y284988D01*
X7222875Y285750D01*
Y323850D01*
X7233019Y324040D01*
X7251006Y325564D01*
X7258849Y326898D01*
X7265925Y328613D01*
X7272234Y330708D01*
X7277776Y333184D01*
X7282551Y336042D01*
X7286559Y339280D01*
X7289800Y342900D01*
Y266700D01*
D02*
G37*
G36*
X4958088Y1416050D02*
X5016509D01*
Y1397000D01*
X5035559D01*
Y1325880D01*
X5074928D01*
Y1358394D01*
X5087628Y1360921D01*
X5091254Y1352166D01*
X5105400Y1333731D01*
X5105400Y863600D01*
X5283200Y685800D01*
X5955030D01*
Y627380D01*
X6015253D01*
X6019800Y625496D01*
Y566420D01*
X5955030D01*
Y501650D01*
X6045200D01*
Y463550D01*
X5955030D01*
Y398780D01*
X6019800D01*
Y375920D01*
X6013442D01*
Y304800D01*
Y233680D01*
X6019800D01*
Y216667D01*
X4724400D01*
Y229876D01*
X4732038Y237514D01*
X4743742Y257786D01*
X4749800Y280396D01*
Y303804D01*
X4743742Y326414D01*
X4732038Y346686D01*
X4724400Y354324D01*
Y685800D01*
X4902200Y863600D01*
Y1451097D01*
X4958088D01*
Y1416050D01*
D02*
G37*
G36*
X4648200Y367585D02*
X4631488Y363107D01*
X4614112Y353075D01*
X4599925Y338888D01*
X4589893Y321512D01*
X4585415Y304800D01*
X4660900D01*
Y279400D01*
X4585415D01*
X4589893Y262688D01*
X4599925Y245312D01*
X4614112Y231125D01*
X4617156Y229367D01*
X4613753Y216667D01*
X4064000D01*
Y685800D01*
X4648200D01*
Y367585D01*
D02*
G37*
G36*
X7042593Y348791D02*
X7013788Y318715D01*
X6990689Y291806D01*
X6973295Y268062D01*
X6961607Y247485D01*
X6955625Y230073D01*
X6955349Y215827D01*
X6960779Y204746D01*
X6971914Y196832D01*
X6988755Y192083D01*
X7011302Y190500D01*
X6731000Y63500D01*
X6577698Y190500D01*
X6603624Y192296D01*
X6630602Y197684D01*
X6658632Y206665D01*
X6687714Y219237D01*
X6717849Y235401D01*
X6749035Y255158D01*
X6781274Y278506D01*
X6848908Y335980D01*
X6884302Y370105D01*
X7042593Y348791D01*
D02*
G37*
%LPC*%
G36*
X608800Y5547938D02*
X584200D01*
Y5512000D01*
X664182D01*
X652173Y5529973D01*
X632273Y5543269D01*
X608800Y5547938D01*
D02*
G37*
G36*
X533400D02*
X508800D01*
X485327Y5543269D01*
X465427Y5529973D01*
X453418Y5512000D01*
X533400D01*
Y5547938D01*
D02*
G37*
G36*
X228800D02*
X204200D01*
Y5512000D01*
X284182D01*
X272173Y5529973D01*
X252273Y5543269D01*
X228800Y5547938D01*
D02*
G37*
G36*
X153400D02*
X128800D01*
X105327Y5543269D01*
X85427Y5529973D01*
X73418Y5512000D01*
X153400D01*
Y5547938D01*
D02*
G37*
G36*
X664182Y5461200D02*
X584200D01*
Y5425261D01*
X608800D01*
X632273Y5429930D01*
X652173Y5443227D01*
X664182Y5461200D01*
D02*
G37*
G36*
X533400D02*
X453418D01*
X465427Y5443227D01*
X485327Y5429930D01*
X508800Y5425261D01*
X533400D01*
Y5461200D01*
D02*
G37*
G36*
X284182D02*
X204200D01*
Y5425261D01*
X228800D01*
X252273Y5429930D01*
X272173Y5443227D01*
X284182Y5461200D01*
D02*
G37*
G36*
X153400D02*
X73418D01*
X85427Y5443227D01*
X105327Y5429930D01*
X128800Y5425261D01*
X153400D01*
Y5461200D01*
D02*
G37*
G36*
X608800Y4683939D02*
X584200D01*
Y4648000D01*
X664182D01*
X652173Y4665973D01*
X632273Y4679270D01*
X608800Y4683939D01*
D02*
G37*
G36*
X533400D02*
X508800D01*
X485327Y4679270D01*
X465427Y4665973D01*
X453418Y4648000D01*
X533400D01*
Y4683939D01*
D02*
G37*
G36*
X228800D02*
X204200D01*
Y4648000D01*
X284182D01*
X272173Y4665973D01*
X252273Y4679270D01*
X228800Y4683939D01*
D02*
G37*
G36*
X153400D02*
X128800D01*
X105327Y4679270D01*
X85427Y4665973D01*
X73418Y4648000D01*
X153400D01*
Y4683939D01*
D02*
G37*
G36*
X664182Y4597200D02*
X584200D01*
Y4561262D01*
X608800D01*
X632273Y4565931D01*
X652173Y4579227D01*
X664182Y4597200D01*
D02*
G37*
G36*
X533400D02*
X453418D01*
X465427Y4579227D01*
X485327Y4565931D01*
X508800Y4561262D01*
X533400D01*
Y4597200D01*
D02*
G37*
G36*
X284182D02*
X204200D01*
Y4561262D01*
X228800D01*
X252273Y4565931D01*
X272173Y4579227D01*
X284182Y4597200D01*
D02*
G37*
G36*
X153400D02*
X73418D01*
X85427Y4579227D01*
X105327Y4565931D01*
X128800Y4561262D01*
X153400D01*
Y4597200D01*
D02*
G37*
G36*
X533400Y4323158D02*
Y4267200D01*
X589358D01*
X587356Y4274670D01*
X576145Y4294089D01*
X560289Y4309945D01*
X540870Y4321156D01*
X533400Y4323158D01*
D02*
G37*
G36*
X482600D02*
X475130Y4321156D01*
X455711Y4309945D01*
X439855Y4294089D01*
X428644Y4274670D01*
X426642Y4267200D01*
X482600D01*
Y4323158D01*
D02*
G37*
G36*
X6032500Y5338424D02*
Y5295900D01*
X6075024D01*
X6067173Y5314853D01*
X6051453Y5330573D01*
X6032500Y5338424D01*
D02*
G37*
G36*
X6007100D02*
X5988147Y5330573D01*
X5972427Y5314853D01*
X5964576Y5295900D01*
X6007100D01*
Y5338424D01*
D02*
G37*
G36*
X6075024Y5270500D02*
X6032500D01*
Y5227976D01*
X6051453Y5235827D01*
X6067173Y5251547D01*
X6075024Y5270500D01*
D02*
G37*
G36*
X6007100D02*
X5964576D01*
X5972427Y5251547D01*
X5988147Y5235827D01*
X6007100Y5227976D01*
Y5270500D01*
D02*
G37*
G36*
X6032500Y5160624D02*
Y5118100D01*
X6075024D01*
X6067173Y5137053D01*
X6051453Y5152773D01*
X6032500Y5160624D01*
D02*
G37*
G36*
X6007100D02*
X5988147Y5152773D01*
X5972427Y5137053D01*
X5964576Y5118100D01*
X6007100D01*
Y5160624D01*
D02*
G37*
G36*
X5727700D02*
Y5118100D01*
X5770224D01*
X5762373Y5137053D01*
X5746653Y5152773D01*
X5727700Y5160624D01*
D02*
G37*
G36*
X5702300D02*
X5683347Y5152773D01*
X5667627Y5137053D01*
X5659776Y5118100D01*
X5702300D01*
Y5160624D01*
D02*
G37*
G36*
X6075024Y5092700D02*
X6032500D01*
Y5050176D01*
X6051453Y5058027D01*
X6067173Y5073747D01*
X6075024Y5092700D01*
D02*
G37*
G36*
X6007100D02*
X5964576D01*
X5972427Y5073747D01*
X5988147Y5058027D01*
X6007100Y5050176D01*
Y5092700D01*
D02*
G37*
G36*
X5770224D02*
X5727700D01*
Y5050176D01*
X5746653Y5058027D01*
X5762373Y5073747D01*
X5770224Y5092700D01*
D02*
G37*
G36*
X5702300D02*
X5659776D01*
X5667627Y5073747D01*
X5683347Y5058027D01*
X5702300Y5050176D01*
Y5092700D01*
D02*
G37*
G36*
X8469425Y4622941D02*
X8406640D01*
Y4560155D01*
X8423352Y4564633D01*
X8440728Y4574665D01*
X8454915Y4588853D01*
X8464947Y4606229D01*
X8469425Y4622941D01*
D02*
G37*
G36*
X8381240D02*
X8318455D01*
X8322933Y4606229D01*
X8332965Y4588853D01*
X8347152Y4574665D01*
X8364528Y4564633D01*
X8381240Y4560155D01*
Y4622941D01*
D02*
G37*
G36*
X8572500Y4596685D02*
Y4533900D01*
X8635285D01*
X8630807Y4550612D01*
X8620775Y4567988D01*
X8606588Y4582175D01*
X8589212Y4592207D01*
X8572500Y4596685D01*
D02*
G37*
G36*
X8547100D02*
X8530388Y4592207D01*
X8513012Y4582175D01*
X8498825Y4567988D01*
X8488793Y4550612D01*
X8484315Y4533900D01*
X8547100D01*
Y4596685D01*
D02*
G37*
G36*
X8635285Y4508500D02*
X8572500D01*
Y4445715D01*
X8589212Y4450193D01*
X8606588Y4460225D01*
X8620775Y4474412D01*
X8630807Y4491788D01*
X8635285Y4508500D01*
D02*
G37*
G36*
X8547100D02*
X8484315D01*
X8488793Y4491788D01*
X8498825Y4474412D01*
X8513012Y4460225D01*
X8530388Y4450193D01*
X8547100Y4445715D01*
Y4508500D01*
D02*
G37*
G36*
X8226167Y4310589D02*
Y4282545D01*
X8254212D01*
X8250184Y4292271D01*
X8235893Y4306561D01*
X8226167Y4310589D01*
D02*
G37*
G36*
X8705851Y3130570D02*
X8682744Y3124378D01*
X8678042Y3121664D01*
X8693994Y3107518D01*
X8697113Y3107047D01*
X8656824Y3041652D01*
X8705851D01*
Y3130570D01*
D02*
G37*
G36*
Y3003552D02*
X8616932D01*
X8623124Y2980444D01*
X8637503Y2955539D01*
X8657838Y2935204D01*
X8663510Y2931929D01*
X8662671Y2959114D01*
X8667541D01*
X8667751Y2996718D01*
X8705851Y2996717D01*
Y3003552D01*
D02*
G37*
G36*
X8665616Y2860490D02*
X8657837Y2855998D01*
X8637502Y2835663D01*
X8623122Y2810758D01*
X8616931Y2787651D01*
X8705849D01*
Y2794485D01*
X8667751D01*
X8666591Y2832089D01*
X8662671D01*
X8663636Y2834632D01*
X8664500Y2840268D01*
X8665262Y2848997D01*
X8665616Y2860490D01*
D02*
G37*
G36*
X5511350Y2522920D02*
X5285080D01*
Y2406650D01*
X5511350D01*
Y2522920D01*
D02*
G37*
G36*
X5113958Y2452600D02*
X5096842D01*
X5080311Y2448170D01*
X5065489Y2439613D01*
X5053387Y2427511D01*
X5044830Y2412689D01*
X5040400Y2396158D01*
Y2379042D01*
X5044830Y2362511D01*
X5053387Y2347689D01*
X5065489Y2335587D01*
X5080311Y2327030D01*
X5096842Y2322600D01*
X5113958D01*
X5130489Y2327030D01*
X5145311Y2335587D01*
X5157413Y2347689D01*
X5165970Y2362511D01*
X5170400Y2379042D01*
Y2396158D01*
X5165970Y2412689D01*
X5157413Y2427511D01*
X5145311Y2439613D01*
X5130489Y2448170D01*
X5113958Y2452600D01*
D02*
G37*
G36*
X5511350Y2368550D02*
X5285080D01*
Y2252280D01*
X5308637D01*
X5314987Y2241281D01*
X5313793Y2239212D01*
X5309315Y2222500D01*
X5460285D01*
X5455807Y2239212D01*
X5454613Y2241281D01*
X5460963Y2252280D01*
X5511350D01*
Y2368550D01*
D02*
G37*
G36*
X5219700Y2285285D02*
Y2222500D01*
X5282485D01*
X5278007Y2239212D01*
X5267975Y2256588D01*
X5253788Y2270775D01*
X5236412Y2280807D01*
X5219700Y2285285D01*
D02*
G37*
G36*
X5194300D02*
X5177588Y2280807D01*
X5160212Y2270775D01*
X5146025Y2256588D01*
X5135993Y2239212D01*
X5131515Y2222500D01*
X5194300D01*
Y2285285D01*
D02*
G37*
G36*
X5041900D02*
Y2222500D01*
X5104685D01*
X5100207Y2239212D01*
X5090175Y2256588D01*
X5075988Y2270775D01*
X5058612Y2280807D01*
X5041900Y2285285D01*
D02*
G37*
G36*
X5016500D02*
X4999788Y2280807D01*
X4982412Y2270775D01*
X4968225Y2256588D01*
X4958193Y2239212D01*
X4953715Y2222500D01*
X5016500D01*
Y2285285D01*
D02*
G37*
G36*
X5460285Y2197100D02*
X5397500D01*
Y2134315D01*
X5414212Y2138793D01*
X5431588Y2148825D01*
X5445775Y2163012D01*
X5455807Y2180388D01*
X5460285Y2197100D01*
D02*
G37*
G36*
X5372100D02*
X5309315D01*
X5313793Y2180388D01*
X5323825Y2163012D01*
X5338012Y2148825D01*
X5355388Y2138793D01*
X5372100Y2134315D01*
Y2197100D01*
D02*
G37*
G36*
X5282485D02*
X5219700D01*
Y2134315D01*
X5236412Y2138793D01*
X5253788Y2148825D01*
X5267975Y2163012D01*
X5278007Y2180388D01*
X5282485Y2197100D01*
D02*
G37*
G36*
X5194300D02*
X5131515D01*
X5135993Y2180388D01*
X5146025Y2163012D01*
X5160212Y2148825D01*
X5177588Y2138793D01*
X5194300Y2134315D01*
Y2197100D01*
D02*
G37*
G36*
X5104685D02*
X5041900D01*
Y2134315D01*
X5058612Y2138793D01*
X5075988Y2148825D01*
X5090175Y2163012D01*
X5100207Y2180388D01*
X5104685Y2197100D01*
D02*
G37*
G36*
X5016500D02*
X4953715D01*
X4958193Y2180388D01*
X4968225Y2163012D01*
X4982412Y2148825D01*
X4999788Y2138793D01*
X5016500Y2134315D01*
Y2197100D01*
D02*
G37*
G36*
X4135720Y2522920D02*
X3909450D01*
Y2406650D01*
X4135720D01*
Y2522920D01*
D02*
G37*
G36*
X4370843Y2440100D02*
X4349957D01*
X4330661Y2432107D01*
X4315893Y2417339D01*
X4307900Y2398043D01*
Y2377157D01*
X4315893Y2357861D01*
X4330661Y2343093D01*
X4349957Y2335100D01*
X4370843D01*
X4390139Y2343093D01*
X4404908Y2357861D01*
X4412900Y2377157D01*
Y2398043D01*
X4404908Y2417339D01*
X4390139Y2432107D01*
X4370843Y2440100D01*
D02*
G37*
G36*
X4203700Y2259885D02*
Y2197100D01*
X4266485D01*
X4262007Y2213812D01*
X4251975Y2231188D01*
X4237788Y2245375D01*
X4220412Y2255407D01*
X4203700Y2259885D01*
D02*
G37*
G36*
X4135720Y2368550D02*
X3909450D01*
Y2252280D01*
X3955356D01*
X3960617Y2239580D01*
X3952225Y2231188D01*
X3942193Y2213812D01*
X3937715Y2197100D01*
X4088685D01*
X4084207Y2213812D01*
X4074175Y2231188D01*
X4065783Y2239580D01*
X4071044Y2252280D01*
X4123964Y2252280D01*
X4126370D01*
X4133463Y2251817D01*
X4137521Y2245707D01*
X4138102Y2242845D01*
X4138031Y2239195D01*
X4130025Y2231188D01*
X4119993Y2213812D01*
X4115515Y2197100D01*
X4178300D01*
Y2259885D01*
X4161588Y2255407D01*
X4150555Y2249037D01*
X4145984Y2246399D01*
Y2246399D01*
X4149393Y2248366D01*
X4145122Y2247003D01*
X4138278Y2251793D01*
X4136221Y2254017D01*
X4135721Y2256426D01*
X4135720Y2263825D01*
Y2368550D01*
D02*
G37*
G36*
X4266485Y2171700D02*
X4203700D01*
Y2108915D01*
X4220412Y2113393D01*
X4237788Y2123425D01*
X4251975Y2137612D01*
X4262007Y2154988D01*
X4266485Y2171700D01*
D02*
G37*
G36*
X4178300D02*
X4115515D01*
X4119993Y2154988D01*
X4130025Y2137612D01*
X4144212Y2123425D01*
X4161588Y2113393D01*
X4178300Y2108915D01*
Y2171700D01*
D02*
G37*
G36*
X4088685D02*
X4025900D01*
Y2108915D01*
X4042612Y2113393D01*
X4059988Y2123425D01*
X4074175Y2137612D01*
X4084207Y2154988D01*
X4088685Y2171700D01*
D02*
G37*
G36*
X4000500D02*
X3937715D01*
X3942193Y2154988D01*
X3952225Y2137612D01*
X3966412Y2123425D01*
X3983788Y2113393D01*
X4000500Y2108915D01*
Y2171700D01*
D02*
G37*
G36*
X520700Y1909424D02*
Y1866900D01*
X563224D01*
X555373Y1885853D01*
X539653Y1901573D01*
X520700Y1909424D01*
D02*
G37*
G36*
X495300D02*
X476347Y1901573D01*
X460627Y1885853D01*
X452776Y1866900D01*
X495300D01*
Y1909424D01*
D02*
G37*
G36*
X563224Y1841500D02*
X520700D01*
Y1798976D01*
X539653Y1806827D01*
X555373Y1822547D01*
X563224Y1841500D01*
D02*
G37*
G36*
X495300D02*
X452776D01*
X460627Y1822547D01*
X476347Y1806827D01*
X495300Y1798976D01*
Y1841500D01*
D02*
G37*
G36*
X520700Y1769724D02*
Y1727200D01*
X563224D01*
X555373Y1746153D01*
X539653Y1761873D01*
X520700Y1769724D01*
D02*
G37*
G36*
X495300D02*
X476347Y1761873D01*
X460627Y1746153D01*
X452776Y1727200D01*
X495300D01*
Y1769724D01*
D02*
G37*
G36*
X563224Y1701800D02*
X520700D01*
Y1659276D01*
X539653Y1667127D01*
X555373Y1682847D01*
X563224Y1701800D01*
D02*
G37*
G36*
X495300D02*
X452776D01*
X460627Y1682847D01*
X476347Y1667127D01*
X495300Y1659276D01*
Y1701800D01*
D02*
G37*
G36*
X388628Y1708150D02*
X349258D01*
Y1656080D01*
X388628D01*
Y1708150D01*
D02*
G37*
G36*
X5909924Y1485900D02*
X5867400D01*
Y1443376D01*
X5886353Y1451227D01*
X5902073Y1466947D01*
X5909924Y1485900D01*
D02*
G37*
G36*
X5842000D02*
X5799476D01*
X5807327Y1466947D01*
X5823047Y1451227D01*
X5842000Y1443376D01*
Y1485900D01*
D02*
G37*
G36*
X5757524D02*
X5715000D01*
Y1443376D01*
X5733953Y1451227D01*
X5749673Y1466947D01*
X5757524Y1485900D01*
D02*
G37*
G36*
X5689600D02*
X5647076D01*
X5654927Y1466947D01*
X5670647Y1451227D01*
X5689600Y1443376D01*
Y1485900D01*
D02*
G37*
G36*
X5592424D02*
X5549900D01*
Y1443376D01*
X5568853Y1451227D01*
X5584573Y1466947D01*
X5592424Y1485900D01*
D02*
G37*
G36*
X5524500D02*
X5481976D01*
X5489827Y1466947D01*
X5505547Y1451227D01*
X5524500Y1443376D01*
Y1485900D01*
D02*
G37*
G36*
X5227328Y1468120D02*
X5187959D01*
Y1416050D01*
X5227328D01*
Y1468120D01*
D02*
G37*
G36*
X5867400Y1426824D02*
Y1384300D01*
X5909924D01*
X5902073Y1403253D01*
X5886353Y1418973D01*
X5867400Y1426824D01*
D02*
G37*
G36*
X5842000D02*
X5823047Y1418973D01*
X5807327Y1403253D01*
X5799476Y1384300D01*
X5842000D01*
Y1426824D01*
D02*
G37*
G36*
X5715000D02*
Y1384300D01*
X5757524D01*
X5749673Y1403253D01*
X5733953Y1418973D01*
X5715000Y1426824D01*
D02*
G37*
G36*
X5689600D02*
X5670647Y1418973D01*
X5654927Y1403253D01*
X5647076Y1384300D01*
X5689600D01*
Y1426824D01*
D02*
G37*
G36*
X5549900D02*
Y1384300D01*
X5592424D01*
X5584573Y1403253D01*
X5568853Y1418973D01*
X5549900Y1426824D01*
D02*
G37*
G36*
X5524500D02*
X5505547Y1418973D01*
X5489827Y1403253D01*
X5481976Y1384300D01*
X5524500D01*
Y1426824D01*
D02*
G37*
G36*
X5227328Y1377950D02*
X5187959D01*
Y1325880D01*
X5227328D01*
Y1377950D01*
D02*
G37*
G36*
X5909924Y1358900D02*
X5867400D01*
Y1316376D01*
X5886353Y1324227D01*
X5902073Y1339947D01*
X5909924Y1358900D01*
D02*
G37*
G36*
X5842000D02*
X5799476D01*
X5807327Y1339947D01*
X5823047Y1324227D01*
X5842000Y1316376D01*
Y1358900D01*
D02*
G37*
G36*
X5757524D02*
X5715000D01*
Y1316376D01*
X5733953Y1324227D01*
X5749673Y1339947D01*
X5757524Y1358900D01*
D02*
G37*
G36*
X5689600D02*
X5647076D01*
X5654927Y1339947D01*
X5670647Y1324227D01*
X5689600Y1316376D01*
Y1358900D01*
D02*
G37*
G36*
X5592424D02*
X5549900D01*
Y1316376D01*
X5568853Y1324227D01*
X5584573Y1339947D01*
X5592424Y1358900D01*
D02*
G37*
G36*
X5524500D02*
X5481976D01*
X5489827Y1339947D01*
X5505547Y1324227D01*
X5524500Y1316376D01*
Y1358900D01*
D02*
G37*
G36*
X5291421Y1293920D02*
X5240151D01*
Y1172650D01*
X5291421D01*
Y1293920D01*
D02*
G37*
G36*
X5202051D02*
X5150781D01*
Y1172650D01*
X5202051D01*
Y1293920D01*
D02*
G37*
G36*
X5804001Y1289035D02*
X5670551D01*
Y1162050D01*
X5887535D01*
Y1205500D01*
X5884689Y1227120D01*
X5876344Y1247267D01*
X5863069Y1264568D01*
X5845768Y1277843D01*
X5825621Y1286188D01*
X5804001Y1289035D01*
D02*
G37*
G36*
X5632451D02*
X5499001D01*
X5477380Y1286188D01*
X5457233Y1277843D01*
X5439933Y1264568D01*
X5426658Y1247267D01*
X5418313Y1227120D01*
X5415466Y1205500D01*
Y1162050D01*
X5632451D01*
Y1289035D01*
D02*
G37*
G36*
X5291421Y1134550D02*
X5240151D01*
Y1013280D01*
X5291421D01*
Y1134550D01*
D02*
G37*
G36*
X5202051D02*
X5150781D01*
Y1013280D01*
X5202051D01*
Y1134550D01*
D02*
G37*
G36*
X5887535Y1123950D02*
X5670551D01*
Y996965D01*
X5804001D01*
X5825621Y999811D01*
X5845768Y1008156D01*
X5863069Y1021432D01*
X5876344Y1038732D01*
X5884689Y1058879D01*
X5887535Y1080500D01*
Y1123950D01*
D02*
G37*
G36*
X5632451D02*
X5415466D01*
Y1080500D01*
X5418313Y1058879D01*
X5426658Y1038732D01*
X5439933Y1021432D01*
X5457233Y1008156D01*
X5477380Y999811D01*
X5499001Y996965D01*
X5621969D01*
X5621122Y1001702D01*
X5619750Y1006758D01*
X5618074Y1010907D01*
X5616092Y1014147D01*
X5613806Y1016479D01*
X5611216Y1017902D01*
X5608320Y1018417D01*
X5632451D01*
Y1123950D01*
D02*
G37*
G36*
X6292850Y1223449D02*
X6246299D01*
Y1206499D01*
X6229442Y1206289D01*
X6212510Y1204952D01*
Y1168399D01*
X6211309Y1175638D01*
X6207828Y1182115D01*
X6202067Y1187830D01*
X6194026Y1192783D01*
X6191580Y1193777D01*
Y1122179D01*
X6292850D01*
Y1223449D01*
D02*
G37*
G36*
X6097905Y1223450D02*
X6076951D01*
Y1122180D01*
X6178220D01*
Y1198468D01*
X6174034Y1199606D01*
X6171678Y1198926D01*
X6165429Y1196192D01*
X6160948Y1193036D01*
X6158235Y1189460D01*
X6157290Y1185463D01*
Y1202879D01*
X6156225Y1203070D01*
X6139065Y1204975D01*
X6097905Y1206499D01*
Y1223450D01*
D02*
G37*
G36*
X6411290Y1223449D02*
X6330950D01*
Y1122179D01*
X6432220D01*
Y1191677D01*
X6429774Y1190683D01*
X6421733Y1185730D01*
X6415972Y1180015D01*
X6412491Y1173538D01*
X6411290Y1166299D01*
Y1223449D01*
D02*
G37*
G36*
X4795512Y1377950D02*
X4756142D01*
Y1325880D01*
X4795512D01*
Y1377950D01*
D02*
G37*
G36*
X4831421Y1293920D02*
X4780151D01*
Y1172650D01*
X4831421D01*
Y1293920D01*
D02*
G37*
G36*
X4742051D02*
X4690781D01*
Y1172650D01*
X4742051D01*
Y1293920D01*
D02*
G37*
G36*
X4483200Y1276335D02*
X4349750D01*
Y1149350D01*
X4566735D01*
Y1192800D01*
X4563888Y1214420D01*
X4555543Y1234567D01*
X4542268Y1251868D01*
X4524967Y1265143D01*
X4504820Y1273488D01*
X4483200Y1276335D01*
D02*
G37*
G36*
X4311650D02*
X4178200D01*
X4156580Y1273488D01*
X4136433Y1265143D01*
X4119132Y1251868D01*
X4105857Y1234567D01*
X4097512Y1214420D01*
X4094665Y1192800D01*
Y1149350D01*
X4311650D01*
Y1276335D01*
D02*
G37*
G36*
X4831421Y1134550D02*
X4780151D01*
Y1013280D01*
X4831421D01*
Y1134550D01*
D02*
G37*
G36*
X4742051D02*
X4690781D01*
Y1013280D01*
X4742051D01*
Y1134550D01*
D02*
G37*
G36*
X4566735Y1111250D02*
X4349750D01*
Y984265D01*
X4483200D01*
X4504820Y987112D01*
X4524967Y995457D01*
X4542268Y1008732D01*
X4555543Y1026033D01*
X4563888Y1046180D01*
X4566735Y1067800D01*
Y1111250D01*
D02*
G37*
G36*
X4311650D02*
X4094665D01*
Y1067800D01*
X4097512Y1046180D01*
X4105857Y1026033D01*
X4119132Y1008732D01*
X4136433Y995457D01*
X4156580Y987112D01*
X4178200Y984265D01*
X4311650D01*
Y1111250D01*
D02*
G37*
G36*
X4058820Y958920D02*
X3892551D01*
Y882650D01*
X4058820D01*
Y958920D01*
D02*
G37*
G36*
X3854451D02*
X3688180D01*
Y889023D01*
X3690627Y890016D01*
X3698667Y894969D01*
X3704428Y900684D01*
X3707909Y907161D01*
X3709110Y914400D01*
X3709032Y882650D01*
X3854451D01*
Y958920D01*
D02*
G37*
G36*
Y844550D02*
X3708940D01*
X3708805Y788905D01*
X3707662Y791032D01*
X3704233Y792935D01*
X3698518Y794614D01*
X3690517Y796070D01*
X3688180Y796349D01*
Y768280D01*
X3854451D01*
Y844550D01*
D02*
G37*
G36*
X4058820D02*
X3892551D01*
Y768280D01*
X4058820D01*
Y844550D01*
D02*
G37*
G36*
X977900Y278685D02*
Y215900D01*
X1040685D01*
X1036207Y232612D01*
X1026175Y249988D01*
X1011988Y264175D01*
X994612Y274207D01*
X977900Y278685D01*
D02*
G37*
G36*
X952500D02*
X935788Y274207D01*
X918412Y264175D01*
X904225Y249988D01*
X894193Y232612D01*
X889715Y215900D01*
X952500D01*
Y278685D01*
D02*
G37*
G36*
X1250950Y247642D02*
X1198880D01*
Y208272D01*
X1250950D01*
Y247642D01*
D02*
G37*
G36*
X1524000Y265985D02*
Y203200D01*
X1586785D01*
X1582307Y219912D01*
X1572275Y237288D01*
X1558088Y251475D01*
X1540712Y261507D01*
X1524000Y265985D01*
D02*
G37*
G36*
X1040685Y190500D02*
X977900D01*
Y127715D01*
X994612Y132193D01*
X1011988Y142225D01*
X1026175Y156412D01*
X1036207Y173788D01*
X1040685Y190500D01*
D02*
G37*
G36*
X952500D02*
X889715D01*
X894193Y173788D01*
X904225Y156412D01*
X918412Y142225D01*
X935788Y132193D01*
X952500Y127715D01*
Y190500D01*
D02*
G37*
G36*
X1586785Y177800D02*
X1524000D01*
Y115015D01*
X1540712Y119493D01*
X1558088Y129525D01*
X1572275Y143712D01*
X1582307Y161088D01*
X1586785Y177800D01*
D02*
G37*
G36*
X1498600D02*
X1435815D01*
X1440293Y161088D01*
X1450325Y143712D01*
X1464512Y129525D01*
X1481888Y119493D01*
X1498600Y115015D01*
Y177800D01*
D02*
G37*
G36*
X4997459Y1377950D02*
X4958088D01*
Y1325880D01*
X4997459D01*
Y1377950D01*
D02*
G37*
G36*
X5061421Y1293920D02*
X5010151D01*
Y1172650D01*
X5061421D01*
Y1293920D01*
D02*
G37*
G36*
X4972051D02*
X4920781D01*
Y1172650D01*
X4972051D01*
Y1293920D01*
D02*
G37*
G36*
X5061421Y1134550D02*
X5010151D01*
Y1013280D01*
X5061421D01*
Y1134550D01*
D02*
G37*
G36*
X4972051D02*
X4920781D01*
Y1013280D01*
X4972051D01*
Y1134550D01*
D02*
G37*
G36*
X5176421Y713920D02*
X5010151D01*
Y592650D01*
X5176421D01*
Y713920D01*
D02*
G37*
G36*
X4972051D02*
X4805781D01*
Y592650D01*
X4972051D01*
Y713920D01*
D02*
G37*
G36*
X5804000Y590535D02*
X5670550D01*
Y463550D01*
X5887535D01*
Y507000D01*
X5884688Y528620D01*
X5876343Y548767D01*
X5863068Y566068D01*
X5845767Y579343D01*
X5825620Y587688D01*
X5804000Y590535D01*
D02*
G37*
G36*
X5632450D02*
X5499000D01*
X5477380Y587688D01*
X5457233Y579343D01*
X5439932Y566068D01*
X5426657Y548767D01*
X5418312Y528620D01*
X5415465Y507000D01*
Y463550D01*
X5632450D01*
Y590535D01*
D02*
G37*
G36*
X5176421Y554550D02*
X5010151D01*
Y433280D01*
X5176421D01*
Y554550D01*
D02*
G37*
G36*
X4972051D02*
X4805781D01*
Y433280D01*
X4972051D01*
Y554550D01*
D02*
G37*
G36*
X5975342Y375920D02*
X5935972D01*
Y323850D01*
X5975342D01*
Y375920D01*
D02*
G37*
G36*
X5887535Y425450D02*
X5670550D01*
Y298465D01*
X5804000D01*
X5825620Y301312D01*
X5845767Y309657D01*
X5863068Y322932D01*
X5876343Y340233D01*
X5884688Y360380D01*
X5887535Y382000D01*
Y425450D01*
D02*
G37*
G36*
X5632450D02*
X5415465D01*
Y382000D01*
X5418312Y360380D01*
X5426657Y340233D01*
X5439932Y322932D01*
X5457233Y309657D01*
X5477380Y301312D01*
X5499000Y298465D01*
X5632450D01*
Y425450D01*
D02*
G37*
G36*
X5975342Y285750D02*
X5935972D01*
Y233680D01*
X5975342D01*
Y285750D01*
D02*
G37*
G36*
X4483199Y577835D02*
X4349749D01*
Y450850D01*
X4566734D01*
Y494300D01*
X4563887Y515921D01*
X4555542Y536068D01*
X4542267Y553368D01*
X4524967Y566644D01*
X4504820Y574989D01*
X4483199Y577835D01*
D02*
G37*
G36*
X4311649D02*
X4178199D01*
X4156579Y574989D01*
X4136432Y566644D01*
X4119131Y553368D01*
X4105856Y536068D01*
X4097511Y515921D01*
X4094665Y494300D01*
Y450850D01*
X4311649D01*
Y577835D01*
D02*
G37*
G36*
X4566734Y412750D02*
X4349749D01*
Y285765D01*
X4483199D01*
X4504820Y288612D01*
X4524967Y296957D01*
X4542267Y310232D01*
X4555542Y327533D01*
X4563887Y347680D01*
X4566734Y369300D01*
Y412750D01*
D02*
G37*
G36*
X4311649D02*
X4094665D01*
Y369300D01*
X4097511Y347680D01*
X4105856Y327533D01*
X4119131Y310232D01*
X4136432Y296957D01*
X4156579Y288612D01*
X4178199Y285765D01*
X4311649D01*
Y412750D01*
D02*
G37*
%LPD*%
D10*
X8128000Y304800D02*
D03*
X7340600D02*
D03*
X6578600D02*
D03*
X7747000D02*
D03*
D11*
X6845292Y508000D02*
D03*
X6997692D02*
D03*
X7137408Y3225800D02*
D03*
X6985008D02*
D03*
X8229592Y1778000D02*
D03*
X8077192D02*
D03*
X8432808D02*
D03*
X8585208D02*
D03*
X8432808Y1930400D02*
D03*
X8585208D02*
D03*
X304808Y3962400D02*
D03*
X457208D02*
D03*
X177808Y1727200D02*
D03*
X330208D02*
D03*
X177808Y1879600D02*
D03*
X330208D02*
D03*
X6146792Y304800D02*
D03*
X5994392D02*
D03*
X5168908Y1397000D02*
D03*
X5016508D02*
D03*
X4584692D02*
D03*
X4737092D02*
D03*
X177808Y2032000D02*
D03*
X330208D02*
D03*
D12*
X1409700Y266692D02*
D03*
Y419092D02*
D03*
X1270000Y266692D02*
D03*
Y419092D02*
D03*
X838200Y4724384D02*
D03*
Y4571984D02*
D03*
X1524000Y2184392D02*
D03*
Y2031992D02*
D03*
X6045200Y1015992D02*
D03*
Y863592D02*
D03*
X965200Y4724384D02*
D03*
Y4571984D02*
D03*
D13*
X4648200Y6045200D02*
D03*
Y5816600D02*
D03*
X6045200Y711200D02*
D03*
Y482600D02*
D03*
X5308600Y5816600D02*
D03*
Y6045200D02*
D03*
X5969000Y5816600D02*
D03*
Y6045200D02*
D03*
X5638800Y5816600D02*
D03*
Y6045200D02*
D03*
X4978400Y5816600D02*
D03*
Y6045200D02*
D03*
X3733800Y5816600D02*
D03*
Y6045200D02*
D03*
X4038600Y5816600D02*
D03*
Y6045200D02*
D03*
X4343400Y5816600D02*
D03*
Y6045200D02*
D03*
D14*
X3890400Y2387600D02*
D03*
X5530400D02*
D03*
D15*
X3276600Y838200D02*
D03*
Y965200D02*
D03*
D16*
X3873500Y863600D02*
D03*
X3873502Y410018D02*
D03*
D17*
X4330699Y431800D02*
D03*
X4330700Y1130300D02*
D03*
X5651501Y1143000D02*
D03*
X5651500Y444500D02*
D03*
D18*
X559300Y4779600D02*
D03*
Y5329600D02*
D03*
D19*
Y4902600D02*
D03*
Y5206600D02*
D03*
D20*
Y5104600D02*
D03*
Y5004600D02*
D03*
D21*
X4991101Y573600D02*
D03*
D22*
X5221101Y1153600D02*
D03*
X4991101D02*
D03*
X4761101D02*
D03*
D23*
X8226167Y3628767D02*
Y4244445D01*
X8207117Y4263495D02*
X8226167Y4244445D01*
X7010400Y520708D02*
Y1117599D01*
X6997692Y508000D02*
X7010400Y520708D01*
X6997692Y393692D02*
Y508000D01*
X7924800Y127000D02*
X8115300Y317500D01*
X3559618Y127000D02*
X6731000D01*
X6997692Y393692D01*
X6731000Y127000D02*
X7924800D01*
X8115300Y317500D02*
X8686800Y889000D01*
X6781800Y508000D02*
X6845292D01*
X6578600Y304800D02*
X6781800Y508000D01*
X8712200Y965200D02*
X9245600Y1498600D01*
X965200Y4724384D02*
X1244616D01*
X838200D02*
X965200D01*
X1088582Y410018D02*
X3276600D01*
X8585208Y1930400D02*
Y2108192D01*
Y1778000D02*
Y1930400D01*
X6045200Y711200D02*
Y863592D01*
X8153400Y3556000D02*
X8226167Y3628767D01*
X1244616Y4724384D02*
X1351279Y4617721D01*
X3945636Y1540764D02*
X4664964D01*
X1351279Y3941656D02*
Y4617721D01*
X177808Y1879600D02*
Y2032000D01*
Y1727200D02*
Y1879600D01*
Y2032000D02*
Y2768608D01*
X1524000Y3759199D02*
Y3768935D01*
X1351279Y3941656D02*
X1524000Y3768935D01*
X7061200Y5232400D02*
X7137400Y5308600D01*
X6527800Y5232400D02*
X7061200D01*
X5765800Y4445000D02*
Y4521200D01*
X5511800Y4191000D02*
X5765800Y4445000D01*
X5492750Y4191000D02*
X5511800D01*
X5461000Y4159250D02*
X5492750Y4191000D01*
X5461000Y4140200D02*
Y4159250D01*
X5168908Y1397000D02*
Y1466369D01*
X5094513Y1540764D02*
X5168908Y1466369D01*
X4664964Y1540764D02*
X5094513D01*
X4584692Y1460492D02*
X4664964Y1540764D01*
X4584692Y1397000D02*
Y1460492D01*
X1777999Y1752599D02*
X1778000Y1752600D01*
X1777999Y1371598D02*
Y1752599D01*
X9245600Y1498600D02*
Y3886200D01*
X9042400Y4089400D02*
X9245600Y3886200D01*
X8763000Y4089400D02*
X9042400D01*
X8534400Y3860800D02*
X8763000Y4089400D01*
X8534400Y3429000D02*
Y3860800D01*
X3276600Y410018D02*
X3559618Y127000D01*
X8686800Y889000D02*
Y990600D01*
X254000Y3327400D02*
X355600Y3225800D01*
X254000Y3327400D02*
Y4241800D01*
X177808Y2768608D02*
X431802Y3022602D01*
X617220D01*
X177808Y1320792D02*
X520700Y977900D01*
X177808Y1320792D02*
Y1727200D01*
X3276600Y410018D02*
X3873502D01*
X1384301Y977900D02*
X1524000Y1117599D01*
X520700Y977900D02*
X1384301D01*
X520700D02*
X1088582Y410018D01*
D24*
X1663692Y2031992D02*
X1663700Y2032000D01*
X1524000Y2031992D02*
X1663692D01*
X1092200Y1930400D02*
X1803400D01*
X7980680Y1778000D02*
X8077192D01*
X7904480Y1701800D02*
X7980680Y1778000D01*
X7904480Y1597660D02*
Y1701800D01*
X4978400Y5816600D02*
X4984750D01*
X5050226Y5751124D01*
Y5744774D02*
Y5751124D01*
Y5744774D02*
X5054600Y5740400D01*
X7137400Y3327400D02*
X7137408Y3327392D01*
Y3225800D02*
Y3327392D01*
X6680200Y3098800D02*
X6859270Y2919730D01*
X7646670D02*
X7772400Y2794000D01*
X7442200Y2844800D02*
X7504027Y2782973D01*
X6756400Y2844800D02*
X7442200D01*
X6578600Y3022600D02*
X6756400Y2844800D01*
X6859270Y2919730D02*
X7646670D01*
X5492914Y6146800D02*
X5499100D01*
X5101313Y6168113D02*
X5471601D01*
X5492914Y6146800D01*
X5473665Y5930985D02*
X5473700Y5931020D01*
Y6029418D01*
X5375368Y6089650D02*
X5375555Y6089837D01*
X5413282D02*
X5473700Y6029418D01*
X5375555Y6089837D02*
X5413282D01*
X4978400Y6045200D02*
X4984750D01*
X5029200Y6089650D01*
Y6096000D01*
X5101313Y6168113D01*
X5626100Y6229514D02*
X5638800Y6216814D01*
X5626100Y6229514D02*
Y6235700D01*
X5638800Y6045200D02*
Y6216814D01*
X5422030Y6311030D02*
X5804770D01*
X5346700Y6235700D02*
X5422030Y6311030D01*
X5765800Y5638800D02*
X5925414Y5798414D01*
X5638800Y5588000D02*
Y5816600D01*
X5537200Y5486400D02*
X5638800Y5588000D01*
X4165600Y5613400D02*
X4292600Y5740400D01*
X4337050Y5816600D02*
X4343400D01*
X4292600Y5772150D02*
X4337050Y5816600D01*
X4292600Y5740400D02*
Y5772150D01*
X5969000Y6045200D02*
Y6146800D01*
X5804770Y6311030D02*
X5969000Y6146800D01*
X5308600Y6045200D02*
X5353050Y6089650D01*
X5375368D01*
X5314950Y5816600D02*
X5359400Y5772150D01*
Y5759450D02*
X5424876Y5693974D01*
X5431226D02*
X5435600Y5689600D01*
X5308600Y5816600D02*
X5314950D01*
X5424876Y5693974D02*
X5431226D01*
X5359400Y5759450D02*
Y5772150D01*
X3733800Y5715000D02*
Y5816600D01*
X3632200Y5613400D02*
X3733800Y5715000D01*
X4038600D02*
Y5816600D01*
X3937000Y5613400D02*
X4038600Y5715000D01*
X5925414Y5798414D02*
Y5849214D01*
X4648200Y5740400D02*
Y5816600D01*
X4546600Y5638800D02*
X4648200Y5740400D01*
X2032000Y1371600D02*
Y1701800D01*
X1803400Y1930400D02*
X2032000Y1701800D01*
X871218Y2151382D02*
X1092200Y1930400D01*
X7504027Y2681373D02*
Y2782973D01*
Y2681373D02*
X7518400Y2667000D01*
X7772400Y2666998D02*
Y2794000D01*
X6578600Y3022600D02*
Y3708400D01*
X6326722Y3767678D02*
X6519322D01*
X6578600Y3708400D01*
X6311900Y3782499D02*
X6326722Y3767678D01*
X6680200Y3098800D02*
Y3784600D01*
X6553200Y3911600D02*
X6680200Y3784600D01*
X7504027Y4027573D02*
X7518400Y4013200D01*
X7504027Y4027573D02*
Y4129173D01*
X7442200Y4191000D02*
X7504027Y4129173D01*
X6311900Y4290499D02*
X7672901D01*
X7772400Y4013198D02*
Y4191000D01*
X7672901Y4290499D02*
X7772400Y4191000D01*
X6731000Y4191000D02*
X7442200D01*
X2554371Y2427372D02*
X2706772D01*
X2791899Y2512499D02*
X3263900D01*
X2706772Y2427372D02*
X2791899Y2512499D01*
X2766499Y2766499D02*
X3263900D01*
X2667001Y2667001D02*
X2766499Y2766499D01*
X2539998Y2667001D02*
X2667001D01*
X2539996Y2666998D02*
X2539998Y2667001D01*
Y2412999D02*
X2554371Y2427372D01*
X6653943Y2032857D02*
X6842909Y1843891D01*
X6653943Y2032857D02*
Y2424457D01*
X6731000Y1752600D02*
X7355401D01*
X6842909Y1843891D02*
X7503309D01*
X6527800Y1955800D02*
Y2362200D01*
Y1955800D02*
X6731000Y1752600D01*
X7503309Y1843891D02*
X7772400Y1574801D01*
X7355401Y1752600D02*
X7518400Y1589601D01*
X7772400Y1371598D02*
Y1574801D01*
X7518400Y1371600D02*
Y1589601D01*
X6311900Y2512499D02*
X6342878Y2481521D01*
X7061200Y256540D02*
X7109460Y304800D01*
X7340600D01*
X4953000Y5003800D02*
X5003800Y5054600D01*
X5054600D01*
X4953000Y4140200D02*
Y5003800D01*
X871218Y2151382D02*
Y2514601D01*
X889000Y1549400D02*
X1422400D01*
X871217Y3276601D02*
X2717799D01*
X2870200Y3124200D01*
X2616200Y3530600D02*
X2997200Y3149600D01*
X871220Y3530600D02*
X2616200D01*
X6311900Y2766499D02*
X6653943Y2424457D01*
X6408479Y2481521D02*
X6527800Y2362200D01*
X6342878Y2481521D02*
X6408479D01*
X3886201Y3683001D02*
X4064000Y3860800D01*
X4622800D02*
X4699000Y3937000D01*
X4064000Y3860800D02*
X4622800D01*
X3886201Y3454401D02*
Y3683001D01*
X4699000Y3937000D02*
Y4140200D01*
X3517900Y2512500D02*
X3886201Y2880801D01*
Y3454401D01*
X4775200Y4927600D02*
X4893310D01*
X4699000Y4140200D02*
Y4851400D01*
X4775200Y4927600D01*
X1377117Y3020499D02*
X3263900D01*
X871218Y2514601D02*
X1377117Y3020499D01*
X2768600Y1600200D02*
X2918899Y1750499D01*
X2768600Y1193800D02*
Y1600200D01*
X2918899Y1750499D02*
X3263900D01*
X2692399Y1117599D02*
X2768600Y1193800D01*
X2539998Y1117599D02*
X2692399D01*
X2842699Y2004499D02*
X3263900D01*
X2539998Y1701798D02*
X2842699Y2004499D01*
X2539998Y1371601D02*
Y1701798D01*
X2817299Y2258499D02*
X3263900D01*
X2286000Y1727200D02*
X2817299Y2258499D01*
X2286000Y1371598D02*
Y1727200D01*
X3024699Y3274499D02*
X3263900D01*
X2539998Y3759199D02*
X3024699Y3274499D01*
X2563301Y4290499D02*
X3263900D01*
X2286000Y4013198D02*
X2563301Y4290499D01*
X2563299Y4544499D02*
X3263900D01*
X2032000Y4013200D02*
X2563299Y4544499D01*
X2539997Y2413001D02*
X2539998Y2412999D01*
X2286000Y2413001D02*
X2539997D01*
X2286000Y2666998D02*
X2539996D01*
X7340600Y4622800D02*
X7518400Y4800600D01*
X6487599Y4622800D02*
X7340600D01*
X6311900Y4798499D02*
X6487599Y4622800D01*
X6311900Y4036499D02*
X6576499D01*
X6731000Y4191000D01*
D25*
X6146792Y292100D02*
X6226287D01*
X6146792D02*
Y304800D01*
X6311900Y1242499D02*
X6853807D01*
X6982906Y1371599D01*
X6236667Y281720D02*
X6255273D01*
X6982906Y1371599D02*
X7010399D01*
X6226287Y292100D02*
X6236667Y281720D01*
X6985008Y3225800D02*
Y3260818D01*
Y3149592D02*
Y3225800D01*
X838200Y4571984D02*
X965200D01*
X665337D02*
X838200D01*
X7112000Y3022600D02*
X8458200D01*
X6985008Y3260819D02*
Y3663762D01*
X6990960Y3669714D02*
Y3739759D01*
X6985008Y3260818D02*
X6985008Y3260819D01*
Y3663762D02*
X6990960Y3669714D01*
Y3739759D02*
X7010400Y3759199D01*
X6985008Y3149592D02*
X7112000Y3022600D01*
X558800Y4622600D02*
X614721D01*
X665337Y4571984D01*
X733559Y4768696D02*
X831704D01*
X838200Y4775192D01*
X614819Y4772700D02*
X618823Y4768696D01*
X559300Y4779600D02*
X566200Y4772700D01*
X614819D01*
X618823Y4768696D02*
X733559D01*
X559300Y5329600D02*
X688922D01*
X733559Y5284963D01*
Y4768696D02*
Y5284963D01*
X6019800Y1244599D02*
X6246299D01*
X7403702Y1981200D02*
X8123642D01*
X6426200Y400237D02*
Y1128199D01*
X6311900Y1242499D02*
X6426200Y1128199D01*
X6330763Y304800D02*
X6426200Y400237D01*
X6283213Y304800D02*
X6330763D01*
X6255273Y281720D02*
X6260133D01*
X6283213Y304800D01*
X6246299Y1242499D02*
X6311900D01*
X6654800Y1574800D02*
X7162800D01*
X6311900Y1496499D02*
X6576499D01*
X6654800Y1574800D01*
X7162800D02*
X7247717Y1489884D01*
Y1388281D02*
X7264399Y1371598D01*
X7247717Y1388281D02*
Y1489884D01*
X6073389Y2497010D02*
X6327389D01*
X330208Y2616208D02*
X482601Y2768601D01*
X330208Y2019300D02*
Y2616208D01*
X482601Y2768601D02*
X617218D01*
X6057900Y2258499D02*
Y2258500D01*
Y2004499D02*
X6311899D01*
X6057900Y2258499D02*
X6311899D01*
X6057900Y2766499D02*
X6311899D01*
X6057900Y3020499D02*
X6311899D01*
X6057900Y3274499D02*
X6311899D01*
X6057900Y3528499D02*
X6311899D01*
X6057900Y3782499D02*
X6311899D01*
X6057900Y4036499D02*
X6311899D01*
X6057900Y4290499D02*
X6311899D01*
X6057900Y4544499D02*
X6311899D01*
X6057900Y4798499D02*
X6311899D01*
X3263901Y4798500D02*
X3517900D01*
X3263900Y4544499D02*
X3517899D01*
X3263900Y4290499D02*
X3517899D01*
X3263900Y4036499D02*
X3517899D01*
X3263900Y3782499D02*
X3517899D01*
X3263900Y3528499D02*
X3517899D01*
X3263900Y3274499D02*
X3517899D01*
X3263900Y3020499D02*
X3517899D01*
X3263900Y2766499D02*
X3517899D01*
X3263900Y2512499D02*
X3517899D01*
X3263900Y2258499D02*
X3517899D01*
X3263900Y2004499D02*
X3517899D01*
X3263900Y1750499D02*
X3517899D01*
X3263900Y1242499D02*
X3517899D01*
X3263900Y977900D02*
Y1242499D01*
Y977900D02*
X3276600Y965200D01*
X3848100Y838200D02*
X3873500Y863600D01*
X3276600Y838200D02*
X3848100D01*
X1143001Y1371599D02*
X1523999D01*
X1066800Y1447800D02*
X1143001Y1371599D01*
X1066800Y2286000D02*
Y2514600D01*
X1219199Y2666999D01*
X1523999D01*
D26*
X1504946Y2178038D02*
Y2190746D01*
X8864600Y3886200D02*
X8978901Y3771899D01*
Y3530600D02*
Y3771899D01*
X1481534Y2171692D02*
X1498600D01*
X1517654Y2190746D02*
X1524000Y2197092D01*
X1498600Y2171692D02*
X1504946Y2178038D01*
X1468842Y2159000D02*
X1481534Y2171692D01*
X1504946Y2190746D02*
X1517654D01*
X1193800Y2159000D02*
X1468842D01*
X1524000Y2197092D02*
Y2412999D01*
D27*
X8432800Y1778000D02*
Y2476502D01*
X5207000Y3886200D02*
X5834380Y3258820D01*
Y2202180D02*
Y3258820D01*
X5537200Y1905000D02*
X5834380Y2202180D01*
X7366000Y2133600D02*
X8089898D01*
X7264399Y2235201D02*
X7366000Y2133600D01*
X7264399Y2235201D02*
Y2412999D01*
X7416800Y3302000D02*
X8407400D01*
X8675968Y3054352D02*
X8707718Y3022602D01*
X8407400Y3302000D02*
X8655048Y3054352D01*
X8707718Y3022602D02*
X8724901D01*
X8655048Y3054352D02*
X8675968D01*
X7264399Y3454401D02*
Y3759199D01*
Y3454401D02*
X7416800Y3302000D01*
X5689600Y5359400D02*
X5969000Y5638800D01*
X5207000Y5359400D02*
X5689600D01*
X6096000Y5689600D02*
X6248400D01*
X5969000Y5638800D02*
X6045200D01*
X6096000Y5689600D01*
X6248400D02*
X7696200D01*
X8432800Y1219200D02*
Y1778000D01*
X1828800Y5359400D02*
X5207000D01*
X1676400D02*
X1828800D01*
X5207000Y4140200D02*
Y5359400D01*
Y3886200D02*
Y4140200D01*
X1371600Y5054600D02*
X1676400Y5359400D01*
X8432800Y2476502D02*
Y2667000D01*
X8534401Y2768601D01*
X8724899D01*
X8089898Y2133600D02*
X8432800Y2476502D01*
X8724899Y2768601D02*
X8724901Y2768603D01*
X7416800Y787400D02*
X8001000D01*
X7264399Y939801D02*
X7416800Y787400D01*
X8001000D02*
X8432800Y1219200D01*
X7264399Y939801D02*
Y1117599D01*
X7696200Y5689600D02*
X8026400Y5359400D01*
Y4800600D02*
Y5359400D01*
X8724901Y2768603D02*
Y3022602D01*
D28*
X8724899Y1206499D02*
Y2514602D01*
X7823200Y304800D02*
X8724899Y1206499D01*
X508000Y3639819D02*
Y4241800D01*
X4191000Y1778000D02*
X5577400D01*
X6057900Y2258500D01*
X4216400Y1651000D02*
X5671926D01*
X6025426Y2004500D02*
X6057900D01*
X5671926Y1651000D02*
X6025426Y2004500D01*
X4140200Y1727200D02*
X4191000Y1778000D01*
X3733800Y6045200D02*
X3740150D01*
X3788410Y6093460D01*
Y6099810D01*
X3835400Y6146800D01*
X4038600Y6045200D02*
X4044950D01*
X4093210Y6093460D01*
Y6116962D01*
X4114800Y6138552D01*
Y6146800D01*
X4267200Y6172200D02*
X4521200D01*
X4593590Y6099810D01*
X4343400Y6045200D02*
X4368800Y6019800D01*
X4470400D01*
X4641850Y6045200D02*
X4648200D01*
X4593590Y6093460D02*
X4641850Y6045200D01*
X4593590Y6093460D02*
Y6099810D01*
X5638800Y1130299D02*
X5651501Y1143000D01*
X5638800Y957655D02*
Y1130299D01*
Y957655D02*
X5656655Y939800D01*
X5867400D01*
X5943592Y1015992D01*
X6045200D01*
X508000Y3639819D02*
X617219Y3530600D01*
X7747000Y304800D02*
X7823200D01*
X6578600Y685800D02*
X6756400Y863600D01*
X6578600Y355600D02*
Y685800D01*
X2842699Y4701101D02*
X2844800Y4699000D01*
X2860554Y4798499D02*
X3263900D01*
X2842699Y4701101D02*
Y4780644D01*
X2860554Y4798499D01*
X871217Y2768601D02*
X1226817Y3124200D01*
X2667000D01*
X3024700Y3528499D02*
X3263900D01*
X2539998Y4013201D02*
X3024700Y3528499D01*
D29*
X8255000Y1600203D02*
Y2082800D01*
X8026398Y1371601D02*
X8255000Y1600203D01*
D30*
X7518400Y2413001D02*
D03*
X7772400Y2413001D02*
D03*
X7772400Y2666998D02*
D03*
X7518400Y2667000D02*
D03*
X7264399Y2666998D02*
D03*
X7010400Y2412999D02*
D03*
X7010399Y2666999D02*
D03*
X8026398Y2412999D02*
D03*
X7264399Y2412999D02*
D03*
X2032000Y2413001D02*
D03*
X2286000Y2413001D02*
D03*
X2286000Y2666998D02*
D03*
X2032000Y2667000D02*
D03*
X1777999Y2666998D02*
D03*
X1524000Y2412999D02*
D03*
X1523999Y2666999D02*
D03*
X2539998Y2412999D02*
D03*
X1777999Y2412999D02*
D03*
X2032000Y1117601D02*
D03*
X2286000Y1117601D02*
D03*
X2286000Y1371598D02*
D03*
X2032000Y1371600D02*
D03*
X1777999Y1371598D02*
D03*
X1524000Y1117599D02*
D03*
X1523999Y1371599D02*
D03*
X2539998Y1117599D02*
D03*
X1777999Y1117599D02*
D03*
X2032000Y3759201D02*
D03*
X2286000Y3759201D02*
D03*
X2286000Y4013198D02*
D03*
X2032000Y4013200D02*
D03*
X1777999Y4013198D02*
D03*
X1524000Y3759199D02*
D03*
X1523999Y4013199D02*
D03*
X2539998Y3759199D02*
D03*
X1777999Y3759199D02*
D03*
X7264399Y1117599D02*
D03*
X8026398Y1117599D02*
D03*
X7010399Y1371599D02*
D03*
X7010400Y1117599D02*
D03*
X7264399Y1371598D02*
D03*
X7518400Y1371600D02*
D03*
X7772400Y1371598D02*
D03*
X7772400Y1117601D02*
D03*
X7518400Y1117601D02*
D03*
X7264399Y3759199D02*
D03*
X8026398Y3759199D02*
D03*
X7010399Y4013199D02*
D03*
X7010400Y3759199D02*
D03*
X7264399Y4013198D02*
D03*
X7518400Y4013200D02*
D03*
X7772400Y4013198D02*
D03*
X7772400Y3759201D02*
D03*
X7518400Y3759201D02*
D03*
X8724899Y2768601D02*
D03*
X8724900Y3530600D02*
D03*
X8978899Y2514601D02*
D03*
X8724899Y2514602D02*
D03*
X8978898Y2768601D02*
D03*
X8978900Y3022602D02*
D03*
X8978898Y3276601D02*
D03*
X8724901Y3276602D02*
D03*
X8724901Y3022602D02*
D03*
X617220D02*
D03*
X617220Y3276602D02*
D03*
X871217Y3276601D02*
D03*
X871219Y3022602D02*
D03*
X871217Y2768601D02*
D03*
X617218Y2514602D02*
D03*
X871218Y2514601D02*
D03*
X617219Y3530600D02*
D03*
X617218Y2768601D02*
D03*
D31*
X8026398Y2667001D02*
D03*
X2539998D02*
D03*
Y1371601D02*
D03*
Y4013201D02*
D03*
X8026398Y1371601D02*
D03*
Y4013201D02*
D03*
D32*
X8978901Y3530600D02*
D03*
X871220D02*
D03*
D33*
X4360400Y2387600D02*
D03*
D34*
X5105400D02*
D03*
D35*
X4445000Y4140200D02*
D03*
X5207000D02*
D03*
X4953000D02*
D03*
X4699000D02*
D03*
X4191000D02*
D03*
D36*
X5461000D02*
D03*
D37*
X178800Y4622600D02*
D03*
Y5486600D02*
D03*
X558800Y4622600D02*
D03*
Y5486600D02*
D03*
D38*
X7010400Y4800600D02*
D03*
X7772400D02*
D03*
X7518400D02*
D03*
X7264400D02*
D03*
X6756400D02*
D03*
D39*
X8026400D02*
D03*
D40*
X254000Y4241800D02*
D03*
D41*
X508000D02*
D03*
D42*
X3517900Y4798500D02*
D03*
Y4544500D02*
D03*
Y4290500D02*
D03*
Y4036500D02*
D03*
Y3782500D02*
D03*
Y3528500D02*
D03*
Y3274500D02*
D03*
Y3020500D02*
D03*
Y2766500D02*
D03*
Y2512500D02*
D03*
Y2258500D02*
D03*
Y2004500D02*
D03*
Y1750500D02*
D03*
Y1496500D02*
D03*
Y1242500D02*
D03*
X6057900Y4798500D02*
D03*
Y4544500D02*
D03*
Y4290500D02*
D03*
Y4036500D02*
D03*
Y3782500D02*
D03*
Y3528500D02*
D03*
Y3274500D02*
D03*
Y3020500D02*
D03*
Y2766500D02*
D03*
Y2512500D02*
D03*
Y2258500D02*
D03*
Y2004500D02*
D03*
Y1750500D02*
D03*
Y1496500D02*
D03*
X3263900Y1496499D02*
D03*
Y1750499D02*
D03*
Y2004499D02*
D03*
Y2258499D02*
D03*
Y2512499D02*
D03*
Y2766499D02*
D03*
Y3020499D02*
D03*
Y3274499D02*
D03*
Y3528499D02*
D03*
Y3782499D02*
D03*
Y4036499D02*
D03*
Y4290499D02*
D03*
Y4544499D02*
D03*
Y4798499D02*
D03*
X6311900D02*
D03*
Y4544499D02*
D03*
Y4290499D02*
D03*
Y4036499D02*
D03*
Y3782499D02*
D03*
Y3528499D02*
D03*
Y3274499D02*
D03*
Y3020499D02*
D03*
Y2766499D02*
D03*
Y2512499D02*
D03*
Y2258499D02*
D03*
Y2004499D02*
D03*
Y1750499D02*
D03*
Y1496499D02*
D03*
D43*
X6057900Y1242500D02*
D03*
D44*
X3263900Y1242499D02*
D03*
X6311900D02*
D03*
D45*
X1097440Y6096000D02*
D03*
X1549400D02*
D03*
X980520Y5834380D02*
D03*
X1679020D02*
D03*
X2189640Y6096000D02*
D03*
X2641600D02*
D03*
X2072720Y5834380D02*
D03*
X2771220D02*
D03*
D46*
X178824Y6094977D02*
D03*
X355600Y6168200D02*
D03*
X532377Y6094977D02*
D03*
X605600Y5918200D02*
D03*
X532377Y5741423D02*
D03*
X355600Y5668200D02*
D03*
X178824Y5741423D02*
D03*
X105600Y5918200D02*
D03*
X8903724Y646677D02*
D03*
X9080500Y719900D02*
D03*
X9257277Y646677D02*
D03*
X9330500Y469900D02*
D03*
X9257277Y293123D02*
D03*
X9080500Y219900D02*
D03*
X8903724Y293123D02*
D03*
X8830500Y469900D02*
D03*
X8903724Y6094977D02*
D03*
X9080500Y6168200D02*
D03*
X9257277Y6094977D02*
D03*
X9330500Y5918200D02*
D03*
X9257277Y5741423D02*
D03*
X9080500Y5668200D02*
D03*
X8903724Y5741423D02*
D03*
X8830500Y5918200D02*
D03*
X178824Y646677D02*
D03*
X355600Y719900D02*
D03*
X532377Y646677D02*
D03*
X605600Y469900D02*
D03*
X532377Y293123D02*
D03*
X355600Y219900D02*
D03*
X178824Y293123D02*
D03*
X105600Y469900D02*
D03*
D47*
X355600Y5905500D02*
D03*
X9080500Y469900D02*
D03*
Y5905500D02*
D03*
X355600Y469900D02*
D03*
D48*
X8207117Y4263495D02*
D03*
X508000Y1714500D02*
D03*
Y1854200D02*
D03*
X1663700Y2032000D02*
D03*
X7904480Y1597660D02*
D03*
X3945636Y1540764D02*
D03*
X7137400Y3327400D02*
D03*
X5499100Y6146800D02*
D03*
X5473665Y5930985D02*
D03*
X5626100Y6235700D02*
D03*
X5346700D02*
D03*
X5765800Y5638800D02*
D03*
X5537200Y5486400D02*
D03*
X4267200Y6172200D02*
D03*
X4470400Y6019800D02*
D03*
X5435600Y5689600D02*
D03*
X3835400Y6146800D02*
D03*
X4114800D02*
D03*
X5054600Y5740400D02*
D03*
X3632200Y5613400D02*
D03*
X3937000D02*
D03*
X4546600Y5638800D02*
D03*
X4165600Y5613400D02*
D03*
X8864600Y3886200D02*
D03*
X4216400Y1651000D02*
D03*
X4140200Y1727200D02*
D03*
X5537200Y1905000D02*
D03*
Y1498600D02*
D03*
X7137400Y5308600D02*
D03*
X6756400Y863600D02*
D03*
X5054600Y5054600D02*
D03*
X5715000Y5105400D02*
D03*
X6019800D02*
D03*
Y5283200D02*
D03*
X8089900Y4271624D02*
D03*
X2844800Y4699000D02*
D03*
X1778000Y1752600D02*
D03*
X7061200Y256540D02*
D03*
X6527800Y5232400D02*
D03*
X5765800Y4521200D02*
D03*
X889000Y1549400D02*
D03*
X1422400D02*
D03*
X2667000Y3124200D02*
D03*
X2997200Y3149600D02*
D03*
X2870200Y3124200D02*
D03*
X1193800Y2159000D02*
D03*
X3886201Y3454401D02*
D03*
X4893310Y4927600D02*
D03*
X6553200Y3911600D02*
D03*
X368300Y2120900D02*
D03*
X5702300Y1498600D02*
D03*
X5854700D02*
D03*
X5537200Y1371600D02*
D03*
X5702300D02*
D03*
X5854700D02*
D03*
X1828800Y5359400D02*
D03*
D49*
X8393940Y4635641D02*
D03*
X8585208Y2108192D02*
D03*
X8458200Y3022600D02*
D03*
X8153400Y3556000D02*
D03*
X1511300Y190500D02*
D03*
X965200Y203200D02*
D03*
X5969000Y5638800D02*
D03*
X8559800Y4521200D02*
D03*
X7391400Y1981200D02*
D03*
X8128000D02*
D03*
X8255000Y2082800D02*
D03*
X4660900Y292100D02*
D03*
X1371600Y5054600D02*
D03*
X355600Y3225800D02*
D03*
X6248400Y5689600D02*
D03*
Y276860D02*
D03*
X1066800Y1447800D02*
D03*
X8534400Y3429000D02*
D03*
X8686800Y990600D02*
D03*
X1066800Y2286000D02*
D03*
X5384800Y2209800D02*
D03*
X5207000D02*
D03*
X5029200D02*
D03*
X4191000Y2184400D02*
D03*
X4013200D02*
D03*
%TF.MD5,d2e2c571baf021b02bd2a524be657930*%
M02*
