%TF.GenerationSoftware,Altium Limited,Altium Designer,25.4.2 (15)*%
G04 Layer_Color=8388736*
%FSLAX45Y45*%
%MOMM*%
%TF.SameCoordinates,E6CAE831-27AB-4F04-BD5C-EB1891CE41FD*%
%TF.FilePolarity,Negative*%
%TF.FileFunction,Soldermask,Top*%
%TF.Part,Single*%
G01*
G75*
%TA.AperFunction,SMDPad,CuDef*%
%ADD80R,3.50320X2.60320*%
%ADD81R,1.20320X2.60320*%
%ADD82R,0.96520X1.21920*%
%ADD83R,0.60320X0.50320*%
%ADD84R,4.70320X2.50320*%
%ADD85R,1.21920X0.96520*%
%TA.AperFunction,ConnectorPad*%
%ADD86R,1.50320X0.80320*%
%ADD87R,1.50320X0.50320*%
%TA.AperFunction,SMDPad,CuDef*%
%ADD88R,1.98120X1.98120*%
%ADD89R,1.20320X1.60020*%
%ADD90C,1.47320*%
%ADD91R,2.36320X2.60320*%
%ADD92R,3.50320X1.70320*%
G04:AMPARAMS|DCode=93|XSize=2.7032mm|YSize=4.5032mm|CornerRadius=0.7266mm|HoleSize=0mm|Usage=FLASHONLY|Rotation=90.000|XOffset=0mm|YOffset=0mm|HoleType=Round|Shape=RoundedRectangle|*
%AMROUNDEDRECTD93*
21,1,2.70320,3.05000,0,0,90.0*
21,1,1.25000,4.50320,0,0,90.0*
1,1,1.45320,1.52500,0.62500*
1,1,1.45320,1.52500,-0.62500*
1,1,1.45320,-1.52500,-0.62500*
1,1,1.45320,-1.52500,0.62500*
%
%ADD93ROUNDEDRECTD93*%
%ADD94R,1.60020X1.47320*%
%ADD95R,1.72720X1.21920*%
%TA.AperFunction,ComponentPad*%
%ADD96R,1.70320X1.70320*%
%ADD97C,1.70320*%
%ADD98C,1.50320*%
%ADD99C,1.25320*%
%ADD100C,1.98120*%
%ADD101R,1.98120X1.98120*%
%ADD102O,2.30320X1.25320*%
%ADD103O,1.80320X1.00320*%
%ADD104C,0.85320*%
%ADD105C,0.80320*%
%ADD106C,6.20320*%
%ADD107R,1.98120X1.98120*%
%ADD108O,2.10820X2.48920*%
%ADD109R,2.10820X2.48920*%
%ADD110O,1.85420X2.36220*%
%ADD111R,1.85420X2.36220*%
%ADD112C,2.20320*%
%ADD113R,2.20320X2.20320*%
%ADD114R,2.20320X2.20320*%
%ADD115C,1.85420*%
%TA.AperFunction,ViaPad*%
%ADD116C,0.81280*%
%ADD117C,1.21920*%
D80*
X5003800Y534440D02*
D03*
D81*
X5233800Y1114440D02*
D03*
X5003800D02*
D03*
X4773800D02*
D03*
D82*
X457192Y4064000D02*
D03*
X304792D02*
D03*
X342908Y2755900D02*
D03*
X190508D02*
D03*
X1295392Y4902200D02*
D03*
X1447792D02*
D03*
X9118600Y1473200D02*
D03*
X9271000D02*
D03*
X9118601Y1320799D02*
D03*
X9271001D02*
D03*
X6222992Y304800D02*
D03*
X6375392D02*
D03*
X4751238Y1371600D02*
D03*
X4598838D02*
D03*
X5016508D02*
D03*
X5168908D02*
D03*
D83*
X330200Y1722600D02*
D03*
Y1782600D02*
D03*
D84*
X5530400Y2387600D02*
D03*
X3890400D02*
D03*
D85*
X685800Y1117608D02*
D03*
Y1270008D02*
D03*
Y1549408D02*
D03*
Y1397008D02*
D03*
X1422400Y203192D02*
D03*
Y355592D02*
D03*
X838200Y1396992D02*
D03*
Y1549392D02*
D03*
X1193800Y203192D02*
D03*
Y355592D02*
D03*
X8280400Y4800592D02*
D03*
Y4648192D02*
D03*
X6045200Y914392D02*
D03*
Y761992D02*
D03*
D86*
X622300Y4789200D02*
D03*
Y5269200D02*
D03*
Y4709200D02*
D03*
Y5349200D02*
D03*
D87*
Y4854200D02*
D03*
Y4904200D02*
D03*
Y4954200D02*
D03*
Y5004200D02*
D03*
Y5204200D02*
D03*
Y5154200D02*
D03*
Y5104200D02*
D03*
Y5054200D02*
D03*
D88*
X431800Y1520401D02*
D03*
Y1070399D02*
D03*
D89*
X934716Y4699000D02*
D03*
X1163316D02*
D03*
X933445Y4889500D02*
D03*
X1162045D02*
D03*
D90*
X1473200Y558800D02*
D03*
X8890000Y1346200D02*
D03*
X7899400Y330200D02*
D03*
X7137400D02*
D03*
X8382000D02*
D03*
D91*
X1468640Y5214620D02*
D03*
X1000760Y5209540D02*
D03*
D92*
X3860802Y359218D02*
D03*
X3860800Y812800D02*
D03*
D93*
X5664200Y368300D02*
D03*
X5664201Y1066800D02*
D03*
X4343400Y1066800D02*
D03*
X4343399Y368300D02*
D03*
D94*
X6045200Y533400D02*
D03*
Y304800D02*
D03*
X4648200Y6045200D02*
D03*
Y5816600D02*
D03*
X5308600D02*
D03*
Y6045200D02*
D03*
X5969000Y5816600D02*
D03*
Y6045200D02*
D03*
X5638800Y5816600D02*
D03*
Y6045200D02*
D03*
X4978400Y5816600D02*
D03*
Y6045200D02*
D03*
X3733800Y5816600D02*
D03*
Y6045200D02*
D03*
X4038600Y5816600D02*
D03*
Y6045200D02*
D03*
X4343400Y5816600D02*
D03*
Y6045200D02*
D03*
D95*
X3276600Y838200D02*
D03*
Y965200D02*
D03*
D96*
X457200Y4292600D02*
D03*
D97*
X203200D02*
D03*
D98*
X5105400Y2387600D02*
D03*
D99*
X4360400D02*
D03*
D100*
X1777999Y1117599D02*
D03*
X2539998Y1117599D02*
D03*
X1523999Y1371599D02*
D03*
X1524000Y1117599D02*
D03*
X1777999Y1371598D02*
D03*
X2032000Y1371600D02*
D03*
X2286000Y1371598D02*
D03*
X2286000Y1117601D02*
D03*
X2032000Y1117601D02*
D03*
X1777999Y2412999D02*
D03*
X2539998Y2412999D02*
D03*
X1523999Y2666999D02*
D03*
X1524000Y2412999D02*
D03*
X1777999Y2666998D02*
D03*
X2032000Y2667000D02*
D03*
X2286000Y2666998D02*
D03*
X2286000Y2413001D02*
D03*
X2032000Y2413001D02*
D03*
X7264399Y2412999D02*
D03*
X8026398Y2412999D02*
D03*
X7010399Y2666999D02*
D03*
X7010400Y2412999D02*
D03*
X7264399Y2666998D02*
D03*
X7518400Y2667000D02*
D03*
X7772400Y2666998D02*
D03*
X7772400Y2413001D02*
D03*
X7518400Y2413001D02*
D03*
Y1117601D02*
D03*
X7772400Y1117601D02*
D03*
X7772400Y1371598D02*
D03*
X7518400Y1371600D02*
D03*
X7264399Y1371598D02*
D03*
X7010400Y1117599D02*
D03*
X7010399Y1371599D02*
D03*
X8026398Y1117599D02*
D03*
X7264399Y1117599D02*
D03*
X2032000Y3759201D02*
D03*
X2286000Y3759201D02*
D03*
X2286000Y4013198D02*
D03*
X2032000Y4013200D02*
D03*
X1777999Y4013198D02*
D03*
X1524000Y3759199D02*
D03*
X1523999Y4013199D02*
D03*
X2539998Y3759199D02*
D03*
X1777999Y3759199D02*
D03*
X7264399D02*
D03*
X8026398Y3759199D02*
D03*
X7010399Y4013199D02*
D03*
X7010400Y3759199D02*
D03*
X7264399Y4013198D02*
D03*
X7518400Y4013200D02*
D03*
X7772400Y4013198D02*
D03*
X7772400Y3759201D02*
D03*
X7518400Y3759201D02*
D03*
X8724899Y2768601D02*
D03*
X8724900Y3530600D02*
D03*
X8978899Y2514601D02*
D03*
X8724899Y2514602D02*
D03*
X8978898Y2768601D02*
D03*
X8978900Y3022602D02*
D03*
X8978898Y3276601D02*
D03*
X8724901Y3276602D02*
D03*
X8724901Y3022602D02*
D03*
X617220D02*
D03*
X617220Y3276602D02*
D03*
X871217Y3276601D02*
D03*
X871219Y3022602D02*
D03*
X871217Y2768601D02*
D03*
X617218Y2514602D02*
D03*
X871218Y2514601D02*
D03*
X617219Y3530600D02*
D03*
X617218Y2768601D02*
D03*
D101*
X2539998Y1371601D02*
D03*
Y2667001D02*
D03*
X8026398D02*
D03*
Y1371601D02*
D03*
X2539998Y4013201D02*
D03*
X8026398D02*
D03*
D102*
X558300Y4597200D02*
D03*
Y5461200D02*
D03*
D103*
X140300Y4597200D02*
D03*
Y5461200D02*
D03*
D104*
X508300Y4740200D02*
D03*
Y5318200D02*
D03*
D105*
X105600Y469900D02*
D03*
X178824Y293123D02*
D03*
X355600Y219900D02*
D03*
X532377Y293123D02*
D03*
X605600Y469900D02*
D03*
X532377Y646677D02*
D03*
X355600Y719900D02*
D03*
X178824Y646677D02*
D03*
Y6094977D02*
D03*
X355600Y6168200D02*
D03*
X532377Y6094977D02*
D03*
X605600Y5918200D02*
D03*
X532377Y5741423D02*
D03*
X355600Y5668200D02*
D03*
X178824Y5741423D02*
D03*
X105600Y5918200D02*
D03*
X8903724Y646677D02*
D03*
X9080500Y719900D02*
D03*
X9257277Y646677D02*
D03*
X9330500Y469900D02*
D03*
X9257277Y293123D02*
D03*
X9080500Y219900D02*
D03*
X8903724Y293123D02*
D03*
X8830500Y469900D02*
D03*
X8903724Y6094977D02*
D03*
X9080500Y6168200D02*
D03*
X9257277Y6094977D02*
D03*
X9330500Y5918200D02*
D03*
X9257277Y5741423D02*
D03*
X9080500Y5668200D02*
D03*
X8903724Y5741423D02*
D03*
X8830500Y5918200D02*
D03*
D106*
X355600Y469900D02*
D03*
Y5905500D02*
D03*
X9080500Y469900D02*
D03*
Y5905500D02*
D03*
D107*
X8978901Y3530600D02*
D03*
X871220D02*
D03*
D108*
X4445000Y4140200D02*
D03*
X5207000D02*
D03*
X4953000D02*
D03*
X4699000D02*
D03*
X4191000D02*
D03*
D109*
X5461000D02*
D03*
D110*
X7010400Y4800600D02*
D03*
X7772400D02*
D03*
X7518400D02*
D03*
X7264400D02*
D03*
X6756400D02*
D03*
D111*
X8026400D02*
D03*
D112*
X3517900Y4798500D02*
D03*
Y4544500D02*
D03*
Y4290500D02*
D03*
Y4036500D02*
D03*
Y3782500D02*
D03*
Y3528500D02*
D03*
Y3274500D02*
D03*
Y3020500D02*
D03*
Y2766500D02*
D03*
Y2512500D02*
D03*
Y2258500D02*
D03*
Y2004500D02*
D03*
Y1750500D02*
D03*
Y1496500D02*
D03*
Y1242500D02*
D03*
X6057900Y4798500D02*
D03*
Y4544500D02*
D03*
Y4290500D02*
D03*
Y4036500D02*
D03*
Y3782500D02*
D03*
Y3528500D02*
D03*
Y3274500D02*
D03*
Y3020500D02*
D03*
Y2766500D02*
D03*
Y2512500D02*
D03*
Y2258500D02*
D03*
Y2004500D02*
D03*
Y1750500D02*
D03*
Y1496500D02*
D03*
X3263900Y1496499D02*
D03*
Y1750499D02*
D03*
Y2004499D02*
D03*
Y2258499D02*
D03*
Y2512499D02*
D03*
Y2766499D02*
D03*
Y3020499D02*
D03*
Y3274499D02*
D03*
Y3528499D02*
D03*
Y3782499D02*
D03*
Y4036499D02*
D03*
Y4290499D02*
D03*
Y4544499D02*
D03*
Y4798499D02*
D03*
X6311900D02*
D03*
Y4544499D02*
D03*
Y4290499D02*
D03*
Y4036499D02*
D03*
Y3782499D02*
D03*
Y3528499D02*
D03*
Y3274499D02*
D03*
Y3020499D02*
D03*
Y2766499D02*
D03*
Y2512499D02*
D03*
Y2258499D02*
D03*
Y2004499D02*
D03*
Y1750499D02*
D03*
Y1496499D02*
D03*
D113*
X6057900Y1242500D02*
D03*
D114*
X3263900Y1242499D02*
D03*
X6311900D02*
D03*
D115*
X1097440Y6096000D02*
D03*
X1549400D02*
D03*
X980520Y5834380D02*
D03*
X1679020D02*
D03*
X2189640Y6096000D02*
D03*
X2641600D02*
D03*
X2072720Y5834380D02*
D03*
X2771220D02*
D03*
D116*
X8280400Y4572000D02*
D03*
X330200Y1968500D02*
D03*
X2844800Y4699000D02*
D03*
X736600Y3937000D02*
D03*
X330200Y2311400D02*
D03*
X9271000Y1143000D02*
D03*
X8382000Y457200D02*
D03*
X9042400Y1270000D02*
D03*
X761992Y1117608D02*
D03*
X1422400Y1549400D02*
D03*
X1905000Y5308600D02*
D03*
X5765800Y4521200D02*
D03*
X6832600Y5664200D02*
D03*
X8864600Y3886200D02*
D03*
X8509000Y1270000D02*
D03*
X1472291Y1752600D02*
D03*
X2768600Y2514600D02*
D03*
X2514600Y2921000D02*
D03*
X3945636Y1540764D02*
D03*
X5499100Y6146800D02*
D03*
X5473665Y5930985D02*
D03*
X5626100Y6235700D02*
D03*
X5346700D02*
D03*
X5765800Y5638800D02*
D03*
X5537200Y5486400D02*
D03*
X4267200Y6172200D02*
D03*
X4470400Y6019800D02*
D03*
X5435600Y5689600D02*
D03*
X3835400Y6146800D02*
D03*
X4114800D02*
D03*
X5054600Y5740400D02*
D03*
X3632200Y5613400D02*
D03*
X3937000D02*
D03*
X4546600Y5638800D02*
D03*
X4165600Y5613400D02*
D03*
X4216400Y1651000D02*
D03*
X4140200Y1727200D02*
D03*
X5537200Y1905000D02*
D03*
Y1498600D02*
D03*
X7137400Y5308600D02*
D03*
X5054600Y5054600D02*
D03*
X2667000Y3124200D02*
D03*
X2997200Y3149600D02*
D03*
X2870200Y3124200D02*
D03*
X3886201Y3454401D02*
D03*
X4893310Y4927600D02*
D03*
X6553200Y3911600D02*
D03*
X5702300Y1498600D02*
D03*
X5854700D02*
D03*
X5537200Y1371600D02*
D03*
X5702300D02*
D03*
X5854700D02*
D03*
D117*
X1117600Y1041400D02*
D03*
X2209800Y4876800D02*
D03*
X6400800Y5689600D02*
D03*
X8661400Y1498600D02*
D03*
X8204200Y2108200D02*
D03*
X8534400D02*
D03*
X1143000Y2184400D02*
D03*
X1028700Y165100D02*
D03*
X825500D02*
D03*
X4660900Y292100D02*
D03*
X5384800Y2209800D02*
D03*
X5207000D02*
D03*
X5029200D02*
D03*
X4191000Y2184400D02*
D03*
X4013200D02*
D03*
%TF.MD5,87bc9a175933c72b60e0bf8442d1b7f4*%
M02*
