%TF.GenerationSoftware,Altium Limited,Altium Designer,25.4.2 (15)*%
G04 Layer_Color=255*
%FSLAX45Y45*%
%MOMM*%
%TF.SameCoordinates,7A7D98F3-C43F-4678-AB1F-6D30F1D0AD40*%
%TF.FilePolarity,Positive*%
%TF.FileFunction,Pads,Top*%
%TF.Part,Single*%
G01*
G75*
%TA.AperFunction,SMDPad,CuDef*%
%ADD10C,1.27000*%
%ADD11R,0.76200X1.01600*%
%ADD12R,1.01600X0.76200*%
%ADD13R,1.39700X1.27000*%
%ADD14R,4.50000X2.30000*%
%ADD15R,1.52400X1.01600*%
%ADD16R,3.30000X1.50000*%
G04:AMPARAMS|DCode=17|XSize=2.5mm|YSize=4.3mm|CornerRadius=0.625mm|HoleSize=0mm|Usage=FLASHONLY|Rotation=270.000|XOffset=0mm|YOffset=0mm|HoleType=Round|Shape=RoundedRectangle|*
%AMROUNDEDRECTD17*
21,1,2.50000,3.05000,0,0,270.0*
21,1,1.25000,4.30000,0,0,270.0*
1,1,1.25000,-1.52500,-0.62500*
1,1,1.25000,-1.52500,0.62500*
1,1,1.25000,1.52500,0.62500*
1,1,1.25000,1.52500,-0.62500*
%
%ADD17ROUNDEDRECTD17*%
%TA.AperFunction,ConnectorPad*%
%ADD18R,1.15000X0.90000*%
%ADD19R,1.15000X0.80000*%
%ADD20R,1.15000X0.70000*%
%TA.AperFunction,SMDPad,CuDef*%
%ADD21R,3.30000X2.40000*%
%ADD22R,1.00000X2.40000*%
%TA.AperFunction,ComponentPad*%
%ADD30C,1.77800*%
%ADD31R,1.77800X1.77800*%
%ADD32R,1.77800X1.77800*%
%ADD33C,1.05000*%
%ADD34C,1.30000*%
%ADD35O,1.90500X2.28600*%
%ADD36R,1.90500X2.28600*%
%ADD37O,2.00000X1.00000*%
%ADD38O,1.65100X2.15900*%
%ADD39R,1.65100X2.15900*%
%ADD40R,1.50000X1.50000*%
%ADD41C,1.50000*%
%ADD42C,2.00000*%
%ADD43R,2.00000X2.00000*%
%ADD44R,2.00000X2.00000*%
%ADD45C,1.65100*%
%ADD46C,0.60000*%
%ADD47C,6.00000*%
D10*
X8128000Y304800D02*
D03*
X7340600D02*
D03*
X6578600D02*
D03*
X7747000D02*
D03*
D11*
X6845292Y508000D02*
D03*
X6997692D02*
D03*
X7137408Y3225800D02*
D03*
X6985008D02*
D03*
X8229592Y1778000D02*
D03*
X8077192D02*
D03*
X8432808D02*
D03*
X8585208D02*
D03*
X8432808Y1930400D02*
D03*
X8585208D02*
D03*
X304808Y3962400D02*
D03*
X457208D02*
D03*
X177808Y1727200D02*
D03*
X330208D02*
D03*
X177808Y1879600D02*
D03*
X330208D02*
D03*
X6146792Y304800D02*
D03*
X5994392D02*
D03*
X5168908Y1397000D02*
D03*
X5016508D02*
D03*
X4584692D02*
D03*
X4737092D02*
D03*
X177808Y2032000D02*
D03*
X330208D02*
D03*
D12*
X1409700Y266692D02*
D03*
Y419092D02*
D03*
X1270000Y266692D02*
D03*
Y419092D02*
D03*
X838200Y4724384D02*
D03*
Y4571984D02*
D03*
X1524000Y2184392D02*
D03*
Y2031992D02*
D03*
X6045200Y1015992D02*
D03*
Y863592D02*
D03*
X965200Y4724384D02*
D03*
Y4571984D02*
D03*
D13*
X4648200Y6045200D02*
D03*
Y5816600D02*
D03*
X6045200Y711200D02*
D03*
Y482600D02*
D03*
X5308600Y5816600D02*
D03*
Y6045200D02*
D03*
X5969000Y5816600D02*
D03*
Y6045200D02*
D03*
X5638800Y5816600D02*
D03*
Y6045200D02*
D03*
X4978400Y5816600D02*
D03*
Y6045200D02*
D03*
X3733800Y5816600D02*
D03*
Y6045200D02*
D03*
X4038600Y5816600D02*
D03*
Y6045200D02*
D03*
X4343400Y5816600D02*
D03*
Y6045200D02*
D03*
D14*
X3890400Y2387600D02*
D03*
X5530400D02*
D03*
D15*
X3276600Y838200D02*
D03*
Y965200D02*
D03*
D16*
X3873500Y863600D02*
D03*
X3873502Y410018D02*
D03*
D17*
X4330699Y431800D02*
D03*
X4330700Y1130300D02*
D03*
X5651501Y1143000D02*
D03*
X5651500Y444500D02*
D03*
D18*
X559300Y4779600D02*
D03*
Y5329600D02*
D03*
D19*
Y4902600D02*
D03*
Y5206600D02*
D03*
D20*
Y5104600D02*
D03*
Y5004600D02*
D03*
D21*
X4991101Y573600D02*
D03*
D22*
X5221101Y1153600D02*
D03*
X4991101D02*
D03*
X4761101D02*
D03*
D30*
X7518400Y2413001D02*
D03*
X7772400Y2413001D02*
D03*
X7772400Y2666998D02*
D03*
X7518400Y2667000D02*
D03*
X7264399Y2666998D02*
D03*
X7010400Y2412999D02*
D03*
X7010399Y2666999D02*
D03*
X8026398Y2412999D02*
D03*
X7264399Y2412999D02*
D03*
X2032000Y2413001D02*
D03*
X2286000Y2413001D02*
D03*
X2286000Y2666998D02*
D03*
X2032000Y2667000D02*
D03*
X1777999Y2666998D02*
D03*
X1524000Y2412999D02*
D03*
X1523999Y2666999D02*
D03*
X2539998Y2412999D02*
D03*
X1777999Y2412999D02*
D03*
X2032000Y1117601D02*
D03*
X2286000Y1117601D02*
D03*
X2286000Y1371598D02*
D03*
X2032000Y1371600D02*
D03*
X1777999Y1371598D02*
D03*
X1524000Y1117599D02*
D03*
X1523999Y1371599D02*
D03*
X2539998Y1117599D02*
D03*
X1777999Y1117599D02*
D03*
X2032000Y3759201D02*
D03*
X2286000Y3759201D02*
D03*
X2286000Y4013198D02*
D03*
X2032000Y4013200D02*
D03*
X1777999Y4013198D02*
D03*
X1524000Y3759199D02*
D03*
X1523999Y4013199D02*
D03*
X2539998Y3759199D02*
D03*
X1777999Y3759199D02*
D03*
X7264399Y1117599D02*
D03*
X8026398Y1117599D02*
D03*
X7010399Y1371599D02*
D03*
X7010400Y1117599D02*
D03*
X7264399Y1371598D02*
D03*
X7518400Y1371600D02*
D03*
X7772400Y1371598D02*
D03*
X7772400Y1117601D02*
D03*
X7518400Y1117601D02*
D03*
X7264399Y3759199D02*
D03*
X8026398Y3759199D02*
D03*
X7010399Y4013199D02*
D03*
X7010400Y3759199D02*
D03*
X7264399Y4013198D02*
D03*
X7518400Y4013200D02*
D03*
X7772400Y4013198D02*
D03*
X7772400Y3759201D02*
D03*
X7518400Y3759201D02*
D03*
X8724899Y2768601D02*
D03*
X8724900Y3530600D02*
D03*
X8978899Y2514601D02*
D03*
X8724899Y2514602D02*
D03*
X8978898Y2768601D02*
D03*
X8978900Y3022602D02*
D03*
X8978898Y3276601D02*
D03*
X8724901Y3276602D02*
D03*
X8724901Y3022602D02*
D03*
X617220D02*
D03*
X617220Y3276602D02*
D03*
X871217Y3276601D02*
D03*
X871219Y3022602D02*
D03*
X871217Y2768601D02*
D03*
X617218Y2514602D02*
D03*
X871218Y2514601D02*
D03*
X617219Y3530600D02*
D03*
X617218Y2768601D02*
D03*
D31*
X8026398Y2667001D02*
D03*
X2539998D02*
D03*
Y1371601D02*
D03*
Y4013201D02*
D03*
X8026398Y1371601D02*
D03*
Y4013201D02*
D03*
D32*
X8978901Y3530600D02*
D03*
X871220D02*
D03*
D33*
X4360400Y2387600D02*
D03*
D34*
X5105400D02*
D03*
D35*
X4445000Y4140200D02*
D03*
X5207000D02*
D03*
X4953000D02*
D03*
X4699000D02*
D03*
X4191000D02*
D03*
D36*
X5461000D02*
D03*
D37*
X178800Y4622600D02*
D03*
Y5486600D02*
D03*
X558800Y4622600D02*
D03*
Y5486600D02*
D03*
D38*
X7010400Y4800600D02*
D03*
X7772400D02*
D03*
X7518400D02*
D03*
X7264400D02*
D03*
X6756400D02*
D03*
D39*
X8026400D02*
D03*
D40*
X254000Y4241800D02*
D03*
D41*
X508000D02*
D03*
D42*
X3517900Y4798500D02*
D03*
Y4544500D02*
D03*
Y4290500D02*
D03*
Y4036500D02*
D03*
Y3782500D02*
D03*
Y3528500D02*
D03*
Y3274500D02*
D03*
Y3020500D02*
D03*
Y2766500D02*
D03*
Y2512500D02*
D03*
Y2258500D02*
D03*
Y2004500D02*
D03*
Y1750500D02*
D03*
Y1496500D02*
D03*
Y1242500D02*
D03*
X6057900Y4798500D02*
D03*
Y4544500D02*
D03*
Y4290500D02*
D03*
Y4036500D02*
D03*
Y3782500D02*
D03*
Y3528500D02*
D03*
Y3274500D02*
D03*
Y3020500D02*
D03*
Y2766500D02*
D03*
Y2512500D02*
D03*
Y2258500D02*
D03*
Y2004500D02*
D03*
Y1750500D02*
D03*
Y1496500D02*
D03*
X3263900Y1496499D02*
D03*
Y1750499D02*
D03*
Y2004499D02*
D03*
Y2258499D02*
D03*
Y2512499D02*
D03*
Y2766499D02*
D03*
Y3020499D02*
D03*
Y3274499D02*
D03*
Y3528499D02*
D03*
Y3782499D02*
D03*
Y4036499D02*
D03*
Y4290499D02*
D03*
Y4544499D02*
D03*
Y4798499D02*
D03*
X6311900D02*
D03*
Y4544499D02*
D03*
Y4290499D02*
D03*
Y4036499D02*
D03*
Y3782499D02*
D03*
Y3528499D02*
D03*
Y3274499D02*
D03*
Y3020499D02*
D03*
Y2766499D02*
D03*
Y2512499D02*
D03*
Y2258499D02*
D03*
Y2004499D02*
D03*
Y1750499D02*
D03*
Y1496499D02*
D03*
D43*
X6057900Y1242500D02*
D03*
D44*
X3263900Y1242499D02*
D03*
X6311900D02*
D03*
D45*
X1097440Y6096000D02*
D03*
X1549400D02*
D03*
X980520Y5834380D02*
D03*
X1679020D02*
D03*
X2189640Y6096000D02*
D03*
X2641600D02*
D03*
X2072720Y5834380D02*
D03*
X2771220D02*
D03*
D46*
X178824Y6094977D02*
D03*
X355600Y6168200D02*
D03*
X532377Y6094977D02*
D03*
X605600Y5918200D02*
D03*
X532377Y5741423D02*
D03*
X355600Y5668200D02*
D03*
X178824Y5741423D02*
D03*
X105600Y5918200D02*
D03*
X8903724Y646677D02*
D03*
X9080500Y719900D02*
D03*
X9257277Y646677D02*
D03*
X9330500Y469900D02*
D03*
X9257277Y293123D02*
D03*
X9080500Y219900D02*
D03*
X8903724Y293123D02*
D03*
X8830500Y469900D02*
D03*
X8903724Y6094977D02*
D03*
X9080500Y6168200D02*
D03*
X9257277Y6094977D02*
D03*
X9330500Y5918200D02*
D03*
X9257277Y5741423D02*
D03*
X9080500Y5668200D02*
D03*
X8903724Y5741423D02*
D03*
X8830500Y5918200D02*
D03*
X178824Y646677D02*
D03*
X355600Y719900D02*
D03*
X532377Y646677D02*
D03*
X605600Y469900D02*
D03*
X532377Y293123D02*
D03*
X355600Y219900D02*
D03*
X178824Y293123D02*
D03*
X105600Y469900D02*
D03*
D47*
X355600Y5905500D02*
D03*
X9080500Y469900D02*
D03*
Y5905500D02*
D03*
X355600Y469900D02*
D03*
%TF.MD5,c77a0facb3281b92d0baf643dbf91b1f*%
M02*
