%TF.GenerationSoftware,Altium Limited,Altium Designer,25.4.2 (15)*%
G04 Layer_Color=255*
%FSLAX45Y45*%
%MOMM*%
%TF.SameCoordinates,7A7D98F3-C43F-4678-AB1F-6D30F1D0AD40*%
%TF.FilePolarity,Positive*%
%TF.FileFunction,Pads,Bot*%
%TF.Part,Single*%
G01*
G75*
%TA.AperFunction,SMDPad,CuDef*%
%ADD11R,0.76200X1.01600*%
%ADD12R,1.01600X0.76200*%
%TA.AperFunction,ComponentPad*%
%ADD30C,1.77800*%
%ADD31R,1.77800X1.77800*%
%ADD32R,1.77800X1.77800*%
%ADD33C,1.05000*%
%ADD34C,1.30000*%
%ADD35O,1.90500X2.28600*%
%ADD36R,1.90500X2.28600*%
%ADD37O,2.00000X1.00000*%
%ADD38O,1.65100X2.15900*%
%ADD39R,1.65100X2.15900*%
%ADD40R,1.50000X1.50000*%
%ADD41C,1.50000*%
%ADD42C,2.00000*%
%ADD43R,2.00000X2.00000*%
%ADD44R,2.00000X2.00000*%
%ADD45C,1.65100*%
%ADD46C,0.60000*%
%ADD47C,6.00000*%
%TA.AperFunction,SMDPad,CuDef*%
G04:AMPARAMS|DCode=50|XSize=1.57mm|YSize=0.41mm|CornerRadius=0.05125mm|HoleSize=0mm|Usage=FLASHONLY|Rotation=180.000|XOffset=0mm|YOffset=0mm|HoleType=Round|Shape=RoundedRectangle|*
%AMROUNDEDRECTD50*
21,1,1.57000,0.30750,0,0,180.0*
21,1,1.46750,0.41000,0,0,180.0*
1,1,0.10250,-0.73375,0.15375*
1,1,0.10250,0.73375,0.15375*
1,1,0.10250,0.73375,-0.15375*
1,1,0.10250,-0.73375,-0.15375*
%
%ADD50ROUNDEDRECTD50*%
%ADD51R,1.77800X1.77800*%
%ADD52R,0.40000X0.30000*%
G04:AMPARAMS|DCode=53|XSize=2.06mm|YSize=0.6mm|CornerRadius=0.075mm|HoleSize=0mm|Usage=FLASHONLY|Rotation=180.000|XOffset=0mm|YOffset=0mm|HoleType=Round|Shape=RoundedRectangle|*
%AMROUNDEDRECTD53*
21,1,2.06000,0.45000,0,0,180.0*
21,1,1.91000,0.60000,0,0,180.0*
1,1,0.15000,-0.95500,0.22500*
1,1,0.15000,0.95500,0.22500*
1,1,0.15000,0.95500,-0.22500*
1,1,0.15000,-0.95500,-0.22500*
%
%ADD53ROUNDEDRECTD53*%
%ADD54R,1.40000X1.60000*%
%ADD55R,1.20000X2.20000*%
%ADD56R,1.20000X1.60000*%
%ADD57R,0.70000X1.90000*%
G04:AMPARAMS|DCode=58|XSize=0.9mm|YSize=0.61mm|CornerRadius=0.1525mm|HoleSize=0mm|Usage=FLASHONLY|Rotation=90.000|XOffset=0mm|YOffset=0mm|HoleType=Round|Shape=RoundedRectangle|*
%AMROUNDEDRECTD58*
21,1,0.90000,0.30500,0,0,90.0*
21,1,0.59500,0.61000,0,0,90.0*
1,1,0.30500,0.15250,0.29750*
1,1,0.30500,0.15250,-0.29750*
1,1,0.30500,-0.15250,-0.29750*
1,1,0.30500,-0.15250,0.29750*
%
%ADD58ROUNDEDRECTD58*%
G04:AMPARAMS|DCode=59|XSize=0.9mm|YSize=0.53mm|CornerRadius=0.1325mm|HoleSize=0mm|Usage=FLASHONLY|Rotation=90.000|XOffset=0mm|YOffset=0mm|HoleType=Round|Shape=RoundedRectangle|*
%AMROUNDEDRECTD59*
21,1,0.90000,0.26500,0,0,90.0*
21,1,0.63500,0.53000,0,0,90.0*
1,1,0.26500,0.13250,0.31750*
1,1,0.26500,0.13250,-0.31750*
1,1,0.26500,-0.13250,-0.31750*
1,1,0.26500,-0.13250,0.31750*
%
%ADD59ROUNDEDRECTD59*%
D11*
X4470408Y1676400D02*
D03*
X4622808D02*
D03*
X4419592Y1397000D02*
D03*
X4267192D02*
D03*
X5410208Y3327400D02*
D03*
X5562608D02*
D03*
X1066792Y1905000D02*
D03*
X914392D02*
D03*
X1066792Y1752600D02*
D03*
X914392D02*
D03*
X6883408Y1879600D02*
D03*
X7035808D02*
D03*
X8204208Y4013200D02*
D03*
X8356608D02*
D03*
X8254992Y3225800D02*
D03*
X8102592D02*
D03*
X2344470Y5333999D02*
D03*
X2496870D02*
D03*
X5994392Y5969000D02*
D03*
X5841992D02*
D03*
X1259936Y5326380D02*
D03*
X1412336D02*
D03*
X482592Y1320800D02*
D03*
X634992D02*
D03*
X4825992Y2413000D02*
D03*
X4673592D02*
D03*
X1701808Y4572000D02*
D03*
X1549408D02*
D03*
X1549416Y5054600D02*
D03*
X1701816D02*
D03*
X1259936Y5478780D02*
D03*
X1412336D02*
D03*
X2344498Y5473699D02*
D03*
X2496898D02*
D03*
X4673592Y4597400D02*
D03*
X4825992D02*
D03*
X6400792Y5435600D02*
D03*
X6553192D02*
D03*
X6400792Y5588000D02*
D03*
X6553192D02*
D03*
X6400792Y5816600D02*
D03*
X6553192D02*
D03*
X6400792Y5969000D02*
D03*
X6553192D02*
D03*
D12*
X4914900Y1536708D02*
D03*
Y1384308D02*
D03*
X4762500Y1536708D02*
D03*
Y1384308D02*
D03*
X5067300Y1384292D02*
D03*
Y1536692D02*
D03*
X5219700Y1384292D02*
D03*
Y1536692D02*
D03*
X4610100Y1536708D02*
D03*
Y1384308D02*
D03*
X1346200Y3098808D02*
D03*
Y3251208D02*
D03*
X7137400Y2235192D02*
D03*
Y2082792D02*
D03*
X4622800Y3606808D02*
D03*
Y3759208D02*
D03*
X5537200Y4826008D02*
D03*
Y4978408D02*
D03*
X622300Y1600208D02*
D03*
Y1447808D02*
D03*
X1701800Y4927608D02*
D03*
Y4775208D02*
D03*
X1549400Y4927608D02*
D03*
Y4775208D02*
D03*
X482600Y1447792D02*
D03*
Y1600192D02*
D03*
X8204200Y4394192D02*
D03*
Y4546592D02*
D03*
X5207000Y3759208D02*
D03*
Y3606808D02*
D03*
X4470400D02*
D03*
Y3759208D02*
D03*
D30*
X7518400Y2413001D02*
D03*
X7772400Y2413001D02*
D03*
X7772400Y2666998D02*
D03*
X7518400Y2667000D02*
D03*
X7264399Y2666998D02*
D03*
X7010400Y2412999D02*
D03*
X7010399Y2666999D02*
D03*
X8026398Y2412999D02*
D03*
X7264399Y2412999D02*
D03*
X2032000Y2413001D02*
D03*
X2286000Y2413001D02*
D03*
X2286000Y2666998D02*
D03*
X2032000Y2667000D02*
D03*
X1777999Y2666998D02*
D03*
X1524000Y2412999D02*
D03*
X1523999Y2666999D02*
D03*
X2539998Y2412999D02*
D03*
X1777999Y2412999D02*
D03*
X2032000Y1117601D02*
D03*
X2286000Y1117601D02*
D03*
X2286000Y1371598D02*
D03*
X2032000Y1371600D02*
D03*
X1777999Y1371598D02*
D03*
X1524000Y1117599D02*
D03*
X1523999Y1371599D02*
D03*
X2539998Y1117599D02*
D03*
X1777999Y1117599D02*
D03*
X2032000Y3759201D02*
D03*
X2286000Y3759201D02*
D03*
X2286000Y4013198D02*
D03*
X2032000Y4013200D02*
D03*
X1777999Y4013198D02*
D03*
X1524000Y3759199D02*
D03*
X1523999Y4013199D02*
D03*
X2539998Y3759199D02*
D03*
X1777999Y3759199D02*
D03*
X7264399Y1117599D02*
D03*
X8026398Y1117599D02*
D03*
X7010399Y1371599D02*
D03*
X7010400Y1117599D02*
D03*
X7264399Y1371598D02*
D03*
X7518400Y1371600D02*
D03*
X7772400Y1371598D02*
D03*
X7772400Y1117601D02*
D03*
X7518400Y1117601D02*
D03*
X7264399Y3759199D02*
D03*
X8026398Y3759199D02*
D03*
X7010399Y4013199D02*
D03*
X7010400Y3759199D02*
D03*
X7264399Y4013198D02*
D03*
X7518400Y4013200D02*
D03*
X7772400Y4013198D02*
D03*
X7772400Y3759201D02*
D03*
X7518400Y3759201D02*
D03*
X8724899Y2768601D02*
D03*
X8724900Y3530600D02*
D03*
X8978899Y2514601D02*
D03*
X8724899Y2514602D02*
D03*
X8978898Y2768601D02*
D03*
X8978900Y3022602D02*
D03*
X8978898Y3276601D02*
D03*
X8724901Y3276602D02*
D03*
X8724901Y3022602D02*
D03*
X617220D02*
D03*
X617220Y3276602D02*
D03*
X871217Y3276601D02*
D03*
X871219Y3022602D02*
D03*
X871217Y2768601D02*
D03*
X617218Y2514602D02*
D03*
X871218Y2514601D02*
D03*
X617219Y3530600D02*
D03*
X617218Y2768601D02*
D03*
D31*
X8026398Y2667001D02*
D03*
X2539998D02*
D03*
Y1371601D02*
D03*
Y4013201D02*
D03*
X8026398Y1371601D02*
D03*
Y4013201D02*
D03*
D32*
X8978901Y3530600D02*
D03*
X871220D02*
D03*
D33*
X4360400Y2387600D02*
D03*
D34*
X5105400D02*
D03*
D35*
X4445000Y4140200D02*
D03*
X5207000D02*
D03*
X4953000D02*
D03*
X4699000D02*
D03*
X4191000D02*
D03*
D36*
X5461000D02*
D03*
D37*
X178800Y4622600D02*
D03*
Y5486600D02*
D03*
X558800Y4622600D02*
D03*
Y5486600D02*
D03*
D38*
X7010400Y4800600D02*
D03*
X7772400D02*
D03*
X7518400D02*
D03*
X7264400D02*
D03*
X6756400D02*
D03*
D39*
X8026400D02*
D03*
D40*
X254000Y4241800D02*
D03*
D41*
X508000D02*
D03*
D42*
X3517900Y4798500D02*
D03*
Y4544500D02*
D03*
Y4290500D02*
D03*
Y4036500D02*
D03*
Y3782500D02*
D03*
Y3528500D02*
D03*
Y3274500D02*
D03*
Y3020500D02*
D03*
Y2766500D02*
D03*
Y2512500D02*
D03*
Y2258500D02*
D03*
Y2004500D02*
D03*
Y1750500D02*
D03*
Y1496500D02*
D03*
Y1242500D02*
D03*
X6057900Y4798500D02*
D03*
Y4544500D02*
D03*
Y4290500D02*
D03*
Y4036500D02*
D03*
Y3782500D02*
D03*
Y3528500D02*
D03*
Y3274500D02*
D03*
Y3020500D02*
D03*
Y2766500D02*
D03*
Y2512500D02*
D03*
Y2258500D02*
D03*
Y2004500D02*
D03*
Y1750500D02*
D03*
Y1496500D02*
D03*
X3263900Y1496499D02*
D03*
Y1750499D02*
D03*
Y2004499D02*
D03*
Y2258499D02*
D03*
Y2512499D02*
D03*
Y2766499D02*
D03*
Y3020499D02*
D03*
Y3274499D02*
D03*
Y3528499D02*
D03*
Y3782499D02*
D03*
Y4036499D02*
D03*
Y4290499D02*
D03*
Y4544499D02*
D03*
Y4798499D02*
D03*
X6311900D02*
D03*
Y4544499D02*
D03*
Y4290499D02*
D03*
Y4036499D02*
D03*
Y3782499D02*
D03*
Y3528499D02*
D03*
Y3274499D02*
D03*
Y3020499D02*
D03*
Y2766499D02*
D03*
Y2512499D02*
D03*
Y2258499D02*
D03*
Y2004499D02*
D03*
Y1750499D02*
D03*
Y1496499D02*
D03*
D43*
X6057900Y1242500D02*
D03*
D44*
X3263900Y1242499D02*
D03*
X6311900D02*
D03*
D45*
X1097440Y6096000D02*
D03*
X1549400D02*
D03*
X980520Y5834380D02*
D03*
X1679020D02*
D03*
X2189640Y6096000D02*
D03*
X2641600D02*
D03*
X2072720Y5834380D02*
D03*
X2771220D02*
D03*
D46*
X178824Y6094977D02*
D03*
X355600Y6168200D02*
D03*
X532377Y6094977D02*
D03*
X605600Y5918200D02*
D03*
X532377Y5741423D02*
D03*
X355600Y5668200D02*
D03*
X178824Y5741423D02*
D03*
X105600Y5918200D02*
D03*
X8903724Y646677D02*
D03*
X9080500Y719900D02*
D03*
X9257277Y646677D02*
D03*
X9330500Y469900D02*
D03*
X9257277Y293123D02*
D03*
X9080500Y219900D02*
D03*
X8903724Y293123D02*
D03*
X8830500Y469900D02*
D03*
X8903724Y6094977D02*
D03*
X9080500Y6168200D02*
D03*
X9257277Y6094977D02*
D03*
X9330500Y5918200D02*
D03*
X9257277Y5741423D02*
D03*
X9080500Y5668200D02*
D03*
X8903724Y5741423D02*
D03*
X8830500Y5918200D02*
D03*
X178824Y646677D02*
D03*
X355600Y719900D02*
D03*
X532377Y646677D02*
D03*
X605600Y469900D02*
D03*
X532377Y293123D02*
D03*
X355600Y219900D02*
D03*
X178824Y293123D02*
D03*
X105600Y469900D02*
D03*
D47*
X355600Y5905500D02*
D03*
X9080500Y469900D02*
D03*
Y5905500D02*
D03*
X355600Y469900D02*
D03*
D50*
X5100300Y1208400D02*
D03*
Y1143400D02*
D03*
Y1078400D02*
D03*
Y1013400D02*
D03*
Y948400D02*
D03*
Y883400D02*
D03*
Y818400D02*
D03*
Y753400D02*
D03*
Y688400D02*
D03*
Y623400D02*
D03*
Y558400D02*
D03*
Y493400D02*
D03*
X4526300D02*
D03*
Y558400D02*
D03*
Y623400D02*
D03*
Y688400D02*
D03*
Y753400D02*
D03*
Y818400D02*
D03*
Y883400D02*
D03*
Y948400D02*
D03*
Y1013400D02*
D03*
Y1078400D02*
D03*
Y1143400D02*
D03*
Y1208400D02*
D03*
D51*
X241300Y1083099D02*
D03*
Y1533101D02*
D03*
D52*
X152400Y1858800D02*
D03*
Y1798800D02*
D03*
D53*
X5213801Y3454401D02*
D03*
Y3327401D02*
D03*
Y3200401D02*
D03*
Y3073401D02*
D03*
Y2946401D02*
D03*
Y2819401D02*
D03*
Y2692401D02*
D03*
Y2565401D02*
D03*
X4285801D02*
D03*
Y2692401D02*
D03*
Y2819401D02*
D03*
Y2946401D02*
D03*
Y3073401D02*
D03*
Y3200401D02*
D03*
Y3327401D02*
D03*
Y3454401D02*
D03*
X5257800Y4800600D02*
D03*
Y4927600D02*
D03*
Y5054600D02*
D03*
Y5181600D02*
D03*
Y5308600D02*
D03*
Y5435600D02*
D03*
Y5562600D02*
D03*
Y5689600D02*
D03*
X4329800D02*
D03*
Y5562600D02*
D03*
Y5435600D02*
D03*
Y5308600D02*
D03*
Y5181600D02*
D03*
Y5054600D02*
D03*
Y4927600D02*
D03*
Y4800600D02*
D03*
D54*
X8152600Y5191290D02*
D03*
D55*
X8242592Y6151308D02*
D03*
X6692608D02*
D03*
D56*
Y5201298D02*
D03*
D57*
X6812597Y5126291D02*
D03*
X6922605D02*
D03*
X7032612D02*
D03*
X7142594D02*
D03*
X7252602D02*
D03*
X7362609D02*
D03*
X7472617D02*
D03*
X7582599D02*
D03*
X7692606D02*
D03*
D58*
X5559600Y5829700D02*
D03*
X5311600D02*
D03*
Y6006700D02*
D03*
X5559600D02*
D03*
X4067000D02*
D03*
X4315000D02*
D03*
Y5829700D02*
D03*
X4067000D02*
D03*
D59*
X5475600D02*
D03*
X5395600D02*
D03*
Y6006700D02*
D03*
X5475600D02*
D03*
X4151000D02*
D03*
X4231000D02*
D03*
Y5829700D02*
D03*
X4151000D02*
D03*
%TF.MD5,014cb89fd49a4a8241e67508ea2ba2ea*%
M02*
