%TF.GenerationSoftware,Altium Limited,Altium Designer,25.4.2 (15)*%
G04 Layer_Color=16711935*
%FSLAX45Y45*%
%MOMM*%
%TF.SameCoordinates,E6CAE831-27AB-4F04-BD5C-EB1891CE41FD*%
%TF.FilePolarity,Negative*%
%TF.FileFunction,Soldermask,Bot*%
%TF.Part,Single*%
G01*
G75*
%TA.AperFunction,SMDPad,CuDef*%
%ADD82R,0.96520X1.21920*%
%ADD85R,1.21920X0.96520*%
%TA.AperFunction,ComponentPad*%
%ADD96R,1.70320X1.70320*%
%ADD97C,1.70320*%
%ADD98C,1.50320*%
%ADD99C,1.25320*%
%ADD100C,1.98120*%
%ADD101R,1.98120X1.98120*%
%ADD102O,2.30320X1.25320*%
%ADD103O,1.80320X1.00320*%
%ADD104C,0.85320*%
%ADD105C,0.80320*%
%ADD106C,6.20320*%
%ADD107R,1.98120X1.98120*%
%ADD108O,2.10820X2.48920*%
%ADD109R,2.10820X2.48920*%
%ADD110O,1.85420X2.36220*%
%ADD111R,1.85420X2.36220*%
%ADD112C,2.20320*%
%ADD113R,2.20320X2.20320*%
%ADD114R,2.20320X2.20320*%
%ADD115C,1.85420*%
%TA.AperFunction,ViaPad*%
%ADD116C,0.81280*%
%ADD117C,1.21920*%
%TA.AperFunction,SMDPad,CuDef*%
%ADD118R,0.90320X2.10320*%
%ADD119R,1.40320X1.80320*%
%ADD120R,1.40320X2.40320*%
%ADD121R,1.60320X1.80320*%
G04:AMPARAMS|DCode=122|XSize=1.774mm|YSize=0.614mm|CornerRadius=0.15325mm|HoleSize=0mm|Usage=FLASHONLY|Rotation=180.000|XOffset=0mm|YOffset=0mm|HoleType=Round|Shape=RoundedRectangle|*
%AMROUNDEDRECTD122*
21,1,1.77400,0.30750,0,0,180.0*
21,1,1.46750,0.61400,0,0,180.0*
1,1,0.30650,-0.73375,0.15375*
1,1,0.30650,0.73375,0.15375*
1,1,0.30650,0.73375,-0.15375*
1,1,0.30650,-0.73375,-0.15375*
%
%ADD122ROUNDEDRECTD122*%
G04:AMPARAMS|DCode=123|XSize=2.2632mm|YSize=0.8032mm|CornerRadius=0.1766mm|HoleSize=0mm|Usage=FLASHONLY|Rotation=180.000|XOffset=0mm|YOffset=0mm|HoleType=Round|Shape=RoundedRectangle|*
%AMROUNDEDRECTD123*
21,1,2.26320,0.45000,0,0,180.0*
21,1,1.91000,0.80320,0,0,180.0*
1,1,0.35320,-0.95500,0.22500*
1,1,0.35320,0.95500,0.22500*
1,1,0.35320,0.95500,-0.22500*
1,1,0.35320,-0.95500,-0.22500*
%
%ADD123ROUNDEDRECTD123*%
G04:AMPARAMS|DCode=124|XSize=1.1032mm|YSize=0.8132mm|CornerRadius=0.2541mm|HoleSize=0mm|Usage=FLASHONLY|Rotation=90.000|XOffset=0mm|YOffset=0mm|HoleType=Round|Shape=RoundedRectangle|*
%AMROUNDEDRECTD124*
21,1,1.10320,0.30500,0,0,90.0*
21,1,0.59500,0.81320,0,0,90.0*
1,1,0.50820,0.15250,0.29750*
1,1,0.50820,0.15250,-0.29750*
1,1,0.50820,-0.15250,-0.29750*
1,1,0.50820,-0.15250,0.29750*
%
%ADD124ROUNDEDRECTD124*%
G04:AMPARAMS|DCode=125|XSize=1.1032mm|YSize=0.7332mm|CornerRadius=0.2341mm|HoleSize=0mm|Usage=FLASHONLY|Rotation=90.000|XOffset=0mm|YOffset=0mm|HoleType=Round|Shape=RoundedRectangle|*
%AMROUNDEDRECTD125*
21,1,1.10320,0.26500,0,0,90.0*
21,1,0.63500,0.73320,0,0,90.0*
1,1,0.46820,0.13250,0.31750*
1,1,0.46820,0.13250,-0.31750*
1,1,0.46820,-0.13250,-0.31750*
1,1,0.46820,-0.13250,0.31750*
%
%ADD125ROUNDEDRECTD125*%
D82*
X965192Y1193800D02*
D03*
X1117592D02*
D03*
X4470408Y1676400D02*
D03*
X4622808D02*
D03*
X4419592Y1397000D02*
D03*
X4267192D02*
D03*
X5410208Y3327400D02*
D03*
X5562608D02*
D03*
X2344470Y5333999D02*
D03*
X2496870D02*
D03*
X5994392Y5969000D02*
D03*
X5841992D02*
D03*
X1259936Y5326380D02*
D03*
X1412336D02*
D03*
X1993900Y4521200D02*
D03*
X1841500D02*
D03*
X1993900Y4673600D02*
D03*
X1841500D02*
D03*
X4825992Y2413000D02*
D03*
X4673592D02*
D03*
X1727208Y4521200D02*
D03*
X1574808D02*
D03*
X1259936Y5478780D02*
D03*
X1412336D02*
D03*
X2344498Y5473699D02*
D03*
X2496898D02*
D03*
X4673592Y4597400D02*
D03*
X4825992D02*
D03*
X6400792Y5435600D02*
D03*
X6553192D02*
D03*
X6400792Y5588000D02*
D03*
X6553192D02*
D03*
X6400792Y5816600D02*
D03*
X6553192D02*
D03*
X6400792Y5969000D02*
D03*
X6553192D02*
D03*
D85*
X1295400Y3352808D02*
D03*
Y3200408D02*
D03*
X4914900Y1536708D02*
D03*
Y1384308D02*
D03*
X4762500Y1536708D02*
D03*
Y1384308D02*
D03*
X5067300Y1384292D02*
D03*
Y1536692D02*
D03*
X5219700Y1384292D02*
D03*
Y1536692D02*
D03*
X4610100Y1536708D02*
D03*
Y1384308D02*
D03*
X4622800Y3606808D02*
D03*
Y3759208D02*
D03*
X5537200Y4826008D02*
D03*
Y4978408D02*
D03*
X2120892Y4673584D02*
D03*
Y4521184D02*
D03*
X5207000Y3759208D02*
D03*
Y3606808D02*
D03*
X4470400D02*
D03*
Y3759208D02*
D03*
D96*
X457200Y4292600D02*
D03*
D97*
X203200D02*
D03*
D98*
X5105400Y2387600D02*
D03*
D99*
X4360400D02*
D03*
D100*
X1777999Y1117599D02*
D03*
X2539998Y1117599D02*
D03*
X1523999Y1371599D02*
D03*
X1524000Y1117599D02*
D03*
X1777999Y1371598D02*
D03*
X2032000Y1371600D02*
D03*
X2286000Y1371598D02*
D03*
X2286000Y1117601D02*
D03*
X2032000Y1117601D02*
D03*
X1777999Y2412999D02*
D03*
X2539998Y2412999D02*
D03*
X1523999Y2666999D02*
D03*
X1524000Y2412999D02*
D03*
X1777999Y2666998D02*
D03*
X2032000Y2667000D02*
D03*
X2286000Y2666998D02*
D03*
X2286000Y2413001D02*
D03*
X2032000Y2413001D02*
D03*
X7264399Y2412999D02*
D03*
X8026398Y2412999D02*
D03*
X7010399Y2666999D02*
D03*
X7010400Y2412999D02*
D03*
X7264399Y2666998D02*
D03*
X7518400Y2667000D02*
D03*
X7772400Y2666998D02*
D03*
X7772400Y2413001D02*
D03*
X7518400Y2413001D02*
D03*
Y1117601D02*
D03*
X7772400Y1117601D02*
D03*
X7772400Y1371598D02*
D03*
X7518400Y1371600D02*
D03*
X7264399Y1371598D02*
D03*
X7010400Y1117599D02*
D03*
X7010399Y1371599D02*
D03*
X8026398Y1117599D02*
D03*
X7264399Y1117599D02*
D03*
X2032000Y3759201D02*
D03*
X2286000Y3759201D02*
D03*
X2286000Y4013198D02*
D03*
X2032000Y4013200D02*
D03*
X1777999Y4013198D02*
D03*
X1524000Y3759199D02*
D03*
X1523999Y4013199D02*
D03*
X2539998Y3759199D02*
D03*
X1777999Y3759199D02*
D03*
X7264399D02*
D03*
X8026398Y3759199D02*
D03*
X7010399Y4013199D02*
D03*
X7010400Y3759199D02*
D03*
X7264399Y4013198D02*
D03*
X7518400Y4013200D02*
D03*
X7772400Y4013198D02*
D03*
X7772400Y3759201D02*
D03*
X7518400Y3759201D02*
D03*
X8724899Y2768601D02*
D03*
X8724900Y3530600D02*
D03*
X8978899Y2514601D02*
D03*
X8724899Y2514602D02*
D03*
X8978898Y2768601D02*
D03*
X8978900Y3022602D02*
D03*
X8978898Y3276601D02*
D03*
X8724901Y3276602D02*
D03*
X8724901Y3022602D02*
D03*
X617220D02*
D03*
X617220Y3276602D02*
D03*
X871217Y3276601D02*
D03*
X871219Y3022602D02*
D03*
X871217Y2768601D02*
D03*
X617218Y2514602D02*
D03*
X871218Y2514601D02*
D03*
X617219Y3530600D02*
D03*
X617218Y2768601D02*
D03*
D101*
X2539998Y1371601D02*
D03*
Y2667001D02*
D03*
X8026398D02*
D03*
Y1371601D02*
D03*
X2539998Y4013201D02*
D03*
X8026398D02*
D03*
D102*
X558300Y4597200D02*
D03*
Y5461200D02*
D03*
D103*
X140300Y4597200D02*
D03*
Y5461200D02*
D03*
D104*
X508300Y4740200D02*
D03*
Y5318200D02*
D03*
D105*
X105600Y469900D02*
D03*
X178824Y293123D02*
D03*
X355600Y219900D02*
D03*
X532377Y293123D02*
D03*
X605600Y469900D02*
D03*
X532377Y646677D02*
D03*
X355600Y719900D02*
D03*
X178824Y646677D02*
D03*
Y6094977D02*
D03*
X355600Y6168200D02*
D03*
X532377Y6094977D02*
D03*
X605600Y5918200D02*
D03*
X532377Y5741423D02*
D03*
X355600Y5668200D02*
D03*
X178824Y5741423D02*
D03*
X105600Y5918200D02*
D03*
X8903724Y646677D02*
D03*
X9080500Y719900D02*
D03*
X9257277Y646677D02*
D03*
X9330500Y469900D02*
D03*
X9257277Y293123D02*
D03*
X9080500Y219900D02*
D03*
X8903724Y293123D02*
D03*
X8830500Y469900D02*
D03*
X8903724Y6094977D02*
D03*
X9080500Y6168200D02*
D03*
X9257277Y6094977D02*
D03*
X9330500Y5918200D02*
D03*
X9257277Y5741423D02*
D03*
X9080500Y5668200D02*
D03*
X8903724Y5741423D02*
D03*
X8830500Y5918200D02*
D03*
D106*
X355600Y469900D02*
D03*
Y5905500D02*
D03*
X9080500Y469900D02*
D03*
Y5905500D02*
D03*
D107*
X8978901Y3530600D02*
D03*
X871220D02*
D03*
D108*
X4445000Y4140200D02*
D03*
X5207000D02*
D03*
X4953000D02*
D03*
X4699000D02*
D03*
X4191000D02*
D03*
D109*
X5461000D02*
D03*
D110*
X7010400Y4800600D02*
D03*
X7772400D02*
D03*
X7518400D02*
D03*
X7264400D02*
D03*
X6756400D02*
D03*
D111*
X8026400D02*
D03*
D112*
X3517900Y4798500D02*
D03*
Y4544500D02*
D03*
Y4290500D02*
D03*
Y4036500D02*
D03*
Y3782500D02*
D03*
Y3528500D02*
D03*
Y3274500D02*
D03*
Y3020500D02*
D03*
Y2766500D02*
D03*
Y2512500D02*
D03*
Y2258500D02*
D03*
Y2004500D02*
D03*
Y1750500D02*
D03*
Y1496500D02*
D03*
Y1242500D02*
D03*
X6057900Y4798500D02*
D03*
Y4544500D02*
D03*
Y4290500D02*
D03*
Y4036500D02*
D03*
Y3782500D02*
D03*
Y3528500D02*
D03*
Y3274500D02*
D03*
Y3020500D02*
D03*
Y2766500D02*
D03*
Y2512500D02*
D03*
Y2258500D02*
D03*
Y2004500D02*
D03*
Y1750500D02*
D03*
Y1496500D02*
D03*
X3263900Y1496499D02*
D03*
Y1750499D02*
D03*
Y2004499D02*
D03*
Y2258499D02*
D03*
Y2512499D02*
D03*
Y2766499D02*
D03*
Y3020499D02*
D03*
Y3274499D02*
D03*
Y3528499D02*
D03*
Y3782499D02*
D03*
Y4036499D02*
D03*
Y4290499D02*
D03*
Y4544499D02*
D03*
Y4798499D02*
D03*
X6311900D02*
D03*
Y4544499D02*
D03*
Y4290499D02*
D03*
Y4036499D02*
D03*
Y3782499D02*
D03*
Y3528499D02*
D03*
Y3274499D02*
D03*
Y3020499D02*
D03*
Y2766499D02*
D03*
Y2512499D02*
D03*
Y2258499D02*
D03*
Y2004499D02*
D03*
Y1750499D02*
D03*
Y1496499D02*
D03*
D113*
X6057900Y1242500D02*
D03*
D114*
X3263900Y1242499D02*
D03*
X6311900D02*
D03*
D115*
X1097440Y6096000D02*
D03*
X1549400D02*
D03*
X980520Y5834380D02*
D03*
X1679020D02*
D03*
X2189640Y6096000D02*
D03*
X2641600D02*
D03*
X2072720Y5834380D02*
D03*
X2771220D02*
D03*
D116*
X8280400Y4572000D02*
D03*
X330200Y1968500D02*
D03*
X2844800Y4699000D02*
D03*
X736600Y3937000D02*
D03*
X330200Y2311400D02*
D03*
X9271000Y1143000D02*
D03*
X8382000Y457200D02*
D03*
X9042400Y1270000D02*
D03*
X761992Y1117608D02*
D03*
X1422400Y1549400D02*
D03*
X1905000Y5308600D02*
D03*
X5765800Y4521200D02*
D03*
X6832600Y5664200D02*
D03*
X8864600Y3886200D02*
D03*
X8509000Y1270000D02*
D03*
X1472291Y1752600D02*
D03*
X2768600Y2514600D02*
D03*
X2514600Y2921000D02*
D03*
X3945636Y1540764D02*
D03*
X5499100Y6146800D02*
D03*
X5473665Y5930985D02*
D03*
X5626100Y6235700D02*
D03*
X5346700D02*
D03*
X5765800Y5638800D02*
D03*
X5537200Y5486400D02*
D03*
X4267200Y6172200D02*
D03*
X4470400Y6019800D02*
D03*
X5435600Y5689600D02*
D03*
X3835400Y6146800D02*
D03*
X4114800D02*
D03*
X5054600Y5740400D02*
D03*
X3632200Y5613400D02*
D03*
X3937000D02*
D03*
X4546600Y5638800D02*
D03*
X4165600Y5613400D02*
D03*
X4216400Y1651000D02*
D03*
X4140200Y1727200D02*
D03*
X5537200Y1905000D02*
D03*
Y1498600D02*
D03*
X7137400Y5308600D02*
D03*
X5054600Y5054600D02*
D03*
X2667000Y3124200D02*
D03*
X2997200Y3149600D02*
D03*
X2870200Y3124200D02*
D03*
X3886201Y3454401D02*
D03*
X4893310Y4927600D02*
D03*
X6553200Y3911600D02*
D03*
X5702300Y1498600D02*
D03*
X5854700D02*
D03*
X5537200Y1371600D02*
D03*
X5702300D02*
D03*
X5854700D02*
D03*
D117*
X1117600Y1041400D02*
D03*
X2209800Y4876800D02*
D03*
X6400800Y5689600D02*
D03*
X8661400Y1498600D02*
D03*
X8204200Y2108200D02*
D03*
X8534400D02*
D03*
X1143000Y2184400D02*
D03*
X1028700Y165100D02*
D03*
X825500D02*
D03*
X4660900Y292100D02*
D03*
X5384800Y2209800D02*
D03*
X5207000D02*
D03*
X5029200D02*
D03*
X4191000Y2184400D02*
D03*
X4013200D02*
D03*
D118*
X7692606Y5126291D02*
D03*
X7582599D02*
D03*
X7472617D02*
D03*
X7362609D02*
D03*
X7252602D02*
D03*
X7142594D02*
D03*
X7032612D02*
D03*
X6922605D02*
D03*
X6812597D02*
D03*
D119*
X6692608Y5201298D02*
D03*
D120*
Y6151308D02*
D03*
X8242592D02*
D03*
D121*
X8152600Y5191290D02*
D03*
D122*
X5100300Y1208400D02*
D03*
Y1143400D02*
D03*
Y1078400D02*
D03*
Y1013400D02*
D03*
Y948400D02*
D03*
Y883400D02*
D03*
Y818400D02*
D03*
Y753400D02*
D03*
Y688400D02*
D03*
Y623400D02*
D03*
Y558400D02*
D03*
Y493400D02*
D03*
X4526300D02*
D03*
Y558400D02*
D03*
Y623400D02*
D03*
Y688400D02*
D03*
Y753400D02*
D03*
Y818400D02*
D03*
Y883400D02*
D03*
Y948400D02*
D03*
Y1013400D02*
D03*
Y1078400D02*
D03*
Y1143400D02*
D03*
Y1208400D02*
D03*
D123*
X5213801Y3454401D02*
D03*
Y3327401D02*
D03*
Y3200401D02*
D03*
Y3073401D02*
D03*
Y2946401D02*
D03*
Y2819401D02*
D03*
Y2692401D02*
D03*
Y2565401D02*
D03*
X4285801D02*
D03*
Y2692401D02*
D03*
Y2819401D02*
D03*
Y2946401D02*
D03*
Y3073401D02*
D03*
Y3200401D02*
D03*
Y3327401D02*
D03*
Y3454401D02*
D03*
X5257800Y4800600D02*
D03*
Y4927600D02*
D03*
Y5054600D02*
D03*
Y5181600D02*
D03*
Y5308600D02*
D03*
Y5435600D02*
D03*
Y5562600D02*
D03*
Y5689600D02*
D03*
X4329800D02*
D03*
Y5562600D02*
D03*
Y5435600D02*
D03*
Y5308600D02*
D03*
Y5181600D02*
D03*
Y5054600D02*
D03*
Y4927600D02*
D03*
Y4800600D02*
D03*
D124*
X5559600Y5829700D02*
D03*
X5311600D02*
D03*
Y6006700D02*
D03*
X5559600D02*
D03*
X4067000D02*
D03*
X4315000D02*
D03*
Y5829700D02*
D03*
X4067000D02*
D03*
D125*
X5475600D02*
D03*
X5395600D02*
D03*
Y6006700D02*
D03*
X5475600D02*
D03*
X4151000D02*
D03*
X4231000D02*
D03*
Y5829700D02*
D03*
X4151000D02*
D03*
%TF.MD5,8140eababb678f400463911453b1729a*%
M02*
