%TF.GenerationSoftware,Altium Limited,Altium Designer,25.4.2 (15)*%
G04 Layer_Color=255*
%FSLAX45Y45*%
%MOMM*%
%TF.SameCoordinates,E6CAE831-27AB-4F04-BD5C-EB1891CE41FD*%
%TF.FilePolarity,Positive*%
%TF.FileFunction,Pads,Top*%
%TF.Part,Single*%
G01*
G75*
%TA.AperFunction,SMDPad,CuDef*%
%ADD16R,3.30000X2.40000*%
%ADD17R,1.00000X2.40000*%
%ADD18R,0.76200X1.01600*%
%ADD19R,0.40000X0.30000*%
%ADD20R,4.50000X2.30000*%
%ADD21R,1.01600X0.76200*%
%TA.AperFunction,ConnectorPad*%
%ADD22R,1.30000X0.60000*%
%ADD23R,1.30000X0.30000*%
%TA.AperFunction,SMDPad,CuDef*%
%ADD24R,1.77800X1.77800*%
%ADD25R,1.00000X1.39700*%
%ADD26C,1.27000*%
%ADD27R,2.16000X2.40000*%
%ADD28R,3.30000X1.50000*%
G04:AMPARAMS|DCode=29|XSize=2.5mm|YSize=4.3mm|CornerRadius=0.625mm|HoleSize=0mm|Usage=FLASHONLY|Rotation=90.000|XOffset=0mm|YOffset=0mm|HoleType=Round|Shape=RoundedRectangle|*
%AMROUNDEDRECTD29*
21,1,2.50000,3.05000,0,0,90.0*
21,1,1.25000,4.30000,0,0,90.0*
1,1,1.25000,1.52500,0.62500*
1,1,1.25000,1.52500,-0.62500*
1,1,1.25000,-1.52500,-0.62500*
1,1,1.25000,-1.52500,0.62500*
%
%ADD29ROUNDEDRECTD29*%
%ADD30R,1.39700X1.27000*%
%ADD31R,1.52400X1.01600*%
%TA.AperFunction,ComponentPad*%
%ADD35R,1.50000X1.50000*%
%ADD36C,1.50000*%
%ADD37C,1.30000*%
%ADD38C,1.05000*%
%ADD39C,1.77800*%
%ADD40R,1.77800X1.77800*%
%ADD41O,2.10000X1.05000*%
%ADD42O,1.60000X0.80000*%
%ADD43C,0.65000*%
%ADD44C,0.60000*%
%ADD45C,6.00000*%
%ADD46R,1.77800X1.77800*%
%ADD47O,1.90500X2.28600*%
%ADD48R,1.90500X2.28600*%
%ADD49O,1.65100X2.15900*%
%ADD50R,1.65100X2.15900*%
%ADD51C,2.00000*%
%ADD52R,2.00000X2.00000*%
%ADD53R,2.00000X2.00000*%
%ADD54C,1.65100*%
D16*
X5003800Y534440D02*
D03*
D17*
X5233800Y1114440D02*
D03*
X5003800D02*
D03*
X4773800D02*
D03*
D18*
X457192Y4064000D02*
D03*
X304792D02*
D03*
X342908Y2755900D02*
D03*
X190508D02*
D03*
X1295392Y4902200D02*
D03*
X1447792D02*
D03*
X9118600Y1473200D02*
D03*
X9271000D02*
D03*
X9118601Y1320799D02*
D03*
X9271001D02*
D03*
X6222992Y304800D02*
D03*
X6375392D02*
D03*
X4751238Y1371600D02*
D03*
X4598838D02*
D03*
X5016508D02*
D03*
X5168908D02*
D03*
D19*
X330200Y1722600D02*
D03*
Y1782600D02*
D03*
D20*
X5530400Y2387600D02*
D03*
X3890400D02*
D03*
D21*
X685800Y1117608D02*
D03*
Y1270008D02*
D03*
Y1549408D02*
D03*
Y1397008D02*
D03*
X1422400Y203192D02*
D03*
Y355592D02*
D03*
X838200Y1396992D02*
D03*
Y1549392D02*
D03*
X1193800Y203192D02*
D03*
Y355592D02*
D03*
X8280400Y4800592D02*
D03*
Y4648192D02*
D03*
X6045200Y914392D02*
D03*
Y761992D02*
D03*
D22*
X622300Y4789200D02*
D03*
Y5269200D02*
D03*
Y4709200D02*
D03*
Y5349200D02*
D03*
D23*
Y4854200D02*
D03*
Y4904200D02*
D03*
Y4954200D02*
D03*
Y5004200D02*
D03*
Y5204200D02*
D03*
Y5154200D02*
D03*
Y5104200D02*
D03*
Y5054200D02*
D03*
D24*
X431800Y1520401D02*
D03*
Y1070399D02*
D03*
D25*
X934716Y4699000D02*
D03*
X1163316D02*
D03*
X933445Y4889500D02*
D03*
X1162045D02*
D03*
D26*
X1473200Y558800D02*
D03*
X8890000Y1346200D02*
D03*
X7899400Y330200D02*
D03*
X7137400D02*
D03*
X8382000D02*
D03*
D27*
X1468640Y5214620D02*
D03*
X1000760Y5209540D02*
D03*
D28*
X3860802Y359218D02*
D03*
X3860800Y812800D02*
D03*
D29*
X5664200Y368300D02*
D03*
X5664201Y1066800D02*
D03*
X4343400Y1066800D02*
D03*
X4343399Y368300D02*
D03*
D30*
X6045200Y533400D02*
D03*
Y304800D02*
D03*
X4648200Y6045200D02*
D03*
Y5816600D02*
D03*
X5308600D02*
D03*
Y6045200D02*
D03*
X5969000Y5816600D02*
D03*
Y6045200D02*
D03*
X5638800Y5816600D02*
D03*
Y6045200D02*
D03*
X4978400Y5816600D02*
D03*
Y6045200D02*
D03*
X3733800Y5816600D02*
D03*
Y6045200D02*
D03*
X4038600Y5816600D02*
D03*
Y6045200D02*
D03*
X4343400Y5816600D02*
D03*
Y6045200D02*
D03*
D31*
X3276600Y838200D02*
D03*
Y965200D02*
D03*
D35*
X457200Y4292600D02*
D03*
D36*
X203200D02*
D03*
D37*
X5105400Y2387600D02*
D03*
D38*
X4360400D02*
D03*
D39*
X1777999Y1117599D02*
D03*
X2539998Y1117599D02*
D03*
X1523999Y1371599D02*
D03*
X1524000Y1117599D02*
D03*
X1777999Y1371598D02*
D03*
X2032000Y1371600D02*
D03*
X2286000Y1371598D02*
D03*
X2286000Y1117601D02*
D03*
X2032000Y1117601D02*
D03*
X1777999Y2412999D02*
D03*
X2539998Y2412999D02*
D03*
X1523999Y2666999D02*
D03*
X1524000Y2412999D02*
D03*
X1777999Y2666998D02*
D03*
X2032000Y2667000D02*
D03*
X2286000Y2666998D02*
D03*
X2286000Y2413001D02*
D03*
X2032000Y2413001D02*
D03*
X7264399Y2412999D02*
D03*
X8026398Y2412999D02*
D03*
X7010399Y2666999D02*
D03*
X7010400Y2412999D02*
D03*
X7264399Y2666998D02*
D03*
X7518400Y2667000D02*
D03*
X7772400Y2666998D02*
D03*
X7772400Y2413001D02*
D03*
X7518400Y2413001D02*
D03*
Y1117601D02*
D03*
X7772400Y1117601D02*
D03*
X7772400Y1371598D02*
D03*
X7518400Y1371600D02*
D03*
X7264399Y1371598D02*
D03*
X7010400Y1117599D02*
D03*
X7010399Y1371599D02*
D03*
X8026398Y1117599D02*
D03*
X7264399Y1117599D02*
D03*
X2032000Y3759201D02*
D03*
X2286000Y3759201D02*
D03*
X2286000Y4013198D02*
D03*
X2032000Y4013200D02*
D03*
X1777999Y4013198D02*
D03*
X1524000Y3759199D02*
D03*
X1523999Y4013199D02*
D03*
X2539998Y3759199D02*
D03*
X1777999Y3759199D02*
D03*
X7264399D02*
D03*
X8026398Y3759199D02*
D03*
X7010399Y4013199D02*
D03*
X7010400Y3759199D02*
D03*
X7264399Y4013198D02*
D03*
X7518400Y4013200D02*
D03*
X7772400Y4013198D02*
D03*
X7772400Y3759201D02*
D03*
X7518400Y3759201D02*
D03*
X8724899Y2768601D02*
D03*
X8724900Y3530600D02*
D03*
X8978899Y2514601D02*
D03*
X8724899Y2514602D02*
D03*
X8978898Y2768601D02*
D03*
X8978900Y3022602D02*
D03*
X8978898Y3276601D02*
D03*
X8724901Y3276602D02*
D03*
X8724901Y3022602D02*
D03*
X617220D02*
D03*
X617220Y3276602D02*
D03*
X871217Y3276601D02*
D03*
X871219Y3022602D02*
D03*
X871217Y2768601D02*
D03*
X617218Y2514602D02*
D03*
X871218Y2514601D02*
D03*
X617219Y3530600D02*
D03*
X617218Y2768601D02*
D03*
D40*
X2539998Y1371601D02*
D03*
Y2667001D02*
D03*
X8026398D02*
D03*
Y1371601D02*
D03*
X2539998Y4013201D02*
D03*
X8026398D02*
D03*
D41*
X558300Y4597200D02*
D03*
Y5461200D02*
D03*
D42*
X140300Y4597200D02*
D03*
Y5461200D02*
D03*
D43*
X508300Y4740200D02*
D03*
Y5318200D02*
D03*
D44*
X105600Y469900D02*
D03*
X178824Y293123D02*
D03*
X355600Y219900D02*
D03*
X532377Y293123D02*
D03*
X605600Y469900D02*
D03*
X532377Y646677D02*
D03*
X355600Y719900D02*
D03*
X178824Y646677D02*
D03*
Y6094977D02*
D03*
X355600Y6168200D02*
D03*
X532377Y6094977D02*
D03*
X605600Y5918200D02*
D03*
X532377Y5741423D02*
D03*
X355600Y5668200D02*
D03*
X178824Y5741423D02*
D03*
X105600Y5918200D02*
D03*
X8903724Y646677D02*
D03*
X9080500Y719900D02*
D03*
X9257277Y646677D02*
D03*
X9330500Y469900D02*
D03*
X9257277Y293123D02*
D03*
X9080500Y219900D02*
D03*
X8903724Y293123D02*
D03*
X8830500Y469900D02*
D03*
X8903724Y6094977D02*
D03*
X9080500Y6168200D02*
D03*
X9257277Y6094977D02*
D03*
X9330500Y5918200D02*
D03*
X9257277Y5741423D02*
D03*
X9080500Y5668200D02*
D03*
X8903724Y5741423D02*
D03*
X8830500Y5918200D02*
D03*
D45*
X355600Y469900D02*
D03*
Y5905500D02*
D03*
X9080500Y469900D02*
D03*
Y5905500D02*
D03*
D46*
X8978901Y3530600D02*
D03*
X871220D02*
D03*
D47*
X4445000Y4140200D02*
D03*
X5207000D02*
D03*
X4953000D02*
D03*
X4699000D02*
D03*
X4191000D02*
D03*
D48*
X5461000D02*
D03*
D49*
X7010400Y4800600D02*
D03*
X7772400D02*
D03*
X7518400D02*
D03*
X7264400D02*
D03*
X6756400D02*
D03*
D50*
X8026400D02*
D03*
D51*
X3517900Y4798500D02*
D03*
Y4544500D02*
D03*
Y4290500D02*
D03*
Y4036500D02*
D03*
Y3782500D02*
D03*
Y3528500D02*
D03*
Y3274500D02*
D03*
Y3020500D02*
D03*
Y2766500D02*
D03*
Y2512500D02*
D03*
Y2258500D02*
D03*
Y2004500D02*
D03*
Y1750500D02*
D03*
Y1496500D02*
D03*
Y1242500D02*
D03*
X6057900Y4798500D02*
D03*
Y4544500D02*
D03*
Y4290500D02*
D03*
Y4036500D02*
D03*
Y3782500D02*
D03*
Y3528500D02*
D03*
Y3274500D02*
D03*
Y3020500D02*
D03*
Y2766500D02*
D03*
Y2512500D02*
D03*
Y2258500D02*
D03*
Y2004500D02*
D03*
Y1750500D02*
D03*
Y1496500D02*
D03*
X3263900Y1496499D02*
D03*
Y1750499D02*
D03*
Y2004499D02*
D03*
Y2258499D02*
D03*
Y2512499D02*
D03*
Y2766499D02*
D03*
Y3020499D02*
D03*
Y3274499D02*
D03*
Y3528499D02*
D03*
Y3782499D02*
D03*
Y4036499D02*
D03*
Y4290499D02*
D03*
Y4544499D02*
D03*
Y4798499D02*
D03*
X6311900D02*
D03*
Y4544499D02*
D03*
Y4290499D02*
D03*
Y4036499D02*
D03*
Y3782499D02*
D03*
Y3528499D02*
D03*
Y3274499D02*
D03*
Y3020499D02*
D03*
Y2766499D02*
D03*
Y2512499D02*
D03*
Y2258499D02*
D03*
Y2004499D02*
D03*
Y1750499D02*
D03*
Y1496499D02*
D03*
D52*
X6057900Y1242500D02*
D03*
D53*
X3263900Y1242499D02*
D03*
X6311900D02*
D03*
D54*
X1097440Y6096000D02*
D03*
X1549400D02*
D03*
X980520Y5834380D02*
D03*
X1679020D02*
D03*
X2189640Y6096000D02*
D03*
X2641600D02*
D03*
X2072720Y5834380D02*
D03*
X2771220D02*
D03*
%TF.MD5,002f3929fa66b5fba088cbb42abe7b38*%
M02*
