%TF.GenerationSoftware,Altium Limited,Altium Designer,25.4.2 (15)*%
G04 Layer_Color=0*
%FSLAX45Y45*%
%MOMM*%
%TF.SameCoordinates,E6CAE831-27AB-4F04-BD5C-EB1891CE41FD*%
%TF.FilePolarity,Positive*%
%TF.FileFunction,Profile,NP*%
%TF.Part,Single*%
G01*
G75*
%TA.AperFunction,Profile*%
%ADD127C,0.02540*%
G36*
X7022617Y6191288D02*
Y6201234D01*
X7015005Y6219611D01*
X7000940Y6233676D01*
X6982563Y6241288D01*
X6962672D01*
X6944295Y6233676D01*
X6930229Y6219611D01*
X6922618Y6201234D01*
Y6191288D01*
Y6181343D01*
X6930229Y6162966D01*
X6944295Y6148900D01*
X6962672Y6141288D01*
X6982563D01*
X7000940Y6148900D01*
X7015005Y6162966D01*
X7022617Y6181343D01*
Y6191288D01*
D01*
D01*
D02*
G37*
G36*
X7822616Y6191542D02*
Y6201488D01*
X7815004Y6219865D01*
X7800938Y6233930D01*
X7782561Y6241542D01*
X7762670D01*
X7744293Y6233930D01*
X7730228Y6219865D01*
X7722616Y6201488D01*
Y6191542D01*
Y6181597D01*
X7730228Y6163220D01*
X7744293Y6149154D01*
X7762670Y6141542D01*
X7782561D01*
X7800938Y6149154D01*
X7815004Y6163220D01*
X7822616Y6181597D01*
Y6191542D01*
D01*
D01*
D02*
G37*
D127*
X1Y0D02*
X0Y6375400D01*
X9436099D01*
X9436101Y0D01*
X1D01*
%TF.MD5,7172b592330ab343fc3b585f42384777*%
M02*
