%TF.GenerationSoftware,Altium Limited,Altium Designer,25.4.2 (15)*%
G04 Layer_Color=8421504*
%FSLAX45Y45*%
%MOMM*%
%TF.SameCoordinates,7A7D98F3-C43F-4678-AB1F-6D30F1D0AD40*%
%TF.FilePolarity,Positive*%
%TF.FileFunction,Paste,Top*%
%TF.Part,Single*%
G01*
G75*
%TA.AperFunction,SMDPad,CuDef*%
%ADD10C,1.27000*%
%ADD11R,0.76200X1.01600*%
%ADD12R,1.01600X0.76200*%
%ADD13R,1.39700X1.27000*%
%ADD14R,4.50000X2.30000*%
%ADD15R,1.52400X1.01600*%
%ADD16R,3.30000X1.50000*%
G04:AMPARAMS|DCode=17|XSize=2.5mm|YSize=4.3mm|CornerRadius=0.625mm|HoleSize=0mm|Usage=FLASHONLY|Rotation=270.000|XOffset=0mm|YOffset=0mm|HoleType=Round|Shape=RoundedRectangle|*
%AMROUNDEDRECTD17*
21,1,2.50000,3.05000,0,0,270.0*
21,1,1.25000,4.30000,0,0,270.0*
1,1,1.25000,-1.52500,-0.62500*
1,1,1.25000,-1.52500,0.62500*
1,1,1.25000,1.52500,0.62500*
1,1,1.25000,1.52500,-0.62500*
%
%ADD17ROUNDEDRECTD17*%
%TA.AperFunction,ConnectorPad*%
%ADD18R,1.15000X0.90000*%
%ADD19R,1.15000X0.80000*%
%ADD20R,1.15000X0.70000*%
%TA.AperFunction,SMDPad,CuDef*%
%ADD21R,3.30000X2.40000*%
%ADD22R,1.00000X2.40000*%
D10*
X8128000Y304800D02*
D03*
X7340600D02*
D03*
X6578600D02*
D03*
X7747000D02*
D03*
D11*
X6845292Y508000D02*
D03*
X6997692D02*
D03*
X7137408Y3225800D02*
D03*
X6985008D02*
D03*
X8229592Y1778000D02*
D03*
X8077192D02*
D03*
X8432808D02*
D03*
X8585208D02*
D03*
X8432808Y1930400D02*
D03*
X8585208D02*
D03*
X304808Y3962400D02*
D03*
X457208D02*
D03*
X177808Y1727200D02*
D03*
X330208D02*
D03*
X177808Y1879600D02*
D03*
X330208D02*
D03*
X6146792Y304800D02*
D03*
X5994392D02*
D03*
X5168908Y1397000D02*
D03*
X5016508D02*
D03*
X4584692D02*
D03*
X4737092D02*
D03*
X177808Y2032000D02*
D03*
X330208D02*
D03*
D12*
X1409700Y266692D02*
D03*
Y419092D02*
D03*
X1270000Y266692D02*
D03*
Y419092D02*
D03*
X838200Y4724384D02*
D03*
Y4571984D02*
D03*
X1524000Y2184392D02*
D03*
Y2031992D02*
D03*
X6045200Y1015992D02*
D03*
Y863592D02*
D03*
X965200Y4724384D02*
D03*
Y4571984D02*
D03*
D13*
X4648200Y6045200D02*
D03*
Y5816600D02*
D03*
X6045200Y711200D02*
D03*
Y482600D02*
D03*
X5308600Y5816600D02*
D03*
Y6045200D02*
D03*
X5969000Y5816600D02*
D03*
Y6045200D02*
D03*
X5638800Y5816600D02*
D03*
Y6045200D02*
D03*
X4978400Y5816600D02*
D03*
Y6045200D02*
D03*
X3733800Y5816600D02*
D03*
Y6045200D02*
D03*
X4038600Y5816600D02*
D03*
Y6045200D02*
D03*
X4343400Y5816600D02*
D03*
Y6045200D02*
D03*
D14*
X3890400Y2387600D02*
D03*
X5530400D02*
D03*
D15*
X3276600Y838200D02*
D03*
Y965200D02*
D03*
D16*
X3873500Y863600D02*
D03*
X3873502Y410018D02*
D03*
D17*
X4330699Y431800D02*
D03*
X4330700Y1130300D02*
D03*
X5651501Y1143000D02*
D03*
X5651500Y444500D02*
D03*
D18*
X559300Y4779600D02*
D03*
Y5329600D02*
D03*
D19*
Y4902600D02*
D03*
Y5206600D02*
D03*
D20*
Y5104600D02*
D03*
Y5004600D02*
D03*
D21*
X4991101Y573600D02*
D03*
D22*
X5221101Y1153600D02*
D03*
X4991101D02*
D03*
X4761101D02*
D03*
%TF.MD5,30db29f2de83cb599484b4705d48772f*%
M02*
