%TF.GenerationSoftware,Altium Limited,Altium Designer,25.4.2 (15)*%
G04 Layer_Color=8421504*
%FSLAX45Y45*%
%MOMM*%
%TF.SameCoordinates,E6CAE831-27AB-4F04-BD5C-EB1891CE41FD*%
%TF.FilePolarity,Positive*%
%TF.FileFunction,Paste,Top*%
%TF.Part,Single*%
G01*
G75*
%TA.AperFunction,SMDPad,CuDef*%
%ADD16R,3.30000X2.40000*%
%ADD17R,1.00000X2.40000*%
%ADD18R,0.76200X1.01600*%
%ADD19R,0.40000X0.30000*%
%ADD20R,4.50000X2.30000*%
%ADD21R,1.01600X0.76200*%
%TA.AperFunction,ConnectorPad*%
%ADD22R,1.30000X0.60000*%
%ADD23R,1.30000X0.30000*%
%TA.AperFunction,SMDPad,CuDef*%
%ADD24R,1.77800X1.77800*%
%ADD25R,1.00000X1.39700*%
%ADD26C,1.27000*%
%ADD27R,2.16000X2.40000*%
%ADD28R,3.30000X1.50000*%
G04:AMPARAMS|DCode=29|XSize=2.5mm|YSize=4.3mm|CornerRadius=0.625mm|HoleSize=0mm|Usage=FLASHONLY|Rotation=90.000|XOffset=0mm|YOffset=0mm|HoleType=Round|Shape=RoundedRectangle|*
%AMROUNDEDRECTD29*
21,1,2.50000,3.05000,0,0,90.0*
21,1,1.25000,4.30000,0,0,90.0*
1,1,1.25000,1.52500,0.62500*
1,1,1.25000,1.52500,-0.62500*
1,1,1.25000,-1.52500,-0.62500*
1,1,1.25000,-1.52500,0.62500*
%
%ADD29ROUNDEDRECTD29*%
%ADD30R,1.39700X1.27000*%
%ADD31R,1.52400X1.01600*%
D16*
X5003800Y534440D02*
D03*
D17*
X5233800Y1114440D02*
D03*
X5003800D02*
D03*
X4773800D02*
D03*
D18*
X457192Y4064000D02*
D03*
X304792D02*
D03*
X342908Y2755900D02*
D03*
X190508D02*
D03*
X1295392Y4902200D02*
D03*
X1447792D02*
D03*
X9118600Y1473200D02*
D03*
X9271000D02*
D03*
X9118601Y1320799D02*
D03*
X9271001D02*
D03*
X6222992Y304800D02*
D03*
X6375392D02*
D03*
X4751238Y1371600D02*
D03*
X4598838D02*
D03*
X5016508D02*
D03*
X5168908D02*
D03*
D19*
X330200Y1722600D02*
D03*
Y1782600D02*
D03*
D20*
X5530400Y2387600D02*
D03*
X3890400D02*
D03*
D21*
X685800Y1117608D02*
D03*
Y1270008D02*
D03*
Y1549408D02*
D03*
Y1397008D02*
D03*
X1422400Y203192D02*
D03*
Y355592D02*
D03*
X838200Y1396992D02*
D03*
Y1549392D02*
D03*
X1193800Y203192D02*
D03*
Y355592D02*
D03*
X8280400Y4800592D02*
D03*
Y4648192D02*
D03*
X6045200Y914392D02*
D03*
Y761992D02*
D03*
D22*
X622300Y4789200D02*
D03*
Y5269200D02*
D03*
Y4709200D02*
D03*
Y5349200D02*
D03*
D23*
Y4854200D02*
D03*
Y4904200D02*
D03*
Y4954200D02*
D03*
Y5004200D02*
D03*
Y5204200D02*
D03*
Y5154200D02*
D03*
Y5104200D02*
D03*
Y5054200D02*
D03*
D24*
X431800Y1520401D02*
D03*
Y1070399D02*
D03*
D25*
X934716Y4699000D02*
D03*
X1163316D02*
D03*
X933445Y4889500D02*
D03*
X1162045D02*
D03*
D26*
X1473200Y558800D02*
D03*
X8890000Y1346200D02*
D03*
X7899400Y330200D02*
D03*
X7137400D02*
D03*
X8382000D02*
D03*
D27*
X1468640Y5214620D02*
D03*
X1000760Y5209540D02*
D03*
D28*
X3860802Y359218D02*
D03*
X3860800Y812800D02*
D03*
D29*
X5664200Y368300D02*
D03*
X5664201Y1066800D02*
D03*
X4343400Y1066800D02*
D03*
X4343399Y368300D02*
D03*
D30*
X6045200Y533400D02*
D03*
Y304800D02*
D03*
X4648200Y6045200D02*
D03*
Y5816600D02*
D03*
X5308600D02*
D03*
Y6045200D02*
D03*
X5969000Y5816600D02*
D03*
Y6045200D02*
D03*
X5638800Y5816600D02*
D03*
Y6045200D02*
D03*
X4978400Y5816600D02*
D03*
Y6045200D02*
D03*
X3733800Y5816600D02*
D03*
Y6045200D02*
D03*
X4038600Y5816600D02*
D03*
Y6045200D02*
D03*
X4343400Y5816600D02*
D03*
Y6045200D02*
D03*
D31*
X3276600Y838200D02*
D03*
Y965200D02*
D03*
%TF.MD5,efb01c22fb1b946e5ee59a80ae447c3b*%
M02*
