%TF.GenerationSoftware,Altium Limited,Altium Designer,25.4.2 (15)*%
G04 Layer_Physical_Order=1*
G04 Layer_Color=255*
%FSLAX45Y45*%
%MOMM*%
%TF.SameCoordinates,E42F7491-6EBA-4DE7-B61D-BE58CA0AFF3A*%
%TF.FilePolarity,Positive*%
%TF.FileFunction,Copper,L1,Top,Signal*%
%TF.Part,Single*%
G01*
G75*
%TA.AperFunction,Conductor*%
%ADD10C,0.50800*%
%ADD11C,0.25400*%
%ADD12C,1.27000*%
%ADD13C,0.63500*%
%ADD14C,0.38100*%
%ADD15C,1.01600*%
%ADD16C,0.30480*%
%TA.AperFunction,SMDPad,CuDef*%
%ADD17R,1.39700X1.00000*%
G04:AMPARAMS|DCode=18|XSize=1.47mm|YSize=0.28mm|CornerRadius=0.035mm|HoleSize=0mm|Usage=FLASHONLY|Rotation=0.000|XOffset=0mm|YOffset=0mm|HoleType=Round|Shape=RoundedRectangle|*
%AMROUNDEDRECTD18*
21,1,1.47000,0.21000,0,0,0.0*
21,1,1.40000,0.28000,0,0,0.0*
1,1,0.07000,0.70000,-0.10500*
1,1,0.07000,-0.70000,-0.10500*
1,1,0.07000,-0.70000,0.10500*
1,1,0.07000,0.70000,0.10500*
%
%ADD18ROUNDEDRECTD18*%
%ADD19R,1.01600X1.52400*%
%ADD20R,1.00000X1.39700*%
%ADD21C,1.27000*%
%ADD22R,1.27000X1.39700*%
%ADD23R,3.30000X1.80000*%
%ADD24R,1.50000X3.30000*%
%ADD25R,0.60000X2.20000*%
%ADD26R,1.52400X1.01600*%
%ADD27R,2.40000X3.30000*%
%ADD28R,2.40000X1.00000*%
G04:AMPARAMS|DCode=29|XSize=0.26mm|YSize=1.143mm|CornerRadius=0.0325mm|HoleSize=0mm|Usage=FLASHONLY|Rotation=0.000|XOffset=0mm|YOffset=0mm|HoleType=Round|Shape=RoundedRectangle|*
%AMROUNDEDRECTD29*
21,1,0.26000,1.07800,0,0,0.0*
21,1,0.19500,1.14300,0,0,0.0*
1,1,0.06500,0.09750,-0.53900*
1,1,0.06500,-0.09750,-0.53900*
1,1,0.06500,-0.09750,0.53900*
1,1,0.06500,0.09750,0.53900*
%
%ADD29ROUNDEDRECTD29*%
G04:AMPARAMS|DCode=30|XSize=1.143mm|YSize=0.26mm|CornerRadius=0.0325mm|HoleSize=0mm|Usage=FLASHONLY|Rotation=0.000|XOffset=0mm|YOffset=0mm|HoleType=Round|Shape=RoundedRectangle|*
%AMROUNDEDRECTD30*
21,1,1.14300,0.19500,0,0,0.0*
21,1,1.07800,0.26000,0,0,0.0*
1,1,0.06500,0.53900,-0.09750*
1,1,0.06500,-0.53900,-0.09750*
1,1,0.06500,-0.53900,0.09750*
1,1,0.06500,0.53900,0.09750*
%
%ADD30ROUNDEDRECTD30*%
%ADD31R,2.14000X2.14000*%
G04:AMPARAMS|DCode=32|XSize=2.5mm|YSize=4.3mm|CornerRadius=0.625mm|HoleSize=0mm|Usage=FLASHONLY|Rotation=180.000|XOffset=0mm|YOffset=0mm|HoleType=Round|Shape=RoundedRectangle|*
%AMROUNDEDRECTD32*
21,1,2.50000,3.05000,0,0,180.0*
21,1,1.25000,4.30000,0,0,180.0*
1,1,1.25000,-0.62500,1.52500*
1,1,1.25000,0.62500,1.52500*
1,1,1.25000,0.62500,-1.52500*
1,1,1.25000,-0.62500,-1.52500*
%
%ADD32ROUNDEDRECTD32*%
%ADD33R,1.80000X3.30000*%
G04:AMPARAMS|DCode=34|XSize=1.524mm|YSize=1.778mm|CornerRadius=0.381mm|HoleSize=0mm|Usage=FLASHONLY|Rotation=90.000|XOffset=0mm|YOffset=0mm|HoleType=Round|Shape=RoundedRectangle|*
%AMROUNDEDRECTD34*
21,1,1.52400,1.01600,0,0,90.0*
21,1,0.76200,1.77800,0,0,90.0*
1,1,0.76200,0.50800,0.38100*
1,1,0.76200,0.50800,-0.38100*
1,1,0.76200,-0.50800,-0.38100*
1,1,0.76200,-0.50800,0.38100*
%
%ADD34ROUNDEDRECTD34*%
%ADD35R,4.60000X4.12000*%
%ADD36R,0.50000X0.55000*%
%ADD37R,0.50000X0.65000*%
%ADD38R,4.12000X4.60000*%
%ADD39R,0.55000X0.50000*%
%ADD40R,0.65000X0.50000*%
%ADD41R,2.00000X1.70000*%
%ADD42R,2.00000X1.70000*%
%ADD43R,1.50000X0.90000*%
%ADD44R,1.65100X1.01600*%
%ADD45R,1.01600X1.65100*%
%ADD46R,3.00000X5.40000*%
%ADD47R,1.62560X2.54000*%
%ADD48R,1.98120X0.55880*%
%TA.AperFunction,ComponentPad*%
%ADD49C,2.79400*%
%ADD50C,2.03200*%
%ADD51R,1.50000X1.50000*%
%ADD52C,1.50000*%
%ADD53R,1.50000X1.50000*%
%ADD54R,4.06400X2.54000*%
%ADD55R,2.54000X4.06400*%
%ADD56C,0.60000*%
%ADD57C,6.00000*%
%ADD58C,1.77800*%
%ADD59R,1.77800X1.77800*%
%TA.AperFunction,ViaPad*%
%ADD60C,0.50800*%
%ADD61C,0.60960*%
%ADD62C,1.01600*%
G36*
X5105400Y5461000D02*
X4650216D01*
Y5606248D01*
X4560216D01*
X4470217D01*
Y5461000D01*
X4368800D01*
Y6248400D01*
X4470217D01*
Y6114248D01*
X4560216D01*
X4650216D01*
Y6248400D01*
X5105400D01*
Y5461000D01*
D02*
G37*
G36*
X4191000D02*
X4010218D01*
Y5606248D01*
X3920218D01*
X3830218D01*
Y5461000D01*
X3810000D01*
Y5795558D01*
X3810000D01*
X3809999Y5795559D01*
X3809570Y5813095D01*
X3806133Y5848000D01*
X3799292Y5882401D01*
X3789111Y5915965D01*
X3775688Y5948369D01*
X3759154Y5979302D01*
X3739667Y6008464D01*
X3717415Y6035576D01*
X3705318Y6048281D01*
X3662861Y6090739D01*
X3662861Y6090739D01*
X3662860Y6090739D01*
X3652096Y6100494D01*
X3627967Y6116617D01*
X3601157Y6127723D01*
X3572695Y6133385D01*
X3558185Y6134098D01*
X3403600Y6134102D01*
Y6261100D01*
X3817892D01*
X3830218Y6260198D01*
X3830218Y6248400D01*
Y6114248D01*
X3920218D01*
X4010218D01*
Y6248400D01*
X4010218Y6260198D01*
X4022544Y6261100D01*
X4191000D01*
Y5461000D01*
D02*
G37*
G36*
X3353862Y6063767D02*
X3386220Y6050364D01*
X3415340Y6030906D01*
X3440106Y6006141D01*
X3459564Y5977020D01*
X3472967Y5944662D01*
X3479800Y5910312D01*
Y5892800D01*
X3479800Y5105400D01*
X2870200D01*
Y5211358D01*
Y5228916D01*
X2873642Y5263863D01*
X2880493Y5298305D01*
X2890686Y5331909D01*
X2904125Y5364352D01*
X2920679Y5395322D01*
X2940188Y5424520D01*
X2962466Y5451666D01*
X2974881Y5464081D01*
X2974882Y5464082D01*
X3009900Y5499100D01*
X3020172Y5509889D01*
X3039068Y5532915D01*
X3055617Y5557681D01*
X3069658Y5583950D01*
X3081056Y5611469D01*
X3089703Y5639973D01*
X3095513Y5669187D01*
X3098433Y5698830D01*
X3098798Y5713723D01*
X3098800Y5713723D01*
Y5968999D01*
X3098799Y5979006D01*
X3102704Y5998635D01*
X3110363Y6017125D01*
X3121482Y6033766D01*
X3135634Y6047917D01*
X3152274Y6059036D01*
X3170764Y6066695D01*
X3190393Y6070599D01*
X3200400Y6070599D01*
X3200400Y6070600D01*
X3319511D01*
X3353862Y6063767D01*
D02*
G37*
G36*
X3302000Y6134101D02*
X3060699Y6134099D01*
X3060699Y6134098D01*
X3051985Y6133670D01*
X3034893Y6130271D01*
X3018792Y6123601D01*
X3004302Y6113919D01*
X2991979Y6101596D01*
X2982297Y6087106D01*
X2975627Y6071005D01*
X2972227Y6053913D01*
X2971799Y6045199D01*
X2971800Y5725521D01*
X2971799Y5725520D01*
X2971799Y5704900D01*
X2963754Y5664451D01*
X2947972Y5626349D01*
X2925059Y5592059D01*
X2910478Y5577478D01*
X2811960Y5478960D01*
X2811960Y5478959D01*
X2802203Y5468195D01*
X2786080Y5444065D01*
X2774974Y5417253D01*
X2769313Y5388789D01*
X2768600Y5374279D01*
Y5105400D01*
X1397000D01*
Y5638800D01*
X1862915Y5638800D01*
D01*
X1862915D01*
X1862915D01*
X1894980Y5639586D01*
X1958802Y5645871D01*
X2021701Y5658382D01*
X2083070Y5676998D01*
X2142319Y5701540D01*
X2198877Y5731771D01*
X2252199Y5767400D01*
X2301772Y5808085D01*
X2325002Y5830202D01*
X2489200Y5994400D01*
Y6261100D01*
X3302000D01*
Y6134101D01*
D02*
G37*
G36*
X5130800Y5200150D02*
X5068060Y5137410D01*
X5005839D01*
X5003400Y5149100D01*
X5003400Y5150110D01*
Y5162550D01*
X4978400D01*
X4953400D01*
Y5150110D01*
X4953400Y5149100D01*
X4950961Y5137410D01*
X4878839D01*
X4876400Y5149100D01*
X4876400Y5150110D01*
Y5162550D01*
X4851400D01*
X4826400D01*
Y5150110D01*
X4826400Y5149100D01*
X4823961Y5137410D01*
X4751839D01*
X4749400Y5149100D01*
X4749400Y5150110D01*
Y5162550D01*
X4724400D01*
X4699400D01*
Y5150110D01*
X4699400Y5149100D01*
X4696961Y5137410D01*
X4673600D01*
Y5333494D01*
X4686300Y5336020D01*
X4689727Y5327747D01*
X4705447Y5312027D01*
X4724400Y5304176D01*
Y5359400D01*
X4737100D01*
Y5372100D01*
X4792324D01*
X4784473Y5391053D01*
X4771416Y5404110D01*
X4775076Y5416452D01*
X4775310Y5416810D01*
X4851290D01*
X4851524Y5416452D01*
X4855184Y5404110D01*
X4842127Y5391053D01*
X4834276Y5372100D01*
X4889500D01*
Y5359400D01*
X4902200D01*
Y5304176D01*
X4921153Y5312027D01*
X4922217Y5313090D01*
X4933950Y5308230D01*
Y5296696D01*
X4984750D01*
Y5346696D01*
Y5396696D01*
X4933951D01*
X4933950Y5396696D01*
Y5396696D01*
X4924510Y5403747D01*
X4923889Y5404355D01*
X4927476Y5416452D01*
X4927710Y5416810D01*
X5130800D01*
Y5200150D01*
D02*
G37*
G36*
X4251215Y5312796D02*
X4250980Y5309366D01*
X4251241Y5305872D01*
X4251997Y5302315D01*
X4253247Y5298694D01*
X4254991Y5295009D01*
X4257231Y5291261D01*
X4259965Y5287449D01*
X4263194Y5283574D01*
X4266918Y5279635D01*
X4245365Y5258082D01*
X4241426Y5261806D01*
X4237551Y5265035D01*
X4233739Y5267769D01*
X4229991Y5270008D01*
X4226306Y5271753D01*
X4222685Y5273003D01*
X4219128Y5273759D01*
X4215634Y5274019D01*
X4212204Y5273785D01*
X4208838Y5273057D01*
X4251943Y5316162D01*
X4251215Y5312796D01*
D02*
G37*
G36*
X4541298Y5289316D02*
X4539462Y5286402D01*
X4537843Y5283174D01*
X4536439Y5279630D01*
X4535251Y5275769D01*
X4534280Y5271594D01*
X4533524Y5267103D01*
X4532984Y5262296D01*
X4532978Y5262163D01*
X4533103Y5260464D01*
X4533413Y5258609D01*
X4533791Y5257001D01*
X4534239Y5255641D01*
X4534755Y5254529D01*
X4535340Y5253664D01*
X4535994Y5253047D01*
X4532584Y5252519D01*
X4532552Y5251737D01*
X4502072Y5240330D01*
X4501911Y5245755D01*
X4501716Y5247738D01*
X4500853Y5247604D01*
X4501084Y5248065D01*
X4501292Y5248796D01*
X4501475Y5249796D01*
X4501497Y5249973D01*
X4501429Y5250662D01*
X4500625Y5255050D01*
X4499500Y5258920D01*
X4498052Y5262272D01*
X4496284Y5265107D01*
X4494194Y5267423D01*
X4491782Y5269220D01*
X4489049Y5270500D01*
X4485994Y5271262D01*
X4543350Y5291913D01*
X4541298Y5289316D01*
D02*
G37*
G36*
X4191000Y5108893D02*
X4190300Y5108426D01*
X4177600Y5115214D01*
Y5119500D01*
X3990650D01*
Y4889500D01*
Y4659500D01*
X4171625D01*
Y4630769D01*
X4112856Y4572000D01*
X4007036Y4571999D01*
X3980686Y4571353D01*
X3928240Y4566188D01*
X3876552Y4555907D01*
X3826121Y4540609D01*
X3777433Y4520441D01*
X3730956Y4495598D01*
X3687138Y4466318D01*
X3646401Y4432885D01*
X3627315Y4414713D01*
X3627313Y4414714D01*
X3627313Y4414713D01*
X3515192Y4302592D01*
X3495932Y4283331D01*
X3453822Y4248771D01*
X3408526Y4218505D01*
X3360482Y4192825D01*
X3310153Y4171978D01*
X3258022Y4156165D01*
X3204592Y4145538D01*
X3150378Y4140199D01*
X3123140Y4140200D01*
X2438400D01*
Y4194434D01*
X2444750Y4204504D01*
X2451100Y4204504D01*
X2495550D01*
Y4254504D01*
Y4304504D01*
X2451100D01*
X2444750Y4304504D01*
X2438400Y4314574D01*
Y4470400D01*
X1676400D01*
Y5029200D01*
X2540000D01*
Y4926445D01*
X2531900Y4917100D01*
X2527300Y4917100D01*
X2520950D01*
Y4807101D01*
Y4697100D01*
X2530429D01*
X2531900Y4697100D01*
X2543774Y4695106D01*
X2546013Y4683848D01*
X2556491Y4658546D01*
X2571705Y4635776D01*
X2591069Y4616411D01*
X2613839Y4601196D01*
X2639139Y4590715D01*
X2665998Y4585373D01*
X2679691Y4584700D01*
X2693383Y4585372D01*
X2720242Y4590714D01*
X2745542Y4601193D01*
X2768312Y4616406D01*
X2787677Y4635769D01*
X2802892Y4658539D01*
X2813372Y4683838D01*
X2818716Y4710697D01*
X2819389Y4724389D01*
X2819400Y4724400D01*
Y5029200D01*
X3382558D01*
X3397086Y5029557D01*
X3426001Y5032404D01*
X3454499Y5038073D01*
X3482303Y5046507D01*
X3509147Y5057626D01*
X3534771Y5071323D01*
X3558930Y5087466D01*
X3581391Y5105898D01*
X3591915Y5115919D01*
X3591921Y5115921D01*
X3602723Y5126723D01*
X3626340Y5146105D01*
X3651744Y5163079D01*
X3678689Y5177481D01*
X3706916Y5189172D01*
X3736154Y5198040D01*
X3766119Y5204000D01*
X3796525Y5206994D01*
X3811801Y5206993D01*
X3811805Y5207000D01*
X4191000D01*
X4191000Y5108893D01*
D02*
G37*
G36*
X4546243Y5237134D02*
X4546604Y5236621D01*
X4547175Y5235916D01*
X4550152Y5232644D01*
X4557065Y5225588D01*
X4541479Y5198068D01*
X4539443Y5200053D01*
X4534086Y5204633D01*
X4532550Y5205702D01*
X4531140Y5206542D01*
X4529855Y5207153D01*
X4528695Y5207536D01*
X4527661Y5207689D01*
X4526751Y5207614D01*
X4546092Y5237455D01*
X4546243Y5237134D01*
D02*
G37*
G36*
X4310789Y5129384D02*
X4311213Y5124202D01*
X4311921Y5119630D01*
X4312911Y5115668D01*
X4314184Y5112315D01*
X4315741Y5109572D01*
X4317580Y5107438D01*
X4319702Y5105914D01*
X4322107Y5105000D01*
X4324795Y5104695D01*
X4264927D01*
X4267823Y5105000D01*
X4270414Y5105914D01*
X4272700Y5107438D01*
X4274681Y5109572D01*
X4276357Y5112315D01*
X4277729Y5115668D01*
X4278796Y5119630D01*
X4279558Y5124202D01*
X4280015Y5129384D01*
X4280167Y5135175D01*
X4310647D01*
X4310789Y5129384D01*
D02*
G37*
G36*
X4260405Y5055305D02*
X4260162Y5056210D01*
X4259432Y5057019D01*
X4258217Y5057734D01*
X4256515Y5058353D01*
X4254327Y5058877D01*
X4251653Y5059305D01*
X4248493Y5059639D01*
X4240714Y5060020D01*
X4236095Y5060067D01*
Y5090547D01*
X4240717Y5090638D01*
X4248521Y5091364D01*
X4251702Y5091998D01*
X4254403Y5092815D01*
X4256625Y5093813D01*
X4258366Y5094991D01*
X4259627Y5096352D01*
X4260409Y5097894D01*
X4260710Y5099617D01*
X4260405Y5055305D01*
D02*
G37*
G36*
X2725061Y4935220D02*
X2724439Y4935703D01*
X2723567Y4936134D01*
X2722447Y4936515D01*
X2721078Y4936846D01*
X2719461Y4937125D01*
X2715479Y4937531D01*
X2710502Y4937735D01*
X2707640Y4937760D01*
Y4968240D01*
X2710502Y4968265D01*
X2719461Y4968875D01*
X2721078Y4969154D01*
X2722447Y4969485D01*
X2723567Y4969866D01*
X2724439Y4970297D01*
X2725061Y4970780D01*
Y4935220D01*
D02*
G37*
G36*
X5837641Y4863206D02*
X5824941Y4851057D01*
X5818529Y4851342D01*
X5780306Y4849968D01*
X5742449Y4844518D01*
X5705391Y4835053D01*
X5669557Y4821682D01*
X5635357Y4804559D01*
X5603183Y4783878D01*
X5573403Y4759878D01*
X5559518Y4746718D01*
X5477065Y4664266D01*
X5449920Y4641988D01*
X5420722Y4622479D01*
X5389752Y4605925D01*
X5357309Y4592486D01*
X5323705Y4582293D01*
X5289263Y4575442D01*
X5254316Y4572000D01*
X4811121D01*
X4811121Y4571999D01*
X4790599Y4570992D01*
X4750345Y4562986D01*
X4712427Y4547279D01*
X4678302Y4524477D01*
X4663079Y4510678D01*
X4582521Y4430121D01*
X4572235Y4419835D01*
X4549748Y4401380D01*
X4525559Y4385218D01*
X4499903Y4371504D01*
X4473026Y4360371D01*
X4445187Y4351926D01*
X4416655Y4346251D01*
X4387703Y4343400D01*
X4373157Y4343400D01*
X4280489D01*
X4274357Y4347211D01*
X4268897Y4353979D01*
X4267561Y4358106D01*
X4266700Y4362357D01*
X4265709Y4363827D01*
X4265163Y4365515D01*
X4262348Y4368818D01*
X4259926Y4372414D01*
X4258448Y4373394D01*
X4257297Y4374744D01*
X4253704Y4376580D01*
Y4390562D01*
X4257128Y4399801D01*
X4260638Y4421753D01*
X4255480Y4443377D01*
X4253704Y4445829D01*
Y4489450D01*
X4222754D01*
Y4419600D01*
X4184654D01*
Y4489450D01*
X4180115D01*
X4174855Y4502150D01*
X4193905Y4521200D01*
X4216400D01*
X4241800Y4546600D01*
Y4569095D01*
X4251202Y4578498D01*
X4261307Y4593621D01*
X4264856Y4611460D01*
Y4674000D01*
X4273550D01*
Y4699000D01*
Y4724000D01*
X4264856D01*
Y4801000D01*
X4273550D01*
Y4826000D01*
Y4851000D01*
X4264856D01*
Y4928000D01*
X4273550D01*
Y4953000D01*
Y4978000D01*
X4264856D01*
Y5003800D01*
X4492766D01*
Y5080000D01*
X5054600D01*
X5232400Y5257800D01*
Y6248400D01*
X5837641D01*
Y4863206D01*
D02*
G37*
G36*
X814392Y4912379D02*
X815883Y4909099D01*
X818368Y4906205D01*
X821848Y4903696D01*
X826321Y4901574D01*
X831789Y4899837D01*
X838251Y4898487D01*
X845706Y4897522D01*
X854156Y4896943D01*
X863600Y4896750D01*
Y4845950D01*
X854156Y4845757D01*
X838251Y4844213D01*
X831789Y4842863D01*
X826321Y4841126D01*
X821848Y4839004D01*
X818368Y4836495D01*
X815883Y4833601D01*
X814392Y4830321D01*
X813895Y4826655D01*
Y4916045D01*
X814392Y4912379D01*
D02*
G37*
G36*
X475174Y4684894D02*
X470856Y4683318D01*
X467046Y4680732D01*
X463744Y4677137D01*
X460950Y4672531D01*
X458664Y4666916D01*
X456886Y4660290D01*
X455616Y4652655D01*
X454854Y4644010D01*
X454600Y4634355D01*
X403800D01*
X403546Y4644010D01*
X402784Y4652655D01*
X401514Y4660290D01*
X399736Y4666916D01*
X397450Y4672531D01*
X394656Y4677137D01*
X391354Y4680732D01*
X387544Y4683318D01*
X383226Y4684894D01*
X378400Y4685460D01*
X480000D01*
X475174Y4684894D01*
D02*
G37*
G36*
X1645323Y4622800D02*
X1473200D01*
Y4724400D01*
X1219200D01*
Y5029200D01*
X1645323D01*
Y4622800D01*
D02*
G37*
G36*
X1199857Y4602001D02*
X1200729Y4601570D01*
X1201849Y4601189D01*
X1203218Y4600858D01*
X1204835Y4600579D01*
X1208817Y4600173D01*
X1213794Y4599969D01*
X1216656Y4599944D01*
Y4569464D01*
X1213794Y4569439D01*
X1204835Y4568829D01*
X1203218Y4568550D01*
X1201849Y4568219D01*
X1200729Y4567838D01*
X1199857Y4567407D01*
X1199235Y4566924D01*
Y4602484D01*
X1199857Y4602001D01*
D02*
G37*
G36*
X1251255Y4554224D02*
X1220775Y4569464D01*
Y4599944D01*
X1251255Y4615184D01*
Y4554224D01*
D02*
G37*
G36*
X3842172Y4421784D02*
X3844432Y4419194D01*
X3847086Y4416908D01*
X3850136Y4414926D01*
X3853580Y4413250D01*
X3857420Y4411878D01*
X3861653Y4410812D01*
X3866282Y4410050D01*
X3871306Y4409592D01*
X3876724Y4409440D01*
Y4378960D01*
X3871306Y4378808D01*
X3866282Y4378350D01*
X3861653Y4377588D01*
X3857420Y4376522D01*
X3853580Y4375150D01*
X3850136Y4373474D01*
X3847086Y4371492D01*
X3844432Y4369206D01*
X3842172Y4366616D01*
X3840307Y4363720D01*
Y4424680D01*
X3842172Y4421784D01*
D02*
G37*
G36*
X2286138Y4335949D02*
X2287242Y4323380D01*
X2288208Y4318263D01*
X2289450Y4313923D01*
X2290968Y4310361D01*
X2292762Y4307578D01*
X2294833Y4305572D01*
X2297179Y4304344D01*
X2299801Y4303894D01*
X2221399D01*
X2224021Y4304344D01*
X2226367Y4305572D01*
X2228438Y4307578D01*
X2230232Y4310361D01*
X2231750Y4313923D01*
X2232992Y4318263D01*
X2233958Y4323380D01*
X2234648Y4329276D01*
X2235062Y4335949D01*
X2235200Y4343400D01*
X2286000D01*
X2286138Y4335949D01*
D02*
G37*
G36*
X4233205Y4349794D02*
X4228887Y4348218D01*
X4225077Y4345632D01*
X4221775Y4342037D01*
X4218981Y4337431D01*
X4216695Y4331816D01*
X4214917Y4325190D01*
X4213647Y4317555D01*
X4213236Y4312885D01*
X4213597Y4293895D01*
X4160866D01*
X4161050Y4294403D01*
X4161214Y4295927D01*
X4161484Y4302023D01*
X4161563Y4311783D01*
X4159876Y4337355D01*
X4159015Y4341927D01*
X4157998Y4345483D01*
X4156825Y4348023D01*
X4155495Y4349547D01*
X4154009Y4350055D01*
X4238031Y4350360D01*
X4233205Y4349794D01*
D02*
G37*
G36*
X4102583Y4318584D02*
X4103473Y4308831D01*
X4104251Y4304868D01*
X4105253Y4301515D01*
X4106476Y4298772D01*
X4107923Y4296639D01*
X4109591Y4295115D01*
X4111483Y4294200D01*
X4113597Y4293895D01*
X4060866D01*
X4062980Y4294200D01*
X4064871Y4295115D01*
X4066540Y4296639D01*
X4067986Y4298772D01*
X4069210Y4301515D01*
X4070211Y4304868D01*
X4070990Y4308831D01*
X4071546Y4313403D01*
X4071880Y4318584D01*
X4071991Y4324375D01*
X4102471D01*
X4102583Y4318584D01*
D02*
G37*
G36*
X4024799Y4350055D02*
X4022487Y4349547D01*
X4020419Y4348023D01*
X4018593Y4345483D01*
X4017012Y4341927D01*
X4015673Y4337355D01*
X4014578Y4331767D01*
X4013726Y4325163D01*
X4013177Y4315985D01*
X4013596Y4293895D01*
X3960866D01*
X3961049Y4294403D01*
X3961214Y4295927D01*
X3961484Y4302023D01*
X3961543Y4309298D01*
X3960815Y4317555D01*
X3959545Y4325190D01*
X3957767Y4331816D01*
X3955481Y4337431D01*
X3952687Y4342037D01*
X3949385Y4345632D01*
X3945575Y4348218D01*
X3941257Y4349794D01*
X3936431Y4350360D01*
X4024799Y4350055D01*
D02*
G37*
G36*
X4649610Y4267200D02*
X4649044Y4272026D01*
X4647468Y4276344D01*
X4644883Y4280154D01*
X4641287Y4283456D01*
X4636681Y4286250D01*
X4631066Y4288536D01*
X4624441Y4290314D01*
X4616805Y4291584D01*
X4608160Y4292346D01*
X4598505Y4292600D01*
Y4343400D01*
X4608160Y4343654D01*
X4616805Y4344416D01*
X4624441Y4345686D01*
X4631066Y4347464D01*
X4636681Y4349750D01*
X4641287Y4352544D01*
X4644883Y4355846D01*
X4647468Y4359656D01*
X4649044Y4363974D01*
X4649610Y4368800D01*
Y4267200D01*
D02*
G37*
G36*
X5201043Y4233305D02*
X5199350Y4232946D01*
X5197080Y4231868D01*
X5194231Y4230072D01*
X5190804Y4227558D01*
X5182217Y4220373D01*
X5165000Y4204209D01*
X5158105Y4197384D01*
X5122184Y4233305D01*
X5129009Y4240200D01*
X5154872Y4269431D01*
X5156668Y4272280D01*
X5157746Y4274551D01*
X5158105Y4276243D01*
X5201043Y4233305D01*
D02*
G37*
G36*
X4004958Y4186998D02*
X4001483Y4182512D01*
X4000924Y4181609D01*
X4000490Y4180793D01*
X4000179Y4180064D01*
X3999993Y4179423D01*
X3999931Y4178869D01*
X3974531D01*
X3974469Y4179423D01*
X3974283Y4180064D01*
X3973973Y4180793D01*
X3973538Y4181609D01*
X3972980Y4182512D01*
X3971490Y4184580D01*
X3969504Y4186998D01*
X3968325Y4188338D01*
X4006138D01*
X4004958Y4186998D01*
D02*
G37*
G36*
X2108200Y4140200D02*
X1320800D01*
Y4419600D01*
X2108200D01*
Y4140200D01*
D02*
G37*
G36*
X5143747Y4073093D02*
X5144476Y4064457D01*
X5145690Y4056837D01*
X5147391Y4050233D01*
X5149578Y4044645D01*
X5152250Y4040073D01*
X5155409Y4036517D01*
X5159053Y4033977D01*
X5163183Y4032453D01*
X5167799Y4031945D01*
X5068409D01*
X5073025Y4032453D01*
X5077155Y4033977D01*
X5080800Y4036517D01*
X5083958Y4040073D01*
X5086630Y4044645D01*
X5088817Y4050233D01*
X5090518Y4056837D01*
X5091732Y4064457D01*
X5092461Y4073093D01*
X5092704Y4082745D01*
X5143504D01*
X5143747Y4073093D01*
D02*
G37*
G36*
X3667891Y4042874D02*
X3670275Y4041978D01*
X3673545Y4041187D01*
X3677701Y4040502D01*
X3688671Y4039448D01*
X3711769Y4038657D01*
X3721240Y4038604D01*
Y4013204D01*
X3711769Y4013151D01*
X3673545Y4010621D01*
X3670275Y4009830D01*
X3667891Y4008934D01*
X3666392Y4007932D01*
Y4043876D01*
X3667891Y4042874D01*
D02*
G37*
G36*
X2838653Y4070983D02*
X2840177Y4066853D01*
X2842717Y4063209D01*
X2846273Y4060050D01*
X2850845Y4057378D01*
X2856433Y4055191D01*
X2863037Y4053490D01*
X2870657Y4052276D01*
X2879293Y4051547D01*
X2888945Y4051304D01*
Y4000504D01*
X2879293Y4000261D01*
X2870657Y3999532D01*
X2863037Y3998318D01*
X2856433Y3996617D01*
X2850845Y3994430D01*
X2846273Y3991758D01*
X2842717Y3988600D01*
X2840177Y3984955D01*
X2838653Y3980825D01*
X2838145Y3976209D01*
Y4075599D01*
X2838653Y4070983D01*
D02*
G37*
G36*
X2699055Y3976209D02*
X2648255Y4000504D01*
Y4051304D01*
X2699055Y4075599D01*
Y3976209D01*
D02*
G37*
G36*
X2584653Y4070983D02*
X2586177Y4066853D01*
X2588717Y4063209D01*
X2592273Y4060050D01*
X2596845Y4057378D01*
X2602433Y4055191D01*
X2609037Y4053490D01*
X2616657Y4052276D01*
X2625293Y4051547D01*
X2634945Y4051304D01*
Y4000504D01*
X2625293Y4000261D01*
X2616657Y3999532D01*
X2609037Y3998318D01*
X2602433Y3996617D01*
X2596845Y3994430D01*
X2592273Y3991758D01*
X2588717Y3988600D01*
X2586177Y3984955D01*
X2584653Y3980825D01*
X2584145Y3976209D01*
Y4075599D01*
X2584653Y4070983D01*
D02*
G37*
G36*
X2445055Y3976209D02*
X2394255Y4000504D01*
Y4051304D01*
X2445055Y4075599D01*
Y3976209D01*
D02*
G37*
G36*
X2330653Y4070983D02*
X2332177Y4066853D01*
X2334717Y4063209D01*
X2338273Y4060050D01*
X2342845Y4057378D01*
X2348433Y4055191D01*
X2355037Y4053490D01*
X2362657Y4052276D01*
X2371293Y4051547D01*
X2380945Y4051304D01*
Y4000504D01*
X2371293Y4000261D01*
X2362657Y3999532D01*
X2355037Y3998318D01*
X2348433Y3996617D01*
X2342845Y3994430D01*
X2338273Y3991758D01*
X2334717Y3988600D01*
X2332177Y3984955D01*
X2330653Y3980825D01*
X2330145Y3976209D01*
Y4075599D01*
X2330653Y4070983D01*
D02*
G37*
G36*
X1403655Y3976201D02*
X1352855Y4000496D01*
Y4051296D01*
X1403655Y4075591D01*
Y3976201D01*
D02*
G37*
G36*
X5068714Y3948887D02*
X5068148Y3953713D01*
X5066572Y3958031D01*
X5063986Y3961841D01*
X5060391Y3965143D01*
X5055785Y3967937D01*
X5050170Y3970223D01*
X5043544Y3972001D01*
X5035909Y3973271D01*
X5027264Y3974033D01*
X5017609Y3974287D01*
Y4025087D01*
X5027261Y4025156D01*
X5060281Y4027556D01*
X5063837Y4028448D01*
X5066377Y4029476D01*
X5067901Y4030642D01*
X5068409Y4031945D01*
X5068714Y3948887D01*
D02*
G37*
G36*
X4524586Y3974288D02*
X4522818Y3973937D01*
X4520498Y3972885D01*
X4517626Y3971131D01*
X4514203Y3968677D01*
X4505701Y3961666D01*
X4488809Y3945892D01*
X4482075Y3939233D01*
X4464114Y3957193D01*
X4470774Y3963928D01*
X4496013Y3992745D01*
X4497766Y3995616D01*
X4498819Y3997936D01*
X4499170Y3999704D01*
X4524586Y3974288D01*
D02*
G37*
G36*
X3688610Y3917790D02*
X3691099Y3916656D01*
X3694199Y3915656D01*
X3697910Y3914789D01*
X3702232Y3914056D01*
X3712710Y3912989D01*
X3725633Y3912455D01*
X3733012Y3912388D01*
Y3886988D01*
X3725633Y3886922D01*
X3702232Y3885321D01*
X3697910Y3884588D01*
X3694199Y3883721D01*
X3691099Y3882720D01*
X3688610Y3881587D01*
X3686732Y3880320D01*
Y3919057D01*
X3688610Y3917790D01*
D02*
G37*
G36*
X2108200Y4064000D02*
X2108200Y3977880D01*
X2108993Y3966486D01*
X2115246Y3944572D01*
X2127273Y3925215D01*
X2144149Y3909902D01*
X2154014Y3904144D01*
X2163055Y3899995D01*
X2181776Y3893285D01*
X2201142Y3888762D01*
X2220898Y3886485D01*
X2230841Y3886200D01*
X2260600D01*
Y3835400D01*
X2220321Y3835399D01*
X2205539Y3834660D01*
X2176565Y3828787D01*
X2154190Y3819325D01*
X2140316Y3833200D01*
X2123396Y3840208D01*
Y3779367D01*
X2104346D01*
Y3760317D01*
X2043504D01*
X2050513Y3743397D01*
X2068376Y3725534D01*
X2076829Y3722033D01*
X2072656Y3697796D01*
X2072353Y3683000D01*
X2072352Y3683000D01*
X1807158Y3683000D01*
X1794984Y3684270D01*
Y3884930D01*
X1634024D01*
X1625600Y3894141D01*
Y4089400D01*
X2082800D01*
X2108200Y4064000D01*
D02*
G37*
G36*
X7061199Y4025539D02*
X7061200Y4004310D01*
X7052917Y3962668D01*
X7036669Y3923443D01*
X7013081Y3888141D01*
X6983059Y3858119D01*
X6947756Y3834531D01*
X6908531Y3818283D01*
X6866889Y3810000D01*
X6845660Y3810000D01*
X5969000D01*
Y6248400D01*
X7061200D01*
X7061199Y4025539D01*
D02*
G37*
G36*
X4495038Y3786210D02*
X4494509Y3786358D01*
X4493235Y3786490D01*
X4488450Y3786708D01*
X4456201Y3786988D01*
Y3812388D01*
X4495038Y3813167D01*
Y3786210D01*
D02*
G37*
G36*
X1665114Y3733800D02*
X1664548Y3738626D01*
X1662972Y3742944D01*
X1660386Y3746754D01*
X1656791Y3750056D01*
X1652185Y3752850D01*
X1646570Y3755136D01*
X1639944Y3756914D01*
X1632309Y3758184D01*
X1623664Y3758946D01*
X1614009Y3759200D01*
Y3810000D01*
X1623664Y3810254D01*
X1632309Y3811016D01*
X1639944Y3812286D01*
X1646570Y3814064D01*
X1652185Y3816350D01*
X1656791Y3819144D01*
X1660386Y3822446D01*
X1662972Y3826256D01*
X1664548Y3830574D01*
X1665114Y3835400D01*
Y3733800D01*
D02*
G37*
G36*
X3345940Y3738991D02*
X3348433Y3737902D01*
X3351613Y3736940D01*
X3355478Y3736107D01*
X3360029Y3735402D01*
X3371191Y3734377D01*
X3385097Y3733864D01*
X3393079Y3733800D01*
Y3708400D01*
X3385097Y3708336D01*
X3360029Y3706798D01*
X3355478Y3706093D01*
X3351613Y3705260D01*
X3348433Y3704298D01*
X3345940Y3703209D01*
X3344134Y3701991D01*
Y3740209D01*
X3345940Y3738991D01*
D02*
G37*
G36*
X5068714Y3697296D02*
X5068275Y3700916D01*
X5067080Y3704154D01*
X5065129Y3707012D01*
X5062423Y3709488D01*
X5058960Y3711584D01*
X5054742Y3713298D01*
X5049767Y3714632D01*
X5044037Y3715584D01*
X5037551Y3716156D01*
X5030309Y3716346D01*
Y3754446D01*
X5037551Y3754637D01*
X5044037Y3755208D01*
X5049767Y3756161D01*
X5054742Y3757494D01*
X5058960Y3759209D01*
X5062423Y3761304D01*
X5065129Y3763781D01*
X5067080Y3766638D01*
X5068275Y3769877D01*
X5068714Y3773496D01*
Y3697296D01*
D02*
G37*
G36*
X4972126Y3767686D02*
X4973269Y3764907D01*
X4975174Y3762455D01*
X4977841Y3760330D01*
X4981270Y3758532D01*
X4985461Y3757061D01*
X4990414Y3755917D01*
X4996129Y3755100D01*
X5002606Y3754610D01*
X5009845Y3754446D01*
Y3716346D01*
X5002606Y3716156D01*
X4996129Y3715584D01*
X4990414Y3714632D01*
X4985461Y3713298D01*
X4981270Y3711584D01*
X4977841Y3709488D01*
X4975174Y3707012D01*
X4973269Y3704154D01*
X4972126Y3700916D01*
X4971745Y3697296D01*
Y3770791D01*
X4972126Y3767686D01*
D02*
G37*
G36*
X4139867Y3692326D02*
X4140838Y3692300D01*
Y3666900D01*
X4139867Y3666874D01*
Y3654200D01*
X4139555Y3656613D01*
X4138741Y3658772D01*
X4137426Y3660677D01*
X4135608Y3662328D01*
X4133288Y3663725D01*
X4130467Y3664868D01*
X4127500Y3665662D01*
X4124533Y3664868D01*
X4121712Y3663725D01*
X4119392Y3662328D01*
X4117574Y3660677D01*
X4116259Y3658772D01*
X4115445Y3656613D01*
X4115133Y3654200D01*
Y3666874D01*
X4114162Y3666900D01*
Y3692300D01*
X4115133Y3692326D01*
Y3705000D01*
X4115445Y3702587D01*
X4116259Y3700428D01*
X4117574Y3698523D01*
X4119392Y3696872D01*
X4121712Y3695475D01*
X4124533Y3694332D01*
X4127500Y3693538D01*
X4130467Y3694332D01*
X4133288Y3695475D01*
X4135608Y3696872D01*
X4137426Y3698523D01*
X4138741Y3700428D01*
X4139555Y3702587D01*
X4139867Y3705000D01*
Y3692326D01*
D02*
G37*
G36*
X4475851Y3680788D02*
X4474514Y3681966D01*
X4470038Y3685438D01*
X4469138Y3685996D01*
X4468325Y3686430D01*
X4467600Y3686740D01*
X4466962Y3686926D01*
X4466412Y3686988D01*
Y3712388D01*
X4466962Y3712450D01*
X4467600Y3712636D01*
X4468325Y3712946D01*
X4469138Y3713380D01*
X4470038Y3713938D01*
X4472101Y3715426D01*
X4474514Y3717411D01*
X4475851Y3718589D01*
Y3680788D01*
D02*
G37*
G36*
X3693025Y3673323D02*
X3655608Y3674288D01*
Y3725088D01*
X3693025Y3726054D01*
Y3673323D01*
D02*
G37*
G36*
X5837641Y4698998D02*
X5837641Y4698998D01*
X5837642Y3657600D01*
X5396704D01*
Y3689350D01*
X5346704D01*
Y3708400D01*
X5327654D01*
Y3777945D01*
X5297009D01*
X5299779Y3778250D01*
X5296704D01*
Y3700493D01*
X5284004Y3693705D01*
X5283200Y3694242D01*
Y3815969D01*
X5280156Y3816223D01*
X5270504Y3816350D01*
Y3867150D01*
X5280156Y3867277D01*
X5283200Y3867467D01*
Y4038600D01*
X5435600Y4191000D01*
X5435600Y4296957D01*
X5435599Y4314515D01*
X5439041Y4349463D01*
X5445892Y4383905D01*
X5456086Y4417509D01*
X5469525Y4449952D01*
X5486078Y4480922D01*
X5505588Y4510120D01*
X5527866Y4537266D01*
X5540281Y4549681D01*
X5540282Y4549682D01*
X5597333Y4606733D01*
X5624479Y4629011D01*
X5653677Y4648521D01*
X5684647Y4665074D01*
X5717090Y4678512D01*
X5750694Y4688706D01*
X5785136Y4695557D01*
X5820083Y4698998D01*
X5837641Y4698998D01*
D02*
G37*
G36*
X3650945Y3567599D02*
X3575050Y3567294D01*
X3579876Y3567860D01*
X3584194Y3569436D01*
X3588004Y3572022D01*
X3591306Y3575617D01*
X3594100Y3580223D01*
X3596386Y3585838D01*
X3598164Y3592464D01*
X3599434Y3600099D01*
X3600196Y3608744D01*
X3600450Y3618399D01*
X3651250D01*
X3650945Y3567599D01*
D02*
G37*
G36*
X8743260Y3632198D02*
X8755523Y3631142D01*
X8763836Y3629489D01*
X8776673Y3624171D01*
X8788227Y3616452D01*
X8798052Y3606627D01*
X8805772Y3595073D01*
X8811089Y3582236D01*
X8813800Y3568608D01*
X8813799Y3561661D01*
X8813800Y3326497D01*
X8813799Y3326497D01*
X8813800Y3316579D01*
X8809930Y3297125D01*
X8802339Y3278799D01*
X8791319Y3262306D01*
X8777293Y3248280D01*
X8760800Y3237260D01*
X8742475Y3229669D01*
X8723020Y3225800D01*
X8713102Y3225800D01*
X8713102Y3225799D01*
X8691933Y3225280D01*
X8649799Y3221130D01*
X8608274Y3212870D01*
X8567759Y3200580D01*
X8528644Y3184378D01*
X8491305Y3164420D01*
X8456102Y3140898D01*
X8423374Y3114039D01*
X8408038Y3099438D01*
X8282843Y2974243D01*
X8282843Y2974242D01*
X8269353Y2960074D01*
X8244539Y2929837D01*
X8222807Y2897314D01*
X8204368Y2862817D01*
X8189400Y2826679D01*
X8178045Y2789248D01*
X8170414Y2750885D01*
X8166580Y2711957D01*
X8166100Y2692400D01*
X8166100D01*
Y2070100D01*
Y2047584D01*
X8157315Y2003419D01*
X8140082Y1961817D01*
X8115065Y1924376D01*
X8083224Y1892535D01*
X8045782Y1867517D01*
X8004180Y1850285D01*
X7960015Y1841500D01*
X7790360D01*
X7790360Y1841499D01*
X7780100Y1840995D01*
X7759973Y1836992D01*
X7741014Y1829139D01*
X7723951Y1817738D01*
X7716339Y1810839D01*
X7659641Y1754140D01*
Y1754140D01*
X7645006Y1737993D01*
X7620820Y1701798D01*
X7604162Y1661579D01*
X7595669Y1618884D01*
X7594600Y1597118D01*
X7594600Y609600D01*
X7238998D01*
X7220880Y609600D01*
X7185339Y616669D01*
X7151860Y630537D01*
X7121730Y650669D01*
X7046320Y726079D01*
X7046320Y726079D01*
X7046318Y726079D01*
X7037402Y734162D01*
X7017414Y747521D01*
X6995202Y756722D01*
X6971621Y761410D01*
X6959600Y761999D01*
X6698160Y762000D01*
X6687849Y761999D01*
X6667624Y766021D01*
X6648573Y773912D01*
X6631428Y785367D01*
X6624138Y792658D01*
X6624137Y792657D01*
X6619138Y797190D01*
X6607932Y804682D01*
X6595479Y809842D01*
X6582258Y812470D01*
X6575518Y812799D01*
X6400800Y812800D01*
Y1041400D01*
X6578600D01*
X6654800Y965200D01*
X7010400Y965200D01*
X7162800Y1117600D01*
Y2159000D01*
X7580997D01*
X7600661Y2159483D01*
X7639801Y2163337D01*
X7678374Y2171010D01*
X7716009Y2182426D01*
X7752345Y2197477D01*
X7787030Y2216017D01*
X7819731Y2237866D01*
X7850132Y2262817D01*
X7864378Y2276380D01*
X7947118Y2359118D01*
X7947118Y2359118D01*
X7947118Y2359119D01*
X7957746Y2370281D01*
X7977297Y2394104D01*
X7994419Y2419729D01*
X8008947Y2446909D01*
X8020741Y2475382D01*
X8029687Y2504873D01*
X8035699Y2535100D01*
X8038719Y2565771D01*
X8039097Y2581180D01*
X8039100Y2692400D01*
Y2892518D01*
X8039100Y2907946D01*
X8042124Y2938654D01*
X8048143Y2968917D01*
X8057100Y2998444D01*
X8068908Y3026952D01*
X8083454Y3054164D01*
X8100597Y3079820D01*
X8120172Y3103672D01*
X8131081Y3114581D01*
X8581834Y3565334D01*
X8581834Y3565333D01*
X8581835Y3565334D01*
X8597733Y3581233D01*
X8635124Y3606218D01*
X8676670Y3623427D01*
X8720776Y3632199D01*
X8743260Y3632198D01*
D02*
G37*
G36*
X7785099Y3510989D02*
X7785100Y3472646D01*
X7777584Y3396329D01*
X7762623Y3321116D01*
X7740363Y3247732D01*
X7711016Y3176883D01*
X7674866Y3109252D01*
X7632261Y3045490D01*
X7583611Y2986211D01*
X7556498Y2959099D01*
X7556498Y2959099D01*
X7556498Y2959098D01*
X7527881Y2930481D01*
X7465308Y2879128D01*
X7398004Y2834156D01*
X7326616Y2795998D01*
X7251831Y2765022D01*
X7174370Y2741524D01*
X7094978Y2725733D01*
X7014422Y2717799D01*
X6973948Y2717800D01*
X5977342Y2717799D01*
X5958300Y2717333D01*
X5920400Y2713601D01*
X5883048Y2706172D01*
X5846605Y2695118D01*
X5811420Y2680544D01*
X5777834Y2662591D01*
X5746169Y2641432D01*
X5716732Y2617271D01*
X5702939Y2604137D01*
X5702938Y2604138D01*
X5702938Y2604137D01*
X5598520Y2499721D01*
X5584377Y2485576D01*
X5552541Y2461348D01*
X5517735Y2441623D01*
X5480592Y2426760D01*
X5441787Y2417027D01*
X5402026Y2412603D01*
X5362032Y2413568D01*
X5322530Y2419904D01*
X5303385Y2425700D01*
X3441700D01*
Y3111500D01*
X3547658Y3111499D01*
X3571241Y3111501D01*
X3618181Y3106881D01*
X3664442Y3097680D01*
X3709578Y3083989D01*
X3753154Y3065939D01*
X3794751Y3043704D01*
X3833968Y3017498D01*
X3870427Y2987574D01*
X3887102Y2970897D01*
X3887102Y2970897D01*
X4026537Y2831462D01*
X4038791Y2819795D01*
X4064940Y2798336D01*
X4093067Y2779542D01*
X4122901Y2763596D01*
X4154154Y2750651D01*
X4186525Y2740831D01*
X4219703Y2734231D01*
X4253368Y2730915D01*
X4270282Y2730500D01*
X5067300Y2730500D01*
X5083483Y2731295D01*
X5115226Y2737609D01*
X5145127Y2749995D01*
X5172038Y2767976D01*
X5194924Y2790862D01*
X5212905Y2817772D01*
X5225291Y2847674D01*
X5231604Y2879417D01*
X5232399Y2895600D01*
X5232400Y2895600D01*
Y3302000D01*
X5867399D01*
X5877310Y3302976D01*
X5895622Y3310561D01*
X5909638Y3324577D01*
X5917223Y3342889D01*
X5918199Y3352800D01*
X5918200Y3352800D01*
X5917224Y3362710D01*
X5909638Y3381023D01*
X5895623Y3395038D01*
X5877310Y3402624D01*
X5867400Y3403600D01*
X5791200Y3403600D01*
Y3454400D01*
X5867400D01*
X5877310Y3455376D01*
X5895623Y3462961D01*
X5909638Y3476977D01*
X5917224Y3495289D01*
X5918200Y3505199D01*
Y3510252D01*
X5922067Y3519588D01*
X5929212Y3526733D01*
X5938547Y3530600D01*
X5943600Y3530599D01*
X5943600Y3530600D01*
X6844771D01*
X6870409Y3531229D01*
X6921438Y3536255D01*
X6971729Y3546259D01*
X7020796Y3561143D01*
X7068169Y3580766D01*
X7113390Y3604937D01*
X7156025Y3633424D01*
X7195661Y3665953D01*
X7214235Y3683637D01*
X7224434Y3694349D01*
X7243195Y3717208D01*
X7259624Y3741797D01*
X7273564Y3767877D01*
X7284881Y3795199D01*
X7293465Y3823498D01*
X7299234Y3852502D01*
X7302132Y3881932D01*
X7302494Y3896718D01*
X7302500Y3896721D01*
Y6248400D01*
X7785100D01*
X7785099Y3510989D01*
D02*
G37*
G36*
X4832655Y3542191D02*
X4832720Y3528553D01*
X4832960Y3530600D01*
X4832854Y3500234D01*
X4832960Y3478050D01*
X4832780Y3478754D01*
X4832655Y3442801D01*
X4832147Y3445005D01*
X4830623Y3446977D01*
X4828083Y3448716D01*
X4824527Y3450224D01*
X4819955Y3451500D01*
X4814367Y3452544D01*
X4807763Y3453356D01*
X4791507Y3454284D01*
X4782405Y3454393D01*
X4775197Y3454147D01*
X4767867Y3453387D01*
X4760609Y3452122D01*
X4753423Y3450349D01*
X4746308Y3448071D01*
X4739265Y3445286D01*
X4732295Y3441996D01*
X4725395Y3438198D01*
X4718568Y3433895D01*
X4711813Y3429085D01*
Y3530515D01*
X4718568Y3525705D01*
X4725395Y3521402D01*
X4732295Y3517604D01*
X4739265Y3514314D01*
X4746308Y3511529D01*
X4753423Y3509251D01*
X4760609Y3507478D01*
X4767867Y3506213D01*
X4775197Y3505453D01*
X4782275Y3505211D01*
X4791510Y3505454D01*
X4797351Y3505969D01*
X4791671Y3509173D01*
X4816269Y3553620D01*
X4832655Y3542191D01*
D02*
G37*
G36*
X5068714Y3403600D02*
X5068148Y3408426D01*
X5066572Y3412744D01*
X5063986Y3416554D01*
X5060391Y3419856D01*
X5055785Y3422650D01*
X5050170Y3424936D01*
X5043544Y3426714D01*
X5035909Y3427984D01*
X5027264Y3428746D01*
X5017609Y3429000D01*
Y3430341D01*
X4971745Y3442801D01*
Y3505200D01*
X4972253Y3500374D01*
X4973777Y3496056D01*
X4976317Y3492246D01*
X4979873Y3488944D01*
X4984445Y3486150D01*
X4990033Y3483864D01*
X4996637Y3482086D01*
X5004257Y3480816D01*
X5012893Y3480054D01*
X5020078Y3479865D01*
X5027264Y3480054D01*
X5035909Y3480816D01*
X5043544Y3482086D01*
X5050170Y3483864D01*
X5055785Y3486150D01*
X5060391Y3488944D01*
X5063986Y3492246D01*
X5066572Y3496056D01*
X5068148Y3500374D01*
X5068714Y3505200D01*
Y3403600D01*
D02*
G37*
G36*
X944223Y3583423D02*
X962102Y3567573D01*
X970464Y3561134D01*
X978440Y3555686D01*
X986032Y3551228D01*
X993238Y3547761D01*
X1000059Y3545285D01*
X1006496Y3543799D01*
X1012546Y3543303D01*
Y3517903D01*
X1006496Y3517408D01*
X1000059Y3515922D01*
X993238Y3513446D01*
X986032Y3509979D01*
X978440Y3505521D01*
X970464Y3500073D01*
X962102Y3493634D01*
X944223Y3477784D01*
X934706Y3468373D01*
Y3592833D01*
X944223Y3583423D01*
D02*
G37*
G36*
X3511855Y3468209D02*
X3461055Y3492504D01*
Y3543304D01*
X3511855Y3567599D01*
Y3468209D01*
D02*
G37*
G36*
X3397453Y3562983D02*
X3398977Y3558853D01*
X3401517Y3555209D01*
X3405073Y3552050D01*
X3409645Y3549378D01*
X3415233Y3547191D01*
X3421837Y3545490D01*
X3429457Y3544276D01*
X3438093Y3543547D01*
X3447745Y3543304D01*
Y3492504D01*
X3438093Y3492261D01*
X3429457Y3491532D01*
X3421837Y3490318D01*
X3415233Y3488617D01*
X3409645Y3486430D01*
X3405073Y3483758D01*
X3401517Y3480600D01*
X3398977Y3476955D01*
X3397453Y3472825D01*
X3396945Y3468209D01*
Y3567599D01*
X3397453Y3562983D01*
D02*
G37*
G36*
X4247866Y3581336D02*
X4270007Y3566542D01*
X4294610Y3556352D01*
X4320728Y3551157D01*
X4334043Y3550503D01*
X4366676D01*
X4366676Y3550502D01*
X4366676Y3550503D01*
X4366681D01*
X4378383Y3549709D01*
X4389522Y3547494D01*
X4403777Y3541590D01*
X4416605Y3533018D01*
X4427515Y3522109D01*
X4436086Y3509280D01*
X4441990Y3495026D01*
X4445000Y3479894D01*
X4444999Y3472180D01*
X4445000Y3413760D01*
X4446171Y3401867D01*
X4455273Y3379892D01*
X4472092Y3363073D01*
X4494067Y3353971D01*
X4505959Y3352800D01*
X4749800D01*
Y3098800D01*
X4064000D01*
Y3234582D01*
X4076917Y3238500D01*
X4203700D01*
X4245519Y3280319D01*
X4250397Y3285701D01*
X4258460Y3297765D01*
X4264013Y3311171D01*
X4266844Y3325403D01*
X4267199Y3332659D01*
X4267200Y3405046D01*
X4266657Y3405244D01*
X4261831Y3405810D01*
X4267200Y3405778D01*
X4267200Y3459065D01*
X4267200Y3459065D01*
X4267197Y3459068D01*
X4266426Y3474790D01*
X4260291Y3505636D01*
X4248256Y3534693D01*
X4230783Y3560844D01*
X4220209Y3572509D01*
X4237988Y3590288D01*
X4247866Y3581336D01*
D02*
G37*
G36*
X5396660Y3474975D02*
X5398236Y3470657D01*
X5400822Y3466847D01*
X5404417Y3463545D01*
X5409023Y3460751D01*
X5414638Y3458465D01*
X5421264Y3456687D01*
X5428899Y3455417D01*
X5437544Y3454655D01*
X5447199Y3454401D01*
Y3403601D01*
X5437547Y3403413D01*
X5421291Y3401913D01*
X5414687Y3400601D01*
X5409099Y3398914D01*
X5404527Y3396852D01*
X5400971Y3394415D01*
X5398431Y3391603D01*
X5396907Y3388416D01*
X5396399Y3384855D01*
X5396094Y3479801D01*
X5396660Y3474975D01*
D02*
G37*
G36*
X5068401Y3130855D02*
X4991096Y3134534D01*
X4913791Y3130855D01*
Y3269945D01*
X4915061Y3268797D01*
X4918871Y3267769D01*
X4925221Y3266862D01*
X4934111Y3266076D01*
X4965917Y3265067D01*
X5068401Y3269945D01*
Y3130855D01*
D02*
G37*
G36*
X3651019Y3321301D02*
X3652032Y3321249D01*
X3683000Y3321054D01*
Y3304544D01*
X3684362Y3304637D01*
X3685822Y3304918D01*
X3687379Y3305385D01*
X3689034Y3306039D01*
X3690786Y3306881D01*
X3692635Y3307909D01*
X3696627Y3310526D01*
X3698769Y3312115D01*
X3701008Y3313891D01*
Y3264716D01*
X3698769Y3266492D01*
X3692635Y3270699D01*
X3690786Y3271727D01*
X3689034Y3272568D01*
X3687379Y3273223D01*
X3685822Y3273690D01*
X3684362Y3273970D01*
X3683000Y3274064D01*
Y3257554D01*
X3650640Y3257249D01*
Y3321359D01*
X3651019Y3321301D01*
D02*
G37*
G36*
X944222Y3329422D02*
X962101Y3313573D01*
X970463Y3307134D01*
X978439Y3301686D01*
X986031Y3297228D01*
X993238Y3293761D01*
X1000059Y3291284D01*
X1006495Y3289798D01*
X1012546Y3289303D01*
Y3263903D01*
X1006495Y3263408D01*
X1000059Y3261922D01*
X993238Y3259445D01*
X986031Y3255978D01*
X978439Y3251521D01*
X970463Y3246072D01*
X962101Y3239633D01*
X944222Y3223784D01*
X934705Y3214373D01*
Y3338833D01*
X944222Y3329422D01*
D02*
G37*
G36*
X3705327Y3312115D02*
X3711461Y3307909D01*
X3713311Y3306881D01*
X3715063Y3306039D01*
X3716717Y3305385D01*
X3718274Y3304918D01*
X3719734Y3304637D01*
X3721096Y3304544D01*
Y3289304D01*
X3742845Y3279322D01*
X3752846Y3289324D01*
X3753284Y3286945D01*
X3754593Y3283898D01*
X3756775Y3280184D01*
X3759829Y3275802D01*
X3765343Y3268996D01*
X3783872Y3260492D01*
X3785366Y3260381D01*
X3788796Y3260615D01*
X3792162Y3261343D01*
X3788971Y3258152D01*
X3790274Y3257554D01*
X3788214Y3257395D01*
X3783686Y3252867D01*
X3783756Y3252166D01*
X3784698Y3249795D01*
X3786388Y3246993D01*
X3792015Y3240096D01*
X3795026Y3236964D01*
X3796469Y3235483D01*
X3774917Y3213931D01*
X3766527Y3222218D01*
X3759382Y3228563D01*
X3749057Y3218238D01*
X3749785Y3221604D01*
X3750019Y3225034D01*
X3749759Y3228528D01*
X3749003Y3232085D01*
X3747753Y3235706D01*
X3746009Y3239391D01*
X3744675Y3241623D01*
X3734598Y3250571D01*
X3730216Y3253625D01*
X3726502Y3255807D01*
X3723455Y3257116D01*
X3721076Y3257554D01*
X3725892Y3262370D01*
X3724659Y3263503D01*
X3718267Y3268676D01*
X3715489Y3270616D01*
X3713498Y3271817D01*
X3713311Y3271727D01*
X3711461Y3270699D01*
X3707469Y3268081D01*
X3705327Y3266492D01*
X3703088Y3264716D01*
Y3313891D01*
X3705327Y3312115D01*
D02*
G37*
G36*
X3354984Y3239551D02*
X3352394Y3238585D01*
X3350108Y3237015D01*
X3348126Y3234842D01*
X3346450Y3232065D01*
X3345078Y3228685D01*
X3344012Y3224701D01*
X3343611Y3222288D01*
X3343885Y3221153D01*
X3344266Y3220033D01*
X3344697Y3219161D01*
X3345180Y3218539D01*
X3343111D01*
X3342792Y3214923D01*
X3342640Y3209129D01*
X3312160D01*
X3312008Y3214923D01*
X3311689Y3218539D01*
X3309620D01*
X3310103Y3219161D01*
X3310534Y3220033D01*
X3310915Y3221153D01*
X3311189Y3222288D01*
X3310788Y3224701D01*
X3309722Y3228685D01*
X3308350Y3232065D01*
X3306674Y3234842D01*
X3304692Y3237015D01*
X3302406Y3238585D01*
X3299816Y3239551D01*
X3296920Y3239914D01*
X3357880D01*
X3354984Y3239551D01*
D02*
G37*
G36*
X2483053Y3105783D02*
X2484577Y3101653D01*
X2487117Y3098009D01*
X2490673Y3094850D01*
X2495245Y3092178D01*
X2500833Y3089991D01*
X2507437Y3088290D01*
X2515057Y3087076D01*
X2523693Y3086347D01*
X2533345Y3086104D01*
Y3035304D01*
X2523693Y3035061D01*
X2515057Y3034332D01*
X2507437Y3033117D01*
X2500833Y3031417D01*
X2495245Y3029230D01*
X2490673Y3026558D01*
X2487117Y3023400D01*
X2484577Y3019755D01*
X2483053Y3015625D01*
X2482545Y3011009D01*
Y3110399D01*
X2483053Y3105783D01*
D02*
G37*
G36*
X2343455Y3011009D02*
X2292655Y3035304D01*
Y3086104D01*
X2343455Y3110399D01*
Y3011009D01*
D02*
G37*
G36*
X2229053Y3105783D02*
X2230577Y3101653D01*
X2233117Y3098009D01*
X2236673Y3094850D01*
X2241245Y3092178D01*
X2246833Y3089991D01*
X2253437Y3088290D01*
X2261057Y3087076D01*
X2269693Y3086347D01*
X2279345Y3086104D01*
Y3035304D01*
X2269693Y3035061D01*
X2261057Y3034332D01*
X2253437Y3033117D01*
X2246833Y3031417D01*
X2241245Y3029230D01*
X2236673Y3026558D01*
X2233117Y3023400D01*
X2230577Y3019755D01*
X2229053Y3015625D01*
X2228545Y3011009D01*
Y3110399D01*
X2229053Y3105783D01*
D02*
G37*
G36*
X2089455Y3011009D02*
X2038655Y3035304D01*
Y3086104D01*
X2089455Y3110399D01*
Y3011009D01*
D02*
G37*
G36*
X1975053Y3105783D02*
X1976577Y3101653D01*
X1979117Y3098009D01*
X1982673Y3094850D01*
X1987245Y3092178D01*
X1992833Y3089991D01*
X1999437Y3088290D01*
X2007057Y3087076D01*
X2015693Y3086347D01*
X2025345Y3086104D01*
Y3035304D01*
X2015693Y3035061D01*
X2007057Y3034332D01*
X1999437Y3033117D01*
X1992833Y3031417D01*
X1987245Y3029230D01*
X1982673Y3026558D01*
X1979117Y3023400D01*
X1976577Y3019755D01*
X1975053Y3015625D01*
X1974545Y3011009D01*
Y3110399D01*
X1975053Y3105783D01*
D02*
G37*
G36*
X542387Y2974611D02*
X509368Y2973168D01*
Y3023968D01*
X528343Y3024622D01*
X542387Y2974611D01*
D02*
G37*
G36*
X4502353Y2991482D02*
X4503877Y2987351D01*
X4506417Y2983707D01*
X4509973Y2980548D01*
X4514545Y2977875D01*
X4520133Y2975688D01*
X4526737Y2973987D01*
X4534357Y2972772D01*
X4542993Y2972043D01*
X4552645Y2971800D01*
Y2921000D01*
X4542993Y2920757D01*
X4534357Y2920028D01*
X4526737Y2918814D01*
X4520133Y2917114D01*
X4514545Y2914927D01*
X4509973Y2912255D01*
X4506417Y2909097D01*
X4503877Y2905454D01*
X4502353Y2901324D01*
X4501845Y2896709D01*
Y2996099D01*
X4502353Y2991482D01*
D02*
G37*
G36*
X4362755Y2896709D02*
X4311955Y2921000D01*
Y2971800D01*
X4362755Y2996099D01*
Y2896709D01*
D02*
G37*
G36*
X4248353Y2991476D02*
X4249877Y2987346D01*
X4252417Y2983703D01*
X4255973Y2980545D01*
X4260545Y2977873D01*
X4266133Y2975686D01*
X4272737Y2973986D01*
X4280357Y2972772D01*
X4288993Y2972043D01*
X4298645Y2971800D01*
Y2921000D01*
X4288993Y2920757D01*
X4280357Y2920028D01*
X4272737Y2918813D01*
X4266133Y2917112D01*
X4260545Y2914925D01*
X4255973Y2912252D01*
X4252417Y2909093D01*
X4249877Y2905449D01*
X4248353Y2901318D01*
X4247845Y2896701D01*
Y2996091D01*
X4248353Y2991476D01*
D02*
G37*
G36*
X5068714Y2895600D02*
X5068148Y2900426D01*
X5066572Y2904744D01*
X5063986Y2908554D01*
X5060391Y2911856D01*
X5055785Y2914650D01*
X5050170Y2916936D01*
X5043544Y2918714D01*
X5035909Y2919984D01*
X5027264Y2920746D01*
X5017609Y2921000D01*
Y2971800D01*
X5027264Y2972054D01*
X5035909Y2972816D01*
X5043544Y2974086D01*
X5050170Y2975864D01*
X5055785Y2978150D01*
X5060391Y2980944D01*
X5063986Y2984246D01*
X5066572Y2988056D01*
X5068148Y2992374D01*
X5068714Y2997200D01*
Y2895600D01*
D02*
G37*
G36*
X2855089Y2795715D02*
X2852930Y2794901D01*
X2851025Y2793585D01*
X2849374Y2791767D01*
X2847977Y2789448D01*
X2846834Y2786626D01*
X2845945Y2783303D01*
X2845310Y2779478D01*
X2844929Y2775151D01*
X2844802Y2770322D01*
X2819402D01*
X2819275Y2775151D01*
X2818894Y2779478D01*
X2818259Y2783303D01*
X2817370Y2786626D01*
X2816227Y2789448D01*
X2814830Y2791767D01*
X2813179Y2793585D01*
X2811274Y2794901D01*
X2809115Y2795715D01*
X2806702Y2796026D01*
X2857502D01*
X2855089Y2795715D01*
D02*
G37*
G36*
X2392076Y2782714D02*
X2388484Y2782476D01*
X2384892Y2781886D01*
X2381300Y2780942D01*
X2377708Y2779645D01*
X2374116Y2777995D01*
X2370524Y2775992D01*
X2366931Y2773636D01*
X2363339Y2770926D01*
X2359747Y2767864D01*
X2356155Y2764448D01*
X2325494Y2769709D01*
X2328910Y2773301D01*
X2331972Y2776893D01*
X2334682Y2780485D01*
X2337038Y2784077D01*
X2339041Y2787669D01*
X2340691Y2791261D01*
X2341988Y2794853D01*
X2342932Y2798446D01*
X2343522Y2802038D01*
X2343760Y2805630D01*
X2392076Y2782714D01*
D02*
G37*
G36*
X2194687Y2782402D02*
X2192528Y2781588D01*
X2190623Y2780272D01*
X2188972Y2778455D01*
X2187575Y2776135D01*
X2186432Y2773314D01*
X2185543Y2769990D01*
X2184908Y2766165D01*
X2184527Y2761838D01*
X2184400Y2757009D01*
X2159000D01*
X2158873Y2761838D01*
X2158492Y2766165D01*
X2157857Y2769990D01*
X2156968Y2773314D01*
X2155825Y2776135D01*
X2154428Y2778455D01*
X2152777Y2780272D01*
X2150872Y2781588D01*
X2148713Y2782402D01*
X2146300Y2782714D01*
X2197100D01*
X2194687Y2782402D01*
D02*
G37*
G36*
X1877187D02*
X1875028Y2781588D01*
X1873123Y2780272D01*
X1871472Y2778455D01*
X1870075Y2776135D01*
X1868932Y2773314D01*
X1868043Y2769990D01*
X1867408Y2766165D01*
X1867027Y2761838D01*
X1866900Y2757009D01*
X1841500D01*
X1841440Y2761835D01*
X1840533Y2773265D01*
X1839989Y2776059D01*
X1839324Y2778345D01*
X1838538Y2780123D01*
X1837631Y2781393D01*
X1836603Y2782155D01*
X1835455Y2782409D01*
X1879600Y2782714D01*
X1877187Y2782402D01*
D02*
G37*
G36*
X939800Y2933700D02*
X762000D01*
X698500Y2870200D01*
Y2705100D01*
X521602Y2705099D01*
X506362Y2704351D01*
X476468Y2698405D01*
X448308Y2686741D01*
X422965Y2669807D01*
X411661Y2659560D01*
X411660Y2659561D01*
X411660Y2659560D01*
X401903Y2648796D01*
X385780Y2624665D01*
X374674Y2597853D01*
X369012Y2569389D01*
X368300Y2554878D01*
Y2336800D01*
X254000D01*
X253033Y2335833D01*
X241300Y2340694D01*
Y2563540D01*
X244029Y2591249D01*
X249461Y2618558D01*
X257544Y2645202D01*
X268199Y2670927D01*
X281324Y2695482D01*
X296793Y2718633D01*
X314457Y2740157D01*
X324301Y2750001D01*
Y2750001D01*
X698500Y3124200D01*
X939800D01*
Y2933700D01*
D02*
G37*
G36*
X3302000Y2641600D02*
X2809356D01*
X2804495Y2653333D01*
X2853818Y2702656D01*
X2855846Y2704683D01*
X2857473Y2706898D01*
X2858153Y2707352D01*
X2861618Y2712537D01*
X2866607Y2719137D01*
X2867551Y2721416D01*
X2867697Y2721635D01*
X2867748Y2721891D01*
X2868200Y2722983D01*
X2873517Y2735820D01*
X2875377Y2749947D01*
X2876128Y2753723D01*
Y2771814D01*
X2879477Y2774052D01*
X2880596Y2775726D01*
X2882113Y2777050D01*
X2883935Y2780723D01*
X2886214Y2784134D01*
X2886606Y2786108D01*
X2887501Y2787912D01*
X2887779Y2792005D01*
X2888458Y2795417D01*
X2997102D01*
Y2866367D01*
X2832102D01*
X2667102D01*
Y2795417D01*
X2775746D01*
X2776425Y2792005D01*
X2776703Y2787912D01*
X2777598Y2786108D01*
X2777990Y2784134D01*
X2780269Y2780723D01*
X2782091Y2777050D01*
X2783608Y2775726D01*
X2784727Y2774052D01*
X2785929Y2773249D01*
X2786752Y2760114D01*
X2685264Y2658626D01*
X2641600D01*
Y3111500D01*
X3302000D01*
Y2641600D01*
D02*
G37*
G36*
X2095246Y2628901D02*
X2093795Y2628815D01*
X2092286Y2628528D01*
X2090720Y2628039D01*
X2089096Y2627350D01*
X2087415Y2626459D01*
X2085677Y2625367D01*
X2083881Y2624074D01*
X2082028Y2622580D01*
X2078150Y2618989D01*
X2060189Y2636950D01*
X2062085Y2638918D01*
X2065274Y2642681D01*
X2066567Y2644477D01*
X2067659Y2646215D01*
X2068550Y2647896D01*
X2069239Y2649520D01*
X2069728Y2651086D01*
X2070015Y2652595D01*
X2070101Y2654046D01*
X2095246Y2628901D01*
D02*
G37*
G36*
X8813800Y2681879D02*
X8753381Y2681878D01*
X8729125Y2680687D01*
X8681546Y2671223D01*
X8636728Y2652658D01*
X8596392Y2625707D01*
X8578399Y2609399D01*
X8578398Y2609399D01*
Y2609398D01*
X8562881Y2593881D01*
X8552253Y2582718D01*
X8532701Y2558894D01*
X8515579Y2533269D01*
X8501051Y2506089D01*
X8489257Y2477616D01*
X8480311Y2448124D01*
X8474299Y2417898D01*
X8471278Y2387227D01*
X8470900Y2371817D01*
Y2273300D01*
X8470899Y652960D01*
X8470899Y635767D01*
X8467529Y601547D01*
X8460821Y567822D01*
X8450840Y534917D01*
X8437681Y503149D01*
X8421471Y472824D01*
X8402367Y444234D01*
X8380552Y417653D01*
X8368396Y405497D01*
X8368395Y405497D01*
X8368396Y405496D01*
X8280400Y317499D01*
X8262325Y299424D01*
X8222805Y266992D01*
X8180297Y238589D01*
X8135210Y214489D01*
X8087977Y194924D01*
X8039055Y180084D01*
X7988913Y170110D01*
X7938035Y165100D01*
X7912473Y165100D01*
X6119221D01*
X6098600Y165100D01*
X6058151Y173145D01*
X6020050Y188927D01*
X5985759Y211839D01*
X5971178Y226420D01*
X5971179Y226421D01*
X5941420Y256179D01*
X5923046Y272833D01*
X5881857Y300356D01*
X5836090Y319314D01*
X5787504Y328978D01*
X5762736Y330195D01*
X5762735Y330196D01*
Y330196D01*
X5308600D01*
Y1079500D01*
X5664200D01*
Y1349634D01*
X5670550Y1359704D01*
X5676900Y1359704D01*
X5694546D01*
X5694426Y1359748D01*
X5689600Y1360314D01*
X5721350D01*
Y1409704D01*
Y1459704D01*
X5684114D01*
X5676622Y1472100D01*
X5676615Y1472404D01*
X5677054Y1473200D01*
X5867400D01*
Y1009463D01*
X5867993Y985279D01*
X5872734Y937144D01*
X5882170Y889705D01*
X5896210Y843420D01*
X5914720Y798734D01*
X5937520Y756077D01*
X5964392Y715861D01*
X5995076Y678472D01*
X6011757Y660951D01*
X6011757Y660952D01*
X6322973Y349736D01*
X6337282Y336768D01*
X6369357Y315336D01*
X6404997Y300573D01*
X6442832Y293047D01*
X6462120Y292100D01*
X6700520D01*
Y287020D01*
X6731000D01*
Y260350D01*
X6807200D01*
Y241300D01*
D01*
Y260350D01*
X6883400D01*
Y287020D01*
X6913880D01*
Y292100D01*
X7492471D01*
X7528640Y292988D01*
X7600630Y300078D01*
X7671579Y314191D01*
X7740802Y335189D01*
X7807634Y362872D01*
X7871430Y396972D01*
X7931577Y437161D01*
X7987496Y483052D01*
X8013699Y507999D01*
X8013700Y508000D01*
X8083362Y577663D01*
X8113468Y609283D01*
X8168847Y676763D01*
X8217345Y749345D01*
X8258495Y826332D01*
X8291901Y906981D01*
X8317241Y990517D01*
X8334271Y1076134D01*
X8342827Y1163008D01*
X8343899Y1206655D01*
X8343900Y1206655D01*
Y2273300D01*
Y2681879D01*
X8343900Y2702499D01*
X8351945Y2742947D01*
X8367728Y2781049D01*
X8390640Y2815339D01*
X8405221Y2829920D01*
X8405221Y2829921D01*
X8610600Y3035300D01*
X8813800D01*
Y2681879D01*
D02*
G37*
G36*
X1397085Y2639895D02*
X1397372Y2638386D01*
X1397861Y2636820D01*
X1398550Y2635196D01*
X1399441Y2633515D01*
X1400533Y2631777D01*
X1401826Y2629981D01*
X1403320Y2628128D01*
X1406911Y2624250D01*
X1388950Y2606289D01*
X1386982Y2608185D01*
X1383219Y2611374D01*
X1381423Y2612667D01*
X1379685Y2613759D01*
X1378004Y2614650D01*
X1376380Y2615339D01*
X1374814Y2615828D01*
X1373305Y2616115D01*
X1371854Y2616201D01*
X1396999Y2641346D01*
X1397085Y2639895D01*
D02*
G37*
G36*
X6654800Y1905000D02*
X6781800Y1778000D01*
X7086600D01*
Y1168400D01*
X6934200Y1016000D01*
X6680200D01*
X6604000Y1092200D01*
X6073826Y1092200D01*
X6073826Y1092200D01*
X6061969Y1098760D01*
X6040207Y1114914D01*
X6020782Y1133814D01*
X6004040Y1155126D01*
X5990275Y1178473D01*
X5979733Y1203440D01*
X5972599Y1229587D01*
X5969000Y1256449D01*
X5969000Y1270000D01*
Y1549400D01*
X5613400D01*
Y1435100D01*
X5410200D01*
Y1917700D01*
X5880100D01*
Y2603500D01*
X5913458D01*
Y2572554D01*
X5996008D01*
X6078558D01*
Y2603500D01*
X6167458D01*
Y2572554D01*
X6250008D01*
X6332558D01*
Y2603500D01*
X6654800D01*
Y1905000D01*
D02*
G37*
G36*
X1866900Y2565400D02*
X1877454Y2554846D01*
Y2554100D01*
X1880091Y2540842D01*
X1887602Y2529602D01*
X1898842Y2522091D01*
X1902690Y2521326D01*
X1901439Y2508626D01*
X1739900D01*
Y2527300D01*
X1760039D01*
X1767294Y2527656D01*
X1781526Y2530487D01*
X1794932Y2536040D01*
X1806997Y2544102D01*
X1812380Y2548980D01*
X1812380D01*
X1830694Y2567295D01*
X1833126Y2569977D01*
X1837143Y2575990D01*
X1839911Y2582671D01*
X1841321Y2589764D01*
X1841499Y2593380D01*
X1841500Y2593381D01*
Y2654702D01*
X1866900D01*
Y2565400D01*
D02*
G37*
G36*
X2550018Y2446415D02*
X2553781Y2443226D01*
X2555577Y2441933D01*
X2557315Y2440841D01*
X2558996Y2439950D01*
X2560620Y2439261D01*
X2562186Y2438772D01*
X2563695Y2438485D01*
X2565146Y2438399D01*
X2540001Y2413254D01*
X2539915Y2414705D01*
X2539628Y2416214D01*
X2539139Y2417780D01*
X2538450Y2419404D01*
X2537559Y2421085D01*
X2536467Y2422823D01*
X2535174Y2424619D01*
X2533680Y2426472D01*
X2530089Y2430350D01*
X2548050Y2448311D01*
X2550018Y2446415D01*
D02*
G37*
G36*
X2844929Y2355687D02*
X2845310Y2351369D01*
X2845945Y2347559D01*
X2846834Y2344257D01*
X2847977Y2341463D01*
X2849374Y2339177D01*
X2851025Y2337399D01*
X2852930Y2336129D01*
X2855089Y2335367D01*
X2857502Y2335113D01*
X2806702D01*
X2809115Y2335367D01*
X2811274Y2336129D01*
X2813179Y2337399D01*
X2814830Y2339177D01*
X2816227Y2341463D01*
X2817370Y2344257D01*
X2818259Y2347559D01*
X2818894Y2351369D01*
X2819275Y2355687D01*
X2819402Y2360513D01*
X2844802D01*
X2844929Y2355687D01*
D02*
G37*
G36*
X5666010Y2235200D02*
X5665444Y2240026D01*
X5663868Y2244344D01*
X5661282Y2248154D01*
X5657687Y2251456D01*
X5653081Y2254250D01*
X5647466Y2256536D01*
X5640840Y2258314D01*
X5633205Y2259584D01*
X5624560Y2260346D01*
X5619948Y2260467D01*
X5615336Y2260346D01*
X5606691Y2259584D01*
X5599056Y2258314D01*
X5592430Y2256536D01*
X5586815Y2254250D01*
X5582209Y2251456D01*
X5578614Y2248154D01*
X5576028Y2244344D01*
X5574452Y2240026D01*
X5573886Y2235200D01*
Y2336800D01*
X5574452Y2331974D01*
X5576028Y2327656D01*
X5578614Y2323846D01*
X5582209Y2320544D01*
X5586815Y2317750D01*
X5592430Y2315464D01*
X5599056Y2313686D01*
X5606691Y2312416D01*
X5615336Y2311654D01*
X5619948Y2311533D01*
X5624560Y2311654D01*
X5633205Y2312416D01*
X5640840Y2313686D01*
X5647466Y2315464D01*
X5653081Y2317750D01*
X5657687Y2320544D01*
X5661282Y2323846D01*
X5663868Y2327656D01*
X5665444Y2331974D01*
X5666010Y2336800D01*
Y2235200D01*
D02*
G37*
G36*
X3060700Y1989542D02*
Y1989541D01*
X3061093Y1973509D01*
X3064236Y1941598D01*
X3070492Y1910149D01*
X3079800Y1879465D01*
X3092071Y1849840D01*
X3107186Y1821561D01*
X3125001Y1794900D01*
X3145343Y1770113D01*
X3156401Y1758498D01*
X3228616Y1686283D01*
X3228616Y1686282D01*
X3252936Y1663128D01*
X3304835Y1620535D01*
X3360660Y1583234D01*
X3419871Y1551585D01*
X3481900Y1525892D01*
X3546148Y1506402D01*
X3611998Y1493304D01*
X3678814Y1486724D01*
X3712384Y1485900D01*
X4303410D01*
X4353840Y1488119D01*
Y1432849D01*
X4318000Y1434426D01*
Y1206500D01*
X2959101Y1206500D01*
X2959101Y1206500D01*
X2941620Y1206500D01*
X2906958Y1211063D01*
X2873188Y1220111D01*
X2840889Y1233490D01*
X2810611Y1250970D01*
X2782875Y1272253D01*
X2758154Y1296974D01*
X2736871Y1324710D01*
X2719390Y1354987D01*
X2706011Y1387287D01*
X2696963Y1421057D01*
X2692400Y1455719D01*
X2692400Y1473199D01*
Y1651000D01*
X2489200D01*
X2489200Y1905000D01*
X2508250D01*
Y1981200D01*
Y2057400D01*
X2489200D01*
Y2146299D01*
X2489200Y2163811D01*
X2496032Y2198162D01*
X2509435Y2230519D01*
X2528893Y2259641D01*
X2553659Y2284406D01*
X2582780Y2303864D01*
X2615137Y2317267D01*
X2649488Y2324100D01*
X2667000Y2324099D01*
X2667102D01*
Y2264468D01*
X2832102D01*
X2997102D01*
Y2324100D01*
X3060700D01*
Y1989542D01*
D02*
G37*
G36*
X5345704Y2300971D02*
X5346834Y2293786D01*
X5348677Y2286600D01*
X5351232Y2279415D01*
X5354501Y2272228D01*
X5358482Y2265041D01*
X5363176Y2257854D01*
X5368583Y2250666D01*
X5374703Y2243478D01*
X5381536Y2236289D01*
X5352749Y2193234D01*
X5345565Y2200062D01*
X5338381Y2206177D01*
X5331197Y2211581D01*
X5324012Y2216272D01*
X5316828Y2220251D01*
X5309644Y2223517D01*
X5302460Y2226071D01*
X5295276Y2227913D01*
X5288092Y2229043D01*
X5280907Y2229460D01*
X5345286Y2308155D01*
X5345704Y2300971D01*
D02*
G37*
G36*
X5765800Y2160505D02*
X5715000D01*
X5689600Y2211305D01*
X5791200D01*
X5765800Y2160505D01*
D02*
G37*
G36*
X5766071Y2140568D02*
X5766884Y2133746D01*
X5768239Y2127101D01*
X5770136Y2120634D01*
X5772575Y2114344D01*
X5775556Y2108232D01*
X5779079Y2102298D01*
X5783144Y2096541D01*
X5787751Y2090962D01*
X5792900Y2085561D01*
X5687900D01*
X5693049Y2090962D01*
X5697656Y2096541D01*
X5701721Y2102298D01*
X5705244Y2108232D01*
X5708225Y2114344D01*
X5710664Y2120634D01*
X5712561Y2127101D01*
X5713916Y2133746D01*
X5714729Y2140568D01*
X5715000Y2147568D01*
X5765800D01*
X5766071Y2140568D01*
D02*
G37*
G36*
X6972605Y2044760D02*
X6983899Y2044700D01*
Y1917700D01*
X6972605Y1917162D01*
Y1911655D01*
X6914752Y1914409D01*
X6856899Y1911655D01*
Y1917162D01*
X6845605Y1917700D01*
Y2044700D01*
X6856899Y2045238D01*
Y2050745D01*
X6858169Y2049597D01*
X6861979Y2048569D01*
X6868329Y2047662D01*
X6877219Y2046876D01*
X6885682Y2046608D01*
X6972605Y2050745D01*
Y2044760D01*
D02*
G37*
G36*
X4985055Y2045801D02*
X4934255Y2070096D01*
Y2120896D01*
X4985055Y2145191D01*
Y2045801D01*
D02*
G37*
G36*
X4863507Y2125796D02*
X4865031Y2124767D01*
X4867571Y2123860D01*
X4871127Y2123074D01*
X4875699Y2122408D01*
X4887891Y2121440D01*
X4913799Y2120896D01*
Y2070096D01*
X4904144Y2069842D01*
X4895499Y2069080D01*
X4887864Y2067810D01*
X4881238Y2066032D01*
X4875623Y2063746D01*
X4871017Y2060952D01*
X4867422Y2057650D01*
X4864836Y2053840D01*
X4863260Y2049522D01*
X4862694Y2044696D01*
X4862999Y2126945D01*
X4863507Y2125796D01*
D02*
G37*
G36*
X5462143Y2156038D02*
X5469327Y2149923D01*
X5476512Y2144519D01*
X5483696Y2139828D01*
X5490880Y2135849D01*
X5498064Y2132583D01*
X5505248Y2130029D01*
X5512432Y2128187D01*
X5519617Y2127057D01*
X5526801Y2126640D01*
X5475114Y2035253D01*
X5474517Y2042617D01*
X5472849Y2050340D01*
X5470109Y2058422D01*
X5466298Y2066864D01*
X5461415Y2075664D01*
X5455460Y2084824D01*
X5448434Y2094343D01*
X5431168Y2114459D01*
X5420927Y2125056D01*
X5454959Y2162866D01*
X5462143Y2156038D01*
D02*
G37*
G36*
X1893706Y1955800D02*
X1893140Y1960626D01*
X1891564Y1964944D01*
X1888978Y1968754D01*
X1885383Y1972056D01*
X1880777Y1974850D01*
X1875162Y1977136D01*
X1868536Y1978914D01*
X1860901Y1980184D01*
X1852256Y1980946D01*
X1842601Y1981200D01*
Y2032000D01*
X1852256Y2032254D01*
X1860901Y2033016D01*
X1868536Y2034286D01*
X1875162Y2036064D01*
X1880777Y2038350D01*
X1885383Y2041144D01*
X1888978Y2044446D01*
X1891564Y2048256D01*
X1893140Y2052574D01*
X1893706Y2057400D01*
Y1955800D01*
D02*
G37*
G36*
X5321304Y1937055D02*
X5270504D01*
X5246209Y1987855D01*
X5345599D01*
X5321304Y1937055D01*
D02*
G37*
G36*
X4838704D02*
X4787904D01*
X4763609Y1987855D01*
X4862999D01*
X4838704Y1937055D01*
D02*
G37*
G36*
X5321547Y1914093D02*
X5322276Y1905457D01*
X5323490Y1897837D01*
X5325191Y1891233D01*
X5327378Y1885645D01*
X5330050Y1881073D01*
X5333209Y1877517D01*
X5336853Y1874977D01*
X5340983Y1873453D01*
X5345599Y1872945D01*
X5246209D01*
X5250825Y1873453D01*
X5254955Y1874977D01*
X5258600Y1877517D01*
X5261758Y1881073D01*
X5264430Y1885645D01*
X5266617Y1891233D01*
X5268318Y1897837D01*
X5269532Y1905457D01*
X5270261Y1914093D01*
X5270504Y1923745D01*
X5321304D01*
X5321547Y1914093D01*
D02*
G37*
G36*
X1828800Y1600200D02*
X2616200D01*
Y1371600D01*
X1828800D01*
Y177800D01*
X1168400D01*
Y1282700D01*
X1168400Y1282700D01*
X1168395Y1282703D01*
X1167785Y1295145D01*
X1162929Y1319563D01*
X1153402Y1342565D01*
X1139571Y1363266D01*
X1121967Y1380871D01*
X1101267Y1394703D01*
X1078266Y1404231D01*
X1053848Y1409088D01*
X1041400Y1409699D01*
X825500Y1409700D01*
Y1536700D01*
X1054098Y1536700D01*
X1067638Y1537032D01*
X1094588Y1539686D01*
X1121148Y1544968D01*
X1147062Y1552829D01*
X1172081Y1563192D01*
X1195964Y1575958D01*
X1218480Y1591003D01*
X1239413Y1608183D01*
X1249222Y1617522D01*
X1346837Y1715137D01*
X1346837Y1715137D01*
Y1715137D01*
X1360318Y1728618D01*
X1389791Y1752807D01*
X1421494Y1773990D01*
X1455121Y1791964D01*
X1490348Y1806555D01*
X1526835Y1817624D01*
X1564231Y1825062D01*
X1602177Y1828800D01*
X1621241Y1828799D01*
X1828800Y1828800D01*
Y1600200D01*
D02*
G37*
G36*
X5318051Y1734160D02*
X5310867Y1733743D01*
X5303683Y1732613D01*
X5296498Y1730771D01*
X5289314Y1728217D01*
X5282130Y1724951D01*
X5274946Y1720972D01*
X5267762Y1716281D01*
X5260577Y1710877D01*
X5253393Y1704762D01*
X5246209Y1697934D01*
X5210288Y1733855D01*
X5217116Y1741039D01*
X5223232Y1748223D01*
X5228635Y1755407D01*
X5233326Y1762592D01*
X5237305Y1769776D01*
X5240571Y1776960D01*
X5243125Y1784144D01*
X5244967Y1791328D01*
X5246097Y1798513D01*
X5246514Y1805697D01*
X5318051Y1734160D01*
D02*
G37*
G36*
X4843019Y1758466D02*
X4847076Y1755026D01*
X4851482Y1751983D01*
X4856237Y1749337D01*
X4861341Y1747089D01*
X4866793Y1745239D01*
X4872595Y1743786D01*
X4878745Y1742731D01*
X4885244Y1742074D01*
X4892091Y1741814D01*
X4846600Y1686849D01*
X4804488Y1720364D01*
X4839311Y1762305D01*
X4843019Y1758466D01*
D02*
G37*
G36*
X2286000Y2095499D02*
Y2095499D01*
X2301010Y2095499D01*
X2330453Y2089643D01*
X2358188Y2078155D01*
X2370243Y2070100D01*
X2366390Y2057400D01*
X2349500D01*
Y2000250D01*
X2400300D01*
Y1981200D01*
X2419350D01*
Y1905000D01*
X2438399D01*
X2438400Y1651000D01*
X2277049D01*
X2265260Y1653200D01*
X2265260Y1663700D01*
Y1684150D01*
X2145260D01*
X2025260D01*
Y1653200D01*
X2013471Y1651000D01*
X1917700D01*
Y1828800D01*
X2108200D01*
Y2095500D01*
X2285999D01*
X2286000Y2095499D01*
D02*
G37*
G36*
X5044458Y1614694D02*
X5045498Y1614314D01*
X5047232Y1613979D01*
X5049660Y1613688D01*
X5056597Y1613241D01*
X5078796Y1612884D01*
Y1562084D01*
X5072206Y1562061D01*
X5044458Y1560273D01*
X5044111Y1559849D01*
Y1615119D01*
X5044458Y1614694D01*
D02*
G37*
G36*
X4353840Y1559849D02*
X4303040Y1562084D01*
Y1612884D01*
X4353840Y1615119D01*
Y1559849D01*
D02*
G37*
G36*
X4210253Y1632573D02*
X4211777Y1628440D01*
X4214317Y1624794D01*
X4217873Y1621634D01*
X4222445Y1618960D01*
X4228033Y1616773D01*
X4234637Y1615071D01*
X4242257Y1613856D01*
X4250893Y1613127D01*
X4260545Y1612884D01*
Y1562084D01*
X4250893Y1561841D01*
X4242257Y1561112D01*
X4234637Y1559898D01*
X4228033Y1558199D01*
X4222445Y1556013D01*
X4217873Y1553342D01*
X4214317Y1550185D01*
X4211777Y1546543D01*
X4210253Y1542414D01*
X4209745Y1537801D01*
Y1637191D01*
X4210253Y1632573D01*
D02*
G37*
G36*
X5246201Y1479855D02*
X5195401Y1479550D01*
Y1530350D01*
X5205056Y1530604D01*
X5213701Y1531366D01*
X5221336Y1532636D01*
X5227962Y1534414D01*
X5233577Y1536700D01*
X5238183Y1539494D01*
X5241778Y1542796D01*
X5244364Y1546606D01*
X5245940Y1550924D01*
X5246506Y1555750D01*
X5246201Y1479855D01*
D02*
G37*
G36*
X5321296Y1429055D02*
X5270496D01*
X5246201Y1479855D01*
X5345591D01*
X5321296Y1429055D01*
D02*
G37*
G36*
X4673600Y1803400D02*
X4810456Y1666544D01*
X4815815Y1656064D01*
Y1645903D01*
X4815816D01*
Y1529064D01*
X4815815D01*
Y1518903D01*
X4815816D01*
Y1402064D01*
X4815815D01*
Y1391903D01*
X4815816D01*
Y1375615D01*
X4810296Y1373328D01*
X4808043Y1371600D01*
X4589566D01*
X4587696Y1373035D01*
X4582136Y1375338D01*
Y1391903D01*
X4582136D01*
Y1402064D01*
X4582136D01*
Y1518903D01*
X4582136D01*
Y1529064D01*
X4582136D01*
Y1645904D01*
X4572000D01*
Y1651000D01*
X4318000D01*
X4267200Y1701800D01*
X3797300D01*
Y2349500D01*
X4673600D01*
Y1803400D01*
D02*
G37*
G36*
X5091645Y1366720D02*
X5114757Y1357147D01*
X5135558Y1343248D01*
X5153248Y1325558D01*
X5167146Y1304757D01*
X5176719Y1281644D01*
X5181599Y1257107D01*
X5181598Y1244599D01*
X5181600Y330196D01*
X4368800D01*
Y914400D01*
X4699000D01*
Y1157877D01*
X4698999Y1178497D01*
X4707044Y1218946D01*
X4722826Y1257048D01*
X4745739Y1291338D01*
X4760320Y1305919D01*
X4775937Y1321537D01*
X4804350Y1340523D01*
X4808043D01*
X4812030Y1341316D01*
X4816087Y1341582D01*
X4817926Y1342489D01*
X4819936Y1342888D01*
X4823069Y1344982D01*
X4827708Y1346903D01*
X4827708Y1346903D01*
X4833596Y1350837D01*
X4833648Y1350814D01*
X4846600Y1361119D01*
X4892092Y1306153D01*
X4885243Y1305894D01*
X4881783Y1305544D01*
X4926306D01*
Y1333484D01*
X4945356D01*
Y1352534D01*
X5044416D01*
Y1361423D01*
X5045668Y1363514D01*
X5054600Y1371599D01*
Y1371599D01*
X5054600Y1371599D01*
X5067108Y1371600D01*
X5091645Y1366720D01*
D02*
G37*
G36*
X5321539Y1406093D02*
X5322268Y1397457D01*
X5323483Y1389837D01*
X5325184Y1383233D01*
X5327372Y1377645D01*
X5330045Y1373073D01*
X5333204Y1369517D01*
X5336850Y1366977D01*
X5340981Y1365453D01*
X5345599Y1364945D01*
X5246209D01*
X5250823Y1365453D01*
X5254952Y1366977D01*
X5258595Y1369517D01*
X5261753Y1373073D01*
X5264424Y1377645D01*
X5266610Y1383233D01*
X5268310Y1389837D01*
X5269524Y1397457D01*
X5270253Y1406093D01*
X5270496Y1415745D01*
X5321296D01*
X5321539Y1406093D01*
D02*
G37*
G36*
X2616200Y736600D02*
X3187700D01*
Y177800D01*
X2286000D01*
Y457200D01*
X2197100Y546100D01*
X1905000D01*
Y1295400D01*
X2013471D01*
X2025260Y1293200D01*
X2025260Y1282700D01*
Y1262250D01*
X2145260D01*
X2265260D01*
Y1293200D01*
X2277049Y1295400D01*
X2616200D01*
Y736600D01*
D02*
G37*
G36*
X4610339Y1152093D02*
X4611068Y1143457D01*
X4612282Y1135837D01*
X4613983Y1129233D01*
X4616170Y1123645D01*
X4618842Y1119073D01*
X4622000Y1115517D01*
X4625645Y1112977D01*
X4629775Y1111453D01*
X4634391Y1110945D01*
X4535001D01*
X4539617Y1111453D01*
X4543747Y1112977D01*
X4547391Y1115517D01*
X4550550Y1119073D01*
X4553222Y1123645D01*
X4555409Y1129233D01*
X4557110Y1135837D01*
X4558324Y1143457D01*
X4559053Y1152093D01*
X4559296Y1161745D01*
X4610096D01*
X4610339Y1152093D01*
D02*
G37*
G36*
X3933551Y1160238D02*
X3928944Y1154659D01*
X3924879Y1148902D01*
X3921356Y1142968D01*
X3918375Y1136856D01*
X3915936Y1130566D01*
X3914039Y1124099D01*
X3912684Y1117454D01*
X3911871Y1110632D01*
X3911600Y1103632D01*
X3860800D01*
X3860529Y1110632D01*
X3859716Y1117454D01*
X3858361Y1124099D01*
X3856464Y1130566D01*
X3854025Y1136856D01*
X3851044Y1142968D01*
X3847521Y1148902D01*
X3843456Y1154659D01*
X3838849Y1160238D01*
X3833700Y1165639D01*
X3938700D01*
X3933551Y1160238D01*
D02*
G37*
G36*
X3911854Y1081040D02*
X3912616Y1072395D01*
X3913886Y1064760D01*
X3915664Y1058134D01*
X3917950Y1052519D01*
X3920744Y1047913D01*
X3924046Y1044318D01*
X3927856Y1041732D01*
X3932174Y1040156D01*
X3937000Y1039590D01*
X3835400D01*
X3840226Y1040156D01*
X3844544Y1041732D01*
X3848354Y1044318D01*
X3851656Y1047913D01*
X3854450Y1052519D01*
X3856736Y1058134D01*
X3858514Y1064760D01*
X3859784Y1072395D01*
X3860546Y1081040D01*
X3860800Y1090695D01*
X3911600D01*
X3911854Y1081040D01*
D02*
G37*
G36*
X4264711Y999525D02*
X4261502Y992058D01*
X4258670Y982680D01*
X4256216Y971392D01*
X4254139Y958193D01*
X4251119Y926063D01*
X4249609Y886290D01*
X4249420Y863537D01*
X4122420D01*
X4122231Y886290D01*
X4117701Y958193D01*
X4115624Y971392D01*
X4113170Y982680D01*
X4110338Y992058D01*
X4107129Y999525D01*
X4103542Y1005081D01*
X4268298D01*
X4264711Y999525D01*
D02*
G37*
G36*
X4228185Y750796D02*
X4137895Y626505D01*
X4042845Y795590D01*
X4054288Y796071D01*
X4064955Y797392D01*
X4074849Y799553D01*
X4083968Y802554D01*
X4092313Y806395D01*
X4099883Y811076D01*
X4106679Y816597D01*
X4112700Y822958D01*
X4117947Y830159D01*
X4122420Y838200D01*
X4228185Y750796D01*
D02*
G37*
G36*
X4079419Y661404D02*
X4076099Y654456D01*
X4073169Y645485D01*
X4070631Y634489D01*
X4069364Y626810D01*
X4089000D01*
X4084174Y626244D01*
X4079856Y624668D01*
X4076046Y622082D01*
X4072744Y618487D01*
X4069950Y613881D01*
X4067664Y608266D01*
X4066933Y605540D01*
X4065358Y589355D01*
X4063796Y549143D01*
X4063600Y526001D01*
X4012800D01*
X4012605Y549143D01*
X4008785Y608083D01*
X4008736Y608266D01*
X4006450Y613881D01*
X4003656Y618487D01*
X4000354Y622082D01*
X3996544Y624668D01*
X3992226Y626244D01*
X3987400Y626810D01*
X4007037D01*
X4005770Y634489D01*
X4003231Y645485D01*
X4000302Y654456D01*
X3996982Y661404D01*
X3993271Y666327D01*
X4083130D01*
X4079419Y661404D01*
D02*
G37*
G36*
X2096601Y444858D02*
X2100275Y444742D01*
X2145995Y444500D01*
Y317500D01*
X2096601Y315149D01*
Y311455D01*
X2057798Y313302D01*
X2018995Y311455D01*
Y315149D01*
X1969601Y317500D01*
Y444500D01*
X2018995Y446851D01*
Y450545D01*
X2020265Y449397D01*
X2024075Y448369D01*
X2030425Y447462D01*
X2030917Y447419D01*
X2096601Y450545D01*
Y444858D01*
D02*
G37*
G36*
X6857098Y711199D02*
X6878451Y711200D01*
X6920336Y702868D01*
X6926093Y700483D01*
X6935542Y693029D01*
X6933666Y683600D01*
X6929488Y683600D01*
X6839990D01*
Y652650D01*
X6940940D01*
Y673365D01*
X6940940Y680587D01*
X6947223Y686652D01*
Y686653D01*
X6947223D01*
X6959043Y686835D01*
X6959792Y686525D01*
X6995300Y662798D01*
X7010399Y647699D01*
Y647699D01*
X7010399Y647699D01*
X7034004Y624095D01*
X7053561Y594826D01*
X7067032Y562304D01*
X7073899Y527779D01*
X7073898Y510178D01*
X7073898D01*
X7073900Y510177D01*
X7073899Y406400D01*
X7073900Y398895D01*
X7070972Y384173D01*
X7065227Y370305D01*
X7056888Y357825D01*
X7046274Y347211D01*
X7033794Y338872D01*
X7019926Y333128D01*
X7009492Y331053D01*
X6997700Y330200D01*
X6997698Y330201D01*
Y330200D01*
X6883400D01*
Y349250D01*
X6807200D01*
X6731000D01*
Y330200D01*
X6489769D01*
X6466430Y339867D01*
X6448567Y357730D01*
X6438900Y381069D01*
Y393699D01*
X6451267Y394504D01*
X6483350D01*
Y444504D01*
Y494504D01*
X6438900D01*
Y533400D01*
X6591300D01*
X6667500Y609600D01*
Y711200D01*
X6857098Y711199D01*
D02*
G37*
%LPC*%
G36*
X4650216Y6076148D02*
X4579266D01*
Y5930198D01*
X4650216D01*
Y6076148D01*
D02*
G37*
G36*
X4541166D02*
X4470217D01*
Y5930198D01*
X4541166D01*
Y6076148D01*
D02*
G37*
G36*
X4650216Y5790298D02*
X4579266D01*
Y5644348D01*
X4650216D01*
Y5790298D01*
D02*
G37*
G36*
X4541166D02*
X4470217D01*
Y5644348D01*
X4541166D01*
Y5790298D01*
D02*
G37*
G36*
X5073650Y5625296D02*
X5022850D01*
Y5594346D01*
X5073650D01*
Y5625296D01*
D02*
G37*
G36*
X4984750D02*
X4933950D01*
Y5594346D01*
X4984750D01*
Y5625296D01*
D02*
G37*
G36*
X5073650Y5556246D02*
X5022850D01*
Y5525296D01*
X5073650D01*
Y5556246D01*
D02*
G37*
G36*
X4984750D02*
X4933950D01*
Y5525296D01*
X4984750D01*
Y5556246D01*
D02*
G37*
G36*
X4010218Y6076148D02*
X3939268D01*
Y5930503D01*
X4009913D01*
X4009796Y5930198D01*
X4010218D01*
Y6076148D01*
D02*
G37*
G36*
X3901168D02*
X3830218D01*
Y5930198D01*
X3830639D01*
X3830523Y5930503D01*
X3901168D01*
Y6076148D01*
D02*
G37*
G36*
X4010218Y5790298D02*
X4007696D01*
X4009913Y5789993D01*
X3939268D01*
Y5644348D01*
X4010218D01*
Y5790298D01*
D02*
G37*
G36*
X3832740D02*
X3830218D01*
Y5644348D01*
X3901168D01*
Y5789993D01*
X3830523D01*
X3832740Y5790298D01*
D02*
G37*
G36*
X3408680Y5304226D02*
X3376930D01*
Y5246330D01*
X3447527D01*
Y5265380D01*
X3444569Y5280246D01*
X3436149Y5292848D01*
X3423546Y5301269D01*
X3408680Y5304226D01*
D02*
G37*
G36*
X3048000D02*
X3016250D01*
Y5246330D01*
X3086847D01*
Y5265380D01*
X3083889Y5280246D01*
X3075469Y5292848D01*
X3062866Y5301269D01*
X3048000Y5304226D01*
D02*
G37*
G36*
X3338830D02*
X3307080D01*
X3292214Y5301269D01*
X3279611Y5292848D01*
X3271191Y5280246D01*
X3268233Y5265380D01*
Y5246330D01*
X3338830D01*
Y5304226D01*
D02*
G37*
G36*
X2978150D02*
X2946400D01*
X2931534Y5301269D01*
X2918931Y5292848D01*
X2910511Y5280246D01*
X2907553Y5265380D01*
Y5246330D01*
X2978150D01*
Y5304226D01*
D02*
G37*
G36*
X3447527Y5208230D02*
X3376930D01*
Y5150333D01*
X3408680D01*
X3423546Y5153290D01*
X3436149Y5161711D01*
X3444569Y5174314D01*
X3447527Y5189180D01*
Y5208230D01*
D02*
G37*
G36*
X3338830D02*
X3268233D01*
Y5189180D01*
X3271191Y5174314D01*
X3279611Y5161711D01*
X3292214Y5153290D01*
X3307080Y5150333D01*
X3338830D01*
Y5208230D01*
D02*
G37*
G36*
X3086847D02*
X3016250D01*
Y5150333D01*
X3048000D01*
X3062866Y5153290D01*
X3075469Y5161711D01*
X3083889Y5174314D01*
X3086847Y5189180D01*
Y5208230D01*
D02*
G37*
G36*
X2978150D02*
X2907553D01*
Y5189180D01*
X2910511Y5174314D01*
X2918931Y5161711D01*
X2931534Y5153290D01*
X2946400Y5150333D01*
X2978150D01*
Y5208230D01*
D02*
G37*
G36*
X2404900Y5412100D02*
X2393950D01*
Y5410567D01*
X2404593Y5410734D01*
X2404595Y5411795D01*
X2404900Y5411704D01*
Y5412100D01*
D02*
G37*
G36*
X2277900D02*
X2266950D01*
Y5410567D01*
X2277593Y5410734D01*
X2277595Y5411795D01*
X2277900Y5411704D01*
Y5412100D01*
D02*
G37*
G36*
X2531900D02*
X2520950D01*
Y5410567D01*
X2531593Y5410734D01*
X2531595Y5411795D01*
X2531900Y5411700D01*
Y5412100D01*
D02*
G37*
G36*
X2609850D02*
X2598900D01*
Y5411791D01*
X2599205Y5411795D01*
X2599208Y5410409D01*
X2609850Y5410334D01*
Y5412100D01*
D02*
G37*
G36*
X2482850D02*
X2471900D01*
Y5411791D01*
X2472205Y5411795D01*
X2472208Y5410378D01*
X2482850Y5410322D01*
Y5412100D01*
D02*
G37*
G36*
X2355850D02*
X2344900D01*
Y5411791D01*
X2345205Y5411795D01*
X2345208Y5410378D01*
X2355850Y5410322D01*
Y5412100D01*
D02*
G37*
G36*
X2658900D02*
X2647950D01*
Y5321150D01*
X2658900D01*
Y5412100D01*
D02*
G37*
G36*
X2228850D02*
X2217900D01*
Y5411791D01*
X2218205Y5411795D01*
X2218384Y5321150D01*
X2228850D01*
Y5412100D01*
D02*
G37*
G36*
X2609850Y5283050D02*
X2599460D01*
X2599510Y5257800D01*
X2598900Y5263279D01*
Y5192100D01*
X2609850D01*
Y5283050D01*
D02*
G37*
G36*
X2482850D02*
X2472460D01*
X2472510Y5257800D01*
X2471900Y5263279D01*
Y5192100D01*
X2482850D01*
Y5283050D01*
D02*
G37*
G36*
X2355850D02*
X2345460D01*
X2345510Y5257800D01*
X2344900Y5263279D01*
Y5192100D01*
X2355850D01*
Y5283050D01*
D02*
G37*
G36*
X2228850D02*
X2218460D01*
X2218510Y5257800D01*
X2217900Y5263279D01*
Y5192100D01*
X2228850D01*
Y5283050D01*
D02*
G37*
G36*
X2658900D02*
X2647950D01*
Y5192100D01*
X2658900D01*
Y5283050D01*
D02*
G37*
G36*
X2531333D02*
X2520950D01*
Y5192100D01*
X2531900D01*
Y5267318D01*
X2531290Y5262093D01*
X2531333Y5283050D01*
D02*
G37*
G36*
X2404340D02*
X2393950D01*
Y5192100D01*
X2404900D01*
Y5263279D01*
X2404290Y5257800D01*
X2404340Y5283050D01*
D02*
G37*
G36*
X2277340D02*
X2266950D01*
Y5192100D01*
X2277900D01*
Y5263279D01*
X2277290Y5257800D01*
X2277340Y5283050D01*
D02*
G37*
G36*
X5073650Y5396696D02*
X5022850D01*
Y5365746D01*
X5073650D01*
Y5396696D01*
D02*
G37*
G36*
X4876800Y5346700D02*
X4834276D01*
X4842127Y5327747D01*
X4857847Y5312027D01*
X4876800Y5304176D01*
Y5346700D01*
D02*
G37*
G36*
X4792324D02*
X4749800D01*
Y5304176D01*
X4768753Y5312027D01*
X4784473Y5327747D01*
X4792324Y5346700D01*
D02*
G37*
G36*
X5073650Y5327646D02*
X5022850D01*
Y5296696D01*
X5073650D01*
Y5327646D01*
D02*
G37*
G36*
X5003400Y5214100D02*
X4997450D01*
Y5200650D01*
X5003400D01*
Y5214100D01*
D02*
G37*
G36*
X4876400D02*
X4870450D01*
Y5200650D01*
X4876400D01*
Y5214100D01*
D02*
G37*
G36*
X4749400D02*
X4743450D01*
Y5200650D01*
X4749400D01*
Y5214100D01*
D02*
G37*
G36*
X4959350D02*
X4953400D01*
Y5200650D01*
X4959350D01*
Y5214100D01*
D02*
G37*
G36*
X4832350D02*
X4826400D01*
Y5200650D01*
X4832350D01*
Y5214100D01*
D02*
G37*
G36*
X4705350D02*
X4699400D01*
Y5200650D01*
X4705350D01*
Y5214100D01*
D02*
G37*
G36*
X3719050Y5105000D02*
X3710600D01*
Y5099050D01*
X3719050D01*
Y5105000D01*
D02*
G37*
G36*
Y5060950D02*
X3710600D01*
Y5055000D01*
X3719050D01*
Y5060950D01*
D02*
G37*
G36*
Y4978000D02*
X3710600D01*
Y4972050D01*
X3719050D01*
Y4978000D01*
D02*
G37*
G36*
X3408680Y5004547D02*
X3376930D01*
Y4946650D01*
X3447527D01*
Y4965700D01*
X3444569Y4980566D01*
X3436149Y4993169D01*
X3423546Y5001589D01*
X3408680Y5004547D01*
D02*
G37*
G36*
X3048000D02*
X3016250D01*
Y4946650D01*
X3086847D01*
Y4965700D01*
X3083889Y4980566D01*
X3075469Y4993169D01*
X3062866Y5001589D01*
X3048000Y5004547D01*
D02*
G37*
G36*
X1840696Y4997450D02*
X1809746D01*
Y4946650D01*
X1840696D01*
Y4997450D01*
D02*
G37*
G36*
X1771646D02*
X1740696D01*
Y4946650D01*
X1771646D01*
Y4997450D01*
D02*
G37*
G36*
X3338830Y5004547D02*
X3307080D01*
X3292214Y5001589D01*
X3279611Y4993169D01*
X3271191Y4980566D01*
X3268233Y4965700D01*
Y4946650D01*
X3338830D01*
Y5004547D01*
D02*
G37*
G36*
X2978150D02*
X2946400D01*
X2931534Y5001589D01*
X2918931Y4993169D01*
X2910511Y4980566D01*
X2907553Y4965700D01*
Y4946650D01*
X2978150D01*
Y5004547D01*
D02*
G37*
G36*
X3719050Y4933950D02*
X3710600D01*
Y4928000D01*
X3719050D01*
Y4933950D01*
D02*
G37*
G36*
X3952550Y5119500D02*
X3765600D01*
X3765600Y5105000D01*
X3757150Y5105000D01*
Y5080000D01*
Y5055000D01*
X3765600D01*
X3765600Y5042300D01*
Y4990700D01*
X3765600Y4978000D01*
X3757150Y4978000D01*
Y4953000D01*
Y4928000D01*
X3765600D01*
X3765600Y4915300D01*
Y4908550D01*
X3952550D01*
Y5119500D01*
D02*
G37*
G36*
X1840696Y4908550D02*
X1809746D01*
Y4857750D01*
X1840696D01*
Y4908550D01*
D02*
G37*
G36*
X1771646D02*
X1740696D01*
Y4857750D01*
X1771646D01*
Y4908550D01*
D02*
G37*
G36*
X3447527D02*
X3376930D01*
Y4850653D01*
X3408680D01*
X3423546Y4853611D01*
X3436149Y4862031D01*
X3444569Y4874634D01*
X3447527Y4889500D01*
Y4908550D01*
D02*
G37*
G36*
X3338830D02*
X3268233D01*
Y4889500D01*
X3271191Y4874634D01*
X3279611Y4862031D01*
X3292214Y4853611D01*
X3307080Y4850653D01*
X3338830D01*
Y4908550D01*
D02*
G37*
G36*
X3086847D02*
X3016250D01*
Y4850653D01*
X3048000D01*
X3062866Y4853611D01*
X3075469Y4862031D01*
X3083889Y4874634D01*
X3086847Y4889500D01*
Y4908550D01*
D02*
G37*
G36*
X2978150D02*
X2907553D01*
Y4889500D01*
X2910511Y4874634D01*
X2918931Y4862031D01*
X2931534Y4853611D01*
X2946400Y4850653D01*
X2978150D01*
Y4908550D01*
D02*
G37*
G36*
X3719050Y4851000D02*
X3710600D01*
Y4845050D01*
X3719050D01*
Y4851000D01*
D02*
G37*
G36*
X2277900Y4917100D02*
X2266950D01*
Y4826151D01*
X2277900D01*
Y4917100D01*
D02*
G37*
G36*
X2404900D02*
X2393950D01*
Y4826151D01*
X2404900D01*
Y4917100D01*
D02*
G37*
G36*
X2482850D02*
X2471900D01*
Y4826151D01*
X2482850D01*
Y4917100D01*
D02*
G37*
G36*
X2228850D02*
X2217900D01*
Y4826151D01*
X2228850D01*
Y4917100D01*
D02*
G37*
G36*
X2355850D02*
X2344900D01*
Y4826151D01*
X2355850D01*
Y4917100D01*
D02*
G37*
G36*
X3719050Y4806950D02*
X3710600D01*
Y4801000D01*
X3719050D01*
Y4806950D01*
D02*
G37*
G36*
X1840704Y4794250D02*
X1809754D01*
Y4743450D01*
X1840704D01*
Y4794250D01*
D02*
G37*
G36*
X1771654D02*
X1740704D01*
Y4743450D01*
X1771654D01*
Y4794250D01*
D02*
G37*
G36*
X3719050Y4724000D02*
X3710600D01*
Y4718050D01*
X3719050D01*
Y4724000D01*
D02*
G37*
G36*
X2404900Y4788051D02*
X2393950D01*
Y4697100D01*
X2404900D01*
Y4788051D01*
D02*
G37*
G36*
X2355850D02*
X2344900D01*
Y4697100D01*
X2355850D01*
Y4788051D01*
D02*
G37*
G36*
X2277900D02*
X2266950D01*
Y4697100D01*
X2277900D01*
Y4788051D01*
D02*
G37*
G36*
X2228850D02*
X2217900D01*
Y4697100D01*
X2228850D01*
Y4788051D01*
D02*
G37*
G36*
X2482850D02*
X2471900D01*
Y4697100D01*
X2482850D01*
Y4788051D01*
D02*
G37*
G36*
X3719050Y4679950D02*
X3710600D01*
Y4674000D01*
X3719050D01*
Y4679950D01*
D02*
G37*
G36*
X3952550Y4870450D02*
X3765600D01*
Y4863700D01*
X3765600Y4851000D01*
X3757150Y4851000D01*
Y4826000D01*
Y4801000D01*
X3765600D01*
X3765600Y4788300D01*
Y4736700D01*
X3765600Y4724000D01*
X3757150Y4724000D01*
Y4699000D01*
Y4674000D01*
X3765600D01*
X3765600Y4659500D01*
X3952550D01*
Y4870450D01*
D02*
G37*
G36*
X1840704Y4705350D02*
X1809754D01*
Y4654550D01*
X1840704D01*
Y4705350D01*
D02*
G37*
G36*
X1771654D02*
X1740704D01*
Y4654550D01*
X1771654D01*
Y4705350D01*
D02*
G37*
G36*
X2838450Y4304504D02*
X2787650D01*
Y4273554D01*
X2838450D01*
Y4304504D01*
D02*
G37*
G36*
X2533650D02*
Y4273554D01*
X2584450D01*
Y4304504D01*
X2533650D01*
D02*
G37*
G36*
X2749550D02*
X2698750D01*
Y4273554D01*
X2749550D01*
Y4304504D01*
D02*
G37*
G36*
X2838450Y4235454D02*
X2787650D01*
Y4204504D01*
X2838450D01*
Y4235454D01*
D02*
G37*
G36*
X2749550D02*
X2698750D01*
Y4204504D01*
X2749550D01*
Y4235454D01*
D02*
G37*
G36*
X2584450D02*
X2533650D01*
Y4204504D01*
X2584450D01*
Y4235454D01*
D02*
G37*
G36*
X5654400Y5705600D02*
X5523450D01*
Y5454650D01*
X5654400D01*
Y5705600D01*
D02*
G37*
G36*
X5485350D02*
X5354400D01*
Y5454650D01*
X5485350D01*
Y5705600D01*
D02*
G37*
G36*
X5654400Y5416550D02*
X5523450D01*
Y5165600D01*
X5654400D01*
Y5416550D01*
D02*
G37*
G36*
X5485350D02*
X5354400D01*
Y5165600D01*
X5485350D01*
Y5416550D01*
D02*
G37*
G36*
X4325100Y4978000D02*
X4311650D01*
Y4972050D01*
X4325100D01*
Y4978000D01*
D02*
G37*
G36*
Y4933950D02*
X4311650D01*
Y4928000D01*
X4325100D01*
Y4933950D01*
D02*
G37*
G36*
X5226050Y4963041D02*
Y4921250D01*
X5267841D01*
X5260833Y4938170D01*
X5242970Y4956033D01*
X5226050Y4963041D01*
D02*
G37*
G36*
X5187950D02*
X5171030Y4956033D01*
X5153167Y4938170D01*
X5146159Y4921250D01*
X5187950D01*
Y4963041D01*
D02*
G37*
G36*
X5017900Y5066600D02*
X4806950D01*
Y4879650D01*
X5017900D01*
Y5066600D01*
D02*
G37*
G36*
X4768850D02*
X4557900D01*
Y4879650D01*
X4768850D01*
Y5066600D01*
D02*
G37*
G36*
X4787900Y4860600D02*
D01*
D01*
D01*
D02*
G37*
G36*
X4325100Y4851000D02*
X4311650D01*
Y4845050D01*
X4325100D01*
Y4851000D01*
D02*
G37*
G36*
X5267841Y4883150D02*
X5226050D01*
Y4841359D01*
X5242970Y4848367D01*
X5260833Y4866230D01*
X5267841Y4883150D01*
D02*
G37*
G36*
X5187950D02*
X5146159D01*
X5153167Y4866230D01*
X5171030Y4848367D01*
X5187950Y4841359D01*
Y4883150D01*
D02*
G37*
G36*
X4325100Y4806950D02*
X4311650D01*
Y4801000D01*
X4325100D01*
Y4806950D01*
D02*
G37*
G36*
Y4724000D02*
X4311650D01*
Y4718050D01*
X4325100D01*
Y4724000D01*
D02*
G37*
G36*
Y4679950D02*
X4311650D01*
Y4674000D01*
X4325100D01*
Y4679950D01*
D02*
G37*
G36*
X5017900Y4841550D02*
X4806950D01*
Y4654600D01*
X4813700D01*
X4826400Y4654600D01*
X4826400Y4646150D01*
X4851400D01*
X4876400D01*
Y4654600D01*
X4889100Y4654600D01*
X4940700D01*
X4953400Y4654600D01*
X4953400Y4646150D01*
X4978400D01*
X5003400D01*
Y4654600D01*
X5017900Y4654600D01*
Y4841550D01*
D02*
G37*
G36*
X4768850D02*
X4557900D01*
Y4654600D01*
X4572400Y4654600D01*
X4572400Y4646150D01*
X4597400D01*
X4622400D01*
Y4654600D01*
X4635100Y4654600D01*
X4686700D01*
X4699400Y4654600D01*
X4699400Y4646150D01*
X4724400D01*
X4749400D01*
Y4654600D01*
X4762100Y4654600D01*
X4768850D01*
Y4841550D01*
D02*
G37*
G36*
X5003400Y4608050D02*
X4997450D01*
Y4599600D01*
X5003400D01*
Y4608050D01*
D02*
G37*
G36*
X4959350D02*
X4953400D01*
Y4599600D01*
X4959350D01*
Y4608050D01*
D02*
G37*
G36*
X4876400D02*
X4870450D01*
Y4599600D01*
X4876400D01*
Y4608050D01*
D02*
G37*
G36*
X4832350D02*
X4826400D01*
Y4599600D01*
X4832350D01*
Y4608050D01*
D02*
G37*
G36*
X4749400D02*
X4743450D01*
Y4599600D01*
X4749400D01*
Y4608050D01*
D02*
G37*
G36*
X4705350D02*
X4699400D01*
Y4599600D01*
X4705350D01*
Y4608050D01*
D02*
G37*
G36*
X4622400D02*
X4616450D01*
Y4599600D01*
X4622400D01*
Y4608050D01*
D02*
G37*
G36*
X4578350D02*
X4572400D01*
Y4599600D01*
X4578350D01*
Y4608050D01*
D02*
G37*
G36*
X1612096Y4997450D02*
X1581146D01*
Y4955536D01*
X1612096D01*
Y4997450D01*
D02*
G37*
G36*
X1543046D02*
X1512096D01*
Y4955536D01*
X1543046D01*
Y4997450D01*
D02*
G37*
G36*
X1612096Y4908550D02*
X1581146D01*
Y4858055D01*
X1592576D01*
X1592424Y4857750D01*
X1612096D01*
Y4908550D01*
D02*
G37*
G36*
X1543046D02*
X1512096D01*
Y4857750D01*
X1531768D01*
X1531616Y4858055D01*
X1543046D01*
Y4908550D01*
D02*
G37*
G36*
X1390650Y4863304D02*
X1339850D01*
Y4832354D01*
X1390650D01*
Y4863304D01*
D02*
G37*
G36*
X1301750D02*
X1250950D01*
Y4832354D01*
X1301750D01*
Y4863304D01*
D02*
G37*
G36*
X1390650Y4794254D02*
X1339850D01*
Y4763304D01*
X1390650D01*
Y4794254D01*
D02*
G37*
G36*
X1301750D02*
X1250950D01*
Y4763304D01*
X1301750D01*
Y4794254D01*
D02*
G37*
G36*
X1612104Y4794250D02*
X1581154D01*
Y4743450D01*
X1612104D01*
Y4794250D01*
D02*
G37*
G36*
X1543054D02*
X1512104D01*
Y4743450D01*
X1543054D01*
Y4794250D01*
D02*
G37*
G36*
X1612104Y4705350D02*
X1581154D01*
Y4654550D01*
X1612104D01*
Y4705350D01*
D02*
G37*
G36*
X1543054D02*
X1512104D01*
Y4654550D01*
X1543054D01*
Y4705350D01*
D02*
G37*
G36*
X2076450Y4304504D02*
X2025650D01*
Y4273554D01*
X2076450D01*
Y4304504D01*
D02*
G37*
G36*
X1987550D02*
X1936750D01*
Y4273554D01*
X1987550D01*
Y4304504D01*
D02*
G37*
G36*
X1822450Y4304496D02*
X1771650D01*
Y4273546D01*
X1822450D01*
Y4304496D01*
D02*
G37*
G36*
X1543050D02*
X1492250D01*
Y4273546D01*
X1543050D01*
Y4304496D01*
D02*
G37*
G36*
X1454150D02*
X1403350D01*
Y4304045D01*
X1403655Y4304191D01*
Y4273546D01*
X1454150D01*
Y4304496D01*
D02*
G37*
G36*
X1733550D02*
X1682750D01*
Y4273546D01*
X1733550D01*
Y4304496D01*
D02*
G37*
G36*
X1454150Y4235446D02*
X1403655D01*
Y4204801D01*
X1403350Y4204947D01*
Y4204496D01*
X1454150D01*
Y4235446D01*
D02*
G37*
G36*
X2076450Y4235454D02*
X2025650D01*
Y4204504D01*
X2076450D01*
Y4235454D01*
D02*
G37*
G36*
X1987550D02*
X1936750D01*
Y4204504D01*
X1987550D01*
Y4235454D01*
D02*
G37*
G36*
X1822450Y4235446D02*
X1771650D01*
Y4204496D01*
X1822450D01*
Y4235446D01*
D02*
G37*
G36*
X1733550D02*
X1682750D01*
Y4204496D01*
X1733550D01*
Y4235446D01*
D02*
G37*
G36*
X1543050D02*
X1492250D01*
Y4204496D01*
X1543050D01*
Y4235446D01*
D02*
G37*
G36*
X2076450Y4075904D02*
X2025650D01*
Y4044954D01*
X2076450D01*
Y4075904D01*
D02*
G37*
G36*
X1987550D02*
X1936750D01*
Y4044954D01*
X1987550D01*
Y4075904D01*
D02*
G37*
G36*
X1822450Y4075896D02*
X1771650D01*
Y4044946D01*
X1822450D01*
Y4075896D01*
D02*
G37*
G36*
X1733550D02*
X1682750D01*
Y4044946D01*
X1733550D01*
Y4075896D01*
D02*
G37*
G36*
X2076450Y4006854D02*
X2025650D01*
Y3975904D01*
X2076450D01*
Y4006854D01*
D02*
G37*
G36*
X1987550D02*
X1936750D01*
Y3975904D01*
X1987550D01*
Y4006854D01*
D02*
G37*
G36*
X1822450Y4006846D02*
X1771650D01*
Y3975896D01*
X1822450D01*
Y4006846D01*
D02*
G37*
G36*
X1733550D02*
X1682750D01*
Y3975896D01*
X1733550D01*
Y4006846D01*
D02*
G37*
G36*
X1993104Y3854450D02*
X1962154D01*
Y3803650D01*
X1993104D01*
Y3854450D01*
D02*
G37*
G36*
X1924054D02*
X1893104D01*
Y3803650D01*
X1924054D01*
Y3854450D01*
D02*
G37*
G36*
X2085296Y3840208D02*
X2068376Y3833200D01*
X2050513Y3815337D01*
X2043504Y3798417D01*
X2085296D01*
Y3840208D01*
D02*
G37*
G36*
X1993104Y3765550D02*
X1962154D01*
Y3714750D01*
X1993104D01*
Y3765550D01*
D02*
G37*
G36*
X1924054D02*
X1893104D01*
Y3714750D01*
X1924054D01*
Y3765550D01*
D02*
G37*
G36*
X6634400Y5705600D02*
X6503450D01*
Y5454650D01*
X6634400D01*
Y5705600D01*
D02*
G37*
G36*
X6465350D02*
X6334400D01*
Y5454650D01*
X6465350D01*
Y5705600D01*
D02*
G37*
G36*
X6634400Y5416550D02*
X6503450D01*
Y5165600D01*
X6634400D01*
Y5416550D01*
D02*
G37*
G36*
X6465350D02*
X6334400D01*
Y5165600D01*
X6465350D01*
Y5416550D01*
D02*
G37*
G36*
X6137076Y4589458D02*
X6105326D01*
Y4525958D01*
X6137076D01*
Y4589458D01*
D02*
G37*
G36*
X6067226D02*
X6035476D01*
Y4525958D01*
X6067226D01*
Y4589458D01*
D02*
G37*
G36*
X6137076Y4487858D02*
X6105326D01*
Y4424358D01*
X6137076D01*
Y4487858D01*
D02*
G37*
G36*
X6067226D02*
X6035476D01*
Y4424358D01*
X6067226D01*
Y4487858D01*
D02*
G37*
G36*
X6137076Y4310058D02*
X6105326D01*
Y4246558D01*
X6137076D01*
Y4310058D01*
D02*
G37*
G36*
X6067226D02*
X6035476D01*
Y4246558D01*
X6067226D01*
Y4310058D01*
D02*
G37*
G36*
X6137076Y4208458D02*
X6105326D01*
Y4144958D01*
X6137076D01*
Y4208458D01*
D02*
G37*
G36*
X6067226D02*
X6035476D01*
Y4144958D01*
X6067226D01*
Y4208458D01*
D02*
G37*
G36*
X6572250Y4023241D02*
Y3981450D01*
X6614041D01*
X6607033Y3998370D01*
X6589170Y4016233D01*
X6572250Y4023241D01*
D02*
G37*
G36*
X6534150D02*
X6517230Y4016233D01*
X6499367Y3998370D01*
X6492359Y3981450D01*
X6534150D01*
Y4023241D01*
D02*
G37*
G36*
X6349902Y4042216D02*
X6203952D01*
Y3971267D01*
X6349902D01*
Y4042216D01*
D02*
G37*
G36*
X6165852D02*
X6019902D01*
Y3971267D01*
X6165852D01*
Y4042216D01*
D02*
G37*
G36*
X6614041Y3943350D02*
X6572250D01*
Y3901559D01*
X6589170Y3908567D01*
X6607033Y3926430D01*
X6614041Y3943350D01*
D02*
G37*
G36*
X6534150D02*
X6492359D01*
X6499367Y3926430D01*
X6517230Y3908567D01*
X6534150Y3901559D01*
Y3943350D01*
D02*
G37*
G36*
X6349902Y3933167D02*
X6203952D01*
Y3862217D01*
X6349902D01*
Y3933167D01*
D02*
G37*
G36*
X6165852D02*
X6019902D01*
Y3862217D01*
X6033019D01*
X6032556Y3862387D01*
X6028937Y3862826D01*
X6105137D01*
X6101517Y3862387D01*
X6101055Y3862217D01*
X6165852D01*
Y3933167D01*
D02*
G37*
G36*
X5806876Y4589458D02*
X5775126D01*
Y4525958D01*
X5806876D01*
Y4589458D01*
D02*
G37*
G36*
X5737026D02*
X5705276D01*
Y4525958D01*
X5737026D01*
Y4589458D01*
D02*
G37*
G36*
X5806876Y4487858D02*
X5775126D01*
Y4424358D01*
X5806876D01*
Y4487858D01*
D02*
G37*
G36*
X5737026D02*
X5705276D01*
Y4424358D01*
X5737026D01*
Y4487858D01*
D02*
G37*
G36*
X5806876Y4310058D02*
X5775126D01*
Y4246558D01*
X5806876D01*
Y4310058D01*
D02*
G37*
G36*
X5737026D02*
X5705276D01*
Y4246558D01*
X5737026D01*
Y4310058D01*
D02*
G37*
G36*
X5806876Y4208458D02*
X5775126D01*
Y4144958D01*
X5806876D01*
Y4208458D01*
D02*
G37*
G36*
X5737026D02*
X5705276D01*
Y4144958D01*
X5737026D01*
Y4208458D01*
D02*
G37*
G36*
X5396704Y4032250D02*
X5365754D01*
Y3981450D01*
X5396704D01*
Y4032250D01*
D02*
G37*
G36*
X5327654D02*
X5296704D01*
Y3981450D01*
X5327654D01*
Y4032250D01*
D02*
G37*
G36*
X5396704Y3943350D02*
X5365754D01*
Y3892855D01*
X5396399D01*
X5396253Y3892550D01*
X5396704D01*
Y3943350D01*
D02*
G37*
G36*
X5327654D02*
X5296704D01*
Y3892550D01*
X5297155D01*
X5297009Y3892855D01*
X5327654D01*
Y3943350D01*
D02*
G37*
G36*
X5396704Y3778250D02*
X5393630D01*
X5396399Y3777945D01*
X5365754D01*
Y3727450D01*
X5396704D01*
Y3778250D01*
D02*
G37*
G36*
X7327900Y2051050D02*
X7283450D01*
Y2000250D01*
X7327900D01*
Y2051050D01*
D02*
G37*
G36*
X7461250Y2042041D02*
Y2000250D01*
X7503041D01*
X7496033Y2017170D01*
X7478170Y2035033D01*
X7461250Y2042041D01*
D02*
G37*
G36*
X7423150D02*
X7406230Y2035033D01*
X7388367Y2017170D01*
X7381359Y2000250D01*
X7423150D01*
Y2042041D01*
D02*
G37*
G36*
X7245350Y2051050D02*
X7200900D01*
Y2000250D01*
X7245350D01*
Y2051050D01*
D02*
G37*
G36*
X7503041Y1962150D02*
X7461250D01*
Y1920359D01*
X7478170Y1927367D01*
X7496033Y1945230D01*
X7503041Y1962150D01*
D02*
G37*
G36*
X7423150D02*
X7381359D01*
X7388367Y1945230D01*
X7406230Y1927367D01*
X7423150Y1920359D01*
Y1962150D01*
D02*
G37*
G36*
X7327900D02*
X7283450D01*
Y1911350D01*
X7327900D01*
Y1962150D01*
D02*
G37*
G36*
X7245350D02*
X7200900D01*
Y1911350D01*
X7245350D01*
Y1962150D01*
D02*
G37*
G36*
X7415800Y1791024D02*
X7372350D01*
Y1593850D01*
X7479525D01*
Y1727300D01*
X7474674Y1751686D01*
X7460860Y1772360D01*
X7440186Y1786174D01*
X7415800Y1791024D01*
D02*
G37*
G36*
X7334250D02*
X7290800D01*
X7266414Y1786174D01*
X7245740Y1772360D01*
X7231926Y1751686D01*
X7227075Y1727300D01*
Y1593850D01*
X7334250D01*
Y1791024D01*
D02*
G37*
G36*
X7479525Y1555750D02*
X7372350D01*
Y1358576D01*
X7415800D01*
X7440186Y1363426D01*
X7460860Y1377240D01*
X7474674Y1397914D01*
X7479525Y1422300D01*
Y1555750D01*
D02*
G37*
G36*
X7334250D02*
X7227075D01*
Y1422300D01*
X7231926Y1397914D01*
X7245740Y1377240D01*
X7266414Y1363426D01*
X7290800Y1358576D01*
X7334250D01*
Y1555750D01*
D02*
G37*
G36*
X7505700Y1231185D02*
Y1168400D01*
X7568485D01*
X7564007Y1185112D01*
X7553975Y1202488D01*
X7539788Y1216675D01*
X7522412Y1226707D01*
X7505700Y1231185D01*
D02*
G37*
G36*
X7480300D02*
X7463588Y1226707D01*
X7446212Y1216675D01*
X7432025Y1202488D01*
X7421993Y1185112D01*
X7417515Y1168400D01*
X7480300D01*
Y1231185D01*
D02*
G37*
G36*
X7568485Y1143000D02*
X7505700D01*
Y1080215D01*
X7522412Y1084693D01*
X7539788Y1094725D01*
X7553975Y1108912D01*
X7564007Y1126288D01*
X7568485Y1143000D01*
D02*
G37*
G36*
X7480300D02*
X7417515D01*
X7421993Y1126288D01*
X7432025Y1108912D01*
X7446212Y1094725D01*
X7463588Y1084693D01*
X7480300Y1080215D01*
Y1143000D01*
D02*
G37*
G36*
X6572250Y977104D02*
X6521450D01*
Y946154D01*
X6572250D01*
Y977104D01*
D02*
G37*
G36*
X6483350D02*
X6432550D01*
Y946154D01*
X6483350D01*
Y977104D01*
D02*
G37*
G36*
X6940940Y913600D02*
X6839990D01*
Y882650D01*
X6940940D01*
Y913600D01*
D02*
G37*
G36*
X6801890D02*
X6700940D01*
Y882650D01*
X6801890D01*
Y913600D01*
D02*
G37*
G36*
X7520940Y1028600D02*
X7419990D01*
Y882650D01*
X7520940D01*
Y1028600D01*
D02*
G37*
G36*
X7381890D02*
X7280940D01*
Y882650D01*
X7381890D01*
Y1028600D01*
D02*
G37*
G36*
X6572250Y908054D02*
X6521450D01*
Y877104D01*
X6572250D01*
Y908054D01*
D02*
G37*
G36*
X6483350D02*
X6432550D01*
Y877104D01*
X6483350D01*
Y908054D01*
D02*
G37*
G36*
X6940940Y844550D02*
X6839990D01*
Y813600D01*
X6940940D01*
Y844550D01*
D02*
G37*
G36*
X6801890D02*
X6700940D01*
Y813600D01*
X6801890D01*
Y844550D01*
D02*
G37*
G36*
X7520940Y844550D02*
X7419990D01*
Y698600D01*
X7520940D01*
Y844550D01*
D02*
G37*
G36*
X7381890D02*
X7280940D01*
Y698600D01*
X7381890D01*
Y844550D01*
D02*
G37*
G36*
X6349902Y3402218D02*
X6262244D01*
X6267218Y3401913D01*
X6203952D01*
Y3331268D01*
X6349902D01*
Y3402218D01*
D02*
G37*
G36*
X6098666D02*
X6019902D01*
Y3331268D01*
X6165852D01*
Y3401913D01*
X6090838D01*
X6098666Y3402218D01*
D02*
G37*
G36*
X6349902Y3293168D02*
X6203952D01*
Y3222218D01*
X6349902D01*
Y3293168D01*
D02*
G37*
G36*
X6165852D02*
X6019902D01*
Y3222218D01*
X6165852D01*
Y3293168D01*
D02*
G37*
G36*
X5396696Y3270250D02*
X5365746D01*
Y3219450D01*
X5396696D01*
Y3270250D01*
D02*
G37*
G36*
X5327646D02*
X5296696D01*
Y3219450D01*
X5327646D01*
Y3270250D01*
D02*
G37*
G36*
X5396696Y3181350D02*
X5365746D01*
Y3130855D01*
X5396391D01*
X5396305Y3130550D01*
X5396696D01*
Y3181350D01*
D02*
G37*
G36*
X5327646D02*
X5296696D01*
Y3130550D01*
X5297087D01*
X5297001Y3130855D01*
X5327646D01*
Y3181350D01*
D02*
G37*
G36*
X5396704Y3016250D02*
X5394762D01*
X5396399Y3015945D01*
X5365754D01*
Y2965450D01*
X5396704D01*
Y3016250D01*
D02*
G37*
G36*
X5298645D02*
X5296704D01*
Y2965450D01*
X5327654D01*
Y3015945D01*
X5297009D01*
X5298645Y3016250D01*
D02*
G37*
G36*
X6332558Y2934504D02*
X6269058D01*
Y2902754D01*
X6332558D01*
Y2934504D01*
D02*
G37*
G36*
X6078558D02*
X6015058D01*
Y2902754D01*
X6078558D01*
Y2934504D01*
D02*
G37*
G36*
X6230958D02*
X6167458D01*
Y2902754D01*
X6230958D01*
Y2934504D01*
D02*
G37*
G36*
X5976958D02*
X5913458D01*
Y2902754D01*
X5976958D01*
Y2934504D01*
D02*
G37*
G36*
X3703582Y3035202D02*
X3647632D01*
Y2889252D01*
X3703582D01*
Y3035202D01*
D02*
G37*
G36*
X3609532D02*
X3553582D01*
Y2889252D01*
X3609532D01*
Y3035202D01*
D02*
G37*
G36*
X5396704Y2927350D02*
X5365754D01*
Y2876550D01*
X5396704D01*
Y2927350D01*
D02*
G37*
G36*
X5327654D02*
X5296704D01*
Y2876550D01*
X5327654D01*
Y2927350D01*
D02*
G37*
G36*
X6332558Y2864654D02*
X6269058D01*
Y2832904D01*
X6332558D01*
Y2864654D01*
D02*
G37*
G36*
X6230958D02*
X6167458D01*
Y2832904D01*
X6230958D01*
Y2864654D01*
D02*
G37*
G36*
X6078558D02*
X6015058D01*
Y2832904D01*
X6078558D01*
Y2864654D01*
D02*
G37*
G36*
X5976958D02*
X5913458D01*
Y2832904D01*
X5976958D01*
Y2864654D01*
D02*
G37*
G36*
X3703582Y2851152D02*
X3647632D01*
Y2705202D01*
X3703582D01*
Y2851152D01*
D02*
G37*
G36*
X3609532D02*
X3553582D01*
Y2705202D01*
X3609532D01*
Y2851152D01*
D02*
G37*
G36*
X4502150Y3225004D02*
X4452970D01*
X4454114Y3224394D01*
X4451350Y3224404D01*
Y3194054D01*
X4502150D01*
Y3225004D01*
D02*
G37*
G36*
X4685496Y3270250D02*
X4654546D01*
Y3219450D01*
X4685496D01*
Y3270250D01*
D02*
G37*
G36*
X4616446D02*
X4585496D01*
Y3219450D01*
X4616446D01*
Y3270250D01*
D02*
G37*
G36*
X4368121Y3225004D02*
X4362450D01*
Y3194054D01*
X4413250D01*
Y3224531D01*
X4367943Y3224682D01*
X4368121Y3225004D01*
D02*
G37*
G36*
X4248150Y3224996D02*
X4197350D01*
Y3194046D01*
X4248150D01*
Y3224996D01*
D02*
G37*
G36*
X4159250D02*
X4108450D01*
Y3194046D01*
X4159250D01*
Y3224996D01*
D02*
G37*
G36*
X4685496Y3181350D02*
X4654546D01*
Y3130550D01*
X4685496D01*
Y3181350D01*
D02*
G37*
G36*
X4616446D02*
X4585496D01*
Y3130550D01*
X4616446D01*
Y3181350D01*
D02*
G37*
G36*
X4502150Y3155954D02*
X4451350D01*
Y3125004D01*
X4502150D01*
Y3155954D01*
D02*
G37*
G36*
X4413250D02*
X4362450D01*
Y3125004D01*
X4413250D01*
Y3155954D01*
D02*
G37*
G36*
X4248150Y3155946D02*
X4197350D01*
Y3124996D01*
X4248150D01*
Y3155946D01*
D02*
G37*
G36*
X4159250D02*
X4108450D01*
Y3124996D01*
X4159250D01*
Y3155946D01*
D02*
G37*
%LPD*%
G36*
X4367943Y3224682D02*
X4362851Y3215481D01*
X4362755Y3224699D01*
X4367943Y3224682D01*
D02*
G37*
%LPC*%
G36*
X2997102Y2975416D02*
X2851152D01*
Y2904467D01*
X2997102D01*
Y2975416D01*
D02*
G37*
G36*
X2813052D02*
X2667102D01*
Y2904467D01*
X2813052D01*
Y2975416D01*
D02*
G37*
G36*
X3250000Y3035200D02*
X3194050D01*
Y2889250D01*
X3250000D01*
Y3035200D01*
D02*
G37*
G36*
X3155950D02*
X3100000D01*
Y2889250D01*
X3155950D01*
Y3035200D01*
D02*
G37*
G36*
X3250000Y2851150D02*
X3194050D01*
Y2705200D01*
X3250000D01*
Y2851150D01*
D02*
G37*
G36*
X3155950D02*
X3100000D01*
Y2705200D01*
X3155950D01*
Y2851150D01*
D02*
G37*
G36*
X5759450Y1459704D02*
Y1428754D01*
X5810250D01*
Y1459704D01*
X5759450D01*
D02*
G37*
G36*
X5810250Y1390654D02*
X5759450D01*
Y1360314D01*
X5791200D01*
X5786374Y1359748D01*
X5786254Y1359704D01*
X5810250D01*
Y1390654D01*
D02*
G37*
G36*
X5581600Y643800D02*
X5500650D01*
Y577850D01*
X5581600D01*
Y643800D01*
D02*
G37*
G36*
X5462550D02*
X5381600D01*
Y577850D01*
X5462550D01*
Y643800D01*
D02*
G37*
G36*
X6038850Y568841D02*
Y527050D01*
X6080641D01*
X6073633Y543970D01*
X6055770Y561833D01*
X6038850Y568841D01*
D02*
G37*
G36*
X6000750D02*
X5983830Y561833D01*
X5965967Y543970D01*
X5958959Y527050D01*
X6000750D01*
Y568841D01*
D02*
G37*
G36*
X5581600Y539750D02*
X5500650D01*
Y473800D01*
X5581600D01*
Y539750D01*
D02*
G37*
G36*
X5462550D02*
X5381600D01*
Y473800D01*
X5462550D01*
Y539750D01*
D02*
G37*
G36*
X6080641Y488950D02*
X6038850D01*
Y447159D01*
X6055770Y454167D01*
X6073633Y472030D01*
X6080641Y488950D01*
D02*
G37*
G36*
X6000750D02*
X5958959D01*
X5965967Y472030D01*
X5983830Y454167D01*
X6000750Y447159D01*
Y488950D01*
D02*
G37*
G36*
X6883400Y222250D02*
X6826250D01*
Y190500D01*
X6883400D01*
Y222250D01*
D02*
G37*
G36*
X6788150D02*
X6731000D01*
Y190500D01*
X6788150D01*
Y222250D01*
D02*
G37*
G36*
X6332558Y2534454D02*
X6269058D01*
Y2502704D01*
X6332558D01*
Y2534454D01*
D02*
G37*
G36*
X6230958D02*
X6167458D01*
Y2502704D01*
X6230958D01*
Y2534454D01*
D02*
G37*
G36*
X6078558D02*
X6015058D01*
Y2502704D01*
X6078558D01*
Y2534454D01*
D02*
G37*
G36*
X5976958D02*
X5913458D01*
Y2502704D01*
X5976958D01*
Y2534454D01*
D02*
G37*
G36*
X6388100Y2348785D02*
Y2286000D01*
X6450885D01*
X6446407Y2302712D01*
X6436375Y2320088D01*
X6422188Y2334275D01*
X6404812Y2344307D01*
X6388100Y2348785D01*
D02*
G37*
G36*
X6362700D02*
X6345988Y2344307D01*
X6328612Y2334275D01*
X6314425Y2320088D01*
X6304393Y2302712D01*
X6299915Y2286000D01*
X6362700D01*
Y2348785D01*
D02*
G37*
G36*
X6450885Y2260600D02*
X6388100D01*
Y2197815D01*
X6404812Y2202293D01*
X6422188Y2212325D01*
X6436375Y2226512D01*
X6446407Y2243888D01*
X6450885Y2260600D01*
D02*
G37*
G36*
X6362700D02*
X6299915D01*
X6304393Y2243888D01*
X6314425Y2226512D01*
X6328612Y2212325D01*
X6345988Y2202293D01*
X6362700Y2197815D01*
Y2260600D01*
D02*
G37*
G36*
X6388100Y2069385D02*
Y2006600D01*
X6450885D01*
X6446407Y2023312D01*
X6436375Y2040688D01*
X6422188Y2054875D01*
X6404812Y2064907D01*
X6388100Y2069385D01*
D02*
G37*
G36*
X6362700D02*
X6345988Y2064907D01*
X6328612Y2054875D01*
X6314425Y2040688D01*
X6304393Y2023312D01*
X6299915Y2006600D01*
X6362700D01*
Y2069385D01*
D02*
G37*
G36*
X6628604Y2051050D02*
X6597654D01*
Y2000250D01*
X6628604D01*
Y2051050D01*
D02*
G37*
G36*
X6559554D02*
X6528604D01*
Y2000250D01*
X6559554D01*
Y2051050D01*
D02*
G37*
G36*
X6450885Y1981200D02*
X6388100D01*
Y1918415D01*
X6404812Y1922893D01*
X6422188Y1932925D01*
X6436375Y1947112D01*
X6446407Y1964488D01*
X6450885Y1981200D01*
D02*
G37*
G36*
X6362700D02*
X6299915D01*
X6304393Y1964488D01*
X6314425Y1947112D01*
X6328612Y1932925D01*
X6345988Y1922893D01*
X6362700Y1918415D01*
Y1981200D01*
D02*
G37*
G36*
X6628604Y1962150D02*
X6597654D01*
Y1911350D01*
X6628604D01*
Y1962150D01*
D02*
G37*
G36*
X6559554D02*
X6528604D01*
Y1911350D01*
X6559554D01*
Y1962150D01*
D02*
G37*
G36*
X5574504Y1873250D02*
X5543554D01*
Y1822450D01*
X5574504D01*
Y1873250D01*
D02*
G37*
G36*
X5505454D02*
X5474504D01*
Y1822450D01*
X5505454D01*
Y1873250D01*
D02*
G37*
G36*
X5574504Y1784350D02*
X5543554D01*
Y1733550D01*
X5574504D01*
Y1784350D01*
D02*
G37*
G36*
X5505454D02*
X5474504D01*
Y1733550D01*
X5505454D01*
Y1784350D01*
D02*
G37*
G36*
X6388100Y1777285D02*
Y1714500D01*
X6450885D01*
X6446407Y1731212D01*
X6436375Y1748588D01*
X6422188Y1762775D01*
X6404812Y1772807D01*
X6388100Y1777285D01*
D02*
G37*
G36*
X6362700D02*
X6345988Y1772807D01*
X6328612Y1762775D01*
X6314425Y1748588D01*
X6304393Y1731212D01*
X6299915Y1714500D01*
X6362700D01*
Y1777285D01*
D02*
G37*
G36*
X5810250Y1688304D02*
X5759450D01*
Y1657354D01*
X5810250D01*
Y1688304D01*
D02*
G37*
G36*
X5721350D02*
X5670550D01*
Y1657354D01*
X5721350D01*
Y1688304D01*
D02*
G37*
G36*
X6450885Y1689100D02*
X6388100D01*
Y1626315D01*
X6404812Y1630793D01*
X6422188Y1640825D01*
X6436375Y1655012D01*
X6446407Y1672388D01*
X6450885Y1689100D01*
D02*
G37*
G36*
X6362700D02*
X6299915D01*
X6304393Y1672388D01*
X6314425Y1655012D01*
X6328612Y1640825D01*
X6345988Y1630793D01*
X6362700Y1626315D01*
Y1689100D01*
D02*
G37*
G36*
X6717300Y1791025D02*
X6673850D01*
Y1593851D01*
X6781025D01*
Y1727301D01*
X6776174Y1751687D01*
X6762360Y1772361D01*
X6741687Y1786174D01*
X6717300Y1791025D01*
D02*
G37*
G36*
X6635750D02*
X6592300D01*
X6567914Y1786174D01*
X6547240Y1772361D01*
X6533426Y1751687D01*
X6528576Y1727301D01*
Y1593851D01*
X6635750D01*
Y1791025D01*
D02*
G37*
G36*
X5810250Y1619254D02*
X5759450D01*
Y1588304D01*
X5810250D01*
Y1619254D01*
D02*
G37*
G36*
X5721350D02*
X5670550D01*
Y1588304D01*
X5721350D01*
Y1619254D01*
D02*
G37*
G36*
X5574496Y1619250D02*
X5543546D01*
Y1568450D01*
X5574496D01*
Y1619250D01*
D02*
G37*
G36*
X5505446D02*
X5474496D01*
Y1568450D01*
X5505446D01*
Y1619250D01*
D02*
G37*
G36*
X5574496Y1530350D02*
X5543546D01*
Y1479550D01*
X5574496D01*
Y1530350D01*
D02*
G37*
G36*
X5505446D02*
X5474496D01*
Y1479550D01*
X5505446D01*
Y1530350D01*
D02*
G37*
G36*
X6388100Y1497885D02*
Y1435100D01*
X6450885D01*
X6446407Y1451812D01*
X6436375Y1469188D01*
X6422188Y1483375D01*
X6404812Y1493407D01*
X6388100Y1497885D01*
D02*
G37*
G36*
X6362700D02*
X6345988Y1493407D01*
X6328612Y1483375D01*
X6314425Y1469188D01*
X6304393Y1451812D01*
X6299915Y1435100D01*
X6362700D01*
Y1497885D01*
D02*
G37*
G36*
X6781025Y1555751D02*
X6673850D01*
Y1358576D01*
X6717300D01*
X6741687Y1363427D01*
X6762360Y1377241D01*
X6776174Y1397915D01*
X6781025Y1422301D01*
Y1555751D01*
D02*
G37*
G36*
X6635750D02*
X6528576D01*
Y1422301D01*
X6533426Y1397915D01*
X6547240Y1377241D01*
X6567914Y1363427D01*
X6592300Y1358576D01*
X6635750D01*
Y1555751D01*
D02*
G37*
G36*
X6450885Y1409700D02*
X6388100D01*
Y1346915D01*
X6404812Y1351393D01*
X6422188Y1361425D01*
X6436375Y1375612D01*
X6446407Y1392988D01*
X6450885Y1409700D01*
D02*
G37*
G36*
X6362700D02*
X6299915D01*
X6304393Y1392988D01*
X6314425Y1375612D01*
X6328612Y1361425D01*
X6345988Y1351393D01*
X6362700Y1346915D01*
Y1409700D01*
D02*
G37*
G36*
X6572250Y1205704D02*
X6521450D01*
Y1174754D01*
X6572250D01*
Y1205704D01*
D02*
G37*
G36*
X6483350D02*
X6432550D01*
Y1200316D01*
X6432855Y1200455D01*
Y1174754D01*
X6483350D01*
Y1205704D01*
D02*
G37*
G36*
X6940940Y1143600D02*
X6839990D01*
Y1112650D01*
X6940940D01*
Y1143600D01*
D02*
G37*
G36*
X6801890D02*
X6700940D01*
Y1112650D01*
X6801890D01*
Y1143600D01*
D02*
G37*
G36*
X6483350Y1136654D02*
X6432855D01*
Y1106961D01*
X6432550Y1107101D01*
Y1105704D01*
X6483350D01*
Y1136654D01*
D02*
G37*
G36*
X6572250D02*
X6521450D01*
Y1105704D01*
X6572250D01*
Y1136654D01*
D02*
G37*
G36*
X6940940Y1074550D02*
X6839990D01*
Y1043600D01*
X6940940D01*
Y1074550D01*
D02*
G37*
G36*
X6801890D02*
X6700940D01*
Y1043600D01*
X6801890D01*
Y1074550D01*
D02*
G37*
G36*
X2997102Y2226368D02*
X2851152D01*
Y2155418D01*
X2997102D01*
Y2226368D01*
D02*
G37*
G36*
X2813052D02*
X2667102D01*
Y2155418D01*
X2813052D01*
Y2226368D01*
D02*
G37*
G36*
X2578100Y2057400D02*
X2546350D01*
Y2000250D01*
X2578100D01*
Y2057400D01*
D02*
G37*
G36*
Y1962150D02*
X2546350D01*
Y1905000D01*
X2578100D01*
Y1962150D01*
D02*
G37*
G36*
X4215863Y1440906D02*
X4204970D01*
Y1383010D01*
X4275567D01*
Y1402060D01*
X4274970Y1405057D01*
X4274708Y1403933D01*
X4274393Y1400593D01*
X4209853Y1439733D01*
X4213295Y1440150D01*
X4215863Y1440906D01*
D02*
G37*
G36*
X4166870D02*
X4135120D01*
X4120254Y1437949D01*
X4107651Y1429529D01*
X4099231Y1416926D01*
X4096273Y1402060D01*
Y1383010D01*
X4166870D01*
Y1440906D01*
D02*
G37*
G36*
X4275567Y1344910D02*
X4204970D01*
Y1287013D01*
X4236720D01*
X4251586Y1289970D01*
X4264189Y1298391D01*
X4272609Y1310994D01*
X4275567Y1325860D01*
Y1344910D01*
D02*
G37*
G36*
X4166870D02*
X4096273D01*
Y1325860D01*
X4099231Y1310994D01*
X4107651Y1298391D01*
X4120254Y1289970D01*
X4135120Y1287013D01*
X4166870D01*
Y1344910D01*
D02*
G37*
G36*
X2265260Y1523200D02*
X2164310D01*
Y1492250D01*
X2265260D01*
Y1523200D01*
D02*
G37*
G36*
X1685260Y1638200D02*
X1584310D01*
Y1492250D01*
X1685260D01*
Y1638200D01*
D02*
G37*
G36*
X1546210D02*
X1445260D01*
Y1600048D01*
X1445565Y1600200D01*
Y1492250D01*
X1546210D01*
Y1638200D01*
D02*
G37*
G36*
X2126210Y1523200D02*
X2025260D01*
Y1492250D01*
X2126210D01*
Y1523200D01*
D02*
G37*
G36*
X2511140Y1510496D02*
X2460340D01*
Y1479546D01*
X2511140D01*
Y1510496D01*
D02*
G37*
G36*
X2422240D02*
X2371440D01*
Y1479546D01*
X2422240D01*
Y1510496D01*
D02*
G37*
G36*
X2265260Y1454150D02*
X2164310D01*
Y1423200D01*
X2265260D01*
Y1454150D01*
D02*
G37*
G36*
X2126210D02*
X2025260D01*
Y1423200D01*
X2126210D01*
Y1454150D01*
D02*
G37*
G36*
X2511140Y1441446D02*
X2460340D01*
Y1410496D01*
X2511140D01*
Y1441446D01*
D02*
G37*
G36*
X2422240D02*
X2371440D01*
Y1410496D01*
X2422240D01*
Y1441446D01*
D02*
G37*
G36*
X1546210Y1454150D02*
X1445565D01*
Y1346200D01*
X1445260Y1346352D01*
Y1308200D01*
X1546210D01*
Y1454150D01*
D02*
G37*
G36*
X1685260D02*
X1584310D01*
Y1308200D01*
X1685260D01*
Y1454150D01*
D02*
G37*
G36*
X1720200Y1003624D02*
X1676750D01*
Y806450D01*
X1783925D01*
Y939900D01*
X1779074Y964286D01*
X1765260Y984960D01*
X1744586Y998774D01*
X1720200Y1003624D01*
D02*
G37*
G36*
X1638650D02*
X1595200D01*
X1570814Y998774D01*
X1550140Y984960D01*
X1536326Y964286D01*
X1531475Y939900D01*
Y806450D01*
X1638650D01*
Y1003624D01*
D02*
G37*
G36*
X1783925Y768350D02*
X1676750D01*
Y571176D01*
X1720200D01*
X1744586Y576026D01*
X1765260Y589840D01*
X1779074Y610514D01*
X1783925Y634900D01*
Y768350D01*
D02*
G37*
G36*
X1638650D02*
X1531475D01*
Y634900D01*
X1536326Y610514D01*
X1550140Y589840D01*
X1570814Y576026D01*
X1595200Y571176D01*
X1638650D01*
Y768350D01*
D02*
G37*
G36*
X1327150Y454541D02*
Y412750D01*
X1368941D01*
X1361933Y429670D01*
X1344070Y447533D01*
X1327150Y454541D01*
D02*
G37*
G36*
X1289050D02*
X1272130Y447533D01*
X1254267Y429670D01*
X1247259Y412750D01*
X1289050D01*
Y454541D01*
D02*
G37*
G36*
X1790700Y450850D02*
X1746250D01*
Y400050D01*
X1790700D01*
Y450850D01*
D02*
G37*
G36*
X1708150D02*
X1663700D01*
Y400050D01*
X1708150D01*
Y450850D01*
D02*
G37*
G36*
X1368941Y374650D02*
X1327150D01*
Y332859D01*
X1344070Y339867D01*
X1361933Y357730D01*
X1368941Y374650D01*
D02*
G37*
G36*
X1289050D02*
X1247259D01*
X1254267Y357730D01*
X1272130Y339867D01*
X1289050Y332859D01*
Y374650D01*
D02*
G37*
G36*
X1790700Y361950D02*
X1746250D01*
Y311150D01*
X1790700D01*
Y361950D01*
D02*
G37*
G36*
X1708150D02*
X1663700D01*
Y311150D01*
X1708150D01*
Y361950D01*
D02*
G37*
G36*
X2221696Y2076450D02*
X2190746D01*
Y2025650D01*
X2221696D01*
Y2076450D01*
D02*
G37*
G36*
X2152646D02*
X2121696D01*
Y2025650D01*
X2152646D01*
Y2076450D01*
D02*
G37*
G36*
X2221696Y1987550D02*
X2190746D01*
Y1936750D01*
X2221696D01*
Y1987550D01*
D02*
G37*
G36*
X2152646D02*
X2121696D01*
Y1936750D01*
X2152646D01*
Y1987550D01*
D02*
G37*
G36*
X2381250Y1962150D02*
X2349500D01*
Y1905000D01*
X2381250D01*
Y1962150D01*
D02*
G37*
G36*
X2265260Y1753200D02*
X2164310D01*
Y1722250D01*
X2265260D01*
Y1753200D01*
D02*
G37*
G36*
X2126210D02*
X2025260D01*
Y1722250D01*
X2126210D01*
Y1753200D01*
D02*
G37*
G36*
X4634704Y2127250D02*
X4603754D01*
Y2076450D01*
X4634704D01*
Y2127250D01*
D02*
G37*
G36*
X4565654D02*
X4534704D01*
Y2076450D01*
X4565654D01*
Y2127250D01*
D02*
G37*
G36*
X4634704Y2038350D02*
X4603754D01*
Y1987550D01*
X4634704D01*
Y2038350D01*
D02*
G37*
G36*
X4565654D02*
X4534704D01*
Y1987550D01*
X4565654D01*
Y2038350D01*
D02*
G37*
G36*
X4210050Y1866096D02*
X4159250D01*
Y1835146D01*
X4210050D01*
Y1866096D01*
D02*
G37*
G36*
X4121150D02*
X4070350D01*
Y1835146D01*
X4121150D01*
Y1866096D01*
D02*
G37*
G36*
X4210050Y1797046D02*
X4159250D01*
Y1766096D01*
X4210050D01*
Y1797046D01*
D02*
G37*
G36*
X4121150D02*
X4070350D01*
Y1766096D01*
X4121150D01*
Y1797046D01*
D02*
G37*
G36*
X4516181Y1742424D02*
X4471646D01*
Y1733534D01*
X4512710D01*
X4505857Y1741814D01*
X4512712Y1742074D01*
X4516181Y1742424D01*
D02*
G37*
G36*
X4433546D02*
X4353536D01*
Y1733534D01*
X4433546D01*
Y1742424D01*
D02*
G37*
G36*
X4544245Y1695434D02*
X4471646D01*
Y1686544D01*
X4551656D01*
Y1687091D01*
X4551351Y1686849D01*
X4544245Y1695434D01*
D02*
G37*
G36*
X4433546D02*
X4353536D01*
Y1686544D01*
X4433546D01*
Y1695434D01*
D02*
G37*
G36*
X4780272Y1651000D02*
X4718042D01*
Y1543050D01*
X4780272D01*
Y1651000D01*
D02*
G37*
G36*
X4679942D02*
X4617712D01*
Y1543050D01*
X4679942D01*
Y1651000D01*
D02*
G37*
G36*
X4780272Y1504950D02*
X4718042D01*
Y1397000D01*
X4780272D01*
Y1504950D01*
D02*
G37*
G36*
X4679942D02*
X4617712D01*
Y1397000D01*
X4679942D01*
Y1504950D01*
D02*
G37*
G36*
X5044416Y1314434D02*
X4964406D01*
Y1305544D01*
X5044416D01*
Y1314434D01*
D02*
G37*
G36*
X4863296Y1111250D02*
X4832346D01*
Y1060450D01*
X4863296D01*
Y1111250D01*
D02*
G37*
G36*
X4794246D02*
X4763296D01*
Y1060450D01*
X4794246D01*
Y1111250D01*
D02*
G37*
G36*
X4863296Y1022350D02*
X4832346D01*
Y971550D01*
X4863296D01*
Y1022350D01*
D02*
G37*
G36*
X4794246D02*
X4763296D01*
Y971550D01*
X4794246D01*
Y1022350D01*
D02*
G37*
G36*
X4647000Y796200D02*
X4566050D01*
Y730250D01*
X4647000D01*
Y796200D01*
D02*
G37*
G36*
X4527950D02*
X4447000D01*
Y730250D01*
X4527950D01*
Y796200D01*
D02*
G37*
G36*
X4647000Y692150D02*
X4566050D01*
Y626200D01*
X4647000D01*
Y692150D01*
D02*
G37*
G36*
X4527950D02*
X4447000D01*
Y626200D01*
X4527950D01*
Y692150D01*
D02*
G37*
G36*
X4981600Y643800D02*
X4900650D01*
Y577850D01*
X4981600D01*
Y643800D01*
D02*
G37*
G36*
X4862550D02*
X4781600D01*
Y577850D01*
X4862550D01*
Y643800D01*
D02*
G37*
G36*
X4981600Y539750D02*
X4900650D01*
Y473800D01*
X4981600D01*
Y539750D01*
D02*
G37*
G36*
X4862550D02*
X4781600D01*
Y473800D01*
X4862550D01*
Y539750D01*
D02*
G37*
G36*
X2511140Y1281896D02*
X2460340D01*
Y1250946D01*
X2511140D01*
Y1281896D01*
D02*
G37*
G36*
X2422240D02*
X2371440D01*
Y1250946D01*
X2422240D01*
Y1281896D01*
D02*
G37*
G36*
X2265260Y1224150D02*
X2164310D01*
Y1193200D01*
X2265260D01*
Y1224150D01*
D02*
G37*
G36*
X2126210D02*
X2025260D01*
Y1193200D01*
X2126210D01*
Y1224150D01*
D02*
G37*
G36*
X2511140Y1212846D02*
X2460340D01*
Y1181896D01*
X2511140D01*
Y1212846D01*
D02*
G37*
G36*
X2422240D02*
X2371440D01*
Y1181896D01*
X2422240D01*
Y1212846D01*
D02*
G37*
G36*
X2082800Y1142285D02*
Y1079500D01*
X2145585D01*
X2141107Y1096212D01*
X2131075Y1113588D01*
X2116888Y1127775D01*
X2099512Y1137807D01*
X2082800Y1142285D01*
D02*
G37*
G36*
X2057400D02*
X2040688Y1137807D01*
X2023312Y1127775D01*
X2009125Y1113588D01*
X1999093Y1096212D01*
X1994615Y1079500D01*
X2057400D01*
Y1142285D01*
D02*
G37*
G36*
X2145585Y1054100D02*
X2082800D01*
Y991315D01*
X2099512Y995793D01*
X2116888Y1005825D01*
X2131075Y1020012D01*
X2141107Y1037388D01*
X2145585Y1054100D01*
D02*
G37*
G36*
X2057400D02*
X1994615D01*
X1999093Y1037388D01*
X2009125Y1020012D01*
X2023312Y1005825D01*
X2040688Y995793D01*
X2057400Y991315D01*
Y1054100D01*
D02*
G37*
G36*
X2418700Y1003624D02*
X2375250D01*
Y806449D01*
X2482424D01*
Y939899D01*
X2477574Y964285D01*
X2463760Y984959D01*
X2443086Y998773D01*
X2418700Y1003624D01*
D02*
G37*
G36*
X2337150D02*
X2293700D01*
X2269313Y998773D01*
X2248640Y984959D01*
X2234826Y964285D01*
X2229975Y939899D01*
Y806449D01*
X2337150D01*
Y1003624D01*
D02*
G37*
G36*
X2082800Y862885D02*
Y800100D01*
X2145585D01*
X2141107Y816812D01*
X2131075Y834188D01*
X2116888Y848375D01*
X2099512Y858407D01*
X2082800Y862885D01*
D02*
G37*
G36*
X2057400D02*
X2040688Y858407D01*
X2023312Y848375D01*
X2009125Y834188D01*
X1999093Y816812D01*
X1994615Y800100D01*
X2057400D01*
Y862885D01*
D02*
G37*
G36*
X2145585Y774700D02*
X2082800D01*
Y711915D01*
X2099512Y716393D01*
X2116888Y726425D01*
X2131075Y740612D01*
X2141107Y757988D01*
X2145585Y774700D01*
D02*
G37*
G36*
X2057400D02*
X1994615D01*
X1999093Y757988D01*
X2009125Y740612D01*
X2023312Y726425D01*
X2040688Y716393D01*
X2057400Y711915D01*
Y774700D01*
D02*
G37*
G36*
X3136185Y711200D02*
X3073400D01*
Y648415D01*
X3090112Y652893D01*
X3107488Y662925D01*
X3121675Y677112D01*
X3131707Y694488D01*
X3136185Y711200D01*
D02*
G37*
G36*
X3048000D02*
X2985215D01*
X2989693Y694488D01*
X2999725Y677112D01*
X3013912Y662925D01*
X3031288Y652893D01*
X3048000Y648415D01*
Y711200D01*
D02*
G37*
G36*
X2805985D02*
X2743200D01*
Y648415D01*
X2759912Y652893D01*
X2777288Y662925D01*
X2791475Y677112D01*
X2801507Y694488D01*
X2805985Y711200D01*
D02*
G37*
G36*
X2717800D02*
X2655015D01*
X2659493Y694488D01*
X2669525Y677112D01*
X2683712Y662925D01*
X2701088Y652893D01*
X2717800Y648415D01*
Y711200D01*
D02*
G37*
G36*
X2482424Y768349D02*
X2375250D01*
Y571175D01*
X2418700D01*
X2443086Y576026D01*
X2463760Y589839D01*
X2477574Y610513D01*
X2482424Y634899D01*
Y768349D01*
D02*
G37*
G36*
X2337150D02*
X2229975D01*
Y634899D01*
X2234826Y610513D01*
X2248640Y589839D01*
X2269313Y576026D01*
X2293700Y571175D01*
X2337150D01*
Y768349D01*
D02*
G37*
G36*
X2914650Y518041D02*
Y476250D01*
X2956441D01*
X2949433Y493170D01*
X2931570Y511033D01*
X2914650Y518041D01*
D02*
G37*
G36*
X2876550D02*
X2859630Y511033D01*
X2841767Y493170D01*
X2834759Y476250D01*
X2876550D01*
Y518041D01*
D02*
G37*
G36*
X3073400Y519985D02*
Y457200D01*
X3136185D01*
X3131707Y473912D01*
X3121675Y491288D01*
X3107488Y505475D01*
X3090112Y515507D01*
X3073400Y519985D01*
D02*
G37*
G36*
X3048000D02*
X3031288Y515507D01*
X3013912Y505475D01*
X2999725Y491288D01*
X2989693Y473912D01*
X2985215Y457200D01*
X3048000D01*
Y519985D01*
D02*
G37*
G36*
X2743200D02*
Y457200D01*
X2805985D01*
X2801507Y473912D01*
X2791475Y491288D01*
X2777288Y505475D01*
X2759912Y515507D01*
X2743200Y519985D01*
D02*
G37*
G36*
X2717800D02*
X2701088Y515507D01*
X2683712Y505475D01*
X2669525Y491288D01*
X2659493Y473912D01*
X2655015Y457200D01*
X2717800D01*
Y519985D01*
D02*
G37*
G36*
X2424896Y450850D02*
X2393946D01*
Y400050D01*
X2424896D01*
Y450850D01*
D02*
G37*
G36*
X2355846D02*
X2324896D01*
Y400050D01*
X2355846D01*
Y450850D01*
D02*
G37*
G36*
X2956441Y438150D02*
X2914650D01*
Y396359D01*
X2931570Y403367D01*
X2949433Y421230D01*
X2956441Y438150D01*
D02*
G37*
G36*
X2876550D02*
X2834759D01*
X2841767Y421230D01*
X2859630Y403367D01*
X2876550Y396359D01*
Y438150D01*
D02*
G37*
G36*
X3136185Y431800D02*
X3073400D01*
Y369015D01*
X3090112Y373493D01*
X3107488Y383525D01*
X3121675Y397712D01*
X3131707Y415088D01*
X3136185Y431800D01*
D02*
G37*
G36*
X3048000D02*
X2985215D01*
X2989693Y415088D01*
X2999725Y397712D01*
X3013912Y383525D01*
X3031288Y373493D01*
X3048000Y369015D01*
Y431800D01*
D02*
G37*
G36*
X2805985D02*
X2743200D01*
Y369015D01*
X2759912Y373493D01*
X2777288Y383525D01*
X2791475Y397712D01*
X2801507Y415088D01*
X2805985Y431800D01*
D02*
G37*
G36*
X2717800D02*
X2655015D01*
X2659493Y415088D01*
X2669525Y397712D01*
X2683712Y383525D01*
X2701088Y373493D01*
X2717800Y369015D01*
Y431800D01*
D02*
G37*
G36*
X2424896Y361950D02*
X2393946D01*
Y311150D01*
X2424896D01*
Y361950D01*
D02*
G37*
G36*
X2355846D02*
X2324896D01*
Y311150D01*
X2355846D01*
Y361950D01*
D02*
G37*
G36*
X6801890Y683600D02*
X6700940D01*
Y652650D01*
X6801890D01*
Y683600D01*
D02*
G37*
G36*
X6940940Y614550D02*
X6839990D01*
Y583600D01*
X6940940D01*
Y614550D01*
D02*
G37*
G36*
X6801890D02*
X6700940D01*
Y583600D01*
X6801890D01*
Y614550D01*
D02*
G37*
G36*
X6572250Y494504D02*
X6521450D01*
Y463554D01*
X6572250D01*
Y494504D01*
D02*
G37*
G36*
Y425454D02*
X6521450D01*
Y394504D01*
X6572250D01*
Y425454D01*
D02*
G37*
G36*
X6883400Y419100D02*
X6826250D01*
Y387350D01*
X6883400D01*
Y419100D01*
D02*
G37*
G36*
X6788150D02*
X6731000D01*
Y387350D01*
X6788150D01*
Y419100D01*
D02*
G37*
%LPD*%
D10*
X1464680Y3666119D02*
G03*
X1638300Y3594100I173619J173266D01*
G01*
X2460538Y3604260D02*
G03*
X2465979Y3608979I-30480J40641D01*
G01*
X2430058Y3594100D02*
G03*
X2460538Y3604260I0J50800D01*
G01*
X3381730Y3414440D02*
G03*
X3368270Y3416300I-13620J-48940D01*
G01*
X3381730Y3414440D02*
G03*
X3396945Y3412329I15215J53769D01*
G01*
X3511855D02*
G03*
X3512378Y3412332I0J55880D01*
G01*
X3936332Y3416302D02*
G03*
X3986645Y3466039I-476J50798D01*
G01*
X1366529Y3522970D02*
G03*
X1619083Y3416300I252287J245009D01*
G01*
X429200Y4481342D02*
G03*
X439360Y4450862I50800J0D01*
G01*
D02*
G03*
X443986Y4445514I40641J30480D01*
G01*
X2599142Y3721100D02*
G03*
X2563221Y3706221I1J-50800D01*
G01*
X3242858Y3860800D02*
G03*
X3278698Y3875598I0J50800D01*
G01*
X3323830Y3899688D02*
G03*
X3287990Y3884890I0J-50800D01*
G01*
X2564193Y4025963D02*
G03*
X2566638Y4025904I2445J50741D01*
G01*
X1054100Y4542242D02*
G03*
X1064260Y4511762I50800J0D01*
G01*
X1306006Y4269294D02*
G03*
X1341846Y4254496I35840J36001D01*
G01*
X1064260Y4511762D02*
G03*
X1068886Y4506414I40641J30480D01*
G01*
X1064260Y5051338D02*
G03*
X1054100Y5020858I40640J-30480D01*
G01*
X1409700Y5376458D02*
G03*
X1373860Y5361660I0J-50800D01*
G01*
X1068886Y5056686D02*
G03*
X1064260Y5051338I36015J-35828D01*
G01*
X1293285Y4040717D02*
G03*
X1329147Y4025896I35863J35979D01*
G01*
X914400Y4440480D02*
G03*
X929181Y4404818I50800J161D01*
G01*
X914400Y4820550D02*
G03*
X863600Y4871350I-50800J0D01*
G01*
X5032276Y3856536D02*
G03*
X5037624Y3851910I35828J36015D01*
G01*
D02*
G03*
X5068104Y3841750I30480J40640D01*
G01*
X609600Y4542082D02*
G03*
X624357Y4506444I50800J161D01*
G01*
X6184902Y3378227D02*
G03*
X6134257Y3429000I-50800J-26D01*
G01*
X5380824Y3431267D02*
G03*
X5395830Y3429001I15006J48533D01*
G01*
X5136636Y4211836D02*
G03*
X5118104Y4167002I44968J-44834D01*
G01*
X4886017Y3469199D02*
G03*
X4921858Y3454400I35840J36001D01*
G01*
X4645116Y3689528D02*
G03*
X4614636Y3699688I-30480J-40640D01*
G01*
X4650557Y3684809D02*
G03*
X4645116Y3689528I-35921J-35922D01*
G01*
X4312631Y3321265D02*
G03*
X4327430Y3285424I50800J0D01*
G01*
X4813304Y1767824D02*
G03*
X4864104Y1717024I50800J0D01*
G01*
X5078796Y1587484D02*
G03*
X5114636Y1602282I0J50800D01*
G01*
X5046242Y1460484D02*
G03*
X5082082Y1475282I0J50800D01*
G01*
X5132792Y1504950D02*
G03*
X5096951Y1490151I0J-50800D01*
G01*
X5473704Y1168400D02*
G03*
X5524504Y1219200I0J50800D01*
G01*
X4584696Y1279850D02*
G03*
X4535648Y1330620I-50800J0D01*
G01*
X4533904Y1717024D02*
G03*
X4584704Y1767824I0J50800D01*
G01*
X4864096Y1330944D02*
G03*
X4813296Y1280144I0J-50800D01*
G01*
X358907Y2695707D02*
Y2764289D01*
X617220Y3022602D01*
X2465979Y3608979D02*
X2563221Y3706221D01*
X1638300Y3594100D02*
X2430058Y3594100D01*
X624357Y4506444D02*
X1464680Y3666119D01*
X1619083Y3416300D02*
X3368270D01*
X3396945Y3412329D02*
X3511855D01*
X3512378Y3412331D02*
X3936332Y3416302D01*
X3986645Y3466039D02*
X3987231Y3494100D01*
X443986Y4445514D02*
X1366529Y3522970D01*
X1790700Y2006600D02*
X1943096D01*
X1905000Y3060704D02*
X2549947D01*
X2562651Y3048000D01*
X2565400D01*
X429200Y4481342D02*
Y4729850D01*
X2599142Y3721100D02*
X3327400Y3721100D01*
X3278698Y3875598D02*
X3287990Y3884890D01*
X3323830Y3899688D02*
X3670300D01*
X2124288Y3860800D02*
X3242858D01*
X2566638Y4025904D02*
X2768600D01*
X3648443D01*
X4673600Y3479800D02*
X4889504D01*
X4524570Y3999688D02*
X4556320D01*
X4287231Y4205300D02*
Y4235098D01*
X4318300Y4266167D01*
X4348098D01*
X2559050Y4026214D02*
X2564193Y4025963D01*
X509368Y2998568D02*
X593186D01*
X617220Y3022602D01*
X7797800Y1066800D02*
Y1143000D01*
X4889504Y3479800D02*
X4902200Y3492496D01*
X5740400Y2032000D02*
Y2286000D01*
X5537196D02*
X5740400D01*
X5524496Y2298700D02*
X5537196Y2286000D01*
X5295896Y2278850D02*
Y2298700D01*
Y2278850D02*
X5320496Y2254250D01*
X5327654D01*
X5480054Y2101850D01*
X5499904D01*
X5524504Y2077250D01*
Y2057400D02*
Y2077250D01*
X5308600Y1168400D02*
X5473704D01*
X6500404Y1153708D02*
X6502400Y1155704D01*
X6386108Y1153708D02*
X6500404D01*
X6311900Y1079500D02*
X6386108Y1153708D01*
X6311900Y800100D02*
Y1079500D01*
Y800100D02*
X6414296Y697704D01*
X6477800D01*
X6502400Y673104D01*
X3357880Y4909840D02*
X3376930Y4890790D01*
X1054100Y4542242D02*
Y5020858D01*
X1341846Y4254496D02*
X1473200D01*
X1068886Y4506414D02*
X1306006Y4269294D01*
X1068886Y5056686D02*
X1373860Y5361660D01*
X1409700Y5376458D02*
X1617258D01*
X1651000Y5410200D01*
X4038200Y483000D02*
X4038600Y482600D01*
X4038200Y483000D02*
Y711200D01*
X3886200Y965200D02*
Y1219200D01*
X5740400D02*
Y1409704D01*
X5054600Y1866896D02*
Y1930400D01*
X1329147Y4025896D02*
X1473200D01*
X929181Y4404818D02*
X1293284Y4040716D01*
X914400Y4440480D02*
Y4820550D01*
X739200Y4871350D02*
X863600D01*
X1600200Y3784600D02*
X1714504D01*
X2260600Y4254504D02*
Y4343400D01*
Y4025904D02*
X2514600D01*
X2520950Y4028072D02*
X2559050Y4026214D01*
X5346704Y3841750D02*
Y3962400D01*
X5032183Y3856629D02*
X5032276Y3856536D01*
X5346704Y3708400D02*
Y3841750D01*
X5002612Y3886200D02*
X5032183Y3856629D01*
X5068104Y3841750D02*
X5346704D01*
X4749800Y3886200D02*
X5002612D01*
X609600Y4542082D02*
Y4749800D01*
X507650Y4851750D02*
X609600Y4749800D01*
X448800Y4851750D02*
X507650D01*
X429200Y4871350D02*
X448800Y4851750D01*
X3655608Y3699688D02*
X3781620D01*
X3601250Y3517904D02*
X3625850Y3542504D01*
Y3669930D02*
X3655608Y3699688D01*
X3625850Y3542504D02*
Y3669930D01*
X4233639Y2946400D02*
X5118104D01*
X3327400Y3517904D02*
X3581400D01*
X3911600Y4419600D02*
X3983224D01*
X3987231Y4205300D02*
Y4419600D01*
X4187231Y4205300D02*
Y4375150D01*
X4203704Y4419600D01*
X5395830Y3429001D02*
X6134257Y3429000D01*
X6184902Y3312218D02*
Y3376818D01*
X5346704Y3454400D02*
X5371304Y3434211D01*
X6184902Y3378227D02*
X6184902Y3376818D01*
X5371304Y3434211D02*
X5380824Y3431267D01*
X4837904Y2095496D02*
X5054600D01*
X4813304Y2070896D02*
X4837904Y2095496D01*
X4813304Y2057400D02*
Y2070896D01*
X4597400Y4318000D02*
X4749000D01*
X4348098Y4266167D02*
X4349131Y4267200D01*
X4368800D01*
X4556320Y3999688D02*
X5080817Y3999687D01*
X5100845Y3999217D02*
X5118104Y3962400D01*
Y3999688D02*
Y4167002D01*
X5189550Y4264750D02*
X5257800Y4318000D01*
X5136636Y4211836D02*
X5189550Y4264750D01*
X4921858Y3454400D02*
X5118104D01*
X4873020Y3482196D02*
X4886017Y3469198D01*
X4492820Y3699688D02*
X4614636D01*
X4650557Y3684809D02*
X4803970Y3531396D01*
X4312631Y3321265D02*
Y3468700D01*
X4327430Y3285424D02*
X4375150Y3237704D01*
X4419600Y3213104D01*
X4803970Y3531396D02*
X4848420Y3506796D01*
X4873020Y3482196D01*
X4813304Y1767824D02*
Y2057400D01*
X4864104Y1717024D02*
X4871696D01*
X4945356Y1587484D02*
X5078796D01*
X5114636Y1602282D02*
X5271304Y1758950D01*
X5295904Y1803400D01*
X5295896Y1504950D02*
Y1549400D01*
X4945356Y1460484D02*
X5046242D01*
X5295896Y1295408D02*
Y1504950D01*
X5082082Y1475282D02*
X5096951Y1490151D01*
X5132792Y1504950D02*
X5271296D01*
X5295896Y1295408D02*
X5295904Y1295400D01*
Y1803400D02*
Y2057400D01*
X5524504Y1219200D02*
Y1295400D01*
X4526255Y1330944D02*
X4535648Y1330620D01*
X4452596Y1333484D02*
X4526255Y1330944D01*
X4584696Y991876D02*
Y1279850D01*
X4241580Y1419620D02*
X4282444Y1460484D01*
X4452596D01*
X4185920Y1363960D02*
X4191747D01*
X4241580Y1413793D01*
Y1419620D01*
X4871696Y1717024D02*
X4945356Y1714484D01*
X4526256Y1717024D02*
X4533904D01*
X4452596Y1714484D02*
X4526256Y1717024D01*
X4584704Y1767824D02*
Y1930400D01*
X4864096Y1330944D02*
X4871696D01*
X4945356Y1333484D01*
X4813296Y1117600D02*
Y1280144D01*
X4140200Y1587496D02*
X4140212Y1587484D01*
X4452596D01*
D11*
X1096916Y3271523D02*
G03*
X1081676Y3276603I-15240J-20320D01*
G01*
X1099584Y3269216D02*
G03*
X1096916Y3271523I-17909J-18013D01*
G01*
X1168400Y3189879D02*
G03*
X1163320Y3205119I-25400J0D01*
G01*
D02*
G03*
X1161013Y3207787I-20321J-15240D01*
G01*
X2137379Y2414600D02*
G03*
X2152619Y2419680I0J25400D01*
G01*
D02*
G03*
X2155287Y2421987I-15240J20321D01*
G01*
X2215112Y2481812D02*
G03*
X2217420Y2484481I-18013J17909D01*
G01*
X2227580Y2653473D02*
G03*
X2222500Y2638233I20320J-15240D01*
G01*
X2229887Y2656141D02*
G03*
X2227580Y2653473I18013J-17909D01*
G01*
X2217420Y2484481D02*
G03*
X2222500Y2499721I-20320J15240D01*
G01*
X2085779Y2464600D02*
G03*
X2103699Y2471999I0J25400D01*
G01*
X2164312Y2532612D02*
G03*
X2166620Y2535281I-18013J17909D01*
G01*
D02*
G03*
X2171700Y2550521I-20320J15240D01*
G01*
X2310778Y2612120D02*
G03*
X2286000Y2586728I622J-25392D01*
G01*
Y2540265D02*
G03*
X2311400Y2514865I25400J0D01*
G01*
X2692979Y2614600D02*
G03*
X2708219Y2619680I0J25400D01*
G01*
X2824714Y2735814D02*
G03*
X2827022Y2738483I-18013J17909D01*
G01*
X2708219Y2619680D02*
G03*
X2710887Y2621987I-15240J20321D01*
G01*
X2827022Y2738483D02*
G03*
X2832102Y2753723I-20320J15240D01*
G01*
X2713338Y2557160D02*
G03*
X2695378Y2564600I-17960J-17961D01*
G01*
X4202916Y3617884D02*
G03*
X4210301Y3600199I25399J221D01*
G01*
X3408319Y3726180D02*
G03*
X3410987Y3728487I-15240J20321D01*
G01*
X3492710Y3799689D02*
G03*
X3477470Y3794609I0J-25400D01*
G01*
X3393079Y3721100D02*
G03*
X3408319Y3726180I0J25400D01*
G01*
X3477470Y3794609D02*
G03*
X3474801Y3792301I15240J-20321D01*
G01*
X3792036Y4018465D02*
G03*
X3774075Y4025904I-17961J-17961D01*
G01*
X1099584Y3269215D02*
X1161012Y3207787D01*
X1168400Y2616200D02*
Y3189879D01*
X871217Y3276603D02*
X1081676D01*
X1854200Y2514600D02*
X1982100D01*
X1854200Y2794804D02*
X1854200Y2514600D01*
X1498600D02*
X1854200D01*
Y2794804D02*
X1891500Y2832104D01*
X1905000D01*
X2513800Y2464600D02*
X2565400Y2413000D01*
X2412100Y2464600D02*
X2513800D01*
X1371600Y2641600D02*
X1498600Y2514600D01*
X1447000Y2464600D02*
X1982100D01*
X2405850Y2832104D02*
X2425700D01*
X1370000Y2414600D02*
X1982100D01*
X871218Y3530603D02*
X1066797D01*
X1270000Y3327400D01*
Y2641600D02*
Y3327400D01*
Y2641600D02*
X1447000Y2464600D01*
X1168400Y2616200D02*
X1370000Y2414600D01*
X1982100D02*
X2137379D01*
X2155287Y2421987D02*
X2215112Y2481812D01*
X2222500Y2499721D02*
Y2638233D01*
X2229887Y2656141D02*
X2405850Y2832104D01*
X2103699Y2471999D02*
X2164312Y2532612D01*
X1982100Y2464600D02*
X2085779D01*
X2171700Y2550521D02*
Y2832104D01*
X2094700Y2564600D02*
X2095500Y2565400D01*
X1982100Y2564600D02*
X2094700D01*
X1982100Y2614600D02*
X1983400Y2615900D01*
X2057100D02*
X2095500Y2654300D01*
X1983400Y2615900D02*
X2057100D01*
X2146300Y2273300D02*
Y2282923D01*
X2163043Y2299666D02*
Y2302743D01*
X2274900Y2414600D01*
X2146300Y2282923D02*
X2163043Y2299666D01*
X2274900Y2414600D02*
X2412100D01*
X2358974Y2613300D02*
X2412100Y2614600D01*
X2286000Y2540265D02*
Y2586728D01*
X2310778Y2612120D02*
X2358974Y2613300D01*
X2311400Y2514865D02*
X2351300D01*
X2412100Y2514600D01*
Y2614600D02*
X2692979D01*
X2832102Y2753723D02*
Y2885417D01*
X2710887Y2621987D02*
X2824714Y2735814D01*
X2713338Y2557160D02*
X2832102Y2438398D01*
X2412100Y2564600D02*
X2695378D01*
X2832102Y2245418D02*
Y2438398D01*
X4202500Y3679600D02*
X4202800Y3635150D01*
X4202916Y3617884D01*
X4210301Y3600199D02*
X4335091Y3475409D01*
X3327400Y3721100D02*
X3393079D01*
X3492710Y3799689D02*
X3781619D01*
X3410987Y3728487D02*
X3474801Y3792301D01*
X3648443Y4025904D02*
X3774075D01*
X3792035Y4018464D02*
X3874700Y3935800D01*
X4264550Y3885800D02*
X4308700D01*
X4263856Y3885106D02*
X4264550Y3885800D01*
X4151806Y3885106D02*
X4263856D01*
X4127500Y3860800D02*
X4151806Y3885106D01*
X4102500Y3679600D02*
X4152500D01*
X3987231Y3494100D02*
Y3555431D01*
X4052200Y3620400D01*
Y3679300D01*
X4052500Y3679600D01*
X4466412Y3699688D02*
X4492820D01*
X4412132Y3753968D02*
X4466412Y3699688D01*
X4410974Y3753968D02*
X4412132D01*
X4379442Y3785500D02*
X4410974Y3753968D01*
X4309000Y3785500D02*
X4379442D01*
X4308700Y3785800D02*
X4309000Y3785500D01*
X4429912Y3799688D02*
X4508500D01*
X4393800Y3835800D02*
X4429912Y3799688D01*
X4308700Y3835800D02*
X4393800D01*
X4749400Y3885800D02*
X4749800Y3886200D01*
X4308700Y3885800D02*
X4749400D01*
X4460682Y3935800D02*
X4524570Y3999688D01*
X4308700Y3935800D02*
X4460682D01*
X4287231Y4185631D02*
Y4205300D01*
X4202800Y4101200D02*
X4287231Y4185631D01*
X4202800Y4042300D02*
Y4101200D01*
X4202500Y4042000D02*
X4202800Y4042300D01*
X4152500Y4170569D02*
X4187231Y4205300D01*
X4152500Y4042000D02*
Y4170569D01*
X4087231Y4205300D02*
X4102500Y4190031D01*
Y4042000D02*
Y4190031D01*
X3987231Y4178869D02*
Y4205300D01*
Y4178869D02*
X4052500Y4113600D01*
Y4042000D02*
Y4113600D01*
X3874700Y3935800D02*
X3946300D01*
X3670300Y3899688D02*
X3733012D01*
X3746900Y3885800D01*
X3946300D01*
X3781619Y3799689D02*
X3817730Y3835800D01*
X3946300D01*
X3781620Y3699688D02*
X3801288D01*
X3887100Y3785500D01*
X3946000D01*
X3946300Y3785800D01*
D12*
X382036Y1510264D02*
G03*
X471705Y1473200I89669J89936D01*
G01*
X304798Y1640106D02*
G03*
X341863Y1550437I127000J0D01*
G01*
X304800Y2641599D02*
G03*
X304798Y2641232I126999J-622D01*
G01*
X7696200Y1981200D02*
G03*
X8102600Y2387600I0J406400D01*
G01*
X8139798Y2945498D02*
G03*
X8102600Y2855695I89802J-89802D01*
G01*
X7884895Y228600D02*
G03*
X7974564Y265664I0J127000D01*
G01*
X8370336Y661436D02*
G03*
X8407400Y751105I-89936J89669D01*
G01*
X8523508Y3276603D02*
G03*
X8433839Y3239539I0J-127000D01*
G01*
X4074700Y712184D02*
G03*
X4185920Y838200I-15780J126016D01*
G01*
X358907Y2695707D02*
X431802Y2768602D01*
X304800Y2641600D02*
Y2818034D01*
X341862Y1550437D02*
X382036Y1510264D01*
X304798Y1640106D02*
Y2641232D01*
X471705Y1473200D02*
X1565260D01*
X304800Y2641600D02*
X358907Y2695707D01*
X617219Y2284195D02*
X691614Y2209800D01*
X617219Y2284195D02*
Y2514604D01*
X691614Y2209800D02*
X2082800D01*
X2146300Y2273300D01*
X1955800Y381000D02*
X2146296D01*
X6807204Y1981200D02*
X7035800D01*
X7442200D02*
X7696200D01*
X8102600Y2387600D02*
Y2855695D01*
X8139798Y2945498D02*
X8433839Y3239539D01*
X8407400Y751105D02*
Y1042284D01*
X7974564Y265664D02*
X8370336Y661436D01*
X6299200Y228600D02*
X6807200D01*
X7884895D01*
X8407400Y1042285D02*
Y2527300D01*
X8407400Y1042284D02*
X8407400Y1042285D01*
X5481600Y558800D02*
X5503100Y537300D01*
X5563195D02*
X5592495Y508000D01*
X5503100Y537300D02*
X5563195D01*
X5592495Y508000D02*
X6019800D01*
X6046232Y481567D02*
X6299200Y228600D01*
X8407400Y2527300D02*
X8638982Y2758882D01*
X8715180D01*
X8724900Y2768602D01*
X8724898D02*
X8724900D01*
X8724898D02*
Y3022600D01*
X8724900Y3022602D01*
X304800Y2818034D02*
X509368Y3022602D01*
X2870200Y6197600D02*
X3795383D01*
X509368Y3022602D02*
X617220D01*
X3376930Y4916190D02*
X3383280Y4922540D01*
X3487440D02*
X3683000Y5118100D01*
X3376930Y4897140D02*
Y4916190D01*
X3683000Y5118100D02*
Y5816600D01*
X3383280Y4922540D02*
X3487440D01*
X4864096Y3200400D02*
X5118096D01*
X8523508Y3276603D02*
X8724898D01*
Y3530602D01*
X617220Y3022602D02*
X871219D01*
X617220D02*
X617220Y3022602D01*
Y2768602D02*
Y3022602D01*
X431802Y2768602D02*
X617220D01*
X4185920Y838200D02*
Y1064280D01*
X4038200Y711200D02*
X4074700Y712184D01*
D13*
X4013039Y3289304D02*
G03*
X4127500Y3403672I0J114461D01*
G01*
D02*
G03*
X4127500Y3403716I-63500J-69D01*
G01*
X3721096Y3289304D02*
X4012859D01*
X4127500Y3403716D02*
X4127500Y3683000D01*
X4012859Y3289304D02*
X4013039Y3289304D01*
X3581400Y3289304D02*
X3683000D01*
X5346696Y2946408D02*
X5346704Y2946400D01*
X5346696Y2946408D02*
Y3200400D01*
D14*
X6058168Y3594368D02*
G03*
X6067037Y3615862I-21611J21494D01*
G01*
X6032575Y3581400D02*
G03*
X6054069Y3590269I0J30480D01*
G01*
X5236176Y3590327D02*
G03*
X5257729Y3581400I21553J21553D01*
G01*
X4775421Y3788545D02*
G03*
X4748496Y3799688I-26925J-26956D01*
G01*
X2108200Y2863054D02*
X2139150Y2832104D01*
X2159000D01*
X4828570Y3735396D02*
X5093504D01*
X6054069Y3590269D02*
X6058168Y3594368D01*
X6054069Y3590269D02*
X6054069Y3590269D01*
X5172714Y3653790D02*
X5236176Y3590327D01*
X5257729Y3581400D02*
X6032575D01*
X4508500Y3799688D02*
X4748496D01*
X4797620Y3766346D02*
X4828570Y3735396D01*
X4775421Y3788544D02*
X4797620Y3766346D01*
X5118104Y3708400D02*
Y3710796D01*
X5093504Y3735396D02*
X5118104Y3710796D01*
X6067037Y3615862D02*
Y3877457D01*
X6141797Y3952217D01*
X6184902D01*
X5152864Y3653790D02*
X5172714D01*
X5118104Y3688550D02*
X5152864Y3653790D01*
X5118104Y3688550D02*
Y3708400D01*
D15*
X2870200Y6197600D02*
G03*
X2743200Y6070600I0J-127000D01*
G01*
X3796556Y6197595D02*
G03*
X3795383Y6197600I-1173J-126995D01*
G01*
X2639283Y5629676D02*
G03*
X2616443Y5550590I104008J-72879D01*
G01*
X2743200Y5787390D02*
Y6070600D01*
X3796556Y6197594D02*
X3893718Y6196697D01*
X1790700Y5359400D02*
X2628902D01*
X2626034Y5359256D02*
X2628900Y5302100D01*
X3893718Y6196697D02*
X3920218Y6095198D01*
Y5625298D02*
Y6095198D01*
X2616442Y5550590D02*
X2626034Y5359256D01*
X2706700Y5725890D02*
X2743200Y5787390D01*
X2639283Y5629676D02*
X2706700Y5725890D01*
X1651000Y5410200D02*
X1790700Y5359400D01*
D16*
X4295407Y5216967D02*
G03*
X4286480Y5238520I-30480J0D01*
G01*
X2679625Y4953000D02*
G03*
X2658131Y4944131I0J-30480D01*
G01*
X2637769Y4923769D02*
G03*
X2628900Y4902275I21611J-21494D01*
G01*
X4521200Y5232400D02*
X4528700D01*
X4589900Y5189100D02*
X4597400Y5181600D01*
X4572000Y5189100D02*
X4589900D01*
X1181096Y4584704D02*
X1320800D01*
X3327400Y3200400D02*
Y3289304D01*
X3784600Y4394200D02*
X3884358D01*
X3909758Y4419600D01*
X3911600D01*
X3683000Y3289304D02*
X3721096D01*
X3810000Y3200400D01*
X4528700Y5232400D02*
X4572000Y5189100D01*
X4495800Y5307882D02*
Y5334000D01*
Y5307882D02*
X4517312Y5286370D01*
Y5236288D02*
Y5286370D01*
Y5236288D02*
X4521200Y5232400D01*
X4191000Y5334000D02*
X4286480Y5238520D01*
X4295407Y5075307D02*
Y5216967D01*
X4236095Y5075307D02*
X4295407D01*
X4218240Y5057452D02*
X4236095Y5075307D01*
X4218240Y4611460D02*
Y5057452D01*
X4087231Y4480451D02*
X4218240Y4611460D01*
X4087231Y4205300D02*
Y4480451D01*
X2637769Y4923769D02*
X2658131Y4944131D01*
X2679625Y4953000D02*
X2743200D01*
X2628900Y4807100D02*
Y4902275D01*
X1562096Y4826000D02*
Y4940296D01*
D17*
X2413000Y3060704D02*
D03*
Y2832104D02*
D03*
X2159000Y3060704D02*
D03*
Y2832104D02*
D03*
X1905000Y3060704D02*
D03*
Y2832104D02*
D03*
X2441290Y1231896D02*
D03*
Y1460496D02*
D03*
X1320800Y4584704D02*
D03*
Y4813304D02*
D03*
X4140200Y1816096D02*
D03*
Y1587496D02*
D03*
X5054600Y1866896D02*
D03*
Y2095496D02*
D03*
X2260600Y4025904D02*
D03*
Y4254504D02*
D03*
X6502400Y927104D02*
D03*
Y1155704D02*
D03*
Y444504D02*
D03*
Y673104D02*
D03*
X5740400Y1638304D02*
D03*
Y1409704D02*
D03*
X4432300Y2946404D02*
D03*
Y3175004D02*
D03*
X4178300Y2946396D02*
D03*
Y3174996D02*
D03*
X3581400Y3517904D02*
D03*
Y3289304D02*
D03*
X3327400Y3517904D02*
D03*
Y3289304D02*
D03*
X5003800Y5575296D02*
D03*
Y5346696D02*
D03*
X2514600Y4254504D02*
D03*
Y4025904D02*
D03*
X2768600Y4254504D02*
D03*
Y4025904D02*
D03*
X4902200Y3492496D02*
D03*
Y3721096D02*
D03*
X1752600Y4025896D02*
D03*
Y4254496D02*
D03*
X2006600Y4254504D02*
D03*
Y4025904D02*
D03*
X1473200Y4025896D02*
D03*
Y4254496D02*
D03*
D18*
X1982100Y2614600D02*
D03*
Y2564600D02*
D03*
Y2514600D02*
D03*
Y2464600D02*
D03*
Y2414600D02*
D03*
X2412100D02*
D03*
Y2464600D02*
D03*
Y2514600D02*
D03*
Y2564600D02*
D03*
Y2614600D02*
D03*
D19*
X2527300Y1981200D02*
D03*
X2400300D02*
D03*
D20*
X1943096Y2006600D02*
D03*
X2171696D02*
D03*
X2374896Y381000D02*
D03*
X2146296D02*
D03*
X5346704Y3454400D02*
D03*
X5118104D02*
D03*
X1562096Y4927600D02*
D03*
X1790696D02*
D03*
X1562104Y4724400D02*
D03*
X1790704D02*
D03*
X4584704Y2057400D02*
D03*
X4813304D02*
D03*
X5295896Y2298700D02*
D03*
X5524496D02*
D03*
X5295904Y2057400D02*
D03*
X5524504D02*
D03*
X5295904Y1803400D02*
D03*
X5524504D02*
D03*
X5524496Y1549400D02*
D03*
X5295896D02*
D03*
X5295904Y1295400D02*
D03*
X5524504D02*
D03*
X4584696Y1041400D02*
D03*
X4813296D02*
D03*
X4635496Y3200400D02*
D03*
X4864096D02*
D03*
X4203704Y4419600D02*
D03*
X3975104D02*
D03*
X5346704Y3962400D02*
D03*
X5118104D02*
D03*
X5118096Y3200400D02*
D03*
X5346696D02*
D03*
X5346704Y3708400D02*
D03*
X5118104D02*
D03*
X5346704Y2946400D02*
D03*
X5118104D02*
D03*
X1714504Y3784600D02*
D03*
X1943104D02*
D03*
X6578604Y1981200D02*
D03*
X6807204D02*
D03*
D21*
X2895600Y457200D02*
D03*
X7797800Y1066800D02*
D03*
X1308100Y393700D02*
D03*
X7442200Y1981200D02*
D03*
X4495800Y5334000D02*
D03*
X4191000D02*
D03*
X6019800Y508000D02*
D03*
X5207000Y4902200D02*
D03*
X3810000Y3200400D02*
D03*
X2104346Y3779367D02*
D03*
X4673600Y3479800D02*
D03*
X6553200Y3962400D02*
D03*
X3784600Y4394200D02*
D03*
D22*
X1955800Y381000D02*
D03*
X1727200D02*
D03*
X7035800Y1981200D02*
D03*
X7264400D02*
D03*
D23*
X2832102Y2245418D02*
D03*
Y2885417D02*
D03*
X6184902Y3312218D02*
D03*
Y3952217D02*
D03*
D24*
X3175000Y2870200D02*
D03*
X3628582Y2870202D02*
D03*
D25*
X2247900Y4807100D02*
D03*
X2374900D02*
D03*
X2501900D02*
D03*
X2628900D02*
D03*
X2247900Y5302100D02*
D03*
X2374900D02*
D03*
X2501900D02*
D03*
X2628900D02*
D03*
D26*
X6807200Y368300D02*
D03*
Y241300D02*
D03*
D27*
X7400940Y863600D02*
D03*
X1565260Y1473200D02*
D03*
D28*
X6820940Y1093600D02*
D03*
Y863600D02*
D03*
Y633600D02*
D03*
X2145260Y1703200D02*
D03*
Y1473200D02*
D03*
Y1243200D02*
D03*
D29*
X4052500Y3679600D02*
D03*
X4102500D02*
D03*
X4152500D02*
D03*
X4202500D02*
D03*
Y4042000D02*
D03*
X4152500D02*
D03*
X4102500D02*
D03*
X4052500D02*
D03*
D30*
X3946300Y3935800D02*
D03*
Y3885800D02*
D03*
Y3835800D02*
D03*
Y3785800D02*
D03*
X4308700D02*
D03*
Y3835800D02*
D03*
Y3885800D02*
D03*
Y3935800D02*
D03*
D31*
X4127500Y3860800D02*
D03*
D32*
X6654800Y1574801D02*
D03*
X7353300Y1574800D02*
D03*
X2356200Y787399D02*
D03*
X1657700Y787400D02*
D03*
D33*
X3920218Y6095198D02*
D03*
X4560216D02*
D03*
X3920218Y5625298D02*
D03*
X4560216D02*
D03*
D34*
X4185920Y1363960D02*
D03*
Y1064280D02*
D03*
X2997200Y5227280D02*
D03*
Y4927600D02*
D03*
X3357880Y5227280D02*
D03*
Y4927600D02*
D03*
D35*
X4787900Y4860600D02*
D03*
D36*
X4978400Y4627100D02*
D03*
X4597400D02*
D03*
X4724400D02*
D03*
X4851400D02*
D03*
D37*
X4597400Y5181600D02*
D03*
X4724400D02*
D03*
X4851400D02*
D03*
X4978400D02*
D03*
D38*
X3971600Y4889500D02*
D03*
D39*
X3738100Y4699000D02*
D03*
Y5080000D02*
D03*
Y4953000D02*
D03*
Y4826000D02*
D03*
D40*
X4292600Y5080000D02*
D03*
Y4953000D02*
D03*
Y4826000D02*
D03*
Y4699000D02*
D03*
D41*
X4547000Y711200D02*
D03*
X4038200D02*
D03*
X5257800Y4318000D02*
D03*
X4749000D02*
D03*
D42*
X5481600Y558800D02*
D03*
X4881600D02*
D03*
D43*
X739200Y4729600D02*
D03*
Y4871350D02*
D03*
X429200Y4729850D02*
D03*
Y4871350D02*
D03*
D44*
X5996008Y2553504D02*
D03*
Y2883704D02*
D03*
X6250008Y2553504D02*
D03*
Y2883704D02*
D03*
D45*
X5756076Y4506908D02*
D03*
X6086276D02*
D03*
X5756076Y4227508D02*
D03*
X6086276D02*
D03*
D46*
X5504400Y5435600D02*
D03*
X6484400D02*
D03*
D47*
X4698992Y1524000D02*
D03*
D48*
X4945356Y1333484D02*
D03*
Y1460484D02*
D03*
Y1587484D02*
D03*
Y1714484D02*
D03*
X4452596D02*
D03*
Y1587484D02*
D03*
Y1460484D02*
D03*
Y1333484D02*
D03*
D49*
X8064500Y5943600D02*
D03*
X7556500D02*
D03*
X3263900D02*
D03*
X2755900D02*
D03*
D50*
X3594100Y2552700D02*
D03*
D51*
X5740400Y2286000D02*
D03*
Y965200D02*
D03*
X3886200D02*
D03*
Y2032000D02*
D03*
X9017000Y5207000D02*
D03*
D52*
X5740400Y2032000D02*
D03*
Y1219200D02*
D03*
X3886200D02*
D03*
Y2286000D02*
D03*
X8763000Y4699000D02*
D03*
X9017000D02*
D03*
X8763000Y4953000D02*
D03*
X9017000D02*
D03*
X8763000Y5207000D02*
D03*
X7073900Y2590800D02*
D03*
Y2844800D02*
D03*
X6819900Y2590800D02*
D03*
D53*
Y2844800D02*
D03*
D54*
X1651000Y5410200D02*
D03*
Y6045200D02*
D03*
D55*
X1143000Y5664200D02*
D03*
D56*
X8903723Y6094977D02*
D03*
X9080500Y6168200D02*
D03*
X9257276Y6094977D02*
D03*
X9330500Y5918200D02*
D03*
X9257276Y5741423D02*
D03*
X9080500Y5668200D02*
D03*
X8903723Y5741423D02*
D03*
X8830500Y5918200D02*
D03*
X178823Y6094977D02*
D03*
X355600Y6168200D02*
D03*
X532376Y6094977D02*
D03*
X605600Y5918200D02*
D03*
X532376Y5741423D02*
D03*
X355600Y5668200D02*
D03*
X178823Y5741423D02*
D03*
X105600Y5918200D02*
D03*
X178823Y646677D02*
D03*
X355600Y719900D02*
D03*
X532376Y646677D02*
D03*
X605600Y469900D02*
D03*
X532376Y293123D02*
D03*
X355600Y219900D02*
D03*
X178823Y293123D02*
D03*
X105600Y469900D02*
D03*
X8903723Y646677D02*
D03*
X9080500Y719900D02*
D03*
X9257276Y646677D02*
D03*
X9330500Y469900D02*
D03*
X9257276Y293123D02*
D03*
X9080500Y219900D02*
D03*
X8903723Y293123D02*
D03*
X8830500Y469900D02*
D03*
D57*
X9080500Y5905500D02*
D03*
X355600D02*
D03*
Y469900D02*
D03*
X9080500D02*
D03*
D58*
X8724900Y3022602D02*
D03*
X8724900Y2768602D02*
D03*
X8978897Y2768603D02*
D03*
X8978899Y3022602D02*
D03*
X8978897Y3276603D02*
D03*
X8724898Y3530602D02*
D03*
X8978898Y3530603D02*
D03*
X8724899Y2514604D02*
D03*
X8724898Y3276603D02*
D03*
X617218D02*
D03*
X617219Y2514604D02*
D03*
X871218Y3530603D02*
D03*
X617218Y3530602D02*
D03*
X871217Y3276603D02*
D03*
X871219Y3022602D02*
D03*
X871217Y2768603D02*
D03*
X617220Y2768602D02*
D03*
X617220Y3022602D02*
D03*
D59*
X8978900Y2514604D02*
D03*
X871220D02*
D03*
D60*
X1790700Y2006600D02*
D03*
X2565400Y2413000D02*
D03*
X1371600Y2641600D02*
D03*
X2095500Y2565400D02*
D03*
Y2654300D02*
D03*
X7797800Y1143000D02*
D03*
X5308600Y1168400D02*
D03*
X4038600Y482600D02*
D03*
X5054600Y1930400D02*
D03*
X1181096Y4584704D02*
D03*
X3327400Y3200400D02*
D03*
X1600200Y3784600D02*
D03*
X2260600Y4343400D02*
D03*
X4521200Y5232400D02*
D03*
X3911600Y4419600D02*
D03*
X4597400Y4318000D02*
D03*
X4368800Y4267200D02*
D03*
X2743200Y4953000D02*
D03*
X1562096Y4940296D02*
D03*
D61*
X2565400Y3048000D02*
D03*
X2146300Y2273300D02*
D03*
X4127500Y3860800D02*
D03*
X4889500Y5359400D02*
D03*
X4737100D02*
D03*
X4991096Y3200400D02*
D03*
D62*
X2070100Y787400D02*
D03*
Y1066800D02*
D03*
X2730500Y723900D02*
D03*
Y444500D02*
D03*
X3060700D02*
D03*
Y723900D02*
D03*
X6375400Y2273300D02*
D03*
X3683000Y5816600D02*
D03*
X7493000Y1155700D02*
D03*
X6375400Y1701800D02*
D03*
Y1422400D02*
D03*
Y1993900D02*
D03*
%TF.MD5,43da82cc2d4b96e2c29f69027dfec2f0*%
M02*
