%TF.GenerationSoftware,Altium Limited,Altium Designer,25.4.2 (15)*%
G04 Layer_Color=0*
%FSLAX45Y45*%
%MOMM*%
%TF.SameCoordinates,E42F7491-6EBA-4DE7-B61D-BE58CA0AFF3A*%
%TF.FilePolarity,Positive*%
%TF.FileFunction,Plated,1,2,PTH,Drill*%
%TF.Part,Single*%
G01*
G75*
%TA.AperFunction,ComponentDrill*%
%ADD126C,1.27000*%
%ADD127C,0.88900*%
%ADD128C,0.90000*%
%ADD129C,0.90000*%
%ADD130O,2.54000X1.27000*%
%ADD131O,1.27000X2.54000*%
%ADD132C,0.60000*%
%ADD133C,0.60000*%
%ADD134C,0.60000*%
%ADD135C,0.60000*%
%ADD136C,4.00000*%
%ADD137C,1.01600*%
%TA.AperFunction,ViaDrill,NotFilled*%
%ADD138C,0.30480*%
%ADD139C,0.35560*%
%ADD140C,0.60960*%
D126*
X8064500Y5943600D02*
D03*
X7556500D02*
D03*
X3263900D02*
D03*
X2755900D02*
D03*
D127*
X3594100Y2552700D02*
D03*
D128*
X5740400Y2286000D02*
D03*
Y2032000D02*
D03*
Y965200D02*
D03*
Y1219200D02*
D03*
X3886200Y965200D02*
D03*
Y1219200D02*
D03*
Y2032000D02*
D03*
Y2286000D02*
D03*
X8763000Y4699000D02*
D03*
X9017000D02*
D03*
X8763000Y4953000D02*
D03*
X9017000D02*
D03*
X8763000Y5207000D02*
D03*
X9017000D02*
D03*
D129*
X7073900Y2590800D02*
D03*
Y2844800D02*
D03*
X6819900Y2590800D02*
D03*
Y2844800D02*
D03*
D130*
X1651000Y5410200D02*
D03*
Y6045200D02*
D03*
D131*
X1143000Y5664200D02*
D03*
D132*
X8903723Y6094977D02*
D03*
X9257276Y5741423D02*
D03*
X178823Y6094977D02*
D03*
X532376Y5741423D02*
D03*
X178823Y646677D02*
D03*
X532376Y293123D02*
D03*
X8903723Y646677D02*
D03*
X9257276Y293123D02*
D03*
D133*
X9080500Y6168200D02*
D03*
Y5668200D02*
D03*
X355600Y6168200D02*
D03*
Y5668200D02*
D03*
Y719900D02*
D03*
Y219900D02*
D03*
X9080500Y719900D02*
D03*
Y219900D02*
D03*
D134*
X9257276Y6094977D02*
D03*
X8903723Y5741423D02*
D03*
X532376Y6094977D02*
D03*
X178823Y5741423D02*
D03*
X532376Y646677D02*
D03*
X178823Y293123D02*
D03*
X9257276Y646677D02*
D03*
X8903723Y293123D02*
D03*
D135*
X9330500Y5918200D02*
D03*
X8830500D02*
D03*
X605600D02*
D03*
X105600D02*
D03*
X605600Y469900D02*
D03*
X105600D02*
D03*
X9330500D02*
D03*
X8830500D02*
D03*
D136*
X9080500Y5905500D02*
D03*
X355600D02*
D03*
Y469900D02*
D03*
X9080500D02*
D03*
D137*
X8724900Y3022602D02*
D03*
X8724900Y2768602D02*
D03*
X8978897Y2768603D02*
D03*
X8978899Y3022602D02*
D03*
X8978897Y3276603D02*
D03*
X8978900Y2514604D02*
D03*
X8724898Y3530602D02*
D03*
X8978898Y3530603D02*
D03*
X8724899Y2514604D02*
D03*
X8724898Y3276603D02*
D03*
X617218D02*
D03*
X617219Y2514604D02*
D03*
X871218Y3530603D02*
D03*
X617218Y3530602D02*
D03*
X871220Y2514604D02*
D03*
X871217Y3276603D02*
D03*
X871219Y3022602D02*
D03*
X871217Y2768603D02*
D03*
X617220Y2768602D02*
D03*
X617220Y3022602D02*
D03*
D138*
X1790700Y2006600D02*
D03*
X2565400Y2413000D02*
D03*
X1371600Y2641600D02*
D03*
X2095500Y2565400D02*
D03*
Y2654300D02*
D03*
X7797800Y1143000D02*
D03*
X5308600Y1168400D02*
D03*
X4038600Y482600D02*
D03*
X5054600Y1930400D02*
D03*
X1181096Y4584704D02*
D03*
X3327400Y3200400D02*
D03*
X1600200Y3784600D02*
D03*
X2260600Y4343400D02*
D03*
X4521200Y5232400D02*
D03*
X3911600Y4419600D02*
D03*
X4597400Y4318000D02*
D03*
X4368800Y4267200D02*
D03*
X2743200Y4953000D02*
D03*
X1562096Y4940296D02*
D03*
D139*
X2565400Y3048000D02*
D03*
X2146300Y2273300D02*
D03*
X4127500Y3860800D02*
D03*
X4889500Y5359400D02*
D03*
X4737100D02*
D03*
X4991096Y3200400D02*
D03*
D140*
X2070100Y787400D02*
D03*
Y1066800D02*
D03*
X2730500Y723900D02*
D03*
Y444500D02*
D03*
X3060700D02*
D03*
Y723900D02*
D03*
X6375400Y2273300D02*
D03*
X3683000Y5816600D02*
D03*
X7493000Y1155700D02*
D03*
X6375400Y1701800D02*
D03*
Y1422400D02*
D03*
Y1993900D02*
D03*
%TF.MD5,1fae84c7347fc445c4e2d4d98cacc219*%
M02*
