%TF.GenerationSoftware,Altium Limited,Altium Designer,25.4.2 (15)*%
G04 Layer_Color=8388736*
%FSLAX45Y45*%
%MOMM*%
%TF.SameCoordinates,E42F7491-6EBA-4DE7-B61D-BE58CA0AFF3A*%
%TF.FilePolarity,Negative*%
%TF.FileFunction,Soldermask,Top*%
%TF.Part,Single*%
G01*
G75*
%TA.AperFunction,SMDPad,CuDef*%
%ADD77R,1.60020X1.20320*%
G04:AMPARAMS|DCode=78|XSize=1.6732mm|YSize=0.4832mm|CornerRadius=0.1366mm|HoleSize=0mm|Usage=FLASHONLY|Rotation=0.000|XOffset=0mm|YOffset=0mm|HoleType=Round|Shape=RoundedRectangle|*
%AMROUNDEDRECTD78*
21,1,1.67320,0.21000,0,0,0.0*
21,1,1.40000,0.48320,0,0,0.0*
1,1,0.27320,0.70000,-0.10500*
1,1,0.27320,-0.70000,-0.10500*
1,1,0.27320,-0.70000,0.10500*
1,1,0.27320,0.70000,0.10500*
%
%ADD78ROUNDEDRECTD78*%
%ADD79R,1.21920X1.72720*%
%ADD80R,1.20320X1.60020*%
%ADD81C,1.47320*%
%ADD82R,1.47320X1.60020*%
%ADD83R,3.50320X2.00320*%
%ADD84R,1.70320X3.50320*%
%ADD85R,0.80320X2.40320*%
%ADD86R,1.72720X1.21920*%
%ADD87R,2.60320X3.50320*%
%ADD88R,2.60320X1.20320*%
G04:AMPARAMS|DCode=89|XSize=0.4632mm|YSize=1.3462mm|CornerRadius=0.1341mm|HoleSize=0mm|Usage=FLASHONLY|Rotation=0.000|XOffset=0mm|YOffset=0mm|HoleType=Round|Shape=RoundedRectangle|*
%AMROUNDEDRECTD89*
21,1,0.46320,1.07800,0,0,0.0*
21,1,0.19500,1.34620,0,0,0.0*
1,1,0.26820,0.09750,-0.53900*
1,1,0.26820,-0.09750,-0.53900*
1,1,0.26820,-0.09750,0.53900*
1,1,0.26820,0.09750,0.53900*
%
%ADD89ROUNDEDRECTD89*%
G04:AMPARAMS|DCode=90|XSize=1.3462mm|YSize=0.4632mm|CornerRadius=0.1341mm|HoleSize=0mm|Usage=FLASHONLY|Rotation=0.000|XOffset=0mm|YOffset=0mm|HoleType=Round|Shape=RoundedRectangle|*
%AMROUNDEDRECTD90*
21,1,1.34620,0.19500,0,0,0.0*
21,1,1.07800,0.46320,0,0,0.0*
1,1,0.26820,0.53900,-0.09750*
1,1,0.26820,-0.53900,-0.09750*
1,1,0.26820,-0.53900,0.09750*
1,1,0.26820,0.53900,0.09750*
%
%ADD90ROUNDEDRECTD90*%
%ADD91R,2.34320X2.34320*%
G04:AMPARAMS|DCode=92|XSize=2.7032mm|YSize=4.5032mm|CornerRadius=0.7266mm|HoleSize=0mm|Usage=FLASHONLY|Rotation=180.000|XOffset=0mm|YOffset=0mm|HoleType=Round|Shape=RoundedRectangle|*
%AMROUNDEDRECTD92*
21,1,2.70320,3.05000,0,0,180.0*
21,1,1.25000,4.50320,0,0,180.0*
1,1,1.45320,-0.62500,1.52500*
1,1,1.45320,0.62500,1.52500*
1,1,1.45320,0.62500,-1.52500*
1,1,1.45320,-0.62500,-1.52500*
%
%ADD92ROUNDEDRECTD92*%
%ADD93R,2.00320X3.50320*%
G04:AMPARAMS|DCode=94|XSize=1.7272mm|YSize=1.9812mm|CornerRadius=0.4826mm|HoleSize=0mm|Usage=FLASHONLY|Rotation=90.000|XOffset=0mm|YOffset=0mm|HoleType=Round|Shape=RoundedRectangle|*
%AMROUNDEDRECTD94*
21,1,1.72720,1.01600,0,0,90.0*
21,1,0.76200,1.98120,0,0,90.0*
1,1,0.96520,0.50800,0.38100*
1,1,0.96520,0.50800,-0.38100*
1,1,0.96520,-0.50800,-0.38100*
1,1,0.96520,-0.50800,0.38100*
%
%ADD94ROUNDEDRECTD94*%
%ADD95R,4.80320X4.32320*%
%ADD96R,0.70320X0.75320*%
%ADD97R,0.70320X0.85320*%
%ADD98R,4.32320X4.80320*%
%ADD99R,0.75320X0.70320*%
%ADD100R,0.85320X0.70320*%
%ADD101R,2.20320X1.90320*%
%ADD102R,2.20320X1.90320*%
%ADD103R,1.70320X1.10320*%
%ADD104R,1.85420X1.21920*%
%ADD105R,1.21920X1.85420*%
%ADD106R,3.20320X5.60320*%
%ADD107R,1.82880X2.74320*%
%ADD108R,2.18440X0.76200*%
%TA.AperFunction,ComponentPad*%
%ADD109C,2.99720*%
%ADD110C,2.23520*%
%ADD111R,1.70320X1.70320*%
%ADD112C,1.70320*%
%ADD113R,1.70320X1.70320*%
%ADD114R,4.26720X2.74320*%
%ADD115R,2.74320X4.26720*%
%ADD116C,0.80320*%
%ADD117C,6.20320*%
%ADD118C,1.98120*%
%ADD119R,1.98120X1.98120*%
%TA.AperFunction,ViaPad*%
%ADD120C,0.71120*%
%ADD121C,0.81280*%
%ADD122C,1.21920*%
D77*
X2413000Y3060704D02*
D03*
Y2832104D02*
D03*
X2159000Y3060704D02*
D03*
Y2832104D02*
D03*
X1905000Y3060704D02*
D03*
Y2832104D02*
D03*
X2441290Y1231896D02*
D03*
Y1460496D02*
D03*
X1320800Y4584704D02*
D03*
Y4813304D02*
D03*
X4140200Y1816096D02*
D03*
Y1587496D02*
D03*
X5054600Y1866896D02*
D03*
Y2095496D02*
D03*
X2260600Y4025904D02*
D03*
Y4254504D02*
D03*
X6502400Y927104D02*
D03*
Y1155704D02*
D03*
Y444504D02*
D03*
Y673104D02*
D03*
X5740400Y1638304D02*
D03*
Y1409704D02*
D03*
X4432300Y2946404D02*
D03*
Y3175004D02*
D03*
X4178300Y2946396D02*
D03*
Y3174996D02*
D03*
X3581400Y3517904D02*
D03*
Y3289304D02*
D03*
X3327400Y3517904D02*
D03*
Y3289304D02*
D03*
X5003800Y5575296D02*
D03*
Y5346696D02*
D03*
X2514600Y4254504D02*
D03*
Y4025904D02*
D03*
X2768600Y4254504D02*
D03*
Y4025904D02*
D03*
X4902200Y3492496D02*
D03*
Y3721096D02*
D03*
X1752600Y4025896D02*
D03*
Y4254496D02*
D03*
X2006600Y4254504D02*
D03*
Y4025904D02*
D03*
X1473200Y4025896D02*
D03*
Y4254496D02*
D03*
D78*
X1982100Y2614600D02*
D03*
Y2564600D02*
D03*
Y2514600D02*
D03*
Y2464600D02*
D03*
Y2414600D02*
D03*
X2412100D02*
D03*
Y2464600D02*
D03*
Y2514600D02*
D03*
Y2564600D02*
D03*
Y2614600D02*
D03*
D79*
X2527300Y1981200D02*
D03*
X2400300D02*
D03*
D80*
X1943096Y2006600D02*
D03*
X2171696D02*
D03*
X2374896Y381000D02*
D03*
X2146296D02*
D03*
X5346704Y3454400D02*
D03*
X5118104D02*
D03*
X1562096Y4927600D02*
D03*
X1790696D02*
D03*
X1562104Y4724400D02*
D03*
X1790704D02*
D03*
X4584704Y2057400D02*
D03*
X4813304D02*
D03*
X5295896Y2298700D02*
D03*
X5524496D02*
D03*
X5295904Y2057400D02*
D03*
X5524504D02*
D03*
X5295904Y1803400D02*
D03*
X5524504D02*
D03*
X5524496Y1549400D02*
D03*
X5295896D02*
D03*
X5295904Y1295400D02*
D03*
X5524504D02*
D03*
X4584696Y1041400D02*
D03*
X4813296D02*
D03*
X4635496Y3200400D02*
D03*
X4864096D02*
D03*
X4203704Y4419600D02*
D03*
X3975104D02*
D03*
X5346704Y3962400D02*
D03*
X5118104D02*
D03*
X5118096Y3200400D02*
D03*
X5346696D02*
D03*
X5346704Y3708400D02*
D03*
X5118104D02*
D03*
X5346704Y2946400D02*
D03*
X5118104D02*
D03*
X1714504Y3784600D02*
D03*
X1943104D02*
D03*
X6578604Y1981200D02*
D03*
X6807204D02*
D03*
D81*
X2895600Y457200D02*
D03*
X7797800Y1066800D02*
D03*
X1308100Y393700D02*
D03*
X7442200Y1981200D02*
D03*
X4495800Y5334000D02*
D03*
X4191000D02*
D03*
X6019800Y508000D02*
D03*
X5207000Y4902200D02*
D03*
X3810000Y3200400D02*
D03*
X2104346Y3779367D02*
D03*
X4673600Y3479800D02*
D03*
X6553200Y3962400D02*
D03*
X3784600Y4394200D02*
D03*
D82*
X1955800Y381000D02*
D03*
X1727200D02*
D03*
X7035800Y1981200D02*
D03*
X7264400D02*
D03*
D83*
X2832102Y2245418D02*
D03*
Y2885417D02*
D03*
X6184902Y3312218D02*
D03*
Y3952217D02*
D03*
D84*
X3175000Y2870200D02*
D03*
X3628582Y2870202D02*
D03*
D85*
X2247900Y4807100D02*
D03*
X2374900D02*
D03*
X2501900D02*
D03*
X2628900D02*
D03*
X2247900Y5302100D02*
D03*
X2374900D02*
D03*
X2501900D02*
D03*
X2628900D02*
D03*
D86*
X6807200Y368300D02*
D03*
Y241300D02*
D03*
D87*
X7400940Y863600D02*
D03*
X1565260Y1473200D02*
D03*
D88*
X6820940Y1093600D02*
D03*
Y863600D02*
D03*
Y633600D02*
D03*
X2145260Y1703200D02*
D03*
Y1473200D02*
D03*
Y1243200D02*
D03*
D89*
X4052500Y3679600D02*
D03*
X4102500D02*
D03*
X4152500D02*
D03*
X4202500D02*
D03*
Y4042000D02*
D03*
X4152500D02*
D03*
X4102500D02*
D03*
X4052500D02*
D03*
D90*
X3946300Y3935800D02*
D03*
Y3885800D02*
D03*
Y3835800D02*
D03*
Y3785800D02*
D03*
X4308700D02*
D03*
Y3835800D02*
D03*
Y3885800D02*
D03*
Y3935800D02*
D03*
D91*
X4127500Y3860800D02*
D03*
D92*
X6654800Y1574801D02*
D03*
X7353300Y1574800D02*
D03*
X2356200Y787399D02*
D03*
X1657700Y787400D02*
D03*
D93*
X3920218Y6095198D02*
D03*
X4560216D02*
D03*
X3920218Y5625298D02*
D03*
X4560216D02*
D03*
D94*
X4185920Y1363960D02*
D03*
Y1064280D02*
D03*
X2997200Y5227280D02*
D03*
Y4927600D02*
D03*
X3357880Y5227280D02*
D03*
Y4927600D02*
D03*
D95*
X4787900Y4860600D02*
D03*
D96*
X4978400Y4627100D02*
D03*
X4597400D02*
D03*
X4724400D02*
D03*
X4851400D02*
D03*
D97*
X4597400Y5181600D02*
D03*
X4724400D02*
D03*
X4851400D02*
D03*
X4978400D02*
D03*
D98*
X3971600Y4889500D02*
D03*
D99*
X3738100Y4699000D02*
D03*
Y5080000D02*
D03*
Y4953000D02*
D03*
Y4826000D02*
D03*
D100*
X4292600Y5080000D02*
D03*
Y4953000D02*
D03*
Y4826000D02*
D03*
Y4699000D02*
D03*
D101*
X4547000Y711200D02*
D03*
X4038200D02*
D03*
X5257800Y4318000D02*
D03*
X4749000D02*
D03*
D102*
X5481600Y558800D02*
D03*
X4881600D02*
D03*
D103*
X739200Y4729600D02*
D03*
Y4871350D02*
D03*
X429200Y4729850D02*
D03*
Y4871350D02*
D03*
D104*
X5996008Y2553504D02*
D03*
Y2883704D02*
D03*
X6250008Y2553504D02*
D03*
Y2883704D02*
D03*
D105*
X5756076Y4506908D02*
D03*
X6086276D02*
D03*
X5756076Y4227508D02*
D03*
X6086276D02*
D03*
D106*
X5504400Y5435600D02*
D03*
X6484400D02*
D03*
D107*
X4698992Y1524000D02*
D03*
D108*
X4945356Y1333484D02*
D03*
Y1460484D02*
D03*
Y1587484D02*
D03*
Y1714484D02*
D03*
X4452596D02*
D03*
Y1587484D02*
D03*
Y1460484D02*
D03*
Y1333484D02*
D03*
D109*
X8064500Y5943600D02*
D03*
X7556500D02*
D03*
X3263900D02*
D03*
X2755900D02*
D03*
D110*
X3594100Y2552700D02*
D03*
D111*
X5740400Y2286000D02*
D03*
Y965200D02*
D03*
X3886200D02*
D03*
Y2032000D02*
D03*
X9017000Y5207000D02*
D03*
D112*
X5740400Y2032000D02*
D03*
Y1219200D02*
D03*
X3886200D02*
D03*
Y2286000D02*
D03*
X8763000Y4699000D02*
D03*
X9017000D02*
D03*
X8763000Y4953000D02*
D03*
X9017000D02*
D03*
X8763000Y5207000D02*
D03*
X7073900Y2590800D02*
D03*
Y2844800D02*
D03*
X6819900Y2590800D02*
D03*
D113*
Y2844800D02*
D03*
D114*
X1651000Y5410200D02*
D03*
Y6045200D02*
D03*
D115*
X1143000Y5664200D02*
D03*
D116*
X8903723Y6094977D02*
D03*
X9080500Y6168200D02*
D03*
X9257276Y6094977D02*
D03*
X9330500Y5918200D02*
D03*
X9257276Y5741423D02*
D03*
X9080500Y5668200D02*
D03*
X8903723Y5741423D02*
D03*
X8830500Y5918200D02*
D03*
X178823Y6094977D02*
D03*
X355600Y6168200D02*
D03*
X532376Y6094977D02*
D03*
X605600Y5918200D02*
D03*
X532376Y5741423D02*
D03*
X355600Y5668200D02*
D03*
X178823Y5741423D02*
D03*
X105600Y5918200D02*
D03*
X178823Y646677D02*
D03*
X355600Y719900D02*
D03*
X532376Y646677D02*
D03*
X605600Y469900D02*
D03*
X532376Y293123D02*
D03*
X355600Y219900D02*
D03*
X178823Y293123D02*
D03*
X105600Y469900D02*
D03*
X8903723Y646677D02*
D03*
X9080500Y719900D02*
D03*
X9257276Y646677D02*
D03*
X9330500Y469900D02*
D03*
X9257276Y293123D02*
D03*
X9080500Y219900D02*
D03*
X8903723Y293123D02*
D03*
X8830500Y469900D02*
D03*
D117*
X9080500Y5905500D02*
D03*
X355600D02*
D03*
Y469900D02*
D03*
X9080500D02*
D03*
D118*
X8724900Y3022602D02*
D03*
X8724900Y2768602D02*
D03*
X8978897Y2768603D02*
D03*
X8978899Y3022602D02*
D03*
X8978897Y3276603D02*
D03*
X8724898Y3530602D02*
D03*
X8978898Y3530603D02*
D03*
X8724899Y2514604D02*
D03*
X8724898Y3276603D02*
D03*
X617218D02*
D03*
X617219Y2514604D02*
D03*
X871218Y3530603D02*
D03*
X617218Y3530602D02*
D03*
X871217Y3276603D02*
D03*
X871219Y3022602D02*
D03*
X871217Y2768603D02*
D03*
X617220Y2768602D02*
D03*
X617220Y3022602D02*
D03*
D119*
X8978900Y2514604D02*
D03*
X871220D02*
D03*
D120*
X1790700Y2006600D02*
D03*
X2565400Y2413000D02*
D03*
X1371600Y2641600D02*
D03*
X2095500Y2565400D02*
D03*
Y2654300D02*
D03*
X7797800Y1143000D02*
D03*
X5308600Y1168400D02*
D03*
X4038600Y482600D02*
D03*
X5054600Y1930400D02*
D03*
X1181096Y4584704D02*
D03*
X3327400Y3200400D02*
D03*
X1600200Y3784600D02*
D03*
X2260600Y4343400D02*
D03*
X4521200Y5232400D02*
D03*
X3911600Y4419600D02*
D03*
X4597400Y4318000D02*
D03*
X4368800Y4267200D02*
D03*
X2743200Y4953000D02*
D03*
X1562096Y4940296D02*
D03*
D121*
X2565400Y3048000D02*
D03*
X2146300Y2273300D02*
D03*
X4127500Y3860800D02*
D03*
X4889500Y5359400D02*
D03*
X4737100D02*
D03*
X4991096Y3200400D02*
D03*
D122*
X2070100Y787400D02*
D03*
Y1066800D02*
D03*
X2730500Y723900D02*
D03*
Y444500D02*
D03*
X3060700D02*
D03*
Y723900D02*
D03*
X6375400Y2273300D02*
D03*
X3683000Y5816600D02*
D03*
X7493000Y1155700D02*
D03*
X6375400Y1701800D02*
D03*
Y1422400D02*
D03*
Y1993900D02*
D03*
%TF.MD5,76f9631e80cef03259672c423a71194c*%
M02*
