%TF.GenerationSoftware,Altium Limited,Altium Designer,25.4.2 (15)*%
G04 Layer_Physical_Order=2*
G04 Layer_Color=16711680*
%FSLAX45Y45*%
%MOMM*%
%TF.SameCoordinates,E42F7491-6EBA-4DE7-B61D-BE58CA0AFF3A*%
%TF.FilePolarity,Positive*%
%TF.FileFunction,Copper,L2,Bot,Signal*%
%TF.Part,Single*%
G01*
G75*
%TA.AperFunction,Conductor*%
%ADD10C,0.50800*%
%ADD11C,0.25400*%
%ADD12C,1.27000*%
%ADD16C,0.30480*%
%TA.AperFunction,SMDPad,CuDef*%
%ADD17R,1.39700X1.00000*%
%TA.AperFunction,ComponentPad*%
%ADD49C,2.79400*%
%ADD50C,2.03200*%
%ADD51R,1.50000X1.50000*%
%ADD52C,1.50000*%
%ADD53R,1.50000X1.50000*%
%ADD54R,4.06400X2.54000*%
%ADD55R,2.54000X4.06400*%
%ADD56C,0.60000*%
%ADD57C,6.00000*%
%ADD58C,1.77800*%
%ADD59R,1.77800X1.77800*%
%TA.AperFunction,ViaPad*%
%ADD60C,0.50800*%
%ADD61C,0.60960*%
%ADD62C,1.01600*%
G36*
X8942305Y5132305D02*
X8815305Y5143500D01*
Y5270500D01*
X8942305Y5281695D01*
Y5132305D01*
D02*
G37*
G36*
X9379532Y6073762D02*
X9367183Y6070797D01*
X9363151Y6078709D01*
X9332576Y6120793D01*
X9295793Y6157576D01*
X9253709Y6188152D01*
X9207360Y6211768D01*
X9157887Y6227842D01*
X9106509Y6235980D01*
X9054490D01*
X9003112Y6227842D01*
X8953639Y6211768D01*
X8907291Y6188152D01*
X8865207Y6157576D01*
X8828424Y6120793D01*
X8797848Y6078709D01*
X8774232Y6032360D01*
X8758157Y5982887D01*
X8750020Y5931509D01*
Y5879491D01*
X8758157Y5828113D01*
X8774232Y5778640D01*
X8797848Y5732291D01*
X8828424Y5690207D01*
X8865207Y5653424D01*
X8907291Y5622848D01*
X8953639Y5599232D01*
X9003112Y5583158D01*
X9054490Y5575020D01*
X9106509D01*
X9157887Y5583158D01*
X9207360Y5599232D01*
X9253709Y5622848D01*
X9295793Y5653424D01*
X9332576Y5690207D01*
X9363151Y5732291D01*
X9367183Y5740203D01*
X9379532Y5737238D01*
Y4951542D01*
X9367212Y4948456D01*
X9366727Y4949364D01*
X9339113Y4983013D01*
X9305464Y5010627D01*
X9267075Y5031147D01*
X9225420Y5043783D01*
X9182100Y5048049D01*
Y5047791D01*
X9063776D01*
X9057714Y5051291D01*
X9030887Y5058480D01*
X9003113D01*
X8976286Y5051291D01*
X8970224Y5047791D01*
X8809776D01*
X8803714Y5051291D01*
X8776887Y5058480D01*
X8749113D01*
X8722286Y5051291D01*
X8698234Y5037405D01*
X8678595Y5017766D01*
X8664709Y4993714D01*
X8657520Y4966887D01*
Y4939113D01*
X8664709Y4912286D01*
X8678595Y4888234D01*
X8698234Y4868595D01*
X8722286Y4854709D01*
X8749113Y4847520D01*
X8776887D01*
X8803714Y4854709D01*
X8809776Y4858209D01*
X8970224D01*
X8976286Y4854709D01*
X9003113Y4847520D01*
X9030887D01*
X9057714Y4854709D01*
X9063776Y4858209D01*
X9182100D01*
X9182593Y4858274D01*
X9194488Y4855908D01*
X9204990Y4848890D01*
X9212008Y4838388D01*
X9214374Y4826493D01*
X9214309Y4826000D01*
Y2452905D01*
X9214374Y2452412D01*
X9212008Y2440517D01*
X9205270Y2430433D01*
X9204875Y2430130D01*
X9028536Y2253791D01*
X8903864D01*
X8819690Y2337965D01*
Y2440566D01*
X8820427Y2441303D01*
X8836143Y2468525D01*
X8844279Y2498887D01*
Y2530321D01*
X8836143Y2560683D01*
X8820427Y2587905D01*
X8798200Y2610132D01*
X8770978Y2625848D01*
X8740615Y2633984D01*
X8709182D01*
X8678820Y2625848D01*
X8651598Y2610132D01*
X8629371Y2587905D01*
X8613654Y2560683D01*
X8605519Y2530321D01*
Y2498887D01*
X8613654Y2468525D01*
X8629371Y2441303D01*
X8630108Y2440566D01*
Y2298701D01*
X8633338Y2274168D01*
X8642807Y2251306D01*
X8657871Y2231674D01*
X8797573Y2091972D01*
X8817204Y2076908D01*
X8840066Y2067439D01*
X8864600Y2064209D01*
X9067800D01*
X9092334Y2067439D01*
X9115195Y2076908D01*
X9134827Y2091973D01*
X9338930Y2296075D01*
X9339113Y2295892D01*
X9366727Y2329541D01*
X9367212Y2330449D01*
X9379532Y2327363D01*
Y638162D01*
X9367183Y635197D01*
X9363151Y643109D01*
X9332576Y685193D01*
X9295793Y721976D01*
X9253709Y752552D01*
X9207360Y776168D01*
X9157887Y792242D01*
X9106509Y800380D01*
X9054490D01*
X9003112Y792242D01*
X8953639Y776168D01*
X8907291Y752552D01*
X8865207Y721976D01*
X8828424Y685193D01*
X8797848Y643109D01*
X8774232Y596760D01*
X8758157Y547287D01*
X8750020Y495909D01*
Y443891D01*
X8758157Y392513D01*
X8774232Y343040D01*
X8797848Y296691D01*
X8828424Y254607D01*
X8865207Y217824D01*
X8907291Y187248D01*
X8953639Y163632D01*
X9003112Y147558D01*
X9054490Y139420D01*
X9106509D01*
X9157887Y147558D01*
X9207360Y163632D01*
X9253709Y187248D01*
X9295793Y217824D01*
X9332576Y254607D01*
X9363151Y296691D01*
X9367183Y304603D01*
X9379532Y301638D01*
Y56567D01*
X56567Y56566D01*
Y301639D01*
X68916Y304604D01*
X72948Y296691D01*
X103524Y254607D01*
X140307Y217824D01*
X182391Y187248D01*
X228739Y163632D01*
X278212Y147558D01*
X329590Y139420D01*
X381609D01*
X432987Y147558D01*
X482460Y163632D01*
X528809Y187248D01*
X570893Y217824D01*
X607676Y254607D01*
X638251Y296691D01*
X661867Y343040D01*
X677942Y392513D01*
X686080Y443891D01*
Y495909D01*
X677942Y547287D01*
X661867Y596760D01*
X638251Y643109D01*
X607676Y685193D01*
X570893Y721976D01*
X528809Y752552D01*
X482460Y776168D01*
X432987Y792242D01*
X381609Y800380D01*
X329590D01*
X278212Y792242D01*
X228739Y776168D01*
X182391Y752552D01*
X140307Y721976D01*
X103524Y685193D01*
X72948Y643109D01*
X68916Y635196D01*
X56567Y638161D01*
X56566Y5737240D01*
X68916Y5740205D01*
X72948Y5732291D01*
X103524Y5690207D01*
X140307Y5653424D01*
X182391Y5622848D01*
X228739Y5599232D01*
X278212Y5583158D01*
X329590Y5575020D01*
X381609D01*
X432987Y5583158D01*
X482460Y5599232D01*
X528809Y5622848D01*
X570893Y5653424D01*
X607676Y5690207D01*
X638251Y5732291D01*
X661867Y5778640D01*
X677942Y5828113D01*
X686080Y5879491D01*
Y5931509D01*
X677942Y5982887D01*
X661867Y6032360D01*
X638251Y6078709D01*
X607676Y6120793D01*
X570893Y6157576D01*
X528809Y6188152D01*
X482460Y6211768D01*
X432987Y6227842D01*
X381609Y6235980D01*
X329590D01*
X278212Y6227842D01*
X228739Y6211768D01*
X182391Y6188152D01*
X140307Y6157576D01*
X103524Y6120793D01*
X72948Y6078709D01*
X68916Y6070795D01*
X56566Y6073760D01*
Y6318833D01*
X4046184D01*
X4048068Y6306133D01*
X4031630Y6301147D01*
X3993241Y6280627D01*
X3959592Y6253013D01*
X3959775Y6252830D01*
X3649179Y5942234D01*
X3648992Y5942222D01*
X3648920Y5942294D01*
X3621515Y5908902D01*
X3600996Y5870513D01*
X3591633Y5839647D01*
X3591256Y5839742D01*
X3588209Y5816600D01*
X3591439Y5792066D01*
X3600908Y5769205D01*
X3615973Y5749573D01*
X3635605Y5734508D01*
X3658466Y5725039D01*
X3683000Y5721809D01*
X3707534Y5725039D01*
X3730395Y5734508D01*
X3750027Y5749573D01*
X3765092Y5769205D01*
X3769939Y5780907D01*
X3770503Y5782269D01*
X3775316Y5793310D01*
X3775318Y5793313D01*
X3775348Y5793377D01*
X3780547Y5804380D01*
X3782930Y5807946D01*
X3783234Y5808179D01*
X4093830Y6118775D01*
X4094133Y6119170D01*
X4104217Y6125908D01*
X4116112Y6128274D01*
X4116605Y6128209D01*
X8265895D01*
X8266389Y6128274D01*
X8278284Y6125908D01*
X8288303Y6119213D01*
X8288537Y6118909D01*
X8379508Y6027937D01*
X8379813Y6027703D01*
X8386508Y6017684D01*
X8388874Y6005789D01*
X8388809Y6005296D01*
Y5462552D01*
X8388642Y5462361D01*
X8388594D01*
X8392817Y5419486D01*
X8405453Y5377831D01*
X8425972Y5339441D01*
X8453286Y5306160D01*
X8453311Y5306184D01*
X8453578Y5306167D01*
X8582723Y5177022D01*
X8582737Y5176814D01*
X8582677Y5176754D01*
X8616041Y5149372D01*
X8654430Y5128853D01*
X8696085Y5116217D01*
X8711995Y5114650D01*
X8722286Y5108709D01*
X8749113Y5101520D01*
X8776887D01*
X8803714Y5108709D01*
X8809776Y5112209D01*
X8816365D01*
X8911520Y5103821D01*
Y5101520D01*
X8937622D01*
X8939576Y5101348D01*
X8940949Y5101497D01*
X8942305Y5101228D01*
X8943775Y5101520D01*
X9122480D01*
Y5312480D01*
X8943775D01*
X8942305Y5312772D01*
X8940950Y5312503D01*
X8939576Y5312652D01*
X8937623Y5312480D01*
X8911520D01*
Y5310179D01*
X8816365Y5301791D01*
X8809776D01*
X8803714Y5305291D01*
X8776887Y5312480D01*
X8749113D01*
X8724381Y5305853D01*
X8717003Y5310783D01*
X8716778Y5311076D01*
X8587634Y5440221D01*
X8587369Y5440424D01*
X8580692Y5450417D01*
X8578346Y5462210D01*
X8578391Y5462551D01*
Y6005296D01*
X8578649D01*
X8574382Y6048615D01*
X8561747Y6090270D01*
X8541227Y6128660D01*
X8513823Y6162052D01*
X8513750Y6161980D01*
X8513563Y6161992D01*
X8431472Y6244083D01*
X8422652Y6253223D01*
X8422651Y6253223D01*
X8389259Y6280627D01*
X8350870Y6301147D01*
X8334432Y6306133D01*
X8336316Y6318833D01*
X9379532D01*
Y6073762D01*
D02*
G37*
%LPC*%
G36*
X7573261Y6113780D02*
X7539739D01*
X7506860Y6107240D01*
X7475890Y6094411D01*
X7448017Y6075787D01*
X7424313Y6052083D01*
X7405689Y6024210D01*
X7392860Y5993240D01*
X7386320Y5960361D01*
Y5926839D01*
X7392860Y5893960D01*
X7405689Y5862990D01*
X7424313Y5835117D01*
X7448017Y5811413D01*
X7475890Y5792789D01*
X7506860Y5779960D01*
X7539739Y5773420D01*
X7573261D01*
X7606140Y5779960D01*
X7637110Y5792789D01*
X7664983Y5811413D01*
X7688687Y5835117D01*
X7707311Y5862990D01*
X7720140Y5893960D01*
X7726680Y5926839D01*
Y5960361D01*
X7720140Y5993240D01*
X7707311Y6024210D01*
X7688687Y6052083D01*
X7664983Y6075787D01*
X7637110Y6094411D01*
X7606140Y6107240D01*
X7573261Y6113780D01*
D02*
G37*
G36*
X2772661D02*
X2739139D01*
X2706260Y6107240D01*
X2675290Y6094411D01*
X2647417Y6075787D01*
X2623713Y6052083D01*
X2605089Y6024210D01*
X2592260Y5993240D01*
X2585720Y5960361D01*
Y5926839D01*
X2592260Y5893960D01*
X2605089Y5862990D01*
X2623713Y5835117D01*
X2647417Y5811413D01*
X2675290Y5792789D01*
X2706260Y5779960D01*
X2739139Y5773420D01*
X2772661D01*
X2805540Y5779960D01*
X2836510Y5792789D01*
X2864383Y5811413D01*
X2888087Y5835117D01*
X2906711Y5862990D01*
X2919540Y5893960D01*
X2926080Y5926839D01*
Y5960361D01*
X2919540Y5993240D01*
X2906711Y6024210D01*
X2888087Y6052083D01*
X2864383Y6075787D01*
X2836510Y6094411D01*
X2805540Y6107240D01*
X2772661Y6113780D01*
D02*
G37*
G36*
X4902200Y5414624D02*
Y5372100D01*
X4944724D01*
X4936873Y5391053D01*
X4921153Y5406773D01*
X4902200Y5414624D01*
D02*
G37*
G36*
X4876800D02*
X4857847Y5406773D01*
X4842127Y5391053D01*
X4834276Y5372100D01*
X4876800D01*
Y5414624D01*
D02*
G37*
G36*
X4749800D02*
Y5372100D01*
X4792324D01*
X4784473Y5391053D01*
X4768753Y5406773D01*
X4749800Y5414624D01*
D02*
G37*
G36*
X4724400D02*
X4705447Y5406773D01*
X4689727Y5391053D01*
X4681876Y5372100D01*
X4724400D01*
Y5414624D01*
D02*
G37*
G36*
X4944724Y5346700D02*
X4902200D01*
Y5304176D01*
X4921153Y5312027D01*
X4936873Y5327747D01*
X4944724Y5346700D01*
D02*
G37*
G36*
X4876800D02*
X4834276D01*
X4842127Y5327747D01*
X4857847Y5312027D01*
X4876800Y5304176D01*
Y5346700D01*
D02*
G37*
G36*
X4792324D02*
X4749800D01*
Y5304176D01*
X4768753Y5312027D01*
X4784473Y5327747D01*
X4792324Y5346700D01*
D02*
G37*
G36*
X4724400D02*
X4681876D01*
X4689727Y5327747D01*
X4705447Y5312027D01*
X4724400Y5304176D01*
Y5346700D01*
D02*
G37*
G36*
X1884680Y5567680D02*
X1417320D01*
Y5252720D01*
X1884680D01*
Y5567680D01*
D02*
G37*
G36*
X2754315Y5008880D02*
X2732085D01*
X2711547Y5000373D01*
X2710789Y4999616D01*
X1587425D01*
X1583887Y4998912D01*
X1583294Y4998834D01*
X1581054Y4999042D01*
X1579283Y4998494D01*
X1577430Y4998447D01*
X1573325Y4997521D01*
X1567533Y4996759D01*
X1566125Y4996176D01*
X1550981D01*
X1530442Y4987669D01*
X1514723Y4971949D01*
X1506216Y4951411D01*
Y4929181D01*
X1514723Y4908642D01*
X1530442Y4892923D01*
X1550981Y4884416D01*
X1573211D01*
X1593749Y4892923D01*
X1607211Y4906384D01*
X2710789D01*
X2711547Y4905627D01*
X2732085Y4897120D01*
X2754315D01*
X2774853Y4905627D01*
X2790573Y4921347D01*
X2799080Y4941885D01*
Y4964115D01*
X2790573Y4984653D01*
X2774853Y5000373D01*
X2754315Y5008880D01*
D02*
G37*
G36*
X1196336Y4633377D02*
Y4599944D01*
X1229769D01*
X1224162Y4613480D01*
X1209872Y4627770D01*
X1196336Y4633377D01*
D02*
G37*
G36*
X1165856D02*
X1152320Y4627770D01*
X1138030Y4613480D01*
X1132423Y4599944D01*
X1165856D01*
Y4633377D01*
D02*
G37*
G36*
X1229769Y4569464D02*
X1196336D01*
Y4536031D01*
X1209872Y4541638D01*
X1224162Y4555928D01*
X1229769Y4569464D01*
D02*
G37*
G36*
X1165856D02*
X1132423D01*
X1138030Y4555928D01*
X1152320Y4541638D01*
X1165856Y4536031D01*
Y4569464D01*
D02*
G37*
G36*
X2275840Y4392073D02*
Y4358640D01*
X2309273D01*
X2303666Y4372176D01*
X2289376Y4386466D01*
X2275840Y4392073D01*
D02*
G37*
G36*
X2245360D02*
X2231824Y4386466D01*
X2217534Y4372176D01*
X2211927Y4358640D01*
X2245360D01*
Y4392073D01*
D02*
G37*
G36*
X4532315Y5288280D02*
X4510085D01*
X4489547Y5279773D01*
X4473827Y5264053D01*
X4465320Y5243515D01*
Y5221285D01*
X4473827Y5200747D01*
X4474584Y5199989D01*
Y4362709D01*
X4425691Y4313816D01*
X4401211D01*
X4400453Y4314573D01*
X4379915Y4323080D01*
X4357685D01*
X4337147Y4314573D01*
X4321427Y4298853D01*
X4312920Y4278315D01*
Y4256085D01*
X4307501Y4247975D01*
X3985999D01*
X3968575Y4265399D01*
Y4419600D01*
X3967480Y4425103D01*
Y4430715D01*
X3965332Y4435900D01*
X3964238Y4441403D01*
X3961120Y4446069D01*
X3958973Y4451253D01*
X3955005Y4455222D01*
X3951887Y4459887D01*
X3947222Y4463005D01*
X3943253Y4466973D01*
X3938069Y4469120D01*
X3933403Y4472238D01*
X3927900Y4473332D01*
X3922715Y4475480D01*
X3917103D01*
X3911600Y4476575D01*
X3906097Y4475480D01*
X3900485D01*
X3895300Y4473332D01*
X3889797Y4472238D01*
X3885131Y4469120D01*
X3879947Y4466973D01*
X3875978Y4463005D01*
X3871313Y4459887D01*
X3868195Y4455222D01*
X3864227Y4451253D01*
X3862080Y4446069D01*
X3858962Y4441403D01*
X3857868Y4435900D01*
X3855720Y4430715D01*
Y4425103D01*
X3854625Y4419600D01*
Y4262842D01*
X3855141Y4260251D01*
X3858466Y4234993D01*
X3869215Y4209042D01*
X3884518Y4189099D01*
X3886111Y4186714D01*
X3907314Y4165511D01*
X3909699Y4163918D01*
X3929642Y4148615D01*
X3955593Y4137866D01*
X3980851Y4134541D01*
X3983442Y4134025D01*
X4474758D01*
X4477349Y4134541D01*
X4502607Y4137866D01*
X4528558Y4148615D01*
X4528720Y4148739D01*
X4538816Y4156389D01*
X4545526Y4160873D01*
X4545526Y4160873D01*
X4550748Y4165414D01*
X4550873Y4165498D01*
X4559747Y4174373D01*
X4614006Y4228632D01*
X4622889Y4237514D01*
X4622961Y4237622D01*
X4622961Y4237623D01*
X4624481Y4239897D01*
X4639785Y4259842D01*
X4650534Y4285793D01*
X4653859Y4311051D01*
X4654375Y4313642D01*
Y4318000D01*
X4653280Y4323503D01*
Y4329115D01*
X4651132Y4334300D01*
X4650038Y4339803D01*
X4646920Y4344469D01*
X4644773Y4349653D01*
X4640805Y4353622D01*
X4637687Y4358287D01*
X4633022Y4361405D01*
X4629053Y4365373D01*
X4623869Y4367520D01*
X4619203Y4370638D01*
X4613700Y4371732D01*
X4608515Y4373880D01*
X4602903D01*
X4597400Y4374975D01*
X4591897Y4373880D01*
X4586285D01*
X4581100Y4371732D01*
X4580516Y4371616D01*
X4569551Y4378466D01*
X4567816Y4380713D01*
Y5199989D01*
X4568573Y5200747D01*
X4577080Y5221285D01*
Y5243515D01*
X4568573Y5264053D01*
X4552853Y5279773D01*
X4532315Y5288280D01*
D02*
G37*
G36*
X2309273Y4328160D02*
X2275840D01*
Y4294727D01*
X2289376Y4300334D01*
X2303666Y4314624D01*
X2309273Y4328160D01*
D02*
G37*
G36*
X2245360D02*
X2211927D01*
X2217534Y4314624D01*
X2231824Y4300334D01*
X2245360Y4294727D01*
Y4328160D01*
D02*
G37*
G36*
X4140200Y3916024D02*
Y3873500D01*
X4182724D01*
X4174873Y3892453D01*
X4159153Y3908173D01*
X4140200Y3916024D01*
D02*
G37*
G36*
X4114800D02*
X4095847Y3908173D01*
X4080127Y3892453D01*
X4072276Y3873500D01*
X4114800D01*
Y3916024D01*
D02*
G37*
G36*
X4182724Y3848100D02*
X4140200D01*
Y3805576D01*
X4159153Y3813427D01*
X4174873Y3829147D01*
X4182724Y3848100D01*
D02*
G37*
G36*
X4114800D02*
X4072276D01*
X4080127Y3829147D01*
X4095847Y3813427D01*
X4114800Y3805576D01*
Y3848100D01*
D02*
G37*
G36*
X1615440Y3833273D02*
Y3799840D01*
X1648873D01*
X1643266Y3813376D01*
X1628976Y3827666D01*
X1615440Y3833273D01*
D02*
G37*
G36*
X1584960D02*
X1571424Y3827666D01*
X1557134Y3813376D01*
X1551527Y3799840D01*
X1584960D01*
Y3833273D01*
D02*
G37*
G36*
X1648873Y3769360D02*
X1615440D01*
Y3735927D01*
X1628976Y3741534D01*
X1643266Y3755824D01*
X1648873Y3769360D01*
D02*
G37*
G36*
X1584960D02*
X1551527D01*
X1557134Y3755824D01*
X1571424Y3741534D01*
X1584960Y3735927D01*
Y3769360D01*
D02*
G37*
G36*
X886935Y3649983D02*
X855501D01*
X825139Y3641848D01*
X797917Y3626131D01*
X775690Y3603904D01*
X759974Y3576682D01*
X751838Y3546320D01*
Y3514887D01*
X759974Y3484524D01*
X775690Y3457302D01*
X797917Y3435075D01*
X825139Y3419359D01*
X855501Y3411223D01*
X886935D01*
X917297Y3419359D01*
X944519Y3435075D01*
X966746Y3457302D01*
X982463Y3484524D01*
X990598Y3514887D01*
Y3546320D01*
X982463Y3576682D01*
X966746Y3603904D01*
X944519Y3626131D01*
X917297Y3641848D01*
X886935Y3649983D01*
D02*
G37*
G36*
X8740615Y3649982D02*
X8709181D01*
X8678819Y3641847D01*
X8651597Y3626130D01*
X8629370Y3603903D01*
X8613654Y3576681D01*
X8605518Y3546319D01*
Y3514885D01*
X8613654Y3484523D01*
X8629370Y3457301D01*
X8651597Y3435074D01*
X8678819Y3419357D01*
X8709181Y3411222D01*
X8740615D01*
X8770977Y3419357D01*
X8798199Y3435074D01*
X8820426Y3457301D01*
X8836143Y3484523D01*
X8844278Y3514885D01*
Y3546319D01*
X8836143Y3576681D01*
X8820426Y3603903D01*
X8798199Y3626130D01*
X8770977Y3641847D01*
X8740615Y3649982D01*
D02*
G37*
G36*
X3342640Y3249073D02*
Y3215640D01*
X3376073D01*
X3370466Y3229176D01*
X3356176Y3243466D01*
X3342640Y3249073D01*
D02*
G37*
G36*
X3312160D02*
X3298624Y3243466D01*
X3284334Y3229176D01*
X3278727Y3215640D01*
X3312160D01*
Y3249073D01*
D02*
G37*
G36*
X5003796Y3255624D02*
Y3213100D01*
X5046320D01*
X5038469Y3232053D01*
X5022749Y3247773D01*
X5003796Y3255624D01*
D02*
G37*
G36*
X4978396D02*
X4959442Y3247773D01*
X4943723Y3232053D01*
X4935872Y3213100D01*
X4978396D01*
Y3255624D01*
D02*
G37*
G36*
X8740615Y3395983D02*
X8709181D01*
X8678819Y3387848D01*
X8651597Y3372131D01*
X8629370Y3349904D01*
X8613654Y3322682D01*
X8605518Y3292320D01*
Y3260886D01*
X8613654Y3230524D01*
X8629370Y3203302D01*
X8651597Y3181075D01*
X8678819Y3165358D01*
X8709181Y3157223D01*
X8740615D01*
X8770977Y3165358D01*
X8798199Y3181075D01*
X8820426Y3203302D01*
X8836143Y3230524D01*
X8844278Y3260886D01*
Y3292320D01*
X8836143Y3322682D01*
X8820426Y3349904D01*
X8798199Y3372131D01*
X8770977Y3387848D01*
X8740615Y3395983D01*
D02*
G37*
G36*
X886934D02*
X855501D01*
X825139Y3387848D01*
X797916Y3372131D01*
X775690Y3349904D01*
X759973Y3322682D01*
X751837Y3292320D01*
Y3260886D01*
X759973Y3230524D01*
X775690Y3203302D01*
X797916Y3181075D01*
X825139Y3165358D01*
X855501Y3157223D01*
X886934D01*
X917296Y3165358D01*
X944519Y3181075D01*
X966745Y3203302D01*
X982462Y3230524D01*
X990597Y3260886D01*
Y3292320D01*
X982462Y3322682D01*
X966745Y3349904D01*
X944519Y3372131D01*
X917296Y3387848D01*
X886934Y3395983D01*
D02*
G37*
G36*
X3376073Y3185160D02*
X3342640D01*
Y3151727D01*
X3356176Y3157334D01*
X3370466Y3171624D01*
X3376073Y3185160D01*
D02*
G37*
G36*
X3312160D02*
X3278727D01*
X3284334Y3171624D01*
X3298624Y3157334D01*
X3312160Y3151727D01*
Y3185160D01*
D02*
G37*
G36*
X5046320Y3187700D02*
X5003796D01*
Y3145176D01*
X5022749Y3153027D01*
X5038469Y3168747D01*
X5046320Y3187700D01*
D02*
G37*
G36*
X4978396D02*
X4935872D01*
X4943723Y3168747D01*
X4959442Y3153027D01*
X4978396Y3145176D01*
Y3187700D01*
D02*
G37*
G36*
X2482850Y3110696D02*
X2432050D01*
Y3079746D01*
X2482850D01*
Y3110696D01*
D02*
G37*
G36*
X2228850D02*
X2178050D01*
Y3079746D01*
X2228850D01*
Y3110696D01*
D02*
G37*
G36*
X2393950D02*
X2343150D01*
Y3079746D01*
X2393950D01*
Y3110696D01*
D02*
G37*
G36*
X2139950D02*
X2089150D01*
Y3079746D01*
X2139950D01*
Y3110696D01*
D02*
G37*
G36*
X2482850Y3041646D02*
X2432050D01*
Y3010696D01*
X2482850D01*
Y3041646D01*
D02*
G37*
G36*
X2393950D02*
X2343150D01*
Y3010696D01*
X2393950D01*
Y3041646D01*
D02*
G37*
G36*
X2228850D02*
X2178050D01*
Y3010696D01*
X2228850D01*
Y3041646D01*
D02*
G37*
G36*
X2139950D02*
X2089150D01*
Y3010696D01*
X2139950D01*
Y3041646D01*
D02*
G37*
G36*
X8740617Y3141982D02*
X8709183D01*
X8678821Y3133847D01*
X8651599Y3118130D01*
X8629372Y3095903D01*
X8613655Y3068681D01*
X8605520Y3038319D01*
Y3006886D01*
X8613655Y2976523D01*
X8629372Y2949301D01*
X8651599Y2927074D01*
X8678821Y2911358D01*
X8709183Y2903222D01*
X8740617D01*
X8770979Y2911358D01*
X8798201Y2927074D01*
X8820428Y2949301D01*
X8836145Y2976523D01*
X8844280Y3006886D01*
Y3038319D01*
X8836145Y3068681D01*
X8820428Y3095903D01*
X8798201Y3118130D01*
X8770979Y3133847D01*
X8740617Y3141982D01*
D02*
G37*
G36*
X886936D02*
X855502D01*
X825140Y3133847D01*
X797918Y3118130D01*
X775691Y3095903D01*
X759975Y3068681D01*
X751839Y3038319D01*
Y3006886D01*
X759975Y2976523D01*
X775691Y2949301D01*
X797918Y2927074D01*
X825140Y2911358D01*
X855502Y2903222D01*
X886936D01*
X917298Y2911358D01*
X944520Y2927074D01*
X966747Y2949301D01*
X982464Y2976523D01*
X990599Y3006886D01*
Y3038319D01*
X982464Y3068681D01*
X966747Y3095903D01*
X944520Y3118130D01*
X917298Y3133847D01*
X886936Y3141982D01*
D02*
G37*
G36*
X632937D02*
X601503D01*
X571141Y3133847D01*
X543919Y3118130D01*
X521692Y3095903D01*
X505975Y3068681D01*
X497840Y3038319D01*
Y3006886D01*
X505975Y2976523D01*
X521692Y2949301D01*
X543919Y2927074D01*
X571141Y2911358D01*
X601503Y2903222D01*
X632937D01*
X663299Y2911358D01*
X690521Y2927074D01*
X712748Y2949301D01*
X728465Y2976523D01*
X736600Y3006886D01*
Y3038319D01*
X728465Y3068681D01*
X712748Y3095903D01*
X690521Y3118130D01*
X663299Y3133847D01*
X632937Y3141982D01*
D02*
G37*
G36*
X7087787Y2950280D02*
X7060013D01*
X7033186Y2943091D01*
X7009134Y2929205D01*
X6989495Y2909566D01*
X6975609Y2885514D01*
X6968420Y2858687D01*
Y2830913D01*
X6975609Y2804086D01*
X6989495Y2780034D01*
X7009134Y2760395D01*
X7033186Y2746509D01*
X7060013Y2739320D01*
X7087787D01*
X7114614Y2746509D01*
X7138666Y2760395D01*
X7158305Y2780034D01*
X7172191Y2804086D01*
X7179380Y2830913D01*
Y2858687D01*
X7172191Y2885514D01*
X7158305Y2909566D01*
X7138666Y2929205D01*
X7114614Y2943091D01*
X7087787Y2950280D01*
D02*
G37*
G36*
X6925380D02*
X6714420D01*
Y2739320D01*
X6925380D01*
Y2950280D01*
D02*
G37*
G36*
X8740617Y2887982D02*
X8709183D01*
X8678821Y2879847D01*
X8651599Y2864130D01*
X8629372Y2841903D01*
X8613656Y2814681D01*
X8605520Y2784319D01*
Y2752886D01*
X8613656Y2722523D01*
X8629372Y2695301D01*
X8651599Y2673074D01*
X8678821Y2657358D01*
X8709183Y2649222D01*
X8740617D01*
X8770979Y2657358D01*
X8798201Y2673074D01*
X8820428Y2695301D01*
X8836145Y2722523D01*
X8844280Y2752886D01*
Y2784319D01*
X8836145Y2814681D01*
X8820428Y2841903D01*
X8798201Y2864130D01*
X8770979Y2879847D01*
X8740617Y2887982D01*
D02*
G37*
G36*
X632937D02*
X601503D01*
X571141Y2879847D01*
X543919Y2864130D01*
X521692Y2841903D01*
X505976Y2814681D01*
X497840Y2784319D01*
Y2752886D01*
X505976Y2722523D01*
X521692Y2695301D01*
X543919Y2673074D01*
X571141Y2657358D01*
X601503Y2649222D01*
X632937D01*
X663299Y2657358D01*
X690521Y2673074D01*
X712748Y2695301D01*
X728465Y2722523D01*
X736600Y2752886D01*
Y2784319D01*
X728465Y2814681D01*
X712748Y2841903D01*
X690521Y2864130D01*
X663299Y2879847D01*
X632937Y2887982D01*
D02*
G37*
G36*
X2577526Y3108960D02*
X2553274D01*
X2530869Y3099679D01*
X2513721Y3082531D01*
X2504440Y3060126D01*
Y3035874D01*
X2508425Y3026253D01*
Y2912576D01*
X2312670D01*
Y2751616D01*
X2350029D01*
X2353542Y2738916D01*
X2237000Y2622375D01*
X2160743D01*
X2155882Y2634108D01*
X2199287Y2677513D01*
X2211638Y2695997D01*
X2215975Y2717800D01*
Y2742654D01*
X2216268Y2745979D01*
X2217094Y2750943D01*
X2217274Y2751616D01*
X2259330D01*
Y2912576D01*
X2058670D01*
Y2751616D01*
X2096029D01*
X2099542Y2738916D01*
X2055213Y2694587D01*
X2052095Y2689922D01*
X2048127Y2685953D01*
X2045979Y2680768D01*
X2042862Y2676103D01*
X2041768Y2670600D01*
X2039620Y2665415D01*
Y2659803D01*
X2038525Y2654300D01*
X2039620Y2648797D01*
Y2643185D01*
X2041768Y2638000D01*
X2042862Y2632497D01*
X2045979Y2627832D01*
X2048127Y2622647D01*
X2051943Y2618830D01*
X2052127Y2618631D01*
X2055213Y2614013D01*
X2052100Y2601039D01*
X2051943Y2600870D01*
X2048127Y2597053D01*
X2045980Y2591869D01*
X2042862Y2587203D01*
X2041768Y2581700D01*
X2039620Y2576515D01*
Y2570903D01*
X2038525Y2565400D01*
X2039620Y2559897D01*
Y2554285D01*
X2041768Y2549100D01*
X2042862Y2543597D01*
X2045980Y2538931D01*
X2048127Y2533747D01*
X2052095Y2529778D01*
X2055213Y2525113D01*
X2059878Y2521995D01*
X2063847Y2518027D01*
X2069031Y2515880D01*
X2073697Y2512762D01*
X2079200Y2511668D01*
X2084385Y2509520D01*
X2089997D01*
X2095500Y2508425D01*
X2260600D01*
X2282403Y2512762D01*
X2296941Y2522476D01*
X2305037Y2512611D01*
X2121390Y2328965D01*
X2111769Y2324979D01*
X2094621Y2307831D01*
X2085340Y2285426D01*
Y2261174D01*
X2094621Y2238769D01*
X2111769Y2221621D01*
X2134174Y2212340D01*
X2158426D01*
X2180831Y2221621D01*
X2197979Y2238769D01*
X2201965Y2248390D01*
X2605687Y2652113D01*
X2618038Y2670597D01*
X2622375Y2692400D01*
Y3026253D01*
X2626360Y3035874D01*
Y3060126D01*
X2617079Y3082531D01*
X2599931Y3099679D01*
X2577526Y3108960D01*
D02*
G37*
G36*
X886934Y2887983D02*
X855501D01*
X825139Y2879847D01*
X797916Y2864130D01*
X775690Y2841904D01*
X759973Y2814681D01*
X751837Y2784319D01*
Y2752886D01*
X759973Y2722524D01*
X775690Y2695301D01*
X797916Y2673075D01*
X825139Y2657358D01*
X855501Y2649223D01*
X886934D01*
X917296Y2657358D01*
X944519Y2673075D01*
X954093Y2682649D01*
X956556Y2684275D01*
X965469Y2693088D01*
X981913Y2707665D01*
X988722Y2712909D01*
X995092Y2717260D01*
X1000661Y2720529D01*
X1005308Y2722765D01*
X1008890Y2724066D01*
X1011104Y2724577D01*
X1226361D01*
X1315720Y2635218D01*
Y2630485D01*
X1324227Y2609947D01*
X1339947Y2594227D01*
X1360485Y2585720D01*
X1382715D01*
X1403253Y2594227D01*
X1418973Y2609947D01*
X1427480Y2630485D01*
Y2652715D01*
X1418973Y2673253D01*
X1403253Y2688973D01*
X1382715Y2697480D01*
X1377982D01*
X1275728Y2799734D01*
X1261446Y2809277D01*
X1244597Y2812628D01*
X1011104D01*
X1008890Y2813140D01*
X1005307Y2814440D01*
X1000660Y2816676D01*
X995090Y2819947D01*
X988720Y2824298D01*
X981913Y2829540D01*
X965472Y2844114D01*
X956556Y2852931D01*
X954093Y2854556D01*
X944519Y2864130D01*
X917296Y2879847D01*
X886934Y2887983D01*
D02*
G37*
G36*
X2580640Y2461673D02*
Y2428240D01*
X2614073D01*
X2608466Y2441776D01*
X2594176Y2456066D01*
X2580640Y2461673D01*
D02*
G37*
G36*
X2550160D02*
X2536624Y2456066D01*
X2522334Y2441776D01*
X2516727Y2428240D01*
X2550160D01*
Y2461673D01*
D02*
G37*
G36*
X3611489Y2684780D02*
X3576711D01*
X3543119Y2675779D01*
X3513001Y2658390D01*
X3488410Y2633799D01*
X3471021Y2603681D01*
X3462020Y2570089D01*
Y2535311D01*
X3471021Y2501719D01*
X3488410Y2471601D01*
X3513001Y2447010D01*
X3543119Y2429621D01*
X3576711Y2420620D01*
X3611489D01*
X3645081Y2429621D01*
X3675199Y2447010D01*
X3699790Y2471601D01*
X3717179Y2501719D01*
X3726180Y2535311D01*
Y2570089D01*
X3717179Y2603681D01*
X3699790Y2633799D01*
X3675199Y2658390D01*
X3645081Y2675779D01*
X3611489Y2684780D01*
D02*
G37*
G36*
X990600Y2633984D02*
X751840D01*
Y2395224D01*
X990600D01*
Y2633984D01*
D02*
G37*
G36*
X2614073Y2397760D02*
X2580640D01*
Y2364327D01*
X2594176Y2369934D01*
X2608466Y2384224D01*
X2614073Y2397760D01*
D02*
G37*
G36*
X2550160D02*
X2516727D01*
X2522334Y2384224D01*
X2536624Y2369934D01*
X2550160Y2364327D01*
Y2397760D01*
D02*
G37*
G36*
X6388100Y2348785D02*
Y2286000D01*
X6450885D01*
X6446407Y2302712D01*
X6436375Y2320088D01*
X6422188Y2334275D01*
X6404812Y2344307D01*
X6388100Y2348785D01*
D02*
G37*
G36*
X6362700D02*
X6345988Y2344307D01*
X6328612Y2334275D01*
X6314425Y2320088D01*
X6304393Y2302712D01*
X6299915Y2286000D01*
X6362700D01*
Y2348785D01*
D02*
G37*
G36*
X6450885Y2260600D02*
X6388100D01*
Y2197815D01*
X6404812Y2202293D01*
X6422188Y2212325D01*
X6436375Y2226512D01*
X6446407Y2243888D01*
X6450885Y2260600D01*
D02*
G37*
G36*
X6362700D02*
X6299915D01*
X6304393Y2243888D01*
X6314425Y2226512D01*
X6328612Y2212325D01*
X6345988Y2202293D01*
X6362700Y2197815D01*
Y2260600D01*
D02*
G37*
G36*
X1805940Y2055273D02*
Y2021840D01*
X1839373D01*
X1833766Y2035376D01*
X1819476Y2049666D01*
X1805940Y2055273D01*
D02*
G37*
G36*
X1775460D02*
X1761924Y2049666D01*
X1747634Y2035376D01*
X1742027Y2021840D01*
X1775460D01*
Y2055273D01*
D02*
G37*
G36*
X6388100Y2069385D02*
Y2006600D01*
X6450885D01*
X6446407Y2023312D01*
X6436375Y2040688D01*
X6422188Y2054875D01*
X6404812Y2064907D01*
X6388100Y2069385D01*
D02*
G37*
G36*
X6362700D02*
X6345988Y2064907D01*
X6328612Y2054875D01*
X6314425Y2040688D01*
X6304393Y2023312D01*
X6299915Y2006600D01*
X6362700D01*
Y2069385D01*
D02*
G37*
G36*
X1839373Y1991360D02*
X1805940D01*
Y1957927D01*
X1819476Y1963534D01*
X1833766Y1977824D01*
X1839373Y1991360D01*
D02*
G37*
G36*
X1775460D02*
X1742027D01*
X1747634Y1977824D01*
X1761924Y1963534D01*
X1775460Y1957927D01*
Y1991360D01*
D02*
G37*
G36*
X6450885Y1981200D02*
X6388100D01*
Y1918415D01*
X6404812Y1922893D01*
X6422188Y1932925D01*
X6436375Y1947112D01*
X6446407Y1964488D01*
X6450885Y1981200D01*
D02*
G37*
G36*
X6362700D02*
X6299915D01*
X6304393Y1964488D01*
X6314425Y1947112D01*
X6328612Y1932925D01*
X6345988Y1922893D01*
X6362700Y1918415D01*
Y1981200D01*
D02*
G37*
G36*
X6388100Y1777285D02*
Y1714500D01*
X6450885D01*
X6446407Y1731212D01*
X6436375Y1748588D01*
X6422188Y1762775D01*
X6404812Y1772807D01*
X6388100Y1777285D01*
D02*
G37*
G36*
X6362700D02*
X6345988Y1772807D01*
X6328612Y1762775D01*
X6314425Y1748588D01*
X6304393Y1731212D01*
X6299915Y1714500D01*
X6362700D01*
Y1777285D01*
D02*
G37*
G36*
X6450885Y1689100D02*
X6388100D01*
Y1626315D01*
X6404812Y1630793D01*
X6422188Y1640825D01*
X6436375Y1655012D01*
X6446407Y1672388D01*
X6450885Y1689100D01*
D02*
G37*
G36*
X6362700D02*
X6299915D01*
X6304393Y1672388D01*
X6314425Y1655012D01*
X6328612Y1640825D01*
X6345988Y1630793D01*
X6362700Y1626315D01*
Y1689100D01*
D02*
G37*
G36*
X6388100Y1497885D02*
Y1435100D01*
X6450885D01*
X6446407Y1451812D01*
X6436375Y1469188D01*
X6422188Y1483375D01*
X6404812Y1493407D01*
X6388100Y1497885D01*
D02*
G37*
G36*
X6362700D02*
X6345988Y1493407D01*
X6328612Y1483375D01*
X6314425Y1469188D01*
X6304393Y1451812D01*
X6299915Y1435100D01*
X6362700D01*
Y1497885D01*
D02*
G37*
G36*
X6450885Y1409700D02*
X6388100D01*
Y1346915D01*
X6404812Y1351393D01*
X6422188Y1361425D01*
X6436375Y1375612D01*
X6446407Y1392988D01*
X6450885Y1409700D01*
D02*
G37*
G36*
X6362700D02*
X6299915D01*
X6304393Y1392988D01*
X6314425Y1375612D01*
X6328612Y1361425D01*
X6345988Y1351393D01*
X6362700Y1346915D01*
Y1409700D01*
D02*
G37*
G36*
X7813040Y1191673D02*
Y1158240D01*
X7846473D01*
X7840866Y1171776D01*
X7826576Y1186066D01*
X7813040Y1191673D01*
D02*
G37*
G36*
X7782560D02*
X7769024Y1186066D01*
X7754734Y1171776D01*
X7749127Y1158240D01*
X7782560D01*
Y1191673D01*
D02*
G37*
G36*
X5054600Y1987375D02*
X5049097Y1986280D01*
X5043485D01*
X5038300Y1984132D01*
X5032797Y1983038D01*
X5028131Y1979920D01*
X5022947Y1977773D01*
X5018978Y1973805D01*
X5014313Y1970687D01*
X5011195Y1966022D01*
X5007227Y1962053D01*
X5005080Y1956869D01*
X5001962Y1952203D01*
X5000868Y1946700D01*
X4998720Y1941515D01*
Y1935903D01*
X4997625Y1930400D01*
Y1557742D01*
X4998141Y1555151D01*
X5001466Y1529893D01*
X5012215Y1503942D01*
X5012339Y1503780D01*
X5019989Y1493684D01*
X5024473Y1486974D01*
X5025932Y1486000D01*
X5027733Y1483670D01*
X5029099Y1481627D01*
X5279373Y1231352D01*
X5280276Y1226957D01*
X5276979Y1215786D01*
X5276947Y1215773D01*
X5272978Y1211805D01*
X5268313Y1208687D01*
X5265195Y1204022D01*
X5261227Y1200053D01*
X5259080Y1194869D01*
X5255962Y1190203D01*
X5254868Y1184700D01*
X5252720Y1179515D01*
Y1173903D01*
X5251625Y1168400D01*
Y1103100D01*
X5170700Y1022175D01*
X4000642D01*
X3997317Y1022468D01*
X3992353Y1023294D01*
X3991680Y1023474D01*
Y1070680D01*
X3780720D01*
Y859720D01*
X3991680D01*
Y906926D01*
X3992352Y907106D01*
X3997317Y907932D01*
X4000642Y908225D01*
X5173258D01*
X5175849Y908741D01*
X5201107Y912066D01*
X5227058Y922815D01*
X5227220Y922939D01*
X5237316Y930589D01*
X5244026Y935073D01*
X5244026Y935073D01*
X5249248Y939614D01*
X5249373Y939698D01*
X5258247Y948573D01*
X5325206Y1015532D01*
X5334089Y1024414D01*
X5334161Y1024522D01*
X5334161Y1024523D01*
X5335681Y1026797D01*
X5350985Y1046742D01*
X5361734Y1072693D01*
X5365059Y1097951D01*
X5365575Y1100542D01*
Y1156398D01*
X5375123Y1164772D01*
X5390551Y1162741D01*
X5393142Y1162225D01*
X5631889D01*
X5633703Y1162009D01*
X5637805Y1161173D01*
X5641756Y1160014D01*
X5645605Y1158521D01*
X5649398Y1156671D01*
X5653181Y1154425D01*
X5656975Y1151747D01*
X5660796Y1148591D01*
X5665396Y1144206D01*
X5667656Y1142773D01*
X5675634Y1134795D01*
X5699686Y1120909D01*
X5726513Y1113720D01*
X5754287D01*
X5781114Y1120909D01*
X5805166Y1134795D01*
X5824805Y1154434D01*
X5838691Y1178486D01*
X5845880Y1205313D01*
Y1233087D01*
X5838691Y1259914D01*
X5824805Y1283966D01*
X5805166Y1303605D01*
X5781114Y1317491D01*
X5754287Y1324680D01*
X5726513D01*
X5699686Y1317491D01*
X5675634Y1303605D01*
X5667656Y1295627D01*
X5665396Y1294194D01*
X5660796Y1289809D01*
X5656975Y1286653D01*
X5653181Y1283975D01*
X5649398Y1281729D01*
X5645604Y1279879D01*
X5641756Y1278386D01*
X5637806Y1277228D01*
X5633703Y1276391D01*
X5631888Y1276175D01*
X5395699D01*
X5111575Y1560299D01*
Y1930400D01*
X5110480Y1935903D01*
Y1941515D01*
X5108332Y1946700D01*
X5107238Y1952203D01*
X5104120Y1956869D01*
X5101973Y1962053D01*
X5098005Y1966022D01*
X5094887Y1970687D01*
X5090222Y1973805D01*
X5086253Y1977773D01*
X5081069Y1979920D01*
X5076403Y1983038D01*
X5070900Y1984132D01*
X5065715Y1986280D01*
X5060103D01*
X5054600Y1987375D01*
D02*
G37*
G36*
X3900087Y1324680D02*
X3872313D01*
X3845486Y1317491D01*
X3821434Y1303605D01*
X3801795Y1283966D01*
X3787909Y1259914D01*
X3780720Y1233087D01*
Y1205313D01*
X3787909Y1178486D01*
X3801795Y1154434D01*
X3821434Y1134795D01*
X3845486Y1120909D01*
X3872313Y1113720D01*
X3900087D01*
X3926914Y1120909D01*
X3950966Y1134795D01*
X3970605Y1154434D01*
X3984491Y1178486D01*
X3991680Y1205313D01*
Y1233087D01*
X3984491Y1259914D01*
X3970605Y1283966D01*
X3950966Y1303605D01*
X3926914Y1317491D01*
X3900087Y1324680D01*
D02*
G37*
G36*
X7846473Y1127760D02*
X7813040D01*
Y1094327D01*
X7826576Y1099934D01*
X7840866Y1114224D01*
X7846473Y1127760D01*
D02*
G37*
G36*
X7782560D02*
X7749127D01*
X7754734Y1114224D01*
X7769024Y1099934D01*
X7782560Y1094327D01*
Y1127760D01*
D02*
G37*
G36*
X2082800Y1142285D02*
Y1079500D01*
X2145585D01*
X2141107Y1096212D01*
X2131075Y1113588D01*
X2116888Y1127775D01*
X2099512Y1137807D01*
X2082800Y1142285D01*
D02*
G37*
G36*
X2057400D02*
X2040688Y1137807D01*
X2023312Y1127775D01*
X2009125Y1113588D01*
X1999093Y1096212D01*
X1994615Y1079500D01*
X2057400D01*
Y1142285D01*
D02*
G37*
G36*
X2145585Y1054100D02*
X2082800D01*
Y991315D01*
X2099512Y995793D01*
X2116888Y1005825D01*
X2131075Y1020012D01*
X2141107Y1037388D01*
X2145585Y1054100D01*
D02*
G37*
G36*
X2057400D02*
X1994615D01*
X1999093Y1037388D01*
X2009125Y1020012D01*
X2023312Y1005825D01*
X2040688Y995793D01*
X2057400Y991315D01*
Y1054100D01*
D02*
G37*
G36*
X5845880Y1070680D02*
X5634920D01*
Y859720D01*
X5845880D01*
Y1070680D01*
D02*
G37*
G36*
X2082800Y862885D02*
Y800100D01*
X2145585D01*
X2141107Y816812D01*
X2131075Y834188D01*
X2116888Y848375D01*
X2099512Y858407D01*
X2082800Y862885D01*
D02*
G37*
G36*
X2057400D02*
X2040688Y858407D01*
X2023312Y848375D01*
X2009125Y834188D01*
X1999093Y816812D01*
X1994615Y800100D01*
X2057400D01*
Y862885D01*
D02*
G37*
G36*
X3073400Y799385D02*
Y736600D01*
X3136185D01*
X3131707Y753312D01*
X3121675Y770688D01*
X3107488Y784875D01*
X3090112Y794907D01*
X3073400Y799385D01*
D02*
G37*
G36*
X3048000D02*
X3031288Y794907D01*
X3013912Y784875D01*
X2999725Y770688D01*
X2989693Y753312D01*
X2985215Y736600D01*
X3048000D01*
Y799385D01*
D02*
G37*
G36*
X2743200D02*
Y736600D01*
X2805985D01*
X2801507Y753312D01*
X2791475Y770688D01*
X2777288Y784875D01*
X2759912Y794907D01*
X2743200Y799385D01*
D02*
G37*
G36*
X2717800D02*
X2701088Y794907D01*
X2683712Y784875D01*
X2669525Y770688D01*
X2659493Y753312D01*
X2655015Y736600D01*
X2717800D01*
Y799385D01*
D02*
G37*
G36*
X2145585Y774700D02*
X2082800D01*
Y711915D01*
X2099512Y716393D01*
X2116888Y726425D01*
X2131075Y740612D01*
X2141107Y757988D01*
X2145585Y774700D01*
D02*
G37*
G36*
X2057400D02*
X1994615D01*
X1999093Y757988D01*
X2009125Y740612D01*
X2023312Y726425D01*
X2040688Y716393D01*
X2057400Y711915D01*
Y774700D01*
D02*
G37*
G36*
X3136185Y711200D02*
X3073400D01*
Y648415D01*
X3090112Y652893D01*
X3107488Y662925D01*
X3121675Y677112D01*
X3131707Y694488D01*
X3136185Y711200D01*
D02*
G37*
G36*
X3048000D02*
X2985215D01*
X2989693Y694488D01*
X2999725Y677112D01*
X3013912Y662925D01*
X3031288Y652893D01*
X3048000Y648415D01*
Y711200D01*
D02*
G37*
G36*
X2805985D02*
X2743200D01*
Y648415D01*
X2759912Y652893D01*
X2777288Y662925D01*
X2791475Y677112D01*
X2801507Y694488D01*
X2805985Y711200D01*
D02*
G37*
G36*
X2717800D02*
X2655015D01*
X2659493Y694488D01*
X2669525Y677112D01*
X2683712Y662925D01*
X2701088Y652893D01*
X2717800Y648415D01*
Y711200D01*
D02*
G37*
G36*
X4053840Y531273D02*
Y497840D01*
X4087273D01*
X4081666Y511376D01*
X4067376Y525666D01*
X4053840Y531273D01*
D02*
G37*
G36*
X4023360D02*
X4009824Y525666D01*
X3995534Y511376D01*
X3989927Y497840D01*
X4023360D01*
Y531273D01*
D02*
G37*
G36*
X3073400Y519985D02*
Y457200D01*
X3136185D01*
X3131707Y473912D01*
X3121675Y491288D01*
X3107488Y505475D01*
X3090112Y515507D01*
X3073400Y519985D01*
D02*
G37*
G36*
X3048000D02*
X3031288Y515507D01*
X3013912Y505475D01*
X2999725Y491288D01*
X2989693Y473912D01*
X2985215Y457200D01*
X3048000D01*
Y519985D01*
D02*
G37*
G36*
X2743200D02*
Y457200D01*
X2805985D01*
X2801507Y473912D01*
X2791475Y491288D01*
X2777288Y505475D01*
X2759912Y515507D01*
X2743200Y519985D01*
D02*
G37*
G36*
X2717800D02*
X2701088Y515507D01*
X2683712Y505475D01*
X2669525Y491288D01*
X2659493Y473912D01*
X2655015Y457200D01*
X2717800D01*
Y519985D01*
D02*
G37*
G36*
X632935Y2633984D02*
X601502D01*
X571140Y2625848D01*
X543918Y2610132D01*
X521691Y2587905D01*
X505974Y2560683D01*
X497839Y2530321D01*
Y2498887D01*
X505974Y2468525D01*
X521691Y2441303D01*
X522428Y2440566D01*
Y1005106D01*
X522169D01*
X526436Y961786D01*
X539072Y920132D01*
X559591Y881742D01*
X579060Y858020D01*
X586282Y849219D01*
X586907Y848463D01*
X586921Y848477D01*
X587208Y848458D01*
X746908Y688758D01*
X747145Y688575D01*
X753808Y678604D01*
X756174Y666709D01*
X756109Y666215D01*
Y499645D01*
X755851D01*
X760117Y456325D01*
X772753Y414670D01*
X793273Y376281D01*
X820677Y342889D01*
X820749Y342961D01*
X820937Y342949D01*
X995729Y168157D01*
X995741Y167969D01*
X995669Y167897D01*
X1029061Y140493D01*
X1067450Y119973D01*
X1109105Y107337D01*
X1152425Y103071D01*
Y103329D01*
X7079715D01*
Y103071D01*
X7123035Y107337D01*
X7164690Y119973D01*
X7203079Y140493D01*
X7236471Y167897D01*
X7236399Y167969D01*
X7236411Y168157D01*
X7522963Y454709D01*
X7523150Y454721D01*
X7523223Y454648D01*
X7550627Y488041D01*
X7571147Y526430D01*
X7583783Y568085D01*
X7588049Y611405D01*
X7587791D01*
Y1155700D01*
X7584561Y1180234D01*
X7575092Y1203095D01*
X7560027Y1222727D01*
X7540395Y1237792D01*
X7517534Y1247261D01*
X7493000Y1250491D01*
X7468466Y1247261D01*
X7445605Y1237792D01*
X7425973Y1222727D01*
X7410908Y1203095D01*
X7401439Y1180234D01*
X7398209Y1155700D01*
Y611405D01*
X7398274Y610912D01*
X7395908Y599017D01*
X7389212Y588996D01*
X7388909Y588763D01*
X7102357Y302211D01*
X7102124Y301908D01*
X7092103Y295212D01*
X7080208Y292846D01*
X7079715Y292911D01*
X1152425D01*
X1151932Y292846D01*
X1140037Y295212D01*
X1130016Y301908D01*
X1129783Y302211D01*
X954991Y477003D01*
X954688Y477236D01*
X947992Y487257D01*
X945626Y499152D01*
X945691Y499645D01*
Y666215D01*
X945949D01*
X941683Y709535D01*
X929047Y751190D01*
X908527Y789579D01*
X881280Y822780D01*
X881280Y822781D01*
X881280D01*
X872225Y831549D01*
X721262Y982512D01*
X721041Y982682D01*
X720859Y982920D01*
X720857Y982921D01*
X714311Y992718D01*
X711945Y1004613D01*
X712010Y1005106D01*
Y2440566D01*
X712747Y2441303D01*
X728463Y2468525D01*
X736599Y2498887D01*
Y2530321D01*
X728463Y2560683D01*
X712747Y2587905D01*
X690520Y2610132D01*
X663298Y2625848D01*
X632935Y2633984D01*
D02*
G37*
G36*
X4087273Y467360D02*
X4053840D01*
Y433927D01*
X4067376Y439534D01*
X4081666Y453824D01*
X4087273Y467360D01*
D02*
G37*
G36*
X4023360D02*
X3989927D01*
X3995534Y453824D01*
X4009824Y439534D01*
X4023360Y433927D01*
Y467360D01*
D02*
G37*
G36*
X3136185Y431800D02*
X3073400D01*
Y369015D01*
X3090112Y373493D01*
X3107488Y383525D01*
X3121675Y397712D01*
X3131707Y415088D01*
X3136185Y431800D01*
D02*
G37*
G36*
X3048000D02*
X2985215D01*
X2989693Y415088D01*
X2999725Y397712D01*
X3013912Y383525D01*
X3031288Y373493D01*
X3048000Y369015D01*
Y431800D01*
D02*
G37*
G36*
X2805985D02*
X2743200D01*
Y369015D01*
X2759912Y373493D01*
X2777288Y383525D01*
X2791475Y397712D01*
X2801507Y415088D01*
X2805985Y431800D01*
D02*
G37*
G36*
X2717800D02*
X2655015D01*
X2659493Y415088D01*
X2669525Y397712D01*
X2683712Y383525D01*
X2701088Y373493D01*
X2717800Y369015D01*
Y431800D01*
D02*
G37*
%LPD*%
G36*
X2725061Y4935220D02*
X2724439Y4935703D01*
X2723567Y4936134D01*
X2722447Y4936515D01*
X2721078Y4936846D01*
X2719461Y4937125D01*
X2715479Y4937531D01*
X2710502Y4937735D01*
X2707640Y4937760D01*
Y4968240D01*
X2710502Y4968265D01*
X2719461Y4968875D01*
X2721078Y4969154D01*
X2722447Y4969485D01*
X2723567Y4969866D01*
X2724439Y4970297D01*
X2725061Y4970780D01*
Y4935220D01*
D02*
G37*
G36*
X1587425Y4937760D02*
X1587467Y4937720D01*
X1587483Y4937601D01*
X1587471Y4937402D01*
X1587433Y4937123D01*
X1587278Y4936327D01*
X1586646Y4933780D01*
X1569101Y4964711D01*
X1584268Y4968132D01*
X1587425Y4937760D01*
D02*
G37*
G36*
X4538497Y5213639D02*
X4538066Y5212767D01*
X4537685Y5211647D01*
X4537354Y5210278D01*
X4537075Y5208661D01*
X4536669Y5204679D01*
X4536465Y5199702D01*
X4536440Y5196840D01*
X4505960D01*
X4505935Y5199702D01*
X4505325Y5208661D01*
X4505046Y5210278D01*
X4504715Y5211647D01*
X4504334Y5212767D01*
X4503903Y5213639D01*
X4503420Y5214261D01*
X4538980D01*
X4538497Y5213639D01*
D02*
G37*
G36*
X4387561Y4284497D02*
X4388433Y4284066D01*
X4389553Y4283685D01*
X4390922Y4283354D01*
X4392539Y4283075D01*
X4396521Y4282669D01*
X4401498Y4282465D01*
X4404360Y4282440D01*
Y4251960D01*
X4401498Y4251935D01*
X4392539Y4251325D01*
X4390922Y4251046D01*
X4389553Y4250715D01*
X4388433Y4250334D01*
X4387561Y4249903D01*
X4386939Y4249420D01*
Y4284980D01*
X4387561Y4284497D01*
D02*
G37*
G36*
X2458974Y2782140D02*
X2454656Y2780564D01*
X2450846Y2777978D01*
X2447544Y2774383D01*
X2444750Y2769777D01*
X2442464Y2764162D01*
X2440686Y2757536D01*
X2439416Y2749901D01*
X2438654Y2741256D01*
X2438400Y2731601D01*
X2387600D01*
X2387346Y2741256D01*
X2386584Y2749901D01*
X2385314Y2757536D01*
X2383536Y2764162D01*
X2381250Y2769777D01*
X2378456Y2774383D01*
X2375154Y2777978D01*
X2371344Y2780564D01*
X2367026Y2782140D01*
X2362200Y2782706D01*
X2463800D01*
X2458974Y2782140D01*
D02*
G37*
G36*
X2204974D02*
X2200656Y2780564D01*
X2196846Y2777978D01*
X2193544Y2774383D01*
X2190750Y2769777D01*
X2188464Y2764162D01*
X2186686Y2757536D01*
X2185416Y2749901D01*
X2184654Y2741256D01*
X2184400Y2731601D01*
X2133600D01*
X2133346Y2741256D01*
X2132584Y2749901D01*
X2131314Y2757536D01*
X2129536Y2764162D01*
X2127250Y2769777D01*
X2124456Y2774383D01*
X2121154Y2777978D01*
X2117344Y2780564D01*
X2113026Y2782140D01*
X2108200Y2782706D01*
X2209800D01*
X2204974Y2782140D01*
D02*
G37*
G36*
X944222Y2821422D02*
X962101Y2805572D01*
X970463Y2799133D01*
X978439Y2793685D01*
X986031Y2789227D01*
X993238Y2785760D01*
X1000059Y2783284D01*
X1006495Y2781798D01*
X1012546Y2781303D01*
Y2755903D01*
X1006495Y2755407D01*
X1000059Y2753921D01*
X993238Y2751445D01*
X986031Y2747978D01*
X978439Y2743520D01*
X970463Y2738072D01*
X962101Y2731633D01*
X944222Y2715783D01*
X934705Y2706373D01*
Y2830833D01*
X944222Y2821422D01*
D02*
G37*
G36*
X1356218Y2675015D02*
X1359981Y2671826D01*
X1361777Y2670533D01*
X1363515Y2669441D01*
X1365196Y2668550D01*
X1366820Y2667861D01*
X1368386Y2667372D01*
X1369895Y2667085D01*
X1371346Y2666999D01*
X1346201Y2641854D01*
X1346115Y2643305D01*
X1345828Y2644814D01*
X1345339Y2646380D01*
X1344650Y2648004D01*
X1343759Y2649685D01*
X1342667Y2651423D01*
X1341374Y2653219D01*
X1339880Y2655072D01*
X1336289Y2658950D01*
X1354250Y2676911D01*
X1356218Y2675015D01*
D02*
G37*
G36*
X5686839Y1166700D02*
X5681438Y1171849D01*
X5675859Y1176456D01*
X5670102Y1180521D01*
X5664168Y1184044D01*
X5658056Y1187025D01*
X5651766Y1189464D01*
X5645299Y1191361D01*
X5638654Y1192716D01*
X5631832Y1193529D01*
X5624832Y1193800D01*
Y1244600D01*
X5631832Y1244871D01*
X5638654Y1245684D01*
X5645299Y1247039D01*
X5651766Y1248936D01*
X5658056Y1251375D01*
X5664168Y1254356D01*
X5670102Y1257879D01*
X5675859Y1261944D01*
X5681438Y1266551D01*
X5686839Y1271700D01*
Y1166700D01*
D02*
G37*
G36*
X3961156Y1011174D02*
X3962732Y1006856D01*
X3965318Y1003046D01*
X3968913Y999744D01*
X3973519Y996950D01*
X3979134Y994664D01*
X3985760Y992886D01*
X3993395Y991616D01*
X4002040Y990854D01*
X4011695Y990600D01*
Y939800D01*
X4002040Y939546D01*
X3993395Y938784D01*
X3985760Y937514D01*
X3979134Y935736D01*
X3973519Y933450D01*
X3968913Y930656D01*
X3965318Y927354D01*
X3962732Y923544D01*
X3961156Y919226D01*
X3960590Y914400D01*
Y1016000D01*
X3961156Y1011174D01*
D02*
G37*
D10*
X5293801Y1064701D02*
G03*
X5308600Y1100542I-36001J35840D01*
G01*
X5203738Y975360D02*
G03*
X5209086Y979986I-30480J40641D01*
G01*
X5173258Y965200D02*
G03*
X5203738Y975360I0J50800D01*
G01*
X5362662Y1229360D02*
G03*
X5393142Y1219200I30480J40640D01*
G01*
X5064760Y1527262D02*
G03*
X5069386Y1521914I40641J30480D01*
G01*
X5357314Y1233986D02*
G03*
X5362662Y1229360I35828J36015D01*
G01*
X5054600Y1557742D02*
G03*
X5064760Y1527262I50800J0D01*
G01*
X3911600Y4262842D02*
G03*
X3926399Y4227001I50800J0D01*
G01*
X4505238Y4201160D02*
G03*
X4510586Y4205786I-30480J40641D01*
G01*
X4474758Y4191000D02*
G03*
X4505238Y4201160I0J50800D01*
G01*
X4582601Y4277801D02*
G03*
X4597400Y4313642I-36001J35840D01*
G01*
X3947601Y4205799D02*
G03*
X3983442Y4191000I35840J36001D01*
G01*
X2159000Y2717800D02*
Y2832096D01*
X2095500Y2654300D02*
X2159000Y2717800D01*
X2095500Y2565400D02*
X2260600D01*
X2413000Y2717800D01*
Y2832096D01*
X2565400Y2692400D02*
Y3048000D01*
X2146300Y2273300D02*
X2565400Y2692400D01*
X5308600Y1100542D02*
Y1168400D01*
X3886200Y965200D02*
X5173258D01*
X5209086Y979986D02*
X5293801Y1064701D01*
X5069386Y1521914D02*
X5357314Y1233986D01*
X5054600Y1557742D02*
Y1930400D01*
X5393142Y1219200D02*
X5740400D01*
X3911600Y4262842D02*
Y4419600D01*
X4597400Y4313642D02*
Y4318000D01*
X3983442Y4191000D02*
X4474758D01*
X4510586Y4205786D02*
X4582601Y4277801D01*
X3926398Y4227001D02*
X3947601Y4205798D01*
D11*
X871217Y2768603D02*
X1244597D01*
X1371600Y2641600D01*
D12*
X9271902Y2363102D02*
G03*
X9309100Y2452905I-89802J89802D01*
G01*
Y4826000D02*
G03*
X9182100Y4953000I-127000J0D01*
G01*
X8355564Y6185936D02*
G03*
X8265895Y6223000I-89669J-89936D01*
G01*
X8483600Y6005296D02*
G03*
X8446536Y6094964I-127000J0D01*
G01*
X4116605Y6223000D02*
G03*
X4026802Y6185802I0J-127000D01*
G01*
X3716207Y5875207D02*
G03*
X3683000Y5816600I89936J-89669D01*
G01*
X8649751Y5244049D02*
G03*
X8739194Y5207000I89654J89951D01*
G01*
X8483600Y5462551D02*
G03*
X8520606Y5373194I127000J254D01*
G01*
X7079715Y198120D02*
G03*
X7169384Y235184I0J127000D01*
G01*
X7455936Y521736D02*
G03*
X7493000Y611405I-89936J89669D01*
G01*
X617219Y1005106D02*
G03*
X653832Y915892I127000J0D01*
G01*
D02*
G03*
X654235Y915485I90411J89191D01*
G01*
X850900Y666215D02*
G03*
X813935Y755785I-127000J0D01*
G01*
X850900Y499645D02*
G03*
X887964Y409976I127000J0D01*
G01*
X1062756Y235184D02*
G03*
X1152425Y198120I89669J89936D01*
G01*
X8763000Y4953000D02*
X9182100D01*
X9067800Y2159000D02*
X9271902Y2363102D01*
X9309100Y2452905D02*
Y4826000D01*
X8483600Y5462551D02*
Y6005296D01*
X8355564Y6185936D02*
X8446536Y6094964D01*
X4116605Y6223000D02*
X8265895D01*
X3716207Y5875207D02*
X4026802Y6185802D01*
X8739194Y5207000D02*
X8763000Y5207000D01*
X8520606Y5373194D02*
X8649751Y5244049D01*
X8864600Y2159000D02*
X9067800D01*
X8724899Y2298701D02*
X8864600Y2159000D01*
X8724899Y2298701D02*
Y2514604D01*
X8763000Y5207000D02*
X9017000D01*
X1152425Y198120D02*
X7079715D01*
X7493000Y611405D02*
Y1155700D01*
X7169384Y235184D02*
X7455936Y521736D01*
X617219Y1005106D02*
Y2514604D01*
X654235Y915485D02*
X813935Y755785D01*
X850900Y499645D02*
Y666215D01*
X887964Y409976D02*
X1062756Y235184D01*
D16*
X4512341Y4334541D02*
G03*
X4515104Y4337737I-21622J21484D01*
G01*
X4432375Y4267200D02*
G03*
X4453869Y4276069I0J30480D01*
G01*
X4515104Y4337737D02*
G03*
X4521200Y4356025I-24384J18288D01*
G01*
X1587425Y4953000D02*
G03*
X1565931Y4944131I0J-30480D01*
G01*
X4453869Y4276069D02*
X4512341Y4334541D01*
X4453869Y4276069D02*
X4453869Y4276069D01*
X4368800Y4267200D02*
X4432375D01*
X4521200Y4356025D02*
Y5232400D01*
X1587425Y4953000D02*
X2743200D01*
X1562096Y4940296D02*
X1565931Y4944131D01*
D17*
X2159000Y2832096D02*
D03*
Y3060696D02*
D03*
X2413000Y2832096D02*
D03*
Y3060696D02*
D03*
D49*
X8064500Y5943600D02*
D03*
X7556500D02*
D03*
X3263900D02*
D03*
X2755900D02*
D03*
D50*
X3594100Y2552700D02*
D03*
D51*
X5740400Y2286000D02*
D03*
Y965200D02*
D03*
X3886200D02*
D03*
Y2032000D02*
D03*
X9017000Y5207000D02*
D03*
D52*
X5740400Y2032000D02*
D03*
Y1219200D02*
D03*
X3886200D02*
D03*
Y2286000D02*
D03*
X8763000Y4699000D02*
D03*
X9017000D02*
D03*
X8763000Y4953000D02*
D03*
X9017000D02*
D03*
X8763000Y5207000D02*
D03*
X7073900Y2590800D02*
D03*
Y2844800D02*
D03*
X6819900Y2590800D02*
D03*
D53*
Y2844800D02*
D03*
D54*
X1651000Y5410200D02*
D03*
Y6045200D02*
D03*
D55*
X1143000Y5664200D02*
D03*
D56*
X8903723Y6094977D02*
D03*
X9080500Y6168200D02*
D03*
X9257276Y6094977D02*
D03*
X9330500Y5918200D02*
D03*
X9257276Y5741423D02*
D03*
X9080500Y5668200D02*
D03*
X8903723Y5741423D02*
D03*
X8830500Y5918200D02*
D03*
X178823Y6094977D02*
D03*
X355600Y6168200D02*
D03*
X532376Y6094977D02*
D03*
X605600Y5918200D02*
D03*
X532376Y5741423D02*
D03*
X355600Y5668200D02*
D03*
X178823Y5741423D02*
D03*
X105600Y5918200D02*
D03*
X178823Y646677D02*
D03*
X355600Y719900D02*
D03*
X532376Y646677D02*
D03*
X605600Y469900D02*
D03*
X532376Y293123D02*
D03*
X355600Y219900D02*
D03*
X178823Y293123D02*
D03*
X105600Y469900D02*
D03*
X8903723Y646677D02*
D03*
X9080500Y719900D02*
D03*
X9257276Y646677D02*
D03*
X9330500Y469900D02*
D03*
X9257276Y293123D02*
D03*
X9080500Y219900D02*
D03*
X8903723Y293123D02*
D03*
X8830500Y469900D02*
D03*
D57*
X9080500Y5905500D02*
D03*
X355600D02*
D03*
Y469900D02*
D03*
X9080500D02*
D03*
D58*
X8724900Y3022602D02*
D03*
X8724900Y2768602D02*
D03*
X8978897Y2768603D02*
D03*
X8978899Y3022602D02*
D03*
X8978897Y3276603D02*
D03*
X8724898Y3530602D02*
D03*
X8978898Y3530603D02*
D03*
X8724899Y2514604D02*
D03*
X8724898Y3276603D02*
D03*
X617218D02*
D03*
X617219Y2514604D02*
D03*
X871218Y3530603D02*
D03*
X617218Y3530602D02*
D03*
X871217Y3276603D02*
D03*
X871219Y3022602D02*
D03*
X871217Y2768603D02*
D03*
X617220Y2768602D02*
D03*
X617220Y3022602D02*
D03*
D59*
X8978900Y2514604D02*
D03*
X871220D02*
D03*
D60*
X1790700Y2006600D02*
D03*
X2565400Y2413000D02*
D03*
X1371600Y2641600D02*
D03*
X2095500Y2565400D02*
D03*
Y2654300D02*
D03*
X7797800Y1143000D02*
D03*
X5308600Y1168400D02*
D03*
X4038600Y482600D02*
D03*
X5054600Y1930400D02*
D03*
X1181096Y4584704D02*
D03*
X3327400Y3200400D02*
D03*
X1600200Y3784600D02*
D03*
X2260600Y4343400D02*
D03*
X4521200Y5232400D02*
D03*
X3911600Y4419600D02*
D03*
X4597400Y4318000D02*
D03*
X4368800Y4267200D02*
D03*
X2743200Y4953000D02*
D03*
X1562096Y4940296D02*
D03*
D61*
X2565400Y3048000D02*
D03*
X2146300Y2273300D02*
D03*
X4127500Y3860800D02*
D03*
X4889500Y5359400D02*
D03*
X4737100D02*
D03*
X4991096Y3200400D02*
D03*
D62*
X2070100Y787400D02*
D03*
Y1066800D02*
D03*
X2730500Y723900D02*
D03*
Y444500D02*
D03*
X3060700D02*
D03*
Y723900D02*
D03*
X6375400Y2273300D02*
D03*
X3683000Y5816600D02*
D03*
X7493000Y1155700D02*
D03*
X6375400Y1701800D02*
D03*
Y1422400D02*
D03*
Y1993900D02*
D03*
%TF.MD5,74993248d208eddcb6d816ac657d88f9*%
M02*
