%TF.GenerationSoftware,Altium Limited,Altium Designer,25.4.2 (15)*%
G04 Layer_Color=32896*
%FSLAX45Y45*%
%MOMM*%
%TF.SameCoordinates,E42F7491-6EBA-4DE7-B61D-BE58CA0AFF3A*%
%TF.FilePolarity,Positive*%
%TF.FileFunction,Legend,Bot*%
%TF.Part,Single*%
G01*
G75*
%TA.AperFunction,NonConductor*%
%ADD63C,0.20000*%
%ADD66C,0.25400*%
%ADD68C,0.12700*%
%ADD70C,0.10160*%
%ADD73C,0.30480*%
%ADD75C,0.20320*%
D63*
X9144000Y4572000D02*
Y5058832D01*
Y4572000D02*
Y5334000D01*
X8636000Y4572000D02*
Y5334000D01*
X9144000D01*
X8636000Y4572000D02*
X9144000D01*
X6692900Y2463800D02*
X7200900D01*
X6692900D02*
Y2971800D01*
X7200900Y2463800D02*
Y2971800D01*
X6692900D02*
X7200900D01*
D66*
X7260320Y2781300D02*
Y2882867D01*
X7311103D01*
X7328031Y2865939D01*
Y2849011D01*
X7311103Y2832083D01*
X7260320D01*
X7311103D01*
X7328031Y2815156D01*
Y2798228D01*
X7311103Y2781300D01*
X7260320D01*
X7361887Y2882867D02*
Y2815156D01*
X7395743Y2781300D01*
X7429598Y2815156D01*
Y2882867D01*
Y2832083D01*
X7361887D01*
X7463454Y2781300D02*
X7531166D01*
X7497310D01*
Y2882867D01*
X7565021Y2781300D02*
X7632733D01*
X7598877D01*
Y2882867D01*
X7666589Y2832083D02*
X7734300D01*
X7700444Y2798228D02*
Y2865939D01*
X7260320Y2527300D02*
Y2628867D01*
X7311103D01*
X7328031Y2611939D01*
Y2595011D01*
X7311103Y2578083D01*
X7260320D01*
X7311103D01*
X7328031Y2561156D01*
Y2544228D01*
X7311103Y2527300D01*
X7260320D01*
X7361887Y2628867D02*
Y2561156D01*
X7395743Y2527300D01*
X7429598Y2561156D01*
Y2628867D01*
Y2578083D01*
X7361887D01*
X7463454Y2527300D02*
X7531166D01*
X7497310D01*
Y2628867D01*
X7565021Y2527300D02*
X7632733D01*
X7598877D01*
Y2628867D01*
X7666589Y2578083D02*
X7734300D01*
X7624294Y5511816D02*
Y5579528D01*
X7658149Y5613383D01*
X7692005Y5579528D01*
Y5511816D01*
X7776644D02*
X7742789D01*
X7725861Y5528744D01*
Y5596456D01*
X7742789Y5613383D01*
X7776644D01*
X7793572Y5596456D01*
Y5528744D01*
X7776644Y5511816D01*
X7827428D02*
Y5596456D01*
X7844356Y5613383D01*
X7878212D01*
X7895139Y5596456D01*
Y5511816D01*
X7928995D02*
X7996707D01*
X7962851D01*
Y5613383D01*
X1447857Y5105400D02*
Y5206967D01*
X1498641D01*
X1515569Y5190039D01*
Y5122328D01*
X1498641Y5105400D01*
X1447857D01*
X1617136Y5122328D02*
X1600208Y5105400D01*
X1566352D01*
X1549425Y5122328D01*
Y5190039D01*
X1566352Y5206967D01*
X1600208D01*
X1617136Y5190039D01*
X1650992Y5105400D02*
X1684848D01*
X1667920D01*
Y5206967D01*
X1650992D01*
X1684848D01*
X1735631D02*
Y5105400D01*
X1803343Y5206967D01*
Y5105400D01*
X2882941Y5511816D02*
Y5579528D01*
X2916797Y5613383D01*
X2950652Y5579528D01*
Y5511816D01*
X2984508D02*
X3018364D01*
X3001436D01*
Y5613383D01*
X2984508D01*
X3018364D01*
X3069148D02*
Y5511816D01*
X3136859Y5613383D01*
Y5511816D01*
X8382066Y4665128D02*
X8365138Y4648200D01*
X8331282D01*
X8314354Y4665128D01*
Y4732839D01*
X8331282Y4749767D01*
X8365138D01*
X8382066Y4732839D01*
Y4698983D01*
X8348210D01*
X8415921Y4749767D02*
Y4648200D01*
X8483633Y4749767D01*
Y4648200D01*
X8517489D02*
Y4749767D01*
X8568272D01*
X8585200Y4732839D01*
Y4665128D01*
X8568272Y4648200D01*
X8517489D01*
X8331282Y5156200D02*
Y5223911D01*
X8365138Y5257767D01*
X8398994Y5223911D01*
Y5156200D01*
X8432850D02*
X8466705D01*
X8449777D01*
Y5257767D01*
X8432850D01*
X8466705D01*
X8517489D02*
Y5156200D01*
X8585200Y5257767D01*
Y5156200D01*
X8314354Y4952983D02*
X8382066D01*
X8483633Y4902200D02*
X8415921D01*
Y4952983D01*
X8449777Y4936056D01*
X8466705D01*
X8483633Y4952983D01*
Y4986839D01*
X8466705Y5003767D01*
X8432849D01*
X8415921Y4986839D01*
X8517489Y4902200D02*
Y4969911D01*
X8551344Y5003767D01*
X8585200Y4969911D01*
Y4902200D01*
D68*
X2072640Y2768600D02*
X2242820D01*
Y3124200D01*
X2072640D02*
X2242820D01*
X2072640Y2768600D02*
Y3124200D01*
X2326640Y2768600D02*
X2496820D01*
Y3124200D01*
X2326640D02*
X2496820D01*
X2326640Y2768600D02*
Y3124200D01*
D70*
X2095500Y2903216D02*
Y2989576D01*
X2222500Y2903216D02*
Y2989576D01*
X2349500Y2903216D02*
Y2989576D01*
X2476500Y2903216D02*
Y2989576D01*
D73*
X2113280Y3165774D02*
X2214847D01*
Y3216558D01*
X2197919Y3233486D01*
X2164063D01*
X2147136Y3216558D01*
Y3165774D01*
Y3199630D02*
X2113280Y3233486D01*
Y3335053D02*
Y3267341D01*
X2180991Y3335053D01*
X2197919D01*
X2214847Y3318125D01*
Y3284269D01*
X2197919Y3267341D01*
X2113280Y3436620D02*
Y3368909D01*
X2180991Y3436620D01*
X2197919D01*
X2214847Y3419692D01*
Y3385837D01*
X2197919Y3368909D01*
X2354580Y3165774D02*
X2456147D01*
Y3216558D01*
X2439219Y3233486D01*
X2405363D01*
X2388436Y3216558D01*
Y3165774D01*
Y3199630D02*
X2354580Y3233486D01*
Y3335053D02*
Y3267341D01*
X2422291Y3335053D01*
X2439219D01*
X2456147Y3318125D01*
Y3284269D01*
X2439219Y3267341D01*
Y3368909D02*
X2456147Y3385837D01*
Y3419692D01*
X2439219Y3436620D01*
X2371508D01*
X2354580Y3419692D01*
Y3385837D01*
X2371508Y3368909D01*
X2439219D01*
D75*
X9151601Y2735603D02*
X9138905Y2722907D01*
X9113513D01*
X9100817Y2735603D01*
Y2786387D01*
X9113513Y2799083D01*
X9138905D01*
X9151601Y2786387D01*
Y2760995D01*
X9126209D01*
X9176993Y2799083D02*
Y2722907D01*
X9227776Y2799083D01*
Y2722907D01*
X9253168D02*
Y2799083D01*
X9291256D01*
X9303952Y2786387D01*
Y2735603D01*
X9291256Y2722907D01*
X9253168D01*
X9151601Y3243604D02*
X9138905Y3230908D01*
X9113513D01*
X9100817Y3243604D01*
Y3294387D01*
X9113513Y3307083D01*
X9138905D01*
X9151601Y3294387D01*
Y3268995D01*
X9126209D01*
X9176993Y3307083D02*
Y3230908D01*
X9227776Y3307083D01*
Y3230908D01*
X9253168D02*
Y3307083D01*
X9291256D01*
X9303952Y3294387D01*
Y3243604D01*
X9291256Y3230908D01*
X9253168D01*
X9151604Y2481604D02*
X9138908Y2468908D01*
X9113516D01*
X9100820Y2481604D01*
Y2532388D01*
X9113516Y2545084D01*
X9138908D01*
X9151604Y2532388D01*
Y2506996D01*
X9126212D01*
X9176996Y2545084D02*
Y2468908D01*
X9227779Y2545084D01*
Y2468908D01*
X9253171D02*
Y2545084D01*
X9291259D01*
X9303954Y2532388D01*
Y2481604D01*
X9291259Y2468908D01*
X9253171D01*
X9151602Y3497604D02*
X9138906Y3484908D01*
X9113514D01*
X9100818Y3497604D01*
Y3548387D01*
X9113514Y3561083D01*
X9138906D01*
X9151602Y3548387D01*
Y3522995D01*
X9126210D01*
X9176994Y3561083D02*
Y3484908D01*
X9227777Y3561083D01*
Y3484908D01*
X9253169D02*
Y3561083D01*
X9291257D01*
X9303952Y3548387D01*
Y3497604D01*
X9291257Y3484908D01*
X9253169D01*
X9151603Y2989603D02*
X9138907Y2976907D01*
X9113515D01*
X9100819Y2989603D01*
Y3040386D01*
X9113515Y3053082D01*
X9138907D01*
X9151603Y3040386D01*
Y3014994D01*
X9126211D01*
X9176995Y3053082D02*
Y2976907D01*
X9227778Y3053082D01*
Y2976907D01*
X9253170D02*
Y3053082D01*
X9291258D01*
X9303953Y3040386D01*
Y2989603D01*
X9291258Y2976907D01*
X9253170D01*
X8222093Y3002299D02*
X8272876D01*
X8247485Y2976907D02*
Y3027690D01*
X8349052Y2964211D02*
X8298268D01*
Y3002299D01*
X8323660Y2989603D01*
X8336356D01*
X8349052Y3002299D01*
Y3027690D01*
X8336356Y3040386D01*
X8310964D01*
X8298268Y3027690D01*
X8374443Y2964211D02*
Y3014994D01*
X8399835Y3040386D01*
X8425227Y3014994D01*
Y2964211D01*
X8450619Y3053082D02*
X8501402D01*
X8577578Y2976907D02*
X8564882Y2964211D01*
X8539490D01*
X8526794Y2976907D01*
Y2989603D01*
X8539490Y3002299D01*
X8564882D01*
X8577578Y3014994D01*
Y3027690D01*
X8564882Y3040386D01*
X8539490D01*
X8526794Y3027690D01*
X8222095Y2748299D02*
X8272879D01*
X8247487Y2722907D02*
Y2773690D01*
X8349054Y2710211D02*
X8298271D01*
Y2748299D01*
X8323663Y2735603D01*
X8336358D01*
X8349054Y2748299D01*
Y2773690D01*
X8336358Y2786386D01*
X8310967D01*
X8298271Y2773690D01*
X8374446Y2710211D02*
Y2760994D01*
X8399838Y2786386D01*
X8425230Y2760994D01*
Y2710211D01*
X8450621Y2799082D02*
X8501405D01*
X8577580Y2722907D02*
X8564885Y2710211D01*
X8539493D01*
X8526797Y2722907D01*
Y2735603D01*
X8539493Y2748299D01*
X8564885D01*
X8577580Y2760994D01*
Y2773690D01*
X8564885Y2786386D01*
X8539493D01*
X8526797Y2773690D01*
X8374445Y2506996D02*
X8425228D01*
X8501403Y2468908D02*
X8450620D01*
Y2506996D01*
X8476012Y2494300D01*
X8488708D01*
X8501403Y2506996D01*
Y2532388D01*
X8488708Y2545084D01*
X8463316D01*
X8450620Y2532388D01*
X8526795Y2468908D02*
Y2519692D01*
X8552187Y2545084D01*
X8577579Y2519692D01*
Y2468908D01*
X8374444Y3243604D02*
X8387140Y3230908D01*
X8412532D01*
X8425227Y3243604D01*
Y3256300D01*
X8412532Y3268995D01*
X8399836D01*
X8412532D01*
X8425227Y3281691D01*
Y3294387D01*
X8412532Y3307083D01*
X8387140D01*
X8374444Y3294387D01*
X8450619Y3230908D02*
Y3281691D01*
X8476011Y3307083D01*
X8501403Y3281691D01*
Y3230908D01*
X8526795Y3243604D02*
X8539491Y3230908D01*
X8564883D01*
X8577578Y3243604D01*
Y3256300D01*
X8564883Y3268995D01*
X8552187D01*
X8564883D01*
X8577578Y3281691D01*
Y3294387D01*
X8564883Y3307083D01*
X8539491D01*
X8526795Y3294387D01*
X8374444Y3497603D02*
X8387140Y3484907D01*
X8412532D01*
X8425227Y3497603D01*
Y3510299D01*
X8412532Y3522994D01*
X8399836D01*
X8412532D01*
X8425227Y3535690D01*
Y3548386D01*
X8412532Y3561082D01*
X8387140D01*
X8374444Y3548386D01*
X8450619Y3484907D02*
Y3535690D01*
X8476011Y3561082D01*
X8501403Y3535690D01*
Y3484907D01*
X8526795Y3497603D02*
X8539491Y3484907D01*
X8564883D01*
X8577578Y3497603D01*
Y3510299D01*
X8564883Y3522994D01*
X8552187D01*
X8564883D01*
X8577578Y3535690D01*
Y3548386D01*
X8564883Y3561082D01*
X8539491D01*
X8526795Y3548386D01*
X317547Y3497603D02*
X304852Y3484907D01*
X279460D01*
X266764Y3497603D01*
Y3548386D01*
X279460Y3561082D01*
X304852D01*
X317547Y3548386D01*
Y3522994D01*
X292156D01*
X342939Y3561082D02*
Y3484907D01*
X393723Y3561082D01*
Y3484907D01*
X419115D02*
Y3561082D01*
X457203D01*
X469898Y3548386D01*
Y3497603D01*
X457203Y3484907D01*
X419115D01*
X317547Y3243604D02*
X304852Y3230908D01*
X279460D01*
X266764Y3243604D01*
Y3294387D01*
X279460Y3307083D01*
X304852D01*
X317547Y3294387D01*
Y3268995D01*
X292156D01*
X342939Y3307083D02*
Y3230908D01*
X393723Y3307083D01*
Y3230908D01*
X419115D02*
Y3307083D01*
X457203D01*
X469898Y3294387D01*
Y3243604D01*
X457203Y3230908D01*
X419115D01*
X114416Y2748299D02*
X165199D01*
X139808Y2722907D02*
Y2773690D01*
X241375Y2710211D02*
X190591D01*
Y2748299D01*
X215983Y2735603D01*
X228679D01*
X241375Y2748299D01*
Y2773690D01*
X228679Y2786386D01*
X203287D01*
X190591Y2773690D01*
X266767Y2710211D02*
Y2760994D01*
X292158Y2786386D01*
X317550Y2760994D01*
Y2710211D01*
X342942Y2799082D02*
X393725D01*
X419117Y2710211D02*
Y2786386D01*
X469901D01*
X114416Y3002298D02*
X165199D01*
X139808Y2976907D02*
Y3027690D01*
X241375Y2964211D02*
X190591D01*
Y3002298D01*
X215983Y2989603D01*
X228679D01*
X241375Y3002298D01*
Y3027690D01*
X228679Y3040386D01*
X203287D01*
X190591Y3027690D01*
X266767Y2964211D02*
Y3014994D01*
X292158Y3040386D01*
X317550Y3014994D01*
Y2964211D01*
X342942Y3053082D02*
X393725D01*
X419117Y2964211D02*
Y3040386D01*
X469901D01*
X266765Y2481604D02*
X279460Y2468908D01*
X304852D01*
X317548Y2481604D01*
Y2494300D01*
X304852Y2506996D01*
X292156D01*
X304852D01*
X317548Y2519692D01*
Y2532388D01*
X304852Y2545084D01*
X279460D01*
X266765Y2532388D01*
X342940Y2468908D02*
Y2519692D01*
X368332Y2545084D01*
X393723Y2519692D01*
Y2468908D01*
X419115Y2481604D02*
X431811Y2468908D01*
X457203D01*
X469899Y2481604D01*
Y2494300D01*
X457203Y2506996D01*
X444507D01*
X457203D01*
X469899Y2519692D01*
Y2532388D01*
X457203Y2545084D01*
X431811D01*
X419115Y2532388D01*
X1094722Y3497604D02*
X1082026Y3484908D01*
X1056634D01*
X1043938Y3497604D01*
Y3510300D01*
X1056634Y3522995D01*
X1082026D01*
X1094722Y3535691D01*
Y3548387D01*
X1082026Y3561083D01*
X1056634D01*
X1043938Y3548387D01*
X1120114Y3484908D02*
Y3561083D01*
X1158201D01*
X1170897Y3548387D01*
Y3497604D01*
X1158201Y3484908D01*
X1120114D01*
X1196289Y3561083D02*
Y3510300D01*
X1221681Y3484908D01*
X1247072Y3510300D01*
Y3561083D01*
Y3522995D01*
X1196289D01*
X1094721Y3243604D02*
X1082025Y3230908D01*
X1056633D01*
X1043937Y3243604D01*
Y3256300D01*
X1056633Y3268995D01*
X1082025D01*
X1094721Y3281691D01*
Y3294387D01*
X1082025Y3307083D01*
X1056633D01*
X1043937Y3294387D01*
X1170896Y3243604D02*
X1158201Y3230908D01*
X1132809D01*
X1120113Y3243604D01*
Y3294387D01*
X1132809Y3307083D01*
X1158201D01*
X1170896Y3294387D01*
X1196288Y3230908D02*
Y3307083D01*
X1247072D01*
X1043939Y3002299D02*
X1094723D01*
X1069331Y2976907D02*
Y3027690D01*
X1170898Y2964211D02*
X1120115D01*
Y3002299D01*
X1145506Y2989603D01*
X1158202D01*
X1170898Y3002299D01*
Y3027690D01*
X1158202Y3040386D01*
X1132811D01*
X1120115Y3027690D01*
X1196290Y2964211D02*
Y3014994D01*
X1221682Y3040386D01*
X1247073Y3014994D01*
Y2964211D01*
X1272465Y3053082D02*
X1323249D01*
X1348641Y2964211D02*
Y3040386D01*
X1399424D01*
X1043937Y2799083D02*
Y2722907D01*
X1082025D01*
X1094721Y2735603D01*
Y2760995D01*
X1082025Y2773691D01*
X1043937D01*
X1069329D02*
X1094721Y2799083D01*
X1170896Y2735603D02*
X1158201Y2722907D01*
X1132809D01*
X1120113Y2735603D01*
Y2748299D01*
X1132809Y2760995D01*
X1158201D01*
X1170896Y2773691D01*
Y2786387D01*
X1158201Y2799083D01*
X1132809D01*
X1120113Y2786387D01*
X1196288Y2722907D02*
X1247072D01*
X1221680D01*
Y2799083D01*
X1043940Y2545084D02*
Y2468908D01*
X1082028D01*
X1094724Y2481604D01*
Y2506996D01*
X1082028Y2519692D01*
X1043940D01*
X1120116Y2468908D02*
Y2545084D01*
X1145507Y2519692D01*
X1170899Y2545084D01*
Y2468908D01*
X1196291Y2545084D02*
Y2468908D01*
X1221683Y2494300D01*
X1247074Y2468908D01*
Y2545084D01*
X9067800Y5410200D02*
Y5367880D01*
Y5389040D01*
X8940841D01*
X8962001Y5410200D01*
X8813800Y5376361D02*
Y5461000D01*
X8729161Y5376361D01*
X8708001D01*
X8686841Y5397521D01*
Y5439840D01*
X8708001Y5461000D01*
X8940841Y4461961D02*
Y4546600D01*
X9004321D01*
X8983161Y4504280D01*
Y4483121D01*
X9004321Y4461961D01*
X9046640D01*
X9067800Y4483121D01*
Y4525440D01*
X9046640Y4546600D01*
X8686841Y4461961D02*
X8708001Y4504280D01*
X8750321Y4546600D01*
X8792640D01*
X8813800Y4525440D01*
Y4483121D01*
X8792640Y4461961D01*
X8771480D01*
X8750321Y4483121D01*
Y4546600D01*
%TF.MD5,22cadd0b3c57fe15c0d574510924c1aa*%
M02*
