%TF.GenerationSoftware,Altium Limited,Altium Designer,25.4.2 (15)*%
G04 Layer_Color=8388736*
%FSLAX45Y45*%
%MOMM*%
%TF.SameCoordinates,7508AFC3-388F-4AFD-A3EF-C4AAA8C78AF0*%
%TF.FilePolarity,Negative*%
%TF.FileFunction,Soldermask,Top*%
%TF.Part,Single*%
G01*
G75*
%TA.AperFunction,SMDPad,CuDef*%
%ADD83C,1.09220*%
%ADD84R,0.85320X0.70320*%
%ADD85R,0.75320X0.70320*%
%ADD86R,4.32320X4.80320*%
%ADD87R,0.80320X2.40320*%
%ADD88R,2.20320X2.20320*%
%ADD89R,2.20320X2.20320*%
%ADD90R,1.60020X1.20320*%
%ADD91R,1.47320X1.60020*%
%ADD92R,1.20320X1.60020*%
%ADD93C,1.47320*%
%ADD94R,4.80320X4.32320*%
%ADD95R,0.70320X0.75320*%
%ADD96R,0.70320X0.85320*%
%ADD97R,0.80320X1.40320*%
%ADD98R,1.40320X1.05320*%
%TA.AperFunction,ConnectorPad*%
%ADD99R,1.50320X0.80320*%
%ADD100R,1.50320X0.50320*%
%TA.AperFunction,SMDPad,CuDef*%
%ADD101R,2.36320X2.60320*%
%ADD102R,2.00320X3.50320*%
%TA.AperFunction,ConnectorPad*%
%ADD103R,2.20320X1.10320*%
%ADD104R,1.10320X2.20320*%
%TA.AperFunction,BGAPad,CuDef*%
%ADD105R,1.53320X1.53320*%
%TA.AperFunction,SMDPad,CuDef*%
%ADD106R,1.70320X3.50320*%
%ADD107R,1.10320X1.40320*%
%ADD108R,1.10320X1.40320*%
G04:AMPARAMS|DCode=109|XSize=1.6732mm|YSize=0.4832mm|CornerRadius=0.1366mm|HoleSize=0mm|Usage=FLASHONLY|Rotation=270.000|XOffset=0mm|YOffset=0mm|HoleType=Round|Shape=RoundedRectangle|*
%AMROUNDEDRECTD109*
21,1,1.67320,0.21000,0,0,270.0*
21,1,1.40000,0.48320,0,0,270.0*
1,1,0.27320,-0.10500,-0.70000*
1,1,0.27320,-0.10500,0.70000*
1,1,0.27320,0.10500,0.70000*
1,1,0.27320,0.10500,-0.70000*
%
%ADD109ROUNDEDRECTD109*%
%ADD110R,1.90320X2.20320*%
G04:AMPARAMS|DCode=111|XSize=1.7272mm|YSize=1.9812mm|CornerRadius=0.4826mm|HoleSize=0mm|Usage=FLASHONLY|Rotation=0.000|XOffset=0mm|YOffset=0mm|HoleType=Round|Shape=RoundedRectangle|*
%AMROUNDEDRECTD111*
21,1,1.72720,1.01600,0,0,0.0*
21,1,0.76200,1.98120,0,0,0.0*
1,1,0.96520,0.38100,-0.50800*
1,1,0.96520,-0.38100,-0.50800*
1,1,0.96520,-0.38100,0.50800*
1,1,0.96520,0.38100,0.50800*
%
%ADD111ROUNDEDRECTD111*%
%ADD112R,2.74320X1.82880*%
%ADD113R,0.76200X2.18440*%
%ADD114R,1.90320X2.20320*%
G04:AMPARAMS|DCode=115|XSize=2.7032mm|YSize=4.5032mm|CornerRadius=0.7266mm|HoleSize=0mm|Usage=FLASHONLY|Rotation=90.000|XOffset=0mm|YOffset=0mm|HoleType=Round|Shape=RoundedRectangle|*
%AMROUNDEDRECTD115*
21,1,2.70320,3.05000,0,0,90.0*
21,1,1.25000,4.50320,0,0,90.0*
1,1,1.45320,1.52500,0.62500*
1,1,1.45320,1.52500,-0.62500*
1,1,1.45320,-1.52500,-0.62500*
1,1,1.45320,-1.52500,0.62500*
%
%ADD115ROUNDEDRECTD115*%
G04:AMPARAMS|DCode=116|XSize=2.7032mm|YSize=4.5032mm|CornerRadius=0.7266mm|HoleSize=0mm|Usage=FLASHONLY|Rotation=0.000|XOffset=0mm|YOffset=0mm|HoleType=Round|Shape=RoundedRectangle|*
%AMROUNDEDRECTD116*
21,1,2.70320,3.05000,0,0,0.0*
21,1,1.25000,4.50320,0,0,0.0*
1,1,1.45320,0.62500,-1.52500*
1,1,1.45320,-0.62500,-1.52500*
1,1,1.45320,-0.62500,1.52500*
1,1,1.45320,0.62500,1.52500*
%
%ADD116ROUNDEDRECTD116*%
%ADD117R,1.20320X2.60320*%
%ADD118R,3.50320X2.60320*%
%ADD119R,1.21920X0.96520*%
%ADD120R,1.85420X1.21920*%
%ADD121R,0.70320X1.05320*%
%ADD122R,1.05320X0.70320*%
G04:AMPARAMS|DCode=123|XSize=3.2512mm|YSize=3.2512mm|CornerRadius=0.8636mm|HoleSize=0mm|Usage=FLASHONLY|Rotation=90.000|XOffset=0mm|YOffset=0mm|HoleType=Round|Shape=RoundedRectangle|*
%AMROUNDEDRECTD123*
21,1,3.25120,1.52400,0,0,90.0*
21,1,1.52400,3.25120,0,0,90.0*
1,1,1.72720,0.76200,0.76200*
1,1,1.72720,0.76200,-0.76200*
1,1,1.72720,-0.76200,-0.76200*
1,1,1.72720,-0.76200,0.76200*
%
%ADD123ROUNDEDRECTD123*%
%ADD124R,3.20320X5.60320*%
%ADD125R,1.60020X1.47320*%
%ADD126R,3.50320X2.00320*%
%TA.AperFunction,ComponentPad*%
%ADD127C,1.70320*%
%ADD128R,1.70320X1.70320*%
%ADD129R,1.70320X1.70320*%
%ADD130O,2.30320X1.25320*%
%ADD131O,1.80320X1.00320*%
%ADD132C,0.85320*%
%ADD133C,6.55320*%
%ADD134C,0.70320*%
%TA.AperFunction,ViaPad*%
%ADD135C,0.81280*%
%ADD136C,1.47320*%
D83*
X7581900Y3606800D02*
D03*
X7772400Y4102100D02*
D03*
X7086600Y4114800D02*
D03*
X7442200Y5689600D02*
D03*
X8204200Y2019300D02*
D03*
X8051800Y4622800D02*
D03*
X6985000Y4851400D02*
D03*
X6273800Y4368800D02*
D03*
X5558686Y1418486D02*
D03*
D84*
X6743700Y3314700D02*
D03*
Y3187700D02*
D03*
Y3060700D02*
D03*
Y2933700D02*
D03*
D85*
X7298200Y3187700D02*
D03*
Y3060700D02*
D03*
Y2933700D02*
D03*
Y3314700D02*
D03*
D86*
X7064700Y3124200D02*
D03*
D87*
X9271000Y5391000D02*
D03*
X9144000D02*
D03*
X9017000D02*
D03*
X8890000D02*
D03*
X9271000Y4896000D02*
D03*
X9144000D02*
D03*
X9017000D02*
D03*
X8890000D02*
D03*
D88*
X1320800Y3699800D02*
D03*
X3844000Y4800600D02*
D03*
Y5791200D02*
D03*
D89*
X1320800Y3259800D02*
D03*
X4284000Y4800600D02*
D03*
Y5791200D02*
D03*
D90*
X1905000Y3721096D02*
D03*
Y3492496D02*
D03*
X2413000D02*
D03*
Y3721096D02*
D03*
X1638300Y3492496D02*
D03*
Y3721096D02*
D03*
Y3073396D02*
D03*
Y3301996D02*
D03*
X2667000Y3721096D02*
D03*
Y3492496D02*
D03*
X850900Y6172204D02*
D03*
Y5943604D02*
D03*
X2159000Y2857504D02*
D03*
Y3086104D02*
D03*
X2413000Y2857504D02*
D03*
Y3086104D02*
D03*
X5905500Y5257804D02*
D03*
Y5029204D02*
D03*
X2159000Y3492496D02*
D03*
Y3721096D02*
D03*
X5054600Y2895596D02*
D03*
Y2666996D02*
D03*
X4025900Y850896D02*
D03*
Y1079496D02*
D03*
X5057140Y1943104D02*
D03*
Y1714504D02*
D03*
X4597400Y1943104D02*
D03*
Y1714504D02*
D03*
X4826000D02*
D03*
Y1943104D02*
D03*
X5054600Y3403596D02*
D03*
Y3174996D02*
D03*
X5283200Y3403596D02*
D03*
Y3174996D02*
D03*
X4140200Y3327404D02*
D03*
Y3556004D02*
D03*
X4599940Y2667004D02*
D03*
Y2895604D02*
D03*
X4368800Y2895596D02*
D03*
Y2666996D02*
D03*
X4826000Y2895596D02*
D03*
Y2666996D02*
D03*
X1790700Y1295396D02*
D03*
Y1066796D02*
D03*
X1562100Y1066804D02*
D03*
Y1295404D02*
D03*
X6794500Y4622804D02*
D03*
Y4851404D02*
D03*
X6807200Y4432304D02*
D03*
Y4203704D02*
D03*
X6591300Y5029196D02*
D03*
Y5257796D02*
D03*
X6362700Y5257804D02*
D03*
Y5029204D02*
D03*
X6134100Y5257796D02*
D03*
Y5029196D02*
D03*
X9271000Y4330696D02*
D03*
Y4102096D02*
D03*
X3352800Y5943604D02*
D03*
Y6172204D02*
D03*
X3098800Y5943604D02*
D03*
Y6172204D02*
D03*
D91*
X977900Y3683000D02*
D03*
X749300D02*
D03*
X1536700Y1511300D02*
D03*
X1765300D02*
D03*
D92*
X977896Y3479800D02*
D03*
X749296D02*
D03*
X8458196Y4864100D02*
D03*
X8229596D02*
D03*
X8229604Y5092700D02*
D03*
X8458204D02*
D03*
X3225796Y4892040D02*
D03*
X3454396D02*
D03*
X4152904Y5156200D02*
D03*
X4381504D02*
D03*
X3962396D02*
D03*
X3733796D02*
D03*
X4152904Y5448300D02*
D03*
X4381504D02*
D03*
X3962396D02*
D03*
X3733796D02*
D03*
X981282Y2527300D02*
D03*
X752682D02*
D03*
X981282Y3136900D02*
D03*
X752682D02*
D03*
X647704Y1320800D02*
D03*
X419104D02*
D03*
X1473196Y596900D02*
D03*
X1701796D02*
D03*
X1041396D02*
D03*
X1269996D02*
D03*
X7442196Y5473700D02*
D03*
X7213596D02*
D03*
X7442196Y5245100D02*
D03*
X7213596D02*
D03*
X4813296Y1397000D02*
D03*
X5041896D02*
D03*
X4813296Y1158240D02*
D03*
X5041896D02*
D03*
X4838696Y3949700D02*
D03*
X4610096D02*
D03*
X4343404Y2451100D02*
D03*
X4572004D02*
D03*
X4813304D02*
D03*
X5041904D02*
D03*
X2565396Y673100D02*
D03*
X2336796D02*
D03*
X3454396Y4384040D02*
D03*
X3225796D02*
D03*
X3225804Y4635500D02*
D03*
X3454404D02*
D03*
X8458196D02*
D03*
X8229596D02*
D03*
X8229604Y4406900D02*
D03*
X8458204D02*
D03*
X8458196Y4178300D02*
D03*
X8229596D02*
D03*
X6375396Y4610100D02*
D03*
X6603996D02*
D03*
X8458196Y3721100D02*
D03*
X8229596D02*
D03*
X8229604Y3949700D02*
D03*
X8458204D02*
D03*
X7365996Y4102100D02*
D03*
X7594596D02*
D03*
X7899396Y5702300D02*
D03*
X7670796D02*
D03*
X7442196Y5930900D02*
D03*
X7213596D02*
D03*
X6781796Y5245100D02*
D03*
X7010396D02*
D03*
X6375396Y4838700D02*
D03*
X6603996D02*
D03*
D93*
X2565400Y355600D02*
D03*
X5499100Y4229100D02*
D03*
X8991600Y1206500D02*
D03*
X1968500Y1917700D02*
D03*
D94*
X8648700Y2552700D02*
D03*
D95*
X8458200Y2786200D02*
D03*
X8839200D02*
D03*
X8712200D02*
D03*
X8585200D02*
D03*
D96*
X8839200Y2231700D02*
D03*
X8712200D02*
D03*
X8585200D02*
D03*
X8458200D02*
D03*
D97*
X368300Y2261200D02*
D03*
X495300D02*
D03*
X622300D02*
D03*
X749300D02*
D03*
X876300D02*
D03*
X1003300D02*
D03*
X1130300D02*
D03*
X1257300D02*
D03*
Y1701200D02*
D03*
X1130300D02*
D03*
X1003300D02*
D03*
X876300D02*
D03*
X749300D02*
D03*
X622300D02*
D03*
X495300D02*
D03*
X368300D02*
D03*
D98*
X1170399Y2927101D02*
D03*
X1170940Y2738120D02*
D03*
X1420401Y2832100D02*
D03*
X752988D02*
D03*
X1002449Y2926080D02*
D03*
X1002990Y2737099D02*
D03*
D99*
X622300Y420400D02*
D03*
Y900400D02*
D03*
Y340400D02*
D03*
Y980400D02*
D03*
D100*
Y485400D02*
D03*
Y535400D02*
D03*
Y585400D02*
D03*
Y635400D02*
D03*
Y835400D02*
D03*
Y785400D02*
D03*
Y735400D02*
D03*
Y685400D02*
D03*
D101*
X1557540Y274320D02*
D03*
X1089660Y269240D02*
D03*
X5021060Y552968D02*
D03*
X5488940Y558048D02*
D03*
D102*
X4061483Y546102D02*
D03*
X4701482D02*
D03*
X8359082Y6019802D02*
D03*
X7719083D02*
D03*
D103*
X1132100Y6172200D02*
D03*
Y6045200D02*
D03*
Y5918200D02*
D03*
Y5791200D02*
D03*
Y5664200D02*
D03*
Y5537200D02*
D03*
Y5410200D02*
D03*
Y5283200D02*
D03*
Y5156200D02*
D03*
Y5029200D02*
D03*
Y4902200D02*
D03*
Y4775200D02*
D03*
Y4648200D02*
D03*
Y4521200D02*
D03*
X2832100D02*
D03*
Y4648200D02*
D03*
Y4775200D02*
D03*
Y4902200D02*
D03*
Y5029200D02*
D03*
Y5156200D02*
D03*
Y5283200D02*
D03*
Y5410200D02*
D03*
Y5537200D02*
D03*
Y5664200D02*
D03*
Y5791200D02*
D03*
Y5918200D02*
D03*
Y6045200D02*
D03*
Y6172200D02*
D03*
D104*
X1410600Y4421200D02*
D03*
X1537600D02*
D03*
X1664600D02*
D03*
X1791600D02*
D03*
X1918600D02*
D03*
X2045600D02*
D03*
X2172600D02*
D03*
X2299600D02*
D03*
X2426600D02*
D03*
X2553600D02*
D03*
D105*
X1698600Y5605700D02*
D03*
X1882100D02*
D03*
X2065600D02*
D03*
X1698600Y5422200D02*
D03*
X1882100D02*
D03*
X2065600D02*
D03*
X1698600Y5238700D02*
D03*
X1882100D02*
D03*
X2065600D02*
D03*
D106*
X6337300Y571498D02*
D03*
X5883718Y571496D02*
D03*
D107*
X7962900Y3822700D02*
D03*
D108*
X7658100D02*
D03*
D109*
X4392600Y1469101D02*
D03*
X4342600D02*
D03*
X4292600D02*
D03*
X4242600D02*
D03*
X4192600D02*
D03*
Y1039101D02*
D03*
X4242600D02*
D03*
X4292600D02*
D03*
X4342600D02*
D03*
X4392600D02*
D03*
D110*
X3810000Y3238100D02*
D03*
Y3746900D02*
D03*
D111*
X4399260Y4018280D02*
D03*
X4099580D02*
D03*
X8108970Y3040380D02*
D03*
X8408650D02*
D03*
X8108970Y3319780D02*
D03*
X8408650D02*
D03*
D112*
X4559316Y3434064D02*
D03*
D113*
X4368800Y3187700D02*
D03*
X4495800D02*
D03*
X4622800D02*
D03*
X4749800D02*
D03*
Y3680460D02*
D03*
X4622800D02*
D03*
X4495800D02*
D03*
X4368800D02*
D03*
D114*
X3759200Y2903500D02*
D03*
Y2303500D02*
D03*
D115*
X2984501Y1460500D02*
D03*
X2984500Y762000D02*
D03*
D116*
X2374900Y2108200D02*
D03*
X3073400Y2108199D02*
D03*
D117*
X2516000Y967300D02*
D03*
X2286000D02*
D03*
X2056000D02*
D03*
D118*
X2286000Y1547300D02*
D03*
D119*
X3378200Y889008D02*
D03*
Y736608D02*
D03*
D120*
X6515092Y1422396D02*
D03*
Y1092196D02*
D03*
X6819892Y1422396D02*
D03*
Y1092196D02*
D03*
X6210308Y1422404D02*
D03*
Y1092204D02*
D03*
D121*
X7269340Y4319300D02*
D03*
X7369340D02*
D03*
X7469340D02*
D03*
X7569340D02*
D03*
X7269340Y4898340D02*
D03*
X7369340D02*
D03*
X7469340D02*
D03*
X7569340D02*
D03*
D122*
X7708900Y4759300D02*
D03*
Y4659300D02*
D03*
Y4559300D02*
D03*
Y4459300D02*
D03*
X7130340Y4459300D02*
D03*
Y4559300D02*
D03*
Y4659300D02*
D03*
Y4759300D02*
D03*
D123*
X7419352Y4609288D02*
D03*
D124*
X7513100Y2171700D02*
D03*
X6533100D02*
D03*
D125*
X7670800Y5499100D02*
D03*
Y5270500D02*
D03*
X7886700Y5499100D02*
D03*
Y5270500D02*
D03*
D126*
X6045202Y2364717D02*
D03*
Y1724718D02*
D03*
D127*
X5245100Y4533900D02*
D03*
X4991100D02*
D03*
X5245100Y4787900D02*
D03*
X4991100D02*
D03*
X5245100Y5041900D02*
D03*
X5232400Y6019800D02*
D03*
X4978400Y5765800D02*
D03*
X5232400D02*
D03*
X3403600Y152400D02*
D03*
X3657600D02*
D03*
X3911600D02*
D03*
X4165600D02*
D03*
X4419600D02*
D03*
X4673600D02*
D03*
X4927600D02*
D03*
X419100Y3086100D02*
D03*
X165100D02*
D03*
X419100Y3340100D02*
D03*
X165100D02*
D03*
X419100Y3594100D02*
D03*
X165100D02*
D03*
X419100Y3848100D02*
D03*
X165100D02*
D03*
X419100Y4102100D02*
D03*
X165100D02*
D03*
X419100Y4356100D02*
D03*
X165100D02*
D03*
X419100Y4610100D02*
D03*
X165100D02*
D03*
X419100Y4864100D02*
D03*
X165100D02*
D03*
X419100Y5118100D02*
D03*
X165100D02*
D03*
X419100Y5372100D02*
D03*
X165100D02*
D03*
X419100Y5626100D02*
D03*
X165100D02*
D03*
X419100Y5880100D02*
D03*
X9258300Y3797300D02*
D03*
Y3543300D02*
D03*
D128*
X4991100Y5041900D02*
D03*
X4978400Y6019800D02*
D03*
X165100Y5880100D02*
D03*
X9258300Y3289300D02*
D03*
D129*
X3149600Y152400D02*
D03*
D130*
X558300Y228400D02*
D03*
Y1092400D02*
D03*
D131*
X140300Y228400D02*
D03*
Y1092400D02*
D03*
D132*
X508300Y371400D02*
D03*
Y949400D02*
D03*
D133*
X7175500Y381000D02*
D03*
X6324600Y6007100D02*
D03*
X9055100Y381000D02*
D03*
Y6007100D02*
D03*
D134*
X1790350Y5605700D02*
D03*
X1973850D02*
D03*
X1698600Y5513950D02*
D03*
X1882100D02*
D03*
X2065600D02*
D03*
X1790350Y5422200D02*
D03*
X1973850D02*
D03*
X1698600Y5330450D02*
D03*
X1882100D02*
D03*
X2065600D02*
D03*
X1790350Y5238700D02*
D03*
X1973850D02*
D03*
D135*
X1117600Y3530600D02*
D03*
X1816100Y4127500D02*
D03*
Y4864100D02*
D03*
X5486400Y4089400D02*
D03*
X5194300Y3048000D02*
D03*
X7797800Y4762500D02*
D03*
X1066800Y4381500D02*
D03*
X3022600Y4495800D02*
D03*
X3009900Y4381500D02*
D03*
X4140200Y2692400D02*
D03*
X9271000Y4432300D02*
D03*
X8432800Y4749800D02*
D03*
X9017000Y2260600D02*
D03*
X8763000Y5359400D02*
D03*
X8559800Y4495800D02*
D03*
X5905500Y5346700D02*
D03*
X6248400Y4597400D02*
D03*
X6908800Y3848100D02*
D03*
X4711700Y2336800D02*
D03*
X3479800Y5841098D02*
D03*
X850900Y5803900D02*
D03*
X2514600Y3860800D02*
D03*
X1930400Y3048000D02*
D03*
X1524000D02*
D03*
X3175000Y2870200D02*
D03*
X3073400Y2768600D02*
D03*
X4419600Y5791200D02*
D03*
Y5588000D02*
D03*
Y5308600D02*
D03*
Y4800600D02*
D03*
Y5003800D02*
D03*
X3530600Y4495800D02*
D03*
Y4749800D02*
D03*
X279400Y2235200D02*
D03*
X736600Y1524000D02*
D03*
X3708400Y5283200D02*
D03*
X2552700Y4533900D02*
D03*
X1905000Y4775200D02*
D03*
Y4216400D02*
D03*
X2209800Y4749800D02*
D03*
X2108200Y4648200D02*
D03*
X2006600Y4216400D02*
D03*
Y4648200D02*
D03*
X2209800Y3200400D02*
D03*
X2108200D02*
D03*
X1905000Y3276600D02*
D03*
X2006600Y3352800D02*
D03*
X3937000Y1219200D02*
D03*
X4165600Y850900D02*
D03*
X4521200Y939800D02*
D03*
X2362200Y6273800D02*
D03*
Y6146800D02*
D03*
X2540000Y6273800D02*
D03*
X2538730Y6146804D02*
D03*
X1346200Y6273800D02*
D03*
Y6146800D02*
D03*
X1524000Y6273800D02*
D03*
X1522730Y6146804D02*
D03*
X7962900Y3949700D02*
D03*
X760730Y6146804D02*
D03*
X762000Y6273800D02*
D03*
X584200Y6146800D02*
D03*
Y6273800D02*
D03*
X4038600Y1320800D02*
D03*
X7505700Y4711700D02*
D03*
X6769500Y3949300D02*
D03*
X7327900Y4508500D02*
D03*
Y4711700D02*
D03*
X7353300Y4610100D02*
D03*
X7404100Y4533900D02*
D03*
Y4686300D02*
D03*
X7454900Y4610100D02*
D03*
X6667500Y2730500D02*
D03*
X7505700Y4508500D02*
D03*
X7531100Y3492500D02*
D03*
D136*
X5067300Y3695700D02*
D03*
X7213600Y5689600D02*
D03*
X152400Y1384300D02*
D03*
X1371600Y711200D02*
D03*
X1562100Y889000D02*
D03*
X1790700D02*
D03*
X2908300Y1727200D02*
D03*
X3098800D02*
D03*
X3822700Y4013200D02*
D03*
X6705600Y3657600D02*
D03*
X6540500Y3873500D02*
D03*
X3251200Y2641600D02*
D03*
X6654800Y1041400D02*
D03*
X6362700Y1054100D02*
D03*
X4876800Y3441700D02*
D03*
X5016500Y3924300D02*
D03*
X4711700Y2565400D02*
D03*
X5080000Y1282700D02*
D03*
X1320800Y4165600D02*
D03*
X1079500D02*
D03*
X3835400Y1447800D02*
D03*
X1803400Y1701800D02*
D03*
X6553200Y3327400D02*
D03*
X7988300Y2933700D02*
D03*
X6553200Y3124200D02*
D03*
Y2921000D02*
D03*
X7759700Y3340100D02*
D03*
Y3136900D02*
D03*
Y2933700D02*
D03*
X7988300Y3340100D02*
D03*
Y3136900D02*
D03*
%TF.MD5,2a1967d392c37aed29a4edf5e5c6072c*%
M02*
