%TF.GenerationSoftware,Altium Limited,Altium Designer,25.4.2 (15)*%
G04 Layer_Color=16711935*
%FSLAX45Y45*%
%MOMM*%
%TF.SameCoordinates,7508AFC3-388F-4AFD-A3EF-C4AAA8C78AF0*%
%TF.FilePolarity,Negative*%
%TF.FileFunction,Soldermask,Bot*%
%TF.Part,Single*%
G01*
G75*
%TA.AperFunction,ComponentPad*%
%ADD127C,1.70320*%
%ADD128R,1.70320X1.70320*%
%ADD129R,1.70320X1.70320*%
%ADD130O,2.30320X1.25320*%
%ADD131O,1.80320X1.00320*%
%ADD132C,0.85320*%
%ADD133C,6.55320*%
%ADD134C,0.70320*%
%TA.AperFunction,ViaPad*%
%ADD135C,0.81280*%
%ADD136C,1.47320*%
D127*
X5245100Y4533900D02*
D03*
X4991100D02*
D03*
X5245100Y4787900D02*
D03*
X4991100D02*
D03*
X5245100Y5041900D02*
D03*
X5232400Y6019800D02*
D03*
X4978400Y5765800D02*
D03*
X5232400D02*
D03*
X3403600Y152400D02*
D03*
X3657600D02*
D03*
X3911600D02*
D03*
X4165600D02*
D03*
X4419600D02*
D03*
X4673600D02*
D03*
X4927600D02*
D03*
X419100Y3086100D02*
D03*
X165100D02*
D03*
X419100Y3340100D02*
D03*
X165100D02*
D03*
X419100Y3594100D02*
D03*
X165100D02*
D03*
X419100Y3848100D02*
D03*
X165100D02*
D03*
X419100Y4102100D02*
D03*
X165100D02*
D03*
X419100Y4356100D02*
D03*
X165100D02*
D03*
X419100Y4610100D02*
D03*
X165100D02*
D03*
X419100Y4864100D02*
D03*
X165100D02*
D03*
X419100Y5118100D02*
D03*
X165100D02*
D03*
X419100Y5372100D02*
D03*
X165100D02*
D03*
X419100Y5626100D02*
D03*
X165100D02*
D03*
X419100Y5880100D02*
D03*
X9258300Y3797300D02*
D03*
Y3543300D02*
D03*
D128*
X4991100Y5041900D02*
D03*
X4978400Y6019800D02*
D03*
X165100Y5880100D02*
D03*
X9258300Y3289300D02*
D03*
D129*
X3149600Y152400D02*
D03*
D130*
X558300Y228400D02*
D03*
Y1092400D02*
D03*
D131*
X140300Y228400D02*
D03*
Y1092400D02*
D03*
D132*
X508300Y371400D02*
D03*
Y949400D02*
D03*
D133*
X7175500Y381000D02*
D03*
X6324600Y6007100D02*
D03*
X9055100Y381000D02*
D03*
Y6007100D02*
D03*
D134*
X1790350Y5605700D02*
D03*
X1973850D02*
D03*
X1698600Y5513950D02*
D03*
X1882100D02*
D03*
X2065600D02*
D03*
X1790350Y5422200D02*
D03*
X1973850D02*
D03*
X1698600Y5330450D02*
D03*
X1882100D02*
D03*
X2065600D02*
D03*
X1790350Y5238700D02*
D03*
X1973850D02*
D03*
D135*
X1117600Y3530600D02*
D03*
X1816100Y4127500D02*
D03*
Y4864100D02*
D03*
X5486400Y4089400D02*
D03*
X5194300Y3048000D02*
D03*
X7797800Y4762500D02*
D03*
X1066800Y4381500D02*
D03*
X3022600Y4495800D02*
D03*
X3009900Y4381500D02*
D03*
X4140200Y2692400D02*
D03*
X9271000Y4432300D02*
D03*
X8432800Y4749800D02*
D03*
X9017000Y2260600D02*
D03*
X8763000Y5359400D02*
D03*
X8559800Y4495800D02*
D03*
X5905500Y5346700D02*
D03*
X6248400Y4597400D02*
D03*
X6908800Y3848100D02*
D03*
X4711700Y2336800D02*
D03*
X3479800Y5841098D02*
D03*
X850900Y5803900D02*
D03*
X2514600Y3860800D02*
D03*
X1930400Y3048000D02*
D03*
X1524000D02*
D03*
X3175000Y2870200D02*
D03*
X3073400Y2768600D02*
D03*
X4419600Y5791200D02*
D03*
Y5588000D02*
D03*
Y5308600D02*
D03*
Y4800600D02*
D03*
Y5003800D02*
D03*
X3530600Y4495800D02*
D03*
Y4749800D02*
D03*
X279400Y2235200D02*
D03*
X736600Y1524000D02*
D03*
X3708400Y5283200D02*
D03*
X2552700Y4533900D02*
D03*
X1905000Y4775200D02*
D03*
Y4216400D02*
D03*
X2209800Y4749800D02*
D03*
X2108200Y4648200D02*
D03*
X2006600Y4216400D02*
D03*
Y4648200D02*
D03*
X2209800Y3200400D02*
D03*
X2108200D02*
D03*
X1905000Y3276600D02*
D03*
X2006600Y3352800D02*
D03*
X3937000Y1219200D02*
D03*
X4165600Y850900D02*
D03*
X4521200Y939800D02*
D03*
X2362200Y6273800D02*
D03*
Y6146800D02*
D03*
X2540000Y6273800D02*
D03*
X2538730Y6146804D02*
D03*
X1346200Y6273800D02*
D03*
Y6146800D02*
D03*
X1524000Y6273800D02*
D03*
X1522730Y6146804D02*
D03*
X7962900Y3949700D02*
D03*
X760730Y6146804D02*
D03*
X762000Y6273800D02*
D03*
X584200Y6146800D02*
D03*
Y6273800D02*
D03*
X4038600Y1320800D02*
D03*
X7505700Y4711700D02*
D03*
X6769500Y3949300D02*
D03*
X7327900Y4508500D02*
D03*
Y4711700D02*
D03*
X7353300Y4610100D02*
D03*
X7404100Y4533900D02*
D03*
Y4686300D02*
D03*
X7454900Y4610100D02*
D03*
X6667500Y2730500D02*
D03*
X7505700Y4508500D02*
D03*
X7531100Y3492500D02*
D03*
D136*
X5067300Y3695700D02*
D03*
X7213600Y5689600D02*
D03*
X152400Y1384300D02*
D03*
X1371600Y711200D02*
D03*
X1562100Y889000D02*
D03*
X1790700D02*
D03*
X2908300Y1727200D02*
D03*
X3098800D02*
D03*
X3822700Y4013200D02*
D03*
X6705600Y3657600D02*
D03*
X6540500Y3873500D02*
D03*
X3251200Y2641600D02*
D03*
X6654800Y1041400D02*
D03*
X6362700Y1054100D02*
D03*
X4876800Y3441700D02*
D03*
X5016500Y3924300D02*
D03*
X4711700Y2565400D02*
D03*
X5080000Y1282700D02*
D03*
X1320800Y4165600D02*
D03*
X1079500D02*
D03*
X3835400Y1447800D02*
D03*
X1803400Y1701800D02*
D03*
X6553200Y3327400D02*
D03*
X7988300Y2933700D02*
D03*
X6553200Y3124200D02*
D03*
Y2921000D02*
D03*
X7759700Y3340100D02*
D03*
Y3136900D02*
D03*
Y2933700D02*
D03*
X7988300Y3340100D02*
D03*
Y3136900D02*
D03*
%TF.MD5,bfb9ec9ab784f151eef431a3e47e6b3a*%
M02*
