%TF.GenerationSoftware,Altium Limited,Altium Designer,25.4.2 (15)*%
G04 Layer_Color=32896*
%FSLAX45Y45*%
%MOMM*%
%TF.SameCoordinates,7508AFC3-388F-4AFD-A3EF-C4AAA8C78AF0*%
%TF.FilePolarity,Positive*%
%TF.FileFunction,Legend,Bot*%
%TF.Part,Single*%
G01*
G75*
%TA.AperFunction,NonConductor*%
%ADD76C,0.12700*%
%ADD81C,0.30480*%
D76*
X279400Y3721100D02*
Y3975100D01*
Y3721100D02*
X533400D01*
Y3975100D01*
X279400D02*
X533400D01*
D81*
X826270Y3624551D02*
Y3535680D01*
X767023D01*
X678151Y3624551D02*
X737399D01*
Y3535680D01*
X678151D01*
X737399Y3580116D02*
X707775D01*
X648528Y3624551D02*
Y3535680D01*
X604092D01*
X589280Y3550492D01*
Y3609739D01*
X604092Y3624551D01*
X648528D01*
X826270Y3789680D02*
Y3848928D01*
X796646Y3878551D01*
X767023Y3848928D01*
Y3789680D01*
Y3834116D01*
X826270D01*
X737399Y3878551D02*
Y3789680D01*
X692963D01*
X678151Y3804492D01*
Y3863739D01*
X692963Y3878551D01*
X737399D01*
X589280Y3863739D02*
X604092Y3878551D01*
X633716D01*
X648528Y3863739D01*
Y3804492D01*
X633716Y3789680D01*
X604092D01*
X589280Y3804492D01*
%TF.MD5,50589930d2e722ca8b63ab6ba50dccea*%
M02*
