%TF.GenerationSoftware,Altium Limited,Altium Designer,25.4.2 (15)*%
G04 Layer_Color=8421504*
%FSLAX45Y45*%
%MOMM*%
%TF.SameCoordinates,7508AFC3-388F-4AFD-A3EF-C4AAA8C78AF0*%
%TF.FilePolarity,Positive*%
%TF.FileFunction,Paste,Top*%
%TF.Part,Single*%
G01*
G75*
%TA.AperFunction,SMDPad,CuDef*%
%ADD13C,0.88900*%
%ADD14R,0.65000X0.50000*%
%ADD15R,0.55000X0.50000*%
%ADD16R,4.12000X4.60000*%
%ADD17R,0.60000X2.20000*%
%ADD18R,2.00000X2.00000*%
%ADD19R,2.00000X2.00000*%
%ADD20R,1.39700X1.00000*%
%ADD21R,1.27000X1.39700*%
%ADD22R,1.00000X1.39700*%
%ADD23C,1.27000*%
%ADD24R,4.60000X4.12000*%
%ADD25R,0.50000X0.55000*%
%ADD26R,0.50000X0.65000*%
%ADD27R,0.60000X1.20000*%
%ADD28R,1.20000X0.85000*%
%TA.AperFunction,ConnectorPad*%
%ADD29R,1.30000X0.60000*%
%ADD30R,1.30000X0.30000*%
%TA.AperFunction,SMDPad,CuDef*%
%ADD31R,2.16000X2.40000*%
%ADD32R,1.80000X3.30000*%
%TA.AperFunction,ConnectorPad*%
%ADD33R,2.00000X0.90000*%
%ADD34R,0.90000X2.00000*%
%TA.AperFunction,BGAPad,CuDef*%
%ADD35R,1.33000X1.33000*%
%TA.AperFunction,SMDPad,CuDef*%
%ADD36R,1.50000X3.30000*%
%ADD37R,0.90000X1.20000*%
%ADD38R,0.90000X1.20000*%
G04:AMPARAMS|DCode=39|XSize=1.47mm|YSize=0.28mm|CornerRadius=0.035mm|HoleSize=0mm|Usage=FLASHONLY|Rotation=270.000|XOffset=0mm|YOffset=0mm|HoleType=Round|Shape=RoundedRectangle|*
%AMROUNDEDRECTD39*
21,1,1.47000,0.21000,0,0,270.0*
21,1,1.40000,0.28000,0,0,270.0*
1,1,0.07000,-0.10500,-0.70000*
1,1,0.07000,-0.10500,0.70000*
1,1,0.07000,0.10500,0.70000*
1,1,0.07000,0.10500,-0.70000*
%
%ADD39ROUNDEDRECTD39*%
%ADD40R,1.70000X2.00000*%
G04:AMPARAMS|DCode=41|XSize=1.524mm|YSize=1.778mm|CornerRadius=0.381mm|HoleSize=0mm|Usage=FLASHONLY|Rotation=0.000|XOffset=0mm|YOffset=0mm|HoleType=Round|Shape=RoundedRectangle|*
%AMROUNDEDRECTD41*
21,1,1.52400,1.01600,0,0,0.0*
21,1,0.76200,1.77800,0,0,0.0*
1,1,0.76200,0.38100,-0.50800*
1,1,0.76200,-0.38100,-0.50800*
1,1,0.76200,-0.38100,0.50800*
1,1,0.76200,0.38100,0.50800*
%
%ADD41ROUNDEDRECTD41*%
%ADD42R,2.54000X1.62560*%
%ADD43R,0.55880X1.98120*%
%ADD44R,1.70000X2.00000*%
G04:AMPARAMS|DCode=45|XSize=2.5mm|YSize=4.3mm|CornerRadius=0.625mm|HoleSize=0mm|Usage=FLASHONLY|Rotation=90.000|XOffset=0mm|YOffset=0mm|HoleType=Round|Shape=RoundedRectangle|*
%AMROUNDEDRECTD45*
21,1,2.50000,3.05000,0,0,90.0*
21,1,1.25000,4.30000,0,0,90.0*
1,1,1.25000,1.52500,0.62500*
1,1,1.25000,1.52500,-0.62500*
1,1,1.25000,-1.52500,-0.62500*
1,1,1.25000,-1.52500,0.62500*
%
%ADD45ROUNDEDRECTD45*%
G04:AMPARAMS|DCode=46|XSize=2.5mm|YSize=4.3mm|CornerRadius=0.625mm|HoleSize=0mm|Usage=FLASHONLY|Rotation=0.000|XOffset=0mm|YOffset=0mm|HoleType=Round|Shape=RoundedRectangle|*
%AMROUNDEDRECTD46*
21,1,2.50000,3.05000,0,0,0.0*
21,1,1.25000,4.30000,0,0,0.0*
1,1,1.25000,0.62500,-1.52500*
1,1,1.25000,-0.62500,-1.52500*
1,1,1.25000,-0.62500,1.52500*
1,1,1.25000,0.62500,1.52500*
%
%ADD46ROUNDEDRECTD46*%
%ADD47R,1.00000X2.40000*%
%ADD48R,3.30000X2.40000*%
%ADD49R,1.01600X0.76200*%
%ADD50R,1.65100X1.01600*%
%ADD51R,0.50000X0.85000*%
%ADD52R,0.85000X0.50000*%
G04:AMPARAMS|DCode=53|XSize=3.048mm|YSize=3.048mm|CornerRadius=0.762mm|HoleSize=0mm|Usage=FLASHONLY|Rotation=90.000|XOffset=0mm|YOffset=0mm|HoleType=Round|Shape=RoundedRectangle|*
%AMROUNDEDRECTD53*
21,1,3.04800,1.52400,0,0,90.0*
21,1,1.52400,3.04800,0,0,90.0*
1,1,1.52400,0.76200,0.76200*
1,1,1.52400,0.76200,-0.76200*
1,1,1.52400,-0.76200,-0.76200*
1,1,1.52400,-0.76200,0.76200*
%
%ADD53ROUNDEDRECTD53*%
%ADD54R,3.00000X5.40000*%
%ADD55R,1.39700X1.27000*%
%ADD56R,3.30000X1.80000*%
D13*
X7581900Y3606800D02*
D03*
X7772400Y4102100D02*
D03*
X7086600Y4114800D02*
D03*
X7442200Y5689600D02*
D03*
X8204200Y2019300D02*
D03*
X8051800Y4622800D02*
D03*
X6985000Y4851400D02*
D03*
X6273800Y4368800D02*
D03*
X5558686Y1418486D02*
D03*
D14*
X6743700Y3314700D02*
D03*
Y3187700D02*
D03*
Y3060700D02*
D03*
Y2933700D02*
D03*
D15*
X7298200Y3187700D02*
D03*
Y3060700D02*
D03*
Y2933700D02*
D03*
Y3314700D02*
D03*
D16*
X7064700Y3124200D02*
D03*
D17*
X9271000Y5391000D02*
D03*
X9144000D02*
D03*
X9017000D02*
D03*
X8890000D02*
D03*
X9271000Y4896000D02*
D03*
X9144000D02*
D03*
X9017000D02*
D03*
X8890000D02*
D03*
D18*
X1320800Y3699800D02*
D03*
X3844000Y4800600D02*
D03*
Y5791200D02*
D03*
D19*
X1320800Y3259800D02*
D03*
X4284000Y4800600D02*
D03*
Y5791200D02*
D03*
D20*
X1905000Y3721096D02*
D03*
Y3492496D02*
D03*
X2413000D02*
D03*
Y3721096D02*
D03*
X1638300Y3492496D02*
D03*
Y3721096D02*
D03*
Y3073396D02*
D03*
Y3301996D02*
D03*
X2667000Y3721096D02*
D03*
Y3492496D02*
D03*
X850900Y6172204D02*
D03*
Y5943604D02*
D03*
X2159000Y2857504D02*
D03*
Y3086104D02*
D03*
X2413000Y2857504D02*
D03*
Y3086104D02*
D03*
X5905500Y5257804D02*
D03*
Y5029204D02*
D03*
X2159000Y3492496D02*
D03*
Y3721096D02*
D03*
X5054600Y2895596D02*
D03*
Y2666996D02*
D03*
X4025900Y850896D02*
D03*
Y1079496D02*
D03*
X5057140Y1943104D02*
D03*
Y1714504D02*
D03*
X4597400Y1943104D02*
D03*
Y1714504D02*
D03*
X4826000D02*
D03*
Y1943104D02*
D03*
X5054600Y3403596D02*
D03*
Y3174996D02*
D03*
X5283200Y3403596D02*
D03*
Y3174996D02*
D03*
X4140200Y3327404D02*
D03*
Y3556004D02*
D03*
X4599940Y2667004D02*
D03*
Y2895604D02*
D03*
X4368800Y2895596D02*
D03*
Y2666996D02*
D03*
X4826000Y2895596D02*
D03*
Y2666996D02*
D03*
X1790700Y1295396D02*
D03*
Y1066796D02*
D03*
X1562100Y1066804D02*
D03*
Y1295404D02*
D03*
X6794500Y4622804D02*
D03*
Y4851404D02*
D03*
X6807200Y4432304D02*
D03*
Y4203704D02*
D03*
X6591300Y5029196D02*
D03*
Y5257796D02*
D03*
X6362700Y5257804D02*
D03*
Y5029204D02*
D03*
X6134100Y5257796D02*
D03*
Y5029196D02*
D03*
X9271000Y4330696D02*
D03*
Y4102096D02*
D03*
X3352800Y5943604D02*
D03*
Y6172204D02*
D03*
X3098800Y5943604D02*
D03*
Y6172204D02*
D03*
D21*
X977900Y3683000D02*
D03*
X749300D02*
D03*
X1536700Y1511300D02*
D03*
X1765300D02*
D03*
D22*
X977896Y3479800D02*
D03*
X749296D02*
D03*
X8458196Y4864100D02*
D03*
X8229596D02*
D03*
X8229604Y5092700D02*
D03*
X8458204D02*
D03*
X3225796Y4892040D02*
D03*
X3454396D02*
D03*
X4152904Y5156200D02*
D03*
X4381504D02*
D03*
X3962396D02*
D03*
X3733796D02*
D03*
X4152904Y5448300D02*
D03*
X4381504D02*
D03*
X3962396D02*
D03*
X3733796D02*
D03*
X981282Y2527300D02*
D03*
X752682D02*
D03*
X981282Y3136900D02*
D03*
X752682D02*
D03*
X647704Y1320800D02*
D03*
X419104D02*
D03*
X1473196Y596900D02*
D03*
X1701796D02*
D03*
X1041396D02*
D03*
X1269996D02*
D03*
X7442196Y5473700D02*
D03*
X7213596D02*
D03*
X7442196Y5245100D02*
D03*
X7213596D02*
D03*
X4813296Y1397000D02*
D03*
X5041896D02*
D03*
X4813296Y1158240D02*
D03*
X5041896D02*
D03*
X4838696Y3949700D02*
D03*
X4610096D02*
D03*
X4343404Y2451100D02*
D03*
X4572004D02*
D03*
X4813304D02*
D03*
X5041904D02*
D03*
X2565396Y673100D02*
D03*
X2336796D02*
D03*
X3454396Y4384040D02*
D03*
X3225796D02*
D03*
X3225804Y4635500D02*
D03*
X3454404D02*
D03*
X8458196D02*
D03*
X8229596D02*
D03*
X8229604Y4406900D02*
D03*
X8458204D02*
D03*
X8458196Y4178300D02*
D03*
X8229596D02*
D03*
X6375396Y4610100D02*
D03*
X6603996D02*
D03*
X8458196Y3721100D02*
D03*
X8229596D02*
D03*
X8229604Y3949700D02*
D03*
X8458204D02*
D03*
X7365996Y4102100D02*
D03*
X7594596D02*
D03*
X7899396Y5702300D02*
D03*
X7670796D02*
D03*
X7442196Y5930900D02*
D03*
X7213596D02*
D03*
X6781796Y5245100D02*
D03*
X7010396D02*
D03*
X6375396Y4838700D02*
D03*
X6603996D02*
D03*
D23*
X2565400Y355600D02*
D03*
X5499100Y4229100D02*
D03*
X8991600Y1206500D02*
D03*
X1968500Y1917700D02*
D03*
D24*
X8648700Y2552700D02*
D03*
D25*
X8458200Y2786200D02*
D03*
X8839200D02*
D03*
X8712200D02*
D03*
X8585200D02*
D03*
D26*
X8839200Y2231700D02*
D03*
X8712200D02*
D03*
X8585200D02*
D03*
X8458200D02*
D03*
D27*
X368300Y2261200D02*
D03*
X495300D02*
D03*
X622300D02*
D03*
X749300D02*
D03*
X876300D02*
D03*
X1003300D02*
D03*
X1130300D02*
D03*
X1257300D02*
D03*
Y1701200D02*
D03*
X1130300D02*
D03*
X1003300D02*
D03*
X876300D02*
D03*
X749300D02*
D03*
X622300D02*
D03*
X495300D02*
D03*
X368300D02*
D03*
D28*
X1170399Y2927101D02*
D03*
X1170940Y2738120D02*
D03*
X1420401Y2832100D02*
D03*
X752988D02*
D03*
X1002449Y2926080D02*
D03*
X1002990Y2737099D02*
D03*
D29*
X622300Y420400D02*
D03*
Y900400D02*
D03*
Y340400D02*
D03*
Y980400D02*
D03*
D30*
Y485400D02*
D03*
Y535400D02*
D03*
Y585400D02*
D03*
Y635400D02*
D03*
Y835400D02*
D03*
Y785400D02*
D03*
Y735400D02*
D03*
Y685400D02*
D03*
D31*
X1557540Y274320D02*
D03*
X1089660Y269240D02*
D03*
X5021060Y552968D02*
D03*
X5488940Y558048D02*
D03*
D32*
X4061483Y546102D02*
D03*
X4701482D02*
D03*
X8359082Y6019802D02*
D03*
X7719083D02*
D03*
D33*
X1132100Y6172200D02*
D03*
Y6045200D02*
D03*
Y5918200D02*
D03*
Y5791200D02*
D03*
Y5664200D02*
D03*
Y5537200D02*
D03*
Y5410200D02*
D03*
Y5283200D02*
D03*
Y5156200D02*
D03*
Y5029200D02*
D03*
Y4902200D02*
D03*
Y4775200D02*
D03*
Y4648200D02*
D03*
Y4521200D02*
D03*
X2832100D02*
D03*
Y4648200D02*
D03*
Y4775200D02*
D03*
Y4902200D02*
D03*
Y5029200D02*
D03*
Y5156200D02*
D03*
Y5283200D02*
D03*
Y5410200D02*
D03*
Y5537200D02*
D03*
Y5664200D02*
D03*
Y5791200D02*
D03*
Y5918200D02*
D03*
Y6045200D02*
D03*
Y6172200D02*
D03*
D34*
X1410600Y4421200D02*
D03*
X1537600D02*
D03*
X1664600D02*
D03*
X1791600D02*
D03*
X1918600D02*
D03*
X2045600D02*
D03*
X2172600D02*
D03*
X2299600D02*
D03*
X2426600D02*
D03*
X2553600D02*
D03*
D35*
X1698600Y5605700D02*
D03*
X1882100D02*
D03*
X2065600D02*
D03*
X1698600Y5422200D02*
D03*
X1882100D02*
D03*
X2065600D02*
D03*
X1698600Y5238700D02*
D03*
X1882100D02*
D03*
X2065600D02*
D03*
D36*
X6337300Y571498D02*
D03*
X5883718Y571496D02*
D03*
D37*
X7962900Y3822700D02*
D03*
D38*
X7658100D02*
D03*
D39*
X4392600Y1469101D02*
D03*
X4342600D02*
D03*
X4292600D02*
D03*
X4242600D02*
D03*
X4192600D02*
D03*
Y1039101D02*
D03*
X4242600D02*
D03*
X4292600D02*
D03*
X4342600D02*
D03*
X4392600D02*
D03*
D40*
X3810000Y3238100D02*
D03*
Y3746900D02*
D03*
D41*
X4399260Y4018280D02*
D03*
X4099580D02*
D03*
X8108970Y3040380D02*
D03*
X8408650D02*
D03*
X8108970Y3319780D02*
D03*
X8408650D02*
D03*
D42*
X4559316Y3434064D02*
D03*
D43*
X4368800Y3187700D02*
D03*
X4495800D02*
D03*
X4622800D02*
D03*
X4749800D02*
D03*
Y3680460D02*
D03*
X4622800D02*
D03*
X4495800D02*
D03*
X4368800D02*
D03*
D44*
X3759200Y2903500D02*
D03*
Y2303500D02*
D03*
D45*
X2984501Y1460500D02*
D03*
X2984500Y762000D02*
D03*
D46*
X2374900Y2108200D02*
D03*
X3073400Y2108199D02*
D03*
D47*
X2516000Y967300D02*
D03*
X2286000D02*
D03*
X2056000D02*
D03*
D48*
X2286000Y1547300D02*
D03*
D49*
X3378200Y889008D02*
D03*
Y736608D02*
D03*
D50*
X6515092Y1422396D02*
D03*
Y1092196D02*
D03*
X6819892Y1422396D02*
D03*
Y1092196D02*
D03*
X6210308Y1422404D02*
D03*
Y1092204D02*
D03*
D51*
X7269340Y4319300D02*
D03*
X7369340D02*
D03*
X7469340D02*
D03*
X7569340D02*
D03*
X7269340Y4898340D02*
D03*
X7369340D02*
D03*
X7469340D02*
D03*
X7569340D02*
D03*
D52*
X7708900Y4759300D02*
D03*
Y4659300D02*
D03*
Y4559300D02*
D03*
Y4459300D02*
D03*
X7130340Y4459300D02*
D03*
Y4559300D02*
D03*
Y4659300D02*
D03*
Y4759300D02*
D03*
D53*
X7419352Y4609288D02*
D03*
D54*
X7513100Y2171700D02*
D03*
X6533100D02*
D03*
D55*
X7670800Y5499100D02*
D03*
Y5270500D02*
D03*
X7886700Y5499100D02*
D03*
Y5270500D02*
D03*
D56*
X6045202Y2364717D02*
D03*
Y1724718D02*
D03*
%TF.MD5,c81b30c5f2148ebeaddba4564e4dd79b*%
M02*
