%TF.GenerationSoftware,Altium Limited,Altium Designer,25.4.2 (15)*%
G04 Layer_Color=65535*
%FSLAX45Y45*%
%MOMM*%
%TF.SameCoordinates,7508AFC3-388F-4AFD-A3EF-C4AAA8C78AF0*%
%TF.FilePolarity,Positive*%
%TF.FileFunction,Legend,Top*%
%TF.Part,Single*%
G01*
G75*
%TA.AperFunction,NonConductor*%
%ADD70C,0.17780*%
%ADD71C,0.30000*%
%ADD72C,0.25000*%
%ADD73C,0.20320*%
%ADD74C,0.25400*%
%ADD75C,0.20000*%
%ADD76C,0.12700*%
%ADD77C,0.50800*%
%ADD78C,0.10160*%
%ADD79C,0.10000*%
%ADD80C,0.15240*%
%ADD81C,0.30480*%
%ADD82R,0.76000X1.52400*%
D70*
X7670800Y3606800D02*
G03*
X7670800Y3606800I-88900J0D01*
G01*
X2654300Y355600D02*
G03*
X2654300Y355600I-88900J0D01*
G01*
X5588000Y4229100D02*
G03*
X5588000Y4229100I-88900J0D01*
G01*
X9080500Y1206500D02*
G03*
X9080500Y1206500I-88900J0D01*
G01*
X7861300Y4102100D02*
G03*
X7861300Y4102100I-88900J0D01*
G01*
X7175500Y4114800D02*
G03*
X7175500Y4114800I-88900J0D01*
G01*
X7531100Y5689600D02*
G03*
X7531100Y5689600I-88900J0D01*
G01*
X8293100Y2019300D02*
G03*
X8293100Y2019300I-88900J0D01*
G01*
X8140700Y4622800D02*
G03*
X8140700Y4622800I-88900J0D01*
G01*
X7073900Y4851400D02*
G03*
X7073900Y4851400I-88900J0D01*
G01*
X6362700Y4368800D02*
G03*
X6362700Y4368800I-88900J0D01*
G01*
X5647586Y1418486D02*
G03*
X5647586Y1418486I-88900J0D01*
G01*
X2057400Y1917700D02*
G03*
X2057400Y1917700I-88900J0D01*
G01*
D71*
X6721700Y3383200D02*
G03*
X6721700Y3383200I-8000J0D01*
G01*
X8397700Y2201700D02*
G03*
X8397700Y2201700I-8000J0D01*
G01*
D72*
X8817500Y4896000D02*
G03*
X8817500Y4896000I-12500J0D01*
G01*
X1277420Y2928620D02*
G03*
X1277420Y2928620I-12500J0D01*
G01*
X920969Y2735580D02*
G03*
X920969Y2735580I-12500J0D01*
G01*
X1963500Y967300D02*
G03*
X1963500Y967300I-12500J0D01*
G01*
D73*
X292100Y1915160D02*
G03*
X292100Y2042160I0J63500D01*
G01*
X287057Y1814433D02*
G03*
X325357Y1786607I33063J5237D01*
G01*
X1338580Y2137740D02*
G03*
X1300490Y2175830I-38090J0D01*
G01*
X324823Y2175795D02*
G03*
X287053Y2127451I5287J-43057D01*
G01*
X1310717Y1786607D02*
G03*
X1338543Y1824907I-5237J33063D01*
G01*
X287020Y1814670D02*
Y1915160D01*
Y2042160D02*
Y2126460D01*
X1338580Y1824670D02*
Y2137730D01*
X325120Y1786570D02*
X1310480D01*
X325120Y2175830D02*
X1300480D01*
X368300Y2861761D02*
Y2946400D01*
X452939Y2861761D01*
X474099D01*
X495259Y2882921D01*
Y2925240D01*
X474099Y2946400D01*
X368300Y2755962D02*
X495259D01*
X431779Y2819441D01*
Y2734802D01*
X114300Y2861761D02*
Y2946400D01*
X198939Y2861761D01*
X220099D01*
X241259Y2882921D01*
Y2925240D01*
X220099Y2946400D01*
Y2819441D02*
X241259Y2798281D01*
Y2755962D01*
X220099Y2734802D01*
X198939D01*
X177779Y2755962D01*
Y2777121D01*
Y2755962D01*
X156620Y2734802D01*
X135460D01*
X114300Y2755962D01*
Y2798281D01*
X135460Y2819441D01*
X368300Y6049461D02*
Y6134100D01*
X452939Y6049461D01*
X474099D01*
X495259Y6070621D01*
Y6112940D01*
X474099Y6134100D01*
X114300D02*
Y6091780D01*
Y6112940D01*
X241259D01*
X220099Y6134100D01*
D74*
X254000Y1727200D02*
G03*
X254000Y1727200I-12700J0D01*
G01*
X7531100Y381000D02*
G03*
X7531100Y381000I-355600J0D01*
G01*
X6680200Y6007100D02*
G03*
X6680200Y6007100I-355600J0D01*
G01*
X9410700Y381000D02*
G03*
X9410700Y381000I-355600J0D01*
G01*
Y6007100D02*
G03*
X9410700Y6007100I-355600J0D01*
G01*
X3992880Y3959860D02*
G03*
X4056380Y3896360I63500J0D01*
G01*
X4442460D02*
G03*
X4505960Y3959860I0J63500D01*
G01*
Y4074160D02*
G03*
X4442460Y4137660I-63500J0D01*
G01*
X4056380D02*
G03*
X3992880Y4074160I0J-63500D01*
G01*
X3238500Y1562100D02*
G03*
X3175000Y1625600I-63500J0D01*
G01*
X2794000D02*
G03*
X2730500Y1562100I0J-63500D01*
G01*
X3175000Y596900D02*
G03*
X3238500Y660400I0J63500D01*
G01*
X2730500D02*
G03*
X2794000Y596900I63500J0D01*
G01*
X2273300Y2362200D02*
G03*
X2209800Y2298700I0J-63500D01*
G01*
Y1917700D02*
G03*
X2273300Y1854200I63500J0D01*
G01*
X3238500Y2298700D02*
G03*
X3175000Y2362200I-63500J0D01*
G01*
Y1854200D02*
G03*
X3238500Y1917700I0J63500D01*
G01*
X7810512Y4456888D02*
G03*
X7810512Y4456888I-10160J0D01*
G01*
X8065770Y3159760D02*
G03*
X8002270Y3096260I0J-63500D01*
G01*
X8515350D02*
G03*
X8451850Y3159760I-63500J0D01*
G01*
Y2918460D02*
G03*
X8515350Y2981960I0J63500D01*
G01*
X8002270D02*
G03*
X8065770Y2918460I63500J0D01*
G01*
Y3439160D02*
G03*
X8002270Y3375660I0J-63500D01*
G01*
X8515350D02*
G03*
X8451850Y3439160I-63500J0D01*
G01*
Y3197860D02*
G03*
X8515350Y3261360I0J63500D01*
G01*
X8002270D02*
G03*
X8065770Y3197860I63500J0D01*
G01*
X1395800Y3129800D02*
X1470800D01*
X1170800D02*
X1245800D01*
X1470800D02*
Y3829800D01*
X1245800Y3129800D02*
X1395800D01*
X1170800D02*
Y3829800D01*
X1470800D01*
X3714000Y4650600D02*
Y4725600D01*
Y4875600D02*
Y4950600D01*
Y4650600D02*
X4414000D01*
X3714000Y4725600D02*
Y4875600D01*
Y4950600D02*
X4414000D01*
Y4650600D02*
Y4950600D01*
X3714000Y5641200D02*
Y5716200D01*
Y5866200D02*
Y5941200D01*
Y5641200D02*
X4414000D01*
X3714000Y5716200D02*
Y5866200D01*
Y5941200D02*
X4414000D01*
Y5641200D02*
Y5941200D01*
X4000300Y3098800D02*
Y3886200D01*
X3619700Y3098800D02*
X4000300D01*
X3619700D02*
Y3886200D01*
X4000300D01*
X3992880Y3959860D02*
Y4074160D01*
X4056380Y3896360D02*
X4442460D01*
X4505960Y3959860D02*
Y4074160D01*
X4185920Y3896360D02*
Y4137660D01*
X4056380D02*
X4442460D01*
X2730500Y901700D02*
X3238500D01*
Y660400D02*
Y1562100D01*
X2794000Y1625600D02*
X3175000D01*
X2730500Y660400D02*
Y1562100D01*
X2794000Y596900D02*
X3175000D01*
X2209800Y1917700D02*
Y2298700D01*
X2273300Y2362200D02*
X3175000D01*
X3238500Y1917700D02*
Y2298700D01*
X2273300Y1854200D02*
X3175000D01*
X2514600D02*
Y2362200D01*
X7124152Y4304488D02*
X7203452D01*
X7114552Y4314088D02*
X7124152Y4304488D01*
X7114552Y4314088D02*
Y4393388D01*
X7124152Y4914088D02*
X7203452D01*
X7114552Y4904488D02*
X7124152Y4914088D01*
X7114552Y4825188D02*
Y4904488D01*
X7724152Y4825188D02*
Y4904488D01*
X7714552Y4914088D02*
X7724152Y4904488D01*
X7635252Y4914088D02*
X7714552D01*
X7637792Y4304488D02*
X7717092D01*
X7726692Y4314088D01*
Y4393388D01*
X8065770Y3159760D02*
X8451850D01*
X8195310Y2918460D02*
Y3159760D01*
X8515350Y2981960D02*
Y3096260D01*
X8065770Y2918460D02*
X8451850D01*
X8002270Y2981960D02*
Y3096260D01*
X8065770Y3439160D02*
X8451850D01*
X8195310Y3197860D02*
Y3439160D01*
X8515350Y3261360D02*
Y3375660D01*
X8065770Y3197860D02*
X8451850D01*
X8002270Y3261360D02*
Y3375660D01*
X4902266Y6299183D02*
X4927658Y6324575D01*
X4978441D01*
X5003833Y6299183D01*
Y6273792D01*
X4978441Y6248400D01*
X4953049D01*
X4978441D01*
X5003833Y6223008D01*
Y6197617D01*
X4978441Y6172225D01*
X4927658D01*
X4902266Y6197617D01*
X5054617Y6324575D02*
Y6223008D01*
X5105400Y6172225D01*
X5156184Y6223008D01*
Y6324575D01*
X5206967Y6299183D02*
X5232359Y6324575D01*
X5283143D01*
X5308534Y6299183D01*
Y6273792D01*
X5283143Y6248400D01*
X5257751D01*
X5283143D01*
X5308534Y6223008D01*
Y6197617D01*
X5283143Y6172225D01*
X5232359D01*
X5206967Y6197617D01*
X5080008Y5359375D02*
X4978441D01*
Y5283200D01*
X5029225Y5308592D01*
X5054617D01*
X5080008Y5283200D01*
Y5232417D01*
X5054617Y5207025D01*
X5003833D01*
X4978441Y5232417D01*
X5130792Y5359375D02*
Y5257808D01*
X5181575Y5207025D01*
X5232359Y5257808D01*
Y5359375D01*
D75*
X767300Y995400D02*
G03*
X767300Y995400I-10000J0D01*
G01*
X992100Y6171200D02*
G03*
X992100Y6171200I-10000J0D01*
G01*
X4427600Y1604101D02*
G03*
X4427600Y1604101I-10000J0D01*
G01*
X6758700Y3399200D02*
X7278700D01*
X6758700Y3374200D02*
Y3399200D01*
X7278700Y3384200D02*
Y3399200D01*
X6758700Y2849200D02*
X7278700D01*
Y2864200D01*
X6758700Y2849200D02*
Y2874200D01*
X9330500Y5046000D02*
Y5241000D01*
X8830500Y5046000D02*
Y5241000D01*
X9330500D01*
X8830500Y5046000D02*
X9330500D01*
X4864100Y4406900D02*
Y4893732D01*
Y4406900D02*
Y5168900D01*
X5372100Y4406900D02*
Y5168900D01*
X4864100D02*
X5372100D01*
X4864100Y4406900D02*
X5372100D01*
X4851400Y5638800D02*
Y6146800D01*
Y5638800D02*
X5359400D01*
X4851400Y6146800D02*
X5359400D01*
Y5638800D02*
Y6146800D01*
X5054600Y25400D02*
Y279400D01*
X3022600Y25400D02*
X5054600D01*
X3022600D02*
Y279400D01*
X5054600D01*
X38100Y2959100D02*
Y6007100D01*
X546100Y2959100D02*
Y6007100D01*
X38100D02*
X546100D01*
X38100Y2959100D02*
X546100D01*
X9131300Y3162300D02*
X9385300D01*
X9131300D02*
Y3924300D01*
X9385300D01*
Y3162300D02*
Y3924300D01*
X9131300Y3162300D02*
X9385300D01*
X8898700Y2246700D02*
X8923700D01*
X8908700Y2766700D02*
X8923700D01*
Y2246700D02*
Y2766700D01*
X8373700D02*
X8388700D01*
X8373700Y2246700D02*
X8398700D01*
X8373700D02*
Y2766700D01*
X6071460Y445038D02*
X6151460D01*
X6074000Y696498D02*
X6154000D01*
X7819801Y3807699D02*
Y3837701D01*
X7794800Y3822700D02*
X7844800Y3872700D01*
X7794800Y3822700D02*
X7844800Y3772700D01*
Y3872700D01*
X7834800Y3792701D02*
Y3852699D01*
X7784800Y3772700D02*
Y3872700D01*
X3394200Y2238500D02*
X3659200D01*
X3859200D02*
X4124200D01*
X3394200Y2968500D02*
X3659200D01*
X3859200D02*
X4124200D01*
Y2238500D02*
Y2968500D01*
X3394200Y2238500D02*
Y2968500D01*
X2621000Y1117300D02*
Y1397300D01*
X1951000Y1117300D02*
Y1397300D01*
X2621000D01*
X1951000Y1117300D02*
X2621000D01*
X6423100Y2451700D02*
Y2771700D01*
Y1571700D02*
Y1881700D01*
X7623100Y2461700D02*
Y2771700D01*
Y1571700D02*
Y1881700D01*
X6423100Y1571700D02*
X7623100D01*
X6423100Y2771700D02*
X7623100D01*
D76*
X4310380Y3403600D02*
G03*
X4310380Y3464560I0J30480D01*
G01*
X558800Y5499100D02*
X609600D01*
X558800Y4978400D02*
X609600D01*
X1991360Y3429000D02*
Y3784600D01*
X1821180D02*
X1991360D01*
X1821180Y3429000D02*
Y3784600D01*
Y3429000D02*
X1991360D01*
X2329180D02*
X2499360D01*
X2329180D02*
Y3784600D01*
X2499360D01*
Y3429000D02*
Y3784600D01*
X1554480Y3429000D02*
X1724660D01*
X1554480D02*
Y3784600D01*
X1724660D01*
Y3429000D02*
Y3784600D01*
X1554480Y3009900D02*
X1724660D01*
X1554480D02*
Y3365500D01*
X1724660D01*
Y3009900D02*
Y3365500D01*
X685800Y3393440D02*
X1041400D01*
Y3563620D01*
X685800D02*
X1041400D01*
X685800Y3393440D02*
Y3563620D01*
X2753360Y3429000D02*
Y3784600D01*
X2583180D02*
X2753360D01*
X2583180Y3429000D02*
Y3784600D01*
Y3429000D02*
X2753360D01*
X533400Y3721100D02*
X609600D01*
Y3975100D01*
X533400D02*
X609600D01*
X558800Y4254500D02*
X609600D01*
Y5549900D01*
Y5956300D01*
X558800D02*
X609600D01*
X8166100Y4777740D02*
X8521700D01*
Y4947920D01*
X8166100D02*
X8521700D01*
X8166100Y4777740D02*
Y4947920D01*
Y5179060D02*
X8521700D01*
X8166100Y5008880D02*
Y5179060D01*
Y5008880D02*
X8521700D01*
Y5179060D01*
X3162300Y4805680D02*
Y4975860D01*
X3517900D01*
Y4805680D02*
Y4975860D01*
X3162300Y4805680D02*
X3517900D01*
X4089400Y5242560D02*
X4445000D01*
X4089400Y5072380D02*
Y5242560D01*
Y5072380D02*
X4445000D01*
Y5242560D01*
X3670300Y5069840D02*
X4025900D01*
Y5240020D01*
X3670300D02*
X4025900D01*
X3670300Y5069840D02*
Y5240020D01*
X4089400Y5534660D02*
X4445000D01*
X4089400Y5364480D02*
Y5534660D01*
Y5364480D02*
X4445000D01*
Y5534660D01*
X3670300Y5361940D02*
X4025900D01*
Y5532120D01*
X3670300D02*
X4025900D01*
X3670300Y5361940D02*
Y5532120D01*
X764540Y6235700D02*
X934720D01*
Y5880100D02*
Y6235700D01*
X764540Y5880100D02*
X934720D01*
X764540D02*
Y6235700D01*
X1181100Y2682240D02*
X1427480D01*
X1181100Y2981960D02*
X1427480D01*
Y2682240D02*
Y2981960D01*
X1181100Y2682240D02*
Y2981960D01*
X1044778Y2443480D02*
Y2613660D01*
X689178Y2443480D02*
X1044778D01*
X689178D02*
Y2613660D01*
X1044778D01*
X992289Y2682240D02*
Y2981960D01*
X745909Y2682240D02*
Y2981960D01*
Y2682240D02*
X992289D01*
X745909Y2981960D02*
X992289D01*
X1044778Y3053080D02*
Y3223260D01*
X689178Y3053080D02*
X1044778D01*
X689178D02*
Y3223260D01*
X1044778D01*
X2072640Y2794000D02*
Y3149600D01*
Y2794000D02*
X2242820D01*
Y3149600D01*
X2072640D02*
X2242820D01*
X2326640Y2794000D02*
Y3149600D01*
Y2794000D02*
X2496820D01*
Y3149600D01*
X2326640D02*
X2496820D01*
X711200Y1236980D02*
Y1407160D01*
X355600Y1236980D02*
X711200D01*
X355600D02*
Y1407160D01*
X711200D01*
X-119700Y213400D02*
X7300D01*
X-119700D02*
Y1107400D01*
X7300D01*
X267300Y213400D02*
X417300D01*
X267300Y1107400D02*
X417300D01*
X1409700Y510540D02*
Y680720D01*
X1765300D01*
Y510540D02*
Y680720D01*
X1409700Y510540D02*
X1765300D01*
X977900D02*
Y680720D01*
X1333500D01*
Y510540D02*
Y680720D01*
X977900Y510540D02*
X1333500D01*
X1422400Y91440D02*
Y452120D01*
X972820Y452780D02*
X1058420D01*
X972820Y133780D02*
Y452780D01*
X1598420D02*
X1684020D01*
Y90780D02*
Y452780D01*
X1598420Y90780D02*
X1684020D01*
X972820D02*
X1598420D01*
X1058420Y452780D02*
X1598420D01*
X972820Y90780D02*
Y133780D01*
X5156200Y375168D02*
Y735848D01*
X5520180Y374508D02*
X5605780D01*
Y693508D01*
X4894580Y374508D02*
X4980180D01*
X4894580D02*
Y736508D01*
X4980180D01*
X5605780D01*
X4980180Y374508D02*
X5520180D01*
X5605780Y693508D02*
Y736508D01*
X7150100Y5387340D02*
X7505700D01*
Y5557520D01*
X7150100D02*
X7505700D01*
X7150100Y5387340D02*
Y5557520D01*
Y5158740D02*
X7505700D01*
Y5328920D01*
X7150100D02*
X7505700D01*
X7150100Y5158740D02*
Y5328920D01*
X5819140Y5321300D02*
X5989320D01*
Y4965700D02*
Y5321300D01*
X5819140Y4965700D02*
X5989320D01*
X5819140D02*
Y5321300D01*
X2075180Y3429000D02*
X2245360D01*
X2075180D02*
Y3784600D01*
X2245360D01*
Y3429000D02*
Y3784600D01*
X1082100Y4371200D02*
Y4436200D01*
Y4371200D02*
X1327100D01*
X2637100D02*
X2882100D01*
Y4436200D01*
X1082100Y6271200D02*
Y6921200D01*
X2882100D01*
Y6271200D02*
Y6921200D01*
X5140960Y2603500D02*
Y2959100D01*
X4970780D02*
X5140960D01*
X4970780Y2603500D02*
Y2959100D01*
Y2603500D02*
X5140960D01*
X4442600Y1104101D02*
Y1404101D01*
X4142600Y1104101D02*
Y1404101D01*
X3942080Y787400D02*
X4112260D01*
X3942080D02*
Y1143000D01*
X4112260D01*
Y787400D02*
Y1143000D01*
X4970780Y2006600D02*
X5140960D01*
Y1651000D02*
Y2006600D01*
X4970780Y1651000D02*
X5140960D01*
X4970780D02*
Y2006600D01*
X4749800Y1310640D02*
Y1480820D01*
X5105400D01*
Y1310640D02*
Y1480820D01*
X4749800Y1310640D02*
X5105400D01*
X4513580Y2006600D02*
X4683760D01*
X4513580Y1651000D02*
Y2006600D01*
Y1651000D02*
X4683760D01*
Y2006600D01*
X4912360Y1651000D02*
Y2006600D01*
X4742180Y1651000D02*
X4912360D01*
X4742180D02*
Y2006600D01*
X4912360D01*
X4749800Y1071880D02*
Y1242060D01*
X5105400D01*
Y1071880D02*
Y1242060D01*
X4749800Y1071880D02*
X5105400D01*
X5140960Y3111500D02*
Y3467100D01*
X4970780D02*
X5140960D01*
X4970780Y3111500D02*
Y3467100D01*
Y3111500D02*
X5140960D01*
X5369560D02*
Y3467100D01*
X5199380D02*
X5369560D01*
X5199380Y3111500D02*
Y3467100D01*
Y3111500D02*
X5369560D01*
X4053840Y3263900D02*
Y3619500D01*
Y3263900D02*
X4224020D01*
Y3619500D01*
X4053840D02*
X4224020D01*
X4546600Y3863340D02*
X4902200D01*
Y4033520D01*
X4546600D02*
X4902200D01*
X4546600Y3863340D02*
Y4033520D01*
X4513580Y2603500D02*
Y2959100D01*
Y2603500D02*
X4683760D01*
Y2959100D01*
X4513580D02*
X4683760D01*
X4455160Y2603500D02*
Y2959100D01*
X4284980D02*
X4455160D01*
X4284980Y2603500D02*
Y2959100D01*
Y2603500D02*
X4455160D01*
X4279900Y2537460D02*
X4635500D01*
X4279900Y2367280D02*
Y2537460D01*
Y2367280D02*
X4635500D01*
Y2537460D01*
X4749800D02*
X5105400D01*
X4749800Y2367280D02*
Y2537460D01*
Y2367280D02*
X5105400D01*
Y2537460D01*
X4912360Y2603500D02*
Y2959100D01*
X4742180D02*
X4912360D01*
X4742180Y2603500D02*
Y2959100D01*
Y2603500D02*
X4912360D01*
X1877060Y1003300D02*
Y1358900D01*
X1706880D02*
X1877060D01*
X1706880Y1003300D02*
Y1358900D01*
Y1003300D02*
X1877060D01*
X2273300Y586740D02*
X2628900D01*
Y756920D01*
X2273300D02*
X2628900D01*
X2273300Y586740D02*
Y756920D01*
X1475740Y1003300D02*
Y1358900D01*
Y1003300D02*
X1645920D01*
Y1358900D01*
X1475740D02*
X1645920D01*
X3162300Y4297680D02*
X3517900D01*
Y4467860D01*
X3162300D02*
X3517900D01*
X3162300Y4297680D02*
Y4467860D01*
Y4721860D02*
X3517900D01*
X3162300Y4551680D02*
Y4721860D01*
Y4551680D02*
X3517900D01*
Y4721860D01*
X6611612Y1028700D02*
Y1485900D01*
X6416032D02*
X6611612D01*
X6416032Y1028700D02*
Y1485900D01*
Y1028700D02*
X6611612D01*
X8166100Y4549140D02*
X8521700D01*
Y4719320D01*
X8166100D02*
X8521700D01*
X8166100Y4549140D02*
Y4719320D01*
Y4493260D02*
X8521700D01*
X8166100Y4323080D02*
Y4493260D01*
Y4323080D02*
X8521700D01*
Y4493260D01*
X6708140Y4559300D02*
Y4914900D01*
Y4559300D02*
X6878320D01*
Y4914900D01*
X6708140D02*
X6878320D01*
X8166100Y4091940D02*
X8521700D01*
Y4262120D01*
X8166100D02*
X8521700D01*
X8166100Y4091940D02*
Y4262120D01*
X6311900Y4523740D02*
Y4693920D01*
X6667500D01*
Y4523740D02*
Y4693920D01*
X6311900Y4523740D02*
X6667500D01*
X6720840Y4495800D02*
X6891020D01*
Y4140200D02*
Y4495800D01*
X6720840Y4140200D02*
X6891020D01*
X6720840D02*
Y4495800D01*
X8166100Y3634740D02*
X8521700D01*
Y3804920D01*
X8166100D02*
X8521700D01*
X8166100Y3634740D02*
Y3804920D01*
Y4036060D02*
X8521700D01*
X8166100Y3865880D02*
Y4036060D01*
Y3865880D02*
X8521700D01*
Y4036060D01*
X7302500Y4015740D02*
Y4185920D01*
X7658100D01*
Y4015740D02*
Y4185920D01*
X7302500Y4015740D02*
X7658100D01*
X7607300Y5615940D02*
X7962900D01*
Y5786120D01*
X7607300D02*
X7962900D01*
X7607300Y5615940D02*
Y5786120D01*
X6507480Y4965700D02*
X6677660D01*
X6507480D02*
Y5321300D01*
X6677660D01*
Y4965700D02*
Y5321300D01*
X6276340D02*
X6446520D01*
Y4965700D02*
Y5321300D01*
X6276340Y4965700D02*
X6446520D01*
X6276340D02*
Y5321300D01*
X6220460Y4965700D02*
Y5321300D01*
X6050280D02*
X6220460D01*
X6050280Y4965700D02*
Y5321300D01*
Y4965700D02*
X6220460D01*
X7150100Y5844540D02*
X7505700D01*
Y6014720D01*
X7150100D02*
X7505700D01*
X7150100Y5844540D02*
Y6014720D01*
X6718300Y5158740D02*
Y5328920D01*
X7073900D01*
Y5158740D02*
Y5328920D01*
X6718300Y5158740D02*
X7073900D01*
X6311900Y4752340D02*
Y4922520D01*
X6667500D01*
Y4752340D02*
Y4922520D01*
X6311900Y4752340D02*
X6667500D01*
X6916412Y1028700D02*
Y1485900D01*
X6720832D02*
X6916412D01*
X6720832Y1028700D02*
Y1485900D01*
Y1028700D02*
X6916412D01*
X6113788Y1485900D02*
X6309368D01*
Y1028700D02*
Y1485900D01*
X6113788Y1028700D02*
X6309368D01*
X6113788D02*
Y1485900D01*
X9357360Y4038600D02*
Y4394200D01*
X9187180D02*
X9357360D01*
X9187180Y4038600D02*
Y4394200D01*
Y4038600D02*
X9357360D01*
X3266440Y5880100D02*
Y6235700D01*
Y5880100D02*
X3436620D01*
Y6235700D01*
X3266440D02*
X3436620D01*
X3012440Y5880100D02*
Y6235700D01*
Y5880100D02*
X3182620D01*
Y6235700D01*
X3012440D02*
X3182620D01*
D77*
X4258108Y3184084D02*
G03*
X4258108Y3184084I-3592J0D01*
G01*
D78*
X1841500Y3563616D02*
Y3649976D01*
X1968500Y3563616D02*
Y3649976D01*
X2476500Y3563616D02*
Y3649976D01*
X2349500Y3563616D02*
Y3649976D01*
X749300Y3594100D02*
Y3606800D01*
Y3594100D02*
X977900D01*
Y3606800D01*
X749300Y3759200D02*
Y3771900D01*
X977900D01*
Y3759200D02*
Y3771900D01*
X1701800Y3563616D02*
Y3649976D01*
X1574800Y3563616D02*
Y3649976D01*
X1701800Y3144516D02*
Y3230876D01*
X1574800Y3144516D02*
Y3230876D01*
X820416Y3543300D02*
X906776D01*
X820416Y3416300D02*
X906776D01*
X2603500Y3563616D02*
Y3649976D01*
X2730500Y3563616D02*
Y3649976D01*
X8300716Y4927600D02*
X8387076D01*
X8300716Y4800600D02*
X8387076D01*
X8300724Y5029200D02*
X8387084D01*
X8300724Y5156200D02*
X8387084D01*
X3296916Y4828540D02*
X3383276D01*
X3296916Y4955540D02*
X3383276D01*
X4224024Y5092700D02*
X4310384D01*
X4224024Y5219700D02*
X4310384D01*
X3804916D02*
X3891276D01*
X3804916Y5092700D02*
X3891276D01*
X4224024Y5384800D02*
X4310384D01*
X4224024Y5511800D02*
X4310384D01*
X3804916D02*
X3891276D01*
X3804916Y5384800D02*
X3891276D01*
X787400Y6014724D02*
Y6101084D01*
X914400Y6014724D02*
Y6101084D01*
X823802Y2590800D02*
X910162D01*
X823802Y2463800D02*
X910162D01*
X823802Y3200400D02*
X910162D01*
X823802Y3073400D02*
X910162D01*
X2222500Y2928624D02*
Y3014984D01*
X2095500Y2928624D02*
Y3014984D01*
X2476500Y2928624D02*
Y3014984D01*
X2349500Y2928624D02*
Y3014984D01*
X490224Y1384300D02*
X576584D01*
X490224Y1257300D02*
X576584D01*
X1544316Y533400D02*
X1630676D01*
X1544316Y660400D02*
X1630676D01*
X1112516Y533400D02*
X1198876D01*
X1112516Y660400D02*
X1198876D01*
X7284716Y5537200D02*
X7371076D01*
X7284716Y5410200D02*
X7371076D01*
X7284716Y5308600D02*
X7371076D01*
X7284716Y5181600D02*
X7371076D01*
X5842000Y5100324D02*
Y5186684D01*
X5969000Y5100324D02*
Y5186684D01*
X2222500Y3563616D02*
Y3649976D01*
X2095500Y3563616D02*
Y3649976D01*
X7594600Y3721100D02*
X8026400D01*
Y3924300D01*
X7594600D02*
X8026400D01*
X7594600Y3721100D02*
Y3924300D01*
X4991100Y2738116D02*
Y2824476D01*
X5118100Y2738116D02*
Y2824476D01*
X4089400Y922016D02*
Y1008376D01*
X3962400Y922016D02*
Y1008376D01*
X4993640Y1785624D02*
Y1871984D01*
X5120640Y1785624D02*
Y1871984D01*
X4884416Y1333500D02*
X4970776D01*
X4884416Y1460500D02*
X4970776D01*
X4660900Y1785624D02*
Y1871984D01*
X4533900Y1785624D02*
Y1871984D01*
X4762500Y1785624D02*
Y1871984D01*
X4889500Y1785624D02*
Y1871984D01*
X4884416Y1094740D02*
X4970776D01*
X4884416Y1221740D02*
X4970776D01*
X4991100Y3246116D02*
Y3332476D01*
X5118100Y3246116D02*
Y3332476D01*
X5219700Y3246116D02*
Y3332476D01*
X5346700Y3246116D02*
Y3332476D01*
X4203700Y3398524D02*
Y3484884D01*
X4076700Y3398524D02*
Y3484884D01*
X4681216Y4013200D02*
X4767576D01*
X4681216Y3886200D02*
X4767576D01*
X4663440Y2738124D02*
Y2824484D01*
X4536440Y2738124D02*
Y2824484D01*
X4305300Y2738116D02*
Y2824476D01*
X4432300Y2738116D02*
Y2824476D01*
X4414524Y2387600D02*
X4500884D01*
X4414524Y2514600D02*
X4500884D01*
X4884424Y2387600D02*
X4970784D01*
X4884424Y2514600D02*
X4970784D01*
X4762500Y2738116D02*
Y2824476D01*
X4889500Y2738116D02*
Y2824476D01*
X1727200Y1137916D02*
Y1224276D01*
X1854200Y1137916D02*
Y1224276D01*
X2407916Y736600D02*
X2494276D01*
X2407916Y609600D02*
X2494276D01*
X1765300Y1587500D02*
Y1600200D01*
X1536700D02*
X1765300D01*
X1536700Y1587500D02*
Y1600200D01*
X1765300Y1422400D02*
Y1435100D01*
X1536700Y1422400D02*
X1765300D01*
X1536700D02*
Y1435100D01*
X1625600Y1137924D02*
Y1224284D01*
X1498600Y1137924D02*
Y1224284D01*
X3296916Y4447540D02*
X3383276D01*
X3296916Y4320540D02*
X3383276D01*
X3296924Y4572000D02*
X3383284D01*
X3296924Y4699000D02*
X3383284D01*
X6438892Y1178556D02*
Y1336036D01*
X6591292Y1178556D02*
Y1336036D01*
X8300716Y4699000D02*
X8387076D01*
X8300716Y4572000D02*
X8387076D01*
X8300724Y4343400D02*
X8387084D01*
X8300724Y4470400D02*
X8387084D01*
X6858000Y4693924D02*
Y4780284D01*
X6731000Y4693924D02*
Y4780284D01*
X8300716Y4241800D02*
X8387076D01*
X8300716Y4114800D02*
X8387076D01*
X6446516Y4546600D02*
X6532876D01*
X6446516Y4673600D02*
X6532876D01*
X6743700Y4274824D02*
Y4361184D01*
X6870700Y4274824D02*
Y4361184D01*
X8300716Y3784600D02*
X8387076D01*
X8300716Y3657600D02*
X8387076D01*
X8300724Y3886200D02*
X8387084D01*
X8300724Y4013200D02*
X8387084D01*
X7437116Y4038600D02*
X7523476D01*
X7437116Y4165600D02*
X7523476D01*
X7741916Y5765800D02*
X7828276D01*
X7741916Y5638800D02*
X7828276D01*
X7747000Y5270500D02*
X7759700D01*
Y5499100D01*
X7747000D02*
X7759700D01*
X7581900Y5270500D02*
X7594600D01*
X7581900D02*
Y5499100D01*
X7594600D01*
X7962900Y5270500D02*
X7975600D01*
Y5499100D01*
X7962900D02*
X7975600D01*
X7797800Y5270500D02*
X7810500D01*
X7797800D02*
Y5499100D01*
X7810500D01*
X6654800Y5100316D02*
Y5186676D01*
X6527800Y5100316D02*
Y5186676D01*
X6299200Y5100324D02*
Y5186684D01*
X6426200Y5100324D02*
Y5186684D01*
X6070600Y5100316D02*
Y5186676D01*
X6197600Y5100316D02*
Y5186676D01*
X7284716Y5994400D02*
X7371076D01*
X7284716Y5867400D02*
X7371076D01*
X6852916Y5181600D02*
X6939276D01*
X6852916Y5308600D02*
X6939276D01*
X6446516Y4775200D02*
X6532876D01*
X6446516Y4902200D02*
X6532876D01*
X6743692Y1178556D02*
Y1336036D01*
X6896092Y1178556D02*
Y1336036D01*
X6134108Y1178564D02*
Y1336044D01*
X6286508Y1178564D02*
Y1336044D01*
X9207500Y4173216D02*
Y4259576D01*
X9334500Y4173216D02*
Y4259576D01*
X3416300Y6014724D02*
Y6101084D01*
X3289300Y6014724D02*
Y6101084D01*
X3162300Y6014724D02*
Y6101084D01*
X3035300Y6014724D02*
Y6101084D01*
D79*
X4061483Y386102D02*
X4701482D01*
X4061483D02*
Y706102D01*
X4701482D01*
Y386102D02*
Y706102D01*
X8359082Y5859802D02*
Y6179802D01*
X7719083D02*
X8359082D01*
X7719083Y5859802D02*
Y6179802D01*
Y5859802D02*
X8359082D01*
X5879000Y731498D02*
X6337300D01*
Y411498D02*
Y731498D01*
X5879000Y411498D02*
X6337300D01*
X5879000D02*
Y731498D01*
X3314700Y939808D02*
X3327400D01*
X3314700Y723908D02*
Y939808D01*
X3327400D02*
X3441700D01*
Y685800D02*
Y939808D01*
X3314700Y685800D02*
X3441700D01*
X3314700D02*
Y723908D01*
X3327400Y774708D02*
Y850908D01*
X3429000Y774708D02*
Y850908D01*
X5885202Y1724718D02*
Y2364717D01*
X6205202D01*
Y1724718D02*
Y2364717D01*
X5885202Y1724718D02*
X6205202D01*
D80*
X4808220Y3296920D02*
Y3571240D01*
X4310380Y3464560D02*
Y3571240D01*
Y3403600D02*
Y3464560D01*
Y3296920D02*
Y3403600D01*
D81*
X5257780Y2633983D02*
X5156213D01*
Y2684767D01*
X5173141Y2701695D01*
X5206997D01*
X5223925Y2684767D01*
Y2633983D01*
Y2667839D02*
X5257780Y2701695D01*
Y2735551D02*
Y2769406D01*
Y2752478D01*
X5156213D01*
X5173141Y2735551D01*
X5156213Y2887901D02*
Y2820190D01*
X5206997D01*
X5190069Y2854046D01*
Y2870973D01*
X5206997Y2887901D01*
X5240852D01*
X5257780Y2870973D01*
Y2837118D01*
X5240852Y2820190D01*
X6943490Y3447405D02*
Y3515116D01*
X6926562Y3532044D01*
X6892707D01*
X6875779Y3515116D01*
Y3447405D01*
X6892707Y3430477D01*
X6926562D01*
X6909635Y3464332D02*
X6943490Y3430477D01*
X6926562D02*
X6943490Y3447405D01*
X6977346Y3515116D02*
X6994274Y3532044D01*
X7028130D01*
X7045058Y3515116D01*
Y3498188D01*
X7028130Y3481260D01*
X7011202D01*
X7028130D01*
X7045058Y3464332D01*
Y3447405D01*
X7028130Y3430477D01*
X6994274D01*
X6977346Y3447405D01*
X8683391Y5457608D02*
Y5525319D01*
X8666463Y5542247D01*
X8632608D01*
X8615680Y5525319D01*
Y5457608D01*
X8632608Y5440680D01*
X8666463D01*
X8649536Y5474536D02*
X8683391Y5440680D01*
X8666463D02*
X8683391Y5457608D01*
X8717247Y5440680D02*
X8751103D01*
X8734175D01*
Y5542247D01*
X8717247Y5525319D01*
X8945880Y3268951D02*
X9005128D01*
X8975504D01*
Y3180080D01*
X9093999Y3254139D02*
X9079187Y3268951D01*
X9049563D01*
X9034751Y3254139D01*
Y3239328D01*
X9049563Y3224516D01*
X9079187D01*
X9093999Y3209704D01*
Y3194892D01*
X9079187Y3180080D01*
X9049563D01*
X9034751Y3194892D01*
X8928928Y3825639D02*
X8914116Y3840451D01*
X8884492D01*
X8869680Y3825639D01*
Y3766392D01*
X8884492Y3751580D01*
X8914116D01*
X8928928Y3766392D01*
Y3796016D01*
X8899304D01*
X8958551Y3751580D02*
Y3840451D01*
X9017799Y3751580D01*
Y3840451D01*
X9047423D02*
Y3751580D01*
X9091858D01*
X9106670Y3766392D01*
Y3825639D01*
X9091858Y3840451D01*
X9047423D01*
X739539Y4682048D02*
X754351Y4696860D01*
Y4726483D01*
X739539Y4741295D01*
X724728D01*
X709916Y4726483D01*
Y4696860D01*
X695104Y4682048D01*
X680292D01*
X665480Y4696860D01*
Y4726483D01*
X680292Y4741295D01*
X739539Y4593176D02*
X754351Y4607988D01*
Y4637612D01*
X739539Y4652424D01*
X680292D01*
X665480Y4637612D01*
Y4607988D01*
X680292Y4593176D01*
X754351Y4563552D02*
X665480D01*
Y4504305D01*
X652780Y5836463D02*
X712028D01*
X682404D01*
Y5747592D01*
X741651Y5836463D02*
X800899Y5747592D01*
Y5836463D02*
X741651Y5747592D01*
X830523Y5732780D02*
X889770D01*
X978641Y5747592D02*
X919394D01*
X978641Y5806839D01*
Y5821651D01*
X963829Y5836463D01*
X934206D01*
X919394Y5821651D01*
X891939Y4682048D02*
X906751Y4696860D01*
Y4726483D01*
X891939Y4741295D01*
X877128D01*
X862316Y4726483D01*
Y4696860D01*
X847504Y4682048D01*
X832692D01*
X817880Y4696860D01*
Y4726483D01*
X832692Y4741295D01*
X906751Y4652424D02*
X817880D01*
Y4607988D01*
X832692Y4593176D01*
X891939D01*
X906751Y4607988D01*
Y4652424D01*
X817880Y4563552D02*
X877128D01*
X906751Y4533929D01*
X877128Y4504305D01*
X817880D01*
X862316D01*
Y4563552D01*
X652780Y4985592D02*
Y5074463D01*
X697216D01*
X712028Y5059651D01*
Y5030027D01*
X697216Y5015216D01*
X652780D01*
X682404D02*
X712028Y4985592D01*
X741651Y5074463D02*
X800899Y4985592D01*
Y5074463D02*
X741651Y4985592D01*
X830523Y4970780D02*
X889770D01*
X978641Y4985592D02*
X919394D01*
X978641Y5044839D01*
Y5059651D01*
X963829Y5074463D01*
X934206D01*
X919394Y5059651D01*
X652780Y5328463D02*
X712028D01*
X682404D01*
Y5239592D01*
X741651Y5328463D02*
X800899Y5239592D01*
Y5328463D02*
X741651Y5239592D01*
X830523Y5224780D02*
X889770D01*
X919394Y5239592D02*
X949018D01*
X934206D01*
Y5328463D01*
X919394Y5313651D01*
X652780Y5493592D02*
Y5582463D01*
X697216D01*
X712028Y5567651D01*
Y5538027D01*
X697216Y5523216D01*
X652780D01*
X682404D02*
X712028Y5493592D01*
X741651Y5582463D02*
X800899Y5493592D01*
Y5582463D02*
X741651Y5493592D01*
X830523Y5478780D02*
X889770D01*
X978641Y5493592D02*
X919394D01*
X978641Y5552839D01*
Y5567651D01*
X963829Y5582463D01*
X934206D01*
X919394Y5567651D01*
X690880Y3827780D02*
Y3929347D01*
X741663D01*
X758591Y3912419D01*
Y3878563D01*
X741663Y3861636D01*
X690880D01*
X724736D02*
X758591Y3827780D01*
X843231D02*
Y3929347D01*
X792447Y3878563D01*
X860159D01*
X944798Y3827780D02*
Y3929347D01*
X894014Y3878563D01*
X961726D01*
X690880Y4094447D02*
Y3992880D01*
X758591D01*
X860159Y4094447D02*
X792447D01*
Y3992880D01*
X860159D01*
X792447Y4043663D02*
X826303D01*
X894014Y4094447D02*
Y3992880D01*
X944798D01*
X961726Y4009808D01*
Y4077519D01*
X944798Y4094447D01*
X894014D01*
X1963420Y3815080D02*
X1861853D01*
Y3865863D01*
X1878781Y3882791D01*
X1912637D01*
X1929564Y3865863D01*
Y3815080D01*
Y3848936D02*
X1963420Y3882791D01*
X1878781Y3916647D02*
X1861853Y3933575D01*
Y3967431D01*
X1878781Y3984359D01*
X1895709D01*
X1912637Y3967431D01*
Y3950503D01*
Y3967431D01*
X1929564Y3984359D01*
X1946492D01*
X1963420Y3967431D01*
Y3933575D01*
X1946492Y3916647D01*
X1861853Y4018214D02*
Y4085926D01*
X1878781D01*
X1946492Y4018214D01*
X1963420D01*
X4907280Y868647D02*
Y767080D01*
X4958063D01*
X4974991Y784008D01*
Y851719D01*
X4958063Y868647D01*
X4907280D01*
X5076559Y767080D02*
X5008847D01*
X5076559Y834791D01*
Y851719D01*
X5059631Y868647D01*
X5025775D01*
X5008847Y851719D01*
X8563485Y4805191D02*
Y4906759D01*
X8614269D01*
X8631196Y4889831D01*
Y4855975D01*
X8614269Y4839047D01*
X8563485D01*
X8597341D02*
X8631196Y4805191D01*
X8665052Y4889831D02*
X8681980Y4906759D01*
X8715836D01*
X8732764Y4889831D01*
Y4872903D01*
X8715836Y4855975D01*
X8698908D01*
X8715836D01*
X8732764Y4839047D01*
Y4822119D01*
X8715836Y4805191D01*
X8681980D01*
X8665052Y4822119D01*
X8563485Y5033791D02*
Y5135359D01*
X8614269D01*
X8631196Y5118431D01*
Y5084575D01*
X8614269Y5067647D01*
X8563485D01*
X8597341D02*
X8631196Y5033791D01*
X8665052D02*
X8698908D01*
X8681980D01*
Y5135359D01*
X8665052Y5118431D01*
X4500880Y767080D02*
Y868647D01*
X4551663D01*
X4568591Y851719D01*
Y817863D01*
X4551663Y800936D01*
X4500880D01*
X4534736D02*
X4568591Y767080D01*
X4602447D02*
X4636303D01*
X4619375D01*
Y868647D01*
X4602447Y851719D01*
X4737870Y767080D02*
Y868647D01*
X4687087Y817863D01*
X4754798D01*
X58420Y6235700D02*
Y6337267D01*
X109203D01*
X126131Y6320339D01*
Y6286483D01*
X109203Y6269556D01*
X58420D01*
X159987Y6235700D02*
X193843D01*
X176915D01*
Y6337267D01*
X159987Y6320339D01*
X244627Y6337267D02*
X312338D01*
Y6320339D01*
X244627Y6252628D01*
Y6235700D01*
X1732280Y233647D02*
Y132080D01*
X1783063D01*
X1799991Y149008D01*
Y216719D01*
X1783063Y233647D01*
X1732280D01*
X1901559D02*
X1867703Y216719D01*
X1833847Y182863D01*
Y149008D01*
X1850775Y132080D01*
X1884631D01*
X1901559Y149008D01*
Y165936D01*
X1884631Y182863D01*
X1833847D01*
X147353Y1821180D02*
X231992D01*
X248920Y1838108D01*
Y1871963D01*
X231992Y1888891D01*
X147353D01*
Y1990459D02*
Y1922747D01*
X198137D01*
X181209Y1956603D01*
Y1973531D01*
X198137Y1990459D01*
X231992D01*
X248920Y1973531D01*
Y1939675D01*
X231992Y1922747D01*
X4517791Y4750619D02*
X4500863Y4767547D01*
X4467008D01*
X4450080Y4750619D01*
Y4733691D01*
X4467008Y4716763D01*
X4500863D01*
X4517791Y4699836D01*
Y4682908D01*
X4500863Y4665980D01*
X4467008D01*
X4450080Y4682908D01*
X4551647Y4750619D02*
X4568575Y4767547D01*
X4602431D01*
X4619359Y4750619D01*
Y4733691D01*
X4602431Y4716763D01*
X4585503D01*
X4602431D01*
X4619359Y4699836D01*
Y4682908D01*
X4602431Y4665980D01*
X4568575D01*
X4551647Y4682908D01*
X4530491Y5758343D02*
X4513563Y5775271D01*
X4479708D01*
X4462780Y5758343D01*
Y5741415D01*
X4479708Y5724487D01*
X4513563D01*
X4530491Y5707559D01*
Y5690631D01*
X4513563Y5673704D01*
X4479708D01*
X4462780Y5690631D01*
X4632059Y5673704D02*
X4564347D01*
X4632059Y5741415D01*
Y5758343D01*
X4615131Y5775271D01*
X4581275D01*
X4564347Y5758343D01*
X1266591Y3963219D02*
X1249663Y3980147D01*
X1215808D01*
X1198880Y3963219D01*
Y3946291D01*
X1215808Y3929363D01*
X1249663D01*
X1266591Y3912436D01*
Y3895508D01*
X1249663Y3878580D01*
X1215808D01*
X1198880Y3895508D01*
X1300447Y3878580D02*
X1334303D01*
X1317375D01*
Y3980147D01*
X1300447Y3963219D01*
X3002280Y5224780D02*
Y5326347D01*
X3053063D01*
X3069991Y5309419D01*
Y5275563D01*
X3053063Y5258636D01*
X3002280D01*
X3036136D02*
X3069991Y5224780D01*
X3154631D02*
Y5326347D01*
X3103847Y5275563D01*
X3171559D01*
X3273126Y5224780D02*
X3205414D01*
X3273126Y5292491D01*
Y5309419D01*
X3256198Y5326347D01*
X3222342D01*
X3205414Y5309419D01*
X1071880Y2481580D02*
Y2583147D01*
X1122663D01*
X1139591Y2566219D01*
Y2532363D01*
X1122663Y2515436D01*
X1071880D01*
X1105736D02*
X1139591Y2481580D01*
X1224231D02*
Y2583147D01*
X1173447Y2532363D01*
X1241159D01*
X1275014Y2481580D02*
X1308870D01*
X1291942D01*
Y2583147D01*
X1275014Y2566219D01*
X690880Y3268980D02*
Y3370547D01*
X741663D01*
X758591Y3353619D01*
Y3319763D01*
X741663Y3302836D01*
X690880D01*
X724736D02*
X758591Y3268980D01*
X843231D02*
Y3370547D01*
X792447Y3319763D01*
X860159D01*
X894014Y3353619D02*
X910942Y3370547D01*
X944798D01*
X961726Y3353619D01*
Y3285908D01*
X944798Y3268980D01*
X910942D01*
X894014Y3285908D01*
Y3353619D01*
X2865120Y2837180D02*
X2763553D01*
Y2887963D01*
X2780481Y2904891D01*
X2814337D01*
X2831264Y2887963D01*
Y2837180D01*
Y2871036D02*
X2865120Y2904891D01*
X2780481Y2938747D02*
X2763553Y2955675D01*
Y2989531D01*
X2780481Y3006459D01*
X2797409D01*
X2814337Y2989531D01*
Y2972603D01*
Y2989531D01*
X2831264Y3006459D01*
X2848192D01*
X2865120Y2989531D01*
Y2955675D01*
X2848192Y2938747D01*
Y3040314D02*
X2865120Y3057242D01*
Y3091098D01*
X2848192Y3108026D01*
X2780481D01*
X2763553Y3091098D01*
Y3057242D01*
X2780481Y3040314D01*
X2797409D01*
X2814337Y3057242D01*
Y3108026D01*
X2687320Y2837180D02*
X2585753D01*
Y2887963D01*
X2602681Y2904891D01*
X2636537D01*
X2653464Y2887963D01*
Y2837180D01*
Y2871036D02*
X2687320Y2904891D01*
X2602681Y2938747D02*
X2585753Y2955675D01*
Y2989531D01*
X2602681Y3006459D01*
X2619609D01*
X2636537Y2989531D01*
Y2972603D01*
Y2989531D01*
X2653464Y3006459D01*
X2670392D01*
X2687320Y2989531D01*
Y2955675D01*
X2670392Y2938747D01*
X2602681Y3040314D02*
X2585753Y3057242D01*
Y3091098D01*
X2602681Y3108026D01*
X2619609D01*
X2636537Y3091098D01*
X2653464Y3108026D01*
X2670392D01*
X2687320Y3091098D01*
Y3057242D01*
X2670392Y3040314D01*
X2653464D01*
X2636537Y3057242D01*
X2619609Y3040314D01*
X2602681D01*
X2636537Y3057242D02*
Y3091098D01*
X3192780Y3967480D02*
Y4069047D01*
X3243563D01*
X3260491Y4052119D01*
Y4018263D01*
X3243563Y4001336D01*
X3192780D01*
X3226636D02*
X3260491Y3967480D01*
X3294347Y4052119D02*
X3311275Y4069047D01*
X3345131D01*
X3362059Y4052119D01*
Y4035191D01*
X3345131Y4018263D01*
X3328203D01*
X3345131D01*
X3362059Y4001336D01*
Y3984408D01*
X3345131Y3967480D01*
X3311275D01*
X3294347Y3984408D01*
X3463626Y4069047D02*
X3429770Y4052119D01*
X3395914Y4018263D01*
Y3984408D01*
X3412842Y3967480D01*
X3446698D01*
X3463626Y3984408D01*
Y4001336D01*
X3446698Y4018263D01*
X3395914D01*
X3192780Y4132580D02*
Y4234147D01*
X3243563D01*
X3260491Y4217219D01*
Y4183363D01*
X3243563Y4166436D01*
X3192780D01*
X3226636D02*
X3260491Y4132580D01*
X3294347Y4217219D02*
X3311275Y4234147D01*
X3345131D01*
X3362059Y4217219D01*
Y4200291D01*
X3345131Y4183363D01*
X3328203D01*
X3345131D01*
X3362059Y4166436D01*
Y4149508D01*
X3345131Y4132580D01*
X3311275D01*
X3294347Y4149508D01*
X3463626Y4234147D02*
X3395914D01*
Y4183363D01*
X3429770Y4200291D01*
X3446698D01*
X3463626Y4183363D01*
Y4149508D01*
X3446698Y4132580D01*
X3412842D01*
X3395914Y4149508D01*
X3192780Y3802380D02*
Y3903947D01*
X3243563D01*
X3260491Y3887019D01*
Y3853163D01*
X3243563Y3836236D01*
X3192780D01*
X3226636D02*
X3260491Y3802380D01*
X3294347Y3887019D02*
X3311275Y3903947D01*
X3345131D01*
X3362059Y3887019D01*
Y3870091D01*
X3345131Y3853163D01*
X3328203D01*
X3345131D01*
X3362059Y3836236D01*
Y3819308D01*
X3345131Y3802380D01*
X3311275D01*
X3294347Y3819308D01*
X3446698Y3802380D02*
Y3903947D01*
X3395914Y3853163D01*
X3463626D01*
X2997200Y5392421D02*
Y5493988D01*
X3047983D01*
X3064911Y5477060D01*
Y5443204D01*
X3047983Y5426276D01*
X2997200D01*
X3031056D02*
X3064911Y5392421D01*
X3098767Y5477060D02*
X3115695Y5493988D01*
X3149551D01*
X3166479Y5477060D01*
Y5460132D01*
X3149551Y5443204D01*
X3132623D01*
X3149551D01*
X3166479Y5426276D01*
Y5409349D01*
X3149551Y5392421D01*
X3115695D01*
X3098767Y5409349D01*
X3200334Y5477060D02*
X3217262Y5493988D01*
X3251118D01*
X3268046Y5477060D01*
Y5460132D01*
X3251118Y5443204D01*
X3234190D01*
X3251118D01*
X3268046Y5426276D01*
Y5409349D01*
X3251118Y5392421D01*
X3217262D01*
X3200334Y5409349D01*
X1696720Y3815080D02*
X1595153D01*
Y3865863D01*
X1612081Y3882791D01*
X1645937D01*
X1662864Y3865863D01*
Y3815080D01*
Y3848936D02*
X1696720Y3882791D01*
X1612081Y3916647D02*
X1595153Y3933575D01*
Y3967431D01*
X1612081Y3984359D01*
X1629009D01*
X1645937Y3967431D01*
Y3950503D01*
Y3967431D01*
X1662864Y3984359D01*
X1679792D01*
X1696720Y3967431D01*
Y3933575D01*
X1679792Y3916647D01*
X1696720Y4085926D02*
Y4018214D01*
X1629009Y4085926D01*
X1612081D01*
X1595153Y4068998D01*
Y4035142D01*
X1612081Y4018214D01*
X995680Y716280D02*
Y817847D01*
X1046463D01*
X1063391Y800919D01*
Y767063D01*
X1046463Y750136D01*
X995680D01*
X1029536D02*
X1063391Y716280D01*
X1097247Y800919D02*
X1114175Y817847D01*
X1148031D01*
X1164959Y800919D01*
Y783991D01*
X1148031Y767063D01*
X1131103D01*
X1148031D01*
X1164959Y750136D01*
Y733208D01*
X1148031Y716280D01*
X1114175D01*
X1097247Y733208D01*
X1198814Y716280D02*
X1232670D01*
X1215742D01*
Y817847D01*
X1198814Y800919D01*
X379264Y1441450D02*
Y1543017D01*
X430048D01*
X446975Y1526089D01*
Y1492233D01*
X430048Y1475306D01*
X379264D01*
X413120D02*
X446975Y1441450D01*
X480831Y1526089D02*
X497759Y1543017D01*
X531615D01*
X548543Y1526089D01*
Y1509161D01*
X531615Y1492233D01*
X514687D01*
X531615D01*
X548543Y1475306D01*
Y1458378D01*
X531615Y1441450D01*
X497759D01*
X480831Y1458378D01*
X582399Y1526089D02*
X599326Y1543017D01*
X633182D01*
X650110Y1526089D01*
Y1458378D01*
X633182Y1441450D01*
X599326D01*
X582399Y1458378D01*
Y1526089D01*
X2217420Y3815080D02*
X2115853D01*
Y3865863D01*
X2132781Y3882791D01*
X2166637D01*
X2183564Y3865863D01*
Y3815080D01*
Y3848936D02*
X2217420Y3882791D01*
Y3984359D02*
Y3916647D01*
X2149709Y3984359D01*
X2132781D01*
X2115853Y3967431D01*
Y3933575D01*
X2132781Y3916647D01*
X2200492Y4018214D02*
X2217420Y4035142D01*
Y4068998D01*
X2200492Y4085926D01*
X2132781D01*
X2115853Y4068998D01*
Y4035142D01*
X2132781Y4018214D01*
X2149709D01*
X2166637Y4035142D01*
Y4085926D01*
X2471420Y3815080D02*
X2369853D01*
Y3865863D01*
X2386781Y3882791D01*
X2420637D01*
X2437564Y3865863D01*
Y3815080D01*
Y3848936D02*
X2471420Y3882791D01*
Y3984359D02*
Y3916647D01*
X2403709Y3984359D01*
X2386781D01*
X2369853Y3967431D01*
Y3933575D01*
X2386781Y3916647D01*
Y4018214D02*
X2369853Y4035142D01*
Y4068998D01*
X2386781Y4085926D01*
X2403709D01*
X2420637Y4068998D01*
X2437564Y4085926D01*
X2454492D01*
X2471420Y4068998D01*
Y4035142D01*
X2454492Y4018214D01*
X2437564D01*
X2420637Y4035142D01*
X2403709Y4018214D01*
X2386781D01*
X2420637Y4035142D02*
Y4068998D01*
X2725420Y3815080D02*
X2623853D01*
Y3865863D01*
X2640781Y3882791D01*
X2674637D01*
X2691564Y3865863D01*
Y3815080D01*
Y3848936D02*
X2725420Y3882791D01*
Y3984359D02*
Y3916647D01*
X2657709Y3984359D01*
X2640781D01*
X2623853Y3967431D01*
Y3933575D01*
X2640781Y3916647D01*
X2623853Y4018214D02*
Y4085926D01*
X2640781D01*
X2708492Y4018214D01*
X2725420D01*
X1654392Y2752491D02*
X1586681D01*
X1569753Y2735563D01*
Y2701708D01*
X1586681Y2684780D01*
X1654392D01*
X1671320Y2701708D01*
Y2735563D01*
X1637464Y2718636D02*
X1671320Y2752491D01*
Y2735563D02*
X1654392Y2752491D01*
X1569753Y2854059D02*
Y2786347D01*
X1620537D01*
X1603609Y2820203D01*
Y2837131D01*
X1620537Y2854059D01*
X1654392D01*
X1671320Y2837131D01*
Y2803275D01*
X1654392Y2786347D01*
X1806792Y2752491D02*
X1739081D01*
X1722153Y2735563D01*
Y2701708D01*
X1739081Y2684780D01*
X1806792D01*
X1823720Y2701708D01*
Y2735563D01*
X1789864Y2718636D02*
X1823720Y2752491D01*
Y2735563D02*
X1806792Y2752491D01*
X1823720Y2837131D02*
X1722153D01*
X1772937Y2786347D01*
Y2854059D01*
X767080Y944880D02*
Y1046447D01*
X817863D01*
X834791Y1029519D01*
Y995663D01*
X817863Y978736D01*
X767080D01*
X868647Y944880D02*
X902503D01*
X885575D01*
Y1046447D01*
X868647Y1029519D01*
X1020998Y1046447D02*
X987142Y1029519D01*
X953287Y995663D01*
Y961808D01*
X970214Y944880D01*
X1004070D01*
X1020998Y961808D01*
Y978736D01*
X1004070Y995663D01*
X953287D01*
X993140Y7132287D02*
X1026996D01*
X1010068D01*
Y7030720D01*
X993140D01*
X1026996D01*
X1145491Y7115359D02*
X1128563Y7132287D01*
X1094707D01*
X1077779Y7115359D01*
Y7047648D01*
X1094707Y7030720D01*
X1128563D01*
X1145491Y7047648D01*
X1179347Y7030720D02*
X1213202D01*
X1196274D01*
Y7132287D01*
X1179347Y7115359D01*
X3400191Y5309419D02*
X3383263Y5326347D01*
X3349408D01*
X3332480Y5309419D01*
Y5241708D01*
X3349408Y5224780D01*
X3383263D01*
X3400191Y5241708D01*
X3434047Y5309419D02*
X3450975Y5326347D01*
X3484831D01*
X3501759Y5309419D01*
Y5292491D01*
X3484831Y5275563D01*
X3467903D01*
X3484831D01*
X3501759Y5258636D01*
Y5241708D01*
X3484831Y5224780D01*
X3450975D01*
X3434047Y5241708D01*
X3535614Y5309419D02*
X3552542Y5326347D01*
X3586398D01*
X3603326Y5309419D01*
Y5292491D01*
X3586398Y5275563D01*
X3569470D01*
X3586398D01*
X3603326Y5258636D01*
Y5241708D01*
X3586398Y5224780D01*
X3552542D01*
X3535614Y5241708D01*
X3400191Y5474519D02*
X3383263Y5491447D01*
X3349408D01*
X3332480Y5474519D01*
Y5406808D01*
X3349408Y5389880D01*
X3383263D01*
X3400191Y5406808D01*
X3434047Y5474519D02*
X3450975Y5491447D01*
X3484831D01*
X3501759Y5474519D01*
Y5457591D01*
X3484831Y5440663D01*
X3467903D01*
X3484831D01*
X3501759Y5423736D01*
Y5406808D01*
X3484831Y5389880D01*
X3450975D01*
X3434047Y5406808D01*
X3603326Y5389880D02*
X3535614D01*
X3603326Y5457591D01*
Y5474519D01*
X3586398Y5491447D01*
X3552542D01*
X3535614Y5474519D01*
X1789881Y3120791D02*
X1772953Y3103863D01*
Y3070008D01*
X1789881Y3053080D01*
X1857592D01*
X1874520Y3070008D01*
Y3103863D01*
X1857592Y3120791D01*
X1789881Y3154647D02*
X1772953Y3171575D01*
Y3205431D01*
X1789881Y3222359D01*
X1806809D01*
X1823737Y3205431D01*
Y3188503D01*
Y3205431D01*
X1840664Y3222359D01*
X1857592D01*
X1874520Y3205431D01*
Y3171575D01*
X1857592Y3154647D01*
X1874520Y3256214D02*
Y3290070D01*
Y3273142D01*
X1772953D01*
X1789881Y3256214D01*
X659581Y5978291D02*
X642653Y5961363D01*
Y5927508D01*
X659581Y5910580D01*
X727292D01*
X744220Y5927508D01*
Y5961363D01*
X727292Y5978291D01*
X659581Y6012147D02*
X642653Y6029075D01*
Y6062931D01*
X659581Y6079859D01*
X676509D01*
X693437Y6062931D01*
Y6046003D01*
Y6062931D01*
X710364Y6079859D01*
X727292D01*
X744220Y6062931D01*
Y6029075D01*
X727292Y6012147D01*
X659581Y6113714D02*
X642653Y6130642D01*
Y6164498D01*
X659581Y6181426D01*
X727292D01*
X744220Y6164498D01*
Y6130642D01*
X727292Y6113714D01*
X659581D01*
X1495191Y800919D02*
X1478263Y817847D01*
X1444408D01*
X1427480Y800919D01*
Y733208D01*
X1444408Y716280D01*
X1478263D01*
X1495191Y733208D01*
X1596759Y716280D02*
X1529047D01*
X1596759Y783991D01*
Y800919D01*
X1579831Y817847D01*
X1545975D01*
X1529047Y800919D01*
X1630614Y733208D02*
X1647542Y716280D01*
X1681398D01*
X1698326Y733208D01*
Y800919D01*
X1681398Y817847D01*
X1647542D01*
X1630614Y800919D01*
Y783991D01*
X1647542Y767063D01*
X1698326D01*
X4805680Y3726147D02*
Y3641508D01*
X4822608Y3624580D01*
X4856463D01*
X4873391Y3641508D01*
Y3726147D01*
X4974959Y3624580D02*
X4907247D01*
X4974959Y3692291D01*
Y3709219D01*
X4958031Y3726147D01*
X4924175D01*
X4907247Y3709219D01*
X5440680Y2392680D02*
Y2494247D01*
X5491463D01*
X5508391Y2477319D01*
Y2443463D01*
X5491463Y2426536D01*
X5440680D01*
X5474536D02*
X5508391Y2392680D01*
X5609959D02*
X5542247D01*
X5609959Y2460391D01*
Y2477319D01*
X5593031Y2494247D01*
X5559175D01*
X5542247Y2477319D01*
X5694598Y2392680D02*
Y2494247D01*
X5643814Y2443463D01*
X5711526D01*
X5557520Y3141980D02*
X5455953D01*
Y3192763D01*
X5472881Y3209691D01*
X5506737D01*
X5523664Y3192763D01*
Y3141980D01*
Y3175836D02*
X5557520Y3209691D01*
Y3311259D02*
Y3243547D01*
X5489809Y3311259D01*
X5472881D01*
X5455953Y3294331D01*
Y3260475D01*
X5472881Y3243547D01*
X5557520Y3412826D02*
Y3345114D01*
X5489809Y3412826D01*
X5472881D01*
X5455953Y3395898D01*
Y3362042D01*
X5472881Y3345114D01*
X3408680Y3116547D02*
Y3014980D01*
X3476391D01*
X3577959D02*
X3510247D01*
X3577959Y3082691D01*
Y3099619D01*
X3561031Y3116547D01*
X3527175D01*
X3510247Y3099619D01*
X3586480Y4018247D02*
Y3916680D01*
X3637263D01*
X3654191Y3933608D01*
Y4001319D01*
X3637263Y4018247D01*
X3586480D01*
X3755759D02*
X3688047D01*
Y3967463D01*
X3721903Y3984391D01*
X3738831D01*
X3755759Y3967463D01*
Y3933608D01*
X3738831Y3916680D01*
X3704975D01*
X3688047Y3933608D01*
X5472881Y2701691D02*
X5455953Y2684763D01*
Y2650908D01*
X5472881Y2633980D01*
X5540592D01*
X5557520Y2650908D01*
Y2684763D01*
X5540592Y2701691D01*
X5557520Y2803259D02*
Y2735547D01*
X5489809Y2803259D01*
X5472881D01*
X5455953Y2786331D01*
Y2752475D01*
X5472881Y2735547D01*
Y2837114D02*
X5455953Y2854042D01*
Y2887898D01*
X5472881Y2904826D01*
X5489809D01*
X5506737Y2887898D01*
X5523664Y2904826D01*
X5540592D01*
X5557520Y2887898D01*
Y2854042D01*
X5540592Y2837114D01*
X5523664D01*
X5506737Y2854042D01*
X5489809Y2837114D01*
X5472881D01*
X5506737Y2854042D02*
Y2887898D01*
X5625281Y2701691D02*
X5608353Y2684763D01*
Y2650908D01*
X5625281Y2633980D01*
X5692992D01*
X5709920Y2650908D01*
Y2684763D01*
X5692992Y2701691D01*
X5709920Y2803259D02*
Y2735547D01*
X5642209Y2803259D01*
X5625281D01*
X5608353Y2786331D01*
Y2752475D01*
X5625281Y2735547D01*
X5608353Y2904826D02*
X5625281Y2870970D01*
X5659137Y2837114D01*
X5692992D01*
X5709920Y2854042D01*
Y2887898D01*
X5692992Y2904826D01*
X5676064D01*
X5659137Y2887898D01*
Y2837114D01*
X4073291Y4255319D02*
X4056363Y4272247D01*
X4022508D01*
X4005580Y4255319D01*
Y4187608D01*
X4022508Y4170680D01*
X4056363D01*
X4073291Y4187608D01*
X4174859Y4170680D02*
X4107147D01*
X4174859Y4238391D01*
Y4255319D01*
X4157931Y4272247D01*
X4124075D01*
X4107147Y4255319D01*
X4208714Y4170680D02*
X4242570D01*
X4225642D01*
Y4272247D01*
X4208714Y4255319D01*
X5165491Y2477319D02*
X5148563Y2494247D01*
X5114708D01*
X5097780Y2477319D01*
Y2409608D01*
X5114708Y2392680D01*
X5148563D01*
X5165491Y2409608D01*
X5267059Y2392680D02*
X5199347D01*
X5267059Y2460391D01*
Y2477319D01*
X5250131Y2494247D01*
X5216275D01*
X5199347Y2477319D01*
X5300914D02*
X5317842Y2494247D01*
X5351698D01*
X5368626Y2477319D01*
Y2409608D01*
X5351698Y2392680D01*
X5317842D01*
X5300914Y2409608D01*
Y2477319D01*
X4085991Y3785419D02*
X4069063Y3802347D01*
X4035208D01*
X4018280Y3785419D01*
Y3717708D01*
X4035208Y3700780D01*
X4069063D01*
X4085991Y3717708D01*
X4119847Y3700780D02*
X4153703D01*
X4136775D01*
Y3802347D01*
X4119847Y3785419D01*
X4204487Y3717708D02*
X4221414Y3700780D01*
X4255270D01*
X4272198Y3717708D01*
Y3785419D01*
X4255270Y3802347D01*
X4221414D01*
X4204487Y3785419D01*
Y3768491D01*
X4221414Y3751563D01*
X4272198D01*
X8283792Y2282591D02*
X8216081D01*
X8199153Y2265663D01*
Y2231808D01*
X8216081Y2214880D01*
X8283792D01*
X8300720Y2231808D01*
Y2265663D01*
X8266864Y2248736D02*
X8300720Y2282591D01*
Y2265663D02*
X8283792Y2282591D01*
X8300720Y2384159D02*
Y2316447D01*
X8233009Y2384159D01*
X8216081D01*
X8199153Y2367231D01*
Y2333375D01*
X8216081Y2316447D01*
X9098280Y3002280D02*
Y3103847D01*
X9149063D01*
X9165991Y3086919D01*
Y3053063D01*
X9149063Y3036136D01*
X9098280D01*
X9199847Y3002280D02*
X9233703D01*
X9216775D01*
Y3103847D01*
X9199847Y3086919D01*
X9284487D02*
X9301414Y3103847D01*
X9335270D01*
X9352198Y3086919D01*
Y3069991D01*
X9335270Y3053063D01*
X9318342D01*
X9335270D01*
X9352198Y3036136D01*
Y3019208D01*
X9335270Y3002280D01*
X9301414D01*
X9284487Y3019208D01*
X6956191Y5588819D02*
X6939263Y5605747D01*
X6905408D01*
X6888480Y5588819D01*
Y5521108D01*
X6905408Y5504180D01*
X6939263D01*
X6956191Y5521108D01*
X6990047Y5588819D02*
X7006975Y5605747D01*
X7040831D01*
X7057759Y5588819D01*
Y5571891D01*
X7040831Y5554963D01*
X7057759Y5538036D01*
Y5521108D01*
X7040831Y5504180D01*
X7006975D01*
X6990047Y5521108D01*
Y5538036D01*
X7006975Y5554963D01*
X6990047Y5571891D01*
Y5588819D01*
X7006975Y5554963D02*
X7040831D01*
X6956191Y5741219D02*
X6939263Y5758147D01*
X6905408D01*
X6888480Y5741219D01*
Y5673508D01*
X6905408Y5656580D01*
X6939263D01*
X6956191Y5673508D01*
X6990047Y5758147D02*
X7057759D01*
Y5741219D01*
X6990047Y5673508D01*
Y5656580D01*
X4490753Y1033780D02*
X4575392D01*
X4592320Y1050708D01*
Y1084563D01*
X4575392Y1101491D01*
X4490753D01*
X4592320Y1186131D02*
X4490753D01*
X4541537Y1135347D01*
Y1203059D01*
X2501800Y1539027D02*
Y1454388D01*
X2518728Y1437460D01*
X2552583D01*
X2569511Y1454388D01*
Y1539027D01*
X2603367Y1522100D02*
X2620295Y1539027D01*
X2654151D01*
X2671078Y1522100D01*
Y1505171D01*
X2654151Y1488244D01*
X2637223D01*
X2654151D01*
X2671078Y1471316D01*
Y1454388D01*
X2654151Y1437460D01*
X2620295D01*
X2603367Y1454388D01*
X7815580Y4640547D02*
Y4555908D01*
X7832508Y4538980D01*
X7866363D01*
X7883291Y4555908D01*
Y4640547D01*
X7917147Y4538980D02*
X7951003D01*
X7934075D01*
Y4640547D01*
X7917147Y4623619D01*
X5161280Y1351280D02*
Y1452847D01*
X5212063D01*
X5228991Y1435919D01*
Y1402063D01*
X5212063Y1385136D01*
X5161280D01*
X5195136D02*
X5228991Y1351280D01*
X5330559D02*
X5262847D01*
X5330559Y1418991D01*
Y1435919D01*
X5313631Y1452847D01*
X5279775D01*
X5262847Y1435919D01*
X5432126Y1452847D02*
X5398270Y1435919D01*
X5364414Y1402063D01*
Y1368208D01*
X5381342Y1351280D01*
X5415198D01*
X5432126Y1368208D01*
Y1385136D01*
X5415198Y1402063D01*
X5364414D01*
X5161280Y1097280D02*
Y1198847D01*
X5212063D01*
X5228991Y1181919D01*
Y1148063D01*
X5212063Y1131136D01*
X5161280D01*
X5195136D02*
X5228991Y1097280D01*
X5330559D02*
X5262847D01*
X5330559Y1164991D01*
Y1181919D01*
X5313631Y1198847D01*
X5279775D01*
X5262847Y1181919D01*
X5432126Y1198847D02*
X5364414D01*
Y1148063D01*
X5398270Y1164991D01*
X5415198D01*
X5432126Y1148063D01*
Y1114208D01*
X5415198Y1097280D01*
X5381342D01*
X5364414Y1114208D01*
X4577080Y4069080D02*
Y4170647D01*
X4627863D01*
X4644791Y4153719D01*
Y4119863D01*
X4627863Y4102936D01*
X4577080D01*
X4610936D02*
X4644791Y4069080D01*
X4746359D02*
X4678647D01*
X4746359Y4136791D01*
Y4153719D01*
X4729431Y4170647D01*
X4695575D01*
X4678647Y4153719D01*
X4780214D02*
X4797142Y4170647D01*
X4830998D01*
X4847926Y4153719D01*
Y4136791D01*
X4830998Y4119863D01*
X4814070D01*
X4830998D01*
X4847926Y4102936D01*
Y4086008D01*
X4830998Y4069080D01*
X4797142D01*
X4780214Y4086008D01*
X5407660Y2633980D02*
X5306093D01*
Y2684763D01*
X5323021Y2701691D01*
X5356877D01*
X5373804Y2684763D01*
Y2633980D01*
Y2667836D02*
X5407660Y2701691D01*
Y2803259D02*
Y2735547D01*
X5339949Y2803259D01*
X5323021D01*
X5306093Y2786331D01*
Y2752475D01*
X5323021Y2735547D01*
Y2837114D02*
X5306093Y2854042D01*
Y2887898D01*
X5323021Y2904826D01*
X5390732D01*
X5407660Y2887898D01*
Y2854042D01*
X5390732Y2837114D01*
X5323021D01*
X5709920Y3141980D02*
X5608353D01*
Y3192763D01*
X5625281Y3209691D01*
X5659137D01*
X5676064Y3192763D01*
Y3141980D01*
Y3175836D02*
X5709920Y3209691D01*
Y3243547D02*
Y3277403D01*
Y3260475D01*
X5608353D01*
X5625281Y3243547D01*
X5692992Y3328187D02*
X5709920Y3345114D01*
Y3378970D01*
X5692992Y3395898D01*
X5625281D01*
X5608353Y3378970D01*
Y3345114D01*
X5625281Y3328187D01*
X5642209D01*
X5659137Y3345114D01*
Y3395898D01*
X5125720Y2037080D02*
X5024153D01*
Y2087863D01*
X5041081Y2104791D01*
X5074937D01*
X5091864Y2087863D01*
Y2037080D01*
Y2070936D02*
X5125720Y2104791D01*
Y2138647D02*
Y2172503D01*
Y2155575D01*
X5024153D01*
X5041081Y2138647D01*
Y2223287D02*
X5024153Y2240214D01*
Y2274070D01*
X5041081Y2290998D01*
X5058009D01*
X5074937Y2274070D01*
X5091864Y2290998D01*
X5108792D01*
X5125720Y2274070D01*
Y2240214D01*
X5108792Y2223287D01*
X5091864D01*
X5074937Y2240214D01*
X5058009Y2223287D01*
X5041081D01*
X5074937Y2240214D02*
Y2274070D01*
X4668520Y2037080D02*
X4566953D01*
Y2087863D01*
X4583881Y2104791D01*
X4617737D01*
X4634664Y2087863D01*
Y2037080D01*
Y2070936D02*
X4668520Y2104791D01*
Y2138647D02*
Y2172503D01*
Y2155575D01*
X4566953D01*
X4583881Y2138647D01*
X4566953Y2223287D02*
Y2290998D01*
X4583881D01*
X4651592Y2223287D01*
X4668520D01*
X4897120Y2037080D02*
X4795553D01*
Y2087863D01*
X4812481Y2104791D01*
X4846337D01*
X4863264Y2087863D01*
Y2037080D01*
Y2070936D02*
X4897120Y2104791D01*
Y2138647D02*
Y2172503D01*
Y2155575D01*
X4795553D01*
X4812481Y2138647D01*
X4795553Y2290998D02*
X4812481Y2257142D01*
X4846337Y2223287D01*
X4880192D01*
X4897120Y2240214D01*
Y2274070D01*
X4880192Y2290998D01*
X4863264D01*
X4846337Y2274070D01*
Y2223287D01*
X1290320Y1026964D02*
X1188753D01*
Y1077748D01*
X1205681Y1094675D01*
X1239537D01*
X1256464Y1077748D01*
Y1026964D01*
Y1060820D02*
X1290320Y1094675D01*
Y1196243D02*
Y1128531D01*
X1222609Y1196243D01*
X1205681D01*
X1188753Y1179315D01*
Y1145459D01*
X1205681Y1128531D01*
X1290320Y1230099D02*
Y1263954D01*
Y1247026D01*
X1188753D01*
X1205681Y1230099D01*
X6736080Y5339080D02*
Y5440647D01*
X6786863D01*
X6803791Y5423719D01*
Y5389863D01*
X6786863Y5372936D01*
X6736080D01*
X6769936D02*
X6803791Y5339080D01*
X6837647D02*
X6871503D01*
X6854575D01*
Y5440647D01*
X6837647Y5423719D01*
X6922287D02*
X6939214Y5440647D01*
X6973070D01*
X6989998Y5423719D01*
Y5406791D01*
X6973070Y5389863D01*
X6956142D01*
X6973070D01*
X6989998Y5372936D01*
Y5356008D01*
X6973070Y5339080D01*
X6939214D01*
X6922287Y5356008D01*
X6649720Y5364480D02*
X6548153D01*
Y5415263D01*
X6565081Y5432191D01*
X6598937D01*
X6615864Y5415263D01*
Y5364480D01*
Y5398336D02*
X6649720Y5432191D01*
Y5466047D02*
Y5499903D01*
Y5482975D01*
X6548153D01*
X6565081Y5466047D01*
X6649720Y5618398D02*
Y5550687D01*
X6582009Y5618398D01*
X6565081D01*
X6548153Y5601470D01*
Y5567614D01*
X6565081Y5550687D01*
X8563485Y4589291D02*
Y4690859D01*
X8614269D01*
X8631196Y4673931D01*
Y4640075D01*
X8614269Y4623147D01*
X8563485D01*
X8597341D02*
X8631196Y4589291D01*
X8665052D02*
X8698908D01*
X8681980D01*
Y4690859D01*
X8665052Y4673931D01*
X8749692Y4589291D02*
X8783547D01*
X8766620D01*
Y4690859D01*
X8749692Y4673931D01*
X8120380Y6215380D02*
Y6316947D01*
X8171163D01*
X8188091Y6300019D01*
Y6266163D01*
X8171163Y6249236D01*
X8120380D01*
X8154236D02*
X8188091Y6215380D01*
X8221947D02*
X8255803D01*
X8238875D01*
Y6316947D01*
X8221947Y6300019D01*
X8306587D02*
X8323514Y6316947D01*
X8357370D01*
X8374298Y6300019D01*
Y6232308D01*
X8357370Y6215380D01*
X8323514D01*
X8306587Y6232308D01*
Y6300019D01*
X8563485Y4132091D02*
Y4233659D01*
X8614269D01*
X8631196Y4216731D01*
Y4182875D01*
X8614269Y4165947D01*
X8563485D01*
X8597341D02*
X8631196Y4132091D01*
X8665052Y4149019D02*
X8681980Y4132091D01*
X8715836D01*
X8732764Y4149019D01*
Y4216731D01*
X8715836Y4233659D01*
X8681980D01*
X8665052Y4216731D01*
Y4199803D01*
X8681980Y4182875D01*
X8732764D01*
X6192520Y5364480D02*
X6090953D01*
Y5415263D01*
X6107881Y5432191D01*
X6141737D01*
X6158664Y5415263D01*
Y5364480D01*
Y5398336D02*
X6192520Y5432191D01*
X6107881Y5466047D02*
X6090953Y5482975D01*
Y5516831D01*
X6107881Y5533759D01*
X6124809D01*
X6141737Y5516831D01*
X6158664Y5533759D01*
X6175592D01*
X6192520Y5516831D01*
Y5482975D01*
X6175592Y5466047D01*
X6158664D01*
X6141737Y5482975D01*
X6124809Y5466047D01*
X6107881D01*
X6141737Y5482975D02*
Y5516831D01*
X8000196Y5656580D02*
Y5758147D01*
X8050979D01*
X8067907Y5741219D01*
Y5707363D01*
X8050979Y5690436D01*
X8000196D01*
X8034051D02*
X8067907Y5656580D01*
X8101763Y5758147D02*
X8169474D01*
Y5741219D01*
X8101763Y5673508D01*
Y5656580D01*
X6016441Y4780280D02*
Y4881847D01*
X6067224D01*
X6084152Y4864919D01*
Y4831063D01*
X6067224Y4814136D01*
X6016441D01*
X6050296D02*
X6084152Y4780280D01*
X6185719Y4881847D02*
X6151863Y4864919D01*
X6118008Y4831063D01*
Y4797208D01*
X6134936Y4780280D01*
X6168791D01*
X6185719Y4797208D01*
Y4814136D01*
X6168791Y4831063D01*
X6118008D01*
X9149080Y4450080D02*
Y4551647D01*
X9199863D01*
X9216791Y4534719D01*
Y4500863D01*
X9199863Y4483936D01*
X9149080D01*
X9182936D02*
X9216791Y4450080D01*
X9318359Y4551647D02*
X9250647D01*
Y4500863D01*
X9284503Y4517791D01*
X9301431D01*
X9318359Y4500863D01*
Y4467008D01*
X9301431Y4450080D01*
X9267575D01*
X9250647Y4467008D01*
X5900420Y2494280D02*
Y2595847D01*
X5951203D01*
X5968131Y2578919D01*
Y2545063D01*
X5951203Y2528136D01*
X5900420D01*
X5934276D02*
X5968131Y2494280D01*
X6052771D02*
Y2595847D01*
X6001987Y2545063D01*
X6069699D01*
X8563485Y3903491D02*
Y4005059D01*
X8614269D01*
X8631196Y3988131D01*
Y3954275D01*
X8614269Y3937347D01*
X8563485D01*
X8597341D02*
X8631196Y3903491D01*
X8732764D02*
X8665052D01*
X8732764Y3971203D01*
Y3988131D01*
X8715836Y4005059D01*
X8681980D01*
X8665052Y3988131D01*
X5095240Y276008D02*
X5196807D01*
Y225224D01*
X5179879Y208297D01*
X5146023D01*
X5129096Y225224D01*
Y276008D01*
X5095240Y174441D02*
Y140585D01*
Y157513D01*
X5196807D01*
X5179879Y174441D01*
X5196807Y22090D02*
Y89801D01*
X5146023D01*
X5162951Y55946D01*
Y39018D01*
X5146023Y22090D01*
X5112168D01*
X5095240Y39018D01*
Y72873D01*
X5112168Y89801D01*
X868680Y1571375D02*
Y1469808D01*
X936391D01*
X1037959Y1571375D02*
X970247D01*
Y1469808D01*
X1037959D01*
X970247Y1520591D02*
X1004103D01*
X1071814Y1571375D02*
Y1469808D01*
X1122598D01*
X1139526Y1486736D01*
Y1554447D01*
X1122598Y1571375D01*
X1071814D01*
X1173382Y1452880D02*
X1241093D01*
X1342660Y1554447D02*
X1325732Y1571375D01*
X1291877D01*
X1274949Y1554447D01*
Y1537519D01*
X1291877Y1520591D01*
X1325732D01*
X1342660Y1503663D01*
Y1486736D01*
X1325732Y1469808D01*
X1291877D01*
X1274949Y1486736D01*
X1376516Y1469808D02*
X1410372D01*
X1393444D01*
Y1571375D01*
X1376516Y1554447D01*
X7777447Y2725420D02*
X7675880D01*
Y2657709D01*
Y2623853D02*
Y2589997D01*
Y2606925D01*
X7777447D01*
X7760519Y2623853D01*
X3596607Y902569D02*
Y936424D01*
Y919497D01*
X3511968D01*
X3495040Y936424D01*
Y953352D01*
X3511968Y970280D01*
X3495040Y868713D02*
Y834857D01*
Y851785D01*
X3596607D01*
X3579679Y868713D01*
X5914791Y881347D02*
X5847080D01*
Y830563D01*
X5880936D01*
X5847080D01*
Y779780D01*
X5948647D02*
X5982503D01*
X5965575D01*
Y881347D01*
X5948647Y864419D01*
X7627653Y5021580D02*
X7729220D01*
Y5072363D01*
X7712292Y5089291D01*
X7644581D01*
X7627653Y5072363D01*
Y5021580D01*
X7729220Y5173931D02*
X7627653D01*
X7678437Y5123147D01*
Y5190859D01*
X7805453Y5021580D02*
X7907020D01*
Y5072363D01*
X7890092Y5089291D01*
X7822381D01*
X7805453Y5072363D01*
Y5021580D01*
X7822381Y5123147D02*
X7805453Y5140075D01*
Y5173931D01*
X7822381Y5190859D01*
X7839309D01*
X7856237Y5173931D01*
Y5157003D01*
Y5173931D01*
X7873164Y5190859D01*
X7890092D01*
X7907020Y5173931D01*
Y5140075D01*
X7890092Y5123147D01*
X7713980Y3675347D02*
Y3573780D01*
X7764763D01*
X7781691Y3590708D01*
Y3658419D01*
X7764763Y3675347D01*
X7713980D01*
X7815547Y3573780D02*
X7849403D01*
X7832475D01*
Y3675347D01*
X7815547Y3658419D01*
X3821881Y885591D02*
X3804953Y868663D01*
Y834808D01*
X3821881Y817880D01*
X3889592D01*
X3906520Y834808D01*
Y868663D01*
X3889592Y885591D01*
X3906520Y987159D02*
Y919447D01*
X3838809Y987159D01*
X3821881D01*
X3804953Y970231D01*
Y936375D01*
X3821881Y919447D01*
X3804953Y1021014D02*
Y1088726D01*
X3821881D01*
X3889592Y1021014D01*
X3906520D01*
X2333387Y2490019D02*
X2316459Y2506947D01*
X2282604D01*
X2265676Y2490019D01*
Y2422307D01*
X2282604Y2405379D01*
X2316459D01*
X2333387Y2422307D01*
X2434954Y2405379D02*
X2367243D01*
X2434954Y2473091D01*
Y2490019D01*
X2418027Y2506947D01*
X2384171D01*
X2367243Y2490019D01*
X2536522Y2506947D02*
X2468810D01*
Y2456163D01*
X2502666Y2473091D01*
X2519594D01*
X2536522Y2456163D01*
Y2422307D01*
X2519594Y2405379D01*
X2485738D01*
X2468810Y2422307D01*
X3349391Y1562919D02*
X3332463Y1579847D01*
X3298608D01*
X3281680Y1562919D01*
Y1495208D01*
X3298608Y1478280D01*
X3332463D01*
X3349391Y1495208D01*
X3450959Y1478280D02*
X3383247D01*
X3450959Y1545991D01*
Y1562919D01*
X3434031Y1579847D01*
X3400175D01*
X3383247Y1562919D01*
X3535598Y1478280D02*
Y1579847D01*
X3484814Y1529063D01*
X3552526D01*
X1356811Y1094675D02*
X1339883Y1077748D01*
Y1043892D01*
X1356811Y1026964D01*
X1424522D01*
X1441450Y1043892D01*
Y1077748D01*
X1424522Y1094675D01*
X1441450Y1196243D02*
Y1128531D01*
X1373739Y1196243D01*
X1356811D01*
X1339883Y1179315D01*
Y1145459D01*
X1356811Y1128531D01*
Y1230099D02*
X1339883Y1247026D01*
Y1280882D01*
X1356811Y1297810D01*
X1373739D01*
X1390667Y1280882D01*
Y1263954D01*
Y1280882D01*
X1407594Y1297810D01*
X1424522D01*
X1441450Y1280882D01*
Y1247026D01*
X1424522Y1230099D01*
X2015891Y699319D02*
X1998963Y716247D01*
X1965108D01*
X1948180Y699319D01*
Y631608D01*
X1965108Y614680D01*
X1998963D01*
X2015891Y631608D01*
X2117459Y614680D02*
X2049747D01*
X2117459Y682391D01*
Y699319D01*
X2100531Y716247D01*
X2066675D01*
X2049747Y699319D01*
X2219026Y614680D02*
X2151314D01*
X2219026Y682391D01*
Y699319D01*
X2202098Y716247D01*
X2168242D01*
X2151314Y699319D01*
X6336481Y5432191D02*
X6319553Y5415263D01*
Y5381408D01*
X6336481Y5364480D01*
X6404192D01*
X6421120Y5381408D01*
Y5415263D01*
X6404192Y5432191D01*
X6421120Y5466047D02*
Y5499903D01*
Y5482975D01*
X6319553D01*
X6336481Y5466047D01*
Y5550687D02*
X6319553Y5567614D01*
Y5601470D01*
X6336481Y5618398D01*
X6353409D01*
X6370337Y5601470D01*
X6387264Y5618398D01*
X6404192D01*
X6421120Y5601470D01*
Y5567614D01*
X6404192Y5550687D01*
X6387264D01*
X6370337Y5567614D01*
X6353409Y5550687D01*
X6336481D01*
X6370337Y5567614D02*
Y5601470D01*
X6084152Y4636319D02*
X6067224Y4653247D01*
X6033368D01*
X6016441Y4636319D01*
Y4568608D01*
X6033368Y4551680D01*
X6067224D01*
X6084152Y4568608D01*
X6118008Y4551680D02*
X6151863D01*
X6134936D01*
Y4653247D01*
X6118008Y4636319D01*
X6202647Y4653247D02*
X6270359D01*
Y4636319D01*
X6202647Y4568608D01*
Y4551680D01*
X6956191Y5893619D02*
X6939263Y5910547D01*
X6905408D01*
X6888480Y5893619D01*
Y5825908D01*
X6905408Y5808980D01*
X6939263D01*
X6956191Y5825908D01*
X6990047Y5808980D02*
X7023903D01*
X7006975D01*
Y5910547D01*
X6990047Y5893619D01*
X7142398Y5910547D02*
X7108542Y5893619D01*
X7074687Y5859763D01*
Y5825908D01*
X7091614Y5808980D01*
X7125470D01*
X7142398Y5825908D01*
Y5842836D01*
X7125470Y5859763D01*
X7074687D01*
X8631196Y4445331D02*
X8614269Y4462259D01*
X8580413D01*
X8563485Y4445331D01*
Y4377619D01*
X8580413Y4360691D01*
X8614269D01*
X8631196Y4377619D01*
X8665052Y4360691D02*
X8698908D01*
X8681980D01*
Y4462259D01*
X8665052Y4445331D01*
X8817403Y4462259D02*
X8749692D01*
Y4411475D01*
X8783547Y4428403D01*
X8800475D01*
X8817403Y4411475D01*
Y4377619D01*
X8800475Y4360691D01*
X8766620D01*
X8749692Y4377619D01*
X6946081Y4568591D02*
X6929153Y4551663D01*
Y4517808D01*
X6946081Y4500880D01*
X7013792D01*
X7030720Y4517808D01*
Y4551663D01*
X7013792Y4568591D01*
X7030720Y4602447D02*
Y4636303D01*
Y4619375D01*
X6929153D01*
X6946081Y4602447D01*
X7030720Y4737870D02*
X6929153D01*
X6979937Y4687087D01*
Y4754798D01*
X5879281Y5432191D02*
X5862353Y5415263D01*
Y5381408D01*
X5879281Y5364480D01*
X5946992D01*
X5963920Y5381408D01*
Y5415263D01*
X5946992Y5432191D01*
X5963920Y5466047D02*
Y5499903D01*
Y5482975D01*
X5862353D01*
X5879281Y5466047D01*
Y5550687D02*
X5862353Y5567614D01*
Y5601470D01*
X5879281Y5618398D01*
X5896209D01*
X5913137Y5601470D01*
Y5584542D01*
Y5601470D01*
X5930064Y5618398D01*
X5946992D01*
X5963920Y5601470D01*
Y5567614D01*
X5946992Y5550687D01*
X6984181Y1126891D02*
X6967253Y1109963D01*
Y1076108D01*
X6984181Y1059180D01*
X7051892D01*
X7068820Y1076108D01*
Y1109963D01*
X7051892Y1126891D01*
X7068820Y1160747D02*
Y1194603D01*
Y1177675D01*
X6967253D01*
X6984181Y1160747D01*
X7068820Y1313098D02*
Y1245387D01*
X7001109Y1313098D01*
X6984181D01*
X6967253Y1296170D01*
Y1262314D01*
X6984181Y1245387D01*
X7339781Y1126891D02*
X7322853Y1109963D01*
Y1076108D01*
X7339781Y1059180D01*
X7407492D01*
X7424420Y1076108D01*
Y1109963D01*
X7407492Y1126891D01*
X7424420Y1160747D02*
Y1194603D01*
Y1177675D01*
X7322853D01*
X7339781Y1160747D01*
X7424420Y1245387D02*
Y1279242D01*
Y1262314D01*
X7322853D01*
X7339781Y1245387D01*
X7161981Y1126891D02*
X7145053Y1109963D01*
Y1076108D01*
X7161981Y1059180D01*
X7229692D01*
X7246620Y1076108D01*
Y1109963D01*
X7229692Y1126891D01*
X7246620Y1160747D02*
Y1194603D01*
Y1177675D01*
X7145053D01*
X7161981Y1160747D01*
Y1245387D02*
X7145053Y1262314D01*
Y1296170D01*
X7161981Y1313098D01*
X7229692D01*
X7246620Y1296170D01*
Y1262314D01*
X7229692Y1245387D01*
X7161981D01*
X7387991Y3950519D02*
X7371063Y3967447D01*
X7337208D01*
X7320280Y3950519D01*
Y3882808D01*
X7337208Y3865880D01*
X7371063D01*
X7387991Y3882808D01*
X7421847D02*
X7438775Y3865880D01*
X7472631D01*
X7489559Y3882808D01*
Y3950519D01*
X7472631Y3967447D01*
X7438775D01*
X7421847Y3950519D01*
Y3933591D01*
X7438775Y3916663D01*
X7489559D01*
X6590481Y4238391D02*
X6573553Y4221463D01*
Y4187608D01*
X6590481Y4170680D01*
X6658192D01*
X6675120Y4187608D01*
Y4221463D01*
X6658192Y4238391D01*
X6573553Y4339959D02*
X6590481Y4306103D01*
X6624337Y4272247D01*
X6658192D01*
X6675120Y4289175D01*
Y4323031D01*
X6658192Y4339959D01*
X6641264D01*
X6624337Y4323031D01*
Y4272247D01*
X8631196Y3760019D02*
X8614269Y3776947D01*
X8580413D01*
X8563485Y3760019D01*
Y3692308D01*
X8580413Y3675380D01*
X8614269D01*
X8631196Y3692308D01*
X8732764Y3776947D02*
X8665052D01*
Y3726163D01*
X8698908Y3743091D01*
X8715836D01*
X8732764Y3726163D01*
Y3692308D01*
X8715836Y3675380D01*
X8681980D01*
X8665052Y3692308D01*
X3072581Y5724291D02*
X3055653Y5707363D01*
Y5673508D01*
X3072581Y5656580D01*
X3140292D01*
X3157220Y5673508D01*
Y5707363D01*
X3140292Y5724291D01*
X3157220Y5808931D02*
X3055653D01*
X3106437Y5758147D01*
Y5825859D01*
X3313881Y5724291D02*
X3296953Y5707363D01*
Y5673508D01*
X3313881Y5656580D01*
X3381592D01*
X3398520Y5673508D01*
Y5707363D01*
X3381592Y5724291D01*
X3313881Y5758147D02*
X3296953Y5775075D01*
Y5808931D01*
X3313881Y5825859D01*
X3330809D01*
X3347737Y5808931D01*
Y5792003D01*
Y5808931D01*
X3364664Y5825859D01*
X3381592D01*
X3398520Y5808931D01*
Y5775075D01*
X3381592Y5758147D01*
X8631196Y3353619D02*
X8614269Y3370547D01*
X8580413D01*
X8563485Y3353619D01*
Y3285908D01*
X8580413Y3268980D01*
X8614269D01*
X8631196Y3285908D01*
X8732764Y3268980D02*
X8665052D01*
X8732764Y3336691D01*
Y3353619D01*
X8715836Y3370547D01*
X8681980D01*
X8665052Y3353619D01*
X8631196Y3074219D02*
X8614269Y3091147D01*
X8580413D01*
X8563485Y3074219D01*
Y3006508D01*
X8580413Y2989580D01*
X8614269D01*
X8631196Y3006508D01*
X8665052Y2989580D02*
X8698908D01*
X8681980D01*
Y3091147D01*
X8665052Y3074219D01*
D82*
X3657502Y3225799D02*
D03*
X3962501D02*
D03*
%TF.MD5,bd7a492c4d613735ec54fc696356a944*%
M02*
