%TF.GenerationSoftware,Altium Limited,Altium Designer,25.4.2 (15)*%
G04 Layer_Color=0*
%FSLAX45Y45*%
%MOMM*%
%TF.SameCoordinates,6C6A8B56-62B0-443B-98C8-0AEE6F0B4FCF*%
%TF.FilePolarity,Positive*%
%TF.FileFunction,Plated,1,2,PTH,Drill*%
%TF.Part,Single*%
G01*
G75*
%TA.AperFunction,ComponentDrill*%
%ADD90C,0.78740*%
%ADD91C,0.91440*%
%ADD92C,0.88900*%
%ADD93C,1.50000*%
%TA.AperFunction,OtherDrill,Pad Free-14 (25.119mm,50.416mm)*%
%ADD94C,3.20000*%
%TA.AperFunction,OtherDrill,Pad Free-14 (85.119mm,50.416mm)*%
%ADD95C,3.20000*%
%TA.AperFunction,OtherDrill,Pad Free-14 (25.119mm,8.016mm)*%
%ADD96C,3.20000*%
%TA.AperFunction,OtherDrill,Pad Free-14 (85.119mm,8.016mm)*%
%ADD97C,3.20000*%
%TA.AperFunction,ViaDrill,NotFilled*%
%ADD98C,0.71120*%
%ADD99C,0.35560*%
D90*
X7187400Y1081100D02*
D03*
X7847800Y573100D02*
D03*
Y1081100D02*
D03*
X7187400Y573100D02*
D03*
D91*
X2108200Y2387600D02*
D03*
Y2131060D02*
D03*
X4254500Y3594100D02*
D03*
Y3337560D02*
D03*
D92*
X6985000Y2209800D02*
D03*
D93*
X1320000Y2445000D02*
D03*
Y3395000D02*
D03*
Y545001D02*
D03*
Y5295000D02*
D03*
Y1495001D02*
D03*
Y4345000D02*
D03*
D94*
X2511900Y5041600D02*
D03*
D95*
X8511900D02*
D03*
D96*
X2511900Y801600D02*
D03*
D97*
X8511900D02*
D03*
D98*
X4648200Y2870200D02*
D03*
X2463800Y2286000D02*
D03*
X7416800Y1600200D02*
D03*
X7721600D02*
D03*
X8051800D02*
D03*
X8204200Y4445000D02*
D03*
X8559800Y4165600D02*
D03*
X8204200D02*
D03*
X7848600D02*
D03*
Y4445000D02*
D03*
Y4749800D02*
D03*
X8280400Y2641600D02*
D03*
X8026400D02*
D03*
X8280400Y2387600D02*
D03*
X8026400D02*
D03*
X8534400Y2108200D02*
D03*
Y2387600D02*
D03*
Y2641600D02*
D03*
X8280400Y2108200D02*
D03*
X5091900Y3290900D02*
D03*
X5193500Y2351100D02*
D03*
X4939500Y2414600D02*
D03*
D99*
X4775200Y3683000D02*
D03*
X4927600Y3416300D02*
D03*
X5207000Y2925424D02*
D03*
X4927600Y3670300D02*
D03*
X5143500Y977900D02*
D03*
X5320500Y3519500D02*
D03*
X5511000D02*
D03*
Y3710000D02*
D03*
X6171400Y115900D02*
D03*
X5384000Y128600D02*
D03*
X6387300Y1690700D02*
D03*
X5130000Y2630500D02*
D03*
X5028400Y2719400D02*
D03*
X4037800Y3811600D02*
D03*
X5811089Y1408180D02*
D03*
X6855020Y4078300D02*
D03*
X5328194Y3712826D02*
D03*
X4050500Y4560900D02*
D03*
Y4421200D02*
D03*
X5676100Y4395800D02*
D03*
X5563978Y4366042D02*
D03*
X5777700Y611200D02*
D03*
X5066500Y458800D02*
D03*
X5365784Y4167847D02*
D03*
X6158700Y2846400D02*
D03*
X5115120Y4040200D02*
D03*
%TF.MD5,f437cf87b32ec44a301e6eeeb0bf2e81*%
M02*
