%TF.GenerationSoftware,Altium Limited,Altium Designer,25.4.2 (15)*%
G04 Layer_Color=128*
%FSLAX45Y45*%
%MOMM*%
%TF.SameCoordinates,6C6A8B56-62B0-443B-98C8-0AEE6F0B4FCF*%
%TF.FilePolarity,Positive*%
%TF.FileFunction,Drillmap*%
%TF.Part,Single*%
G01*
G75*
%TA.AperFunction,NonConductor*%
%ADD52C,0.12700*%
D52*
X7148030Y1081100D02*
X7226770D01*
X7187400Y1041730D02*
Y1120470D01*
X7808430Y573100D02*
X7887170D01*
X7847800Y533730D02*
Y612470D01*
X7808430Y1081100D02*
X7887170D01*
X7847800Y1041730D02*
Y1120470D01*
X7148030Y573100D02*
X7226770D01*
X7187400Y533730D02*
Y612470D01*
X2062480Y2387600D02*
X2153920D01*
X2108200Y2341880D02*
Y2433320D01*
X2062480Y2131060D02*
X2153920D01*
X2108200Y2085340D02*
Y2176780D01*
X4208780Y3594100D02*
X4300220D01*
X4254500Y3548380D02*
Y3639820D01*
X4208780Y3337560D02*
X4300220D01*
X4254500Y3291840D02*
Y3383280D01*
X6940550Y2209800D02*
X7029450D01*
X6985000Y2165350D02*
Y2254250D01*
X1245000Y2445000D02*
X1395000D01*
X1320000Y2370001D02*
Y2520000D01*
X1245000Y3395000D02*
X1395000D01*
X1320000Y3320000D02*
Y3470000D01*
X1245000Y545001D02*
X1395000D01*
X1320000Y470001D02*
Y620001D01*
X1245000Y5295000D02*
X1395000D01*
X1320000Y5220000D02*
Y5370000D01*
X1245000Y1495001D02*
X1395000D01*
X1320000Y1420001D02*
Y1570000D01*
X1245000Y4345000D02*
X1395000D01*
X1320000Y4270000D02*
Y4420000D01*
X2351900Y5041600D02*
X2671900D01*
X2511900Y4881600D02*
Y5201600D01*
X8351900Y5041600D02*
X8671900D01*
X8511900Y4881600D02*
Y5201600D01*
X2351900Y801600D02*
X2671900D01*
X2511900Y641600D02*
Y961600D01*
X8351900Y801600D02*
X8671900D01*
X8511900Y641600D02*
Y961600D01*
X4612640Y2870200D02*
X4683760D01*
X4648200Y2834640D02*
Y2905760D01*
X2428240Y2286000D02*
X2499360D01*
X2463800Y2250440D02*
Y2321560D01*
X7381240Y1600200D02*
X7452360D01*
X7416800Y1564640D02*
Y1635760D01*
X7686040Y1600200D02*
X7757160D01*
X7721600Y1564640D02*
Y1635760D01*
X8016240Y1600200D02*
X8087360D01*
X8051800Y1564640D02*
Y1635760D01*
X8168640Y4445000D02*
X8239760D01*
X8204200Y4409440D02*
Y4480560D01*
X8524240Y4165600D02*
X8595360D01*
X8559800Y4130040D02*
Y4201160D01*
X8168640Y4165600D02*
X8239760D01*
X8204200Y4130040D02*
Y4201160D01*
X7813040Y4165600D02*
X7884160D01*
X7848600Y4130040D02*
Y4201160D01*
X7813040Y4445000D02*
X7884160D01*
X7848600Y4409440D02*
Y4480560D01*
X7813040Y4749800D02*
X7884160D01*
X7848600Y4714240D02*
Y4785360D01*
X8244840Y2641600D02*
X8315960D01*
X8280400Y2606040D02*
Y2677160D01*
X7990840Y2641600D02*
X8061960D01*
X8026400Y2606040D02*
Y2677160D01*
X8244840Y2387600D02*
X8315960D01*
X8280400Y2352040D02*
Y2423160D01*
X7990840Y2387600D02*
X8061960D01*
X8026400Y2352040D02*
Y2423160D01*
X8498840Y2108200D02*
X8569960D01*
X8534400Y2072640D02*
Y2143760D01*
X8498840Y2387600D02*
X8569960D01*
X8534400Y2352040D02*
Y2423160D01*
X8498840Y2641600D02*
X8569960D01*
X8534400Y2606040D02*
Y2677160D01*
X8244840Y2108200D02*
X8315960D01*
X8280400Y2072640D02*
Y2143760D01*
X4757420Y3683000D02*
X4792980D01*
X4775200Y3665220D02*
Y3700780D01*
X4909820Y3416300D02*
X4945380D01*
X4927600Y3398520D02*
Y3434080D01*
X5189220Y2925424D02*
X5224780D01*
X5207000Y2907644D02*
Y2943204D01*
X4909820Y3670300D02*
X4945380D01*
X4927600Y3652520D02*
Y3688080D01*
X5125720Y977900D02*
X5161280D01*
X5143500Y960120D02*
Y995680D01*
X5302720Y3519500D02*
X5338280D01*
X5320500Y3501720D02*
Y3537280D01*
X5493220Y3519500D02*
X5528780D01*
X5511000Y3501720D02*
Y3537280D01*
X5493220Y3710000D02*
X5528780D01*
X5511000Y3692220D02*
Y3727780D01*
X6153620Y115900D02*
X6189180D01*
X6171400Y98120D02*
Y133680D01*
X5366220Y128600D02*
X5401780D01*
X5384000Y110820D02*
Y146380D01*
X6369520Y1690700D02*
X6405080D01*
X6387300Y1672920D02*
Y1708480D01*
X5112220Y2630500D02*
X5147780D01*
X5130000Y2612720D02*
Y2648280D01*
X5010620Y2719400D02*
X5046180D01*
X5028400Y2701620D02*
Y2737180D01*
X4020020Y3811600D02*
X4055580D01*
X4037800Y3793820D02*
Y3829380D01*
X5056340Y3290900D02*
X5127460D01*
X5091900Y3255340D02*
Y3326460D01*
X5157940Y2351100D02*
X5229060D01*
X5193500Y2315540D02*
Y2386660D01*
X4903940Y2414600D02*
X4975060D01*
X4939500Y2379040D02*
Y2450160D01*
X5793309Y1408180D02*
X5828869D01*
X5811089Y1390400D02*
Y1425960D01*
X6837240Y4078300D02*
X6872800D01*
X6855020Y4060520D02*
Y4096080D01*
X5310414Y3712826D02*
X5345974D01*
X5328194Y3695046D02*
Y3730606D01*
X4032720Y4560900D02*
X4068280D01*
X4050500Y4543120D02*
Y4578680D01*
X4032720Y4421200D02*
X4068280D01*
X4050500Y4403420D02*
Y4438980D01*
X5658320Y4395800D02*
X5693880D01*
X5676100Y4378020D02*
Y4413580D01*
X5546198Y4366042D02*
X5581758D01*
X5563978Y4348262D02*
Y4383822D01*
X5759920Y611200D02*
X5795480D01*
X5777700Y593420D02*
Y628980D01*
X5048720Y458800D02*
X5084280D01*
X5066500Y441020D02*
Y476580D01*
X5348004Y4167847D02*
X5383564D01*
X5365784Y4150067D02*
Y4185627D01*
X6140920Y2846400D02*
X6176480D01*
X6158700Y2828620D02*
Y2864180D01*
X5097340Y4040200D02*
X5132900D01*
X5115120Y4022420D02*
Y4057980D01*
%TF.MD5,2c6b16d65eb1477f52600f9ea2d94391*%
M02*
