%TF.GenerationSoftware,Altium Limited,Altium Designer,25.4.2 (15)*%
G04 Layer_Color=32896*
%FSLAX45Y45*%
%MOMM*%
%TF.SameCoordinates,6C6A8B56-62B0-443B-98C8-0AEE6F0B4FCF*%
%TF.FilePolarity,Positive*%
%TF.FileFunction,Legend,Bot*%
%TF.Part,Single*%
G01*
G75*
%TA.AperFunction,NonConductor*%
%ADD46C,0.17780*%
%ADD47C,0.25000*%
%ADD49C,0.20000*%
%ADD50C,0.25400*%
%ADD51C,0.10160*%
%ADD54C,0.30480*%
%ADD56C,0.15240*%
%ADD57C,0.06447*%
%ADD58C,0.16000*%
%ADD59C,0.27940*%
%ADD60R,3.81000X3.81000*%
G36*
X2250440Y2387600D02*
X2313940Y2451100D01*
Y2324100D01*
X2250440Y2387600D01*
D02*
G37*
D46*
X7807160Y1119200D02*
X7809700Y1116660D01*
X1983740Y2273300D02*
X2235200D01*
X1981200Y2006600D02*
X2235200D01*
X1981200D02*
Y2514600D01*
X2235200D01*
Y2006600D02*
Y2514600D01*
D47*
X6056900Y827942D02*
G03*
X6056900Y827942I-12500J0D01*
G01*
D49*
X8458800Y2829000D02*
X8778800D01*
X7578800D02*
X7888800D01*
X8468800Y4029000D02*
X8778800D01*
X7578800D02*
X7888800D01*
X7578800Y2829000D02*
Y4029000D01*
X8778800Y2829000D02*
Y4029000D01*
X6072200Y622441D02*
X6372200D01*
X6072200Y627441D02*
X6372200D01*
X6072200Y622441D02*
Y627441D01*
X6372200Y622441D02*
Y627441D01*
D50*
X0Y0D02*
Y5840000D01*
Y0D02*
X1780000D01*
X0Y5840000D02*
X1780000D01*
Y0D02*
Y5840000D01*
D51*
X5358600Y616800D02*
G03*
X5358600Y616800I-88900J0D01*
G01*
X5269700Y553300D02*
Y578700D01*
X5333200D01*
X5269700D02*
X5333200Y642200D01*
X5269700D02*
X5333200D01*
X5269700D02*
Y667600D01*
X5206200Y578700D02*
X5269700D01*
X5206200Y642200D02*
X5269700Y578700D01*
X5206200Y642200D02*
X5269700D01*
Y667600D01*
X5091900Y726020D02*
Y916520D01*
X5447500Y726020D02*
Y916520D01*
Y319620D02*
Y510120D01*
X5091900Y319620D02*
Y510120D01*
Y916520D02*
X5447500D01*
X5091900Y319620D02*
X5447500D01*
D54*
X7489591Y1231081D02*
X7472663Y1214153D01*
X7438808D01*
X7421880Y1231081D01*
Y1248009D01*
X7438808Y1264937D01*
X7472663D01*
X7489591Y1281864D01*
Y1298792D01*
X7472663Y1315720D01*
X7438808D01*
X7421880Y1298792D01*
X7523447Y1214153D02*
Y1315720D01*
X7557303Y1281864D01*
X7591159Y1315720D01*
Y1214153D01*
X7625014Y1315720D02*
X7658870D01*
X7641942D01*
Y1214153D01*
X7625014Y1231081D01*
X1828816Y2150528D02*
Y2184383D01*
Y2167456D01*
X1913456D01*
X1930383Y2184383D01*
Y2201311D01*
X1913456Y2218239D01*
X1930383Y2048961D02*
Y2116672D01*
X1862672Y2048961D01*
X1845744D01*
X1828816Y2065888D01*
Y2099744D01*
X1845744Y2116672D01*
X5130167Y1016660D02*
Y1118227D01*
X5197878D01*
X5299446Y1016660D02*
X5231734D01*
Y1118227D01*
X5299446D01*
X5231734Y1067444D02*
X5265590D01*
X5333302Y1016660D02*
Y1118227D01*
X5384085D01*
X5401013Y1101300D01*
Y1033588D01*
X5384085Y1016660D01*
X5333302D01*
X5502580Y1118227D02*
X5434869D01*
X5502580Y1050516D01*
Y1033588D01*
X5485652Y1016660D01*
X5451797D01*
X5434869Y1033588D01*
X5994603Y991260D02*
Y1092827D01*
X6062314D01*
X6163881Y991260D02*
X6096170D01*
Y1092827D01*
X6163881D01*
X6096170Y1042044D02*
X6130026D01*
X6197737Y991260D02*
Y1092827D01*
X6248521D01*
X6265448Y1075900D01*
Y1008188D01*
X6248521Y991260D01*
X6197737D01*
X6299304Y1092827D02*
X6333160D01*
X6316232D01*
Y991260D01*
X6299304Y1008188D01*
X1706148Y6033980D02*
X1723076Y6050908D01*
X1756932D01*
X1773860Y6033980D01*
Y5966268D01*
X1756932Y5949340D01*
X1723076D01*
X1706148Y5966268D01*
X1672293Y5949340D02*
X1638437D01*
X1655365D01*
Y6050908D01*
X1672293Y6033980D01*
X7841920Y4181967D02*
Y4080400D01*
X7774208D01*
X7740353D02*
X7706497D01*
X7723425D01*
Y4181967D01*
X7740353Y4165039D01*
D56*
X7644600Y814400D02*
G03*
X7644600Y814400I-127000J0D01*
G01*
X7314400Y573100D02*
X7708100D01*
X7809700Y712800D02*
Y954100D01*
X7316940Y1081100D02*
X7708100D01*
X7238200Y712800D02*
Y954100D01*
D57*
X6366738Y2611353D02*
X6489224D01*
X6631051D02*
X6921152D01*
X6959832D02*
X7088766D01*
X5954150D02*
X6083084D01*
X7198359D02*
X7320846D01*
X6179784D02*
X6302271D01*
X5386841D02*
X5548008D01*
X5967044Y2521100D02*
X6315164D01*
X5967044Y2527547D02*
X6315164D01*
X5967044Y2533993D02*
X6315164D01*
X5967044Y2540440D02*
X6315164D01*
X5960596Y2546887D02*
X6315164D01*
X5960596Y2553333D02*
X6315164D01*
X5967044Y2508208D02*
X6315164D01*
X5967044Y2495313D02*
X6308717D01*
X5967044Y2501761D02*
X6308717D01*
X5967044Y2514655D02*
X6315164D01*
X6366738Y2617800D02*
X6489224D01*
X6366738Y2624247D02*
X6489224D01*
X6366738Y2630694D02*
X6482777D01*
X6366738Y2637140D02*
X6482777D01*
X6360291Y2643587D02*
X6482777D01*
X6360291Y2650034D02*
X6482777D01*
X6360291Y2656480D02*
X6482777D01*
X6360291Y2662927D02*
X6476331D01*
X6360291Y2669374D02*
X6476331D01*
X6353844Y2675820D02*
X6476331D01*
X6353844Y2682268D02*
X6476331D01*
X6353844Y2688714D02*
X6476331D01*
X6353844Y2695160D02*
X6469884D01*
X6353844Y2701607D02*
X6469884D01*
X6353844Y2708054D02*
X6469884D01*
X6347397Y2714500D02*
X6469884D01*
X6347397Y2720947D02*
X6469884D01*
X6347397Y2727394D02*
X6469884D01*
X6347397Y2733840D02*
X6469884D01*
X6347397Y2740287D02*
X6469884D01*
X6340951Y2746734D02*
X6469884D01*
X6340951Y2753181D02*
X6463437D01*
X6340951Y2759628D02*
X6463437D01*
X6340951Y2766074D02*
X6463437D01*
X6340951Y2772521D02*
X6463437D01*
X6598818Y2643587D02*
X6785772D01*
X6592372Y2650034D02*
X6766432D01*
X6592372Y2656480D02*
X6740645D01*
X6579479Y2714500D02*
X6766432D01*
X6579479Y2720947D02*
X6759985D01*
X6585925Y2727394D02*
X6759985D01*
X6585925Y2733840D02*
X6753539D01*
X6592372Y2740287D02*
X6753539D01*
X6592372Y2746734D02*
X6747092D01*
X6598818Y2753181D02*
X6747092D01*
X6605265Y2759628D02*
X6747092D01*
X6611711Y2766074D02*
X6740645D01*
X6631051Y2772521D02*
X6740645D01*
X6585925Y2662927D02*
X6727752D01*
X6585925Y2669374D02*
X6714858D01*
X6579479Y2708054D02*
X6714858D01*
X6669731Y2778968D02*
X6714858D01*
X6618158Y2617800D02*
X6921152D01*
X6611711Y2624247D02*
X6914706D01*
X6605265Y2630694D02*
X6914706D01*
X6598818Y2637140D02*
X6914706D01*
X6959832Y2688714D02*
X7166126D01*
X6959832Y2695160D02*
X7166126D01*
X6966279Y2701607D02*
X7166126D01*
X6966279Y2708054D02*
X7166126D01*
X6966279Y2714500D02*
X7159679D01*
X6972725Y2720947D02*
X7159679D01*
X6972725Y2727394D02*
X7159679D01*
X6979172Y2733840D02*
X7159679D01*
X6959832Y2617800D02*
X7088766D01*
X6959832Y2624247D02*
X7082320D01*
X6959832Y2630694D02*
X7082320D01*
X6959832Y2637140D02*
X7082320D01*
X6959832Y2643587D02*
X7082320D01*
X6959832Y2650034D02*
X7082320D01*
X6959832Y2656480D02*
X7088766D01*
X6959832Y2662927D02*
X7088766D01*
X6959832Y2669374D02*
X7095213D01*
X6959832Y2675820D02*
X7101660D01*
X6959832Y2682268D02*
X7108105D01*
X6985619Y2740287D02*
X7153233D01*
X6992066Y2746734D02*
X7153233D01*
X6998513Y2753181D02*
X7153233D01*
X7004960Y2759628D02*
X7153233D01*
X7011407Y2766074D02*
X7146786D01*
X7030746Y2772521D02*
X7127446D01*
X5257908Y2695160D02*
X5548008D01*
X5257908Y2701607D02*
X5548008D01*
X5257908Y2708054D02*
X5541562D01*
X5257908Y2714500D02*
X5535116D01*
X5257908Y2720947D02*
X5535116D01*
X5257908Y2727394D02*
X5528668D01*
X5257908Y2733840D02*
X5522221D01*
X5257908Y2740287D02*
X5515775D01*
X5257908Y2746734D02*
X5509328D01*
X5257908Y2753181D02*
X5496436D01*
X5257908Y2759628D02*
X5483542D01*
X5257908Y2766074D02*
X5470649D01*
X5290142Y2772521D02*
X5451309D01*
X5361055Y2778968D02*
X5399736D01*
X5664049Y2669374D02*
X5715623D01*
X5664049Y2675820D02*
X5722070D01*
X5670496Y2682268D02*
X5734962D01*
X5676942Y2688714D02*
X5741409D01*
X5676942Y2695160D02*
X5741409D01*
X5689836Y2701607D02*
X5741409D01*
X5696283Y2708054D02*
X5741409D01*
X5625369Y2740287D02*
X5734962D01*
X5631816Y2746734D02*
X5734962D01*
X5644709Y2753181D02*
X5728517D01*
X5651156Y2759628D02*
X5728517D01*
X5664049Y2766074D02*
X5728517D01*
X5670496Y2772521D02*
X5728517D01*
X5689836Y2778968D02*
X5728517D01*
X5715623Y2624247D02*
X5747856D01*
X5715623Y2630694D02*
X5754303D01*
X5709176Y2714500D02*
X5741409D01*
X5954150Y2617800D02*
X6083084D01*
X5954150Y2624247D02*
X6076637D01*
X5947703Y2630694D02*
X6076637D01*
X5947703Y2637140D02*
X6076637D01*
X5947703Y2643587D02*
X6070190D01*
X5947703Y2650034D02*
X6070190D01*
X5947703Y2656480D02*
X6070190D01*
X5947703Y2662927D02*
X6070190D01*
X5941257Y2669374D02*
X6070190D01*
X5941257Y2675820D02*
X6063743D01*
X5941257Y2682268D02*
X6063743D01*
X5941257Y2688714D02*
X6063743D01*
X5941257Y2695160D02*
X6063743D01*
X5934810Y2701607D02*
X6063743D01*
X5934810Y2708054D02*
X6063743D01*
X5934810Y2714500D02*
X6057297D01*
X5934810Y2720947D02*
X6057297D01*
X5928364Y2727394D02*
X6057297D01*
X5928364Y2733840D02*
X6057297D01*
X5928364Y2740287D02*
X6057297D01*
X5928364Y2746734D02*
X6057297D01*
X5928364Y2753181D02*
X6057297D01*
X5921917Y2759628D02*
X6050850D01*
X5921917Y2766074D02*
X6050850D01*
X5921917Y2772521D02*
X6050850D01*
X5257908Y2688714D02*
X5554455D01*
X6366738Y2585566D02*
X6508565D01*
X6373184Y2566227D02*
X6527904D01*
X6373184Y2572674D02*
X6521458D01*
X6373184Y2579121D02*
X6515012D01*
X6366738Y2592013D02*
X6502119D01*
X6366738Y2598461D02*
X6495672D01*
X6366738Y2604907D02*
X6495672D01*
X6379631Y2482420D02*
X6502119D01*
X6643945Y2533993D02*
X6714858D01*
X6695519Y2585566D02*
X6921152D01*
X6643945Y2521100D02*
X6927600D01*
X6643945Y2527547D02*
X6927600D01*
X6676179Y2592013D02*
X6921152D01*
X6656839Y2598461D02*
X6921152D01*
X6643945Y2604907D02*
X6921152D01*
X6682625Y2469527D02*
X6895366D01*
X6656839Y2475973D02*
X6901811D01*
X6656839Y2482420D02*
X6914706D01*
X6656839Y2488867D02*
X6914706D01*
X6650392Y2495313D02*
X6921152D01*
X6650392Y2501761D02*
X6927600D01*
X6650392Y2508208D02*
X6927600D01*
X6650392Y2514655D02*
X6927600D01*
X7050086Y2482420D02*
X7340187D01*
X7037192Y2488867D02*
X7340187D01*
X6992066Y2540440D02*
X7172573D01*
X6972725Y2585566D02*
X7095213D01*
X6992066Y2546887D02*
X7140339D01*
X6985619Y2553333D02*
X7127446D01*
X6979172Y2559781D02*
X7121000D01*
X6979172Y2566227D02*
X7114553D01*
X6972725Y2572674D02*
X7108105D01*
X6972725Y2579121D02*
X7101660D01*
X6966279Y2592013D02*
X7095213D01*
X6966279Y2598461D02*
X7088766D01*
X6966279Y2604907D02*
X7088766D01*
X6379631Y2521100D02*
X6598818D01*
X6379631Y2527547D02*
X6598818D01*
X6373184Y2533993D02*
X6598818D01*
X6373184Y2540440D02*
X6598818D01*
X6373184Y2546887D02*
X6598818D01*
X6373184Y2553333D02*
X6598818D01*
X6373184Y2559781D02*
X6547245D01*
X6379631Y2488867D02*
X6605265D01*
X6379631Y2495313D02*
X6605265D01*
X6379631Y2501761D02*
X6605265D01*
X6379631Y2508208D02*
X6598818D01*
X6379631Y2514655D02*
X6598818D01*
X7004960Y2521100D02*
X7333740D01*
X6998513Y2527547D02*
X7333740D01*
X6998513Y2533993D02*
X7333740D01*
X7030746Y2495313D02*
X7340187D01*
X7024299Y2501761D02*
X7340187D01*
X7017852Y2508208D02*
X7333740D01*
X7011407Y2514655D02*
X7333740D01*
X5309482Y2527547D02*
X5477095D01*
X5315928Y2533993D02*
X5483542D01*
X5361055Y2585566D02*
X5535116D01*
X5322375Y2540440D02*
X5489989D01*
X5322375Y2546887D02*
X5496436D01*
X5328821Y2553333D02*
X5502883D01*
X5335268Y2559781D02*
X5509328D01*
X5341715Y2566227D02*
X5515775D01*
X5348162Y2572674D02*
X5522221D01*
X5354608Y2579121D02*
X5528668D01*
X5367501Y2592013D02*
X5541562D01*
X5373949Y2598461D02*
X5541562D01*
X5380395Y2604907D02*
X5548008D01*
X5309482Y2521100D02*
X5464202D01*
X5296588Y2469527D02*
X5431968D01*
X5303035Y2450187D02*
X5470649D01*
X5303035Y2501761D02*
X5444862D01*
X5303035Y2508208D02*
X5451309D01*
X5296588Y2475973D02*
X5431968D01*
X5296588Y2482420D02*
X5431968D01*
X5296588Y2488867D02*
X5438415D01*
X5296588Y2495313D02*
X5438415D01*
X5296588Y2456633D02*
X5451309D01*
X5296588Y2463080D02*
X5438415D01*
X5303035Y2514655D02*
X5457755D01*
X5702729Y2533993D02*
X5767196D01*
X5696283Y2540440D02*
X5767196D01*
X5689836Y2546887D02*
X5754303D01*
X5683389Y2553333D02*
X5741409D01*
X5676942Y2559781D02*
X5728517D01*
X5676942Y2566227D02*
X5722070D01*
X5670496Y2572674D02*
X5715623D01*
X5709176Y2527547D02*
X5767196D01*
X5689836Y2469527D02*
X5780089D01*
X5683389Y2475973D02*
X5780089D01*
X5670496Y2482420D02*
X5780089D01*
X5664049Y2488867D02*
X5754303D01*
X5657602Y2495313D02*
X5734962D01*
X5651156Y2501761D02*
X5722070D01*
X5702729Y2463080D02*
X5780089D01*
X5715623Y2456633D02*
X5780089D01*
X5960596Y2585566D02*
X6095977D01*
X5960596Y2559781D02*
X6134657D01*
X5960596Y2566227D02*
X6115317D01*
X5960596Y2572674D02*
X6108871D01*
X5960596Y2579121D02*
X6102424D01*
X5954150Y2592013D02*
X6089531D01*
X5954150Y2598461D02*
X6089531D01*
X5954150Y2604907D02*
X6083084D01*
X5973490Y2469527D02*
X6102424D01*
X5973490Y2475973D02*
X6102424D01*
X5973490Y2482420D02*
X6095977D01*
X5973490Y2488867D02*
X6095977D01*
X5973490Y2463080D02*
X6102424D01*
X5315928Y2417954D02*
X5580243D01*
X5380395Y2366380D02*
X5580243D01*
X5361055Y2372826D02*
X5580243D01*
X5354608Y2379273D02*
X5580243D01*
X5348162Y2385719D02*
X5580243D01*
X5335268Y2392166D02*
X5580243D01*
X5328821Y2398613D02*
X5580243D01*
X5328821Y2405060D02*
X5580243D01*
X5322375Y2411506D02*
X5580243D01*
X5309482Y2424400D02*
X5580243D01*
X5309482Y2430847D02*
X5580243D01*
X5303035Y2437294D02*
X5580243D01*
X5303035Y2443740D02*
X5580243D01*
X7159679Y2675820D02*
X7166126D01*
X7146786Y2682268D02*
X7166126D01*
X7198359Y2617800D02*
X7314400D01*
X7198359Y2624247D02*
X7314400D01*
X7191913Y2630694D02*
X7314400D01*
X7191913Y2637140D02*
X7314400D01*
X7191913Y2643587D02*
X7314400D01*
X7191913Y2650034D02*
X7314400D01*
X7191913Y2656480D02*
X7307953D01*
X7191913Y2662927D02*
X7307953D01*
X7191913Y2669374D02*
X7307953D01*
X7191913Y2675820D02*
X7307953D01*
X7185466Y2682268D02*
X7307953D01*
X7185466Y2688714D02*
X7307953D01*
X7185466Y2695160D02*
X7307953D01*
X7185466Y2701607D02*
X7301507D01*
X7185466Y2708054D02*
X7301507D01*
X7185466Y2714500D02*
X7301507D01*
X7185466Y2720947D02*
X7301507D01*
X7185466Y2727394D02*
X7301507D01*
X7179020Y2733840D02*
X7301507D01*
X7179020Y2740287D02*
X7301507D01*
X7179020Y2746734D02*
X7301507D01*
X7179020Y2753181D02*
X7295060D01*
X7179020Y2759628D02*
X7295060D01*
X7179020Y2766074D02*
X7295060D01*
X7179020Y2772521D02*
X7295060D01*
X7056532Y2778968D02*
X7101660D01*
X6740645Y2708054D02*
X6766432D01*
X6792219Y2643587D02*
X6914706D01*
X6792219Y2650034D02*
X6914706D01*
X6785772Y2656480D02*
X6908259D01*
X6785772Y2662927D02*
X6908259D01*
X6785772Y2669374D02*
X6908259D01*
X6785772Y2675820D02*
X6908259D01*
X6785772Y2682268D02*
X6908259D01*
X6785772Y2688714D02*
X6908259D01*
X6779325Y2695160D02*
X6901811D01*
X6779325Y2701607D02*
X6901811D01*
X6779325Y2708054D02*
X6901811D01*
X6779325Y2714500D02*
X6901811D01*
X6779325Y2720947D02*
X6901811D01*
X6779325Y2727394D02*
X6901811D01*
X6772879Y2733840D02*
X6901811D01*
X6772879Y2740287D02*
X6895366D01*
X6772879Y2746734D02*
X6895366D01*
X6772879Y2753181D02*
X6895366D01*
X6772879Y2759628D02*
X6895366D01*
X6766432Y2766074D02*
X6895366D01*
X6766432Y2772521D02*
X6895366D01*
X6579479Y2675820D02*
X6708411D01*
X6579479Y2682268D02*
X6701964D01*
X6579479Y2688714D02*
X6701964D01*
X6579479Y2695160D02*
X6701964D01*
X6579479Y2701607D02*
X6708411D01*
X6179784Y2617800D02*
X6302271D01*
X6179784Y2624247D02*
X6302271D01*
X6179784Y2630694D02*
X6302271D01*
X6173337Y2637140D02*
X6302271D01*
X6173337Y2643587D02*
X6302271D01*
X6173337Y2650034D02*
X6302271D01*
X6173337Y2656480D02*
X6295824D01*
X6173337Y2662927D02*
X6295824D01*
X6173337Y2669374D02*
X6295824D01*
X6173337Y2675820D02*
X6295824D01*
X6166891Y2682268D02*
X6295824D01*
X6166891Y2688714D02*
X6295824D01*
X6166891Y2695160D02*
X6295824D01*
X6166891Y2701607D02*
X6289377D01*
X6166891Y2708054D02*
X6289377D01*
X6166891Y2714500D02*
X6289377D01*
X6160444Y2720947D02*
X6289377D01*
X6160444Y2727394D02*
X6289377D01*
X6160444Y2733840D02*
X6289377D01*
X6160444Y2740287D02*
X6289377D01*
X6160444Y2746734D02*
X6282930D01*
X6160444Y2753181D02*
X6282930D01*
X6153998Y2759628D02*
X6282930D01*
X6153998Y2766074D02*
X6282930D01*
X6153998Y2772521D02*
X6282930D01*
X5773643Y2630694D02*
X5805875D01*
X5831663D02*
X5870344D01*
X5722070Y2637140D02*
X5754303D01*
X5773643D02*
X5805875D01*
X5825216D02*
X5870344D01*
X5722070Y2643587D02*
X5747856D01*
X5767196D02*
X5799430D01*
X5825216D02*
X5863897D01*
X5728517Y2650034D02*
X5747856D01*
X5767196D02*
X5792983D01*
X5818770D02*
X5863897D01*
X5734962Y2656480D02*
X5747856D01*
X5767196D02*
X5780089D01*
X5812323D02*
X5857450D01*
X5805875Y2662927D02*
X5857450D01*
X5799430Y2669374D02*
X5851004D01*
X5786536Y2675820D02*
X5844557D01*
X5773643Y2682268D02*
X5838110D01*
X5760750Y2688714D02*
X5831663D01*
X5760750Y2695160D02*
X5825216D01*
X5760750Y2701607D02*
X5812323D01*
X5760750Y2708054D02*
X5805875D01*
X5760750Y2714500D02*
X5786536D01*
X5825216D02*
X5889683D01*
X5818770Y2720947D02*
X5883236D01*
X5805875Y2727394D02*
X5876789D01*
X5792983Y2733840D02*
X5870344D01*
X5773643Y2740287D02*
X5863897D01*
X5754303Y2746734D02*
X5857450D01*
X5747856Y2753181D02*
X5844557D01*
X5747856Y2759628D02*
X5831663D01*
X5747856Y2766074D02*
X5825216D01*
X5747856Y2772521D02*
X5805875D01*
X5747856Y2778968D02*
X5786536D01*
X5889683Y2630694D02*
X5934810D01*
X5889683Y2637140D02*
X5934810D01*
X5883236Y2643587D02*
X5928364D01*
X5883236Y2650034D02*
X5928364D01*
X5876789Y2656480D02*
X5928364D01*
X5876789Y2662927D02*
X5921917D01*
X5870344Y2669374D02*
X5921917D01*
X5863897Y2675820D02*
X5915469D01*
X5863897Y2682268D02*
X5915469D01*
X5857450Y2688714D02*
X5909023D01*
X5851004Y2695160D02*
X5902577D01*
X5844557Y2701607D02*
X5902577D01*
X5838110Y2708054D02*
X5896130D01*
X5657602Y2650034D02*
X5702729D01*
X5657602Y2656480D02*
X5702729D01*
X5657602Y2662927D02*
X5709176D01*
X5625369Y2733840D02*
X5702729D01*
X5593136Y2624247D02*
X5631816D01*
X5657602D02*
X5696283D01*
X5593136Y2630694D02*
X5631816D01*
X5657602D02*
X5696283D01*
X5593136Y2637140D02*
X5631816D01*
X5657602D02*
X5696283D01*
X5593136Y2643587D02*
X5631816D01*
X5657602D02*
X5696283D01*
X5593136Y2650034D02*
X5638263D01*
X5593136Y2656480D02*
X5638263D01*
X5593136Y2662927D02*
X5638263D01*
X5593136Y2669374D02*
X5638263D01*
X5593136Y2675820D02*
X5644709D01*
X5593136Y2682268D02*
X5644709D01*
X5599582Y2688714D02*
X5651156D01*
X5599582Y2695160D02*
X5657602D01*
X5606029Y2701607D02*
X5657602D01*
X5606029Y2708054D02*
X5664049D01*
X5612476Y2714500D02*
X5670496D01*
X5612476Y2720947D02*
X5676942D01*
X5618922Y2727394D02*
X5689836D01*
X5406181Y2624247D02*
X5554455D01*
X5412628Y2630694D02*
X5554455D01*
X5412628Y2637140D02*
X5560902D01*
X5419075Y2643587D02*
X5560902D01*
X5425522Y2650034D02*
X5560902D01*
X5425522Y2656480D02*
X5560902D01*
X5419075Y2662927D02*
X5560902D01*
X5419075Y2669374D02*
X5554455D01*
X5412628Y2675820D02*
X5554455D01*
X5399736Y2617800D02*
X5554455D01*
X5386841Y2682268D02*
X5554455D01*
X5257908Y2662927D02*
X5277248D01*
X5257908Y2669374D02*
X5290142D01*
X5257908Y2675820D02*
X5309482D01*
X5257908Y2682268D02*
X5341715D01*
X7198359Y2585566D02*
X7320846D01*
X7198359Y2540440D02*
X7327293D01*
X7204806Y2546887D02*
X7327293D01*
X7204806Y2553333D02*
X7327293D01*
X7204806Y2559781D02*
X7327293D01*
X7204806Y2566227D02*
X7327293D01*
X7204806Y2572674D02*
X7327293D01*
X7204806Y2579121D02*
X7320846D01*
X7198359Y2592013D02*
X7320846D01*
X7198359Y2598461D02*
X7320846D01*
X7198359Y2604907D02*
X7320846D01*
X7075873Y2469527D02*
X7346633D01*
X7062979Y2475973D02*
X7340187D01*
X7101660Y2463080D02*
X7346633D01*
X7153233Y2456633D02*
X7191913D01*
X7230593Y2366380D02*
X7359527D01*
X7230593Y2372826D02*
X7359527D01*
X7230593Y2379273D02*
X7359527D01*
X7230593Y2385719D02*
X7359527D01*
X7230593Y2392166D02*
X7359527D01*
X7230593Y2398613D02*
X7353080D01*
X7230593Y2405060D02*
X7333740D01*
X7224147Y2411506D02*
X7320846D01*
X7224147Y2417954D02*
X7301507D01*
X7224147Y2424400D02*
X7288613D01*
X7224147Y2430847D02*
X7269274D01*
X7224147Y2437294D02*
X7249934D01*
X7243487Y2450187D02*
X7346633D01*
X7230593Y2456633D02*
X7346633D01*
X7333740Y2417954D02*
X7353080D01*
X7314400Y2424400D02*
X7353080D01*
X7301507Y2430847D02*
X7353080D01*
X7282167Y2437294D02*
X7353080D01*
X7262826Y2443740D02*
X7346633D01*
X7224147D02*
X7237040D01*
X7230593Y2359934D02*
X7249934D01*
X7346633D02*
X7359527D01*
X6792219Y2456633D02*
X6837345D01*
X6721305Y2579121D02*
X6921152D01*
X6792219Y2533993D02*
X6927600D01*
X6798665Y2540440D02*
X6927600D01*
X6798665Y2546887D02*
X6927600D01*
X6798665Y2553333D02*
X6927600D01*
X6792219Y2559781D02*
X6927600D01*
X6779325Y2566227D02*
X6927600D01*
X6753539Y2572674D02*
X6927600D01*
X6721305Y2463080D02*
X6876026D01*
X6386077Y2469527D02*
X6502119D01*
X6386077Y2475973D02*
X6502119D01*
X6386077Y2463080D02*
X6502119D01*
X6637498Y2540440D02*
X6689072D01*
X6637498Y2546887D02*
X6669731D01*
X6637498Y2553333D02*
X6643945D01*
X6579479Y2559781D02*
X6598818D01*
X6560138Y2456633D02*
X6585925D01*
X6527904Y2469527D02*
X6605265D01*
X6515012Y2475973D02*
X6605265D01*
X6508565Y2482420D02*
X6605265D01*
X6534350Y2463080D02*
X6605265D01*
X6160444Y2559781D02*
X6315164D01*
X6166891Y2566227D02*
X6315164D01*
X6173337Y2572674D02*
X6315164D01*
X6179784Y2585566D02*
X6308717D01*
X6179784Y2579121D02*
X6308717D01*
X6179784Y2592013D02*
X6308717D01*
X6179784Y2598461D02*
X6308717D01*
X6179784Y2604907D02*
X6308717D01*
X6134657Y2469527D02*
X6282930D01*
X6121764Y2475973D02*
X6289377D01*
X6108871Y2482420D02*
X6295824D01*
X6102424Y2488867D02*
X6302271D01*
X6186230Y2456633D02*
X6231357D01*
X6147551Y2463080D02*
X6263591D01*
X5728517Y2585566D02*
X5760750D01*
X5780089D02*
X5805875D01*
X5831663D02*
X5876789D01*
X5722070Y2521100D02*
X5773643D01*
X5792983D02*
X5838110D01*
X5786536Y2527547D02*
X5844557D01*
X5786536Y2533993D02*
X5851004D01*
X5786536Y2540440D02*
X5857450D01*
X5792983Y2546887D02*
X5863897D01*
X5805875Y2553333D02*
X5863897D01*
X5818770Y2559781D02*
X5870344D01*
X5825216Y2566227D02*
X5870344D01*
X5741409Y2572674D02*
X5760750D01*
X5780089D02*
X5792983D01*
X5825216D02*
X5870344D01*
X5734962Y2579121D02*
X5760750D01*
X5780089D02*
X5805875D01*
X5831663D02*
X5870344D01*
X5722070Y2592013D02*
X5760750D01*
X5780089D02*
X5812323D01*
X5838110D02*
X5876789D01*
X5722070Y2598461D02*
X5760750D01*
X5780089D02*
X5812323D01*
X5838110D02*
X5876789D01*
X5799430Y2469527D02*
X5883236D01*
X5799430Y2475973D02*
X5889683D01*
X5754303Y2508208D02*
X5773643D01*
X5792983D02*
X5805875D01*
X5734962Y2450187D02*
X5780089D01*
X5805875D02*
X5844557D01*
X5799430Y2456633D02*
X5857450D01*
X5799430Y2463080D02*
X5870344D01*
X5734962Y2514655D02*
X5773643D01*
X5792983D02*
X5825216D01*
X5896130Y2585566D02*
X5941257D01*
X5870344Y2521100D02*
X5921917D01*
X5870344Y2527547D02*
X5928364D01*
X5876789Y2533993D02*
X5928364D01*
X5883236Y2540440D02*
X5934810D01*
X5883236Y2546887D02*
X5934810D01*
X5889683Y2553333D02*
X5934810D01*
X5889683Y2559781D02*
X5934810D01*
X5889683Y2566227D02*
X5934810D01*
X5896130Y2572674D02*
X5941257D01*
X5896130Y2579121D02*
X5941257D01*
X5896130Y2592013D02*
X5941257D01*
X5896130Y2598461D02*
X5941257D01*
X5896130Y2604907D02*
X5941257D01*
X5799430Y2482420D02*
X5896130D01*
X5812323Y2488867D02*
X5902577D01*
X5831663Y2495313D02*
X5909023D01*
X5844557Y2501761D02*
X5915469D01*
X5851004Y2508208D02*
X5915469D01*
X5863897Y2514655D02*
X5921917D01*
X5438415Y2353487D02*
X5496436D01*
X5664049Y2585566D02*
X5709176D01*
X5664049Y2579121D02*
X5709176D01*
X5664049Y2592013D02*
X5702729D01*
X5657602Y2598461D02*
X5702729D01*
X5599582Y2585566D02*
X5644709D01*
X5631816Y2521100D02*
X5689836D01*
X5625369Y2527547D02*
X5683389D01*
X5625369Y2533993D02*
X5676942D01*
X5618922Y2540440D02*
X5670496D01*
X5618922Y2546887D02*
X5664049D01*
X5612476Y2553333D02*
X5664049D01*
X5612476Y2559781D02*
X5657602D01*
X5606029Y2566227D02*
X5651156D01*
X5606029Y2572674D02*
X5651156D01*
X5599582Y2579121D02*
X5644709D01*
X5599582Y2592013D02*
X5644709D01*
X5599582Y2598461D02*
X5638263D01*
X5644709Y2508208D02*
X5709176D01*
X5560902Y2463080D02*
X5580243D01*
X5638263Y2514655D02*
X5702729D01*
X5502883Y2450187D02*
X5580243D01*
X5535116Y2456633D02*
X5580243D01*
X5399736Y2359934D02*
X5554455D01*
D58*
X7331200Y1482600D02*
Y1382632D01*
X7381184D01*
X7397845Y1399294D01*
Y1432616D01*
X7381184Y1449278D01*
X7331200D01*
X7364522D02*
X7397845Y1482600D01*
X7497813Y1382632D02*
X7431168D01*
Y1482600D01*
X7497813D01*
X7431168Y1432616D02*
X7464490D01*
X7597781Y1399294D02*
X7581119Y1382632D01*
X7547797D01*
X7531136Y1399294D01*
Y1415955D01*
X7547797Y1432616D01*
X7581119D01*
X7597781Y1449278D01*
Y1465939D01*
X7581119Y1482600D01*
X7547797D01*
X7531136Y1465939D01*
X7697748Y1382632D02*
X7631103D01*
Y1482600D01*
X7697748D01*
X7631103Y1432616D02*
X7664426D01*
X7731071Y1382632D02*
X7797716D01*
X7764394D01*
Y1482600D01*
X5950515Y1223948D02*
X5933854Y1207287D01*
X5900531D01*
X5883870Y1223948D01*
Y1290593D01*
X5900531Y1307255D01*
X5933854D01*
X5950515Y1290593D01*
X5983838Y1207287D02*
Y1307255D01*
Y1257271D01*
X6050483D01*
Y1207287D01*
Y1307255D01*
X6083805D02*
Y1240610D01*
X6117128Y1207287D01*
X6150450Y1240610D01*
Y1307255D01*
Y1257271D01*
X6083805D01*
X6183773Y1307255D02*
Y1207287D01*
X6233757D01*
X6250418Y1223948D01*
Y1257271D01*
X6233757Y1273932D01*
X6183773D01*
X6217096D02*
X6250418Y1307255D01*
X6350386Y1223948D02*
X6333725Y1207287D01*
X6300402D01*
X6283741Y1223948D01*
Y1290593D01*
X6300402Y1307255D01*
X6333725D01*
X6350386Y1290593D01*
Y1257271D01*
X6317064D01*
X6450354Y1207287D02*
X6383709D01*
Y1307255D01*
X6450354D01*
X6383709Y1257271D02*
X6417031D01*
X5883870Y1465616D02*
X5950515Y1398971D01*
X5983838Y1365648D02*
Y1465616D01*
X6033822D01*
X6050483Y1448955D01*
Y1382310D01*
X6033822Y1365648D01*
X5983838D01*
X6133789D02*
X6100467D01*
X6083805Y1382310D01*
Y1448955D01*
X6100467Y1465616D01*
X6133789D01*
X6150450Y1448955D01*
Y1382310D01*
X6133789Y1365648D01*
X6183773Y1465616D02*
Y1365648D01*
X6250418Y1465616D01*
Y1365648D01*
X6350386D02*
X6283741D01*
Y1465616D01*
X6350386D01*
X6283741Y1415632D02*
X6317064D01*
X5112502Y1343482D02*
Y1443449D01*
X5179147D01*
X5262454Y1343482D02*
X5229131D01*
X5212470Y1360143D01*
Y1426788D01*
X5229131Y1443449D01*
X5262454D01*
X5279115Y1426788D01*
Y1360143D01*
X5262454Y1343482D01*
X5312437Y1443449D02*
Y1376804D01*
X5345760Y1343482D01*
X5379082Y1376804D01*
Y1443449D01*
Y1393466D01*
X5312437D01*
X5412405Y1343482D02*
Y1443449D01*
X5462389D01*
X5479050Y1426788D01*
Y1360143D01*
X5462389Y1343482D01*
X5412405D01*
X4702145Y3015494D02*
X4685484Y2998832D01*
X4652161D01*
X4635500Y3015494D01*
Y3082139D01*
X4652161Y3098800D01*
X4685484D01*
X4702145Y3082139D01*
X4735468Y2998832D02*
Y3098800D01*
Y3048816D01*
X4802113D01*
Y2998832D01*
Y3098800D01*
X4835436D02*
Y3032155D01*
X4868758Y2998832D01*
X4902081Y3032155D01*
Y3098800D01*
Y3048816D01*
X4835436D01*
X4935403Y3098800D02*
Y2998832D01*
X4985387D01*
X5002048Y3015494D01*
Y3048816D01*
X4985387Y3065477D01*
X4935403D01*
X4968726D02*
X5002048Y3098800D01*
X5102016Y3015494D02*
X5085355Y2998832D01*
X5052033D01*
X5035371Y3015494D01*
Y3082139D01*
X5052033Y3098800D01*
X5085355D01*
X5102016Y3082139D01*
Y3048816D01*
X5068694D01*
X5201984Y2998832D02*
X5135339D01*
Y3098800D01*
X5201984D01*
X5135339Y3048816D02*
X5168661D01*
X5235307Y3098800D02*
Y2998832D01*
X5285291D01*
X5301952Y3015494D01*
Y3048816D01*
X5285291Y3065477D01*
X5235307D01*
X5268629D02*
X5301952Y3098800D01*
X5335275D02*
Y3082139D01*
X5351936D01*
Y3098800D01*
X5335275D01*
X5418581D02*
Y2998832D01*
X5468565D01*
X5485226Y3015494D01*
Y3048816D01*
X5468565Y3065477D01*
X5418581D01*
X5518549Y3098800D02*
Y2998832D01*
X5568533D01*
X5585194Y3015494D01*
Y3048816D01*
X5568533Y3065477D01*
X5518549D01*
X5551871D02*
X5585194Y3098800D01*
X5668500Y2998832D02*
X5635178D01*
X5618517Y3015494D01*
Y3082139D01*
X5635178Y3098800D01*
X5668500D01*
X5685162Y3082139D01*
Y3015494D01*
X5668500Y2998832D01*
X5718484D02*
X5785129D01*
X5751807D01*
Y3098800D01*
X5885097Y2998832D02*
X5818452D01*
Y3098800D01*
X5885097D01*
X5818452Y3048816D02*
X5851775D01*
X5985065Y3015494D02*
X5968404Y2998832D01*
X5935081D01*
X5918420Y3015494D01*
Y3082139D01*
X5935081Y3098800D01*
X5968404D01*
X5985065Y3082139D01*
X6018388Y2998832D02*
X6085033D01*
X6051710D01*
Y3098800D01*
X6118356Y2998832D02*
X6151678D01*
X6135017D01*
Y3098800D01*
X6118356D01*
X6151678D01*
X6251646Y2998832D02*
X6218323D01*
X6201662Y3015494D01*
Y3082139D01*
X6218323Y3098800D01*
X6251646D01*
X6268307Y3082139D01*
Y3015494D01*
X6251646Y2998832D01*
X6301630Y3098800D02*
Y2998832D01*
X6368275Y3098800D01*
Y2998832D01*
X6401598Y3115461D02*
X6468243D01*
X6501565Y2998832D02*
Y3065477D01*
X6534888Y3098800D01*
X6568210Y3065477D01*
Y2998832D01*
X6668178D02*
X6601533D01*
Y3048816D01*
X6634856Y3032155D01*
X6651517D01*
X6668178Y3048816D01*
Y3082139D01*
X6651517Y3098800D01*
X6618195D01*
X6601533Y3082139D01*
X6701501Y3098800D02*
Y3082139D01*
X6718162D01*
Y3098800D01*
X6701501D01*
X6784807Y3015494D02*
X6801469Y2998832D01*
X6834791D01*
X6851452Y3015494D01*
Y3082139D01*
X6834791Y3098800D01*
X6801469D01*
X6784807Y3082139D01*
Y3015494D01*
X6884775Y3115461D02*
X6951420D01*
X6984743Y3098800D02*
X7018065D01*
X7001404D01*
Y2998832D01*
X6984743Y3015494D01*
X7134694Y2998832D02*
X7101372Y3015494D01*
X7068049Y3048816D01*
Y3082139D01*
X7084711Y3098800D01*
X7118033D01*
X7134694Y3082139D01*
Y3065477D01*
X7118033Y3048816D01*
X7068049D01*
X7168017Y3098800D02*
X7201340D01*
X7184679D01*
Y2998832D01*
X7168017Y3015494D01*
X7317969Y3098800D02*
X7251324D01*
X7317969Y3032155D01*
Y3015494D01*
X7301307Y2998832D01*
X7267985D01*
X7251324Y3015494D01*
X7417936Y3098800D02*
X7351291D01*
X7417936Y3032155D01*
Y3015494D01*
X7401275Y2998832D01*
X7367953D01*
X7351291Y3015494D01*
X7517904Y2998832D02*
X7451259D01*
Y3048816D01*
X7484582Y3032155D01*
X7501243D01*
X7517904Y3048816D01*
Y3082139D01*
X7501243Y3098800D01*
X7467921D01*
X7451259Y3082139D01*
D59*
X2781304Y2562885D02*
X2755912Y2575581D01*
X2730520Y2600972D01*
Y2626364D01*
X2743216Y2639060D01*
X2768608D01*
X2781304Y2626364D01*
Y2613668D01*
X2768608Y2600972D01*
X2730520D01*
X2806695Y2562885D02*
Y2613668D01*
X2832087Y2639060D01*
X2857479Y2613668D01*
Y2562885D01*
X3238520Y2626364D02*
X3251216Y2639060D01*
X3276608D01*
X3289304Y2626364D01*
Y2575581D01*
X3276608Y2562885D01*
X3251216D01*
X3238520Y2575581D01*
Y2588277D01*
X3251216Y2600972D01*
X3289304D01*
X3314695Y2562885D02*
Y2613668D01*
X3340087Y2639060D01*
X3365479Y2613668D01*
Y2562885D01*
X3714781Y2639060D02*
X3740173D01*
X3727477D01*
Y2562885D01*
X3714781Y2575581D01*
X3829044Y2639060D02*
X3778260D01*
X3829044Y2588277D01*
Y2575581D01*
X3816348Y2562885D01*
X3790956D01*
X3778260Y2575581D01*
X3854436Y2562885D02*
Y2613668D01*
X3879828Y2639060D01*
X3905219Y2613668D01*
Y2562885D01*
X4222781Y2639060D02*
X4248173D01*
X4235477D01*
Y2562885D01*
X4222781Y2575581D01*
X4286260Y2562885D02*
X4337044D01*
Y2575581D01*
X4286260Y2626364D01*
Y2639060D01*
X4362436Y2562885D02*
Y2613668D01*
X4387828Y2639060D01*
X4413219Y2613668D01*
Y2562885D01*
X3238520Y3210581D02*
X3251216Y3197885D01*
X3276608D01*
X3289304Y3210581D01*
Y3223277D01*
X3276608Y3235972D01*
X3263912D01*
X3276608D01*
X3289304Y3248668D01*
Y3261364D01*
X3276608Y3274060D01*
X3251216D01*
X3238520Y3261364D01*
X3365479Y3210581D02*
X3352783Y3197885D01*
X3327391D01*
X3314695Y3210581D01*
Y3223277D01*
X3327391Y3235972D01*
X3352783D01*
X3365479Y3248668D01*
Y3261364D01*
X3352783Y3274060D01*
X3327391D01*
X3314695Y3261364D01*
X2736868Y3274060D02*
X2762260D01*
X2749564D01*
Y3197885D01*
X2736868Y3210581D01*
X2851131D02*
X2838435Y3197885D01*
X2813043D01*
X2800347Y3210581D01*
Y3223277D01*
X2813043Y3235972D01*
X2838435D01*
X2851131Y3248668D01*
Y3261364D01*
X2838435Y3274060D01*
X2813043D01*
X2800347Y3261364D01*
X3746520Y3197885D02*
Y3274060D01*
X3797304D01*
X3822695D02*
Y3223277D01*
X3848087Y3197885D01*
X3873479Y3223277D01*
Y3274060D01*
Y3235972D01*
X3822695D01*
X2044778Y3566189D02*
Y3616972D01*
X2070170Y3642364D01*
X2095561Y3616972D01*
Y3566189D01*
X2120953Y3655060D02*
X2171737D01*
X2197129Y3566189D02*
Y3642364D01*
X2235217D01*
X2247912Y3629668D01*
Y3616972D01*
X2235217Y3604276D01*
X2197129D01*
X2235217D01*
X2247912Y3591581D01*
Y3578885D01*
X2235217Y3566189D01*
X2197129D01*
X2286000Y3591581D02*
X2311392D01*
X2324088Y3604276D01*
Y3642364D01*
X2286000D01*
X2273304Y3629668D01*
X2286000Y3616972D01*
X2324088D01*
X2362175Y3578885D02*
Y3591581D01*
X2349479D01*
X2374871D01*
X2362175D01*
Y3629668D01*
X2374871Y3642364D01*
X2425655Y3578885D02*
Y3591581D01*
X2412959D01*
X2438351D01*
X2425655D01*
Y3629668D01*
X2438351Y3642364D01*
X2044777Y2931189D02*
Y2981972D01*
X2070169Y3007364D01*
X2095561Y2981972D01*
Y2931189D01*
X2120953Y3020060D02*
X2171736D01*
X2247912Y2943885D02*
X2235216Y2931189D01*
X2209824D01*
X2197128Y2943885D01*
Y2956581D01*
X2209824Y2969276D01*
X2235216D01*
X2247912Y2981972D01*
Y2994668D01*
X2235216Y3007364D01*
X2209824D01*
X2197128Y2994668D01*
X2285999Y3007364D02*
X2311391D01*
X2324087Y2994668D01*
Y2969276D01*
X2311391Y2956581D01*
X2285999D01*
X2273304Y2969276D01*
Y2994668D01*
X2285999Y3007364D01*
X2349479D02*
X2374871D01*
X2362175D01*
Y2931189D01*
X2349479D01*
X2425654Y2956581D02*
X2451046D01*
X2463742Y2969276D01*
Y3007364D01*
X2425654D01*
X2412958Y2994668D01*
X2425654Y2981972D01*
X2463742D01*
X2489134Y2956581D02*
Y3007364D01*
Y2981972D01*
X2501830Y2969276D01*
X2514526Y2956581D01*
X2527222D01*
D60*
X3302000Y2857500D02*
D03*
X4318000D02*
D03*
X3810000D02*
D03*
X2794000D02*
D03*
X3810000Y3492500D02*
D03*
X2794000D02*
D03*
X3302000D02*
D03*
%TF.MD5,f698e202ec0c4e904d6807c2c5a403de*%
M02*
