%TF.GenerationSoftware,Altium Limited,Altium Designer,25.4.2 (15)*%
G04 Layer_Color=65535*
%FSLAX45Y45*%
%MOMM*%
%TF.SameCoordinates,6C6A8B56-62B0-443B-98C8-0AEE6F0B4FCF*%
%TF.FilePolarity,Positive*%
%TF.FileFunction,Legend,Top*%
%TF.Part,Single*%
G01*
G75*
%TA.AperFunction,NonConductor*%
%ADD46C,0.17780*%
%ADD47C,0.25000*%
%ADD48C,0.38100*%
%ADD49C,0.20000*%
%ADD50C,0.25400*%
%ADD51C,0.10160*%
%ADD52C,0.12700*%
%ADD53C,0.10000*%
%ADD54C,0.30480*%
%ADD55R,1.52400X0.76000*%
G36*
X4112260Y3594100D02*
X4048760Y3657600D01*
Y3530600D01*
X4112260Y3594100D01*
D02*
G37*
D46*
X5168100Y4218000D02*
G03*
X5168100Y4218000I-88900J0D01*
G01*
X5956300Y3987800D02*
G03*
X5956300Y3987800I-88900J0D01*
G01*
X5318320Y4497400D02*
G03*
X5318320Y4497400I-88900J0D01*
G01*
X5765800Y4216400D02*
G03*
X5765800Y4216400I-88900J0D01*
G01*
X5118100Y2933700D02*
G03*
X5118100Y2933700I-88900J0D01*
G01*
X7096788Y2209800D02*
G03*
X7096788Y2209800I-111788J0D01*
G01*
X3974300Y3811600D02*
G03*
X3974300Y3811600I-88900J0D01*
G01*
X6181920Y3151200D02*
G03*
X6181920Y3151200I-88900J0D01*
G01*
X7263600Y3544900D02*
G03*
X7263600Y3544900I-88900J0D01*
G01*
X4127500Y3479800D02*
X4378960D01*
X4127500Y3213100D02*
X4381500D01*
Y3721100D01*
X4127500D02*
X4381500D01*
X4127500Y3213100D02*
Y3721100D01*
D47*
X5946500Y820900D02*
G03*
X5946500Y820900I-12500J0D01*
G01*
X4005400Y1525600D02*
G03*
X4005400Y1525600I-12500J0D01*
G01*
X2875200Y2287600D02*
G03*
X2875200Y2287600I-12500J0D01*
G01*
D48*
X5023680Y3875100D02*
G03*
X5023680Y3875100I-10160J0D01*
G01*
D49*
X5429420Y4344700D02*
G03*
X5429420Y4344700I-10000J0D01*
G01*
X5959500Y970900D02*
X6459500D01*
X5959500Y1165900D02*
X6459500D01*
X5959500Y970900D02*
Y1165900D01*
X6459500Y970900D02*
Y1165900D01*
X3321400Y1232600D02*
Y1343100D01*
X3991400D01*
Y1232600D02*
Y1343100D01*
X2864200Y2470100D02*
Y2580600D01*
Y2470100D02*
X3534200D01*
Y2580600D01*
X2227200Y1349800D02*
X2307200D01*
X2229740Y1601260D02*
X2309740D01*
X3707600Y1754200D02*
Y2059000D01*
X3470000Y1754200D02*
Y2059000D01*
Y1754200D02*
X4152100D01*
Y2059000D01*
X3470000D02*
X4152100D01*
X3174200Y1754200D02*
Y2059000D01*
X3411800Y1754200D02*
Y2059000D01*
X2729700D02*
X3411800D01*
X2729700Y1754200D02*
Y2059000D01*
Y1754200D02*
X3411800D01*
X6471540Y2337860D02*
X6551540D01*
X6469000Y2086400D02*
X6549000D01*
D50*
X4304860Y4413580D02*
G03*
X4368360Y4477080I0J63500D01*
G01*
Y4863160D02*
G03*
X4304860Y4926660I-63500J0D01*
G01*
X4190560D02*
G03*
X4127060Y4863160I0J-63500D01*
G01*
Y4477080D02*
G03*
X4190560Y4413580I63500J0D01*
G01*
X3913340D02*
G03*
X3976840Y4477080I0J63500D01*
G01*
Y4863160D02*
G03*
X3913340Y4926660I-63500J0D01*
G01*
X3799040D02*
G03*
X3735540Y4863160I0J-63500D01*
G01*
Y4477080D02*
G03*
X3799040Y4413580I63500J0D01*
G01*
X5112580Y3837000D02*
Y3916300D01*
X5122180Y3925900D01*
X5201480D01*
X5124720Y3316300D02*
X5204020D01*
X5115120Y3325900D02*
X5124720Y3316300D01*
X5115120Y3325900D02*
Y3405200D01*
X5724720Y3325900D02*
Y3405200D01*
X5715120Y3316300D02*
X5724720Y3325900D01*
X5635820Y3316300D02*
X5715120D01*
X5724720Y3837000D02*
Y3916300D01*
X5715120Y3925900D02*
X5724720Y3916300D01*
X5635820Y3925900D02*
X5715120D01*
X6042220Y4243200D02*
X6829620D01*
Y3862600D02*
Y4243200D01*
X6042220Y3862600D02*
X6829620D01*
X6042220D02*
Y4243200D01*
X3212300Y5500500D02*
X3999700D01*
Y5119900D02*
Y5500500D01*
X3212300Y5119900D02*
X3999700D01*
X3212300D02*
Y5500500D01*
X4190560Y4413580D02*
X4304860D01*
X4368360Y4477080D02*
Y4863160D01*
X4190560Y4926660D02*
X4304860D01*
X4127060Y4606620D02*
X4368360D01*
X4127060Y4477080D02*
Y4863160D01*
X3799040Y4413580D02*
X3913340D01*
X3976840Y4477080D02*
Y4863160D01*
X3799040Y4926660D02*
X3913340D01*
X3735540Y4606620D02*
X3976840D01*
X3735540Y4477080D02*
Y4863160D01*
X320585Y5375259D02*
X295193Y5400651D01*
X244409D01*
X219018Y5375259D01*
Y5349867D01*
X244409Y5324476D01*
X295193D01*
X320585Y5299084D01*
Y5273692D01*
X295193Y5248300D01*
X244409D01*
X219018Y5273692D01*
X447544Y5400651D02*
X396760D01*
X371368Y5375259D01*
Y5273692D01*
X396760Y5248300D01*
X447544D01*
X472936Y5273692D01*
Y5375259D01*
X447544Y5400651D01*
X523719D02*
Y5248300D01*
X625286D01*
X676070D02*
Y5349867D01*
X726853Y5400651D01*
X777637Y5349867D01*
Y5248300D01*
Y5324476D01*
X676070D01*
X828420Y5248300D02*
Y5400651D01*
X904596D01*
X929988Y5375259D01*
Y5324476D01*
X904596Y5299084D01*
X828420D01*
X879204D02*
X929988Y5248300D01*
X980771Y5324476D02*
X1082338D01*
X1031555Y5375259D02*
Y5273692D01*
X320585Y4423501D02*
X295193Y4448893D01*
X244409D01*
X219018Y4423501D01*
Y4398109D01*
X244409Y4372717D01*
X295193D01*
X320585Y4347326D01*
Y4321934D01*
X295193Y4296542D01*
X244409D01*
X219018Y4321934D01*
X447544Y4448893D02*
X396760D01*
X371368Y4423501D01*
Y4321934D01*
X396760Y4296542D01*
X447544D01*
X472936Y4321934D01*
Y4423501D01*
X447544Y4448893D01*
X523719D02*
Y4296542D01*
X625286D01*
X676070D02*
Y4398109D01*
X726853Y4448893D01*
X777637Y4398109D01*
Y4296542D01*
Y4372717D01*
X676070D01*
X828420Y4296542D02*
Y4448893D01*
X904596D01*
X929988Y4423501D01*
Y4372717D01*
X904596Y4347326D01*
X828420D01*
X879204D02*
X929988Y4296542D01*
X980771Y4372717D02*
X1082338D01*
X219018Y3497135D02*
Y3344784D01*
X295193D01*
X320585Y3370176D01*
Y3395568D01*
X295193Y3420959D01*
X219018D01*
X295193D01*
X320585Y3446351D01*
Y3471743D01*
X295193Y3497135D01*
X219018D01*
X371368Y3344784D02*
Y3446351D01*
X422152Y3497135D01*
X472936Y3446351D01*
Y3344784D01*
Y3420959D01*
X371368D01*
X523719Y3497135D02*
X625286D01*
X574503D01*
Y3344784D01*
X676070Y3420959D02*
X777637D01*
X726853Y3471743D02*
Y3370176D01*
X219018Y2545377D02*
Y2393026D01*
X295193D01*
X320585Y2418418D01*
Y2443809D01*
X295193Y2469201D01*
X219018D01*
X295193D01*
X320585Y2494593D01*
Y2519985D01*
X295193Y2545377D01*
X219018D01*
X371368Y2393026D02*
Y2494593D01*
X422152Y2545377D01*
X472936Y2494593D01*
Y2393026D01*
Y2469201D01*
X371368D01*
X523719Y2545377D02*
X625286D01*
X574503D01*
Y2393026D01*
X676070Y2469201D02*
X777637D01*
X219018Y1593619D02*
Y1441268D01*
X320585D01*
X447544Y1593619D02*
X396760D01*
X371368Y1568227D01*
Y1466660D01*
X396760Y1441268D01*
X447544D01*
X472936Y1466660D01*
Y1568227D01*
X447544Y1593619D01*
X523719Y1441268D02*
Y1542835D01*
X574503Y1593619D01*
X625286Y1542835D01*
Y1441268D01*
Y1517443D01*
X523719D01*
X676070Y1593619D02*
Y1441268D01*
X752245D01*
X777637Y1466660D01*
Y1568227D01*
X752245Y1593619D01*
X676070D01*
X828420Y1517443D02*
X929988D01*
X879204Y1568227D02*
Y1466660D01*
X219018Y641861D02*
Y489510D01*
X320585D01*
X447544Y641861D02*
X396760D01*
X371368Y616469D01*
Y514902D01*
X396760Y489510D01*
X447544D01*
X472936Y514902D01*
Y616469D01*
X447544Y641861D01*
X523719Y489510D02*
Y591077D01*
X574503Y641861D01*
X625286Y591077D01*
Y489510D01*
Y565685D01*
X523719D01*
X676070Y641861D02*
Y489510D01*
X752245D01*
X777637Y514902D01*
Y616469D01*
X752245Y641861D01*
X676070D01*
X828420Y565685D02*
X929988D01*
D51*
X4622800Y3449324D02*
Y3535684D01*
X4495800Y3449324D02*
Y3535684D01*
X3809200Y4060516D02*
Y4146876D01*
X3936200Y4060516D02*
Y4146876D01*
X4157536Y3913200D02*
X4243896D01*
X4157536Y4040200D02*
X4243896D01*
X4642316Y4296740D02*
X4728676D01*
X4642316Y4169740D02*
X4728676D01*
X4642324Y3913200D02*
X4728684D01*
X4642324Y4040200D02*
X4728684D01*
X4157536Y4296740D02*
X4243896D01*
X4157536Y4169740D02*
X4243896D01*
X5206200Y364824D02*
Y451184D01*
X5333200Y364824D02*
Y451184D01*
X6349200Y364824D02*
Y451184D01*
X6222200Y364824D02*
Y451184D01*
X5460200Y1253816D02*
Y1340176D01*
X5587200Y1253816D02*
Y1340176D01*
X6095200Y364824D02*
Y451184D01*
X5968200Y364824D02*
Y451184D01*
X2612860Y2282520D02*
Y2368880D01*
X2739860Y2282520D02*
Y2368880D01*
X5841200Y364824D02*
Y451184D01*
X5714200Y364824D02*
Y451184D01*
X3791416Y2274900D02*
X3877776D01*
X3791416Y2147900D02*
X3877776D01*
X5714200Y1253816D02*
Y1340176D01*
X5841200Y1253816D02*
Y1340176D01*
X5587200Y364824D02*
Y451184D01*
X5460200Y364824D02*
Y451184D01*
X6166324Y1690700D02*
X6252684D01*
X6166324Y1563700D02*
X6252684D01*
X2374100Y3895424D02*
Y3981784D01*
X2501100Y3895424D02*
Y3981784D01*
X4502624Y3024200D02*
X4588984D01*
X4502624Y3151200D02*
X4588984D01*
X5732344Y2440000D02*
X5818704D01*
X5732344Y2567000D02*
X5818704D01*
X5732336Y3024200D02*
X5818696D01*
X5732336Y2897200D02*
X5818696D01*
X6468944Y2666060D02*
X6555304D01*
X6468944Y2793060D02*
X6555304D01*
X6468944Y3202000D02*
X6555304D01*
X6468944Y3329000D02*
X6555304D01*
X4632520Y4581224D02*
Y4667584D01*
X4505520Y4581224D02*
Y4667584D01*
X4861120Y4581224D02*
Y4667584D01*
X4734120Y4581224D02*
Y4667584D01*
X8142292Y1816536D02*
Y1974016D01*
X8294692Y1816536D02*
Y1974016D01*
X7823192Y1800856D02*
Y1958336D01*
X7975592Y1800856D02*
Y1958336D01*
X5732336Y2668600D02*
X5818696D01*
X5732336Y2795600D02*
X5818696D01*
X6042220Y3374716D02*
Y3461076D01*
X6169220Y3374716D02*
Y3461076D01*
X6458424Y3468700D02*
X6544784D01*
X6458424Y3595700D02*
X6544784D01*
X6468936Y3024200D02*
X6555296D01*
X6468936Y2897200D02*
X6555296D01*
X6458416Y3811600D02*
X6544776D01*
X6458416Y3684600D02*
X6544776D01*
X7493008Y1800864D02*
Y1958344D01*
X7645408Y1800864D02*
Y1958344D01*
X7162808Y1800864D02*
Y1958344D01*
X7315208Y1800864D02*
Y1958344D01*
X5325944Y4167200D02*
X5412304D01*
X5325944Y4294200D02*
X5412304D01*
D52*
X4472940Y3314700D02*
Y3670300D01*
Y3314700D02*
X4643120D01*
Y3670300D01*
X4472940D02*
X4643120D01*
X3959060Y3925900D02*
Y4281500D01*
X3788880D02*
X3959060D01*
X3788880Y3925900D02*
Y4281500D01*
Y3925900D02*
X3959060D01*
X4022920Y3890340D02*
Y4060520D01*
X4378520D01*
Y3890340D02*
Y4060520D01*
X4022920Y3890340D02*
X4378520D01*
X4507700Y4146880D02*
X4863300D01*
Y4317060D01*
X4507700D02*
X4863300D01*
X4507700Y4146880D02*
Y4317060D01*
Y4063060D02*
X4863300D01*
X4507700Y3892880D02*
Y4063060D01*
Y3892880D02*
X4863300D01*
Y4063060D01*
X4022920Y4146880D02*
X4378520D01*
Y4317060D01*
X4022920D02*
X4378520D01*
X4022920Y4146880D02*
Y4317060D01*
X5183340Y585800D02*
X5353520D01*
Y230200D02*
Y585800D01*
X5183340Y230200D02*
X5353520D01*
X5183340D02*
Y585800D01*
X6199340Y230200D02*
Y585800D01*
Y230200D02*
X6369520D01*
Y585800D01*
X6199340D02*
X6369520D01*
X5610060Y1119200D02*
Y1474800D01*
X5439880D02*
X5610060D01*
X5439880Y1119200D02*
Y1474800D01*
Y1119200D02*
X5610060D01*
X5945340Y230200D02*
Y585800D01*
Y230200D02*
X6115520D01*
Y585800D01*
X5945340D02*
X6115520D01*
X2762720Y2147904D02*
Y2503504D01*
X2592540D02*
X2762720D01*
X2592540Y2147904D02*
Y2503504D01*
Y2147904D02*
X2762720D01*
X5691340Y230200D02*
Y585800D01*
Y230200D02*
X5861520D01*
Y585800D01*
X5691340D02*
X5861520D01*
X3656800Y2125040D02*
X4012400D01*
Y2295220D01*
X3656800D02*
X4012400D01*
X3656800Y2125040D02*
Y2295220D01*
X5864060Y1119200D02*
Y1474800D01*
X5693880D02*
X5864060D01*
X5693880Y1119200D02*
Y1474800D01*
Y1119200D02*
X5864060D01*
X5437340Y230200D02*
Y585800D01*
Y230200D02*
X5607520D01*
Y585800D01*
X5437340D02*
X5607520D01*
X6387300Y1543380D02*
Y1713560D01*
X6031700Y1543380D02*
X6387300D01*
X6031700D02*
Y1713560D01*
X6387300D01*
X2351240Y4116400D02*
X2521420D01*
Y3760800D02*
Y4116400D01*
X2351240Y3760800D02*
X2521420D01*
X2351240D02*
Y4116400D01*
X4368000Y3174060D02*
X4723600D01*
X4368000Y3003880D02*
Y3174060D01*
Y3003880D02*
X4723600D01*
Y3174060D01*
X5597720Y2589860D02*
X5953320D01*
X5597720Y2419680D02*
Y2589860D01*
Y2419680D02*
X5953320D01*
Y2589860D01*
X5597720Y2874340D02*
X5953320D01*
Y3044520D01*
X5597720D02*
X5953320D01*
X5597720Y2874340D02*
Y3044520D01*
X6334320Y2815920D02*
X6689920D01*
X6334320Y2645740D02*
Y2815920D01*
Y2645740D02*
X6689920D01*
Y2815920D01*
X6334320Y3351860D02*
X6689920D01*
X6334320Y3181680D02*
Y3351860D01*
Y3181680D02*
X6689920D01*
Y3351860D01*
X4482660Y4446600D02*
Y4802200D01*
Y4446600D02*
X4652840D01*
Y4802200D01*
X4482660D02*
X4652840D01*
X4711260Y4446600D02*
Y4802200D01*
Y4446600D02*
X4881440D01*
Y4802200D01*
X4711260D02*
X4881440D01*
X5365420Y4580200D02*
Y4923200D01*
X5855420Y4580200D02*
Y4923200D01*
X8315012Y1666680D02*
Y2123880D01*
X8119432D02*
X8315012D01*
X8119432Y1666680D02*
Y2123880D01*
Y1666680D02*
X8315012D01*
X7995912Y1651000D02*
Y2108200D01*
X7800332D02*
X7995912D01*
X7800332Y1651000D02*
Y2108200D01*
Y1651000D02*
X7995912D01*
X5597720Y2645740D02*
Y2815920D01*
X5953320D01*
Y2645740D02*
Y2815920D01*
X5597720Y2645740D02*
X5953320D01*
X6192080Y3240100D02*
Y3595700D01*
X6021900D02*
X6192080D01*
X6021900Y3240100D02*
Y3595700D01*
Y3240100D02*
X6192080D01*
X6323800Y3618560D02*
X6679400D01*
X6323800Y3448380D02*
Y3618560D01*
Y3448380D02*
X6679400D01*
Y3618560D01*
X6334320Y2874340D02*
X6689920D01*
Y3044520D01*
X6334320D02*
X6689920D01*
X6334320Y2874340D02*
Y3044520D01*
X6323800Y3661740D02*
X6679400D01*
Y3831920D01*
X6323800D02*
X6679400D01*
X6323800Y3661740D02*
Y3831920D01*
X7472688Y2108200D02*
X7668268D01*
Y1651000D02*
Y2108200D01*
X7472688Y1651000D02*
X7668268D01*
X7472688D02*
Y2108200D01*
X7142488D02*
X7338068D01*
Y1651000D02*
Y2108200D01*
X7142488Y1651000D02*
X7338068D01*
X7142488D02*
Y2108200D01*
X5191320Y4317060D02*
X5546920D01*
X5191320Y4146880D02*
Y4317060D01*
Y4146880D02*
X5546920D01*
Y4317060D01*
X3606000Y2655900D02*
Y3316300D01*
Y2655900D02*
X3974300D01*
Y3329000D01*
Y3849700D01*
X3606000Y4345000D02*
X4545800D01*
X3606000Y3316300D02*
Y4345000D01*
X3974300Y3849700D02*
X4558500D01*
D53*
X2671298Y4372882D02*
X2991298D01*
X2671298Y3732884D02*
Y4372882D01*
Y3732884D02*
X2991298D01*
Y4372882D01*
X3141198D02*
X3461198D01*
X3141198Y3732884D02*
Y4372882D01*
Y3732884D02*
X3461198D01*
Y4372882D01*
X2502200Y1314800D02*
Y1634800D01*
X2043900D02*
X2502200D01*
X2043900Y1314800D02*
Y1634800D01*
Y1314800D02*
X2502200D01*
X7300018Y2611098D02*
X7940017D01*
Y2291098D02*
Y2611098D01*
X7300018Y2291098D02*
X7940017D01*
X7300018D02*
Y2611098D01*
X6285700Y2051400D02*
X6744000D01*
X6285700D02*
Y2371400D01*
X6744000D01*
Y2051400D02*
Y2371400D01*
D54*
X4203700Y3835384D02*
X4169844D01*
X4186772D01*
Y3750744D01*
X4169844Y3733817D01*
X4152917D01*
X4135989Y3750744D01*
X4237556Y3733817D02*
X4271412D01*
X4254484D01*
Y3835384D01*
X4237556Y3818456D01*
X4498340Y3756660D02*
Y3858227D01*
X4549123D01*
X4566051Y3841299D01*
Y3807443D01*
X4549123Y3790516D01*
X4498340D01*
X4532196D02*
X4566051Y3756660D01*
X4667619Y3858227D02*
X4599907D01*
Y3807443D01*
X4633763Y3824371D01*
X4650691D01*
X4667619Y3807443D01*
Y3773588D01*
X4650691Y3756660D01*
X4616835D01*
X4599907Y3773588D01*
X4336720Y249580D02*
X4235153D01*
Y300364D01*
X4252080Y317292D01*
X4285936D01*
X4302864Y300364D01*
Y249580D01*
Y283436D02*
X4336720Y317292D01*
Y351148D02*
Y385003D01*
Y368075D01*
X4235153D01*
X4252080Y351148D01*
X4235153Y503498D02*
X4252080Y469643D01*
X4285936Y435787D01*
X4319792D01*
X4336720Y452715D01*
Y486571D01*
X4319792Y503498D01*
X4302864D01*
X4285936Y486571D01*
Y435787D01*
X6543980Y1138548D02*
Y1053908D01*
X6560908Y1036980D01*
X6594763D01*
X6611691Y1053908D01*
Y1138548D01*
X6713258Y1036980D02*
X6645547D01*
X6713258Y1104692D01*
Y1121620D01*
X6696331Y1138548D01*
X6662475D01*
X6645547Y1121620D01*
X5047920Y249580D02*
X4946353D01*
Y300364D01*
X4963280Y317292D01*
X4997136D01*
X5014064Y300364D01*
Y249580D01*
Y283436D02*
X5047920Y317292D01*
Y418859D02*
Y351148D01*
X4980208Y418859D01*
X4963280D01*
X4946353Y401931D01*
Y368075D01*
X4963280Y351148D01*
Y452715D02*
X4946353Y469643D01*
Y503498D01*
X4963280Y520426D01*
X4980208D01*
X4997136Y503498D01*
Y486571D01*
Y503498D01*
X5014064Y520426D01*
X5030992D01*
X5047920Y503498D01*
Y469643D01*
X5030992Y452715D01*
X5581320Y1532280D02*
X5479753D01*
Y1583064D01*
X5496680Y1599992D01*
X5530536D01*
X5547464Y1583064D01*
Y1532280D01*
Y1566136D02*
X5581320Y1599992D01*
Y1701559D02*
Y1633848D01*
X5513608Y1701559D01*
X5496680D01*
X5479753Y1684631D01*
Y1650775D01*
X5496680Y1633848D01*
X5581320Y1803126D02*
Y1735415D01*
X5513608Y1803126D01*
X5496680D01*
X5479753Y1786198D01*
Y1752343D01*
X5496680Y1735415D01*
X4870120Y249580D02*
X4768553D01*
Y300364D01*
X4785480Y317292D01*
X4819336D01*
X4836264Y300364D01*
Y249580D01*
Y283436D02*
X4870120Y317292D01*
Y418859D02*
Y351148D01*
X4802408Y418859D01*
X4785480D01*
X4768553Y401931D01*
Y368075D01*
X4785480Y351148D01*
Y452715D02*
X4768553Y469643D01*
Y503498D01*
X4785480Y520426D01*
X4853192D01*
X4870120Y503498D01*
Y469643D01*
X4853192Y452715D01*
X4785480D01*
X3943020Y3208680D02*
X3841453D01*
Y3259464D01*
X3858380Y3276392D01*
X3892236D01*
X3909164Y3259464D01*
Y3208680D01*
Y3242536D02*
X3943020Y3276392D01*
Y3310248D02*
Y3344103D01*
Y3327175D01*
X3841453D01*
X3858380Y3310248D01*
X3943020Y3445671D02*
X3841453D01*
X3892236Y3394887D01*
Y3462598D01*
X2738120Y2545080D02*
X2636553D01*
Y2595863D01*
X2653481Y2612791D01*
X2687337D01*
X2704264Y2595863D01*
Y2545080D01*
Y2578936D02*
X2738120Y2612791D01*
Y2646647D02*
Y2680503D01*
Y2663575D01*
X2636553D01*
X2653481Y2646647D01*
Y2731287D02*
X2636553Y2748214D01*
Y2782070D01*
X2653481Y2798998D01*
X2670409D01*
X2687337Y2782070D01*
X2704264Y2798998D01*
X2721192D01*
X2738120Y2782070D01*
Y2748214D01*
X2721192Y2731287D01*
X2704264D01*
X2687337Y2748214D01*
X2670409Y2731287D01*
X2653481D01*
X2687337Y2748214D02*
Y2782070D01*
X4692320Y249580D02*
X4590753D01*
Y300364D01*
X4607680Y317292D01*
X4641536D01*
X4658464Y300364D01*
Y249580D01*
Y283436D02*
X4692320Y317292D01*
Y351148D02*
Y385003D01*
Y368075D01*
X4590753D01*
X4607680Y351148D01*
X4692320Y503498D02*
Y435787D01*
X4624608Y503498D01*
X4607680D01*
X4590753Y486571D01*
Y452715D01*
X4607680Y435787D01*
X3692356Y2346350D02*
Y2447918D01*
X3743139D01*
X3760067Y2430990D01*
Y2397134D01*
X3743139Y2380206D01*
X3692356D01*
X3726211D02*
X3760067Y2346350D01*
X3793923D02*
X3827779D01*
X3810851D01*
Y2447918D01*
X3793923Y2430990D01*
X3878562Y2346350D02*
X3912418D01*
X3895490D01*
Y2447918D01*
X3878562Y2430990D01*
X5835320Y1544980D02*
X5733753D01*
Y1595764D01*
X5750680Y1612692D01*
X5784536D01*
X5801464Y1595764D01*
Y1544980D01*
Y1578836D02*
X5835320Y1612692D01*
X5818392Y1646548D02*
X5835320Y1663475D01*
Y1697331D01*
X5818392Y1714259D01*
X5750680D01*
X5733753Y1697331D01*
Y1663475D01*
X5750680Y1646548D01*
X5767608D01*
X5784536Y1663475D01*
Y1714259D01*
X4514520Y249580D02*
X4412953D01*
Y300364D01*
X4429880Y317292D01*
X4463736D01*
X4480664Y300364D01*
Y249580D01*
Y283436D02*
X4514520Y317292D01*
X4429880Y351148D02*
X4412953Y368075D01*
Y401931D01*
X4429880Y418859D01*
X4446808D01*
X4463736Y401931D01*
X4480664Y418859D01*
X4497592D01*
X4514520Y401931D01*
Y368075D01*
X4497592Y351148D01*
X4480664D01*
X4463736Y368075D01*
X4446808Y351148D01*
X4429880D01*
X4463736Y368075D02*
Y401931D01*
X2698420Y4567580D02*
Y4669148D01*
X2749203D01*
X2766131Y4652220D01*
Y4618364D01*
X2749203Y4601436D01*
X2698420D01*
X2732275D02*
X2766131Y4567580D01*
X2867698D02*
X2799987D01*
X2867698Y4635292D01*
Y4652220D01*
X2850771Y4669148D01*
X2816915D01*
X2799987Y4652220D01*
X3168320Y4567580D02*
Y4669148D01*
X3219103D01*
X3236031Y4652220D01*
Y4618364D01*
X3219103Y4601436D01*
X3168320D01*
X3202175D02*
X3236031Y4567580D01*
X3269887D02*
X3303743D01*
X3286815D01*
Y4669148D01*
X3269887Y4652220D01*
X4135191Y1409508D02*
Y1477220D01*
X4118263Y1494148D01*
X4084408D01*
X4067480Y1477220D01*
Y1409508D01*
X4084408Y1392580D01*
X4118263D01*
X4101335Y1426436D02*
X4135191Y1392580D01*
X4118263D02*
X4135191Y1409508D01*
X4169047Y1477220D02*
X4185975Y1494148D01*
X4219831D01*
X4236758Y1477220D01*
Y1460292D01*
X4219831Y1443364D01*
X4202903D01*
X4219831D01*
X4236758Y1426436D01*
Y1409508D01*
X4219831Y1392580D01*
X4185975D01*
X4169047Y1409508D01*
X2943931Y3426268D02*
Y3493980D01*
X2927003Y3510908D01*
X2893148D01*
X2876220Y3493980D01*
Y3426268D01*
X2893148Y3409340D01*
X2927003D01*
X2910075Y3443196D02*
X2943931Y3409340D01*
X2927003D02*
X2943931Y3426268D01*
X3045498Y3409340D02*
X2977787D01*
X3045498Y3477052D01*
Y3493980D01*
X3028571Y3510908D01*
X2994715D01*
X2977787Y3493980D01*
X2712791Y1468748D02*
X2645080D01*
Y1417964D01*
X2678935D01*
X2645080D01*
Y1367180D01*
X2746647D02*
X2780503D01*
X2763575D01*
Y1468748D01*
X2746647Y1451820D01*
X4209753Y1773580D02*
X4311320D01*
Y1824364D01*
X4294392Y1841292D01*
X4226680D01*
X4209753Y1824364D01*
Y1773580D01*
X4311320Y1925931D02*
X4209753D01*
X4260536Y1875148D01*
Y1942859D01*
X2584153Y1798980D02*
X2685720D01*
Y1849764D01*
X2668792Y1866692D01*
X2601080D01*
X2584153Y1849764D01*
Y1798980D01*
X2601080Y1900548D02*
X2584153Y1917475D01*
Y1951331D01*
X2601080Y1968259D01*
X2618008D01*
X2634936Y1951331D01*
Y1934403D01*
Y1951331D01*
X2651864Y1968259D01*
X2668792D01*
X2685720Y1951331D01*
Y1917475D01*
X2668792Y1900548D01*
X6510091Y1680420D02*
X6493163Y1697348D01*
X6459308D01*
X6442380Y1680420D01*
Y1612708D01*
X6459308Y1595780D01*
X6493163D01*
X6510091Y1612708D01*
X6543947Y1595780D02*
X6577803D01*
X6560875D01*
Y1697348D01*
X6543947Y1680420D01*
X6696298Y1697348D02*
X6662442Y1680420D01*
X6628586Y1646564D01*
Y1612708D01*
X6645514Y1595780D01*
X6679370D01*
X6696298Y1612708D01*
Y1629636D01*
X6679370Y1646564D01*
X6628586D01*
X2453711Y4301700D02*
X2436783Y4318628D01*
X2402928D01*
X2386000Y4301700D01*
Y4233988D01*
X2402928Y4217060D01*
X2436783D01*
X2453711Y4233988D01*
X2538351Y4217060D02*
Y4318628D01*
X2487567Y4267844D01*
X2555278D01*
X5915220Y3829347D02*
Y3744708D01*
X5932148Y3727780D01*
X5966003D01*
X5982931Y3744708D01*
Y3829347D01*
X6016787Y3727780D02*
X6050643D01*
X6033715D01*
Y3829347D01*
X6016787Y3812420D01*
X4105580Y3043580D02*
Y3145148D01*
X4156363D01*
X4173291Y3128220D01*
Y3094364D01*
X4156363Y3077436D01*
X4105580D01*
X4139435D02*
X4173291Y3043580D01*
X4274858D02*
X4207147D01*
X4274858Y3111292D01*
Y3128220D01*
X4257931Y3145148D01*
X4224075D01*
X4207147Y3128220D01*
X4308714Y3043580D02*
X4342570D01*
X4325642D01*
Y3145148D01*
X4308714Y3128220D01*
X3943020Y2891180D02*
X3841453D01*
Y2941964D01*
X3858380Y2958892D01*
X3892236D01*
X3909164Y2941964D01*
Y2891180D01*
Y2925036D02*
X3943020Y2958892D01*
Y2992748D02*
Y3026603D01*
Y3009675D01*
X3841453D01*
X3858380Y2992748D01*
X3926092Y3077387D02*
X3943020Y3094315D01*
Y3128171D01*
X3926092Y3145098D01*
X3858380D01*
X3841453Y3128171D01*
Y3094315D01*
X3858380Y3077387D01*
X3875308D01*
X3892236Y3094315D01*
Y3145098D01*
X3776376Y2891180D02*
X3674809D01*
Y2941964D01*
X3691737Y2958892D01*
X3725592D01*
X3742520Y2941964D01*
Y2891180D01*
Y2925036D02*
X3776376Y2958892D01*
Y2992748D02*
Y3026603D01*
Y3009675D01*
X3674809D01*
X3691737Y2992748D01*
X3674809Y3077387D02*
Y3145098D01*
X3691737D01*
X3759448Y3077387D01*
X3776376D01*
X5997880Y2484780D02*
Y2586348D01*
X6048663D01*
X6065591Y2569420D01*
Y2535564D01*
X6048663Y2518636D01*
X5997880D01*
X6031735D02*
X6065591Y2484780D01*
X6099447D02*
X6133303D01*
X6116375D01*
Y2586348D01*
X6099447Y2569420D01*
X6184086D02*
X6201014Y2586348D01*
X6234870D01*
X6251798Y2569420D01*
Y2552492D01*
X6234870Y2535564D01*
X6217942D01*
X6234870D01*
X6251798Y2518636D01*
Y2501708D01*
X6234870Y2484780D01*
X6201014D01*
X6184086Y2501708D01*
X5997880Y2916580D02*
Y3018148D01*
X6048663D01*
X6065591Y3001220D01*
Y2967364D01*
X6048663Y2950436D01*
X5997880D01*
X6031735D02*
X6065591Y2916580D01*
X6099447D02*
X6133303D01*
X6116375D01*
Y3018148D01*
X6099447Y3001220D01*
X6251798Y3018148D02*
X6184086D01*
Y2967364D01*
X6217942Y2984292D01*
X6234870D01*
X6251798Y2967364D01*
Y2933508D01*
X6234870Y2916580D01*
X6201014D01*
X6184086Y2933508D01*
X6734480Y2685440D02*
Y2787008D01*
X6785263D01*
X6802191Y2770080D01*
Y2736224D01*
X6785263Y2719296D01*
X6734480D01*
X6768335D02*
X6802191Y2685440D01*
X6836047D02*
X6869903D01*
X6852975D01*
Y2787008D01*
X6836047Y2770080D01*
X6920686D02*
X6937614Y2787008D01*
X6971470D01*
X6988398Y2770080D01*
Y2702368D01*
X6971470Y2685440D01*
X6937614D01*
X6920686Y2702368D01*
Y2770080D01*
X6734480Y3221380D02*
Y3322948D01*
X6785263D01*
X6802191Y3306020D01*
Y3272164D01*
X6785263Y3255236D01*
X6734480D01*
X6768335D02*
X6802191Y3221380D01*
X6836047Y3322948D02*
X6903758D01*
Y3306020D01*
X6836047Y3238308D01*
Y3221380D01*
X7320280Y2646680D02*
Y2748247D01*
X7371063D01*
X7387991Y2731319D01*
Y2697463D01*
X7371063Y2680536D01*
X7320280D01*
X7354136D02*
X7387991Y2646680D01*
X7489559Y2748247D02*
X7455703Y2731319D01*
X7421847Y2697463D01*
Y2663608D01*
X7438775Y2646680D01*
X7472631D01*
X7489559Y2663608D01*
Y2680536D01*
X7472631Y2697463D01*
X7421847D01*
X4640610Y4853804D02*
X4539042D01*
Y4904588D01*
X4555970Y4921516D01*
X4589826D01*
X4606754Y4904588D01*
Y4853804D01*
Y4887660D02*
X4640610Y4921516D01*
Y5006155D02*
X4539042D01*
X4589826Y4955372D01*
Y5023083D01*
X4857420Y4859680D02*
X4755853D01*
Y4910464D01*
X4772780Y4927392D01*
X4806636D01*
X4823564Y4910464D01*
Y4859680D01*
Y4893536D02*
X4857420Y4927392D01*
X4772780Y4961248D02*
X4755853Y4978175D01*
Y5012031D01*
X4772780Y5028959D01*
X4789708D01*
X4806636Y5012031D01*
Y4995103D01*
Y5012031D01*
X4823564Y5028959D01*
X4840492D01*
X4857420Y5012031D01*
Y4978175D01*
X4840492Y4961248D01*
X5333612Y4927392D02*
X5265900D01*
X5248972Y4910464D01*
Y4876608D01*
X5265900Y4859680D01*
X5333612D01*
X5350540Y4876608D01*
Y4910464D01*
X5316684Y4893536D02*
X5350540Y4927392D01*
Y4910464D02*
X5333612Y4927392D01*
X5350540Y4961248D02*
Y4995103D01*
Y4978175D01*
X5248972D01*
X5265900Y4961248D01*
X5745480Y4157947D02*
X5813191D01*
X5779336D01*
Y4056380D01*
X5847047D02*
Y4157947D01*
X5897831D01*
X5914759Y4141019D01*
Y4107163D01*
X5897831Y4090236D01*
X5847047D01*
X6016326Y4157947D02*
X5948614D01*
Y4107163D01*
X5982470Y4124091D01*
X5999398D01*
X6016326Y4107163D01*
Y4073308D01*
X5999398Y4056380D01*
X5965542D01*
X5948614Y4073308D01*
X4958080Y4742147D02*
X5025791D01*
X4991936D01*
Y4640580D01*
X5059647D02*
Y4742147D01*
X5110431D01*
X5127359Y4725219D01*
Y4691363D01*
X5110431Y4674436D01*
X5059647D01*
X5211998Y4640580D02*
Y4742147D01*
X5161214Y4691363D01*
X5228926D01*
X5707380Y4348447D02*
X5775091D01*
X5741236D01*
Y4246880D01*
X5808947D02*
Y4348447D01*
X5859731D01*
X5876659Y4331519D01*
Y4297663D01*
X5859731Y4280736D01*
X5808947D01*
X5910514Y4331519D02*
X5927442Y4348447D01*
X5961298D01*
X5978226Y4331519D01*
Y4314591D01*
X5961298Y4297663D01*
X5944370D01*
X5961298D01*
X5978226Y4280736D01*
Y4263808D01*
X5961298Y4246880D01*
X5927442D01*
X5910514Y4263808D01*
X6066493Y2148632D02*
Y2080920D01*
X6117276D01*
Y2114776D01*
Y2080920D01*
X6168060D01*
Y2250199D02*
Y2182488D01*
X6100348Y2250199D01*
X6083420D01*
X6066493Y2233271D01*
Y2199415D01*
X6083420Y2182488D01*
X6886880Y3996048D02*
Y3894480D01*
X6937663D01*
X6954591Y3911408D01*
Y3979120D01*
X6937663Y3996048D01*
X6886880D01*
X7056158Y3894480D02*
X6988447D01*
X7056158Y3962192D01*
Y3979120D01*
X7039231Y3996048D01*
X7005375D01*
X6988447Y3979120D01*
X3254680Y5659748D02*
Y5558180D01*
X3305463D01*
X3322391Y5575108D01*
Y5642820D01*
X3305463Y5659748D01*
X3254680D01*
X3356247Y5558180D02*
X3390103D01*
X3373175D01*
Y5659748D01*
X3356247Y5642820D01*
X8224312Y2244880D02*
X8207384Y2261808D01*
X8173528D01*
X8156600Y2244880D01*
Y2177168D01*
X8173528Y2160240D01*
X8207384D01*
X8224312Y2177168D01*
X8258168Y2160240D02*
X8292023D01*
X8275095D01*
Y2261808D01*
X8258168Y2244880D01*
X8342807D02*
X8359735Y2261808D01*
X8393591D01*
X8410518Y2244880D01*
Y2227952D01*
X8393591Y2211024D01*
X8376663D01*
X8393591D01*
X8410518Y2194096D01*
Y2177168D01*
X8393591Y2160240D01*
X8359735D01*
X8342807Y2177168D01*
X7905212Y2229200D02*
X7888284Y2246127D01*
X7854428D01*
X7837500Y2229200D01*
Y2161488D01*
X7854428Y2144560D01*
X7888284D01*
X7905212Y2161488D01*
X7939067D02*
X7955995Y2144560D01*
X7989851D01*
X8006779Y2161488D01*
Y2229200D01*
X7989851Y2246127D01*
X7955995D01*
X7939067Y2229200D01*
Y2212271D01*
X7955995Y2195344D01*
X8006779D01*
X3875308Y2720181D02*
X3892236Y2703253D01*
X3926092D01*
X3943020Y2720181D01*
Y2787893D01*
X3926092Y2804820D01*
X3892236D01*
X3875308Y2787893D01*
X3841453Y2804820D02*
X3807597D01*
X3824525D01*
Y2703253D01*
X3841453Y2720181D01*
X3756813Y2703253D02*
X3689102D01*
Y2720181D01*
X3756813Y2787893D01*
Y2804820D01*
X6065591Y2772620D02*
X6048663Y2789548D01*
X6014808D01*
X5997880Y2772620D01*
Y2704908D01*
X6014808Y2687980D01*
X6048663D01*
X6065591Y2704908D01*
X6099447Y2687980D02*
X6133303D01*
X6116375D01*
Y2789548D01*
X6099447Y2772620D01*
X6251798Y2789548D02*
X6184086D01*
Y2738764D01*
X6217942Y2755692D01*
X6234870D01*
X6251798Y2738764D01*
Y2704908D01*
X6234870Y2687980D01*
X6201014D01*
X6184086Y2704908D01*
X5900900Y3344972D02*
X5883972Y3328044D01*
Y3294188D01*
X5900900Y3277260D01*
X5968612D01*
X5985540Y3294188D01*
Y3328044D01*
X5968612Y3344972D01*
X5985540Y3378828D02*
Y3412683D01*
Y3395755D01*
X5883972D01*
X5900900Y3378828D01*
X5985540Y3514251D02*
X5883972D01*
X5934756Y3463467D01*
Y3531178D01*
X6791671Y3572720D02*
X6774743Y3589648D01*
X6740888D01*
X6723960Y3572720D01*
Y3505008D01*
X6740888Y3488080D01*
X6774743D01*
X6791671Y3505008D01*
X6825527Y3488080D02*
X6859383D01*
X6842455D01*
Y3589648D01*
X6825527Y3572720D01*
X6977878Y3488080D02*
X6910167D01*
X6977878Y3555792D01*
Y3572720D01*
X6960950Y3589648D01*
X6927094D01*
X6910167Y3572720D01*
X6802191Y3001220D02*
X6785263Y3018148D01*
X6751408D01*
X6734480Y3001220D01*
Y2933508D01*
X6751408Y2916580D01*
X6785263D01*
X6802191Y2933508D01*
X6836047Y2916580D02*
X6869903D01*
X6852975D01*
Y3018148D01*
X6836047Y3001220D01*
X6920686Y2916580D02*
X6954542D01*
X6937614D01*
Y3018148D01*
X6920686Y3001220D01*
X6791671Y3788620D02*
X6774743Y3805548D01*
X6740888D01*
X6723960Y3788620D01*
Y3720908D01*
X6740888Y3703980D01*
X6774743D01*
X6791671Y3720908D01*
X6825527Y3703980D02*
X6859383D01*
X6842455D01*
Y3805548D01*
X6825527Y3788620D01*
X6910167D02*
X6927094Y3805548D01*
X6960950D01*
X6977878Y3788620D01*
Y3720908D01*
X6960950Y3703980D01*
X6927094D01*
X6910167Y3720908D01*
Y3788620D01*
X7578830Y2219044D02*
X7561902Y2235971D01*
X7528046D01*
X7511118Y2219044D01*
Y2151332D01*
X7528046Y2134404D01*
X7561902D01*
X7578830Y2151332D01*
X7612686Y2219044D02*
X7629613Y2235971D01*
X7663469D01*
X7680397Y2219044D01*
Y2202115D01*
X7663469Y2185188D01*
X7680397Y2168260D01*
Y2151332D01*
X7663469Y2134404D01*
X7629613D01*
X7612686Y2151332D01*
Y2168260D01*
X7629613Y2185188D01*
X7612686Y2202115D01*
Y2219044D01*
X7629613Y2185188D02*
X7663469D01*
X7248630Y2219044D02*
X7231702Y2235971D01*
X7197846D01*
X7180918Y2219044D01*
Y2151332D01*
X7197846Y2134404D01*
X7231702D01*
X7248630Y2151332D01*
X7282486Y2235971D02*
X7350197D01*
Y2219044D01*
X7282486Y2151332D01*
Y2134404D01*
X5022011Y4436320D02*
X5005083Y4453248D01*
X4971228D01*
X4954300Y4436320D01*
Y4368608D01*
X4971228Y4351680D01*
X5005083D01*
X5022011Y4368608D01*
X5123578Y4453248D02*
X5089723Y4436320D01*
X5055867Y4402464D01*
Y4368608D01*
X5072795Y4351680D01*
X5106650D01*
X5123578Y4368608D01*
Y4385536D01*
X5106650Y4402464D01*
X5055867D01*
X3691737Y3276392D02*
X3674809Y3259464D01*
Y3225608D01*
X3691737Y3208680D01*
X3759448D01*
X3776376Y3225608D01*
Y3259464D01*
X3759448Y3276392D01*
X3674809Y3377959D02*
Y3310248D01*
X3725592D01*
X3708665Y3344103D01*
Y3361031D01*
X3725592Y3377959D01*
X3759448D01*
X3776376Y3361031D01*
Y3327175D01*
X3759448Y3310248D01*
X4224451Y5081480D02*
X4207523Y5098408D01*
X4173668D01*
X4156740Y5081480D01*
Y5013768D01*
X4173668Y4996840D01*
X4207523D01*
X4224451Y5013768D01*
X4258307Y5081480D02*
X4275235Y5098408D01*
X4309090D01*
X4326018Y5081480D01*
Y5064552D01*
X4309090Y5047624D01*
X4292163D01*
X4309090D01*
X4326018Y5030696D01*
Y5013768D01*
X4309090Y4996840D01*
X4275235D01*
X4258307Y5013768D01*
X3832931Y5081480D02*
X3816003Y5098408D01*
X3782148D01*
X3765220Y5081480D01*
Y5013768D01*
X3782148Y4996840D01*
X3816003D01*
X3832931Y5013768D01*
X3934498Y4996840D02*
X3866787D01*
X3934498Y5064552D01*
Y5081480D01*
X3917571Y5098408D01*
X3883715D01*
X3866787Y5081480D01*
D55*
X6702620Y3900403D02*
D03*
Y4205401D02*
D03*
X3872700Y5157703D02*
D03*
Y5462701D02*
D03*
%TF.MD5,0f984f7ec78238bb26d1b6c5895b159e*%
M02*
