%TF.GenerationSoftware,Altium Limited,Altium Designer,25.4.2 (15)*%
G04 Layer_Color=8421504*
%FSLAX45Y45*%
%MOMM*%
%TF.SameCoordinates,6C6A8B56-62B0-443B-98C8-0AEE6F0B4FCF*%
%TF.FilePolarity,Positive*%
%TF.FileFunction,Paste,Top*%
%TF.Part,Single*%
G01*
G75*
%TA.AperFunction,SMDPad,CuDef*%
%ADD13R,1.39700X1.00000*%
%ADD14C,0.88900*%
%ADD15C,1.01600*%
%ADD16R,1.00000X1.39700*%
%ADD17R,0.60000X2.20000*%
%ADD18R,3.30000X1.80000*%
%ADD19R,6.80000X7.10000*%
%ADD20R,1.05000X2.85000*%
%ADD21R,1.50000X3.30000*%
%ADD22R,1.77800X1.77800*%
%ADD23R,1.77800X0.53340*%
G04:AMPARAMS|DCode=24|XSize=3.048mm|YSize=3.048mm|CornerRadius=0.762mm|HoleSize=0mm|Usage=FLASHONLY|Rotation=270.000|XOffset=0mm|YOffset=0mm|HoleType=Round|Shape=RoundedRectangle|*
%AMROUNDEDRECTD24*
21,1,3.04800,1.52400,0,0,270.0*
21,1,1.52400,3.04800,0,0,270.0*
1,1,1.52400,-0.76200,-0.76200*
1,1,1.52400,-0.76200,0.76200*
1,1,1.52400,0.76200,0.76200*
1,1,1.52400,0.76200,-0.76200*
%
%ADD24ROUNDEDRECTD24*%
%ADD25R,0.53340X1.77800*%
%ADD26R,1.80000X3.30000*%
%ADD27R,0.61000X1.27000*%
%ADD29R,2.00000X1.70000*%
%ADD30R,1.65100X1.01600*%
G04:AMPARAMS|DCode=31|XSize=1.524mm|YSize=1.778mm|CornerRadius=0.381mm|HoleSize=0mm|Usage=FLASHONLY|Rotation=90.000|XOffset=0mm|YOffset=0mm|HoleType=Round|Shape=RoundedRectangle|*
%AMROUNDEDRECTD31*
21,1,1.52400,1.01600,0,0,90.0*
21,1,0.76200,1.77800,0,0,90.0*
1,1,0.76200,0.50800,0.38100*
1,1,0.76200,0.50800,-0.38100*
1,1,0.76200,-0.50800,-0.38100*
1,1,0.76200,-0.50800,0.38100*
%
%ADD31ROUNDEDRECTD31*%
G36*
X5549620Y4941450D02*
Y4700450D01*
X5445220D01*
Y4941450D01*
X5549620D01*
D02*
G37*
G36*
X5450420Y5081700D02*
Y5011700D01*
X5389420D01*
Y5081700D01*
X5450420D01*
D02*
G37*
G36*
X5577420Y5082200D02*
Y5011700D01*
X5516420D01*
Y5082200D01*
X5577420D01*
D02*
G37*
G36*
X5831420Y5011700D02*
X5770420D01*
Y5082200D01*
X5831420D01*
Y5011700D01*
D02*
G37*
G36*
X5704420D02*
X5643420D01*
Y5082200D01*
X5704420D01*
Y5011700D01*
D02*
G37*
G36*
X5775620Y4700450D02*
X5671220D01*
Y4941450D01*
X5775620D01*
Y4700450D01*
D02*
G37*
D13*
X4559300Y3378204D02*
D03*
Y3606804D02*
D03*
X3872700Y4217996D02*
D03*
Y3989396D02*
D03*
X5269700Y522304D02*
D03*
Y293704D02*
D03*
X6285700D02*
D03*
Y522304D02*
D03*
X5523700Y1411296D02*
D03*
Y1182696D02*
D03*
X6031700Y293704D02*
D03*
Y522304D02*
D03*
X2676360Y2440000D02*
D03*
Y2211400D02*
D03*
X5777700Y293704D02*
D03*
Y522304D02*
D03*
Y1411296D02*
D03*
Y1182696D02*
D03*
X5523700Y293704D02*
D03*
Y522304D02*
D03*
X2437600Y4052904D02*
D03*
Y3824304D02*
D03*
X4569020Y4510104D02*
D03*
Y4738704D02*
D03*
X4797620Y4510104D02*
D03*
Y4738704D02*
D03*
X6105720Y3532196D02*
D03*
Y3303596D02*
D03*
D14*
X5079200Y4218000D02*
D03*
X5867400Y3987800D02*
D03*
X5229420Y4497400D02*
D03*
X5029200Y2933700D02*
D03*
X3885400Y3811600D02*
D03*
X6093020Y3151200D02*
D03*
X7174700Y3544900D02*
D03*
D15*
X5676900Y4216400D02*
D03*
D16*
X4086416Y3976700D02*
D03*
X4315016D02*
D03*
X4799796Y4233240D02*
D03*
X4571196D02*
D03*
X4571204Y3976700D02*
D03*
X4799804D02*
D03*
X4315016Y4233240D02*
D03*
X4086416D02*
D03*
X3948896Y2211400D02*
D03*
X3720296D02*
D03*
X6323804Y1627200D02*
D03*
X6095204D02*
D03*
X4431504Y3087700D02*
D03*
X4660104D02*
D03*
X5661224Y2503500D02*
D03*
X5889824D02*
D03*
X5889816Y2960700D02*
D03*
X5661216D02*
D03*
X6397824Y2729560D02*
D03*
X6626424D02*
D03*
X6397824Y3265500D02*
D03*
X6626424D02*
D03*
X5661216Y2732100D02*
D03*
X5889816D02*
D03*
X6387304Y3532200D02*
D03*
X6615904D02*
D03*
X6626416Y2960700D02*
D03*
X6397816D02*
D03*
X6615896Y3748100D02*
D03*
X6387296D02*
D03*
X5254824Y4230700D02*
D03*
X5483424D02*
D03*
D17*
X6019000Y820900D02*
D03*
X6146000D02*
D03*
X6273000D02*
D03*
X6400000D02*
D03*
X6019000Y1315900D02*
D03*
X6146000D02*
D03*
X6273000D02*
D03*
X6400000D02*
D03*
D18*
X2831298Y4372882D02*
D03*
Y3732884D02*
D03*
X3301198Y4372882D02*
D03*
Y3732884D02*
D03*
D19*
X3656400Y865600D02*
D03*
X3199200Y2947600D02*
D03*
D20*
X3427400Y1525600D02*
D03*
X3885400D02*
D03*
X2970200Y2287600D02*
D03*
X3428200D02*
D03*
D21*
X2497482Y1474802D02*
D03*
X2043900Y1474800D02*
D03*
X6285700Y2211400D02*
D03*
X6739282Y2211402D02*
D03*
D22*
X3584199Y1906600D02*
D03*
X4034201D02*
D03*
X3297601D02*
D03*
X2847599D02*
D03*
D23*
X5775520Y3471088D02*
D03*
Y3571088D02*
D03*
Y3671088D02*
D03*
Y3771088D02*
D03*
X5064320D02*
D03*
Y3671088D02*
D03*
Y3571088D02*
D03*
Y3471088D02*
D03*
D24*
X5419920Y3621100D02*
D03*
D25*
X5269931Y3265500D02*
D03*
X5369931D02*
D03*
X5469931D02*
D03*
X5569931D02*
D03*
X5269931Y3976700D02*
D03*
X5369931D02*
D03*
X5469931D02*
D03*
X5569931D02*
D03*
D26*
X7940017Y2451098D02*
D03*
X7300018D02*
D03*
D27*
X5419920Y4484700D02*
D03*
X5546920D02*
D03*
X5673920D02*
D03*
X5800920D02*
D03*
D29*
X6690320Y4052900D02*
D03*
X6181520D02*
D03*
X3860400Y5310200D02*
D03*
X3351600D02*
D03*
D30*
X8218492Y2060376D02*
D03*
Y1730176D02*
D03*
X7899392Y2044696D02*
D03*
Y1714496D02*
D03*
X7569208Y2044704D02*
D03*
Y1714504D02*
D03*
X7239008Y2044704D02*
D03*
Y1714504D02*
D03*
D31*
X4246440Y4819960D02*
D03*
Y4520280D02*
D03*
X3854920Y4819960D02*
D03*
Y4520280D02*
D03*
%TF.MD5,15127430844f661ccb6b73463cf2f84e*%
M02*
