%TF.GenerationSoftware,Altium Limited,Altium Designer,25.4.2 (15)*%
G04 Layer_Physical_Order=1*
G04 Layer_Color=255*
%FSLAX45Y45*%
%MOMM*%
%TF.SameCoordinates,6C6A8B56-62B0-443B-98C8-0AEE6F0B4FCF*%
%TF.FilePolarity,Positive*%
%TF.FileFunction,Copper,L1,Top,Signal*%
%TF.Part,Single*%
G01*
G75*
%TA.AperFunction,Conductor*%
%ADD10C,1.01600*%
%ADD11C,0.76200*%
%ADD12C,0.50800*%
%TA.AperFunction,SMDPad,CuDef*%
%ADD13R,1.39700X1.00000*%
%ADD14C,0.88900*%
%ADD15C,1.01600*%
%ADD16R,1.00000X1.39700*%
%ADD17R,0.60000X2.20000*%
%ADD18R,3.30000X1.80000*%
%ADD19R,6.80000X7.10000*%
%ADD20R,1.05000X2.85000*%
%ADD21R,1.50000X3.30000*%
%ADD22R,1.77800X1.77800*%
%ADD23R,1.77800X0.53340*%
G04:AMPARAMS|DCode=24|XSize=3.048mm|YSize=3.048mm|CornerRadius=0.762mm|HoleSize=0mm|Usage=FLASHONLY|Rotation=270.000|XOffset=0mm|YOffset=0mm|HoleType=Round|Shape=RoundedRectangle|*
%AMROUNDEDRECTD24*
21,1,3.04800,1.52400,0,0,270.0*
21,1,1.52400,3.04800,0,0,270.0*
1,1,1.52400,-0.76200,-0.76200*
1,1,1.52400,-0.76200,0.76200*
1,1,1.52400,0.76200,0.76200*
1,1,1.52400,0.76200,-0.76200*
%
%ADD24ROUNDEDRECTD24*%
%ADD25R,0.53340X1.77800*%
%ADD26R,1.80000X3.30000*%
%ADD27R,0.61000X1.27000*%
%ADD28R,0.10000X0.10000*%
%ADD29R,2.00000X1.70000*%
%ADD30R,1.65100X1.01600*%
G04:AMPARAMS|DCode=31|XSize=1.524mm|YSize=1.778mm|CornerRadius=0.381mm|HoleSize=0mm|Usage=FLASHONLY|Rotation=90.000|XOffset=0mm|YOffset=0mm|HoleType=Round|Shape=RoundedRectangle|*
%AMROUNDEDRECTD31*
21,1,1.52400,1.01600,0,0,90.0*
21,1,0.76200,1.77800,0,0,90.0*
1,1,0.76200,0.50800,0.38100*
1,1,0.76200,0.50800,-0.38100*
1,1,0.76200,-0.50800,-0.38100*
1,1,0.76200,-0.50800,0.38100*
%
%ADD31ROUNDEDRECTD31*%
%TA.AperFunction,Conductor*%
%ADD32C,1.14300*%
%ADD33C,0.38100*%
%ADD34C,0.30480*%
%TA.AperFunction,ComponentPad*%
%ADD35C,1.90500*%
%ADD36O,1.90500X1.65100*%
%ADD37C,2.03200*%
%ADD38C,3.00000*%
%TA.AperFunction,ViaPad*%
%ADD39C,6.00000*%
%ADD40C,1.27000*%
%ADD41C,0.60960*%
G36*
X3542500Y4370400D02*
X3542954Y4361163D01*
X3546558Y4343043D01*
X3553628Y4325975D01*
X3563892Y4310614D01*
X3576955Y4297551D01*
X3592316Y4287287D01*
X3609384Y4280217D01*
X3627504Y4276613D01*
X3636741Y4276159D01*
X3782530D01*
Y4256096D01*
X3872700D01*
Y4179896D01*
X3782530D01*
Y4154500D01*
X3694899Y4154499D01*
X3684941Y4154010D01*
X3665406Y4150125D01*
X3647005Y4142503D01*
X3630445Y4131438D01*
X3616361Y4117354D01*
X3605296Y4100793D01*
X3597674Y4082392D01*
X3594154Y4064692D01*
X3593789Y4062858D01*
X3593300Y4052900D01*
X3593300Y4052900D01*
X3593300Y4052900D01*
Y3938600D01*
X3542500D01*
X3542499Y4022239D01*
X3542081Y4030758D01*
X3538757Y4047469D01*
X3532237Y4063209D01*
X3522771Y4077375D01*
X3517044Y4083696D01*
X3511337Y4089402D01*
X3508365Y4092231D01*
X3508354Y4092242D01*
X3508316Y4092278D01*
X3501895Y4098392D01*
X3481745Y4114928D01*
X3460072Y4129410D01*
X3437084Y4141697D01*
X3413002Y4151672D01*
X3388058Y4159239D01*
X3362492Y4164324D01*
X3336552Y4166879D01*
X3323519Y4167199D01*
Y4167200D01*
X2577300Y4167200D01*
Y4385278D01*
X2577300Y4405899D01*
X2585345Y4446347D01*
X2601127Y4484449D01*
X2624039Y4518740D01*
X2638621Y4533321D01*
X2638621Y4533321D01*
X2861056Y4755757D01*
X2875228Y4770642D01*
X2901297Y4802406D01*
X2924127Y4836572D01*
X2943498Y4872812D01*
X2959224Y4910776D01*
X2971152Y4950099D01*
X2979168Y4990401D01*
X2983195Y5031296D01*
X2983699Y5051842D01*
X2983700Y5051842D01*
X2983697Y5111357D01*
X2983342Y5125885D01*
X2980496Y5154802D01*
X2974828Y5183301D01*
X2966395Y5211106D01*
X2955275Y5237951D01*
X2941578Y5263576D01*
X2925434Y5287736D01*
X2907000Y5310196D01*
X2896979Y5320720D01*
X2896979Y5320721D01*
X2896979Y5320721D01*
X2841819Y5375876D01*
X2826597Y5389676D01*
X2792473Y5412481D01*
X2754555Y5428188D01*
X2714300Y5436193D01*
X2693779Y5437199D01*
X2693779Y5437200D01*
X2693778Y5437200D01*
X2456461Y5437197D01*
X2431660Y5436589D01*
X2382296Y5431730D01*
X2333647Y5422054D01*
X2286180Y5407656D01*
X2240353Y5388675D01*
X2196608Y5365292D01*
X2155366Y5337733D01*
X2117024Y5306265D01*
X2099058Y5289158D01*
X2099058Y5289158D01*
X2099057Y5289158D01*
X2033905Y5224007D01*
X2001953Y5192054D01*
X1932092Y5134719D01*
X1856948Y5084509D01*
X1777243Y5041906D01*
X1693747Y5007321D01*
X1607263Y4981087D01*
X1518624Y4963457D01*
X1428683Y4954599D01*
X1383496Y4954600D01*
X1360189Y4954600D01*
X1313973Y4960684D01*
X1268947Y4972748D01*
X1225880Y4990587D01*
X1185511Y5013894D01*
X1148530Y5042271D01*
X1115568Y5075233D01*
X1087192Y5112215D01*
X1063885Y5152584D01*
X1046047Y5195650D01*
X1033983Y5240677D01*
X1027899Y5286892D01*
X1027900Y5310199D01*
Y5360999D01*
X1027899Y5387636D01*
X1034852Y5440454D01*
X1048640Y5491913D01*
X1069027Y5541132D01*
X1095664Y5587268D01*
X1128095Y5629534D01*
X1165765Y5667204D01*
X1208030Y5699635D01*
X1254167Y5726272D01*
X1303385Y5746658D01*
X1354844Y5760446D01*
X1407662Y5767399D01*
X1434299Y5767399D01*
X1434300Y5767400D01*
X3542500Y5767400D01*
Y4370400D01*
D02*
G37*
G36*
X5574500Y5082200D02*
X5577420D01*
Y5011700D01*
X5579920D01*
Y4630200D01*
X5414920D01*
Y4649801D01*
X5385211D01*
X5381458Y4650547D01*
X5229425Y4650547D01*
X5225671Y4650547D01*
X5225664Y4650546D01*
X5225662Y4650546D01*
X5221841Y4650547D01*
D01*
D01*
X5221840D01*
X5218088Y4649801D01*
X3644100D01*
Y5767400D01*
X5574500D01*
Y5082200D01*
D02*
G37*
G36*
X6928530Y5767400D02*
X6971188Y5767400D01*
X7056093Y5759038D01*
X7139769Y5742394D01*
X7221410Y5717628D01*
X7300231Y5684979D01*
X7375473Y5644761D01*
X7446409Y5597362D01*
X7512359Y5543238D01*
X7542522Y5513074D01*
X7542522Y5513074D01*
X7542525Y5513074D01*
X8604437Y4451161D01*
X8626256Y4429343D01*
X8665405Y4381639D01*
X8699690Y4330327D01*
X8728781Y4275902D01*
X8752397Y4218888D01*
X8770311Y4159833D01*
X8782351Y4099307D01*
X8788399Y4037892D01*
X8788399Y4007036D01*
X8788399D01*
X8788400Y4007036D01*
Y3530600D01*
X8057962D01*
X8039843Y3530599D01*
X8004302Y3537669D01*
X7970823Y3551535D01*
X7940693Y3571668D01*
X7915069Y3597291D01*
X7894937Y3627421D01*
X7881069Y3660900D01*
X7874000Y3696441D01*
X7874000Y3714560D01*
X7873999Y3714560D01*
X7873575Y3731884D01*
X7870180Y3766364D01*
X7863421Y3800344D01*
X7853364Y3833499D01*
X7840104Y3865508D01*
X7823772Y3896064D01*
X7804522Y3924871D01*
X7782541Y3951652D01*
X7770595Y3964198D01*
X7770595Y3964205D01*
Y3964204D01*
X7416800Y4318000D01*
X6781800Y4332301D01*
X6105714D01*
X6093205Y4332300D01*
X6068669Y4337179D01*
X6045557Y4346752D01*
X6024756Y4360650D01*
X6007067Y4378339D01*
X5993169Y4399141D01*
X5983597Y4422254D01*
X5978718Y4446790D01*
X5978720Y4459298D01*
X5978713Y4510096D01*
X5977497Y4522486D01*
X5968020Y4545380D01*
X5950500Y4562901D01*
X5927607Y4572380D01*
X5915221Y4573597D01*
X5915220Y4573601D01*
X5915219Y4573600D01*
X5506696Y4573601D01*
X5496119Y4573601D01*
X5496099Y4568520D01*
X5496100Y4560909D01*
Y4400880D01*
X5496129D01*
X5496623Y4390798D01*
X5500627Y4370672D01*
X5508479Y4351713D01*
X5518952Y4336041D01*
X5519880Y4334650D01*
X5520859Y4333570D01*
X5515230Y4320870D01*
X5413104D01*
Y4217586D01*
X5400404Y4211294D01*
X5394517Y4215776D01*
X5394513Y4319596D01*
X5393540Y4329507D01*
X5385957Y4347821D01*
X5371942Y4361838D01*
X5355346Y4368711D01*
X5353629Y4369423D01*
X5343782Y4370391D01*
X5343720Y4370400D01*
X5343720Y4370401D01*
X5343719Y4370400D01*
X5229419D01*
X5221840Y4370399D01*
X5207836Y4376198D01*
X5197119Y4386915D01*
X5191319Y4400919D01*
X5191320Y4408497D01*
Y4429328D01*
X5191320Y4429329D01*
Y4497400D01*
X5229420D01*
Y4535500D01*
X5282919D01*
X5266109Y4552310D01*
X5242303Y4562170D01*
X5216536D01*
X5204020Y4556986D01*
X5191320Y4565472D01*
Y4573600D01*
X5191318Y4581179D01*
X5197117Y4595183D01*
X5207835Y4605900D01*
X5221839Y4611699D01*
X5229417Y4611698D01*
X5229420Y4611700D01*
X5229422Y4611701D01*
X5229425Y4611700D01*
X5381458Y4611701D01*
X5387451Y4602732D01*
X5400054Y4594311D01*
X5414920Y4591354D01*
X5579920D01*
X5594786Y4594311D01*
X5607388Y4602732D01*
X5613381Y4611701D01*
X5643420D01*
Y4630200D01*
X5640920D01*
Y5011700D01*
X5643420D01*
Y5082200D01*
Y5767400D01*
X6816919Y5767401D01*
X6928530Y5767400D01*
D02*
G37*
G36*
X4381032Y4598160D02*
X4383686Y4571210D01*
X4388969Y4544651D01*
X4396830Y4518736D01*
X4407193Y4493718D01*
X4419958Y4469835D01*
X4435003Y4447319D01*
X4452182Y4426386D01*
X4461521Y4416577D01*
Y4416576D01*
X4461521Y4416577D01*
X4479291Y4400471D01*
X4519124Y4373856D01*
X4563385Y4355522D01*
X4610371Y4346176D01*
X4634325Y4345000D01*
X4663819Y4345000D01*
X4672800Y4336020D01*
Y3760800D01*
X4279100D01*
Y3886530D01*
X4385336D01*
Y3938600D01*
X4315016D01*
Y4014800D01*
X4385336D01*
Y4066870D01*
X4385336Y4066870D01*
X4385336D01*
X4391781Y4076682D01*
X4428418Y4113319D01*
X4434827Y4120390D01*
X4445417Y4136239D01*
X4452712Y4153851D01*
X4456431Y4172547D01*
X4456899Y4182079D01*
X4456899D01*
X4456039Y4199595D01*
X4449205Y4233953D01*
X4435799Y4266319D01*
X4416336Y4295446D01*
X4404559Y4308440D01*
X4404559Y4308440D01*
X4373259Y4339739D01*
X4362495Y4349496D01*
X4338365Y4365620D01*
X4311553Y4376726D01*
X4283089Y4382387D01*
X4268579Y4383100D01*
X4268579Y4383100D01*
X4268579Y4383100D01*
X4108020D01*
X4100463Y4395800D01*
X4105724Y4408500D01*
X3995276D01*
X4000537Y4395800D01*
X3992980Y4383100D01*
X3766741D01*
X3755698Y4383100D01*
X3734037Y4387409D01*
X3713632Y4395861D01*
X3695268Y4408131D01*
X3687460Y4415940D01*
X3677150Y4426250D01*
X3660949Y4450497D01*
X3649789Y4477439D01*
X3644100Y4506040D01*
Y4610954D01*
X3756529D01*
X3760501Y4598254D01*
X3749090Y4581175D01*
X3744555Y4558381D01*
X3854920D01*
X3965284D01*
X3960750Y4581175D01*
X3949338Y4598254D01*
X3953310Y4610954D01*
X4003567D01*
X4008828Y4598254D01*
X4003127Y4592554D01*
X3995276Y4573600D01*
X4105724D01*
X4097873Y4592554D01*
X4092172Y4598254D01*
X4097433Y4610954D01*
X4148049D01*
X4152021Y4598254D01*
X4140609Y4581175D01*
X4136075Y4558381D01*
X4246440D01*
X4356804D01*
X4352270Y4581175D01*
X4340858Y4598254D01*
X4344830Y4610954D01*
X4380718D01*
X4381032Y4598160D01*
D02*
G37*
G36*
X5913284Y4534754D02*
X5918071Y4534284D01*
X5928496Y4529967D01*
X5935084Y4523378D01*
X5939400Y4512953D01*
X5939867Y4508193D01*
X5939873Y4459298D01*
X5939872Y4446795D01*
X5940618Y4443041D01*
X5940618Y4439214D01*
X5945496Y4414678D01*
X5946960Y4411143D01*
X5947706Y4407390D01*
X5953319Y4393837D01*
X5953320Y3964000D01*
X5953319Y3963999D01*
X5953319Y3956494D01*
X5950391Y3941772D01*
X5944646Y3927905D01*
X5936307Y3915424D01*
X5925694Y3904811D01*
X5913213Y3896472D01*
X5899346Y3890727D01*
X5884624Y3887799D01*
X5877119Y3887799D01*
X5616921Y3887800D01*
Y3938600D01*
X5569931D01*
Y4014800D01*
X5616921D01*
Y4085920D01*
X5534220D01*
Y4103700D01*
X5549098D01*
X5563609Y4104413D01*
X5592073Y4110075D01*
X5618885Y4121180D01*
X5643015Y4137304D01*
X5653780Y4147060D01*
X5655283Y4148563D01*
X5667537Y4145280D01*
X5686263D01*
X5704351Y4150127D01*
X5720569Y4159490D01*
X5733810Y4172731D01*
X5743173Y4188949D01*
X5748020Y4207037D01*
Y4225763D01*
X5743361Y4243151D01*
X5746841Y4248358D01*
X5756994Y4272870D01*
X5762169Y4298893D01*
X5762819Y4312159D01*
X5762819Y4400880D01*
X5762820D01*
Y4484700D01*
X5800920D01*
Y4522800D01*
X5851740D01*
Y4534754D01*
X5913284D01*
D02*
G37*
G36*
X4244696Y4323410D02*
Y4271340D01*
X4315016D01*
Y4233240D01*
X4353116D01*
Y4143070D01*
X4364009D01*
X4369270Y4130370D01*
X4317200Y4078300D01*
X4215600D01*
X4169436Y4032136D01*
X4156736Y4037397D01*
Y4066870D01*
X4124516D01*
Y3976700D01*
Y3886530D01*
X4152100D01*
X4156736Y3886530D01*
X4164800Y3877170D01*
Y3760800D01*
X4083987D01*
X4078726Y3773500D01*
X4085173Y3779947D01*
X4093024Y3798900D01*
X3982576D01*
X3990427Y3779947D01*
X3996874Y3773500D01*
X3991613Y3760800D01*
X3942792D01*
X3937932Y3772533D01*
X3938899Y3773500D01*
X3885400D01*
X3824564D01*
X3822011Y3767781D01*
X3821071Y3766991D01*
X3816499Y3766202D01*
X3809200Y3773500D01*
X3789111D01*
D01*
X3758400D01*
Y4091000D01*
X4101300D01*
X4153370Y4143070D01*
X4156736D01*
Y4146436D01*
X4202900Y4192600D01*
Y4332300D01*
X4235678D01*
X4244696Y4323410D01*
D02*
G37*
G36*
X5184504Y4320870D02*
X5184504D01*
Y4268800D01*
X5254824D01*
Y4230700D01*
X5292924D01*
Y4140530D01*
X5318320D01*
Y4098041D01*
X5316921Y4085920D01*
X5308031D01*
Y3976700D01*
X5269931D01*
Y3938600D01*
X5184842D01*
D01*
X5089720Y3938600D01*
X5089720Y3938600D01*
X5080964Y3938600D01*
X5063788Y3942016D01*
X5047610Y3948718D01*
X5033049Y3958446D01*
X5020666Y3970829D01*
X5010937Y3985390D01*
X5004236Y4001569D01*
X5000819Y4018744D01*
X5000820Y4027500D01*
X5000820Y4332300D01*
X5181438D01*
X5184504Y4320870D01*
D02*
G37*
G36*
X5626495Y3841966D02*
X5640786Y3827676D01*
X5648520Y3809005D01*
Y3709188D01*
X5775520D01*
Y3632988D01*
X5648520D01*
X5648520Y3443300D01*
X5648518Y3443299D01*
Y3433194D01*
X5640785Y3414524D01*
X5626494Y3400234D01*
X5607824Y3392500D01*
X5229420D01*
X5229420Y3392500D01*
X5221841D01*
X5207838Y3398301D01*
X5197120Y3409018D01*
X5191320Y3423022D01*
X5191320Y3798898D01*
X5191320Y3798899D01*
X5192237Y3811219D01*
X5199052Y3827676D01*
X5213343Y3841967D01*
X5232014Y3849700D01*
X5242120Y3849700D01*
X5607824Y3849700D01*
X5626495Y3841966D01*
D02*
G37*
G36*
X6316976Y3786200D02*
X6387296D01*
Y3710000D01*
X6316976D01*
Y3657930D01*
X6316976D01*
X6313910Y3646500D01*
X5884740D01*
Y3697300D01*
X6004120D01*
X6143820Y3837000D01*
X6316976D01*
Y3786200D01*
D02*
G37*
G36*
X3479000Y3843203D02*
X3339298D01*
Y3732884D01*
Y3622564D01*
X3479000D01*
Y3595700D01*
X2437600Y3595700D01*
X2423840D01*
X2396851Y3601069D01*
X2371427Y3611600D01*
X2348546Y3626888D01*
X2329088Y3646347D01*
X2313800Y3669227D01*
X2303269Y3694651D01*
X2297900Y3721641D01*
Y3735400D01*
X2297900D01*
Y3913200D01*
X3479000D01*
Y3843203D01*
D02*
G37*
G36*
X6036371Y3385649D02*
X6031510Y3373916D01*
X6015550D01*
Y3341696D01*
X6105720D01*
X6195890D01*
Y3354400D01*
X6327504D01*
Y3303600D01*
X6397824D01*
Y3265500D01*
X6435924D01*
Y3175330D01*
X6456062D01*
X6462960Y3162630D01*
X6459107Y3143260D01*
X6450491Y3122459D01*
X6437982Y3103738D01*
X6422062Y3087817D01*
X6403341Y3075309D01*
X6382539Y3066692D01*
X6360457Y3062300D01*
X6349199Y3062300D01*
X6029520D01*
X5686620Y3405200D01*
Y3424098D01*
X5737420D01*
Y3471088D01*
X5813620D01*
Y3424098D01*
X5884740D01*
Y3506800D01*
X5915220D01*
X6036371Y3385649D01*
D02*
G37*
G36*
X5408031Y3156280D02*
X5416921D01*
Y3156280D01*
X5422942D01*
Y3156280D01*
X5431832D01*
Y3265500D01*
X5508032D01*
Y3156280D01*
X5511800D01*
Y2833700D01*
X4950020D01*
Y3029896D01*
X4957025Y3036900D01*
X5242120D01*
X5331020Y3125800D01*
Y3156280D01*
X5331831D01*
Y3265500D01*
X5408031D01*
Y3156280D01*
D02*
G37*
G36*
X5549100Y2545494D02*
X5537367Y2540633D01*
X5536400Y2541600D01*
X5104600D01*
X4952200Y2694000D01*
Y2782900D01*
X5002494D01*
X5005020Y2770200D01*
X4996746Y2766773D01*
X4981027Y2751054D01*
X4973176Y2732100D01*
X5083624D01*
X5075773Y2751054D01*
X5060053Y2766773D01*
X5051780Y2770200D01*
X5054306Y2782900D01*
X5549100D01*
Y2545494D01*
D02*
G37*
G36*
X3056082Y2421500D02*
X3066799Y2410782D01*
X3070916Y2400844D01*
X3072599Y2389202D01*
Y2389200D01*
X3072599D01*
X3072600Y2389199D01*
X3072599Y1932000D01*
X3072600Y1923244D01*
X3069184Y1906068D01*
X3062483Y1889889D01*
X3052754Y1875328D01*
X3040371Y1862946D01*
X3025810Y1853217D01*
X3009631Y1846515D01*
X2992455Y1843100D01*
X2983699Y1843100D01*
X2956819D01*
Y1868500D01*
X2847599D01*
X2738379D01*
Y1854506D01*
X2725679Y1844821D01*
X2708182Y1848301D01*
X2683551Y1858503D01*
X2661384Y1873315D01*
X2651959Y1882741D01*
X2651959Y1882741D01*
X2625921Y1908779D01*
X2608320Y1926379D01*
X2580663Y1967772D01*
X2561612Y2013765D01*
X2551900Y2062590D01*
Y2087481D01*
Y2296441D01*
X2558667Y2312778D01*
X2571170Y2325281D01*
X2587507Y2332048D01*
X2596348D01*
X2596349Y2332049D01*
X2721809Y2332050D01*
X2734194Y2332659D01*
X2758489Y2337491D01*
X2781375Y2346971D01*
X2801971Y2360733D01*
X2811159Y2369060D01*
X2811160D01*
X2825008Y2382908D01*
X2857576Y2404669D01*
X2884680Y2415896D01*
X2897380Y2407410D01*
Y2325700D01*
X2970200D01*
X3043020D01*
Y2415480D01*
X3053580Y2422536D01*
X3056082Y2421500D01*
D02*
G37*
G36*
X2416164Y2080432D02*
X2546918Y1949678D01*
X2548363Y1946190D01*
X2576021Y1904797D01*
X2578726Y1902092D01*
X2580851Y1898911D01*
X2598452Y1881310D01*
X2598452Y1881309D01*
X2624489Y1855274D01*
X2624490Y1855272D01*
X2633915Y1845846D01*
X2637097Y1843721D01*
X2639802Y1841015D01*
X2661969Y1826204D01*
X2665504Y1824739D01*
X2668686Y1822613D01*
X2677729Y1818867D01*
X2903138Y1593459D01*
X3127762Y1368839D01*
X3145730Y1351733D01*
X3184073Y1320267D01*
X3225316Y1292710D01*
X3269061Y1269328D01*
X3306983Y1253620D01*
X3304457Y1240920D01*
X3296080D01*
Y903700D01*
X4016720D01*
Y1220799D01*
X4113200D01*
X4123464Y1220801D01*
X4142430Y1212947D01*
X4156946Y1198431D01*
X4164801Y1179464D01*
X4164799Y1169200D01*
X4164799D01*
X4165170Y1161653D01*
X4168114Y1146848D01*
X4173890Y1132902D01*
X4182276Y1120351D01*
X4192950Y1109677D01*
X4205501Y1101291D01*
X4219446Y1095515D01*
X4234251Y1092570D01*
X4241799Y1092200D01*
X4444200D01*
X4444200Y990600D01*
X4241799Y990599D01*
X4234252Y990229D01*
X4219446Y987286D01*
X4205500Y981510D01*
X4192948Y973124D01*
X4182275Y962450D01*
X4173889Y949899D01*
X4168113Y935952D01*
X4166088Y925766D01*
X4165169Y921147D01*
X4164800Y913600D01*
X4164799Y913599D01*
X4164800Y913599D01*
X4164799Y636599D01*
X4164802Y624091D01*
X4159926Y599555D01*
X4150356Y576442D01*
X4136460Y555640D01*
X4118772Y537950D01*
X4097973Y524051D01*
X4074861Y514478D01*
X4050325Y509599D01*
X4037818Y509600D01*
X4037817Y509600D01*
X4037817Y509600D01*
X4016720D01*
Y827500D01*
X3296080D01*
Y519840D01*
X3286670Y511311D01*
X3262470Y513694D01*
X3221490Y521846D01*
X3181506Y533975D01*
X3142903Y549964D01*
X3106054Y569661D01*
X3071313Y592874D01*
X3039014Y619382D01*
X3024242Y634154D01*
X3013091Y645305D01*
X2995569Y671527D01*
X2983499Y700664D01*
X2977346Y731596D01*
Y747365D01*
X2976803Y769599D01*
X2972450Y813852D01*
X2963779Y857465D01*
X2950873Y900017D01*
X2933857Y941099D01*
X2912894Y980315D01*
X2888188Y1017286D01*
X2859975Y1051656D01*
X2844638Y1067761D01*
X2844638Y1067762D01*
X2844638Y1067762D01*
X2770880Y1141518D01*
X2758177Y1153617D01*
X2731067Y1175872D01*
X2701906Y1195362D01*
X2670974Y1211898D01*
X2638569Y1225321D01*
X2605003Y1235501D01*
X2570602Y1242340D01*
X2535695Y1245773D01*
X2518158Y1246200D01*
X2518158Y1246200D01*
X2518158Y1246200D01*
X2336000D01*
X2335999Y1685967D01*
X2335354Y1699109D01*
X2330227Y1724887D01*
X2320168Y1749169D01*
X2305565Y1771021D01*
X2296728Y1780770D01*
X2296729Y1780770D01*
X2147101Y1930400D01*
X1828800D01*
Y2235200D01*
X2032165D01*
X2036402Y2230561D01*
X2034471Y2213896D01*
X2022132Y2204428D01*
X2005643Y2182939D01*
X1999936Y2169160D01*
X2108200D01*
X2216464D01*
X2210757Y2182939D01*
X2194268Y2204428D01*
X2180938Y2214656D01*
X2179633Y2230659D01*
X2184235Y2235200D01*
X2261396D01*
X2416164Y2080432D01*
D02*
G37*
G36*
X3809199Y2102360D02*
X3809201Y2089030D01*
X3804001Y2062881D01*
X3793798Y2038250D01*
X3778985Y2016083D01*
X3769558Y2006658D01*
X3769558D01*
X3769558Y2006658D01*
X3705152Y1942253D01*
X3693419Y1947113D01*
Y2015820D01*
X3622299D01*
Y1906600D01*
Y1797380D01*
X3656800D01*
Y1462100D01*
X3657411Y1449652D01*
X3662268Y1425234D01*
X3671796Y1402233D01*
X3685627Y1381532D01*
X3703232Y1363928D01*
X3723932Y1350096D01*
X3746934Y1340569D01*
X3771352Y1335712D01*
X3783800Y1335100D01*
X3885400D01*
Y1258900D01*
X3640038D01*
X3611437Y1264589D01*
X3584495Y1275749D01*
X3560249Y1291951D01*
X3549939Y1302261D01*
X3544939Y1306793D01*
X3533732Y1314283D01*
X3521277Y1319441D01*
X3512987Y1321088D01*
X3508056Y1322068D01*
X3501320Y1322396D01*
X3501317Y1322397D01*
X3501317Y1322397D01*
X3501316Y1322397D01*
X3434699Y1322397D01*
X3405747Y1325249D01*
X3377214Y1330925D01*
X3349374Y1339370D01*
X3322496Y1350504D01*
X3296839Y1364218D01*
X3272650Y1380381D01*
X3250161Y1398837D01*
X3239876Y1409122D01*
X3239876Y1409123D01*
X3239876D01*
X3227280Y1421719D01*
X3207486Y1451342D01*
X3193852Y1484258D01*
X3186901Y1519201D01*
Y1537014D01*
X3186901Y1785293D01*
X3199601Y1797380D01*
X3259501D01*
Y1906600D01*
Y2015820D01*
X3199601D01*
X3188381Y2015820D01*
X3186900Y2027907D01*
X3186900Y2516200D01*
X3809200D01*
X3809199Y2102360D01*
D02*
G37*
G36*
X6556104Y3329000D02*
Y3303600D01*
X6626424D01*
X6696744D01*
Y3329000D01*
X6949573Y3329000D01*
X6971755Y3329000D01*
X7015905Y3324651D01*
X7059416Y3315997D01*
X7101869Y3303118D01*
X7142856Y3286141D01*
X7181981Y3265228D01*
X7218868Y3240581D01*
X7253162Y3212437D01*
X7268846Y3196752D01*
X7268847Y3196753D01*
X7572992Y2892607D01*
X7587605Y2877994D01*
X7613825Y2846045D01*
X7636787Y2811679D01*
X7656270Y2775228D01*
X7672087Y2737044D01*
X7684085Y2697492D01*
X7692148Y2656955D01*
X7696199Y2615823D01*
X7696199Y2595157D01*
X7696198D01*
X7696200Y2595156D01*
Y1932000D01*
X6539700D01*
Y3329000D01*
X6556104D01*
D02*
G37*
G36*
X1231100Y3621100D02*
X1231100Y3621100D01*
X1901115Y3621095D01*
X1916544Y3621100D01*
X1947253Y3618084D01*
X1977519Y3612070D01*
X2007049Y3603115D01*
X2035558Y3591307D01*
X2062771Y3576759D01*
X2088425Y3559611D01*
X2112274Y3540030D01*
X2123180Y3529116D01*
X2123180Y3529117D01*
X2136678Y3516265D01*
X2165484Y3492625D01*
X2196468Y3471922D01*
X2229333Y3454356D01*
X2263761Y3440095D01*
X2299421Y3429279D01*
X2335969Y3422009D01*
X2373054Y3418357D01*
X2391686Y3417900D01*
X3387018Y3417897D01*
X3400940Y3417901D01*
X3428651Y3415179D01*
X3455962Y3409751D01*
X3482608Y3401670D01*
X3508333Y3391015D01*
X3532889Y3377888D01*
X3556038Y3362415D01*
X3577558Y3344746D01*
X3587400Y3334899D01*
X3587400Y3334899D01*
X3606187Y3316112D01*
X3620436Y3301872D01*
X3645650Y3270448D01*
X3667276Y3236456D01*
X3685056Y3200302D01*
X3691915Y3181361D01*
X3694546Y3174219D01*
X3700015Y3160013D01*
X3705761Y3145917D01*
X3711781Y3131936D01*
X3714894Y3124990D01*
X3727276Y3100127D01*
X3757205Y3053370D01*
X3793494Y3011356D01*
X3835402Y2974946D01*
X3882073Y2944882D01*
X3932553Y2921780D01*
X3985812Y2906110D01*
X4040761Y2898194D01*
X4068518Y2897200D01*
X4171336Y2897200D01*
X4196167Y2897200D01*
X4245590Y2892334D01*
X4294298Y2882644D01*
X4341821Y2868227D01*
X4387702Y2849221D01*
X4431499Y2825808D01*
X4472789Y2798214D01*
X4511176Y2766705D01*
X4528732Y2749145D01*
X4528732D01*
X4528752Y2749146D01*
X4553155Y2724747D01*
X4594887Y2669736D01*
X4628746Y2609558D01*
X4654102Y2545333D01*
X4662293Y2511795D01*
X4662293Y2511795D01*
X4662307Y2511789D01*
X4665258Y2489170D01*
X4677021Y2445105D01*
X4696271Y2403758D01*
X4722418Y2366390D01*
X4737838Y2349560D01*
X4737840Y2349559D01*
X4751525Y2336530D01*
X4780730Y2312563D01*
X4812143Y2291573D01*
X4845462Y2273763D01*
X4880366Y2259305D01*
X4916520Y2248338D01*
X4953574Y2240967D01*
X4991173Y2237264D01*
X5010063Y2236800D01*
X5756060D01*
X5777758Y2237446D01*
X5820845Y2242602D01*
X5863015Y2252839D01*
X5903670Y2268014D01*
X5942235Y2287911D01*
X5978163Y2312249D01*
X6010944Y2340682D01*
X6040116Y2372809D01*
X6053217Y2390116D01*
X6053220Y2390118D01*
X6061361Y2401565D01*
X6080247Y2422363D01*
X6101470Y2440771D01*
X6124729Y2456527D01*
X6149696Y2469408D01*
X6176016Y2479232D01*
X6203317Y2485859D01*
X6231211Y2489196D01*
X6245258Y2489196D01*
X6245260Y2489200D01*
X6438900D01*
Y1932000D01*
X4785813Y1931999D01*
X4755099Y1931999D01*
X4694195Y1940017D01*
X4634859Y1955916D01*
X4578106Y1979423D01*
X4524907Y2010137D01*
X4476171Y2047533D01*
X4432735Y2090970D01*
X4395339Y2139705D01*
X4364624Y2192904D01*
X4341116Y2249657D01*
X4325217Y2308993D01*
X4317199Y2369896D01*
X4317200Y2400611D01*
X4317199Y2400613D01*
X4316189Y2421225D01*
X4308150Y2461657D01*
X4292374Y2499742D01*
X4269468Y2534016D01*
X4255609Y2549302D01*
X4255609Y2549306D01*
X4255609Y2549306D01*
X4244913Y2559005D01*
X4220932Y2575034D01*
X4194283Y2586071D01*
X4165992Y2591693D01*
X4151573Y2592397D01*
X4151571Y2592400D01*
X4151571Y2592400D01*
X3559520D01*
Y2909500D01*
X3199200D01*
X2838880D01*
Y2592400D01*
X2589200D01*
X2590800Y2590800D01*
X2271947Y2271947D01*
X2261396Y2274047D01*
X2184235D01*
X2176905Y2272589D01*
X2169608Y2271187D01*
X2169498Y2271115D01*
X2169369Y2271089D01*
X2163179Y2266953D01*
X2156949Y2262850D01*
X2154669Y2260600D01*
X2061577D01*
X2060849Y2261397D01*
X2060129Y2261927D01*
X2059633Y2262669D01*
X2054049Y2266400D01*
X2048640Y2270380D01*
X2047773Y2270593D01*
X2047031Y2271089D01*
X2040442Y2272400D01*
X2033923Y2274007D01*
X2033041Y2273872D01*
X2032165Y2274047D01*
X1829300D01*
Y3176599D01*
D01*
X1829300Y3176599D01*
X1829299Y3176599D01*
X1218395Y3176600D01*
X1198381Y3176598D01*
X1159122Y3184405D01*
X1122141Y3199722D01*
X1088859Y3221959D01*
X1060556Y3250264D01*
X1038319Y3283546D01*
X1023004Y3320527D01*
X1015198Y3359786D01*
X1015200Y3379800D01*
Y3405196D01*
X1015198Y3426461D01*
X1023493Y3468174D01*
X1039767Y3507467D01*
X1063394Y3542830D01*
X1093467Y3572903D01*
X1128829Y3596531D01*
X1168122Y3612806D01*
X1209835Y3621101D01*
X1231100Y3621100D01*
D02*
G37*
G36*
X7467601Y4140199D02*
X7675066Y3932733D01*
X7686610Y3921189D01*
X7707325Y3895949D01*
X7725465Y3868800D01*
X7740857Y3840005D01*
X7753352Y3809838D01*
X7762830Y3778593D01*
X7769200Y3746569D01*
X7772400Y3714074D01*
X7772399Y3697749D01*
X7772399D01*
X7772400Y3697748D01*
X7772400Y3617320D01*
X7773295Y3599099D01*
X7780404Y3563356D01*
X7794350Y3529688D01*
X7814597Y3499386D01*
X7826848Y3485869D01*
Y3485869D01*
X7826848Y3485869D01*
X7840967Y3473073D01*
X7872615Y3451926D01*
X7907781Y3437360D01*
X7945113Y3429934D01*
X7964145Y3429000D01*
X8763000D01*
Y1930400D01*
X7797800D01*
Y1973576D01*
X7861292D01*
Y2044696D01*
Y2115816D01*
X7797800D01*
X7797799Y2635437D01*
X7797213Y2659322D01*
X7792531Y2706863D01*
X7783211Y2753716D01*
X7769344Y2799430D01*
X7751063Y2843564D01*
X7728544Y2885694D01*
X7702004Y2925414D01*
X7671699Y2962341D01*
X7655224Y2979645D01*
X7655224Y2979646D01*
X7312524Y3322345D01*
X7298261Y3335273D01*
X7266287Y3356638D01*
X7230759Y3371354D01*
X7193043Y3378855D01*
X7173816Y3379799D01*
X7173816Y3379800D01*
X7173815Y3379800D01*
X6778820Y3379800D01*
Y3430600D01*
X6829607D01*
X6838322Y3431026D01*
X6855418Y3434421D01*
X6871523Y3441088D01*
X6886016Y3450770D01*
X6898342Y3463094D01*
X6908025Y3477586D01*
X6914695Y3493689D01*
X6918093Y3510785D01*
X6918519Y3519500D01*
X6918520Y3519500D01*
Y4140200D01*
X7467601Y4140199D01*
D02*
G37*
G36*
X4088600Y2516199D02*
X4088600Y2516200D01*
X4088604D01*
X4100303Y2515365D01*
X4110826Y2513272D01*
X4124694Y2507527D01*
X4137174Y2499188D01*
X4147788Y2488574D01*
X4156127Y2476094D01*
X4161871Y2462226D01*
X4164799Y2447505D01*
X4164799Y2440000D01*
X4164800Y1773063D01*
X4165314Y1762589D01*
X4169401Y1742043D01*
X4177418Y1722689D01*
X4189056Y1705271D01*
X4196099Y1697501D01*
X4206172Y1687910D01*
X4227669Y1670268D01*
X4250793Y1654817D01*
X4275319Y1641708D01*
X4301012Y1631065D01*
X4327625Y1622992D01*
X4354900Y1617567D01*
X4382576Y1614841D01*
X4396481Y1614500D01*
X4482300D01*
Y1512900D01*
X4322460D01*
X4322460Y1512900D01*
X4312199Y1512396D01*
X4292072Y1508392D01*
X4273113Y1500539D01*
X4256051Y1489138D01*
X4248439Y1482239D01*
X4237611Y1471411D01*
X4212145Y1454396D01*
X4183849Y1442675D01*
X4153811Y1436700D01*
X4138497Y1436700D01*
X3958220D01*
Y1487500D01*
X3812580D01*
Y1436700D01*
X3758400D01*
Y1755477D01*
X3758400Y1776312D01*
X3766529Y1817181D01*
X3782476Y1855679D01*
X3805626Y1890326D01*
X3820359Y1905059D01*
X3820359D01*
X3820359Y1905059D01*
X3829278Y1914900D01*
X3844018Y1936960D01*
X3854172Y1961472D01*
X3859348Y1987494D01*
X3859999Y2000760D01*
X3860000Y2516200D01*
X4088599D01*
X4088600Y2516199D01*
D02*
G37*
G36*
X6181921Y1868500D02*
X6400000Y1868500D01*
Y1792300D01*
X6321621D01*
X6321618Y1792295D01*
X6304103Y1791435D01*
X6269745Y1784602D01*
X6237380Y1771197D01*
X6208253Y1751736D01*
X6195259Y1739959D01*
X6176869Y1721569D01*
X6165524Y1717371D01*
Y1717370D01*
X6165523Y1717370D01*
X6133304D01*
Y1627200D01*
Y1537030D01*
X6138803D01*
X6145859Y1526470D01*
X6141851Y1516796D01*
X6125649Y1492549D01*
X6115339Y1482239D01*
X6076391Y1443291D01*
X6069320Y1446221D01*
Y1446220D01*
X6057100D01*
Y1315900D01*
X6019000D01*
Y1277800D01*
X5968680D01*
Y1271600D01*
X5906679D01*
X5889925Y1274933D01*
X5874143Y1281470D01*
X5862710Y1289109D01*
X5853904Y1296995D01*
X5853899Y1296999D01*
X5853900Y1297000D01*
X5853899Y1296999D01*
X5853895Y1297003D01*
X5847594Y1302716D01*
X5844763Y1304608D01*
X5833460Y1312162D01*
X5817753Y1318668D01*
X5801079Y1321983D01*
X5792578Y1322399D01*
X5727074Y1322400D01*
X5722593Y1328276D01*
X5728879Y1340976D01*
X5739600D01*
Y1373196D01*
X5687530D01*
Y1363692D01*
X5674830Y1353270D01*
X5664670Y1355291D01*
X5663400Y1356561D01*
X5663400Y1360500D01*
X5663400Y1703399D01*
X5663400Y1703400D01*
X5664317Y1715720D01*
X5671133Y1732175D01*
X5685423Y1746465D01*
X5704094Y1754199D01*
X5714199Y1754199D01*
X5907476Y1754200D01*
X5919579Y1754200D01*
X5919579Y1754200D01*
X5937093Y1755060D01*
X5971452Y1761894D01*
X6003818Y1775300D01*
X6032946Y1794763D01*
X6045940Y1806541D01*
X6055556Y1816156D01*
X6055557Y1816155D01*
X6055558Y1816156D01*
X6068002Y1828602D01*
X6097271Y1848161D01*
X6129793Y1861634D01*
X6164319Y1868501D01*
X6181921Y1868500D01*
D02*
G37*
G36*
X8407400Y1473200D02*
X7035800D01*
Y1828800D01*
X8407400D01*
Y1473200D01*
D02*
G37*
G36*
X2250129Y1733644D02*
X2264644Y1719129D01*
X2272500Y1700164D01*
Y1689900D01*
Y1246200D01*
X1269199D01*
X1244183Y1246200D01*
X1195111Y1255961D01*
X1148886Y1275108D01*
X1107284Y1302905D01*
X1071905Y1338284D01*
X1044108Y1379885D01*
X1024961Y1426110D01*
X1015200Y1475183D01*
X1015200Y1500199D01*
X1015200Y1500200D01*
Y1512900D01*
Y1535415D01*
X1023985Y1579580D01*
X1041217Y1621182D01*
X1066234Y1658623D01*
X1098075Y1690464D01*
X1135516Y1715481D01*
X1177119Y1732714D01*
X1221284Y1741499D01*
X1243799D01*
X1243800Y1741500D01*
X2231164D01*
X2250129Y1733644D01*
D02*
G37*
G36*
X6311100Y690580D02*
X6323320D01*
Y746120D01*
X6336020Y751380D01*
X6349680Y737720D01*
Y690580D01*
X6396820D01*
X6422318Y665082D01*
X6422318Y665081D01*
X6435695Y652958D01*
X6465680Y632922D01*
X6498998Y619121D01*
X6534368Y612086D01*
X6552399Y611200D01*
X6666700D01*
Y535000D01*
X6550221Y535000D01*
X6550221Y534999D01*
X6532705Y534139D01*
X6498346Y527305D01*
X6465981Y513899D01*
X6436853Y494436D01*
X6423859Y482659D01*
X6385307Y444107D01*
X6375870Y452631D01*
Y484204D01*
X6285700D01*
Y522304D01*
X6247600D01*
Y592624D01*
X6222200D01*
Y678079D01*
X6222680Y690580D01*
X6234900D01*
Y820900D01*
X6311100D01*
Y690580D01*
D02*
G37*
%LPC*%
G36*
X3471920Y5415520D02*
X3389700D01*
Y5348300D01*
X3471920D01*
Y5415520D01*
D02*
G37*
G36*
X3313500D02*
X3231280D01*
Y5348300D01*
X3313500D01*
Y5415520D01*
D02*
G37*
G36*
X1358100Y5461078D02*
Y5333100D01*
X1486078D01*
X1483775Y5344681D01*
X1470936Y5375677D01*
X1452296Y5403573D01*
X1428573Y5427296D01*
X1400677Y5445936D01*
X1369681Y5458775D01*
X1358100Y5461078D01*
D02*
G37*
G36*
X1281900Y5461078D02*
X1270319Y5458775D01*
X1239323Y5445936D01*
X1211427Y5427296D01*
X1187704Y5403573D01*
X1169064Y5375677D01*
X1156225Y5344681D01*
X1153921Y5333100D01*
X1281900D01*
Y5461078D01*
D02*
G37*
G36*
X3471920Y5272100D02*
X3389700D01*
Y5204880D01*
X3471920D01*
Y5272100D01*
D02*
G37*
G36*
X3313500D02*
X3231280D01*
Y5204880D01*
X3313500D01*
Y5272100D01*
D02*
G37*
G36*
X1486078Y5256900D02*
X1358100D01*
Y5128922D01*
X1369681Y5131225D01*
X1400677Y5144064D01*
X1428573Y5162704D01*
X1452296Y5186427D01*
X1470936Y5214323D01*
X1483775Y5245319D01*
X1486078Y5256900D01*
D02*
G37*
G36*
X1281900D02*
X1153922D01*
X1156225Y5245319D01*
X1169064Y5214323D01*
X1187704Y5186427D01*
X1211427Y5162704D01*
X1239323Y5144064D01*
X1270319Y5131225D01*
X1281900Y5128922D01*
Y5256900D01*
D02*
G37*
G36*
X3486518Y4483202D02*
X3339298D01*
Y4410982D01*
X3486518D01*
Y4483202D01*
D02*
G37*
G36*
X3263098D02*
X3115878D01*
Y4410982D01*
X3263098D01*
Y4483202D01*
D02*
G37*
G36*
X3016618D02*
X2869398D01*
Y4410982D01*
X3016618D01*
Y4483202D01*
D02*
G37*
G36*
X2793198D02*
X2645978D01*
Y4410982D01*
X2793198D01*
Y4483202D01*
D02*
G37*
G36*
X3486518Y4334782D02*
X3339298D01*
Y4262562D01*
X3486518D01*
Y4334782D01*
D02*
G37*
G36*
X3263098D02*
X3115878D01*
Y4262562D01*
X3263098D01*
Y4334782D01*
D02*
G37*
G36*
X3016618D02*
X2869398D01*
Y4262562D01*
X3016618D01*
Y4334782D01*
D02*
G37*
G36*
X2793198D02*
X2645978D01*
Y4262562D01*
X2793198D01*
Y4334782D01*
D02*
G37*
G36*
X3980720Y5415520D02*
X3898500D01*
Y5348300D01*
X3980720D01*
Y5415520D01*
D02*
G37*
G36*
X3822300D02*
X3740080D01*
Y5348300D01*
X3822300D01*
Y5415520D01*
D02*
G37*
G36*
X3980720Y5272100D02*
X3898500D01*
Y5204880D01*
X3980720D01*
Y5272100D01*
D02*
G37*
G36*
X3822300D02*
X3740080D01*
Y5204880D01*
X3822300D01*
Y5272100D01*
D02*
G37*
G36*
X4297240Y4917625D02*
X4284540D01*
Y4858060D01*
X4356804D01*
Y4858060D01*
X4352270Y4880855D01*
X4339358Y4900179D01*
X4320034Y4913091D01*
X4297240Y4917625D01*
D02*
G37*
G36*
X3905720D02*
X3893020D01*
Y4858060D01*
X3965284D01*
Y4858060D01*
X3960750Y4880855D01*
X3947838Y4900179D01*
X3928514Y4913091D01*
X3905720Y4917625D01*
D02*
G37*
G36*
X4208340D02*
X4195640D01*
X4172845Y4913091D01*
X4153521Y4900179D01*
X4140609Y4880855D01*
X4136075Y4858060D01*
Y4858060D01*
X4208340D01*
Y4917625D01*
D02*
G37*
G36*
X3816820D02*
X3804120D01*
X3781325Y4913091D01*
X3762001Y4900179D01*
X3749090Y4880855D01*
X3744555Y4858060D01*
Y4858060D01*
X3816820D01*
Y4917625D01*
D02*
G37*
G36*
X4887790Y4809024D02*
X4835720D01*
Y4776805D01*
X4887790D01*
Y4809024D01*
D02*
G37*
G36*
X4659190D02*
X4607120D01*
Y4776805D01*
X4659190D01*
Y4809024D01*
D02*
G37*
G36*
X4759520D02*
X4707450D01*
Y4776805D01*
X4759520D01*
Y4809024D01*
D02*
G37*
G36*
X4530920D02*
X4478850D01*
Y4776805D01*
X4530920D01*
Y4809024D01*
D02*
G37*
G36*
X4356804Y4781860D02*
X4284540D01*
Y4722296D01*
X4297240D01*
X4320034Y4726830D01*
X4339358Y4739742D01*
X4352270Y4759066D01*
X4356804Y4781860D01*
D02*
G37*
G36*
X4208340D02*
X4136075D01*
X4140609Y4759066D01*
X4153521Y4739742D01*
X4172845Y4726830D01*
X4195640Y4722296D01*
X4208340D01*
Y4781860D01*
D02*
G37*
G36*
X3965284D02*
X3893020D01*
Y4722296D01*
X3905720D01*
X3928514Y4726830D01*
X3947838Y4739742D01*
X3960750Y4759066D01*
X3965284Y4781860D01*
D02*
G37*
G36*
X3816820D02*
X3744555D01*
X3749090Y4759066D01*
X3762001Y4739742D01*
X3781325Y4726830D01*
X3804120Y4722296D01*
X3816820D01*
Y4781860D01*
D02*
G37*
G36*
X4887790Y4700605D02*
X4835720D01*
Y4668384D01*
X4887790D01*
Y4700605D01*
D02*
G37*
G36*
X4759520D02*
X4707450D01*
Y4668384D01*
X4759520D01*
Y4700605D01*
D02*
G37*
G36*
X4659190D02*
X4607120D01*
Y4668384D01*
X4659190D01*
Y4700605D01*
D02*
G37*
G36*
X4530920D02*
X4478850D01*
Y4668384D01*
X4530920D01*
Y4700605D01*
D02*
G37*
G36*
X7861300Y4838433D02*
Y4762500D01*
X7937233D01*
X7931442Y4784114D01*
X7919738Y4804386D01*
X7903186Y4820938D01*
X7882914Y4832642D01*
X7861300Y4838433D01*
D02*
G37*
G36*
X7835900D02*
X7814286Y4832642D01*
X7794014Y4820938D01*
X7777462Y4804386D01*
X7765758Y4784114D01*
X7759967Y4762500D01*
X7835900D01*
Y4838433D01*
D02*
G37*
G36*
X7937233Y4737100D02*
X7861300D01*
Y4661167D01*
X7882914Y4666958D01*
X7903186Y4678662D01*
X7919738Y4695214D01*
X7931442Y4715486D01*
X7937233Y4737100D01*
D02*
G37*
G36*
X7835900D02*
X7759967D01*
X7765758Y4715486D01*
X7777462Y4695214D01*
X7794014Y4678662D01*
X7814286Y4666958D01*
X7835900Y4661167D01*
Y4737100D01*
D02*
G37*
G36*
X5470740Y4568520D02*
X5458020D01*
Y4522800D01*
X5470740D01*
Y4568520D01*
D02*
G37*
G36*
X5381820D02*
X5369100D01*
Y4522800D01*
X5381820D01*
Y4568520D01*
D02*
G37*
G36*
X8216900Y4533633D02*
Y4457700D01*
X8292833D01*
X8287042Y4479314D01*
X8275338Y4499586D01*
X8258786Y4516138D01*
X8238514Y4527842D01*
X8216900Y4533633D01*
D02*
G37*
G36*
X8191500D02*
X8169886Y4527842D01*
X8149614Y4516138D01*
X8133062Y4499586D01*
X8121358Y4479314D01*
X8115567Y4457700D01*
X8191500D01*
Y4533633D01*
D02*
G37*
G36*
X7861300D02*
Y4457700D01*
X7937233D01*
X7931442Y4479314D01*
X7919738Y4499586D01*
X7903186Y4516138D01*
X7882914Y4527842D01*
X7861300Y4533633D01*
D02*
G37*
G36*
X7835900D02*
X7814286Y4527842D01*
X7794014Y4516138D01*
X7777462Y4499586D01*
X7765758Y4479314D01*
X7759967Y4457700D01*
X7835900D01*
Y4533633D01*
D02*
G37*
G36*
X5282918Y4459300D02*
X5267520D01*
Y4443902D01*
X5282918Y4459300D01*
D02*
G37*
G36*
X5470740Y4446600D02*
X5458020D01*
Y4400880D01*
X5470740D01*
Y4446600D01*
D02*
G37*
G36*
X5381820D02*
X5369100D01*
Y4400880D01*
X5381820D01*
Y4446600D01*
D02*
G37*
G36*
X8292833Y4432300D02*
X8216900D01*
Y4356367D01*
X8238514Y4362158D01*
X8258786Y4373862D01*
X8275338Y4390414D01*
X8287042Y4410686D01*
X8292833Y4432300D01*
D02*
G37*
G36*
X8191500D02*
X8115567D01*
X8121358Y4410686D01*
X8133062Y4390414D01*
X8149614Y4373862D01*
X8169886Y4362158D01*
X8191500Y4356367D01*
Y4432300D01*
D02*
G37*
G36*
X7937233D02*
X7861300D01*
Y4356367D01*
X7882914Y4362158D01*
X7903186Y4373862D01*
X7919738Y4390414D01*
X7931442Y4410686D01*
X7937233Y4432300D01*
D02*
G37*
G36*
X7835900D02*
X7759967D01*
X7765758Y4410686D01*
X7777462Y4390414D01*
X7794014Y4373862D01*
X7814286Y4362158D01*
X7835900Y4356367D01*
Y4432300D01*
D02*
G37*
G36*
X8572500Y4254233D02*
Y4178300D01*
X8648433D01*
X8642642Y4199914D01*
X8630938Y4220186D01*
X8614386Y4236738D01*
X8594114Y4248442D01*
X8572500Y4254233D01*
D02*
G37*
G36*
X8547100D02*
X8525486Y4248442D01*
X8505214Y4236738D01*
X8488662Y4220186D01*
X8476958Y4199914D01*
X8471167Y4178300D01*
X8547100D01*
Y4254233D01*
D02*
G37*
G36*
X8216900D02*
Y4178300D01*
X8292833D01*
X8287042Y4199914D01*
X8275338Y4220186D01*
X8258786Y4236738D01*
X8238514Y4248442D01*
X8216900Y4254233D01*
D02*
G37*
G36*
X8191500D02*
X8169886Y4248442D01*
X8149614Y4236738D01*
X8133062Y4220186D01*
X8121358Y4199914D01*
X8115567Y4178300D01*
X8191500D01*
Y4254233D01*
D02*
G37*
G36*
X7861300D02*
Y4178300D01*
X7937233D01*
X7931442Y4199914D01*
X7919738Y4220186D01*
X7903186Y4236738D01*
X7882914Y4248442D01*
X7861300Y4254233D01*
D02*
G37*
G36*
X7835900D02*
X7814286Y4248442D01*
X7794014Y4236738D01*
X7777462Y4220186D01*
X7765758Y4199914D01*
X7759967Y4178300D01*
X7835900D01*
Y4254233D01*
D02*
G37*
G36*
X8648433Y4152900D02*
X8572500D01*
Y4076967D01*
X8594114Y4082758D01*
X8614386Y4094462D01*
X8630938Y4111014D01*
X8642642Y4131286D01*
X8648433Y4152900D01*
D02*
G37*
G36*
X8547100D02*
X8471167D01*
X8476958Y4131286D01*
X8488662Y4111014D01*
X8505214Y4094462D01*
X8525486Y4082758D01*
X8547100Y4076967D01*
Y4152900D01*
D02*
G37*
G36*
X8292833D02*
X8216900D01*
Y4076967D01*
X8238514Y4082758D01*
X8258786Y4094462D01*
X8275338Y4111014D01*
X8287042Y4131286D01*
X8292833Y4152900D01*
D02*
G37*
G36*
X8191500D02*
X8115567D01*
X8121358Y4131286D01*
X8133062Y4111014D01*
X8149614Y4094462D01*
X8169886Y4082758D01*
X8191500Y4076967D01*
Y4152900D01*
D02*
G37*
G36*
X7937233D02*
X7861300D01*
Y4076967D01*
X7882914Y4082758D01*
X7903186Y4094462D01*
X7919738Y4111014D01*
X7931442Y4131286D01*
X7937233Y4152900D01*
D02*
G37*
G36*
X7835900D02*
X7759967D01*
X7765758Y4131286D01*
X7777462Y4111014D01*
X7794014Y4094462D01*
X7814286Y4082758D01*
X7835900Y4076967D01*
Y4152900D01*
D02*
G37*
G36*
X4105724Y4548200D02*
X4063200D01*
Y4505677D01*
X4082153Y4513527D01*
X4097873Y4529247D01*
X4105724Y4548200D01*
D02*
G37*
G36*
X4037800D02*
X3995276D01*
X4003127Y4529247D01*
X4018846Y4513527D01*
X4037800Y4505677D01*
Y4548200D01*
D02*
G37*
G36*
X4063200Y4476424D02*
Y4433900D01*
X4105724D01*
X4097873Y4452854D01*
X4082153Y4468573D01*
X4063200Y4476424D01*
D02*
G37*
G36*
X4037800D02*
X4018846Y4468573D01*
X4003127Y4452854D01*
X3995276Y4433900D01*
X4037800D01*
Y4476424D01*
D02*
G37*
G36*
X4356804Y4482181D02*
X4284540D01*
Y4422616D01*
X4297240D01*
X4320034Y4427150D01*
X4339358Y4440062D01*
X4352270Y4459386D01*
X4356804Y4482180D01*
Y4482181D01*
D02*
G37*
G36*
X4208340D02*
X4136075D01*
Y4482180D01*
X4140609Y4459386D01*
X4153521Y4440062D01*
X4172845Y4427150D01*
X4195640Y4422616D01*
X4208340D01*
Y4482181D01*
D02*
G37*
G36*
X3965284D02*
X3893020D01*
Y4422616D01*
X3905720D01*
X3928514Y4427150D01*
X3947838Y4440062D01*
X3960750Y4459386D01*
X3965284Y4482180D01*
Y4482181D01*
D02*
G37*
G36*
X3816820D02*
X3744555D01*
Y4482180D01*
X3749090Y4459386D01*
X3762001Y4440062D01*
X3781325Y4427150D01*
X3804120Y4422616D01*
X3816820D01*
Y4482181D01*
D02*
G37*
G36*
X4641516Y4323410D02*
X4609296D01*
Y4271340D01*
X4641516D01*
Y4323410D01*
D02*
G37*
G36*
X4533096D02*
X4500876D01*
Y4271340D01*
X4533096D01*
Y4323410D01*
D02*
G37*
G36*
X4641516Y4195140D02*
X4609296D01*
Y4143070D01*
X4641516D01*
Y4195140D01*
D02*
G37*
G36*
X4533096D02*
X4500876D01*
Y4143070D01*
X4533096D01*
Y4195140D01*
D02*
G37*
G36*
X4641524Y4066870D02*
X4609304D01*
Y4014800D01*
X4641524D01*
Y4066870D01*
D02*
G37*
G36*
X4533104D02*
X4500884D01*
Y4014800D01*
X4533104D01*
Y4066870D01*
D02*
G37*
G36*
X4641524Y3938600D02*
X4609304D01*
Y3886530D01*
X4641524D01*
Y3938600D01*
D02*
G37*
G36*
X4533104D02*
X4500884D01*
Y3886530D01*
X4533104D01*
Y3938600D01*
D02*
G37*
G36*
X5851740Y4446600D02*
X5839020D01*
Y4400880D01*
X5851740D01*
Y4446600D01*
D02*
G37*
G36*
X5905500Y4041299D02*
Y4025900D01*
X5920899D01*
X5905500Y4041299D01*
D02*
G37*
G36*
X5829300D02*
X5813901Y4025900D01*
X5829300D01*
Y4041299D01*
D02*
G37*
G36*
X5920899Y3949700D02*
X5905500D01*
Y3934301D01*
X5920899Y3949700D01*
D02*
G37*
G36*
X5829300D02*
X5813901D01*
X5829300Y3934301D01*
Y3949700D01*
D02*
G37*
G36*
X4276916Y4195140D02*
X4244696D01*
Y4143070D01*
X4276916D01*
Y4195140D01*
D02*
G37*
G36*
X3962870Y4059716D02*
X3910800D01*
Y4027496D01*
X3962870D01*
Y4059716D01*
D02*
G37*
G36*
X3834600D02*
X3782530D01*
Y4027496D01*
X3834600D01*
Y4059716D01*
D02*
G37*
G36*
X4048316Y4066870D02*
X4016096D01*
Y4014800D01*
X4048316D01*
Y4066870D01*
D02*
G37*
G36*
X3962870Y3951296D02*
X3910800D01*
Y3919076D01*
X3962870D01*
Y3951296D01*
D02*
G37*
G36*
X3834600D02*
X3782530D01*
Y3919076D01*
X3834600D01*
Y3951296D01*
D02*
G37*
G36*
X4048316Y3938600D02*
X4016096D01*
Y3886530D01*
X4048316D01*
Y3938600D01*
D02*
G37*
G36*
X3923500Y3865099D02*
Y3849700D01*
X3938899D01*
X3923500Y3865099D01*
D02*
G37*
G36*
X3847300D02*
X3831901Y3849700D01*
X3847300D01*
Y3865099D01*
D02*
G37*
G36*
X4050500Y3866824D02*
Y3824300D01*
X4093024D01*
X4085173Y3843254D01*
X4069453Y3858973D01*
X4050500Y3866824D01*
D02*
G37*
G36*
X4025100D02*
X4006146Y3858973D01*
X3990427Y3843254D01*
X3982576Y3824300D01*
X4025100D01*
Y3866824D01*
D02*
G37*
G36*
X5117300Y4271499D02*
Y4256100D01*
X5132699D01*
X5117300Y4271499D01*
D02*
G37*
G36*
X5041100D02*
X5025701Y4256100D01*
X5041100D01*
Y4271499D01*
D02*
G37*
G36*
X5132699Y4179900D02*
X5117300D01*
Y4164501D01*
X5132699Y4179900D01*
D02*
G37*
G36*
X5041100D02*
X5025701D01*
X5041100Y4164501D01*
Y4179900D01*
D02*
G37*
G36*
X5216724Y4192600D02*
X5184504D01*
Y4140530D01*
X5216724D01*
Y4192600D01*
D02*
G37*
G36*
X5127820Y4095424D02*
Y4052900D01*
X5170343D01*
X5162493Y4071854D01*
X5146773Y4087573D01*
X5127820Y4095424D01*
D02*
G37*
G36*
X5102420D02*
X5083466Y4087573D01*
X5067747Y4071854D01*
X5059896Y4052900D01*
X5102420D01*
Y4095424D01*
D02*
G37*
G36*
X5231831Y4085920D02*
X5222941D01*
Y4014800D01*
X5231831D01*
Y4085920D01*
D02*
G37*
G36*
X5170343Y4027500D02*
X5127820D01*
Y3984977D01*
X5146773Y3992827D01*
X5162493Y4008547D01*
X5170343Y4027500D01*
D02*
G37*
G36*
X5102420D02*
X5059896D01*
X5067747Y4008547D01*
X5083466Y3992827D01*
X5102420Y3984977D01*
Y4027500D01*
D02*
G37*
G36*
X5496120Y3794653D02*
X5458020D01*
Y3659200D01*
X5593473D01*
Y3697300D01*
X5590155Y3722497D01*
X5580430Y3745977D01*
X5564959Y3766139D01*
X5544796Y3781610D01*
X5521317Y3791336D01*
X5496120Y3794653D01*
D02*
G37*
G36*
X5381820D02*
X5343720D01*
X5318523Y3791336D01*
X5295043Y3781610D01*
X5274881Y3766139D01*
X5259410Y3745977D01*
X5249684Y3722497D01*
X5246367Y3697300D01*
Y3659200D01*
X5381820D01*
Y3794653D01*
D02*
G37*
G36*
X5593473Y3583000D02*
X5458020D01*
Y3447547D01*
X5496120D01*
X5521317Y3450865D01*
X5544796Y3460590D01*
X5564959Y3476061D01*
X5580430Y3496224D01*
X5590155Y3519703D01*
X5593473Y3544900D01*
Y3583000D01*
D02*
G37*
G36*
X5381820D02*
X5246367D01*
Y3544900D01*
X5249684Y3519703D01*
X5259410Y3496224D01*
X5274881Y3476061D01*
X5295043Y3460590D01*
X5318523Y3450865D01*
X5343720Y3447547D01*
X5381820D01*
Y3583000D01*
D02*
G37*
G36*
X2527770Y3894624D02*
X2475700D01*
Y3862404D01*
X2527770D01*
Y3894624D01*
D02*
G37*
G36*
X2399500D02*
X2347430D01*
Y3862404D01*
X2399500D01*
Y3894624D01*
D02*
G37*
G36*
X3263098Y3843203D02*
X3115878D01*
Y3770984D01*
X3263098D01*
Y3843203D01*
D02*
G37*
G36*
X3016618D02*
X2869398D01*
Y3770984D01*
X3016618D01*
Y3843203D01*
D02*
G37*
G36*
X2793198D02*
X2645978D01*
Y3770984D01*
X2793198D01*
Y3843203D01*
D02*
G37*
G36*
X2527770Y3786204D02*
X2475700D01*
Y3753984D01*
X2527770D01*
Y3786204D01*
D02*
G37*
G36*
X2399500D02*
X2347430D01*
Y3753984D01*
X2399500D01*
Y3786204D01*
D02*
G37*
G36*
X3263098Y3694784D02*
X3115878D01*
Y3622564D01*
X3263098D01*
Y3694784D01*
D02*
G37*
G36*
X3016618D02*
X2869398D01*
Y3622564D01*
X3016618D01*
Y3694784D01*
D02*
G37*
G36*
X2793198D02*
X2645978D01*
Y3622564D01*
X2793198D01*
Y3694784D01*
D02*
G37*
G36*
X6195890Y3265496D02*
X6143820D01*
Y3233276D01*
X6195890D01*
Y3265496D01*
D02*
G37*
G36*
X6067620D02*
X6015550D01*
Y3233276D01*
X6067620D01*
Y3265496D01*
D02*
G37*
G36*
X6131120Y3204699D02*
Y3189300D01*
X6146519D01*
X6131120Y3204699D01*
D02*
G37*
G36*
X6054920Y3204699D02*
X6039521Y3189300D01*
X6054920D01*
Y3204699D01*
D02*
G37*
G36*
X6359724Y3227400D02*
X6327504D01*
Y3175330D01*
X6359724D01*
Y3227400D01*
D02*
G37*
G36*
X6146518Y3113100D02*
X6131120D01*
Y3097702D01*
X6146518Y3113100D01*
D02*
G37*
G36*
X6054920D02*
X6039521D01*
X6054920Y3097701D01*
Y3113100D01*
D02*
G37*
G36*
X5067300Y2987199D02*
Y2971800D01*
X5082699D01*
X5067300Y2987199D01*
D02*
G37*
G36*
X4991100D02*
X4975701Y2971800D01*
X4991100D01*
Y2987199D01*
D02*
G37*
G36*
X5219700Y2980647D02*
Y2938124D01*
X5262224D01*
X5254373Y2957077D01*
X5238653Y2972796D01*
X5219700Y2980647D01*
D02*
G37*
G36*
X5194300D02*
X5175347Y2972796D01*
X5159627Y2957077D01*
X5151776Y2938124D01*
X5194300D01*
Y2980647D01*
D02*
G37*
G36*
X5082699Y2895600D02*
X5067300D01*
Y2880201D01*
X5082699Y2895600D01*
D02*
G37*
G36*
X4991100D02*
X4975701D01*
X4991100Y2880201D01*
Y2895600D01*
D02*
G37*
G36*
X5262224Y2912724D02*
X5219700D01*
Y2870200D01*
X5238653Y2878051D01*
X5254373Y2893770D01*
X5262224Y2912724D01*
D02*
G37*
G36*
X5194300D02*
X5151776D01*
X5159627Y2893770D01*
X5175347Y2878051D01*
X5194300Y2870200D01*
Y2912724D01*
D02*
G37*
G36*
X5083624Y2706700D02*
X5041100D01*
Y2664177D01*
X5060053Y2672027D01*
X5075773Y2687747D01*
X5083624Y2706700D01*
D02*
G37*
G36*
X5015700D02*
X4973176D01*
X4981027Y2687747D01*
X4996746Y2672027D01*
X5015700Y2664177D01*
Y2706700D01*
D02*
G37*
G36*
X5142700Y2685724D02*
Y2643200D01*
X5185224D01*
X5177373Y2662154D01*
X5161653Y2677873D01*
X5142700Y2685724D01*
D02*
G37*
G36*
X5117300D02*
X5098346Y2677873D01*
X5082627Y2662154D01*
X5074776Y2643200D01*
X5117300D01*
Y2685724D01*
D02*
G37*
G36*
X5185224Y2617800D02*
X5142700D01*
Y2575277D01*
X5161653Y2583127D01*
X5177373Y2598847D01*
X5185224Y2617800D01*
D02*
G37*
G36*
X5117300D02*
X5074776D01*
X5082627Y2598847D01*
X5098346Y2583127D01*
X5117300Y2575277D01*
Y2617800D01*
D02*
G37*
G36*
X2766530Y2281720D02*
X2714460D01*
Y2249500D01*
X2766530D01*
Y2281720D01*
D02*
G37*
G36*
X2638260D02*
X2586190D01*
Y2249500D01*
X2638260D01*
Y2281720D01*
D02*
G37*
G36*
X2766530Y2173300D02*
X2714460D01*
Y2141080D01*
X2766530D01*
Y2173300D01*
D02*
G37*
G36*
X2638260D02*
X2586190D01*
Y2141080D01*
X2638260D01*
Y2173300D01*
D02*
G37*
G36*
X3043020Y2249500D02*
X3008300D01*
Y2124780D01*
X3043020D01*
Y2249500D01*
D02*
G37*
G36*
X2932100D02*
X2897380D01*
Y2124780D01*
X2932100D01*
Y2249500D01*
D02*
G37*
G36*
X2956819Y2015820D02*
X2885699D01*
Y1944700D01*
X2956819D01*
Y2015820D01*
D02*
G37*
G36*
X2809499D02*
X2738379D01*
Y1944700D01*
X2809499D01*
Y2015820D01*
D02*
G37*
G36*
X2216464Y2092960D02*
X2146300D01*
Y2030646D01*
X2147754Y2030838D01*
X2172779Y2041203D01*
X2194268Y2057692D01*
X2210757Y2079181D01*
X2216464Y2092960D01*
D02*
G37*
G36*
X2070100D02*
X1999936D01*
X2005643Y2079181D01*
X2022132Y2057692D01*
X2043621Y2041203D01*
X2068646Y2030838D01*
X2070100Y2030646D01*
Y2092960D01*
D02*
G37*
G36*
X2592802Y1660122D02*
X2535582D01*
Y1512902D01*
X2592802D01*
Y1660122D01*
D02*
G37*
G36*
X2459382D02*
X2402162D01*
Y1512902D01*
X2459382D01*
Y1660122D01*
D02*
G37*
G36*
X2592802Y1436702D02*
X2535582D01*
Y1289482D01*
X2592802D01*
Y1436702D01*
D02*
G37*
G36*
X2459382D02*
X2402162D01*
Y1289482D01*
X2459382D01*
Y1436702D01*
D02*
G37*
G36*
X3501020Y2450420D02*
X3466300D01*
Y2325700D01*
X3501020D01*
Y2450420D01*
D02*
G37*
G36*
X3390100D02*
X3355380D01*
Y2325700D01*
X3390100D01*
Y2450420D01*
D02*
G37*
G36*
X3790616Y2301570D02*
X3758396D01*
Y2249500D01*
X3790616D01*
Y2301570D01*
D02*
G37*
G36*
X3682196D02*
X3649976D01*
Y2249500D01*
X3682196D01*
Y2301570D01*
D02*
G37*
G36*
X3501020Y2249500D02*
X3466300D01*
Y2124780D01*
X3501020D01*
Y2249500D01*
D02*
G37*
G36*
X3390100D02*
X3355380D01*
Y2124780D01*
X3390100D01*
Y2249500D01*
D02*
G37*
G36*
X3790616Y2173300D02*
X3758396D01*
Y2121230D01*
X3790616D01*
Y2173300D01*
D02*
G37*
G36*
X3682196D02*
X3649976D01*
Y2121230D01*
X3682196D01*
Y2173300D01*
D02*
G37*
G36*
X3335701Y2015820D02*
Y1944700D01*
X3406821D01*
Y2015820D01*
X3335701D01*
D02*
G37*
G36*
X3546099D02*
X3474979D01*
Y1944700D01*
X3546099D01*
Y2015820D01*
D02*
G37*
G36*
Y1868500D02*
X3474979D01*
Y1797380D01*
X3546099D01*
Y1868500D01*
D02*
G37*
G36*
X3406821D02*
X3335701D01*
Y1797380D01*
X3406821D01*
Y1868500D01*
D02*
G37*
G36*
X3500220Y1688420D02*
X3465500D01*
Y1563700D01*
X3500220D01*
Y1688420D01*
D02*
G37*
G36*
X3389300D02*
X3354580D01*
Y1563700D01*
X3389300D01*
Y1688420D01*
D02*
G37*
G36*
X3500220Y1487500D02*
X3465500D01*
Y1362780D01*
X3500220D01*
Y1487500D01*
D02*
G37*
G36*
X3389300D02*
X3354580D01*
Y1362780D01*
X3389300D01*
Y1487500D01*
D02*
G37*
G36*
X6696744Y3227400D02*
X6664524D01*
Y3175330D01*
X6696744D01*
Y3227400D01*
D02*
G37*
G36*
X6588324D02*
X6556104D01*
Y3175330D01*
X6588324D01*
Y3227400D01*
D02*
G37*
G36*
X6696736Y3050870D02*
X6664516D01*
Y2998800D01*
X6696736D01*
Y3050870D01*
D02*
G37*
G36*
X6588316D02*
X6556096D01*
Y2998800D01*
X6588316D01*
Y3050870D01*
D02*
G37*
G36*
X6696736Y2922600D02*
X6664516D01*
Y2870530D01*
X6696736D01*
Y2922600D01*
D02*
G37*
G36*
X6588316D02*
X6556096D01*
Y2870530D01*
X6588316D01*
Y2922600D01*
D02*
G37*
G36*
X6696744Y2819730D02*
X6664524D01*
Y2767660D01*
X6696744D01*
Y2819730D01*
D02*
G37*
G36*
X6588324D02*
X6556104D01*
Y2767660D01*
X6588324D01*
Y2819730D01*
D02*
G37*
G36*
X6696744Y2691460D02*
X6664524D01*
Y2639390D01*
X6696744D01*
Y2691460D01*
D02*
G37*
G36*
X6588324D02*
X6556104D01*
Y2639390D01*
X6588324D01*
Y2691460D01*
D02*
G37*
G36*
X7410338Y2636418D02*
X7338118D01*
Y2489198D01*
X7410338D01*
Y2636418D01*
D02*
G37*
G36*
X7261918D02*
X7189698D01*
Y2489198D01*
X7261918D01*
Y2636418D01*
D02*
G37*
G36*
X7410338Y2412998D02*
X7338118D01*
Y2265778D01*
X7410338D01*
Y2412998D01*
D02*
G37*
G36*
X7261918D02*
X7189698D01*
Y2265778D01*
X7261918D01*
Y2412998D01*
D02*
G37*
G36*
X6834602Y2396722D02*
X6777382D01*
Y2249502D01*
X6834602D01*
Y2396722D01*
D02*
G37*
G36*
X6701182D02*
X6643962D01*
Y2249502D01*
X6701182D01*
Y2396722D01*
D02*
G37*
G36*
X7023100Y2325812D02*
Y2247900D01*
X7101012D01*
X7098611Y2256859D01*
X7082560Y2284661D01*
X7059861Y2307360D01*
X7032059Y2323411D01*
X7023100Y2325812D01*
D02*
G37*
G36*
X6946900D02*
X6937941Y2323411D01*
X6910139Y2307360D01*
X6887440Y2284661D01*
X6871389Y2256859D01*
X6868988Y2247900D01*
X6946900D01*
Y2325812D01*
D02*
G37*
G36*
X7101012Y2171700D02*
X7023100D01*
Y2093788D01*
X7032059Y2096189D01*
X7059861Y2112240D01*
X7082560Y2134939D01*
X7098611Y2162741D01*
X7101012Y2171700D01*
D02*
G37*
G36*
X6946900D02*
X6868988D01*
X6871389Y2162741D01*
X6887440Y2134939D01*
X6910139Y2112240D01*
X6937941Y2096189D01*
X6946900Y2093788D01*
Y2171700D01*
D02*
G37*
G36*
X7672078Y2115824D02*
X7607308D01*
Y2082804D01*
X7672078D01*
Y2115824D01*
D02*
G37*
G36*
X7341878D02*
X7277108D01*
Y2082804D01*
X7341878D01*
Y2115824D01*
D02*
G37*
G36*
X7531108D02*
X7466338D01*
Y2082804D01*
X7531108D01*
Y2115824D01*
D02*
G37*
G36*
X7200908D02*
X7136138D01*
Y2082804D01*
X7200908D01*
Y2115824D01*
D02*
G37*
G36*
X6834602Y2173302D02*
X6777382D01*
Y2026082D01*
X6834602D01*
Y2173302D01*
D02*
G37*
G36*
X6701182D02*
X6643962D01*
Y2026082D01*
X6701182D01*
Y2173302D01*
D02*
G37*
G36*
X7672078Y2006604D02*
X7607308D01*
Y1973584D01*
X7672078D01*
Y2006604D01*
D02*
G37*
G36*
X7531108D02*
X7466338D01*
Y1973584D01*
X7531108D01*
Y2006604D01*
D02*
G37*
G36*
X7341878D02*
X7277108D01*
Y1973584D01*
X7341878D01*
Y2006604D01*
D02*
G37*
G36*
X7200908D02*
X7136138D01*
Y1973584D01*
X7200908D01*
Y2006604D01*
D02*
G37*
G36*
X1358100Y3561079D02*
Y3433100D01*
X1486078D01*
X1483775Y3444681D01*
X1470936Y3475677D01*
X1452296Y3503573D01*
X1428573Y3527296D01*
X1400677Y3545936D01*
X1369681Y3558775D01*
X1358100Y3561079D01*
D02*
G37*
G36*
X1281900D02*
X1270319Y3558775D01*
X1239323Y3545936D01*
X1211427Y3527296D01*
X1187704Y3503573D01*
X1169064Y3475677D01*
X1156225Y3444681D01*
X1153921Y3433100D01*
X1281900D01*
Y3561079D01*
D02*
G37*
G36*
X1486078Y3356900D02*
X1358100D01*
Y3228922D01*
X1369681Y3231225D01*
X1400677Y3244065D01*
X1428573Y3262704D01*
X1452296Y3286428D01*
X1470936Y3314324D01*
X1483775Y3345320D01*
X1486078Y3356900D01*
D02*
G37*
G36*
X1281900D02*
X1153921D01*
X1156225Y3345320D01*
X1169064Y3314324D01*
X1187704Y3286428D01*
X1211427Y3262704D01*
X1239323Y3244065D01*
X1270319Y3231225D01*
X1281900Y3228922D01*
Y3356900D01*
D02*
G37*
G36*
X3559520Y3322920D02*
X3237300D01*
Y2985700D01*
X3559520D01*
Y3322920D01*
D02*
G37*
G36*
X3161100D02*
X2838880D01*
Y2985700D01*
X3161100D01*
Y3322920D01*
D02*
G37*
G36*
X2146300Y2488014D02*
Y2425700D01*
X2216464D01*
X2210757Y2439479D01*
X2194268Y2460968D01*
X2172779Y2477457D01*
X2147754Y2487822D01*
X2146300Y2488014D01*
D02*
G37*
G36*
X2070100D02*
X2068646Y2487822D01*
X2043621Y2477457D01*
X2022132Y2460968D01*
X2005643Y2439479D01*
X1999936Y2425700D01*
X2070100D01*
Y2488014D01*
D02*
G37*
G36*
X2216464Y2349500D02*
X2146300D01*
Y2287186D01*
X2147754Y2287378D01*
X2172779Y2297743D01*
X2194268Y2314232D01*
X2210757Y2335721D01*
X2216464Y2349500D01*
D02*
G37*
G36*
X2070100D02*
X1999936D01*
X2005643Y2335721D01*
X2022132Y2314232D01*
X2043621Y2297743D01*
X2068646Y2287378D01*
X2070100Y2287186D01*
Y2349500D01*
D02*
G37*
G36*
X6381020Y2396720D02*
X6323800D01*
Y2249500D01*
X6381020D01*
Y2396720D01*
D02*
G37*
G36*
X6247600D02*
X6190380D01*
Y2249500D01*
X6247600D01*
Y2396720D01*
D02*
G37*
G36*
X6381020Y2173300D02*
X6323800D01*
Y2026080D01*
X6381020D01*
Y2173300D01*
D02*
G37*
G36*
X6247600D02*
X6190380D01*
Y2026080D01*
X6247600D01*
Y2173300D01*
D02*
G37*
G36*
X7212800Y3598399D02*
Y3583000D01*
X7228199D01*
X7212800Y3598399D01*
D02*
G37*
G36*
X7136600D02*
X7121201Y3583000D01*
X7136600D01*
Y3598399D01*
D02*
G37*
G36*
X7228199Y3506800D02*
X7212800D01*
Y3491401D01*
X7228199Y3506800D01*
D02*
G37*
G36*
X7136600D02*
X7121201D01*
X7136600Y3491401D01*
Y3506800D01*
D02*
G37*
G36*
X8547100Y2730233D02*
Y2654300D01*
X8623033D01*
X8617242Y2675914D01*
X8605538Y2696186D01*
X8588986Y2712738D01*
X8568714Y2724442D01*
X8547100Y2730233D01*
D02*
G37*
G36*
X8521700D02*
X8500086Y2724442D01*
X8479814Y2712738D01*
X8463262Y2696186D01*
X8451558Y2675914D01*
X8445767Y2654300D01*
X8521700D01*
Y2730233D01*
D02*
G37*
G36*
X8293100D02*
Y2654300D01*
X8369033D01*
X8363242Y2675914D01*
X8351538Y2696186D01*
X8334986Y2712738D01*
X8314714Y2724442D01*
X8293100Y2730233D01*
D02*
G37*
G36*
X8267700D02*
X8246086Y2724442D01*
X8225814Y2712738D01*
X8209262Y2696186D01*
X8197558Y2675914D01*
X8191767Y2654300D01*
X8267700D01*
Y2730233D01*
D02*
G37*
G36*
X8039100D02*
Y2654300D01*
X8115033D01*
X8109242Y2675914D01*
X8097538Y2696186D01*
X8080986Y2712738D01*
X8060714Y2724442D01*
X8039100Y2730233D01*
D02*
G37*
G36*
X8623033Y2628900D02*
X8547100D01*
Y2552967D01*
X8568714Y2558758D01*
X8588986Y2570462D01*
X8605538Y2587014D01*
X8617242Y2607286D01*
X8623033Y2628900D01*
D02*
G37*
G36*
X8521700D02*
X8445767D01*
X8451558Y2607286D01*
X8463262Y2587014D01*
X8479814Y2570462D01*
X8500086Y2558758D01*
X8521700Y2552967D01*
Y2628900D01*
D02*
G37*
G36*
X8369033D02*
X8293100D01*
Y2552967D01*
X8314714Y2558758D01*
X8334986Y2570462D01*
X8351538Y2587014D01*
X8363242Y2607286D01*
X8369033Y2628900D01*
D02*
G37*
G36*
X8267700D02*
X8191767D01*
X8197558Y2607286D01*
X8209262Y2587014D01*
X8225814Y2570462D01*
X8246086Y2558758D01*
X8267700Y2552967D01*
Y2628900D01*
D02*
G37*
G36*
X8547100Y2476233D02*
Y2400300D01*
X8623033D01*
X8617242Y2421914D01*
X8605538Y2442186D01*
X8588986Y2458738D01*
X8568714Y2470442D01*
X8547100Y2476233D01*
D02*
G37*
G36*
X8521700D02*
X8500086Y2470442D01*
X8479814Y2458738D01*
X8463262Y2442186D01*
X8451558Y2421914D01*
X8445767Y2400300D01*
X8521700D01*
Y2476233D01*
D02*
G37*
G36*
X8293100D02*
Y2400300D01*
X8369033D01*
X8363242Y2421914D01*
X8351538Y2442186D01*
X8334986Y2458738D01*
X8314714Y2470442D01*
X8293100Y2476233D01*
D02*
G37*
G36*
X8267700D02*
X8246086Y2470442D01*
X8225814Y2458738D01*
X8209262Y2442186D01*
X8197558Y2421914D01*
X8191767Y2400300D01*
X8267700D01*
Y2476233D01*
D02*
G37*
G36*
X8623033Y2374900D02*
X8547100D01*
Y2298967D01*
X8568714Y2304758D01*
X8588986Y2316462D01*
X8605538Y2333014D01*
X8617242Y2353286D01*
X8623033Y2374900D01*
D02*
G37*
G36*
X8521700D02*
X8445767D01*
X8451558Y2353286D01*
X8463262Y2333014D01*
X8479814Y2316462D01*
X8500086Y2304758D01*
X8521700Y2298967D01*
Y2374900D01*
D02*
G37*
G36*
X8369033D02*
X8293100D01*
Y2298967D01*
X8314714Y2304758D01*
X8334986Y2316462D01*
X8351538Y2333014D01*
X8363242Y2353286D01*
X8369033Y2374900D01*
D02*
G37*
G36*
X8267700D02*
X8191767D01*
X8197558Y2353286D01*
X8209262Y2333014D01*
X8225814Y2316462D01*
X8246086Y2304758D01*
X8267700Y2298967D01*
Y2374900D01*
D02*
G37*
G36*
X8013700Y2730233D02*
X7992086Y2724442D01*
X7971814Y2712738D01*
X7955262Y2696186D01*
X7943558Y2675914D01*
X7937500Y2653304D01*
Y2636418D01*
X7829697D01*
Y2489198D01*
X7940017D01*
Y2451098D01*
X7978117D01*
Y2265778D01*
X8050336D01*
Y2301978D01*
X8060714Y2304758D01*
X8080986Y2316462D01*
X8097538Y2333014D01*
X8109242Y2353286D01*
X8115033Y2374900D01*
X8026400D01*
Y2400300D01*
X8115033D01*
X8109242Y2421914D01*
X8097538Y2442186D01*
X8080986Y2458738D01*
X8060714Y2470442D01*
X8050336Y2473222D01*
Y2555978D01*
X8060714Y2558758D01*
X8080986Y2570462D01*
X8097538Y2587014D01*
X8109242Y2607286D01*
X8115033Y2628900D01*
X8026400D01*
Y2641600D01*
X8013700D01*
Y2730233D01*
D02*
G37*
G36*
X7901917Y2412998D02*
X7829697D01*
Y2265778D01*
X7901917D01*
Y2412998D01*
D02*
G37*
G36*
X8547100Y2196833D02*
Y2120900D01*
X8623033D01*
X8617242Y2142514D01*
X8605538Y2162786D01*
X8588986Y2179338D01*
X8568714Y2191042D01*
X8547100Y2196833D01*
D02*
G37*
G36*
X8521700D02*
X8500086Y2191042D01*
X8479814Y2179338D01*
X8463262Y2162786D01*
X8451558Y2142514D01*
X8445767Y2120900D01*
X8521700D01*
Y2196833D01*
D02*
G37*
G36*
X8293100D02*
Y2120900D01*
X8369033D01*
X8363242Y2142514D01*
X8351538Y2162786D01*
X8334986Y2179338D01*
X8314714Y2191042D01*
X8293100Y2196833D01*
D02*
G37*
G36*
X8002262Y2115816D02*
X7937492D01*
Y2082796D01*
X8002262D01*
Y2115816D01*
D02*
G37*
G36*
X8623033Y2095500D02*
X8547100D01*
Y2019567D01*
X8568714Y2025358D01*
X8588986Y2037062D01*
X8605538Y2053614D01*
X8617242Y2073886D01*
X8623033Y2095500D01*
D02*
G37*
G36*
X8521700D02*
X8445767D01*
X8451558Y2073886D01*
X8463262Y2053614D01*
X8479814Y2037062D01*
X8500086Y2025358D01*
X8521700Y2019567D01*
Y2095500D01*
D02*
G37*
G36*
X8267700Y2196833D02*
X8246086Y2191042D01*
X8225814Y2179338D01*
X8209262Y2162786D01*
X8197558Y2142514D01*
X8194606Y2131496D01*
X8115622D01*
Y2098476D01*
X8218492D01*
Y2060376D01*
X8256592D01*
Y1989256D01*
X8321362D01*
Y2029197D01*
X8334986Y2037062D01*
X8351538Y2053614D01*
X8363242Y2073886D01*
X8369033Y2095500D01*
X8280400D01*
Y2108200D01*
X8267700D01*
Y2196833D01*
D02*
G37*
G36*
X8180392Y2022276D02*
X8115622D01*
Y1989256D01*
X8180392D01*
Y2022276D01*
D02*
G37*
G36*
X8002262Y2006596D02*
X7937492D01*
Y1973576D01*
X8002262D01*
Y2006596D01*
D02*
G37*
G36*
X4019216Y2301570D02*
X3986996D01*
Y2249500D01*
X4019216D01*
Y2301570D01*
D02*
G37*
G36*
X3910796D02*
X3878576D01*
Y2249500D01*
X3910796D01*
Y2301570D01*
D02*
G37*
G36*
X4019216Y2173300D02*
X3986996D01*
Y2121230D01*
X4019216D01*
Y2173300D01*
D02*
G37*
G36*
X3910796D02*
X3878576D01*
Y2121230D01*
X3910796D01*
Y2173300D01*
D02*
G37*
G36*
X4143421Y2015820D02*
X4072301D01*
Y1944700D01*
X4143421D01*
Y2015820D01*
D02*
G37*
G36*
X3996101D02*
X3924981D01*
Y1944700D01*
X3996101D01*
Y2015820D01*
D02*
G37*
G36*
X4143421Y1868500D02*
X4072301D01*
Y1797380D01*
X4143421D01*
Y1868500D01*
D02*
G37*
G36*
X3996101D02*
X3924981D01*
Y1797380D01*
X3996101D01*
Y1868500D01*
D02*
G37*
G36*
X3958220Y1688420D02*
X3923500D01*
Y1563700D01*
X3958220D01*
Y1688420D01*
D02*
G37*
G36*
X3847300D02*
X3812580D01*
Y1563700D01*
X3847300D01*
Y1688420D01*
D02*
G37*
G36*
X6057104Y1717370D02*
X6024884D01*
Y1665300D01*
X6057104D01*
Y1717370D01*
D02*
G37*
G36*
Y1589100D02*
X6024884D01*
Y1537030D01*
X6057104D01*
Y1589100D01*
D02*
G37*
G36*
X5867870Y1481616D02*
X5815800D01*
Y1449396D01*
X5867870D01*
Y1481616D01*
D02*
G37*
G36*
X5739600D02*
X5687530D01*
Y1449396D01*
X5739600D01*
Y1481616D01*
D02*
G37*
G36*
X5980900Y1446220D02*
X5968680D01*
Y1354000D01*
X5980900D01*
Y1446220D01*
D02*
G37*
G36*
X5867870Y1373196D02*
X5815800D01*
Y1340976D01*
X5867870D01*
Y1373196D01*
D02*
G37*
G36*
X8321362Y1801296D02*
X8256592D01*
Y1768276D01*
X8321362D01*
Y1801296D01*
D02*
G37*
G36*
X8180392D02*
X8115622D01*
Y1768276D01*
X8180392D01*
Y1801296D01*
D02*
G37*
G36*
X7341878Y1785624D02*
X7277108D01*
Y1752604D01*
X7341878D01*
Y1785624D01*
D02*
G37*
G36*
X7200908D02*
X7136138D01*
Y1752604D01*
X7200908D01*
Y1785624D01*
D02*
G37*
G36*
X7861292Y1785616D02*
X7796522D01*
Y1752596D01*
X7861292D01*
Y1785616D01*
D02*
G37*
G36*
X7531108Y1785624D02*
X7466338D01*
Y1686952D01*
X7455339Y1680602D01*
X7451114Y1683042D01*
X7429500Y1688833D01*
Y1612900D01*
X7505433D01*
X7500668Y1630684D01*
X7507625Y1643384D01*
X7531108D01*
Y1714504D01*
Y1785624D01*
D02*
G37*
G36*
X8180392Y1692076D02*
X8115622D01*
Y1678575D01*
X8102922Y1673338D01*
X8086114Y1683042D01*
X8064500Y1688833D01*
Y1612900D01*
X8140433D01*
X8134642Y1634514D01*
X8127805Y1646356D01*
X8135137Y1659056D01*
X8180392D01*
Y1692076D01*
D02*
G37*
G36*
X7404100Y1688833D02*
X7382486Y1683042D01*
X7362214Y1671338D01*
X7354578Y1663702D01*
X7341878Y1668962D01*
Y1676404D01*
X7277108D01*
Y1643384D01*
X7325975D01*
X7332932Y1630684D01*
X7328167Y1612900D01*
X7404100D01*
Y1688833D01*
D02*
G37*
G36*
X8321362Y1692076D02*
X8256592D01*
Y1659056D01*
X8321362D01*
Y1692076D01*
D02*
G37*
G36*
X7200908Y1676404D02*
X7136138D01*
Y1643384D01*
X7200908D01*
Y1676404D01*
D02*
G37*
G36*
X8002262Y1785616D02*
X7937492D01*
Y1714496D01*
Y1643376D01*
X7960969D01*
X7967930Y1630676D01*
X7963167Y1612900D01*
X8039100D01*
Y1688833D01*
X8017486Y1683042D01*
X8013261Y1680602D01*
X8002262Y1686952D01*
Y1785616D01*
D02*
G37*
G36*
X7734300Y1688833D02*
Y1612900D01*
X7810233D01*
X7805470Y1630676D01*
X7812431Y1643376D01*
X7861292D01*
Y1676396D01*
X7796522D01*
Y1668962D01*
X7783822Y1663702D01*
X7776186Y1671338D01*
X7755914Y1683042D01*
X7734300Y1688833D01*
D02*
G37*
G36*
X7672078Y1785624D02*
X7607308D01*
Y1714504D01*
Y1643384D01*
X7630775D01*
X7637732Y1630684D01*
X7632967Y1612900D01*
X7708900D01*
Y1688833D01*
X7687286Y1683042D01*
X7683077Y1680612D01*
X7672078Y1686962D01*
Y1785624D01*
D02*
G37*
G36*
X8140433Y1587500D02*
X8064500D01*
Y1511567D01*
X8086114Y1517358D01*
X8106386Y1529062D01*
X8122938Y1545614D01*
X8134642Y1565886D01*
X8140433Y1587500D01*
D02*
G37*
G36*
X8039100D02*
X7963167D01*
X7968958Y1565886D01*
X7980662Y1545614D01*
X7997214Y1529062D01*
X8017486Y1517358D01*
X8039100Y1511567D01*
Y1587500D01*
D02*
G37*
G36*
X7810233D02*
X7734300D01*
Y1511567D01*
X7755914Y1517358D01*
X7776186Y1529062D01*
X7792738Y1545614D01*
X7804442Y1565886D01*
X7810233Y1587500D01*
D02*
G37*
G36*
X7708900D02*
X7632967D01*
X7638758Y1565886D01*
X7650462Y1545614D01*
X7667014Y1529062D01*
X7687286Y1517358D01*
X7708900Y1511567D01*
Y1587500D01*
D02*
G37*
G36*
X7505433D02*
X7429500D01*
Y1511567D01*
X7451114Y1517358D01*
X7471386Y1529062D01*
X7487938Y1545614D01*
X7499642Y1565886D01*
X7505433Y1587500D01*
D02*
G37*
G36*
X7404100D02*
X7328167D01*
X7333958Y1565886D01*
X7345662Y1545614D01*
X7362214Y1529062D01*
X7382486Y1517358D01*
X7404100Y1511567D01*
Y1587500D01*
D02*
G37*
G36*
X1358100Y1661079D02*
Y1533101D01*
X1486078D01*
X1483775Y1544681D01*
X1470936Y1575677D01*
X1452296Y1603573D01*
X1428573Y1627297D01*
X1400677Y1645936D01*
X1369681Y1658775D01*
X1358100Y1661079D01*
D02*
G37*
G36*
X1281900D02*
X1270319Y1658775D01*
X1239323Y1645936D01*
X1211427Y1627297D01*
X1187704Y1603573D01*
X1169064Y1575677D01*
X1156225Y1544681D01*
X1153921Y1533101D01*
X1281900D01*
Y1661079D01*
D02*
G37*
G36*
X2139220Y1660120D02*
X2082000D01*
Y1512900D01*
X2139220D01*
Y1660120D01*
D02*
G37*
G36*
X2005800D02*
X1948580D01*
Y1512900D01*
X2005800D01*
Y1660120D01*
D02*
G37*
G36*
X1486078Y1456901D02*
X1358100D01*
Y1328922D01*
X1369681Y1331226D01*
X1400677Y1344065D01*
X1428573Y1362704D01*
X1452296Y1386428D01*
X1470936Y1414324D01*
X1483775Y1445320D01*
X1486078Y1456901D01*
D02*
G37*
G36*
X1281900D02*
X1153921D01*
X1156225Y1445320D01*
X1169064Y1414324D01*
X1187704Y1386428D01*
X1211427Y1362704D01*
X1239323Y1344065D01*
X1270319Y1331226D01*
X1281900Y1328922D01*
Y1456901D01*
D02*
G37*
G36*
X2139220Y1436700D02*
X2082000D01*
Y1289480D01*
X2139220D01*
Y1436700D01*
D02*
G37*
G36*
X2005800D02*
X1948580D01*
Y1289480D01*
X2005800D01*
Y1436700D01*
D02*
G37*
G36*
X6375870Y592624D02*
X6323800D01*
Y560404D01*
X6375870D01*
Y592624D01*
D02*
G37*
%LPD*%
D10*
X5109049Y1012005D02*
G03*
X5037797Y1041400I-71478J-72205D01*
G01*
X3965584Y1563700D02*
G03*
X3927788Y1556408I0J-101600D01*
G01*
X5401053Y1533942D02*
G03*
X5329211Y1563700I-71842J-71842D01*
G01*
X2567000Y2440000D02*
X2676360D01*
X2468660Y2341660D02*
X2567000Y2440000D01*
X2468660Y2290860D02*
Y2341660D01*
X2463800Y2286000D02*
X2468660Y2290860D01*
X3656400Y865600D02*
X3945600Y1041400D01*
X5109049Y1012004D02*
X5143500Y977900D01*
X3945600Y1041400D02*
X5037797Y1041400D01*
X3887100Y1540102D02*
X3927788Y1556408D01*
X5401053Y1533942D02*
X5523700Y1411296D01*
X3885400Y1525600D02*
X3887100Y1540102D01*
X3965584Y1563700D02*
X5329211D01*
X5143500Y977900D02*
X5504650Y616750D01*
Y523104D02*
Y616750D01*
X3644100Y2947600D02*
X3859600Y2732100D01*
X4202900D01*
X3199200Y2947600D02*
X3644100D01*
X4202900Y2732100D02*
X4761700Y2173300D01*
X5505450Y522304D02*
X5523700D01*
X5504650Y523104D02*
X5505450Y522304D01*
X4761700Y2173300D02*
X6261500D01*
X6285700Y2197500D02*
Y2211400D01*
X6261500Y2173300D02*
X6285700Y2197500D01*
X3885400Y1525600D02*
Y1562000D01*
Y1563700D02*
Y1757799D01*
X4034201Y1906600D01*
D11*
X6742900Y1276963D02*
G03*
X6758140Y1231243I76200J0D01*
G01*
X6742900Y1607537D02*
G03*
X6727660Y1653257I-76200J0D01*
G01*
D02*
G03*
X6720646Y1661354I-60961J-45720D01*
G01*
X6758140Y1231243D02*
G03*
X6765153Y1223147I60961J45721D01*
G01*
X6565757Y1815160D02*
G03*
X6520037Y1830400I-45720J-60960D01*
G01*
X6573854Y1808147D02*
G03*
X6565757Y1815160I-53817J-53947D01*
G01*
X6884946Y1103354D02*
G03*
X6893043Y1096340I53817J53947D01*
G01*
D02*
G03*
X6938763Y1081100I45720J60960D01*
G01*
X6765153Y1223147D02*
X6884946Y1103354D01*
X6742900Y1276963D02*
Y1607537D01*
X6573854Y1808146D02*
X6720646Y1661354D01*
X6234900Y1830400D02*
X6520037D01*
X6938763Y1081100D02*
X7187400D01*
X6291695Y528299D02*
X6355199D01*
X6400000Y573100D02*
X7187400D01*
X6285700Y522304D02*
X6291695Y528299D01*
X6355199D02*
X6400000Y573100D01*
X3657274Y1295726D02*
X5664670D01*
X3529522Y1423478D02*
X3657274Y1295726D01*
X5664670D02*
X5745950Y1214446D01*
Y1194596D02*
Y1214446D01*
Y1194596D02*
X5757850Y1182696D01*
X5777700D01*
X3441800Y1423478D02*
X3529522D01*
X3427400Y1437878D02*
X3441800Y1423478D01*
X3427400Y1437878D02*
Y1525600D01*
X6095204Y1627200D02*
X6107104Y1639100D01*
Y1702604D01*
X6234900Y1830400D01*
X7187400Y1081100D02*
X7847800D01*
D12*
X6502888Y3419986D02*
G03*
X6508236Y3415360I35828J36015D01*
G01*
D02*
G03*
X6538716Y3405200I30480J40640D01*
G01*
X6111879Y3902079D02*
G03*
X6126678Y3937920I-36001J35840D01*
G01*
X5990327Y3781248D02*
G03*
X5995674Y3785874I-30480J40641D01*
G01*
X5959847Y3771088D02*
G03*
X5990327Y3781248I0J50800D01*
G01*
X6388598Y4038102D02*
G03*
X6352758Y4052900I-35840J-36002D01*
G01*
X6602601Y3803057D02*
G03*
X6587803Y3838897I-50800J0D01*
G01*
X5673816Y164160D02*
G03*
X5704296Y154000I30480J40640D01*
G01*
X5668468Y168786D02*
G03*
X5673816Y164160I35828J36015D01*
G01*
X5881584D02*
G03*
X5886932Y168786I-30480J40641D01*
G01*
X5851104Y154000D02*
G03*
X5881584Y164160I0J50800D01*
G01*
X4890786Y3036586D02*
G03*
X4886160Y3031238I36015J-35828D01*
G01*
X4988342Y3113100D02*
G03*
X4957862Y3102940I0J-50800D01*
G01*
X4886160Y3031238D02*
G03*
X4876000Y3000758I40640J-30480D01*
G01*
X4957862Y3102940D02*
G03*
X4952514Y3098314I30480J-40641D01*
G01*
X4911660Y3569818D02*
G03*
X4875820Y3555020I0J-50800D01*
G01*
X4801886Y3481086D02*
G03*
X4797260Y3475738I36015J-35828D01*
G01*
D02*
G03*
X4787100Y3445258I40640J-30480D01*
G01*
X5570637Y3700948D02*
G03*
X5568515Y3700993I-2125J-50756D01*
G01*
X3972288Y3102412D02*
G03*
X4007815Y3087700I35754J36088D01*
G01*
X3567900Y3527681D02*
G03*
X3582651Y3492049I50800J161D01*
G01*
X4797260Y2557562D02*
G03*
X4801886Y2552214I40641J30481D01*
G01*
X4787100Y2588042D02*
G03*
X4797260Y2557562I50800J0D01*
G01*
X4648200Y3075796D02*
X4660104Y3087700D01*
X4648200Y2870200D02*
Y3075796D01*
X5419920Y4304908D02*
Y4484700D01*
Y4304908D02*
X5449678Y4275150D01*
X5458824D01*
X5483424Y4250550D01*
Y4230700D02*
Y4250550D01*
X6538716Y3405200D02*
X7013958D01*
X6411904Y3510970D02*
X6502888Y3419986D01*
X6410528Y3512346D02*
X6411904Y3510970D01*
X6615904Y3532200D02*
Y3552050D01*
X6591304Y3576650D02*
X6615904Y3552050D01*
X6558746Y3576650D02*
X6591304D01*
X6431746Y3703650D02*
X6558746Y3576650D01*
X6411896Y3703650D02*
X6431746D01*
X6387296Y3728250D02*
X6411896Y3703650D01*
X6387296Y3728250D02*
Y3748100D01*
X5314150Y249254D02*
X5498304Y65100D01*
X5091900Y3293080D02*
X5419920Y3621100D01*
X5511000Y3700993D02*
X5568515Y3700993D01*
X5501488Y3700993D02*
X5511000D01*
X6057096Y65100D02*
X6241250Y249254D01*
X6323804Y1627200D02*
Y1647050D01*
Y1607350D02*
Y1627200D01*
X5499812Y3700993D02*
X5501488D01*
X5511000Y3710000D01*
X5496119Y3695909D02*
X5501488Y3700993D01*
X5995674Y3785874D02*
X6111879Y3902079D01*
X5775520Y3771088D02*
X5959847D01*
X6126678Y3993300D02*
X6181520Y4052900D01*
X6126678Y3937920D02*
Y3993300D01*
X6388598Y4038102D02*
X6587803Y3838897D01*
X6181520Y4052900D02*
X6352758D01*
X6602601Y3792550D02*
Y3803057D01*
Y3792550D02*
X6626416Y3748100D01*
X5523700Y293704D02*
X5568150Y269104D01*
X5704296Y154000D02*
X5851104D01*
X5568150Y269104D02*
X5668468Y168786D01*
X5987250Y269104D02*
X6031700Y293704D01*
X5886932Y168786D02*
X5987250Y269104D01*
X6001550Y497704D02*
X6031700Y522304D01*
X5777700Y293704D02*
X5822150Y318304D01*
X6001550Y497704D01*
X4890786Y3036586D02*
X4952514Y3098314D01*
X4988342Y3113100D02*
X5218900D01*
X4876000Y2646929D02*
Y3000758D01*
X5000820Y3569818D02*
X5064320Y3571088D01*
X4911660Y3569818D02*
X5000820D01*
X4787100Y2588042D02*
Y3445258D01*
X4801886Y3481086D02*
X4875820Y3555020D01*
X4443008Y3371128D02*
X4552224D01*
X4254500Y3337560D02*
X4409440D01*
X4443008Y3371128D01*
X4552224D02*
X4559300Y3378204D01*
X4254500Y3594100D02*
X4686300D01*
X4775200Y3683000D02*
Y3685749D01*
X4799804Y3710353D01*
Y3976700D01*
X4686300Y3594100D02*
X4775200Y3683000D01*
X4962438Y3469818D02*
X5063050D01*
X4929544Y3436924D02*
X4962438Y3469818D01*
X4929544Y3418244D02*
Y3436924D01*
X4927600Y3416300D02*
X4929544Y3418244D01*
X5667180Y4226120D02*
X5676900Y4216400D01*
X5667180Y4226120D02*
Y4262839D01*
X5565922Y4364097D02*
X5667180Y4262839D01*
X5563978Y4366042D02*
Y4368791D01*
X5549793Y4382976D02*
X5563978Y4368791D01*
X5549793Y4382976D02*
Y4481827D01*
X5546920Y4484700D02*
X5549793Y4481827D01*
X5207000Y2925424D02*
X5249524Y2882900D01*
X5382404D01*
X5469931Y2970428D02*
Y3265500D01*
X5382404Y2882900D02*
X5469931Y2970428D01*
X4928388Y3671088D02*
X5064320D01*
X4927600Y3670300D02*
X4928388Y3671088D01*
X5419920Y3621100D02*
X5496119Y3695909D01*
X5570637Y3700948D02*
X5573219Y3700847D01*
X5766886Y3672358D02*
X5775520Y3671088D01*
X5573219Y3700847D02*
X5766886Y3672358D01*
X4007815Y3087700D02*
X4431504D01*
X3582651Y3492048D02*
X3972288Y3102412D01*
X4801886Y2552214D02*
X4801979Y2552121D01*
X4939500Y2414600D01*
X5063050Y3469818D02*
X5064320Y3471088D01*
X3567900Y3527681D02*
Y4091000D01*
X6057096Y65100D02*
X6120600D01*
X6171400Y115900D01*
X5447500Y65100D02*
X5498304D01*
X5384000Y128600D02*
X5447500Y65100D01*
X5269700Y293704D02*
X5289550D01*
X5314150Y269104D01*
Y249254D02*
Y269104D01*
X5498304Y65100D02*
X6057096D01*
X6241250Y249254D02*
Y269104D01*
X6265850Y293704D01*
X6285700D01*
X6323804Y1647050D02*
X6348404Y1671650D01*
X6365501D01*
X6384551Y1690700D01*
X6387300D01*
X6323804Y1607350D02*
X6348404Y1582750D01*
X6368254D01*
X6400000Y1551004D01*
Y1315900D02*
Y1551004D01*
X3422460Y4236440D02*
X3567900Y4091000D01*
X5268661Y3162862D02*
Y3264230D01*
X5269931Y3265500D01*
X5218900Y3113100D02*
X5268661Y3162862D01*
X4797620Y4215566D02*
Y4235416D01*
Y4215566D02*
X4824396Y4188790D01*
X4844246D01*
X4926800Y4106236D01*
Y3824300D02*
Y4106236D01*
Y3824300D02*
X4978742Y3772358D01*
X5063050D01*
X5064320Y3771088D01*
X5091900Y3290900D02*
Y3293080D01*
X3422460Y4236440D02*
Y4308282D01*
X3357860Y4372882D02*
X3422460Y4308282D01*
X3301198Y4372882D02*
X3357860D01*
X4876000Y2646929D02*
X5134682Y2388247D01*
X5135733D02*
X5172880Y2351100D01*
X5134682Y2388247D02*
X5135733D01*
X5172880Y2351100D02*
X5193500D01*
X5328194Y3712826D02*
X5419920Y3621100D01*
X5328194Y3712826D02*
X5328194D01*
X5775520Y3671088D02*
X6028708D01*
X6102345Y3744725D02*
X6189971D01*
X6190789Y3743907D01*
X6195224D02*
X6201622Y3737509D01*
X6190789Y3743907D02*
X6195224D01*
X6028708Y3671088D02*
X6102345Y3744725D01*
X5676100Y4395800D02*
Y4482520D01*
X5673920Y4484700D02*
X5676100Y4482520D01*
X5777700Y522304D02*
Y611200D01*
X5066500Y458800D02*
X5130004Y522304D01*
X5269700D01*
X5889816Y2503508D02*
Y2685110D01*
Y2732100D01*
X5892356Y2729560D02*
X6397824D01*
X5889816Y2503508D02*
X5889824Y2503500D01*
X5523700Y1081100D02*
Y1182696D01*
Y1081100D02*
X5561800Y1043000D01*
X6336500D01*
X6146000Y636604D02*
Y820900D01*
X6076150Y566754D02*
X6146000Y636604D01*
X6076150Y546904D02*
Y566754D01*
X6051550Y522304D02*
X6076150Y546904D01*
X6031700Y522304D02*
X6051550D01*
X6031700Y293704D02*
X6056300Y318304D01*
X6081700D01*
X6241250Y477854D01*
Y497704D01*
X6265850Y522304D01*
X6285700D01*
X6273000Y535004D02*
X6285700Y522304D01*
X6273000Y535004D02*
Y820900D01*
X6395400Y825500D02*
Y984100D01*
X6336500Y1043000D02*
X6395400Y984100D01*
Y825500D02*
X6400000Y820900D01*
X6105720Y3532196D02*
X6410528D01*
Y3512346D02*
Y3532196D01*
X5242120Y2973396D02*
X5261970D01*
X5286570Y2997996D01*
Y3017846D01*
X5661224Y2503500D02*
Y3074996D01*
X5286570Y3017846D02*
X5369931Y3101208D01*
X5571201Y3165019D02*
X5661224Y3074996D01*
X5369931Y3101208D02*
Y3265500D01*
X5571201Y3165019D02*
Y3264230D01*
X5569931Y3265500D02*
X5571201Y3264230D01*
X5469931Y3976700D02*
Y4230700D01*
X5483424D01*
X5775520Y3471088D02*
X5900132D01*
X6043024Y3328196D01*
X6081120D01*
X6093020Y3151200D02*
Y3290896D01*
X6081120Y3328196D02*
X6105720Y3303596D01*
X6093020Y3290896D02*
X6105720Y3303596D01*
X6271624D01*
X6296224Y3278996D01*
Y3265500D02*
Y3278996D01*
X6626424Y3265500D02*
X6893120D01*
X5775520Y3571088D02*
X5952532D01*
X5989428Y3534192D01*
X6103724D01*
X6105720Y3532196D01*
X6893120Y3265500D02*
X7060702Y3097918D01*
X7337622D01*
D13*
X4559300Y3378204D02*
D03*
Y3606804D02*
D03*
X3872700Y4217996D02*
D03*
Y3989396D02*
D03*
X5269700Y522304D02*
D03*
Y293704D02*
D03*
X6285700D02*
D03*
Y522304D02*
D03*
X5523700Y1411296D02*
D03*
Y1182696D02*
D03*
X6031700Y293704D02*
D03*
Y522304D02*
D03*
X2676360Y2440000D02*
D03*
Y2211400D02*
D03*
X5777700Y293704D02*
D03*
Y522304D02*
D03*
Y1411296D02*
D03*
Y1182696D02*
D03*
X5523700Y293704D02*
D03*
Y522304D02*
D03*
X2437600Y4052904D02*
D03*
Y3824304D02*
D03*
X4569020Y4510104D02*
D03*
Y4738704D02*
D03*
X4797620Y4510104D02*
D03*
Y4738704D02*
D03*
X6105720Y3532196D02*
D03*
Y3303596D02*
D03*
D14*
X5079200Y4218000D02*
D03*
X5867400Y3987800D02*
D03*
X5229420Y4497400D02*
D03*
X5029200Y2933700D02*
D03*
X3885400Y3811600D02*
D03*
X6093020Y3151200D02*
D03*
X7174700Y3544900D02*
D03*
D15*
X5676900Y4216400D02*
D03*
D16*
X4086416Y3976700D02*
D03*
X4315016D02*
D03*
X4799796Y4233240D02*
D03*
X4571196D02*
D03*
X4571204Y3976700D02*
D03*
X4799804D02*
D03*
X4315016Y4233240D02*
D03*
X4086416D02*
D03*
X3948896Y2211400D02*
D03*
X3720296D02*
D03*
X6323804Y1627200D02*
D03*
X6095204D02*
D03*
X4431504Y3087700D02*
D03*
X4660104D02*
D03*
X5661224Y2503500D02*
D03*
X5889824D02*
D03*
X5889816Y2960700D02*
D03*
X5661216D02*
D03*
X6397824Y2729560D02*
D03*
X6626424D02*
D03*
X6397824Y3265500D02*
D03*
X6626424D02*
D03*
X5661216Y2732100D02*
D03*
X5889816D02*
D03*
X6387304Y3532200D02*
D03*
X6615904D02*
D03*
X6626416Y2960700D02*
D03*
X6397816D02*
D03*
X6615896Y3748100D02*
D03*
X6387296D02*
D03*
X5254824Y4230700D02*
D03*
X5483424D02*
D03*
D17*
X6019000Y820900D02*
D03*
X6146000D02*
D03*
X6273000D02*
D03*
X6400000D02*
D03*
X6019000Y1315900D02*
D03*
X6146000D02*
D03*
X6273000D02*
D03*
X6400000D02*
D03*
D18*
X2831298Y4372882D02*
D03*
Y3732884D02*
D03*
X3301198Y4372882D02*
D03*
Y3732884D02*
D03*
D19*
X3656400Y865600D02*
D03*
X3199200Y2947600D02*
D03*
D20*
X3427400Y1525600D02*
D03*
X3885400D02*
D03*
X2970200Y2287600D02*
D03*
X3428200D02*
D03*
D21*
X2497482Y1474802D02*
D03*
X2043900Y1474800D02*
D03*
X6285700Y2211400D02*
D03*
X6739282Y2211402D02*
D03*
D22*
X3584199Y1906600D02*
D03*
X4034201D02*
D03*
X3297601D02*
D03*
X2847599D02*
D03*
D23*
X5775520Y3471088D02*
D03*
Y3571088D02*
D03*
Y3671088D02*
D03*
Y3771088D02*
D03*
X5064320D02*
D03*
Y3671088D02*
D03*
Y3571088D02*
D03*
Y3471088D02*
D03*
D24*
X5419920Y3621100D02*
D03*
D25*
X5269931Y3265500D02*
D03*
X5369931D02*
D03*
X5469931D02*
D03*
X5569931D02*
D03*
X5269931Y3976700D02*
D03*
X5369931D02*
D03*
X5469931D02*
D03*
X5569931D02*
D03*
D26*
X7940017Y2451098D02*
D03*
X7300018D02*
D03*
D27*
X5419920Y4484700D02*
D03*
X5546920D02*
D03*
X5673920D02*
D03*
X5800920D02*
D03*
D28*
X5720420Y4801700D02*
D03*
X5500420D02*
D03*
D29*
X6690320Y4052900D02*
D03*
X6181520D02*
D03*
X3860400Y5310200D02*
D03*
X3351600D02*
D03*
D30*
X8218492Y2060376D02*
D03*
Y1730176D02*
D03*
X7899392Y2044696D02*
D03*
Y1714496D02*
D03*
X7569208Y2044704D02*
D03*
Y1714504D02*
D03*
X7239008Y2044704D02*
D03*
Y1714504D02*
D03*
D31*
X4246440Y4819960D02*
D03*
Y4520280D02*
D03*
X3854920Y4819960D02*
D03*
Y4520280D02*
D03*
D32*
X1320000Y3395000D02*
X1837400D01*
X2108200Y3124200D01*
Y2387600D02*
Y3124200D01*
X1320000Y3395000D02*
X2108200D01*
X2504036Y1462619D02*
X2515332Y1451323D01*
X2504036Y1462619D02*
Y1735224D01*
X2108200Y2131060D02*
X2504036Y1735224D01*
X4569020Y4738704D02*
X4797620D01*
X4340396D02*
X4569020D01*
X4259140Y4819960D02*
X4340396Y4738704D01*
X4246440Y4819960D02*
X4259140D01*
X3854920D02*
X4246440D01*
X2818600Y5640400D02*
X3148800Y5310200D01*
X3351600D01*
X1929600Y5640400D02*
X2818600D01*
X1929600Y5602300D02*
Y5640400D01*
X1622300Y5295000D02*
X1929600Y5602300D01*
X1320000Y5295000D02*
X1622300D01*
X1320000Y3395000D02*
X1322500Y3392500D01*
X2005800D01*
X2450700Y2947600D01*
X3199200D01*
X1320000Y1474800D02*
X2043900D01*
X1320000D02*
Y1495001D01*
X4797620Y4235416D02*
Y4510104D01*
X4569020D02*
X4797620D01*
X3890954Y4230700D02*
X4086416D01*
X1320000Y4345000D02*
X1612096Y4052904D01*
X2437600D01*
X3605605Y916395D02*
X3656400Y865600D01*
X3211905Y916395D02*
X3605605D01*
X2676977Y1451323D02*
X3211905Y916395D01*
X2515332Y1451323D02*
X2676977D01*
X7187400Y573100D02*
X7847800D01*
X6057100Y2948000D02*
Y2960700D01*
Y2948000D02*
X6158700Y2846400D01*
X6057100Y2960700D02*
X6397816D01*
X5889816D02*
X6057100D01*
D33*
X5656973Y4125972D02*
X5721498D01*
X5577551Y4046550D02*
X5656973Y4125972D01*
X5721498D02*
X5800920Y4205393D01*
X5569931Y3976700D02*
X5577551Y3984320D01*
X5800920Y4205393D02*
Y4484700D01*
X5577551Y3984320D02*
Y4046550D01*
X5367858Y3978774D02*
Y4165774D01*
Y3978774D02*
X5369931Y3976700D01*
X5365784Y4167847D02*
X5367858Y4165774D01*
X5269931Y3976700D02*
Y4215593D01*
X5254824Y4230700D02*
X5269931Y4215593D01*
D34*
X6823085Y4052900D02*
X6848485Y4078300D01*
X6855020D01*
X5371202Y4594640D02*
X5453660D01*
X5346218Y4569656D02*
X5371202Y4594640D01*
X5419920Y4484700D02*
X5435180Y4499960D01*
Y4576160D01*
X5453660Y4594640D01*
X5594649D01*
X5598019Y4598010D01*
X6015829D01*
X6054888Y4847669D02*
X6149120Y4941900D01*
X6015829Y4598010D02*
X6054888Y4637069D01*
Y4847669D01*
X6690320Y4052900D02*
X6823085D01*
D35*
X7187400Y1081100D02*
D03*
X7847800Y573100D02*
D03*
Y1081100D02*
D03*
X7187400Y573100D02*
D03*
D36*
X2108200Y2387600D02*
D03*
Y2131060D02*
D03*
X4254500Y3594100D02*
D03*
Y3337560D02*
D03*
D37*
X6985000Y2209800D02*
D03*
D38*
X1320000Y2445000D02*
D03*
Y3395000D02*
D03*
Y545001D02*
D03*
Y5295000D02*
D03*
Y1495001D02*
D03*
Y4345000D02*
D03*
D39*
X2511900Y5041600D02*
D03*
X8511900D02*
D03*
X2511900Y801600D02*
D03*
X8511900D02*
D03*
D40*
X4648200Y2870200D02*
D03*
X2463800Y2286000D02*
D03*
X7416800Y1600200D02*
D03*
X7721600D02*
D03*
X8051800D02*
D03*
X8204200Y4445000D02*
D03*
X8559800Y4165600D02*
D03*
X8204200D02*
D03*
X7848600D02*
D03*
Y4445000D02*
D03*
Y4749800D02*
D03*
X8280400Y2641600D02*
D03*
X8026400D02*
D03*
X8280400Y2387600D02*
D03*
X8026400D02*
D03*
X8534400Y2108200D02*
D03*
Y2387600D02*
D03*
Y2641600D02*
D03*
X8280400Y2108200D02*
D03*
X5091900Y3290900D02*
D03*
X5193500Y2351100D02*
D03*
X4939500Y2414600D02*
D03*
D41*
X4775200Y3683000D02*
D03*
X4927600Y3416300D02*
D03*
X5207000Y2925424D02*
D03*
X4927600Y3670300D02*
D03*
X5143500Y977900D02*
D03*
X5320500Y3519500D02*
D03*
X5511000D02*
D03*
Y3710000D02*
D03*
X6171400Y115900D02*
D03*
X5384000Y128600D02*
D03*
X6387300Y1690700D02*
D03*
X5130000Y2630500D02*
D03*
X5028400Y2719400D02*
D03*
X4037800Y3811600D02*
D03*
X5811089Y1408180D02*
D03*
X6855020Y4078300D02*
D03*
X5328194Y3712826D02*
D03*
X4050500Y4560900D02*
D03*
Y4421200D02*
D03*
X5676100Y4395800D02*
D03*
X5563978Y4366042D02*
D03*
X5777700Y611200D02*
D03*
X5066500Y458800D02*
D03*
X5365784Y4167847D02*
D03*
X6158700Y2846400D02*
D03*
X5115120Y4040200D02*
D03*
%TF.MD5,6489927e534ec14d9d996bfd6f4a0665*%
M02*
