%TF.GenerationSoftware,Altium Limited,Altium Designer,25.4.2 (15)*%
G04 Layer_Color=2752767*
%FSLAX45Y45*%
%MOMM*%
%TF.SameCoordinates,6C6A8B56-62B0-443B-98C8-0AEE6F0B4FCF*%
%TF.FilePolarity,Positive*%
%TF.FileFunction,Drawing*%
%TF.Part,Single*%
G01*
G75*
%TA.AperFunction,NonConductor*%
%ADD52C,0.12700*%
%ADD101C,0.16933*%
D52*
X7136600Y1081100D02*
X7187400Y1131900D01*
X7238200Y1081100D01*
X7187400Y1030300D01*
X7136600Y1081100D01*
X7797000Y573100D02*
X7847800Y623900D01*
X7898600Y573100D01*
X7847800Y522300D01*
X7797000Y573100D01*
Y1081100D02*
X7847800Y1131900D01*
X7898600Y1081100D01*
X7847800Y1030300D01*
X7797000Y1081100D01*
X7136600Y573100D02*
X7187400Y623900D01*
X7238200Y573100D01*
X7187400Y522300D01*
X7136600Y573100D01*
X2108200Y2336800D02*
X2133600Y2362200D01*
X2159000D01*
X2133600Y2387600D01*
X2159000Y2413000D01*
X2133600D01*
X2108200Y2438400D01*
X2082800Y2413000D01*
X2057400D01*
X2082800Y2387600D01*
X2057400Y2362200D01*
X2082800D01*
X2108200Y2336800D01*
Y2080260D02*
X2133600Y2105660D01*
X2159000D01*
X2133600Y2131060D01*
X2159000Y2156460D01*
X2133600D01*
X2108200Y2181860D01*
X2082800Y2156460D01*
X2057400D01*
X2082800Y2131060D01*
X2057400Y2105660D01*
X2082800D01*
X2108200Y2080260D01*
X4254500Y3543300D02*
X4279900Y3568700D01*
X4305300D01*
X4279900Y3594100D01*
X4305300Y3619500D01*
X4279900D01*
X4254500Y3644900D01*
X4229100Y3619500D01*
X4203700D01*
X4229100Y3594100D01*
X4203700Y3568700D01*
X4229100D01*
X4254500Y3543300D01*
Y3286760D02*
X4279900Y3312160D01*
X4305300D01*
X4279900Y3337560D01*
X4305300Y3362960D01*
X4279900D01*
X4254500Y3388360D01*
X4229100Y3362960D01*
X4203700D01*
X4229100Y3337560D01*
X4203700Y3312160D01*
X4229100D01*
X4254500Y3286760D01*
X1294600Y2419600D02*
Y2394200D01*
X1345400D01*
Y2419600D01*
X1370800D01*
Y2470400D01*
X1345400D01*
Y2495800D01*
X1294600D01*
Y2470400D01*
X1269200D01*
Y2419600D01*
X1294600D01*
Y3369600D02*
Y3344200D01*
X1345400D01*
Y3369600D01*
X1370800D01*
Y3420400D01*
X1345400D01*
Y3445800D01*
X1294600D01*
Y3420400D01*
X1269200D01*
Y3369600D01*
X1294600D01*
Y519601D02*
Y494201D01*
X1345400D01*
Y519601D01*
X1370800D01*
Y570401D01*
X1345400D01*
Y595801D01*
X1294600D01*
Y570401D01*
X1269200D01*
Y519601D01*
X1294600D01*
Y5269600D02*
Y5244200D01*
X1345400D01*
Y5269600D01*
X1370800D01*
Y5320400D01*
X1345400D01*
Y5345800D01*
X1294600D01*
Y5320400D01*
X1269200D01*
Y5269600D01*
X1294600D01*
Y1469601D02*
Y1444201D01*
X1345400D01*
Y1469601D01*
X1370800D01*
Y1520401D01*
X1345400D01*
Y1545801D01*
X1294600D01*
Y1520401D01*
X1269200D01*
Y1469601D01*
X1294600D01*
Y4319600D02*
Y4294200D01*
X1345400D01*
Y4319600D01*
X1370800D01*
Y4370400D01*
X1345400D01*
Y4395800D01*
X1294600D01*
Y4370400D01*
X1269200D01*
Y4319600D01*
X1294600D01*
X2461100Y4990800D02*
X2486500D01*
X2511900Y5016200D01*
X2537300Y4990800D01*
X2562700D01*
Y5016200D01*
X2537300Y5041600D01*
X2562700Y5067000D01*
Y5092400D01*
X2537300D01*
X2511900Y5067000D01*
X2486500Y5092400D01*
X2461100D01*
Y5067000D01*
X2486500Y5041600D01*
X2461100Y5016200D01*
Y4990800D01*
X8461100D02*
X8486500D01*
X8511900Y5016200D01*
X8537300Y4990800D01*
X8562700D01*
Y5016200D01*
X8537300Y5041600D01*
X8562700Y5067000D01*
Y5092400D01*
X8537300D01*
X8511900Y5067000D01*
X8486500Y5092400D01*
X8461100D01*
Y5067000D01*
X8486500Y5041600D01*
X8461100Y5016200D01*
Y4990800D01*
X2461100Y750800D02*
X2486500D01*
X2511900Y776200D01*
X2537300Y750800D01*
X2562700D01*
Y776200D01*
X2537300Y801600D01*
X2562700Y827000D01*
Y852400D01*
X2537300D01*
X2511900Y827000D01*
X2486500Y852400D01*
X2461100D01*
Y827000D01*
X2486500Y801600D01*
X2461100Y776200D01*
Y750800D01*
X8461100D02*
X8486500D01*
X8511900Y776200D01*
X8537300Y750800D01*
X8562700D01*
Y776200D01*
X8537300Y801600D01*
X8562700Y827000D01*
Y852400D01*
X8537300D01*
X8511900Y827000D01*
X8486500Y852400D01*
X8461100D01*
Y827000D01*
X8486500Y801600D01*
X8461100Y776200D01*
Y750800D01*
X4648200Y2819400D02*
X4597400Y2921000D01*
X4699000D01*
X4648200Y2819400D01*
X2463800Y2235200D02*
X2413000Y2336800D01*
X2514600D01*
X2463800Y2235200D01*
X7416800Y1549400D02*
X7366000Y1651000D01*
X7467600D01*
X7416800Y1549400D01*
X7721600D02*
X7670800Y1651000D01*
X7772400D01*
X7721600Y1549400D01*
X8051800D02*
X8001000Y1651000D01*
X8102600D01*
X8051800Y1549400D01*
X8204200Y4394200D02*
X8153400Y4495800D01*
X8255000D01*
X8204200Y4394200D01*
X8559800Y4114800D02*
X8509000Y4216400D01*
X8610600D01*
X8559800Y4114800D01*
X8204200D02*
X8153400Y4216400D01*
X8255000D01*
X8204200Y4114800D01*
X7848600D02*
X7797800Y4216400D01*
X7899400D01*
X7848600Y4114800D01*
Y4394200D02*
X7797800Y4495800D01*
X7899400D01*
X7848600Y4394200D01*
Y4699000D02*
X7797800Y4800600D01*
X7899400D01*
X7848600Y4699000D01*
X8280400Y2590800D02*
X8229600Y2692400D01*
X8331200D01*
X8280400Y2590800D01*
X8026400D02*
X7975600Y2692400D01*
X8077200D01*
X8026400Y2590800D01*
X8280400Y2336800D02*
X8229600Y2438400D01*
X8331200D01*
X8280400Y2336800D01*
X8026400D02*
X7975600Y2438400D01*
X8077200D01*
X8026400Y2336800D01*
X8534400Y2057400D02*
X8483600Y2159000D01*
X8585200D01*
X8534400Y2057400D01*
Y2336800D02*
X8483600Y2438400D01*
X8585200D01*
X8534400Y2336800D01*
Y2590800D02*
X8483600Y2692400D01*
X8585200D01*
X8534400Y2590800D01*
X8280400Y2057400D02*
X8229600Y2159000D01*
X8331200D01*
X8280400Y2057400D01*
X4724400Y3632200D02*
X4749800Y3683000D01*
X4724400Y3733800D01*
X4775200Y3708400D01*
X4826000Y3733800D01*
X4800600Y3683000D01*
X4826000Y3632200D01*
X4775200Y3657600D01*
X4724400Y3632200D01*
X4876800Y3365500D02*
X4902200Y3416300D01*
X4876800Y3467100D01*
X4927600Y3441700D01*
X4978400Y3467100D01*
X4953000Y3416300D01*
X4978400Y3365500D01*
X4927600Y3390900D01*
X4876800Y3365500D01*
X5156200Y2874624D02*
X5181600Y2925424D01*
X5156200Y2976224D01*
X5207000Y2950824D01*
X5257800Y2976224D01*
X5232400Y2925424D01*
X5257800Y2874624D01*
X5207000Y2900024D01*
X5156200Y2874624D01*
X4876800Y3619500D02*
X4902200Y3670300D01*
X4876800Y3721100D01*
X4927600Y3695700D01*
X4978400Y3721100D01*
X4953000Y3670300D01*
X4978400Y3619500D01*
X4927600Y3644900D01*
X4876800Y3619500D01*
X5092700Y927100D02*
X5118100Y977900D01*
X5092700Y1028700D01*
X5143500Y1003300D01*
X5194300Y1028700D01*
X5168900Y977900D01*
X5194300Y927100D01*
X5143500Y952500D01*
X5092700Y927100D01*
X5269700Y3468700D02*
X5295100Y3519500D01*
X5269700Y3570300D01*
X5320500Y3544900D01*
X5371300Y3570300D01*
X5345900Y3519500D01*
X5371300Y3468700D01*
X5320500Y3494100D01*
X5269700Y3468700D01*
X5460200D02*
X5485600Y3519500D01*
X5460200Y3570300D01*
X5511000Y3544900D01*
X5561800Y3570300D01*
X5536400Y3519500D01*
X5561800Y3468700D01*
X5511000Y3494100D01*
X5460200Y3468700D01*
Y3659200D02*
X5485600Y3710000D01*
X5460200Y3760800D01*
X5511000Y3735400D01*
X5561800Y3760800D01*
X5536400Y3710000D01*
X5561800Y3659200D01*
X5511000Y3684600D01*
X5460200Y3659200D01*
X6120600Y65100D02*
X6146000Y115900D01*
X6120600Y166700D01*
X6171400Y141300D01*
X6222200Y166700D01*
X6196800Y115900D01*
X6222200Y65100D01*
X6171400Y90500D01*
X6120600Y65100D01*
X5333200Y77800D02*
X5358600Y128600D01*
X5333200Y179400D01*
X5384000Y154000D01*
X5434800Y179400D01*
X5409400Y128600D01*
X5434800Y77800D01*
X5384000Y103200D01*
X5333200Y77800D01*
X6336500Y1639900D02*
X6361900Y1690700D01*
X6336500Y1741500D01*
X6387300Y1716100D01*
X6438100Y1741500D01*
X6412700Y1690700D01*
X6438100Y1639900D01*
X6387300Y1665300D01*
X6336500Y1639900D01*
X5079200Y2579700D02*
X5104600Y2630500D01*
X5079200Y2681300D01*
X5130000Y2655900D01*
X5180800Y2681300D01*
X5155400Y2630500D01*
X5180800Y2579700D01*
X5130000Y2605100D01*
X5079200Y2579700D01*
X4977600Y2668600D02*
X5003000Y2719400D01*
X4977600Y2770200D01*
X5028400Y2744800D01*
X5079200Y2770200D01*
X5053800Y2719400D01*
X5079200Y2668600D01*
X5028400Y2694000D01*
X4977600Y2668600D01*
X3987000Y3760800D02*
X4012400Y3811600D01*
X3987000Y3862400D01*
X4037800Y3837000D01*
X4088600Y3862400D01*
X4063200Y3811600D01*
X4088600Y3760800D01*
X4037800Y3786200D01*
X3987000Y3760800D01*
X5091900Y3240100D02*
X5041100Y3341700D01*
X5142700D01*
X5091900Y3240100D01*
X5193500Y2300300D02*
X5142700Y2401900D01*
X5244300D01*
X5193500Y2300300D01*
X4939500Y2363800D02*
X4888700Y2465400D01*
X4990300D01*
X4939500Y2363800D01*
X5760289Y1357380D02*
X5785689Y1408180D01*
X5760289Y1458980D01*
X5811089Y1433580D01*
X5861889Y1458980D01*
X5836489Y1408180D01*
X5861889Y1357380D01*
X5811089Y1382780D01*
X5760289Y1357380D01*
X6804220Y4027500D02*
X6829620Y4078300D01*
X6804220Y4129100D01*
X6855020Y4103700D01*
X6905820Y4129100D01*
X6880420Y4078300D01*
X6905820Y4027500D01*
X6855020Y4052900D01*
X6804220Y4027500D01*
X5277394Y3662026D02*
X5302794Y3712826D01*
X5277394Y3763626D01*
X5328194Y3738226D01*
X5378994Y3763626D01*
X5353594Y3712826D01*
X5378994Y3662026D01*
X5328194Y3687426D01*
X5277394Y3662026D01*
X3999700Y4510100D02*
X4025100Y4560900D01*
X3999700Y4611700D01*
X4050500Y4586300D01*
X4101300Y4611700D01*
X4075900Y4560900D01*
X4101300Y4510100D01*
X4050500Y4535500D01*
X3999700Y4510100D01*
Y4370400D02*
X4025100Y4421200D01*
X3999700Y4472000D01*
X4050500Y4446600D01*
X4101300Y4472000D01*
X4075900Y4421200D01*
X4101300Y4370400D01*
X4050500Y4395800D01*
X3999700Y4370400D01*
X5625300Y4345000D02*
X5650700Y4395800D01*
X5625300Y4446600D01*
X5676100Y4421200D01*
X5726900Y4446600D01*
X5701500Y4395800D01*
X5726900Y4345000D01*
X5676100Y4370400D01*
X5625300Y4345000D01*
X5513178Y4315242D02*
X5538578Y4366042D01*
X5513178Y4416842D01*
X5563978Y4391442D01*
X5614778Y4416842D01*
X5589378Y4366042D01*
X5614778Y4315242D01*
X5563978Y4340642D01*
X5513178Y4315242D01*
X5726900Y560400D02*
X5752300Y611200D01*
X5726900Y662000D01*
X5777700Y636600D01*
X5828500Y662000D01*
X5803100Y611200D01*
X5828500Y560400D01*
X5777700Y585800D01*
X5726900Y560400D01*
X5015700Y408000D02*
X5041100Y458800D01*
X5015700Y509600D01*
X5066500Y484200D01*
X5117300Y509600D01*
X5091900Y458800D01*
X5117300Y408000D01*
X5066500Y433400D01*
X5015700Y408000D01*
X5314984Y4117047D02*
X5340384Y4167847D01*
X5314984Y4218647D01*
X5365784Y4193247D01*
X5416584Y4218647D01*
X5391184Y4167847D01*
X5416584Y4117047D01*
X5365784Y4142447D01*
X5314984Y4117047D01*
X6107900Y2795600D02*
X6133300Y2846400D01*
X6107900Y2897200D01*
X6158700Y2871800D01*
X6209500Y2897200D01*
X6184100Y2846400D01*
X6209500Y2795600D01*
X6158700Y2821000D01*
X6107900Y2795600D01*
X5064320Y3989400D02*
X5089720Y4040200D01*
X5064320Y4091000D01*
X5115120Y4065600D01*
X5165920Y4091000D01*
X5140520Y4040200D01*
X5165920Y3989400D01*
X5115120Y4014800D01*
X5064320Y3989400D01*
D101*
X7035800Y2209800D02*
G03*
X7035800Y2209800I-50800J0D01*
G01*
%TF.MD5,387ee30f97b69f82a22fa7a0db1bc645*%
M02*
